<?xml version="1.0" encoding="UTF-8" standalone="no"?>
<!DOCTYPE svg PUBLIC "-//W3C//DTD SVG 1.1//EN"
"http://www.w3.org/Graphics/SVG/1.1/DTD/svg11.dtd">
<svg viewBox="0 0 909 1286" version="1.1" xmlns="http://www.w3.org/2000/svg" xmlns:xlink="http://www.w3.org/1999/xlink">
<defs>
<clipPath id="c0_13"><path d="M0,1286.2V0H909.4V1286.2Z"/></clipPath>
<clipPath id="c1_13"><path d="M41.5,721.8V466.3H352.1V721.8Z"/></clipPath>
<clipPath id="c2_13"><path d="M375.9,667.5V444.9H619.6V667.5Z"/></clipPath>
<clipPath id="c3_13"><path d="M443.6,470.8V280.5H609V470.8Z"/></clipPath>
<clipPath id="c4_13"><path d="M632.4,536.5V310.7H809V536.5Z"/></clipPath>
<clipPath id="c5_13"><path d="M58.6,852.4V638.3H386.9V852.4Z"/></clipPath>
<clipPath id="c6_13"><path d="M628.1,767.4V555.2H804.7V767.4Z"/></clipPath>
<clipPath id="c7_13"><path d="M643.9,960.8V746.7H820.5V960.8Z"/></clipPath>
<clipPath id="c8_13"><path d="M356.7,883.5V674.3H646.6V883.5Z"/></clipPath>
<style type="text/css"><![CDATA[
.g0_13{
fill: #D5B700;
}
.g1_13{
}
.g2_13{
fill: #FFFFFF;
}
.g3_13{
fill: none;
stroke: #000000;
stroke-width: 3.611;
stroke-linecap: butt;
stroke-linejoin: miter;
}
.g4_13{
fill: #E2C95F;
}
.g5_13{
fill: #C7C8CA;
}
.g6_13{
fill: none;
stroke: #FFFFFF;
stroke-width: 4.583;
stroke-linecap: butt;
stroke-linejoin: miter;
stroke-miterlimit: 4;
}
.g7_13{
fill: none;
stroke: #000000;
stroke-width: 1.527;
stroke-linecap: butt;
stroke-linejoin: miter;
stroke-miterlimit: 4;
}
.g8_13{
fill: none;
stroke: #FFFFFF;
stroke-width: 4.125;
stroke-linecap: butt;
stroke-linejoin: miter;
stroke-miterlimit: 4;
}
.g9_13{
fill: none;
stroke: #000000;
stroke-width: 1.375;
stroke-linecap: butt;
stroke-linejoin: miter;
stroke-miterlimit: 4;
}
.ga_13{
fill: none;
stroke: #000000;
stroke-width: 1.521;
stroke-linecap: butt;
stroke-linejoin: miter;
stroke-miterlimit: 4;
}
.gb_13{
fill: none;
stroke: #000000;
stroke-width: 1.485;
stroke-linecap: butt;
stroke-linejoin: miter;
stroke-miterlimit: 4;
}
.gc_13{
fill: none;
stroke: #000000;
stroke-width: 0.763;
stroke-linecap: butt;
stroke-linejoin: miter;
}
]]></style>
</defs>
<path d="M0,1286.2H909.4V0H0V1286.2Z" class="g0_13"/>
<path d="M56.3,89.9H909.4V56.3H56.3V89.9Z" class="g1_13"/>
<path d="M46.2,1215.9H836.5V871.4H46.2v344.5Z" class="g2_13"/>
<path d="M56.3,138.5H822.8" class="g3_13"/>
<path d="M779.5,237.3l-.6,2.3l-3.3,1.1l-.9,-1.2l-.5,.2l.9,3.4l1.3,.1l1.7,.7v.6l.9,-.1l1.1,-1.6v-1.4l.7,-1.3l.7,.2l-.9,-1.9l-.1,-1.2Z" class="g2_13"/>
<path d="M797.9,243.5l-.1,6.4l.9,-.1l1.2,-1.4l1.1,.1l.6,.5l.2,1.8l2.1,1.1l.5,-.2v-.6l-1.6,-1.4l-.9,-1.9l.7,-.3l-.5,-1l-1,-.1l-.2,-1.1l-2.5,-1.7Z" class="g2_13"/>
<path d="M612.3,211.6l1.2,4l-.5,.3v.8l1.1,.8v1.6l1.4,1.3l-.6,-3.8l-.8,-2.6l.2,-1.7h.7l.2,.6l-.2,1.5l3.3,6.6v2.4l2.8,3.2l3,1.3l1.2,-.7l1.7,1.5l1.1,-1.1l-.5,-1.2l1.5,-.4l.5,.2l.4,-.4h.7l1.3,-2.3l-.6,-.6l-2.5,.6l-.6,1.7l-1.5,.3l-1.8,-.8l-.8,-2.4l.6,-3.2l-1.2,-.7l-.5,-3l-.5,-.2l-.9,.8l-1,-.5l-.4,-2l-4,-.4l-2.1,-1.6Z" class="g2_13"/>
<path d="M711,190.4h-1.5l-.9,.5v.4l.6,.6l1.8,.3Z" class="g2_13"/>
<path d="M699.6,212.2l-1.1,-.4l-4.4,.8l-.9,.8l.6,3l-1.8,.1l-1.1,1.7l-2.5,.6V220l8.3,6.3l1.4,.1l4.7,-3.6l-.4,-.6l-.9,-.1l-.6,-.9v-3.7l-.3,-.4v-.9l-.9,-1l-.1,-1l.4,-.3l-.2,-1Z" class="g2_13"/>
<path d="M693,213.4h-3l-.6,1.3l-1.4,.7l-1.1,3l-2.2,1.3l-3,5h3l.1,-1.5h.7v-2h2.7l.1,-2.6l2.5,-.6l1,-1.7l1.7,-.1Z" class="g2_13"/>
<path d="M681.7,224.9l.6,.8l-.2,3.2l.9,-.6l.5,-.1l.9,.3l.9,1.3l.9,-.6l4.3,-.1l-1.1,-7.2h1.2l-2.2,-1.6v1.1h-2.6v2H685l-.1,1.5Z" class="g2_13"/>
<path d="M683,228.5l-1,.7l-.2,.4l-.1,.5l.4,.2h1.2l.9,-.2v.9l.7,.4l.2,.2h1l.1,-.4l-1,-1.2l-1,-1.4l-.7,-.2Z" class="g2_13"/>
<path d="M683.5,230.5l-1.3,.1v.2H684l.1,-.2l-.1,-.3Z" class="g2_13"/>
<path d="M682.5,231.8l.2,-.5l2.2,.3l-1,-.5l-1.7,-.1Z" class="g2_13"/>
<path d="M682.6,232.2l.4,.7l1,-.9v-.3l-1.2,-.1Z" class="g2_13"/>
<path d="M683.1,233.1l.8,1.2l1,-.9l1.1,-.1l.9,1.2l.7,.5l.3,-.6l.2,-.1v-1.2l-.5,-1.4l-1.5,.1l-1.9,-.1v.5Z" class="g2_13"/>
<path d="M684,234.4l1.5,1.4l1,-1.3l-.6,-1l-.9,.1Z" class="g2_13"/>
<path d="M685.7,236l2.8,1.9l-.1,-1.5l-.8,-1l-.9,-.7Z" class="g2_13"/>
<path d="M688.7,237.9l1.2,-.8l1.3,-.2l1.4,.3l-.7,-1.1l-.2,-.6l.2,-2l-1.2,.1l-.6,-.6h-1.2l-.6,.1l.1,1.4l-.3,.1l-.4,.6l1,1.1Z" class="g2_13"/>
<path d="M685.5,229.9l.8,-.5l4.4,-.1l-1,-7.1h1.2l5.6,4.3l.8,.1L697,229l-3.6,.3l-2.7,2.1l-.5,1.4l-1.9,.1l-.5,-1.4l-1.5,.1l.1,-.5Z" class="g2_13"/>
<path d="M693.5,229.5l1,-.1l1.5,2.2l-1.4,1.1l-1,-.3l-1.4,.1l-.3,.8h-1.1l-.4,-.4l.5,-1.3Z" class="g2_13"/>
<path d="M696.2,231.5h.7l.6,-.9l1,-.2l1,.7h2.3l1.8,-.7l.6,-.5l.1,-.8l1.2,-1.2l.3,-2.8l-.8,-1.7l-2,-.5l-4.8,3.8l-.7,-.1l-.3,2.6l-2.4,.2Z" class="g2_13"/>
<path d="M691.9,235.4l.3,.7l.8,1.2h.4l1.1,-.7v-3.7l-.9,-.2h-1.3Z" class="g2_13"/>
<path d="M694.7,232.9v3.6l.7,-.4v-2.7l-.4,-.7Z" class="g2_13"/>
<path d="M695.7,236.1h.5v-1.6l.7,-1v-1.8h-.6l-1.1,.9l.4,.8Z" class="g2_13"/>
<path d="M696.4,236l1,.1l1.2,1.3l.6,.2l.5,-.2l.7,-.1l.3,-1l.9,-.7h1.1l1.9,-3.5v-.8l-.9,-.7l-1.8,.8l-2.4,-.1l-1.1,-.7l-.8,.2l-.4,.7l-.1,2.1l-.6,1Z" class="g2_13"/>
<path d="M699.9,212.1l1.4,-.5l.5,.3v.3l-.2,.3v.5l.2,.2v.9l-.2,.4v.3l1,.3l-.8,1.2h-.3l-.1,1h-.3l-.3,-.2l.1,-1l-1,-.9l-.1,-.8l.5,-.4Z" class="g2_13"/>
<path d="M701.2,217.5l.4,-.1l.1,-.9h.2l.8,-1.4l2.1,.6l.5,.9l2.1,.9l1,-.4l-.1,-.5l-.5,-.4l.1,-.3l.7,-.6h1.5l.6,.7l1.1,.2l.2,9.6l-.9,-.1L705.8,223l-.5,.3l-2.2,-.6l-.6,-.7l-.9,-.2l-.4,-.7Z" class="g2_13"/>
<path d="M712.1,216.2h.7l1.3,.4h.6l.8,-.6h.4l.7,.3h1l.5,1.6l.2,.5l.1,.7l-.2,.2l-.5,-.2l-.5,-1.7h-.4l-.1,.6l.3,.9l2.5,3v1.3l-.7,.9l-6.6,-.1Z" class="g2_13"/>
<path d="M704.5,230v-.8l1.3,-1.2l.3,-2.9l-.8,-1.6l.5,-.3l5.6,2.9v2.8l-1,.9v1.4l.6,1.3h-1.1l-1.9,1.8v.6h-1.4v.2l-.8,-.1l-.6,-1l-.4,-.2l.1,-.3l.5,-.4v-1.8l-.7,-.1l-.9,-.7Z" class="g2_13"/>
<path d="M719.1,233.7l-.8,-1.3v-.9h-.2l-.1,.3l-1,1.4l-.8,-.3l-.8,.6l-1.6,-.1l-.7,-.5l-1.1,.5v.3l-.3,.2l3.2,3.3l1.7,.1l.2,.4l2.5,.1l.1,-.6l.2,-.4l.8,-.1l-1,-1.5h-.8l-.2,-1.1l.6,-.2Z" class="g2_13"/>
<path d="M719.9,223.4l-1,.9h-6.7l.1,1.7h-.7v3l-1,.9v1.2l.7,1.4l.8,.5l-.1,.1l1.1,-.6l.8,.7l1.4,.1l.9,-.7l.7,.3l.9,-1.2l.1,-.4l.6,-.1l.1,1.1l.6,1.1l1.6,-3.4v-2l1.1,-1.3Z" class="g2_13"/>
<path d="M700.6,237.3l.9,.8l-.1,1.2l4.6,-.2l.3,-.4L705,237.3l-.2,-.5l.9,-1.6l-.6,-1l-.5,-.3v-.5l.6,-.3v-1.7h-.4v.8l-2,3.6l-1.1,.1l-.8,.5Z" class="g2_13"/>
<path d="M721.1,229.6l-.1,-1.5l1.1,-1.2l.2,.2l.5,1.7l2.5,1.8l-.5,.5L723,229.6Z" class="g2_13"/>
<path d="M724.9,231.4l-.1,.9l1,-.1V231l-.4,-.3Z" class="g2_13"/>
<path d="M719.2,234l1.9,-4.2l1.9,.1l1.6,1.4l-.1,1.2h1.3l.2,.7l2,1.3h1.3l-2.4,2.6l-3.4,1.1h-.8l-1.5,-1.3l-.6,-.2L719.5,235h-.8l-.1,-.8Z" class="g2_13"/>
<path d="M726,232.3l1.1,.7h.3l2.6,-.9l.3,1l-.2,.8l-.5,.4l-1.5,-.1l-2,-1.2Z" class="g2_13"/>
<path d="M732.8,230.8l-.6,.1l.6,.6l.7,-.4l.3,-.1l-.3,-.4Z" class="g2_13"/>
<path d="M730.2,232l1.2,-.4l.4,.2l-.1,1.1l-1,2.9l-5.7,6.1l-.6,-.5l-.1,-2.5l.9,-1l1.8,-.5l2.6,-2.8l.7,-.7l.2,-.9Z" class="g2_13"/>
<path d="M705.2,237.2l1.3,1.3l.4,-.6l.8,.1l.2,-.6l.7,-.5l1.6,1.1l.9,-.9l3.4,.1l-3.2,-3.3l.4,-.3l.1,-.6l-.7,-.3H710l-1.7,1.7l-.1,.7h-1.4v.3l-.9,-.1l-.8,1.5Z" class="g2_13"/>
<path d="M698.8,240.6v.3l.3,.1l.2,-.3l-.2,-.2Z" class="g2_13"/>
<path d="M699.4,239.7l.1,.4h.3l.2,-.2l-.2,-.3Z" class="g2_13"/>
<path d="M700.4,238.1l-.2,.5l.4,.2l.3,-.2l-.1,-.6Z" class="g2_13"/>
<path d="M702.8,239.5v.6h-1.5l-.9,1.7l2.2,2.3l.5,-.4v-.5l-.4,-.1v-.4l.8,-.5l.7,.6h.8v-2.7l-1.3,-.1v-.6Z" class="g2_13"/>
<path d="M701.4,239.8l1.2,.1v-.4h-1.2Z" class="g2_13"/>
<path d="M704,239.4v.4h1.3v3.3l-1.1,-.1l-.7,-.5l-.5,.3v.1l.2,.2l.1,.6l-.7,.6l.2,.4l.7,-.6h.4l.1,.3l.5,.2l1.6,-1.3v-1l.3,-.8l1,-.7l.3,-2.6H707l-.9,1.2Z" class="g2_13"/>
<path d="M702.9,244.8l.4,.6l.6,-.6l-.2,-.5h-.1Z" class="g2_13"/>
<path d="M703.6,245.5l2.7,-.1l.5,.8v.5l.2,.2h1.3l.4,-.7h.6l.2,.2h.7l.3,2.6h1.2v.2l3.5,1.6l.2,.3h.7L716,250l-1.3,-.6l.1,-.9l.5,-1.3h1.3l-1.1,-3.7V242l1.8,-2.8v-.4l-.3,-.1l.1,-.7l-.4,-.1l-.3,-.4l-5.3,-.2l-.9,.9l-1.6,-1l-.6,.3l-.4,3.4l-1,.8l-.3,.7l.1,1l-1.8,1.5l-.5,-.2l.1,.2Z" class="g2_13"/>
<path d="M715.8,242v.8l1.1,-.1V242l-.7,-.7Z" class="g2_13"/>
<path d="M715.8,243l-.1,.5l.3,.7h.3l.3,-.3l.3,-.9Z" class="g2_13"/>
<path d="M716.3,241.1l.8,.8l.5,-.3l1.3,-.3l.3,.1v-.5l.8,-1.6l-.6,-1.3h-2.1v.5l.3,.3l-.1,.5Z" class="g2_13"/>
<path d="M719.6,237.9l.7,1.3l-.9,1.8l-.1,.5l4.2,2.5l1.2,-2l-.6,-.5v-2.7l.8,-.8l-1.3,.4h-1l-1.5,-1.3l-.5,-.2l-.9,.1l-.2,.3Z" class="g2_13"/>
<path d="M719.5,249.5L724,249l-1,-2v-1.9l.3,-.9L719,241.5l-1.4,.2l-.4,.4l-.1,.8l-.3,1.1l-.3,.3l-.5,.1l.9,3l1.4,.7h1Z" class="g2_13"/>
<path d="M710.1,253l.9,1.1l1.2,.1l.5,.2l1.3,.1l1.2,-1.7l3.2,-1.4l.3,-1.3l-.4,-1.8l-1.7,-.9l-1.1,.1l-.6,1.2l.1,.6l1.3,.6l.1,1.4h-1.2l-.3,-.4l-3.1,-1.4l-.1,1.1h-1.5Z" class="g2_13"/>
<path d="M703.4,245.7l.9,3.3v1.1l-1.3,1.3l-.2,2.3l5,.1l1.6,.5l1.3,-.1l-.7,-1v-2.8l1.5,-.1v-1l-1.3,-.1l-.2,-2.6h-.5l-.3,-.2h-.3l-.4,.8h-1.6l-.4,-.4l.1,-.5l-.4,-.6Z" class="g2_13"/>
<path d="M718.6,251.6l.8,.8v1.1l.2,.5l1,-1.2l-.1,-1.5l-.6,-.4l-.5,-2.6h-.9l.4,1.9Z" class="g2_13"/>
<path d="M717.1,260.4l.7,.6l1.6,-1l.3,-1.5V256l2.6,-2.1h.5l1.6,-1.6l-.3,-3.1l-4.2,.5l.1,1l.7,.5l.2,1.8l-1.4,1.4l-.4,-.8l.1,-1.1l-.8,-.9l-2.1,1l1.9,.9l.1,2.8l-1.3,1.9Z" class="g2_13"/>
<path d="M712.8,254.9l2.3,2.7l1.8,.4l1.2,-1.8l-.1,-2.5l-2,-1l-.7,.3l-1.1,1.7l-1.5,-.1Z" class="g2_13"/>
<path d="M705.5,262.6l.8,.1l.6,.5h1.2l.3,-3.4v-2.3l.7,-.1l.3,-2.4h2l.7,-.6l-1.2,-.1l-1.6,.3l-1.7,-.7h-4.8l.1,1.4l1.6,2.4l-.3,1.2v.6Z" class="g2_13"/>
<path d="M708.6,259.9l.5,.1v1.6l.5,.1l1.4,-1.2l1.5,.2l.5,-1.1l2,-1.8L712.6,255l-.1,-.4l-.2,-.1l-.8,.7h-1.9l-.2,2.4l-.8,.1Z" class="g2_13"/>
<path d="M716.3,260.7l-.3,.8l.5,.4h.7l.5,-.7l-.7,-.6Z" class="g2_13"/>
<path d="M713.5,263.5l.8,-.6h.4l.4,.6v.6l-.8,.2v.3l-.8,-.1l-.2,-.6Z" class="g2_13"/>
<path d="M715.2,257.9l-2,1.9l-.5,1.2l-1.6,-.2l-1.4,1.2l-.9,-.1l.1,-1.7l-.3,-.1l-.2,3.4h-1.6l-.5,-.6h-.7l.6,1.8l1.2,1.1l-.9,1l.6,1.2l1.2,.4l1,-.8h2.8l.2,-.2l1.2,-.2l4.2,-4.2v-1.3l-.5,.5h-.6l-.8,-.6l.4,-1.1l.7,-.1l-.1,-2.1Zm-.9,4.8h.3l.7,.7v.8l-.8,.3v.3h-1.2L713,264l.3,-.7Z" class="g2_13"/>
<path d="M659.9,166.1l-.3,.6l.6,.6l-.3,.7l1,1.2l1.1,-.4l1.5,-.1l1.7,1.8l1.1,3l-.9,1.9l1.3,-.2l.7,.4v1h-1.5l.8,.9l1.1,.2l-2.3,3.1l-.3,1.9l.5,1.6l-.4,.9l.6,2l1.2,1.3l.4,-.1l.8,-.2v1.1l.5,.7h1l.7,-2.6l2.1,-2.6l3.2,-1.3l1.9,-2.5l.9,.4h2l1.5,-1.5l1.9,-.8l.2,-1.2l-1.2,-1l-1,-.4l-.6,-1.5l1.3,-.8l2.2,1.2l.7,-.8l-1.2,-.6l2.4,-3.3l-.4,-1.4l-1.1,-.1l.4,-1.2l1.4,-.7l2.9,-2.5l-.8,-.9l-3.3,.2l-1.7,1.7l1,-2.1l-1.1,-.3l-.7,1.1l-.9,-.8L680,164l.7,-1.1l4.2,-.2l-1.1,-1.4l-4.5,-.8l-1.8,.3v.9l-1.9,-.7l.1,-.6l-1.4,.3l-.2,.7l1.4,.5L674,163l-1.1,-1.2l-1.4,-.5l-.3,1.2h-1.4l-.6,-1.2l-2.3,-.4l-1.3,.6l-.1,.9l-1.6,-.2l-1,.4l.1,1v.5l-1.9,.3l-.8,-.5l-.6,.9l.9,.9l1.7,-.2l.2,.6l-1.4,.6Z" class="g2_13"/>
<path d="M665,177.4l-.2,.5l.6,.6h.4l.2,-.7l-.4,-.7Z" class="g2_13"/>
<path d="M682.8,175.7l.3,.4l1.3,.6v-1l-1.2,-.3Z" class="g2_13"/>
<path d="M774.2,264.2l-.1,6.6l-1,.7l-.1,.7l1.3,.9l3.5,-.6h1.7l.6,-1l3.9,-.7l2.8,.8l-.2,1.1l.4,1.2l2.1,-.4l.1,.5l-1.4,1.1l.4,.3l1.1,-.3l-.3,3l1.9,1.5l1.1,-.4l.6,.6l3.2,-.5l3,-4.9l1.1,-.3l2.3,-4.1l.5,-3.5l-1.4,-1.7l.6,-.4L800.8,261l-1.2,-.9l.2,-4.6l-1.1,-.9l-.3,-2.6h-.6l-1.8,6.2l-1,.1l-2.3,-2.4l1.3,-3.4l-2.4,-.5l-2.7,.8l-.7,2.1l-1.2,.3l-.1,-1.5l-4.9,3l.1,1.1l-.8,1h-1.8l-4,1.7Z" class="g2_13"/>
<path d="M790.9,281.9l-.4,1.9v1.3l1.4,-.1l1.6,-2.4Z" class="g2_13"/>
<path d="M813.6,278.2l.2,3.1l-.3,1.4l-1.4,1l.1,1.2v1.3l.4,.5l3.7,-3.3v-.7h-.9l-1.3,-4.4Z" class="g2_13"/>
<path d="M810.8,284.9l.7,1.4l-2,1.9l-.2,1.1l-1.3,.1l-2.4,2.2l-2.1,-1l-.2,-.8l3.9,-1.7Z" class="g2_13"/>
<path d="M811.9,262.3l-.1,.4l1.2,1.7l.7,.3l.1,-.7Z" class="g2_13"/>
<path d="M764.1,235.6l-.1,.5l1.8,3h.5l3.7,6.1l1.5,.2l.7,-2.1l-1.2,-.8l-.2,-1.2Z" class="g2_13"/>
<path d="M774.9,239.5l.8,.9l3,-1l.6,-2.3l1.4,-.1l1.2,-.9L780.3,235l-.4,-.7l-.8,1.5l.3,.8l-.4,.7l-.9,-.2l-2.2,1.6v.9Z" class="g2_13"/>
<path d="M778.2,236.9l.6,.2l.4,-.5L779,236Z" class="g2_13"/>
<path d="M781.5,243.7l.6,.8l-.4,1v.2h.9l.3,-2.7l.3,.1l.5,2.5l.5,.1l.4,-1l-.4,-1.6l-.4,-.7l1.2,-.9l-.3,-.4l-1.1,.8h-.3l-.6,-.9l.2,-.3l.9,-.5l1.4,.5l.5,-.1l1.1,-1l-.5,-.4l-1,.8h-.6l-1,-.5H783l-.7,1.3l-.5,2.1Z" class="g2_13"/>
<path d="M787.9,238.9l-.5,1.2l.8,1h.3l.3,-.7l.2,-.2l-.4,-.4l-.5,-.1Z" class="g2_13"/>
<path d="M788.4,243l-.3,.4l.2,.4l.7,-.3l.4,-.2l.7,.5l.3,-.2l-.5,-.7l-.5,-.1Z" class="g2_13"/>
<path d="M772.1,246.1l-.7,.5l.1,.4l2.3,.5l1.1,.2l.5,.6l1.3,.1l.6,.5l.6,-.2l.5,-.4l-.9,-.5l-.9,-.6l-2.1,-.6Z" class="g2_13"/>
<path d="M778.9,248.7l.4,.3l.8,-.3l-.6,-.3Z" class="g2_13"/>
<path d="M780.5,248.1l.1,.5l.6,.2l.2,-.3l-.3,-.4Z" class="g2_13"/>
<path d="M781.2,249.5l.6,.6h.5l-.4,-.7Z" class="g2_13"/>
<path d="M782.1,248.6l-.2,.3l1.2,.2l.9,-.6l-.5,-.1l-.9,.2l-.3,-.2Z" class="g2_13"/>
<path d="M784.5,249.9l.1,.2l.6,-.1l.7,-.6l1.3,-.2l-.3,-.4l-1.1,-.1Z" class="g2_13"/>
<path d="M805.1,243.7l-.2,.3l1.2,1.1l.2,.7l.4,-.1v-.6l-.4,-.4Z" class="g2_13"/>
<path d="M805.7,245.3h-.2l-.1,.7l-.5,.3l-1.4,.3v.5L805,247l1,-.6l-.1,-1Z" class="g2_13"/>
<path d="M807.4,246.4l.4,.9l.5,.6l.2,-.2l-.1,-.6l-.6,-.7Z" class="g2_13"/>
<path d="M809,248.4l.4,.3l.3,-.2l-.3,-.6l-.4,-.1Z" class="g2_13"/>
<path d="M809.2,249.6l.3,.6l.4,.1l-.1,-.4l-.3,-.7Z" class="g2_13"/>
<path d="M810.5,249.5l.5,.7l.3,-.5l-.4,-.6l-.7,-.2Z" class="g2_13"/>
<path d="M811.7,250.7l.3,.5l.3,-.7l-.8,-.6Z" class="g2_13"/>
<path d="M811.8,251.9l.4,.6h.3l-.1,-.8h-.5Z" class="g2_13"/>
<path d="M810.5,253l.4,.6l.4,-.2l-.3,-.6Z" class="g2_13"/>
<path d="M815.3,256.7l.1,.4l.2,.2l.3,-.4l-.3,-.7Z" class="g2_13"/>
<path d="M815.8,257.5v.4l.3,.1l.3,-.1l-.3,-.4Z" class="g2_13"/>
<path d="M816.1,260.9l.3,.3l.4,-.1l-.5,-.4Z" class="g2_13"/>
<path d="M822.5,260.6v.5l.3,.3v-1.3Z" class="g2_13"/>
<path d="M781.5,230.4l-.2,.4l-.2,.5l-1.2,1.6l.1,.3l.5,-.1l1.6,-1.8Z" class="g2_13"/>
<path d="M783.5,231.1l.4,.4l.2,1l.5,.1l.2,-.6l-.4,-.3l-.1,-1.6l-.8,-.3Z" class="g2_13"/>
<path d="M784.8,231.4l.3,.5l.4,-.6l-.1,-1h-.6Z" class="g2_13"/>
<path d="M785.1,229.3l.5,.6l.2,.6h.4v-1l-.5,-.4Z" class="g2_13"/>
<path d="M786,231.6l.1,.8l-.8,.7h-.7l-.8,.9v.3l.7,-.2l.5,-.3l.4,1.1l.8,.5l.3,-.1l.3,-.3l-.6,-.6l.3,-.3l.4,.3l.3,-.4l-.3,-.6v-1.2Z" class="g2_13"/>
<path d="M782,224l-.7,.5V226l1,2l.3,.3l.5,-.3l.8,.1l.1,.6l.6,.1l.3,-.4l-.4,-.4l-.4,-.4l-.9,-.1l-.5,-.8l.6,-.8v-.8l-.4,-.9Z" class="g2_13"/>
<path d="M782.5,229.2l.4,.2l.2,-.3l-.4,-.6h-.4Z" class="g2_13"/>
<path d="M773.2,223.4l-.5,.6l.4,.7h.6l.6,-.5l.1,-.7l-.6,-.2Z" class="g2_13"/>
<path d="M780.1,218.3l-.1,1.3l.8,1l.2,-.2v-2.8Z" class="g2_13"/>
<path d="M785.1,209.3l-.4,.4l.1,.6l.4,.1l.2,1.3l.3,.3l.6,-.5l.2,-.9l-.7,-.9Z" class="g2_13"/>
<path d="M786.6,209.1v.8l.2,.2l1,-.8l-.1,-.8h-.3Z" class="g2_13"/>
<path d="M786.4,206.8l-1.3,1.5l.2,.4h.6l1.2,-.9l.8,-.1l.8,.8l.5,-.2l.3,-.8h1l1.1,-1.3l-.6,-2.1l-.2,-1.1l.5,-.4l-1.2,-1.9h-.3l-.7,.8v.6l.3,.4l.1,1.6l-.8,1l-.4,-.3l-.4,.8v.7l.2,.4l-.1,.3l-.6,-.4H787l-.4,.2Z" class="g2_13"/>
<path d="M788.5,195.5l-.4,.4l.2,.7l.4,.4l-.1,1.1l-.4,.2l-.4,.8l1,1.4l.7,-.2l.1,-.4l-.7,-.6l.5,-.6l.4,.1l.4,.4v-.9l1.1,-.8l.5,-.1l-.4,-.8l-.3,-.4l-.3,.3l-.4,.4l-.7,-.2l-.7,-.5Z" class="g2_13"/>
<path d="M791.5,195.7l.1,.5l.3,-.1l.9,-1.1l-.6,-.2Z" class="g2_13"/>
<path d="M793.2,193.3l-.3,.7v.5l.5,-.3l.4,-.8v-.3Z" class="g2_13"/>
<path d="M794.3,187.8v.6h.3l.5,-.9l-.5,-.1Z" class="g2_13"/>
<path d="M794,188.9V190l.4,.1l.2,-.4v-.8Z" class="g2_13"/>
<path d="M783.9,184.9v1.6l2,3.1l.7,2.7l1.3,2.4l.4,.2l.5,-.3l.2,-.6l-1.8,-2v-1l.4,-.2l.1,-.6l-3.5,-5Z" class="g2_13"/>
<path d="M797.4,180l.3,.4l.6,.5l.2,-.2l-.6,-.7Z" class="g2_13"/>
<path d="M798.9,180.7l.8,.2l.1,-.3l-1,-.3Z" class="g2_13"/>
<path d="M803.4,182.5l.5,-.1l.1,-.3l-.9,-.2Z" class="g2_13"/>
<path d="M595.5,168.7l.5,-.2v-.6l-1.4,-.9Z" class="g2_13"/>
<path d="M589.4,182.5l.6,-.1v-.3l-.5,-.4Z" class="g2_13"/>
<path d="M587.5,182.7l.2,.6l.4,-.4l.9,-.4l-.4,-.4Z" class="g2_13"/>
<path d="M583.1,183v.7l.9,-.9l-.8,-.1Z" class="g2_13"/>
<path d="M581.3,183l.5,.4l.5,-.6l-.7,-.3Z" class="g2_13"/>
<path d="M579.1,181.7v.7l.4,.3l.3,-.6l-.4,-.5Z" class="g2_13"/>
<path d="M577,179.7h.3l.1,-.4L577,179Z" class="g2_13"/>
<path d="M735.3,257.2l.1,.6l.8,-.7l-.5,-.4Z" class="g2_13"/>
<path d="M733.7,257.6l-.1,.5l.4,.1l.6,-.3l-.4,-.3Z" class="g2_13"/>
<path d="M730.3,249.9l-.5,1.3l-1,1.7l-1.6,.1l-.7,.9l.1,2.5l-1.1,1.2l.2,2l.8,1l1.1,-.1l1,-.8l-.2,-1.1l2.3,-4.1l-.4,-.6l.4,-1l.5,.2l.2,-.4l-.5,-2l-.3,-.9Z" class="g2_13"/>
<path d="M726.5,249.5l.2,.4l.5,.1l.2,-.6Z" class="g2_13"/>
<path d="M727.3,250.3l.2,.4h.3l.2,-.5Z" class="g2_13"/>
<path d="M732.8,246.5l.4,.3l.3,-.3l-.6,-.4Z" class="g2_13"/>
<path d="M734.7,244.1l.3,.5h.5l-.3,-.9Z" class="g2_13"/>
<path d="M735,245.5l.3,.4h.4v-.7l-.4,-.1Z" class="g2_13"/>
<path d="M747,237.1l.5,.1l.1,-.6l-.6,-.2Z" class="g2_13"/>
<path d="M747.5,238.6l.3,.2l.3,-.6l-.6,-.4Z" class="g2_13"/>
<path d="M747.3,239.7l.3,.3l.4,-.3l-.4,-.3Z" class="g2_13"/>
<path d="M673,209.8l.6,.4l.1,-.5l-.4,-.2Z" class="g2_13"/>
<path d="M674.8,209.5l.3,.3l.6,-.1l-.5,-.5Z" class="g2_13"/>
<path d="M675.3,210.8l.3,.4l.3,-.3l-.4,-.7Z" class="g2_13"/>
<path d="M677,211.7l.3,.2l.5,-.3l-.6,-.2Z" class="g2_13"/>
<path d="M682.3,214.8l.2,.4l.5,-.2l-.5,-.5Z" class="g2_13"/>
<path d="M684,219.2l.2,.3l.3,-.5Z" class="g2_13"/>
<path d="M682.3,219.2l.3,.4h.4l-.1,-.6Z" class="g2_13"/>
<path d="M681.2,219l.5,.4l.3,-.6l-.4,-.2Z" class="g2_13"/>
<path d="M676.7,228.8l.3,.3l.5,-.2l-.3,-.4Z" class="g2_13"/>
<path d="M678.1,229.4l.2,.4l.6,-.2l-.5,-.5Z" class="g2_13"/>
<path d="M677.3,230.2l.4,.6l.4,-.2l-.4,-.7Z" class="g2_13"/>
<path d="M648,226.8l.1,.4l.5,-.3l-.1,-.1l-.1,-.1Z" class="g2_13"/>
<path d="M648.8,227.6l.3,.3l.3,-.3l-.4,-.5Z" class="g2_13"/>
<path d="M649.5,228.7l.2,.4l.4,-.1l-.3,-.6Z" class="g2_13"/>
<path d="M649.6,229.8l.3,.4l.4,-.3l-.5,-.5Z" class="g2_13"/>
<path d="M649.5,230.7l.2,.4l.5,-.2l-.4,-.5Z" class="g2_13"/>
<path d="M649.1,231.6l.1,.2h.4l.1,-.3l-.3,-.2Z" class="g2_13"/>
<path d="M649.6,232.5h-.3v.4l.5,.5l.3,-.4l.1,-.4v-.3l-.3,-.1Z" class="g2_13"/>
<path d="M645.7,226.2l.3,.3l.9,.2v-.6l-.6,-.3Z" class="g2_13"/>
<path d="M641.7,224.6l-.4,.4l.5,.2v.7l-1.1,.1l.2,.6h.3l.2,-.3l1.2,.1l.3,.4l.3,-.4l.8,-.2l.8,.2l.1,-.5l-1.4,-.9l-.9,-.3Z" class="g2_13"/>
<path d="M644.9,225.9l-1.4,-.9l-.6,-.2l-.3,1.6l.3,.4l.3,-.4l.8,-.2l.8,.2Z" class="g2_13"/>
<path d="M641.7,224.6l.9,.1l-.1,1.1l-.1,.6l-1,-.1l-.2,.3h-.3l-.2,-.6l1.1,-.1v-.6l-.5,-.3Z" class="g2_13"/>
<path d="M655.2,285.4l.5,.5l.8,-.9l-.7,-.1Z" class="g2_13"/>
<path d="M657,285.4l-.7,.6l.1,.2l1.1,-.5l.4,-.5l-.7,-.5Z" class="g2_13"/>
<path d="M682.1,183.6l-.5,-.3l-.7,.4l-.6,.6v.3l.8,.1l-.1,.5l-.3,.3l.1,.2h.8v.9l1.1,.2l.6,.4h.8l1.2,-.6l1,-1.3v-.9l-.6,-.5l-.5,-.4l-.2,.2l-.3,.4l-.4,-.1l-.4,-.4l-.5,.1l-.7,.6l-.4,.4l-.3,-.2V184l.2,-.2Z" class="g2_13"/>
<path d="M703.3,167.1l-.4,-.4l-1,.5h-1.7l-.3,1l1,.8h.4l.6,-1.1l.6,.4l-.4,.7l-.2,1.1l.4,.7l1,-1.5l1.2,-1.5l-.5,-.4Z" class="g2_13"/>
<path d="M703.8,165.3l-.7,.7l.4,.7h.9l.3,.5l1,.5l1.2,-.7l.8,-.7l-.3,-.5l-.8,-.5l-.6,.5l-.4,-.5l-.3,.1l-.4,.8l-.6,-.5v-.4Z" class="g2_13"/>
<path d="M705.6,168.5l-.6,.5l-.5,.4l.2,.4l.5,.2l.8,-.4l.4,-.4l-.4,-.6Z" class="g2_13"/>
<path d="M718.8,163.2l.4,.2l-.3,.5v.8l-.7,.4h-.7l-.4,-.5l.1,-.5l.3,-.5h.6Z" class="g2_13"/>
<path d="M720.5,162.7v.5l.4,.4h.7l.5,-.5v-.4h-.5l-.4,.1l-.3,-.3Z" class="g2_13"/>
<path d="M723,162.7l.3,.7l.7,.1l.4,-.2l-.2,-.6l-.6,-.2Z" class="g2_13"/>
<path d="M724.6,162.2l.3,.4l.1,.6l.6,-.4l.1,-.5l-.1,-.5h-.5Z" class="g2_13"/>
<path d="M728.3,166.6l-.1,.7l-1.1,.9l-2.2,.4l-1.7,3l-.4,.9l1.8,.4l.3,-1.1l.5,-1.6l1.4,-.7l1.2,-.9l.8,-.4h.5V167Z" class="g2_13"/>
<path d="M722.5,173.2l1.2,.1l.4,1.4l1.1,1.1l-.4,.7h-.6l-.6,-.6l-1.3,-.1l-.5,-.7v-.5l.8,-.2Z" class="g2_13"/>
<path d="M741.4,157.8l-.6,-.3h-.7l-.1,.4l-.7,.4l-.5,.2l-.1,.5l1.2,.1Z" class="g2_13"/>
<path d="M742.8,158l-.3,.6h-.7l-.9,.7l-.3,.9h.6l.4,-.6l.8,.7l.8,-.4l.6,-.5l-.2,-.8l-.3,-.5Z" class="g2_13"/>
<path d="M744.1,158.5l.3,1.2l.5,1.2l.5,-.9l1,-.3v-.6l-.6,-.5Z" class="g2_13"/>
<path d="M768.6,156.5l.7,.5l.5,-.2l.1,-.8l-1,-.7l-.6,.4l-1.7,.2v.7l-1.7,.1v1.2l2,1.5l.5,-.4l-.1,-1.1l1.3,-.3l-.3,-.5l-.4,-.5Z" class="g2_13"/>
<path d="M770.5,155.7l.4,.9l1.8,-.2l.5,-.6l-.1,-.6l-.5,-.2l-.4,.4l-1.4,.3Z" class="g2_13"/>
<path d="M768.9,159.5l-.2,.8l1.2,-.2l.9,-.4l-.5,-.5l-.9,-.3Z" class="g2_13"/>
<path d="M793.8,154.1l-.8,-.2l-.9,.3l-.4,.6l.5,.8l1.5,-.7l.3,-.3Z" class="g2_13"/>
<path d="M753.2,233.1l.1,.7l.1,.5l-.4,.1l.2,1.1l.5,.3l.9,-.5l-.2,-1.2v-.4l-.8,-.8Z" class="g2_13"/>
<path d="M633.9,222.4v.3l1.4,.1l.7,-.4l.1,.3l1.3,.3l1.2,1.1l-.3,.4l.1,.4l1,.2l1,-.4l.4,-.5l-.6,-.3l-3.4,-2l-1.1,-.1Z" class="g2_13"/>
<path d="M638.4,220.9l.4,.4l.3,-.4l-.3,-.5l-.3,-.1Z" class="g2_13"/>
<path d="M639,221.6l.4,.6l.2,-.3l-.2,-.5Z" class="g2_13"/>
<path d="M640.5,222.1l.3,.5l.3,-.3l-.2,-.5h-.5Z" class="g2_13"/>
<path d="M639.7,220.1l.2,.8l.8,.3l-.1,-.4l-.3,-.2L640,220Z" class="g2_13"/>
<path d="M639,218.9l.4,.1l.1,.5l.4,.1l.3,-.6l-.4,-.2l-.5,-.2Z" class="g2_13"/>
<path d="M637.7,225.9v.3l.5,.3h.6l.3,-.4l-.5,-.4Z" class="g2_13"/>
<path d="M792.5,241.2l-1.1,.1l-.7,.5l.3,.6l1.2,.2v.3l-.7,.6l.3,1.2h.4l.3,-1.2h.6l.2,1.2l2.8,2.3l.1,1.9l1,1h.4l.1,-6.4l-1.6,-1.2l-1.6,1.1l-.5,.3l-.9,-.6l-.1,-1.8Z" class="g2_13"/>
<path d="M600.8,164.8l-2.2,.5l.4,2.4l2.4,.7l.1,.5L598,170l-2,3.3l.7,3.5l1.2,.8l.9,-.9l.2,.5l-1.1,1.3l-4.2,2l-2.7,.6v1l6.2,-1.8l2.5,-.7l2.4,-2.9l2.6,-1.8l-1.3,2.3l1.5,.2l2.5,-1.1l.4,1.8l1.7,.4l1.8,1.7l.2,1.3l-.3,.3l.3,1.2h.5v-2h.5l.2,5.1L614,185l-.9,-5.3h-1.4l-1.5,-1.9l7.3,-12.3l-7.2,-5.6l-8,1.6l-.3,2.4l1.7,1.1l-.6,1.6Z" class="g2_13"/>
<path d="M629.5,162.4v1.1l-2,2.1l.5,1.8l1.5,-.4l.8,-1.3l2.2,-.8l1.8,-.1l-1.4,-1.5l-.7,.5l-.5,-.2l-.3,-.6l-.6,-.7Z" class="g2_13"/>
<path d="M632.2,159.4l-.5,.8l2.3,.8l.8,-1.2l.3,.8h.6l1.1,-1.2l-1.3,-.4l-.6,-.4l-.6,.7Z" class="g2_13"/>
<path d="M636.1,161l-1.8,.7v.6l2.3,.9l-.5,.6l.3,.7l1.5,-.6h1.2l.6,.9l.9,-1l-.2,-.9l-.8,.3l-.1,-1.2l.4,-.7h-.4l-.6,.4l-.3,.3l.1,.8l-.4,.3h-.7l-.2,-1.1Z" class="g2_13"/>
<path d="M638.3,159.8l1.1,.5l.8,-.5l-.1,-.3l-1.6,-.3Z" class="g2_13"/>
<path d="M638.5,158.5l.1,.4l1.8,-.1l-.1,-.4l-1,-.2Z" class="g2_13"/>
<path d="M643.2,159.2l-.1,.4l-.3,.4v.6l1.1,-.2l1.1,1h.4v-1l-1.1,-1.3Z" class="g2_13"/>
<path d="M646.1,160.4l.5,.5l-.4,.7l.3,.7l1.2,-.7v-.5l-.7,-.9Z" class="g2_13"/>
<path d="M647.8,159v1h1.6l.4,.3l-.1,.4l-1.3,.2l.9,1.3l1.4,.2l1.8,-.8l-2.7,-4l-.8,.5l.1,.7l-.9,-.3Z" class="g2_13"/>
<path d="M634.4,165.6l-2.2,.6l-1.3,1.1l.1,1.2l2.3,.7l-.5,1.1l-1.7,-1l-.4,.9l1.1,.7l-.1,1.2l1.7,.5l2,-.1l.4,-.7l1.4,1.7l1.1,-.3l.2,-1.2l.7,.5l.1,-1.1l-.9,-.6l.1,-3.7l-.9,-.6l-.8,1.2Z" class="g2_13"/>
<path d="M641.4,168.1l-.8,-.3l-.4,.5l.8,1.3l.1,1.2l1.7,-1v-1.6l.7,-.6l-.7,-.5h-1Z" class="g2_13"/>
<path d="M645.1,167.6l-1.2,1l.3,1.2h.7l.3,-.6l.6,.5l.5,-.1l1.4,-1.1Z" class="g2_13"/>
<path d="M644.7,166.3l1.2,.4l.4,-.5l-1.3,-.5Z" class="g2_13"/>
<path d="M644.2,163.5l-1.3,.2l-.7,.7h1.4l-.4,1.1l.3,.4h.4l.9,-1.6Z" class="g2_13"/>
<path d="M646.4,163.1l-.7,.2l.1,.9l1.2,.8v.6l-.3,.3l.2,1.2l4.4,1.4l1.2,.4l1.2,-1l-1.4,-1.2l-1.4,.4l-1.8,-.2l-.7,-.7l-.2,-1.9l-1.1,-.6Z" class="g2_13"/>
<path d="M650,169.1l-1.2,-.1l-1.5,.6l-.8,1.1l.2,3l2.5,.1l2.3,1.2l1.7,1.9l1.3,-.1l-.4,1.8l-1.1,1.9l-1.3,.6l-.9,-.2l-.5,-.4l-.7,1l.3,.9h1l1.2,-.5l1,2.6l2.6,1.7l1.8,-2.2L656,181.5l.9,-1l1.2,2.1l2.2,-1.9l-.4,-.9l-1.5,.4l-1.1,-2.8l1,-1.6l-1.9,-2.1l-1.1,.7l-1.1,-2.2l-2.2,.3l-.5,-2.7l-1.8,1.2l-.2,1.5h-1l.1,-1.4Z" class="g2_13"/>
<path d="M652.2,170.6l.4,.7l1.9,.2l-1.3,-1.3h-.6Z" class="g2_13"/>
<path d="M650.8,163.6v.5l-1.3,.3l.3,.6l1.5,.6l1.6,.1l1.1,.9l1.2,-.7l-.8,-.8h1l.7,-.7l1.5,-.2v-.4l-.8,-.5l.1,-.7l2.4,.4l3.6,-1.4l-1.4,-.4l.4,-.4h2.7l.5,-.5l-5.6,-2l-1.3,-.4l-1.5,1l-1.6,-1.3l-.8,-.1l-.2,1.1l-1.1,-1l-1.3,.4l.3,.7l1.9,.4l-.1,.9l1,.6l2.5,-.6l.1,.9l-2.1,1l-1.3,-1l-1.1,.1l1.1,1.6l-.5,.3l-.9,-.7l-.6,.4l.5,1.1h1l-.2,1l-.8,-.1l-1,-1.1Z" class="g2_13"/>
<path d="M645.6,179.6l-1.1,1.3v1.6l.9,-.6h1.2l.8,.8l.8,-.6Z" class="g2_13"/>
<path d="M659,197.5l-2.7,2.7l.2,.6l3.4,1.2l.5,-.8l-.3,-1.4l-1.1,.1l-.6,-.6l1,-1.1Z" class="g2_13"/>
<path d="M617.7,165.8l.5,.7l.2,1.1l1.3,.3l.9,-1l.8,.4l2.2,.2l1.6,-.6l.2,2.1h.9v-.9l.9,.1l2.3,2.6l1.5,1l-.8,1.2l.3,.3l2.9,.6l.1,1.3l.8,.1l.2,-1.9l1.2,-.3l.9,1.3l1.9,.9l1,.2l.7,-.8v-1.2l1.2,-.7l.4,1l-1.1,1.9l.2,.9l.6,-.9l1.1,-1.1l.1,-1.4l-.7,-1l.2,-.8l1.6,-.8l.7,.5l.1,4.6l1.1,-1l.7,.4l-.9,1.5l1.1,.3l1.7,-2.6l1.4,1.5l-.6,2.7l-1.4,.7l-1.3,-.6l-2.5,.5l.3,.9l-.7,1l-2,.5l-2.2,1.7l-2,2.7l-.3,.8l1.4,.6l.5,1.3l1.8,1.8l3,1.4l-.6,2.9l-.1,.9l.8,.5l1,-1.4l.1,-2.6h1.7l.7,-1.5l.2,-2.3l2,-4l2.6,.9l1.4,1.9l-.6,1.9l1,.5l2.6,-1.7l.7,4.7l2.3,2.8l.1,1.4l-2.6,.7l-1.3,1.3l-2.5,-.6l-1.3,-.1l-2.3,1.8l1.4,-.4l1.6,-.3l.4,.4l-.5,1.4l.1,1.3l.8,.6l.7,-.2l.4,-.6h.5l-.8,1.5l-1.6,.1l-.7,1.1H651l-.3,-.8l1.3,-1.3l-1.6,.5v-2.2l-.5,-.3l-1.3,.6l-.2,1.1h-3.1l-2.6,1.8l-3.6,1.2l-.4,-.5l1.8,-2.7l-1,-1l-.6,-1.2l-1.3,-1l-1.5,-.1L633.6,197l-18.3,-3l-.3,-1.3l-1.7,-1.5v-1.3l.2,-1.2l-.1,-.6l-.6,-.7l-.2,-1l1.7,-1.2l-1,-5.6l-1.4,-.1l-1.3,-1.7Z" class="g2_13"/>
<path d="M615.2,194.2l-.2,1.1l-1,-.6h-.4l-.3,1.1l-3.1,7.1l.8,6.2l1,.5l.2,1.7h2.2l2,1.6l4.1,.4l.5,2l.6,.5l.9,-.9l.7,.3l.7,3l1.1,.7l.9,-1.7l2.8,-2l1.8,.8l1.5,.2l.1,-1l3.2,.1l.7,.7l.1,1.6l-.4,.9l.5,1.6h.9l1,-1.5l-.4,-.7l-.4,-1.6l.6,-1.8l2.7,-2.2l2,-.6l-.3,-1.9l2.8,-3l2.8,-.5l-.5,-1.5l2.7,-1.6v-2.1l-.2,-.1l-1,.3l-.1,1.3h-3.3l-2.5,1.7l-4,1.3l-.6,-.8l1.8,-2.7l-.9,-.8l-.6,-1.2l-1.2,-1l-1.4,-.1l-2.6,-1.8Z" class="g4_13"/>
<path d="M610.9,187.3l.1,.6l.3,.2v.2l-.3,.1v.9l.4,.3l.2,-.2l-.3,-.9l.2,-.7l.5,-.7l-.4,-.6h-.3Z" class="g2_13"/>
<path d="M612.8,191.5l-.4,.2l.7,.8l.2,1l.7,.8l.6,-.1v-1l-.7,-.5Z" class="g2_13"/>
<path d="M627.2,228.8l1.5,1.1l1.6,-1.9l-.3,-.4h-.5v-1.2l-.4,-.2l-1.2,.4l.4,1Z" class="g2_13"/>
<path d="M630.5,228.1l2.4,-.1l.7,.8l-.5,-.1l-.8,.1l-1.1,1l-.5,1.1l-.3,-.2v-1.1l-.7,-.5Z" class="g2_13"/>
<path d="M628.9,230l1.3,.6l-.1,-.9l-.6,-.4Z" class="g2_13"/>
<path d="M633.1,228.9l.6,.2v1.1l-.7,1.9l-1.7,-.2l-.4,-.9l.5,-1.1l1,-.9Z" class="g2_13"/>
<path d="M633,232.3l.4,.7l.3,.4l-.4,1.2l-.8,-.6l-1.2,-1.1v-.7Z" class="g2_13"/>
<path d="M633.9,233.5l-.4,1.2l1.2,.3l.8,.1l.1,-.9l.9,-.4l.7,.4l.3,.5l.3,-.1l.3,-.8l-.9,-.4l-.7,-.4l-.7,.5l-.8,.4l-.9,-.3Z" class="g2_13"/>
<path d="M642.5,230.9h-.6l-3.5,2.9l-.4,1l-.5,.1l.2,2.2l-1.2,3.1l1.3,1.1l1.8,.1l1.1,1.7l1.8,.1l-.1,1.3h.6l.7,-2.4l-.6,-.8l.2,-1.5l1.3,-.1l-.2,-3.5l-3,-1l-.7,-1.9Z" class="g2_13"/>
<path d="M641.6,232.5l.1,.7l.9,.3l.2,-1.3l.8,-.9l.9,1.1l2.1,.5l1.7,-.4l1.2,1.5l.9,.6l-1,1.4l.3,1.2l-.5,.7l-.6,.4l-1.3,-.6l-.2,.3v.9l.9,.4l-.7,.8l-.7,.7l-.9,-.1l-.9,-1l-.1,-3.7l-3.1,-1l-.6,-1.6Z" class="g2_13"/>
<path d="M650.6,234.7l1.9,1.7l-.8,.8v.5l.9,1v1l-1.7,.7l-1,-1.4l.2,-1.7l-.4,-1.2Z" class="g2_13"/>
<path d="M652.7,236.5l.5,.5l.8,-.5h.8l-.1,.3l-.3,.6l-.1,1.7l-1.5,.6l.1,-1.1l-1,-.9l.1,-.4Z" class="g2_13"/>
<path d="M655,236.7l1.5,.9l-.8,1.6l-.2,.3l-.9,-.4v-1.7Z" class="g2_13"/>
<path d="M636.3,240.3l-1.2,.8l-.1,1.1l-.2,.4l.8,.7l-.4,.4l.1,.9l1.4,.3l2.1,-2.4v-.9l-1,-.1Z" class="g2_13"/>
<path d="M635,243.8l-.5,.6v.8l4.4,8l4.6,2.9l.7,-1.2l.2,-2.6l-.4,-1.6l-1.2,-2.1l-.8,.3l-.3,.3l-1.5,-1.7l.4,-2l1.7,-1.1l-.1,-1l-1.8,-.1l-.9,-1.5l-.5,-.2v.9l-2.2,2.7l-1.7,-.4Z" class="g2_13"/>
<path d="M643.7,249.9l2.2,-.9h.7l.5,2l3.2,1.1l.6,1.6l1.3,.2l.6,1.4l-.4,1.3l-2.2,.2l-.8,2h-1.7l-.6,-.1l-1,1l-.5,-.1L644,255.7l.4,-.7l.2,-2.7l-.4,-1.7Z" class="g2_13"/>
<path d="M652.3,256.8l.6,.6l-.1,1.4l1.7,-.1l1.2,1.6l-.1,1.4l-.8,1.2l-1.6,.1l-.1,-.7l.5,-1.1L652,260.1h-1.4l-1,-1l.7,-2.1Z" class="g2_13"/>
<path d="M654.6,265.2l-.6,.6l.2,3.1l1.7,.4l2.1,-2.1Z" class="g2_13"/>
<path d="M655.9,261.7l.5,.4l-1.9,2.9l-.7,.7l.2,3.3l1.5,1.8l-1.2,2.1l-1,.4h-1l.3,1.7l-1.7,.6l.4,1.4l-1,3.2l1.2,1.1l-.7,1.6l-1.1,1.8l.6,1.3l-1.5,.2l-1.2,-1.5l-.2,-4.6l-1.9,-7.9l.6,-2.8l-1.2,-3.5l.8,-4.5l.7,-.9l-.1,-.7l.9,-.8l2.1,.1l1.2,1.3h1.4l1.4,.8l-.4,1l.1,1l2,-.1Z" class="g2_13"/>
<path d="M650.6,286.6l-1.1,2.4l1.9,.2v-1.6Z" class="g2_13"/>
<path d="M651.7,289.3l1.1,-.1l1,-.7l-1.7,-.3l-.5,-.4Z" class="g2_13"/>
<path d="M650.2,286.2l-.8,.9l-.1,1.1l-1.6,-.9l-1.8,-2.5l-.5,-.9l.7,-.9v-1.1l-.8,-.4l-.7,-.5l.2,-.6l.8,-.2l.2,-3.8l-1.3,-.7l-.9,-19.4l.2,-.3l1.7,3.8h.5l.2,.6l-.7,.9l-.8,4.6l1.2,3.6l-.6,2.7l1.9,8l.2,4.6l1.4,1.6Z" class="g2_13"/>
<path d="M644.3,277l.2,.8l.3,.1l.2,-1.1l-.3,-.4Z" class="g2_13"/>
<path d="M658.2,267l1.6,-3.1v-2.6l3.1,-2h1.7l1.3,-2.2l.2,-4.3l-.5,-1.2l3.2,-2.9l.1,-3.3l-4.3,-2.1l-5.3,-1.6l-2.5,-.3l.7,-1.4l-.2,-2.1l-.5,-.2l-.8,1.6l-.5,.5l-1,-.5l-3.7,1.3l-1.2,-1.5l.2,-1.6l-1.1,1.2l-1.3,-.7l-.1,.2v.5l1.1,.6l-1.7,1.7h-1l-1,-1h-1.2l-.2,1.3l.7,.8l-.8,2.5l-.9,.1l-1.5,.9l-.4,1.9l1.3,1.4l.3,-.3l.9,-.2l.7,1.3l2.3,-1l.8,.1l.6,2.1l3.2,1l.5,1.6l1.4,.2l.6,1.6l-.4,1.4l.5,.8l-.1,1.1l1.6,-.2l1.3,1.8l-.1,1.2l.9,.7l-2,3Z" class="g2_13"/>
<path d="M630.1,226l-.4,.4v1h.2l.7,-1.4Z" class="g2_13"/>
<path d="M788.9,172.1l.5,1.5l.9,.3l.9,-1.4l-.5,-1l.2,-.9h1.3l-.3,.7l.1,2.3l-1.9,4.9l.2,1l-.1,1.8l3.7,5.3l.7,.2v-4.3l.8,-.6l-.8,-1.8l.6,-.7l-1.4,-1.9l-.8,.1l-.3,-3.2l2.1,-.5l.1,-.9l1,-.3l.6,.5l.7,-2.8l1.3,-2.1l1,-.6l.8,.1v-1l-1.4,-.3L797,165l1,-1.1l-.8,-1.8l.6,-.6l.8,1l2,.8l2.1,.2l.3,-1l-1.1,-1.1l1.2,-1.7l-2.8,-1l-.7,1.5l-.9,-1.2l-5.2,-1.8l-4.9,.9l-.7,.4v.4l1.1,.5l-.2,1.2l-1.9,-.8l-4.1,1.7L782,160h-2.8l-1.3,1.4l-4.7,-1.1l-4.2,.9l-.5,1.3l.6,.2v1l-4.1,.4l.2,1.3l-3.8,-.6l.9,-1.7l-3.8,-.2l.3,1.7l-1.2,.6l-1.1,-1l-4.2,.8l-1.6,1.5l-.1,.9l-1,.1l-.2,-1.1l3.4,-2.9v-2l-2.2,-.5l-2.8,.9l-1.2,-1.2h-.5l-.6,1.3l.5,.6l-3.7,2l-3.2,2.5l-2,2.7v1.1l2.1,.8l-1,.8l-2.3,-.8l-.9,.8l-1.3,-1.6l-.3,.6l1.5,4.8l.4,.1l1,-.5l.5,.4v.8l-.9,-.4l-.6,.5l.4,.8l-.4,2.3l-2,.2l-.1,-.8l1.2,-.7l.2,-2l-1.3,-1.7l-.4,-2.9l-2.1,-.3l-.2,1l.4,.5l-.9,.8l.4,1.9l1.2,.6l.3,1.4l-1.3,-.8l-3.2,-.6l-.4,1.1l-2.5,.9l-.4,-.7l-3.3,1.9l-.1,1.2l-1.3,.2l.4,-.9v-.9l-1.3,-.5l-.9,.3l.8,1.4l.5,1v.7l-1,-.2l-.2,-.2l-1,1l.5,.9h-2.2l.7,.9l-.2,.4h-1.1l-.9,-.6l-.2,-1.6l-1.3,-.6V182l2.8,.6l1.6,.1l.6,-1l-.5,-1L712.4,179l-1.5,.4l-.4,.4l.1,1l.6,.1l-.1,1.5l1.9,4.5l-1.4,2.1l-.1,.5l.7,.5l-.6,.4h-.4v1.9l.6,.8v.8l.8,.1l1.1,.4l1.2,1.7v.4l-.4,.6h.9l.8,.2l1.2,1.7l2.9,.3l-.1,1.9l-1,.9l.2,.3l-1,1.1l-.3,1l.6,.8l1.9,.7l.8,-.5l5,1.9l.2,-.5l-1,-1v-1.3l-.7,-.2l.2,-1l1,-1.3l-1.9,-1.4l.2,-1.9l2,-1.3l2.3,.1l.4,.7l2.4,.2l1.8,-1l-.9,-1l.2,-1.8l4.5,-2.3l3.5,1.6l1.2,-1l3.5,3.2l2.6,-.2l.9,.9l2.5,.3l1.6,-2.3l2.1,.9l1.1,.2l1.1,-.9l-1,-.7l.9,-1.3l2.4,.8l.5,1l1,.1l.7,-.5h1.8l.2,.4l2,.2l1.3,-1.5l2.9,.3l.8,-.3L771,192l-.9,-1.9l.9,-.7h2.6l2.6,3l3.2,1.9h1l.1,-.8l1.2,-.7l.1,4.2l-1,.1v1l.6,.8l-.1,.9l.4,.2l.3,-.7l.4,.2l.2,.2l1.2,-.2L785,196l.1,-4.2l-1.5,-3.4l-1.9,-2.3l-.9,.1v.7l-2.2,-.8l.8,-1.9l.7,-4.8l3,-1l1.5,-.9h1.5l-.3,.5l.3,.7l1.4,-1.4h.8l-.1,-.8l-1.3,-.3l.9,-3.1Z" class="g2_13"/>
<path d="M750.6,197.3l-.9,2.2h-1.2l-1.3,2.8l1.1,1.4l-2.3,3.2l-1.2,-.2l-.8,1l.2,.6h.9l.5,1.1l.9,.2l2.8,3.6V215l1.4,.9l1.5,-.3l1.9,1.1l2.3,.7l1.1,-.1l1.2,-.2l2.6,-1.7l.9,.2l.3,.7l.7,.2l1,1.5l-.7,1.4l.4,1l1.1,.4l.2,1.2l1.3,.1l.2,-.6l1.9,-.9h1.2l1.4,1.5l.9,-.4l.6,.1l.2,.7l.5,.1l.6,-.9l2.6,-1l2.4,-2.8l.8,-2.7l-.1,-1.8l-1,-.2l.6,-.7l-.1,-1L776.7,209v-1.3l.7,-.9l.7,-.3l.1,-.7h-1.8l-.3,1l-.9,-.2l-1,-1.2l.6,-1.7l.9,-1l.9,.1l-.2,1.5l.5,.4l1.1,-1.1l.4,-.1l-.1,-.8l1,-1.3l.8,.1l.5,-1.4l.5,-.3v-.9l-.5,-.6v-1.4l1,-.1l-.1,-3.6l-.7,.4l-.2,.9h-1.2L776,192.6l-2.5,-2.9l-2.4,-.1l-.7,.6l.8,1.8l-.3,1.8l-1,.4l-.5,-.1l-.1,1.7l.6,.2l1.1,-.5l1.3,.7v.6l-.9,.1l-.8,1.7l-.7,.1l-2.6,3.3l-2.7,1.2l-1.8,.1l-1.2,-.8l-1.8,.9l-1.9,-.6l-.4,-1.2l-3.2,-.2l-1.7,-2.8h-.7l-.6,-1.3Z" class="g2_13"/>
<path d="M751.5,197.3l1.5,-2l1.8,.8l1.2,.4l1.5,-1.4l-1,-.8l.7,-.9l2,.7l.7,1.1l1.3,.1l.6,-.5l1.4,-.1l.3,.5l2.2,.1l1.5,-1.4l1.9,.2l-.1,2l.9,.2l1.1,-.5l1.1,.5v.3h-.9l-.8,1.8l-.7,.1l-2.5,3.3l-2.7,1.2l-1.6,.1l-1.4,-.9l-1.7,1l-1.7,-.6l-.5,-1.2l-3.2,-.2l-1.7,-2.9h-.8Z" class="g2_13"/>
<path d="M778.6,203.6l.5,.2l.1,1.6l1,.1l.9,-1.1l-.3,-.2V203l.8,-1l-.4,-.7l.3,-.3l.1,-.8l-.5,-.2l-.4,.2l-.5,1.5l-.8,-.1l-.9,1.1Z" class="g2_13"/>
<path d="M781.2,204.6l1.6,1.3l.3,1.2l-.1,.7l-.8,.9h-.6l-.8,-1.6l-.3,-.8l.3,-.2v-.4l-.4,-.1Z" class="g2_13"/>
<path d="M726.3,202.1l1,-.5h1.2l.1,1.8h-.7l-.5,.9l.7,1.1l1,.6l.1,.7l.4,-.2l.3,-.4l.6,.2l.3,.5h.7v-.7l-.4,-1.3l-.2,-1.1l1.3,-.6l1.7,.3l1.1,1.1l2.5,-.2l1.4,2h1.7l.4,-.7l.6,-.1l.1,-.9h.8l.5,.5l.4,-1l3.9,.5l.7,-.9l-1.1,-1.3l1.5,-3.2h1.1l.9,-1.9l-1.7,-.2l-.9,-.9l-2.6,.3l-3.4,-3.2l-1.1,1l-3.6,-1.6l-4.4,2.1l-.1,1.6l1,1.1l-2,1.2l-2.6,-.1l-.5,-.8l-2,-.1l-2,1.3v1.6Z" class="g2_13"/>
<path d="M730.7,207l-.1,.7h-1.1v.9l1.1,.8l-.3,1v.5l.5,.1l.6,-.9l1.4,-.3l3.1,1.2l.1,.8l1.7,.2l1.9,-2l-.2,-.7l-1.3,-.2l-3.6,-2.4l-.2,-.8H733l-.6,1.1h-.6Z" class="g2_13"/>
<path d="M739.8,210h.8v-1.3l-.7,-.5l1.3,-1.6h.5l.5,.6l1.3,-.5l-1.8,-.7l-.1,-.3l-.4,.1l-.5,.7h-1.9l-1.4,-2l-2.4,.2l-1.2,-1.1l-1.6,-.3l-1.1,.5l.6,2.2v.8h.5l.6,-1.1h1.6l.3,.9l3.4,2.3l1.4,.3Z" class="g2_13"/>
<path d="M740.2,208.1l1,-1.3h.4l.2,.3l-.5,.3v.3l.3,.3l1.6,.1l.5,-.3l.2,.1l.2,.5l.9,.1l.4,1l-.1,.3h-.2l-.2,-.4h-.4l-.7,.1v.6h-.7v-.9l-.5,-.5l-.8,.7l.1,.4l-.7,.2h-.4v-1.4Z" class="g2_13"/>
<path d="M741.9,204.8l-.1,.7l.1,.4l2.2,.8l-2,.8l-.2,-.2l-.4,.2v.2l.2,.1h1.4l.7,-.2l.9,-1.1l1.2,.2l1.3,-1.9l-3.6,-.5l-.5,1.2l-.7,-.7Z" class="g2_13"/>
<path d="M736,212.1l.4,3.2l1,.2l.1,.6l-.7,.6l1.4,1.1l2.6,-.9l.2,-1.2l1.7,-1l.7,-2.5l.4,-.5l-.5,-.8l1.7,-1l-.2,-.3H744l-.1,.7h-1v-.9l-.3,-.4l-.5,.5v.4l-.9,.3h-1.5l-1.9,2Z" class="g2_13"/>
<path d="M738.3,218l.7,1l-.1,.5l-.9,.3v.9h1l.4,-.3h1.9l1.8,1.6l.2,-.8h1.3l.1,-.9L743.3,219l.3,-.7l1.4,-.1l1.8,-3.9l-1,-.8l-.4,-1.4l2.5,-.2l-1.5,-2.1l-.7,-.2l-.4,.4h-.2l-1.5,.9l.5,.8l-.5,.6l-.7,2.5l-1.7,1.1L741,217Z" class="g2_13"/>
<path d="M750.7,234.4l1.2,-.6l.7,-2.6v-3.1l4.1,-4.4v-1l.8,-.3v-1.2l-.9,-1.8l.5,-.9l1.1,1l1.4,.1v.6l-.4,.5l.1,.2l.8,.1l.1,.8h.2l.6,-1l.3,-2.7l1,-.7v-.9l-.4,-.8h-.6l-2.4,1.6l.2,1h-1.7l-.6,-.8l-.3,.1l.1,1l-3.6,-.3l-2.3,-1l-.1,-1.2l-1.5,-.9v-1.9l-1,-1.2l-2.4,.2l.3,1l1.1,1l-2,4.1l-1.3,.1l-.3,.5l1.4,1.2l-.1,1.2h-1.3l-.2,.6h1.1l.1,.4l-.8,.5l.5,.9l1,.4l.6,-.5l.3,-.8l.3,-.2l.4,.5l-.1,1l-.3,.5l.1,.8Z" class="g2_13"/>
<path d="M750.8,216.1l.1,1.1l2.1,.9l3.4,.3l-.1,-.8L754,217l-1.9,-1.2Z" class="g2_13"/>
<path d="M757.1,217.5l.4,.6h1.3l-.1,-.8Z" class="g2_13"/>
<path d="M757.1,218.8l-.3,.6l.9,1.7v1.3l.2,.4h1l.6,-.6l.4,.3l.1,.8l.3,-.2l.1,-1l-.3,-.1l-.2,-.8l-.7,-.1l-.2,-.5l.4,-.5v-.3h-1.2Z" class="g2_13"/>
<path d="M765.9,231.9l-.7,-1.1l.5,-.7l-.5,-1h-.4l-.1,-1.6l-.7,-1.3l-.2,.3l-.5,.8l-.6,.1l-.3,-.4l-.1,-1l-.4,-.8l-1.8,-1.7l.4,-.3l.1,-1.2l.7,-1.1l.2,-2.7l1,-.7v-.9l.6,.1l.9,1.3l-.7,1.4l.4,1.2l1.1,.4l.2,1.2l1.5,.2l-.4,.7l-1.9,.8l-.2,1.2l1.4,1.7l.1,.9l-.4,.4l.1,.3l1,1.5v1.5Z" class="g2_13"/>
<path d="M766.1,223.3l.8,1.1v1.3l.3,.2l1.3,-.7l.3,.1l1.6,1.9l-.1,1.2l-.5,-.1l-.4,-.3l-.4,.1l-.6,1l.1,.5l.5,.3v.6l-.4,.2l-1.2,-.8v-.8H767l-.3,.3l-.1,3.3l.8,1.4l1.4,1.3l-.1,.4H768l-.7,-1h-.7l-.8,-.7l-.3,-.7l.4,-.7l.1,-.5l.4,-.7v-1.7l-1,-1.5v-.1l.3,-.4l-.1,-1.1L764.3,225l.1,-1Z" class="g2_13"/>
<path d="M766.8,235l.5,1.2l.1,1.5l.7,1.1l1.7,1l.6,.1l-.1,-1.1l-.5,-1.3l-.8,-1.8l-.1,.3h-1l-.7,-1Z" class="g2_13"/>
<path d="M768.8,230.9l1,1.1l2,-1.5l.2,-2.3l-1,.7l-.6,-.3l-.7,-.1l-.4,-.3l-.2,.1l-.5,.8l.1,.4l.5,.3v.8Z" class="g2_13"/>
<path d="M767.5,221.4l-.6,.3l-.6,1.5l.9,1.1l-.1,1.2l.1,.1l1.5,-.7l1.9,2.2v1.4l.4,.2l1,-.9l-.1,-.6l-3,-2.9l.1,-.4l.3,-.3l-.2,-.7l-1.3,-.2Z" class="g2_13"/>
<path d="M770,232.1l.3,.5v.6l.9,.1l.9,-1.3l1,-.3l.5,-1.3l-.3,-2.2l-.9,-1.3l-1,-.8l-1.3,-2.2l.9,-1.6l-1.3,-1.5h-1.1l-.9,.5l.3,1.2l1.2,.2l.4,1l-.5,.2v.3l3,2.9l.1,.8l-.1,2.7Z" class="g2_13"/>
<path d="M720.8,206.1l.8,1.1l1.1,.5h.6l1.1,-.3l.3,-.4l-3.3,-1.3Z" class="g2_13"/>
<path d="M724.5,207.6l1.2,1.6l-.4,.5l-.8,-.2l-1.1,-1v-.6Z" class="g2_13"/>
<path d="M724.9,207l-.3,.5l1.3,1.6l.4,-.1l.7,.7l.3,-1.3l.8,.1l-.1,-.3l-1.2,-1.1l-.3,.6Z" class="g2_13"/>
<path d="M724.4,209.7l-.3,.3l.1,.5l.4,.6l1.4,1.5l-.3,.6h-.2l-.1,.7l.8,1h.7l1.5,2.1h.8l.6,.5v.9l2.6,1.5h.9l.6,-.5l.7,-.1l.5,1l2.7,.4l.1,-1l.9,-.3V219l-.7,-1l-1.6,-1.3l.8,-.7v-.4l-1.1,-.1l-.4,-3.6l-.1,-.8L732.9,210l-1.3,.3l-.7,.9l-.6,-.1l-.2,.2l-1.4,-.1l-1.8,-1.3l-.6,-.7l-.4,.1l-.5,.6Z" class="g2_13"/>
<path d="M721.6,207.4l-.6,.6h-2.1l-1.3,-.8h-1.2l-1.5,1l-1.3,.1l-.1,.7H712l-.6,.6v.3l.3,.3v.3l-.1,.4l.1,.4l.5,-.3l.5,.5l-.1,.4l-.2,.2l.3,.4l1.3,.2l1,-.4v-.6l.4,.1l1.1,.7l1.2,-.2l.5,-.5l.3,.1v.6h.5l.4,-.8l3.5,-.4l1.5,-.1l-.4,-.6v-.7l.3,-.3l-1.1,-.9v-.8h-.6Z" class="g2_13"/>
<path d="M725.1,228.2l.3,1.1v1.1l.9,.8l6.4,-2.6v-.7l-1,-1.8l-2.5,.8l-1.5,1.4l-1.7,-1Z" class="g2_13"/>
<path d="M731.9,226l1.9,-1.1l.4,-1.6l-.5,-.2l.2,-1.8l.4,-.2l.4,.6l2.3,1.2v.7l-2.8,4.2h-1.3Z" class="g2_13"/>
<path d="M730.8,221.9l.2,.9l2.6,.2l.1,-1.8l.5,-.3l.2,-.7l-.8,.2l-.9,1.4Z" class="g2_13"/>
<path d="M730.4,220.4l-.1,1l.4,.3h.3l.2,-1.3l-.3,-.3Z" class="g2_13"/>
<path d="M727,217.4v.8l1,.3v-1.2l-.6,-.3Z" class="g2_13"/>
<path d="M728.2,218.9l1.8,2.5l.6,.5l.2,1.1l2.8,.2l.4,.2l-.4,1.4l-1.8,1.1l-2.7,.8l-1.4,1.4l-1.7,-1l-1.1,.9l-1.4,-2.4l-1,-.4l-.3,-.5v-1.2l-3.6,-4.4l-.2,-.7h1.1l1.2,-1.1l.1,-.6l-.4,-.3l.7,-.6l1.6,.1l2.6,2.2l1.5,-.1l.1,.4Z" class="g2_13"/>
<path d="M718.5,212.6l-.1,.7l.7,.3v1.8h.7l.8,-.6h.2l1.7,-1.3l.3,-2l-3.3,.4l-.3,.7Z" class="g2_13"/>
<path d="M723.1,211.5l-.4,2l-1.7,1.4l.1,.7l1.6,.1l2.6,2.1h1.5v-.5l.6,-.6l.7,.4l.1,-.1l-1.4,-1.9h-.7l-.9,-1.2l.2,-.8l.2,-.1l.1,-.4l-1.2,-1.3Z" class="g2_13"/>
<path d="M719.1,215.6l-.7,2.2v.4h1l1.1,-1l.1,-.4l-.5,-.4l.8,-.7l-.1,-.7l-.2,.1l-.7,.5Z" class="g2_13"/>
<path d="M718.4,214l-.2,.7l.7,.1v-1.1l-.5,-.2Z" class="g2_13"/>
<path d="M717.7,216.2l.6,1.6l.6,-2.3V215l-.8,-.1Z" class="g2_13"/>
<path d="M716.9,213.2h-.8v.5l.3,.2l.5,.1l1,-1l-.3,-.2Z" class="g2_13"/>
<path d="M710.4,179.6l.5,-.3v-.5l-.4,-.2l.1,-.5h.3v-.3l-1.3,-.3l-1.8,.2l-.2,.8l-.4,-.2l-.3,-.4H706l-.1,.9l-.5,.2l-.2,-.5l-1.9,1.6l.4,.4l-.7,.3l-1.7,3.2l-.5,.4v.3l.6,.3l-.2,.6h-.9l-.3,-.4l-.6,.8l-.4,.3l-.1,.6l-.3,.2l-.9,.2l-.4,1.4l.3,2.2l.3,1l.4,.4l.8,-.1l1.3,-1.2l.5,-.8l.1,1.2l.8,-1.4l.1,-4.1l.6,-.4l.2,-2.2l2,-2.9l1,-.3l.4,-.6l1.4,.4l.7,.4l.3,-1.2l1.2,-.7Z" class="g2_13"/>
<path d="M692.4,191.8l-.5,.7l.2,.3h1.1v.5l-.3,.4l.2,1l.6,1.2l.5,1.1l.8,.3l.3,.6l-.1,.5l-.4,.3l-.1,.2l.4,.2l-.3,.4l-.7,.3l-1.3,-.2l-2,1l-.7,-.4l2,-1.1l-.3,-.1l-1,-.1l.6,-.9l.1,-.8l.8,-.1l-.1,-1.5h-1l-.2,-.4v-1.1l-.6,.1l.6,-1.9l1.1,-.8Z" class="g2_13"/>
<path d="M689.5,195.1v.8l.6,.4l.6,-.2l.2,-.4l-.5,-.7Z" class="g2_13"/>
<path d="M690.7,196.4l-.3,1.5l-2.1,.8h-.6l-.5,-.4v-.2l1,-.7l-.2,-.6V196h.9l.4,-.9v.8l.7,.6Z" class="g2_13"/>
<path d="M705.8,180.3l.5,.4h.9l.6,1l.1,1.8l-1.3,.9v.9l-.9,1.2l-.5,.1l-.7,1.2v1.1l1.3,1l-.1,.5l-.5,.7l-.7,.6v2.1l-1.1,.4l-.3,.8h-.6l-.3,-1.5L701,191.7l1,-1.6l.1,-4.1l.7,-.3l.1,-2.3l2,-2.8Z" class="g2_13"/>
<path d="M708.1,183.5l.6,.2l.3,.6l-.3,.5l-1.7,1.8l-.3,1l.4,1.3l1.3,1l1.7,-.8l1.4,-.2l1.3,-2.1l-1,-2.2l-.9,-2.2L711,181l-.5,-.1l-.2,-1l-.7,-1.2l-.9,.6l-.3,1.3l-.9,-.5l-1.3,-.3l-.3,.3l.5,.4h.9l.7,1.2Z" class="g2_13"/>
<path d="M711.1,192.4l-1.8,-.3v1l1.7,1l.6,-.2v-.7Z" class="g2_13"/>
<path d="M707.5,191.7l.2,.2h.4l.2,-.3l-.2,-.2h-.4Z" class="g2_13"/>
<path d="M707,193.3v.4l.2,.1h.5l.7,-.6l.1,-.2l-.4,-.5h-.4Z" class="g2_13"/>
<path d="M709.2,193.3h-.6l-.7,.7h-.7v.9l-.3,.7h1.8l.4,.5l.9,-.1l.9,-1.1l-.1,-.6Z" class="g2_13"/>
<path d="M709.1,196.3l.4,.6l-.1,.5v.4l.1,.5l.8,-.4h1l.7,.3h1.8l.5,-1.3l.4,-.4v-.3l-1.2,-1.6l-.9,-.4l-.9,-.1l-.7,.2l.1,.7l-1,1.3Z" class="g2_13"/>
<path d="M709.3,198.5l.3,.4v.4l-.2,.4l-.4,.8l-.3,.2l-.5,-.2h-.3l-.6,.3l-.8,-.3l-1.2,-.8l-1.2,-.7l-.5,-.7l-.1,-1.7l1,-.8l1.2,-.4l.5,-.1l-.2,.4l.1,.1l2,.1l.5,-.1l.7,1.2l-.2,.4l.1,.5Z" class="g2_13"/>
<path d="M693,206.3h-3.3L689,206l-.3,.1l-.4,.8l.1,.8l1.3,.1l.1,.5l-.5,3.2v.5l.9,.5l1,.1l2.1,-.5l1,-1.3v-1.3l1.8,-1.6l.1,-.8h-1.6Z" class="g2_13"/>
<path d="M688.4,208l-.1,2.2l-.5,.4l.1,.3l.3,.5l-.2,.7l.3,.1l.8,-.1v-.7l.5,-3l-.1,-.4Z" class="g2_13"/>
<path d="M695.9,209.6l.1,.4h.6l.2,-.3l-.5,-.2Z" class="g2_13"/>
<path d="M699.9,208.9v1.3l.6,.1l.4,-.4v-1.3l-.4,-.1Z" class="g2_13"/>
<path d="M700.1,207.4v.4l.4,.3l.1,-.1l.1,-.6l-.1,-.6Z" class="g2_13"/>
<path d="M696.1,199.5l-.6,.1l-1.1,1.3H694l-.4,-.3l-.3,.1l-.3,.7h-1.6v.4l1.2,.8l1.3,1v1.3l-.7,1.2l1.5,.8h1.6l.4,-.5h1l.3,.3l1,-.1l.5,-.7l-.6,-.7l-.1,-.5l.1,-.5l-.3,-.5l-.5,.2l-.1,-.5l1.2,-1.3v-.8l-.8,-.5H698Z" class="g2_13"/>
<path d="M698.6,196.8l-1.2,.6l.3,.2v.6l-.2,-.1l-.3,-.4l-.7,1l1,.3l.4,.4h.2l.1,-.9l.7,-.3Z" class="g2_13"/>
<path d="M696.4,198.9l-.2,.5l1.8,1.1l.5,.2l.1,-.6l-.5,-.5h-.3l-.3,-.4Z" class="g2_13"/>
<path d="M698.9,196.7l.9,-.2v-.6l.8,-.1l.4,.4h.5l.7,-.3l.6,.2l.5,.5l.1,1.8l.6,.7l-.8,.1L702,200l.1,.2l1.1,1l-.1,.5l-1,.5l-.9,.1l-.2,.4h-.5l-.2,-.5l-.8,-.2l-.1,-.8l-.7,-.5l.1,-.6l-.5,-.6l.2,-.9l.6,-.3Z" class="g2_13"/>
<path d="M700.3,192.4l-1,1.2l-.1,.8l.5,1.3l.8,-.1l-.1,-1.1l.5,-.6v-.5l-.4,-.9Z" class="g2_13"/>
<path d="M701,194.8v.5h.8v-.5l-.2,-.2h-.3Z" class="g2_13"/>
<path d="M705.4,192.5l.3,.7l.5,-.5l-.2,-.6Z" class="g2_13"/>
<path d="M699.3,202.3l-1.1,1.2v.1l.5,-.1l.4,.5l.7,-.2l.5,.4l.2,-.1l.6,-1L701,203h-.6l-.3,-.6Z" class="g2_13"/>
<path d="M703.4,201.1h1.1l.6,.4l1.2,-.9l-1.1,-.8l-1.1,-.5l-.8,.1l-1,.7Z" class="g2_13"/>
<path d="M707.3,201l-.8,-.2l-1.2,.9l.2,.2v.2h2l1.4,-.6v-.7l-.3,.1l-.4,-.2H708Z" class="g2_13"/>
<path d="M701.3,202.5l-.1,.3l.1,.3l.6,-.2h.5l.6,.5l1.2,-.2l.9,-.5l.2,-.4l-.1,-.4l-.7,-.6h-1.1l-.1,.6l-1.1,.5Z" class="g2_13"/>
<path d="M705.5,202.3l-.3,.5v.7l.5,.3h1.5l2.1,-1.7v-.4l-.2,-.1l-1.5,.7Z" class="g2_13"/>
<path d="M704.4,203.4l-1.3,.2l.3,.7h.8l.8,-.6V203Z" class="g2_13"/>
<path d="M705.2,203.8l-.9,.7h-.9l-.1,.7l.4,.1l.2,-.3l.4,.3l.2,.9l1.9,.9l.1,-.2l-1.8,-2l.2,-.3l1.7,-.1l.2,-.5h-1.1Z" class="g2_13"/>
<path d="M705,204.8l-.1,.1l1.8,1.8l.6,-.9v-.4l-.6,-.7Z" class="g2_13"/>
<path d="M699.2,204.3l-.2,.4l.1,.4l.6,.7h1l2.1,2.5l1.4,.4l.7,.7l.2,1.7l.5,-.2l.3,-.9l-.1,-.7l.7,-.1l.1,-.3l-1.8,-.9l-1.7,-1.6l-.7,-1l-.1,-1l.8,-.2l-.2,-.6l-.5,-.5h-.5l-.6,.2l-.6,.8l-.4,.3l-.5,-.4Z" class="g2_13"/>
<path d="M702.7,211l.1,.4l1.1,.5l.2,.2l.3,.1V211l-.4,-.2Z" class="g2_13"/>
<path d="M704,213v.5l.4,.1l.2,-.1l-.1,-.6Z" class="g2_13"/>
<path d="M710.4,198.1l-.7,.4l.1,.8l-.6,1.5v.6l.3,.2l2.1,.1l.6,-.5l.6,.2l.9,1.2l-.7,1.2l.8,.3l1,-1.2l.6,.1l.6,.4l-.5,.6l.6,1h.7l.4,-.7l.7,-.1v-.6l-1.3,-.2v-.6h1.3l1.5,-1.1l.6,-.6l.1,-1.7l-2.8,-.2l-1.2,-1.7l-.7,-.2h-1l-.4,1.1h-2l-.7,-.3Z" class="g2_13"/>
<path d="M711.8,201.8l.8,1.3l-.1,.7h.3l.7,-1.2l-.9,-1l-.4,-.2Z" class="g2_13"/>
<path d="M709.5,201.8v.4l-1.5,1.3l1.2,1.8l.8,.6h1.5l.5,-.4l.6,-.1l.5,.3l.8,-1l-.1,-.5l-.9,-.2h-.6v-.9l-.7,-1.2Z" class="g2_13"/>
<path d="M706.7,207l.1,.3l.5,.1l.3,-.5v-.2l-.3,-.5Z" class="g2_13"/>
<path d="M707.8,203.6l-.5,.4H707l-.2,.6l.7,.7v.6l-.1,.1l.5,.6v.3l.3,.3l1,-.3l-.1,-1.4Z" class="g2_13"/>
<path d="M709.3,205.7l.1,1.3l.4,.9h1.7l.7,-.5l.7,-.3l-.2,-.8l.2,-.5l-.4,-.2l-.5,.1l-.4,.4H710Z" class="g2_13"/>
<path d="M707.4,207.6v1.2l.4,.6h.2l.4,-.8l-.2,-.3l-.1,-.9l-.3,-.3Z" class="g2_13"/>
<path d="M708.3,207.4l.1,.7l.2,.3l1,-.5l-.4,-.8Z" class="g2_13"/>
<path d="M708.1,209.6v.4l1.2,.6l.6,.2l-.3,.3l-.7,.1l-.1,.3l.2,.5l.8,.4h.3v-.9l.5,-.6l-1.3,-1.6l.2,-.5h.3l.5,.4l.3,-.2l.1,-.5h1.4v-.8l-.6,.4l-1.7,-.1l-1.1,.6Z" class="g2_13"/>
<path d="M712.3,207.6v.9l.8,-.3l.4,-.2l-.1,-.4l-.4,-.3Z" class="g2_13"/>
<path d="M710.6,213.2l.2,.2l.2,.3l1.2,-.1l.3,-.3l-.2,-.2l-.4,.2h-.6l-.2,-.3h-.4Z" class="g2_13"/>
<path d="M621.7,180.4c-5.3,0,-9.6,4.2,-9.6,9.5c0,1.4,.3,2.7,.9,3.9c2.3,5.2,6.9,10.7,8.3,12.2c.1,.1,.2,.2,.4,.2c.1,0,.3,-.1,.4,-.2c1.3,-1.5,5.9,-7,8.2,-12.2c.6,-1.2,.9,-2.5,.9,-3.9c0,-5.3,-4.3,-9.5,-9.5,-9.5m0,14.4c-2.8,0,-5,-2.2,-5,-4.9c0,-2.7,2.2,-5,5,-5c2.7,0,4.9,2.3,4.9,5c0,2.7,-2.2,4.9,-4.9,4.9Z" class="g1_13"/>
<path d="M612.1,176H763.9V155.2H612.1V176Z" class="g1_13"/>
<path d="M81.2,1157.1H280.7v-25.2H81.2v25.2Z" class="g5_13"/>
<image clip-path="url(#c0_13)" preserveAspectRatio="none" x="35" y="461" width="333" height="280" xlink:href="img/1.png"/>
<image clip-path="url(#c1_13)" preserveAspectRatio="none" x="39" y="464" width="315" height="260" xlink:href="img/2.jpg"/>
<path d="M41.5,721.8H352.1V466.3H41.5V721.8Z" class="g6_13"/>
<path d="M214.5,503.8H346.4V474.6H214.5v29.2Z" class="g2_13"/>
<path d="M214.5,503.8H346.4V474.6H214.5v29.2Z" class="g7_13"/>
<image clip-path="url(#c0_13)" preserveAspectRatio="none" x="370" y="440" width="266" height="246" xlink:href="img/3.png"/>
<image clip-path="url(#c2_13)" preserveAspectRatio="none" x="369" y="437" width="258" height="238" xlink:href="img/4.jpg"/>
<path d="M375.9,667.5H619.6V444.9H375.9V667.5Z" class="g8_13"/>
<path d="M457.1,585.5l.6,62.5l153,-1.4l-.5,-62.4Z" class="g2_13"/>
<path d="M457.1,585.5l.6,62.5l153,-1.4l-.5,-62.4l-153.1,1.3Z" class="g9_13"/>
<image clip-path="url(#c0_13)" preserveAspectRatio="none" x="437" y="276" width="189" height="213" xlink:href="img/5.png"/>
<image clip-path="url(#c3_13)" preserveAspectRatio="none" x="444" y="279" width="165" height="193" xlink:href="img/6.jpg"/>
<path d="M443.6,470.8H609V280.5H443.6V470.8Z" class="g6_13"/>
<path d="M488.4,425.5h78.7V392.4H488.4v33.1Z" class="g2_13"/>
<path d="M488.4,425.5h78.7V392.4H488.4v33.1Z" class="g7_13"/>
<image clip-path="url(#c0_13)" preserveAspectRatio="none" x="626" y="305" width="201" height="249" xlink:href="img/7.png"/>
<image clip-path="url(#c4_13)" preserveAspectRatio="none" x="630" y="309" width="181" height="229" xlink:href="img/8.jpg"/>
<path d="M632.4,536.5H809V310.7H632.4V536.5Z" class="g6_13"/>
<path d="M638,338l4.6,74.9l148.7,-9.1l-4.6,-74.9Z" class="g2_13"/>
<path d="M638,338l4.6,74.9l148.7,-9.1l-4.6,-74.9L638,338Z" class="g7_13"/>
<image clip-path="url(#c0_13)" preserveAspectRatio="none" x="52" y="634" width="351" height="237" xlink:href="img/9.png"/>
<image clip-path="url(#c5_13)" preserveAspectRatio="none" x="56" y="636" width="333" height="218" xlink:href="img/10.jpg"/>
<path d="M58.6,852.4H386.9V638.3H58.6V852.4Z" class="g6_13"/>
<path d="M70.9,719.7L372.7,691.6l-.5,-24.2L70.5,695.5l.4,24.2Z" class="g2_13"/>
<path d="M70.9,719.7L372.7,691.6l-.5,-24.2L70.5,695.5l.4,24.2Z" class="ga_13"/>
<image clip-path="url(#c0_13)" preserveAspectRatio="none" x="622" y="551" width="200" height="236" xlink:href="img/11.png"/>
<image clip-path="url(#c6_13)" preserveAspectRatio="none" x="627" y="555" width="178" height="214" xlink:href="img/12.jpg"/>
<path d="M628.1,767.4H804.7V555.2H628.1V767.4Z" class="g6_13"/>
<path d="M696.4,570.5l.4,18.1l85,-1.5L781.5,569Z" class="g2_13"/>
<path d="M696.4,570.5l.4,18.1l85,-1.5L781.5,569l-85.1,1.5Z" class="g7_13"/>
<image clip-path="url(#c0_13)" preserveAspectRatio="none" x="639" y="742" width="198" height="237" xlink:href="img/13.png"/>
<image clip-path="url(#c7_13)" preserveAspectRatio="none" x="642" y="744" width="181" height="219" xlink:href="img/14.jpg"/>
<path d="M643.9,960.8H820.5V746.7H643.9V960.8Z" class="g6_13"/>
<path d="M683.1,878.5l125.1,-30l6.1,63.4l-125.1,30l-6.1,-63.4Z" class="g2_13"/>
<path d="M683.1,878.5l125.1,-30l6.1,63.4l-125.1,30l-6.1,-63.4Z" class="gb_13"/>
<image clip-path="url(#c0_13)" preserveAspectRatio="none" x="350" y="671" width="313" height="230" xlink:href="img/15.png"/>
<image clip-path="url(#c8_13)" preserveAspectRatio="none" x="355" y="673" width="294" height="211" xlink:href="img/16.jpg"/>
<path d="M356.7,883.6H646.6V674.3H356.7V883.6Z" class="g6_13"/>
<path d="M485.2,776.9l-.3,15.7l157.9,2.8l.3,-15.7Z" class="g2_13"/>
<path d="M485.2,776.9l-.3,15.7l157.9,2.8l.3,-15.7L485.2,776.9Z" class="g7_13"/>
<path d="M56.3,1233.1H909.4" class="gc_13"/>
</svg>