<?xml version="1.0" encoding="UTF-8" standalone="no"?>
<!DOCTYPE svg PUBLIC "-//W3C//DTD SVG 1.1//EN"
"http://www.w3.org/Graphics/SVG/1.1/DTD/svg11.dtd">
<svg viewBox="0 0 909 1286" version="1.1" xmlns="http://www.w3.org/2000/svg" xmlns:xlink="http://www.w3.org/1999/xlink">
<defs>
<clipPath id="c0"><path d="M86.9,342V190.7H262V342Z"/></clipPath>
<clipPath id="c1"><path d="M283.7,342V190.7H459.1V342Z"/></clipPath>
<clipPath id="c2"><path d="M86.9,560.5V409.2H261.5V560.5Z"/></clipPath>
<clipPath id="c3"><path d="M283.7,560.5V409.2H459.1V560.5Z"/></clipPath>
<clipPath id="c4"><path d="M0,1286.2V0H909.4V1286.2Z"/></clipPath>
<style type="text/css"><![CDATA[
.g0{
fill: #E9E9E1;
}
.g1{
}
.g2{
fill: #D7D7C9;
}
.g3{
fill: none;
stroke: #FFE581;
stroke-width: 18.333;
stroke-linecap: butt;
stroke-linejoin: miter;
}
.g4{
fill: none;
stroke: #000000;
stroke-width: 0.381;
stroke-linecap: butt;
stroke-linejoin: miter;
}
.g5{
fill: #FFE581;
}
.g6{
fill: none;
stroke: #000000;
stroke-width: 0.374;
stroke-linecap: butt;
stroke-linejoin: miter;
stroke-miterlimit: 4;
}
.g7{
fill: none;
stroke: #000000;
stroke-width: 0.381;
stroke-linecap: butt;
stroke-linejoin: miter;
stroke-miterlimit: 4;
}
.g8{
fill: none;
stroke: #000000;
stroke-width: 3.611;
stroke-linecap: butt;
stroke-linejoin: miter;
}
.g9{
fill: none;
stroke: #6D6E71;
stroke-width: 3.611;
stroke-linecap: butt;
stroke-linejoin: miter;
stroke-dasharray: 11,8;
}
.ga{
fill: none;
stroke: #000000;
stroke-width: 0.763;
stroke-linecap: butt;
stroke-linejoin: miter;
}
]]></style>
</defs>
<path d="M-931,1307.9H931.1V-21.6H-931V1307.9Z" class="g0"/>
<path d="M0,89.9H853.1V56.3H0V89.9Z" class="g1"/>
<path d="M0,1286.2H909.4V0H0V1286.2Z" class="g2"/>
<path d="M0,89.9H853.1V56.3H0V89.9Z" class="g1"/>
<path d="M0,89.9H21.7V56.3H0V89.9Z" class="g1"/>
<image clip-path="url(#c0)" preserveAspectRatio="none" x="85" y="191" width="179" height="151" xlink:href="img/1.jpg"/>
<image clip-path="url(#c1)" preserveAspectRatio="none" x="282" y="189" width="179" height="155" xlink:href="img/2.jpg"/>
<image clip-path="url(#c2)" preserveAspectRatio="none" x="85" y="409" width="178" height="151" xlink:href="img/3.jpg"/>
<image clip-path="url(#c3)" preserveAspectRatio="none" x="282" y="407" width="179" height="156" xlink:href="img/4.jpg"/>
<path d="M480.9,312.2h67.5" class="g3"/>
<path d="M562.9,321.1h47.8m10.4,0h51.2" class="g4"/>
<path d="M480.9,408.5h27.5" class="g3"/>
<path d="M522.9,417.4h47m10.4,0h74.6" class="g4"/>
<path d="M480.9,528.1h31.3" class="g3"/>
<path d="M526.7,537.1h48.5m10.4,0h42.3" class="g4"/>
<path d="M480.9,639h55.9" class="g3"/>
<path d="M551.3,648h48.5m10.4,0H750.5M551.3,670.9H697.8" class="g4"/>
<path d="M480.9,777.9h49.3" class="g3"/>
<path d="M544.7,786.9h72.4m10.4,0h55.7m10.4,0H842.1M544.7,809.8H686.3m10.4,0H797.8" class="g4"/>
<path d="M480.9,910.3h61.3" class="g3"/>
<path d="M556.7,919.2h68.7m10.4,0h75.4" class="g4"/>
<path d="M480.9,1032.2H550" class="g3"/>
<path d="M568.2,1041.2h60.2m10.4,0h75.9m-146.5,22.9H655m10.4,0h69.2" class="g4"/>
<path d="M480.9,1120.3h68.2" class="g3"/>
<path d="M567.3,1129.3h60.2m10.4,0h89.7" class="g4"/>
<path d="M480.9,1185.5H543" class="g3"/>
<path d="M561.2,1194.5H617m10.4,0h56.1" class="g4"/>
<path d="M513.9,243.6c-4.6,0,-8.9,1.8,-12.2,5.1c-3.2,3.2,-5,7.5,-5,12.1v8h2.9v-8c0,-3.8,1.5,-7.4,4.2,-10.1c2.7,-2.7,6.3,-4.1,10.1,-4.1c7.9,0,14.3,6.4,14.3,14.4c0,8,-3.1,15.6,-8.8,21.2l-7,7c-1.1,1.1,-2.5,1.7,-4.1,1.7c-3.1,0,-5.7,-2.6,-5.7,-5.8v-2.5h-3v2.5c0,4.8,3.9,8.7,8.7,8.7c2.4,0,4.6,-.9,6.2,-2.5l7,-7c3.1,-3.1,5.5,-6.7,7.1,-10.7c1.7,-4,2.5,-8.3,2.5,-12.6c0,-9.6,-7.7,-17.4,-17.2,-17.4Z" class="g1"/>
<path d="M513.9,251c-2.6,0,-5.1,1,-7,2.9c-1.8,1.8,-2.8,4.3,-2.8,6.9q0,.1,0,.1v2.7c0,2,.7,4,2.2,5.4c.5,.5,.7,1.1,.7,1.7c0,.7,-.2,1.3,-.7,1.8c-1.1,1,-1.7,2.4,-1.7,3.9v.8c0,2.5,2.1,4.6,4.7,4.6h.1c2.5,0,4.6,-2.1,4.6,-4.6h-3c0,.9,-.7,1.7,-1.6,1.7h-.1c-1,0,-1.7,-.8,-1.7,-1.7v-.8c0,-.7,.3,-1.3,.8,-1.8c1,-1.1,1.6,-2.4,1.6,-3.9c0,-1.4,-.6,-2.8,-1.6,-3.8c-.9,-.9,-1.4,-2,-1.4,-3.3v-2.7c0,-1.6,1.3,-3,2.9,-3h.1c.7,0,1.5,.3,2,.8c.6,.6,.9,1.3,.9,2.1h3c0,-1.6,-.7,-3.1,-1.8,-4.2c-1,-1,-2.4,-1.6,-3.8,-1.7c1.1,-.6,2.3,-1,3.6,-1c3.8,0,6.9,3.2,6.9,7.1c0,3.1,-.6,6.2,-1.9,9l2.7,1.2c1.4,-3.2,2.2,-6.7,2.2,-10.2c0,-5.5,-4.5,-10,-9.9,-10Z" class="g1"/>
<path d="M482.7,277.7c1.1,0,1.9,.9,1.9,2c0,1,-.8,1.9,-1.9,1.9c-1.1,0,-2,-.9,-2,-1.9c0,-1.1,.9,-2,2,-2Z" class="g1"/>
<path d="M488.3,274.1l-2.1,2.1c1.9,1.9,1.9,5,0,6.9l2.1,2.1c3,-3,3,-8,0,-11.1Z" class="g1"/>
<path d="M492.4,269.9l-2.1,2.1c4.3,4.2,4.3,11.1,0,15.3l2.1,2.1c5.4,-5.4,5.4,-14.1,0,-19.5Z" class="g1"/>
<path d="M548.4,303v18.3h.4l6.5,-9.1L548.8,303Z" class="g5"/>
<path d="M562.9,321.2h-7.2l6.3,-9l-6.3,-9h7.2" class="g6"/>
<path d="M562.9,303.2h47.8" class="g4"/>
<path d="M612.5,321.2l6.3,-9l-6.3,-8.9m-1.8,-.1h10.4m-10.4,18h10.4" class="g6"/>
<path d="M621.1,303.2h51.2" class="g4"/>
<path d="M672.4,303v18.3" class="g7"/>
<path d="M536,371.6c-3.1,-4.1,-7.2,-7.4,-11.8,-9.7c-4.7,-2.4,-9.7,-3.6,-14.9,-3.6c-.2,0,-.8,0,-.9,0c-5.3,0,-10.3,1.2,-15,3.6c-4.5,2.3,-8.6,5.6,-11.8,9.7c-1.2,1.5,-1.2,3.7,0,5.2c3.2,4.1,7.3,7.4,11.8,9.7c4.7,2.4,9.7,3.6,15,3.6c.1,0,.7,0,.9,0c5.2,0,10.2,-1.2,14.9,-3.6c4.6,-2.3,8.7,-5.6,11.8,-9.7c1.3,-1.5,1.3,-3.7,0,-5.2m-41.5,12.9c-4.3,-2.2,-8.1,-5.3,-11.1,-9.1c-.5,-.7,-.5,-1.7,0,-2.4c3,-3.8,6.8,-6.9,11.1,-9.1c1.2,-.6,2.4,-1.1,3.7,-1.6c-3.3,3,-5.3,7.2,-5.3,11.9c0,4.7,2,8.9,5.3,11.9c-1.3,-.5,-2.5,-1,-3.7,-1.6m14.3,3.4c-7.5,0,-13.6,-6.2,-13.6,-13.7c0,-7.5,6.1,-13.7,13.6,-13.7c7.6,0,13.7,6.2,13.7,13.7c0,7.5,-6.1,13.7,-13.7,13.7m25.4,-12.5c-2.9,3.8,-6.7,6.9,-11,9.1c-1.2,.6,-2.5,1.1,-3.7,1.6c3.2,-3,5.3,-7.2,5.3,-11.9c0,-4.7,-2.1,-8.9,-5.3,-11.9c1.2,.5,2.5,1,3.7,1.6c4.3,2.2,8.1,5.3,11,9.1c.6,.7,.6,1.7,0,2.4Z" class="g1"/>
<path d="M508.8,368.4c-3.2,0,-5.8,2.6,-5.8,5.8c0,3.2,2.6,5.8,5.8,5.8c3.3,0,5.9,-2.6,5.9,-5.8c0,-3.2,-2.6,-5.8,-5.9,-5.8m0,9.4c-1.9,0,-3.5,-1.6,-3.5,-3.6c0,-2,1.6,-3.6,3.5,-3.6c2,0,3.6,1.6,3.6,3.6c0,2,-1.6,3.6,-3.6,3.6Z" class="g1"/>
<path d="M508.4,399.3v18.3h.4l6.5,-9.1l-6.5,-9.2Z" class="g5"/>
<path d="M522.9,417.5h-7.2l6.4,-9l-6.4,-9h7.2" class="g6"/>
<path d="M522.9,399.5h47" class="g4"/>
<path d="M571.7,417.5l6.4,-8.9l-6.4,-9m-1.8,-.1h10.4m-10.4,18h10.4" class="g6"/>
<path d="M580.3,399.5h74.6" class="g4"/>
<path d="M655.1,399.3v18.3" class="g7"/>
<path d="M510.1,482.6c.1,.3,.4,.5,.8,.5c.1,0,.2,-.1,.3,-.1c.1,-.1,5.2,-2.6,7.7,-3.4c.4,-.2,.7,-.7,.5,-1.1c-.1,-.5,-.6,-.7,-1.1,-.6c-2.6,.9,-7.6,3.4,-7.8,3.5c-.5,.2,-.6,.8,-.4,1.2Z" class="g1"/>
<path d="M510.9,472.7c.1,0,.2,0,.3,-.1c.1,0,5.2,-2.6,7.7,-3.4c.4,-.1,.7,-.6,.5,-1c-.1,-.5,-.6,-.8,-1.1,-.6c-2.6,.8,-7.6,3.4,-7.8,3.5c-.5,.2,-.6,.7,-.4,1.1c.1,.3,.4,.5,.8,.5Z" class="g1"/>
<path d="M531.5,471c-.5,0,-.8,.4,-.8,.9v33.5c0,1.5,-1.2,2.6,-2.6,2.6H507.4v-2c1.3,-.4,4.5,-1.4,7.8,-1.4c7.5,0,12.6,1.6,12.6,1.7c.3,0,.6,0,.8,-.2c.2,-.1,.3,-.4,.3,-.7V467.6c0,-.5,-.2,-.8,-.6,-.9c0,0,-.7,-.1,-1.9,-.4c-.4,0,-.9,.3,-1,.7c-.1,.5,.3,1,.7,1c.5,.1,.8,.2,1.1,.3v36c-1.9,-.5,-6.3,-1.4,-12,-1.4c-3.8,0,-7.5,1.2,-8.6,1.6c-1,-.4,-4.1,-1.6,-7.8,-1.6c-5.9,0,-10.8,.9,-12.9,1.4V468.2c1.7,-.4,6.8,-1.5,12.9,-1.5c3.1,0,5.8,1,6.9,1.4V502c0,.3,.2,.6,.4,.7c.3,.2,.6,.2,.9,0c.1,0,8.6,-5.1,16.2,-7.6c.3,-.2,.6,-.5,.6,-.9V458.9c0,-.2,-.2,-.5,-.4,-.7c-.2,-.1,-.5,-.2,-.8,-.1c-6.9,2.6,-13.9,7,-13.9,7c-.4,.3,-.6,.8,-.3,1.2c.2,.4,.8,.5,1.2,.3c0,-.1,6.1,-3.9,12.4,-6.4v33.4c-5.8,2.1,-12,5.4,-14.6,6.9V467.6c0,-.4,-.2,-.7,-.5,-.8c-.1,-.1,-3.6,-1.8,-8.1,-1.8c-7.8,0,-13.8,1.7,-14,1.7c-.4,.1,-.6,.5,-.6,.9v37.8c0,.3,.1,.6,.3,.7c.1,.1,.3,.2,.5,.2c.1,0,.2,0,.3,0c0,0,6,-1.7,13.5,-1.7c3.1,0,5.8,1,6.9,1.4v2H485c-1.4,0,-2.6,-1.1,-2.6,-2.6V471.9c0,-.5,-.4,-.9,-.8,-.9c-.5,0,-.9,.4,-.9,.9v33.5c0,2.4,1.9,4.4,4.3,4.4h43.1c2.3,0,4.3,-2,4.3,-4.4V471.9c0,-.5,-.4,-.9,-.9,-.9Z" class="g1"/>
<path d="M510.1,477.4c.1,.3,.4,.5,.8,.5c.1,0,.2,0,.3,-.1c.1,0,5.2,-2.6,7.7,-3.4c.4,-.1,.7,-.6,.5,-1.1c-.1,-.4,-.6,-.7,-1.1,-.5c-2.6,.8,-7.6,3.3,-7.8,3.5c-.5,.2,-.6,.7,-.4,1.1Z" class="g1"/>
<path d="M510.1,487.8c.1,.2,.4,.4,.8,.4c.1,0,.2,0,.3,-.1c.1,0,5.2,-2.6,7.7,-3.4c.4,-.1,.7,-.6,.5,-1c-.1,-.5,-.6,-.7,-1.1,-.6c-2.6,.8,-7.6,3.4,-7.8,3.5c-.5,.2,-.6,.7,-.4,1.2Z" class="g1"/>
<path d="M501.6,474.1c-5.3,-1.3,-11.4,.3,-11.6,.4c-.5,.1,-.8,.6,-.7,1c.2,.4,.5,.7,.9,.7q.1,0,.2,-.1c.1,0,5.9,-1.5,10.8,-.4c.4,.1,.9,-.1,1,-.6c.1,-.5,-.2,-.9,-.6,-1Z" class="g1"/>
<path d="M501.6,479.2c-5.3,-1.2,-11.4,.4,-11.6,.4c-.5,.2,-.8,.6,-.7,1.1c.2,.4,.5,.6,.9,.6q.1,0,.2,0c.1,0,5.9,-1.5,10.8,-.4c.4,.1,.9,-.2,1,-.6c.1,-.5,-.2,-1,-.6,-1.1Z" class="g1"/>
<path d="M510.1,492.9c.1,.3,.4,.5,.8,.5c.1,0,.2,0,.3,-.1c.1,0,5.2,-2.6,7.7,-3.4c.4,-.1,.7,-.6,.5,-1.1c-.1,-.4,-.6,-.7,-1.1,-.5c-2.6,.8,-7.6,3.4,-7.8,3.5c-.5,.2,-.6,.7,-.4,1.1Z" class="g1"/>
<path d="M501.6,484.4c-5.3,-1.3,-11.4,.3,-11.6,.4c-.5,.1,-.8,.6,-.7,1.1c.2,.3,.5,.6,.9,.6q.1,0,.2,0c.1,0,5.9,-1.6,10.8,-.4c.4,.1,.9,-.2,1,-.7c.1,-.4,-.2,-.9,-.6,-1Z" class="g1"/>
<path d="M501.6,494.7c-5.3,-1.2,-11.4,.4,-11.6,.4c-.5,.2,-.8,.6,-.7,1.1c.2,.4,.5,.6,.9,.6q.1,0,.2,0c.1,0,5.9,-1.5,10.8,-.4c.4,.1,.9,-.2,1,-.6c.1,-.5,-.2,-1,-.6,-1.1Z" class="g1"/>
<path d="M501.6,489.6c-5.3,-1.3,-11.4,.3,-11.6,.4c-.5,.1,-.8,.6,-.7,1c.2,.4,.5,.7,.9,.7q.1,0,.2,-.1c.1,0,5.9,-1.5,10.8,-.4c.4,.1,.9,-.1,1,-.6c.1,-.5,-.2,-.9,-.6,-1Z" class="g1"/>
<path d="M512.2,518.9v18.4h.4l6.5,-9.2l-6.5,-9.2Z" class="g5"/>
<path d="M526.7,537.1h-7.2l6.4,-9l-6.4,-9h7.2" class="g6"/>
<path d="M526.7,519.1h48.5" class="g4"/>
<path d="M576.9,537.1l6.4,-8.9l-6.4,-9m-1.7,-.1h10.4m-10.4,18h10.4" class="g6"/>
<path d="M585.6,519.1h42.3" class="g4"/>
<path d="M628.1,518.9v18.4" class="g7"/>
<path d="M537.3,597.5l-2.9,-2.9c-1.2,-1.1,-3.2,-1.1,-4.4,0l-15.8,15.8l-2.2,8l-.5,.5c-.4,.4,-.4,1.1,0,1.5c.2,.2,.5,.3,.7,.3c.3,0,.6,-.1,.8,-.3l.5,-.6l8,-2.1l15.8,-15.8c1.2,-1.2,1.2,-3.2,0,-4.4m-20.7,13.4l10.5,-10.5l4.4,4.4l-10.6,10.5Zm-.9,2l3.3,3.3l-4.6,1.3Zm20.1,-12.5l-2.9,2.9L528.6,599l2.9,-2.9c.4,-.4,1,-.4,1.4,0l2.9,2.9c.4,.4,.4,1,0,1.4Z" class="g1"/>
<path d="M487.9,597.8h26.7c.5,0,1,-.4,1,-1c0,-.6,-.5,-1,-1,-1H487.9c-.6,0,-1,.4,-1,1c0,.6,.4,1,1,1Z" class="g1"/>
<path d="M510.5,601.9H487.9c-.6,0,-1,.5,-1,1.1c0,.5,.4,1,1,1h22.6c.5,0,1,-.5,1,-1c0,-.6,-.5,-1.1,-1,-1.1Z" class="g1"/>
<path d="M487.9,579.4h13.3c.6,0,1.1,-.5,1.1,-1.1c0,-.5,-.5,-1,-1.1,-1H487.9c-.6,0,-1,.5,-1,1c0,.6,.4,1.1,1,1.1Z" class="g1"/>
<path d="M501.2,610.1c.6,0,1.1,-.4,1.1,-1c0,-.6,-.5,-1,-1.1,-1H487.9c-.6,0,-1,.4,-1,1c0,.6,.4,1,1,1Z" class="g1"/>
<path d="M517.6,583.5H487.9c-.6,0,-1,.4,-1,1c0,.6,.4,1,1,1h29.7c.6,0,1.1,-.4,1.1,-1c0,-.6,-.5,-1,-1.1,-1Z" class="g1"/>
<path d="M487.9,591.7h14.4c.5,0,1,-.5,1,-1.1c0,-.5,-.5,-1,-1,-1H487.9c-.6,0,-1,.5,-1,1c0,.6,.4,1.1,1,1.1Z" class="g1"/>
<path d="M518.7,590.6c0,-.5,-.5,-1,-1.1,-1h-7.1c-.6,0,-1.1,.5,-1.1,1c0,.6,.5,1.1,1.1,1.1h7.1c.6,0,1.1,-.5,1.1,-1.1Z" class="g1"/>
<path d="M507.1,591.4c.2,-.2,.3,-.5,.3,-.8c0,-.2,-.1,-.5,-.3,-.7c-.4,-.4,-1.1,-.4,-1.5,0c-.2,.2,-.3,.5,-.3,.7c0,.3,.1,.6,.3,.8c.2,.2,.5,.3,.8,.3c.2,0,.5,-.1,.7,-.3Z" class="g1"/>
<path d="M506.4,618.3H482.8V569.1h7.1v2c0,.6,.5,1.1,1.1,1.1h23.6c.5,0,1,-.5,1,-1.1v-2h7.2v22.6c0,.5,.4,1,1,1c.6,0,1,-.5,1,-1V568.1c0,-.6,-.4,-1.1,-1,-1.1h-8.2v-2c0,-.6,-.5,-1,-1,-1h-6.2v-2.1c0,-.6,-.4,-1,-1,-1h-9.2c-.6,0,-1.1,.4,-1.1,1V564H491c-.6,0,-1.1,.4,-1.1,1v2h-8.2c-.5,0,-1,.5,-1,1.1v51.3c0,.5,.5,1,1,1h24.7c.5,0,1,-.5,1,-1c0,-.6,-.5,-1.1,-1,-1.1m-7.2,-55.4h7.2V567h-7.2v-2ZM492,566h5.1v2.1c0,.5,.5,1,1.1,1h9.2c.6,0,1,-.5,1,-1V566h5.1v4.1H492v-2Z" class="g1"/>
<path d="M536.8,629.8v18.4h.5l6.5,-9.2l-6.5,-9.2Z" class="g5"/>
<path d="M551.3,648h-7.2l6.4,-9l-6.4,-9h7.2" class="g6"/>
<path d="M551.3,630h48.5" class="g4"/>
<path d="M601.6,648.1l6.3,-9l-6.3,-9m-1.8,-.1h10.4m-10.4,18h10.4" class="g6"/>
<path d="M610.2,630H750.5" class="g4"/>
<path d="M750.7,629.8v18.4" class="g7"/>
<path d="M551.3,670.9h-7.2l6.4,-9l-6.4,-9h7.2" class="g6"/>
<path d="M551.3,653H697.8" class="g4"/>
<path d="M698,652.8v18.3" class="g7"/>
<path d="M494.8,748.7c-6.2,0,-11.7,3.7,-14,9.4c-.2,.6,0,1.2,.6,1.4c.5,.2,1.1,0,1.3,-.6c2,-4.9,6.7,-8.1,12.1,-8.1c5.3,0,10,3.2,12,8.1c.2,.4,.6,.7,1,.7c.1,0,.2,-.1,.4,-.1c.5,-.2,.8,-.8,.6,-1.4c-2.4,-5.7,-7.9,-9.4,-14,-9.4Z" class="g1"/>
<path d="M531.5,699.6c-4,-3.1,-9.2,-4.9,-14.8,-4.9c-5.5,0,-10.7,1.8,-14.7,4.9c-4,3.2,-6.2,7.4,-6.2,12c0,8,6.9,14.8,16.5,16.5c.2,2.5,-.7,5.1,-2.5,6.9c-.3,.3,-.4,.7,-.2,1.1c.2,.4,.5,.7,1,.7c5.1,0,9.5,-3.7,10.5,-8.7c4.5,-.8,8.6,-2.7,11.5,-5.5c3.3,-3.1,5.1,-7,5.1,-11c0,-4.6,-2.2,-8.8,-6.2,-12M520,726.1c-.5,.1,-.9,.6,-.9,1.1c0,0,0,.1,0,.1c-.5,3.4,-3,6.1,-6.2,7c1.3,-2.1,1.8,-4.6,1.5,-7q0,-.1,0,-.1c0,-.5,-.4,-1,-.9,-1.1c-9.1,-1.2,-15.6,-7.3,-15.6,-14.5c0,-8.2,8.4,-14.8,18.8,-14.8c10.5,0,18.9,6.6,18.9,14.8c0,7.2,-6.5,13.3,-15.6,14.5Z" class="g1"/>
<path d="M509.7,710.5c-.6,0,-1.1,.5,-1.1,1.1c0,.6,.5,1.1,1.1,1.1c.6,0,1.1,-.5,1.1,-1.1c0,-.6,-.5,-1.1,-1.1,-1.1Z" class="g1"/>
<path d="M523.8,710.5c-.6,0,-1.1,.5,-1.1,1.1c0,.6,.5,1.1,1.1,1.1c.6,0,1.1,-.5,1.1,-1.1c0,-.6,-.5,-1.1,-1.1,-1.1Z" class="g1"/>
<path d="M516.7,710.5c-.6,0,-1.1,.5,-1.1,1.1c0,.6,.5,1.1,1.1,1.1c.7,0,1.2,-.5,1.2,-1.1c0,-.6,-.5,-1.1,-1.2,-1.1Z" class="g1"/>
<path d="M494.8,745.5c5.4,0,9.8,-4.4,9.8,-9.8c0,-5.4,-4.4,-9.8,-9.8,-9.8c-5.4,0,-9.9,4.4,-9.9,9.8c0,5.4,4.5,9.8,9.9,9.8m0,-17.5c4.2,0,7.7,3.5,7.7,7.7c0,4.3,-3.5,7.7,-7.7,7.7c-4.3,0,-7.8,-3.4,-7.8,-7.7c0,-4.2,3.5,-7.7,7.8,-7.7Z" class="g1"/>
<path d="M530.2,768.7v18.4h.4l6.5,-9.2l-6.5,-9.2Z" class="g5"/>
<path d="M544.7,786.9h-7.2l6.3,-9l-6.3,-9h7.2" class="g6"/>
<path d="M544.7,768.9h72.4" class="g4"/>
<path d="M618.9,787l6.4,-9l-6.4,-9m-1.8,-.1h10.4m-10.4,18h10.4" class="g6"/>
<path d="M627.5,768.9h55.7" class="g4"/>
<path d="M685,787l6.3,-9L685,769m-1.8,-.1h10.4m-10.4,18h10.4" class="g6"/>
<path d="M693.6,768.9H842.1" class="g4"/>
<path d="M842.3,768.7v18.4" class="g7"/>
<path d="M544.7,809.8h-7.2l6.3,-9l-6.3,-9h7.2" class="g6"/>
<path d="M544.7,791.8H686.3" class="g4"/>
<path d="M688.1,809.9l6.4,-9l-6.4,-9m-1.7,-.1h10.3m-10.3,18h10.3" class="g6"/>
<path d="M696.7,791.8H797.8" class="g4"/>
<path d="M798,791.7V810" class="g7"/>
<path d="M524.3,873.8l-5.5,-2.4c-.4,-.2,-.7,-.6,-.7,-1v-1.5c1.9,-1.5,3.1,-3.8,3.1,-6.4v-2.1c.6,-.3,1,-1,1,-1.7v-.2c0,-4.5,-3.6,-8.1,-8.1,-8.1h-2c-4.4,0,-8,3.6,-8,8.1v1.9c0,.6,.2,1.2,.7,1.6c.1,0,.2,.1,.3,.1v.4c0,2.6,1.2,4.9,3,6.3v1.6c0,.4,-.2,.8,-.6,1l-5.5,2.4c-1.8,.8,-3,2.6,-3,4.6V891c0,.5,.4,.9,.9,.9c.6,0,1,-.4,1,-.9V878.4c0,-.1,0,-.2,0,-.3l2.5,2.5c.4,.4,.7,.9,.7,1.5V891c0,.5,.4,.9,.9,.9c.5,0,1,-.4,1,-.9v-8.9c0,-1.1,-.5,-2.1,-1.2,-2.8l-3,-3.1c.2,-.3,.6,-.5,.9,-.7l5.5,-2.4l4,4.1V891c0,.5,.4,.9,.9,.9c.6,0,1,-.4,1,-.9V877.2l4,-4.1l5.4,2.4c.4,.2,.7,.4,1,.7l-3,3.1c-.8,.7,-1.2,1.7,-1.2,2.8V891c0,.5,.4,.9,1,.9c.5,0,.9,-.4,.9,-.9v-8.9c0,-.6,.2,-1.1,.6,-1.5l2.6,-2.5c0,.1,0,.2,0,.3V891c0,.5,.4,.9,.9,.9c.6,0,1,-.4,1,-.9V878.4c0,-2,-1.2,-3.8,-3,-4.6m-11.2,1.6l-3.5,-3.5c.3,-.5,.4,-1,.4,-1.5V870c1,.4,2,.6,3.1,.6c1.1,0,2.2,-.2,3.1,-.6v.4c0,.5,.2,1,.5,1.5Zm0,-6.7c-3.4,0,-6.1,-2.8,-6.1,-6.2v-.4c.6,-.2,1.1,-.6,1.7,-1.1c.4,-.4,.4,-1,.1,-1.3c-.4,-.4,-1,-.5,-1.4,-.1c-.5,.4,-.9,.7,-1.4,.8c0,0,0,.1,0,.1q0,-.1,0,-.1v-1.9c0,-3.4,2.7,-6.2,6.1,-6.2h2c3.4,0,6.2,2.8,6.2,6.2v.2c0,0,0,.1,0,.1c-5.7,1.1,-8.6,-1,-9.5,-2c-.4,-.4,-1,-.4,-1.4,0c-.4,.4,-.4,1,0,1.3c3,3,7.3,3,9.9,2.7v1.7c0,3.4,-2.8,6.2,-6.2,6.2Z" class="g1"/>
<path d="M497.8,868.6v-2c0,-2.5,-1.3,-4.7,-3.2,-5.9c.1,-.4,.2,-.8,.2,-1.2c0,-2.2,-1.8,-4,-4,-4c-2.2,0,-4,1.8,-4,4c0,.4,.1,.8,.2,1.2c-2,1.2,-3.2,3.4,-3.2,5.9v2c0,2.4,1.2,4.6,3,5.8v2.1c0,.4,-.2,.8,-.6,1l-3.3,1.6c-1.3,.7,-2.2,2.1,-2.2,3.6V891c0,.5,.4,.9,1,.9c.5,0,.9,-.4,.9,-.9v-7.9l1.6,1.6c.4,.4,.6,.9,.6,1.4V891c0,.5,.4,.9,.9,.9c.5,0,1,-.4,1,-.9v-4.9c0,-1,-.4,-2,-1.2,-2.8l-2.2,-2.1c0,0,0,-.1,0,-.1c.1,-.1,.3,-.2,.5,-.3l3.3,-1.6c.1,-.1,.3,-.2,.4,-.3l2.3,2.3V891c0,.5,.5,.9,1,.9c.5,0,.9,-.4,.9,-.9v-9.8l2.4,-2.3c.1,.1,.3,.2,.4,.3l.9,.4c.2,.1,.3,.1,.5,.1c.3,0,.7,-.2,.8,-.5c.3,-.5,.1,-1,-.4,-1.3l-.9,-.4c-.4,-.2,-.6,-.6,-.6,-1v-2.1c1.8,-1.2,3,-3.4,3,-5.8m-7,-11.2c1.2,0,2.1,.9,2.1,2.1c0,.1,0,.3,0,.4c-.7,-.2,-1.4,-.3,-2.1,-.3c-.7,0,-1.4,.1,-2.1,.3c0,-.1,0,-.3,0,-.4c0,-1.2,.9,-2.1,2.1,-2.1m0,4.1c2.8,0,5.1,2.3,5.1,5.1v.4c-3.9,1.2,-6.3,-1.8,-6.4,-2c-.1,-.2,-.4,-.3,-.7,-.4c-.2,0,-.5,.1,-.7,.3c-.9,.9,-1.8,1.4,-2.4,1.6c0,-2.8,2.3,-5,5.1,-5m0,18l-2.2,-2.2c.1,-.3,.1,-.5,.1,-.8v-1.1c.7,.2,1.4,.3,2.1,.3c.7,0,1.4,-.1,2.1,-.3v1.1c0,.3,0,.5,.1,.8Zm0,-5.7c-2.8,0,-5.1,-2.3,-5.1,-5.2v-.2c.7,-.1,1.8,-.5,3,-1.5c.4,.4,1,.9,1.8,1.3c.9,.5,2.1,.9,3.6,.9c.6,0,1.2,0,1.8,-.2c-.1,2.7,-2.4,4.9,-5.1,4.9Z" class="g1"/>
<path d="M543.3,877.1L538,874.4c-.3,-.1,-.6,-.5,-.6,-.9v-1.4c1.3,-1.1,2.1,-2.7,2.1,-4.5v-1.1c.6,0,1,-.4,1,-.9v-2c0,-3.4,-2.7,-6.1,-6,-6.1h-2.1c-3.3,0,-6,2.7,-6,6.1v2c0,.5,.4,.9,.9,.9q.1,0,.1,0v1.1c0,1.8,.8,3.4,2,4.5v1.4c0,.4,-.2,.8,-.6,.9c-.4,.3,-.6,.8,-.4,1.3c.2,.3,.5,.5,.9,.5c.1,0,.3,0,.4,-.1c.2,0,.3,-.1,.5,-.3l2.3,2.4V891c0,.5,.4,.9,.9,.9c.6,0,1,-.4,1,-.9V878.2l2.3,-2.4c.2,.2,.3,.3,.5,.3l5.1,2.6l-1.5,1.6c-.8,.7,-1.2,1.7,-1.2,2.8V891c0,.5,.4,.9,.9,.9c.6,0,1,-.4,1,-.9v-7.9c0,-.6,.2,-1.1,.6,-1.5l1.5,-1.5c0,.2,.1,.4,.1,.6V891c0,.5,.4,.9,.9,.9c.5,0,1,-.4,1,-.9V880.7c0,-1.5,-.9,-2.9,-2.3,-3.6m-15,-12.7v-.8c0,-2.3,1.8,-4.2,4.1,-4.2h2.1c2.2,0,4.1,1.9,4.1,4.2v1c-4.1,-.2,-6.6,-1.8,-6.7,-1.8c-.1,-.1,-.3,-.2,-.5,-.2c-.2,0,-.5,.1,-.7,.3c-.9,.9,-1.8,1.3,-2.4,1.5m5.1,12l-2.2,-2.2c.1,-.2,.1,-.5,.1,-.7v-.2c.7,.2,1.4,.4,2.1,.4c.8,0,1.5,-.2,2.1,-.4v.2c0,.2,.1,.5,.1,.7Zm0,-4.6c-2.2,0,-4.1,-1.9,-4.1,-4.2v-1.5c.7,-.3,1.5,-.7,2.2,-1.4c1,.6,3.1,1.4,6.1,1.7v1.2c0,2.3,-1.9,4.2,-4.2,4.2Z" class="g1"/>
<path d="M542.2,901.1v18.3h.4l6.5,-9.1l-6.5,-9.2Z" class="g5"/>
<path d="M556.7,919.2h-7.2l6.3,-8.9l-6.3,-9h7.2" class="g6"/>
<path d="M556.7,901.3h68.7" class="g4"/>
<path d="M627.2,919.3l6.3,-9l-6.3,-8.9m-1.8,-.1h10.4m-10.4,17.9h10.4" class="g6"/>
<path d="M635.8,901.3h75.4" class="g4"/>
<path d="M711.4,901.1v18.3" class="g7"/>
<path d="M550,1023.1v18.3h.4l6.5,-9.2l-6.5,-9.1Z" class="g5"/>
<path d="M568.2,1041.2H561l6.4,-9l-6.4,-8.9h7.2" class="g6"/>
<path d="M568.2,1023.3h60.2" class="g4"/>
<path d="M630.2,1041.3l6.3,-9l-6.3,-9m-1.8,0h10.4m-10.4,17.9h10.4" class="g6"/>
<path d="M638.8,1023.3h75.9" class="g4"/>
<path d="M714.9,1023.1v18.3" class="g7"/>
<path d="M568.2,1064.1H561l6.4,-8.9l-6.4,-9h7.2" class="g6"/>
<path d="M568.2,1046.2H655" class="g4"/>
<path d="M656.8,1064.2l6.3,-9l-6.3,-8.9m-1.8,-.1h10.4M655,1064.1h10.4" class="g6"/>
<path d="M665.4,1046.2h69.2" class="g4"/>
<path d="M734.8,1046v18.3" class="g7"/>
<path d="M549.1,1111.2v18.3h.4l6.5,-9.2l-6.5,-9.1Z" class="g5"/>
<path d="M567.3,1129.3h-7.2l6.4,-9l-6.4,-8.9h7.2" class="g6"/>
<path d="M567.3,1111.4h60.2" class="g4"/>
<path d="M629.3,1129.4l6.3,-9l-6.3,-9m-1.8,0h10.4m-10.4,17.9h10.4" class="g6"/>
<path d="M637.9,1111.4h89.7" class="g4"/>
<path d="M727.8,1111.2v18.3" class="g7"/>
<path d="M543,1176.4v18.3h.4l6.5,-9.2l-6.5,-9.1Z" class="g5"/>
<path d="M561.2,1194.5H554l6.4,-9l-6.4,-8.9h7.2" class="g6"/>
<path d="M561.2,1176.6H617" class="g4"/>
<path d="M618.8,1194.6l6.4,-9l-6.4,-9m-1.8,0h10.4M617,1194.5h10.4" class="g6"/>
<path d="M627.4,1176.6h56.1" class="g4"/>
<path d="M683.7,1176.4v18.3" class="g7"/>
<path clip-path="url(#c4)" d="M-853,138.5H853.1" class="g8"/>
<path d="M480.7,188.9H853.2" class="g9"/>
<path clip-path="url(#c4)" d="M-853,1233.1H0m0,0H853.1" class="ga"/>
</svg>