<?xml version="1.0" encoding="UTF-8" standalone="no"?>
<!DOCTYPE svg PUBLIC "-//W3C//DTD SVG 1.1//EN"
"http://www.w3.org/Graphics/SVG/1.1/DTD/svg11.dtd">
<svg viewBox="0 0 909 1286" version="1.1" xmlns="http://www.w3.org/2000/svg" xmlns:xlink="http://www.w3.org/1999/xlink">
<defs>
<clipPath id="c0_17"><path d="M0,1286.2V0H909.4V1286.2Z"/></clipPath>
<clipPath id="c1_17"><path d="M747.7,1170.7l-303.2,-2.6l3.4,-389.8L751.1,781l-3.4,389.7Z"/></clipPath>
<style type="text/css"><![CDATA[
.g0_17{
fill: #E2C95F;
}
.g1_17{
fill: #FFFFFF;
}
.g2_17{
}
.g3_17{
fill: #FCF8EE;
}
.g4_17{
fill: none;
stroke: #000000;
stroke-width: 1.527;
stroke-linecap: round;
stroke-linejoin: round;
stroke-dasharray: 0,5;
}
.g5_17{
fill: none;
stroke: #000000;
stroke-width: 1.527;
stroke-linecap: round;
stroke-linejoin: round;
}
.g6_17{
fill: none;
stroke: #000000;
stroke-width: 3.611;
stroke-linecap: butt;
stroke-linejoin: miter;
}
.g7_17{
fill: none;
stroke: #9DDCF9;
stroke-width: 13.75;
stroke-linecap: butt;
stroke-linejoin: miter;
}
.g8_17{
fill: #C7C8CA;
}
.g9_17{
fill: none;
stroke: #000000;
stroke-width: 0.763;
stroke-linecap: butt;
stroke-linejoin: miter;
}
.ga_17{
fill: none;
stroke: #FFFFFF;
stroke-width: 5.267;
stroke-linecap: butt;
stroke-linejoin: miter;
stroke-miterlimit: 4;
}
]]></style>
</defs>
<path d="M0,1286.2H909.4V0H0V1286.2Z" class="g0_17"/>
<path d="M44.4,1215.9H834.7V350.4H44.4v865.5Z" class="g1_17"/>
<path d="M56.3,89.9H909.4V56.3H56.3V89.9Z" class="g2_17"/>
<image clip-path="url(#c0_17)" preserveAspectRatio="none" x="52" y="389" width="785" height="349" xlink:href="img/1.png"/>
<path d="M56.3,722.3H822.8V392.4H56.3V722.3Z" class="g3_17"/>
<path d="M67.2,441.3H812V418.5H67.2v22.8Z" class="g1_17"/>
<path d="M79.1,436.3H802.5" class="g4_17"/>
<path d="M74.5,436.3v0m730.2,0v0" class="g5_17"/>
<path d="M67.2,482.5H812V459.7H67.2v22.8Z" class="g1_17"/>
<path d="M79.1,477.5H802.5" class="g4_17"/>
<path d="M74.5,477.5v0m730.2,0v0" class="g5_17"/>
<path d="M67.2,523.7H812V500.9H67.2v22.8Z" class="g1_17"/>
<path d="M79.1,518.7H802.5" class="g4_17"/>
<path d="M74.5,518.7v0m730.2,0v0" class="g5_17"/>
<path d="M67.2,564.9H812V542.1H67.2v22.8Z" class="g1_17"/>
<path d="M79.1,559.9H802.5" class="g4_17"/>
<path d="M74.5,559.9v0m730.2,0v0" class="g5_17"/>
<path d="M67.2,606.1H812V583.3H67.2v22.8Z" class="g1_17"/>
<path d="M79.1,601.1H802.5" class="g4_17"/>
<path d="M74.5,601.1v0m730.2,0v0" class="g5_17"/>
<path d="M67.2,654.9H812V632.1H67.2v22.8Z" class="g1_17"/>
<path d="M79.1,649.9H802.5" class="g4_17"/>
<path d="M74.5,649.9v0m730.2,0v0" class="g5_17"/>
<path d="M67.2,705.3H812V682.5H67.2v22.8Z" class="g1_17"/>
<path d="M79.1,700.3H802.5" class="g4_17"/>
<path d="M74.5,700.3v0m730.2,0v0" class="g5_17"/>
<path d="M56.3,138.5H822.8" class="g6_17"/>
<path d="M86.6,791.2H345.1M86.6,808H196.5M86.6,824.8H189.1M86.6,841.6h146m-146,16.8H333.3" class="g7_17"/>
<path d="M86.1,1056.2H351.5V947H86.1v109.2Z" class="g8_17"/>
<path d="M56.3,1233.1H909.4" class="g9_17"/>
<image clip-path="url(#c0_17)" preserveAspectRatio="none" x="438" y="773" width="335" height="420" xlink:href="img/2.png"/>
<image clip-path="url(#c1_17)" preserveAspectRatio="none" x="445" y="778" width="306" height="393" xlink:href="img/3.png"/>
<path d="M445.3,778.3l-3.4,389.8l-.1,2.6h2.7l303.2,2.7h2.6l.1,-2.6L753.8,781v-2.6h-2.6L447.9,775.7h-2.6v2.6Z" class="ga_17"/>
</svg>