<?xml version="1.0" encoding="UTF-8" standalone="no"?>
<!DOCTYPE svg PUBLIC "-//W3C//DTD SVG 1.1//EN"
"http://www.w3.org/Graphics/SVG/1.1/DTD/svg11.dtd">
<svg viewBox="0 0 909 1286" version="1.1" xmlns="http://www.w3.org/2000/svg" xmlns:xlink="http://www.w3.org/1999/xlink">
<defs>
<clipPath id="c0_20"><path d="M0,1286.2V0H909.4V1286.2Z"/></clipPath>
<clipPath id="c1_20"><path d="M494.3,68.5V35h69.5V68.5Z"/></clipPath>
<clipPath id="c2_20"><path d="M32.6,1265.4V645.7H459.1v619.7Z"/></clipPath>
<style type="text/css"><![CDATA[
.g0_20{
fill: #E9E9E1;
}
.g1_20{
}
.g2_20{
fill: none;
stroke: #000000;
stroke-width: 3.611;
stroke-linecap: butt;
stroke-linejoin: miter;
}
.g3_20{
fill: none;
stroke: #000000;
stroke-width: 0.687;
stroke-linecap: butt;
stroke-linejoin: miter;
}
.g4_20{
fill: #FFDF5D;
}
.g5_20{
fill: none;
stroke: #E9E9E1;
stroke-width: 1.527;
stroke-linecap: butt;
stroke-linejoin: miter;
}
.g6_20{
fill: none;
stroke: #FFE581;
stroke-width: 18.906;
stroke-linecap: butt;
stroke-linejoin: miter;
}
.g7_20{
fill: none;
stroke: #939598;
stroke-width: 0.902;
stroke-linecap: butt;
stroke-linejoin: miter;
stroke-dasharray: 3,2;
}
.g8_20{
fill: none;
stroke: #939598;
stroke-width: 0.902;
stroke-linecap: butt;
stroke-linejoin: miter;
}
.g9_20{
fill: none;
stroke: #808285;
stroke-width: 0.757;
stroke-linecap: butt;
stroke-linejoin: miter;
}
.ga_20{
fill: none;
stroke: #000000;
stroke-width: 0.763;
stroke-linecap: butt;
stroke-linejoin: miter;
}
]]></style>
</defs>
<path d="M-931,1307.9H931.1V-21.6H-931V1307.9Z" class="g0_20"/>
<path d="M0,89.9H853.1V56.3H0V89.9Z" class="g1_20"/>
<path clip-path="url(#c0_20)" d="M-853.2,138.5H853.5" class="g2_20"/>
<path d="M154.1,574.9H200m-92.9,16.8h62.8m104.5,16.8h69M114.1,642.1h74" class="g3_20"/>
<path d="M86.6,196.6H210.5v40.7H86.6V196.6Zm123.9,0H334.4v40.7H210.5V196.6Zm123.9,0H458.3v40.7H334.4V196.6ZM86.6,237.3H210.5v24H86.6v-24Zm123.9,0H334.4v24H210.5v-24Zm123.9,0H458.3v24H334.4v-24Zm-247.8,24H210.5v40.8H86.6V261.3Zm123.9,0H334.4v40.8H210.5V261.3Zm123.9,0H458.3v40.8H334.4V261.3ZM86.6,302.1H210.5v40.8H86.6V302.1Zm123.9,0H334.4v40.8H210.5V302.1Zm123.9,0H458.3v40.8H334.4V302.1ZM86.6,342.9H210.5v40.8H86.6V342.9Zm123.9,0H334.4v40.8H210.5V342.9Zm123.9,0H458.3v40.8H334.4V342.9Z" class="g4_20"/>
<path d="M210.5,236.6V196.5m123.9,40.1V196.5M86.6,237.3H210.5m0,0H334.4M210.5,260.6V238.1m123.9,-.8H458.3M334.4,260.6V238.1M86.6,261.3H210.5m0,0H334.4M210.5,301.4V262.1m123.9,-.8H458.3M334.4,301.4V262.1m-247.8,40H210.5m0,0H334.4M210.5,342.2V302.9m123.9,-.8H458.3M334.4,342.2V302.9m-247.8,40H210.5m0,0H334.4M210.5,383.7v-40m123.9,-.8H458.3M334.4,383.7v-40" class="g5_20"/>
<path d="M86.6,436.6H210.5v19.7H86.6V436.6Zm123.9,0H334.4v19.7H210.5V436.6Zm123.9,0H458.3v19.7H334.4V436.6ZM86.6,456.3H210.5v19.6H86.6V456.3Zm123.9,0H334.4v19.6H210.5V456.3Zm123.9,0H458.3v19.6H334.4V456.3ZM86.6,475.9H210.5v19.7H86.6V475.9Zm123.9,0H334.4v19.7H210.5V475.9Zm123.9,0H458.3v19.7H334.4V475.9Z" class="g4_20"/>
<path d="M210.5,455.5V436.6m123.9,18.9V436.6M86.6,456.3H210.5m0,0H334.4M210.5,475.2V457m123.9,-.7H458.3M334.4,475.2V457M86.6,475.9H210.5m0,0H334.4M210.5,495.6V476.7m123.9,-.8H458.3M334.4,495.6V476.7" class="g5_20"/>
<path d="M480.7,974.9H853.2m-372.5,84H853.2" class="g6_20"/>
<path d="M480.7,263.8H560v24H480.7v-24Zm79.3,0H704.7v24H560v-24Zm144.7,0H849.3v24H704.7v-24Z" class="g4_20"/>
<path d="M480.7,287.8H560v24H480.7v-24Zm79.3,0H704.7v24H560v-24Zm144.7,0H849.3v24H704.7v-24Zm-224,24H560v23.9H480.7V311.8Zm79.3,0H704.7v23.9H560V311.8Zm144.7,0H849.3v23.9H704.7V311.8Zm-224,23.9H560v24H480.7v-24Zm79.3,0H704.7v24H560v-24Zm144.7,0H849.3v24H704.7v-24Z" class="g4_20"/>
<path d="M560,287V263.8M704.7,287V263.8m-224,24H560m0,0H704.7M560,311V288.5m144.7,-.7H849.3M704.7,311V288.5m-224,23.3H560m0,0H704.7M560,335V312.5m144.7,-.7H849.3M704.7,335V312.5m-224,23.2H560m0,0H704.7M560,359.7V336.5m144.7,-.8H849.3m-144.6,24V336.5" class="g5_20"/>
<path d="M480.7,426.7H560v23.9H480.7V426.7Zm79.3,0H745.9v23.9H560V426.7ZM480.7,546.6H560v24H480.7v-24Zm79.3,0H745.9v24H560v-24Z" class="g4_20"/>
<path d="M480.7,450.6H560v24H480.7v-24Zm79.3,0H745.9v24H560v-24Zm-79.3,24H560v24H480.7v-24Zm79.3,0H745.9v24H560v-24Zm-79.3,24H560v24H480.7v-24Zm79.3,0H745.9v24H560v-24Zm-79.3,72H560v24H480.7v-24Zm79.3,0H745.9v24H560v-24Zm-79.3,24H560v24H480.7v-24Zm79.3,0H745.9v24H560v-24Zm-79.3,24H560v24H480.7v-24Zm79.3,0H745.9v24H560v-24Z" class="g4_20"/>
<path d="M560,449.9V426.7m-79.3,23.9H560m0,0H745.9M560,473.9V451.4m-79.3,23.2H560m0,0H745.9M560,497.9V475.4m-79.3,23.2H560m0,0H745.9M560,521.9V499.4m-79.3,23.2H560m0,0H745.9M560,545.9V523.4m-79.3,23.2H560m0,0H745.9M560,569.8V547.4m-79.3,23.2H560m0,0H745.9M560,593.8V571.4m-79.3,23.2H560m0,0H745.9M560,617.8V595.4m-79.3,23.2H560m0,0H745.9M560,642.6V619.4" class="g5_20"/>
<path d="M481.2,792.7V656m3.1,-2.3H766" class="g7_20"/>
<path d="M481.6,795.9h-.4v-1.4m0,-139.4v-1.4h1.3m284.4,0h1.3v.5" class="g8_20"/>
<path d="M768.2,792.7V656" class="g7_20"/>
<path d="M768.2,795.9v-1.4m0,-139.4v-1.4" class="g8_20"/>
<path d="M484.3,795.9H766" class="g7_20"/>
<path d="M481.2,795.9h1.3m284.4,0h1.3v-.5" class="g8_20"/>
<path d="M489.8,715.5h50.3M489.8,783H609.2" class="g9_20"/>
<path d="M481.2,872.4V815.8m3.1,-2.2H766" class="g7_20"/>
<path d="M481.6,875.5h-.4v-1.3m0,-59.3v-1.3h1.3m284.4,0h1.3v.4" class="g8_20"/>
<path d="M768.2,872.4V815.8" class="g7_20"/>
<path d="M768.2,875.5v-1.3m0,-59.3v-1.3" class="g8_20"/>
<path d="M484.3,875.5H766" class="g7_20"/>
<path d="M481.2,875.5h1.3m284.4,0h1.3v-.4" class="g8_20"/>
<path d="M481.2,1161.8v-44.1m3.1,-2.2H631.8" class="g7_20"/>
<path d="M481.6,1165h-.4v-1.4m0,-46.7v-1.4h1.3m150.1,0H634v.5" class="g8_20"/>
<path d="M634,1161.8v-44.1" class="g7_20"/>
<path d="M634,1165v-1.4m0,-46.7v-1.4" class="g8_20"/>
<path d="M484.3,1165H631.8" class="g7_20"/>
<path d="M481.2,1165h1.3m150.1,0H634v-.5" class="g8_20"/>
<path d="M469,1125h24.7v-20.4H469V1125Z" class="g0_20"/>
<image clip-path="url(#c0_20)" preserveAspectRatio="none" x="480" y="-24" width="212" height="114" xlink:href="img/1.png"/>
<path d="M483.5,73.1H677.8V0H483.5V73.1Z" class="g4_20"/>
<path clip-path="url(#c1_20)" d="M561.5,65c-.1,.3,-.3,.6,-.4,.8c-.2,.2,-.5,.3,-.7,.4c-.3,.1,-.5,.2,-.8,.2c-.3,0,-.6,-.1,-.8,-.2c-.3,-.1,-.5,-.3,-.7,-.5c-.2,-.2,-.3,-.4,-.4,-.7c-.1,-.2,-.2,-.5,-.2,-.8c0,-.3,.1,-.6,.2,-.9c.1,-.2,.2,-.5,.4,-.7c.2,-.2,.4,-.4,.7,-.5c.2,-.1,.5,-.2,.8,-.2c.3,0,.6,.1,.8,.2c.3,.1,.5,.3,.7,.5c.2,.2,.3,.4,.4,.7c.1,.3,.2,.5,.2,.9c0,.3,-.1,.6,-.2,.8m2,-2.6c-.3,-.5,-.6,-1,-.9,-1.3c-.4,-.4,-.9,-.7,-1.4,-1c-.5,-.2,-1,-.3,-1.6,-.3c-.2,0,-.4,0,-.6,.1c-.2,0,-.4,.1,-.6,.1c-.1,.1,-.3,.2,-.5,.3c-.1,.1,-.3,.2,-.4,.4v-20c1.1,-.4,1.9,-1.5,1.9,-2.7c.1,-1.7,-1.2,-3,-2.9,-3c-1.6,0,-3,1.3,-3,2.9c0,1.3,.8,2.4,1.9,2.8V64.1c0,.7,.1,1.3,.3,1.8c.2,.5,.5,1,.9,1.4c.4,.4,.8,.7,1.3,.9c.6,.2,1.1,.3,1.7,.3c.6,0,1.1,-.1,1.6,-.3c.5,-.2,1,-.5,1.3,-.9c.4,-.4,.7,-.8,.9,-1.4c.3,-.5,.4,-1.1,.4,-1.7c0,-.7,-.1,-1.2,-.3,-1.8Z" class="g1_20"/>
<path d="M510.9,52.4c-.1,.3,-.2,.5,-.4,.7c-.3,.2,-.5,.4,-.8,.5c-.2,.1,-.5,.2,-.8,.2c-.3,0,-.6,-.1,-.9,-.2c-.3,-.1,-.5,-.3,-.7,-.5c-.2,-.2,-.4,-.4,-.5,-.7c-.1,-.3,-.2,-.7,-.2,-1c0,-.4,.1,-.7,.2,-1c.1,-.3,.3,-.6,.5,-.8c.2,-.2,.4,-.3,.7,-.4c.3,-.1,.6,-.2,.9,-.2c.3,0,.6,.1,.8,.2c.3,.1,.5,.2,.8,.4c.2,.2,.3,.5,.4,.8c.1,.3,.2,.6,.2,1c0,.3,-.1,.7,-.2,1M513,49.5c-.2,-.6,-.6,-1.1,-1,-1.5c-.4,-.4,-.8,-.7,-1.4,-.9c-.5,-.2,-1.1,-.3,-1.7,-.3c-.3,0,-.6,0,-.9,.1c-.2,0,-.5,.1,-.8,.3c-.2,.1,-.5,.2,-.7,.4c-.3,.2,-.5,.3,-.7,.5l-.9,-1h-.5V62.8h-.9v5.7h4V62.8h-.9V55.3c.2,0,.4,.1,.6,.2c.1,.1,.3,.2,.5,.3c.2,.1,.4,.1,.6,.2c.2,0,.4,0,.6,0c.6,0,1.2,-.1,1.7,-.3c.6,-.2,1,-.5,1.4,-.9c.4,-.4,.8,-.9,1,-1.5c.2,-.5,.3,-1.2,.3,-1.9c0,-.7,-.1,-1.3,-.3,-1.9Z" class="g1_20"/>
<path clip-path="url(#c1_20)" d="M494.3,47.5c0,-.5,.1,-.9,.3,-1.4c.2,-.4,.4,-.7,.8,-1c.3,-.4,.6,-.6,1,-.8c.4,-.2,.9,-.2,1.4,-.2H503v2.2h-5.2c-.2,0,-.3,.1,-.5,.1c-.1,.1,-.2,.2,-.3,.3c-.1,.1,-.2,.2,-.3,.3c0,.2,-.1,.3,-.1,.5c0,.1,.1,.3,.1,.4c.1,.2,.2,.3,.3,.4c.1,.1,.2,.2,.3,.2c.2,.1,.3,.1,.5,.1H500c.5,0,1,.1,1.4,.3c.4,.2,.8,.4,1.1,.7c.3,.3,.5,.7,.7,1.1c.2,.4,.3,.9,.3,1.3c0,.5,-.1,1,-.3,1.4c-.2,.4,-.4,.7,-.7,1.1c-.3,.3,-.7,.5,-1.1,.7c-.4,.2,-.9,.3,-1.4,.3h-5V53.2h5c.2,0,.4,-.1,.5,-.1c.1,-.1,.3,-.1,.4,-.3c.1,-.1,.1,-.2,.2,-.3c.1,-.2,.1,-.3,.1,-.5c0,-.1,0,-.3,-.1,-.4c-.1,-.1,-.1,-.3,-.2,-.4c-.1,-.1,-.3,-.2,-.4,-.2c-.1,-.1,-.3,-.1,-.5,-.1h-2.2c-.5,0,-1,-.1,-1.4,-.3c-.4,-.1,-.7,-.4,-1,-.7c-.4,-.3,-.6,-.7,-.8,-1.1c-.2,-.4,-.3,-.9,-.3,-1.3Z" class="g1_20"/>
<path d="M520.6,51.1c0,-.3,0,-.6,-.1,-.8c-.2,-.3,-.3,-.6,-.5,-.8c-.2,-.2,-.4,-.4,-.7,-.5c-.3,-.1,-.5,-.2,-.8,-.2c-.3,0,-.6,.1,-.9,.2c-.2,.1,-.5,.2,-.7,.4c-.1,.2,-.3,.4,-.4,.7c-.1,.3,-.2,.7,-.2,1c0,.4,.1,.7,.2,1c.1,.3,.3,.5,.4,.7c.2,.2,.5,.4,.7,.5c.3,.1,.6,.1,.9,.1c.3,0,.5,0,.8,-.2c.3,-.1,.5,-.3,.7,-.5c.2,-.2,.3,-.4,.5,-.7c.1,-.3,.1,-.6,.1,-.9m2.2,4.4h-.5l-.8,-1.2c-.3,.2,-.5,.3,-.7,.5c-.2,.2,-.5,.3,-.7,.4c-.3,.2,-.5,.2,-.8,.3c-.3,.1,-.6,.1,-.8,.1c-.6,0,-1.2,-.1,-1.7,-.3c-.5,-.2,-1,-.5,-1.4,-.9c-.4,-.3,-.7,-.8,-.9,-1.4c-.3,-.5,-.4,-1.2,-.4,-1.9c0,-.6,.1,-1.2,.4,-1.8c.2,-.6,.5,-1,.9,-1.4c.4,-.4,.9,-.7,1.4,-1c.5,-.2,1.1,-.3,1.7,-.3c.2,0,.5,0,.8,.1c.3,.1,.5,.2,.8,.3c.2,.1,.5,.3,.7,.4c.2,.2,.5,.4,.7,.6l.8,-1h.5Z" class="g1_20"/>
<path d="M526.6,55.5l-2.1,-.1V46.9h.5l.7,.9c.4,-.4,.8,-.6,1.2,-.8c.5,-.1,.9,-.2,1.4,-.2c.5,0,1,.1,1.5,.3c.4,.2,.8,.5,1.2,.8c.3,.3,.6,.8,.8,1.2c.2,.5,.3,1,.3,1.5v4.9h-2.2V50.6c0,-.2,0,-.4,-.1,-.6c-.1,-.2,-.2,-.4,-.4,-.6c-.1,-.1,-.3,-.2,-.5,-.3c-.2,-.1,-.4,-.1,-.6,-.1c-.2,0,-.4,0,-.6,.1c-.2,.1,-.4,.2,-.6,.3c-.1,.2,-.2,.4,-.3,.6c-.1,.2,-.2,.4,-.2,.6Z" class="g1_20"/>
<path d="M535.8,55.5h-2.2V46.9h2.2v8.6Zm.4,-10.9c0,.2,0,.4,-.1,.6c-.1,.2,-.2,.3,-.3,.4c-.2,.2,-.3,.3,-.5,.4c-.2,0,-.4,.1,-.6,.1c-.2,0,-.4,-.1,-.5,-.1c-.2,-.1,-.4,-.2,-.5,-.4c-.1,-.1,-.2,-.2,-.3,-.4c-.1,-.2,-.1,-.4,-.1,-.6c0,-.2,0,-.4,.1,-.5c.1,-.2,.2,-.4,.3,-.5c.1,-.1,.3,-.2,.5,-.3c.1,-.1,.3,-.1,.5,-.1c.2,0,.4,0,.6,.1c.2,.1,.3,.2,.5,.3c.1,.1,.2,.3,.3,.5c.1,.1,.1,.3,.1,.5Z" class="g1_20"/>
<path d="M542.1,55.5h-4.9V53.3h4.9c.2,0,.3,-.1,.4,-.2c.1,-.1,.2,-.2,.2,-.3c0,-.2,-.1,-.3,-.2,-.3c-.1,-.1,-.2,-.1,-.4,-.1h-2.2c-.4,0,-.7,-.1,-1.1,-.2c-.3,-.2,-.6,-.4,-.8,-.6c-.3,-.3,-.5,-.6,-.6,-.9c-.1,-.3,-.2,-.7,-.2,-1c0,-.4,.1,-.8,.2,-1.1c.1,-.3,.3,-.6,.6,-.9c.2,-.2,.5,-.4,.8,-.5c.4,-.2,.7,-.2,1.1,-.2h4.4v2.1h-4.4c-.2,0,-.3,.1,-.4,.2c-.1,.1,-.2,.2,-.2,.4c0,.1,.1,.2,.2,.4c.1,.1,.2,.1,.4,.1h2.2c.4,0,.8,.1,1.1,.2c.3,.1,.6,.3,.9,.5c.2,.2,.4,.5,.5,.8c.2,.3,.3,.7,.3,1.1c0,.3,-.1,.7,-.3,1c-.1,.3,-.3,.6,-.5,.9c-.3,.2,-.6,.4,-.9,.5c-.3,.2,-.7,.3,-1.1,.3Z" class="g1_20"/>
<path d="M548.2,55.5H546V43.6h2.2v3.7c.2,-.2,.5,-.3,.8,-.4c.3,-.1,.5,-.1,.8,-.1c.6,0,1,.1,1.5,.3c.5,.2,.9,.4,1.2,.8c.4,.3,.6,.7,.8,1.2c.2,.5,.3,1,.3,1.5v4.9h-2.2V50.6c0,-.2,0,-.4,-.1,-.6c-.1,-.2,-.2,-.4,-.3,-.6c-.2,-.1,-.4,-.2,-.5,-.3c-.2,-.1,-.5,-.1,-.7,-.1c-.2,0,-.4,0,-.6,.1c-.2,.1,-.4,.2,-.5,.3c-.2,.2,-.3,.4,-.4,.6c-.1,.2,-.1,.4,-.1,.6Z" class="g1_20"/>
<path d="M538.2,68.2h-2.3V56.8h2.3v4.6h4.6V56.8H545V68.2h-2.2V63.7h-4.6Z" class="g1_20"/>
<path d="M553.1,67.3c-.2,.1,-.4,.3,-.6,.4c-.2,.1,-.4,.3,-.6,.4c-.2,.1,-.5,.2,-.7,.2c-.2,.1,-.5,.1,-.7,.1c-.5,0,-1,-.1,-1.5,-.3c-.4,-.2,-.8,-.4,-1.2,-.8c-.3,-.3,-.6,-.7,-.8,-1.2c-.2,-.5,-.3,-1.1,-.3,-1.7V59.7h2.2v4.7c0,.3,0,.6,.1,.8c.1,.2,.2,.4,.3,.6c.2,.1,.4,.2,.6,.3c.2,.1,.4,.1,.6,.1c.2,0,.4,0,.6,-.1c.2,-.1,.4,-.2,.6,-.4c.1,-.2,.2,-.4,.3,-.6c.1,-.2,.1,-.4,.1,-.7V59.7h2.2v8.6h-.5Z" class="g1_20"/>
<path d="M498.2,42.4h-1.5V36.5h-2.2V35h5.9v1.5h-2.2Z" class="g1_20"/>
<path d="M510,38.1c0,0,-.1,0,-.2,0c0,0,-.1,0,-.2,0c-.2,0,-.4,0,-.5,.1c-.2,.1,-.3,.2,-.5,.3c-.1,.1,-.2,.3,-.3,.5c0,.2,-.1,.4,-.1,.6q0,.1,0,.2q0,.1,.1,.2q0,.1,0,.2c0,0,0,.1,.1,.1Zm-.7,3c0,0,.1,0,.2,0c0,0,.1,0,.1,0c.2,0,.3,0,.4,0c.2,-.1,.3,-.1,.4,-.2c.1,-.1,.2,-.2,.3,-.3c.1,-.1,.2,-.2,.2,-.3l1.1,1c-.2,.2,-.3,.4,-.5,.6c-.2,.1,-.4,.2,-.6,.3c-.2,.1,-.4,.2,-.6,.3c-.2,0,-.4,.1,-.7,.1c-.4,0,-.7,-.1,-1.1,-.3c-.3,-.1,-.6,-.3,-.9,-.6c-.2,-.2,-.4,-.5,-.6,-.9c-.1,-.4,-.2,-.8,-.2,-1.2c0,-.4,.1,-.8,.2,-1.2c.2,-.4,.4,-.7,.6,-.9c.3,-.3,.6,-.5,.9,-.6c.4,-.2,.7,-.2,1.1,-.2c.3,0,.5,0,.7,0c.2,.1,.4,.2,.6,.3c.2,.1,.4,.2,.6,.4c.2,.1,.3,.3,.5,.5Z" class="g1_20"/>
<path d="M501.1,38v4.5h1.4V39.3c0,-.2,0,-.3,.1,-.4c0,-.2,.1,-.3,.2,-.4c.1,-.1,.2,-.1,.3,-.2c.2,-.1,.3,-.1,.5,-.1c.1,0,.3,0,.4,.1c.1,.1,.2,.1,.3,.2c.1,.1,.2,.2,.3,.4c0,.1,0,.2,0,.4v3.2h1.5V39.3c0,-.4,-.1,-.7,-.2,-1c-.2,-.3,-.3,-.6,-.6,-.8c-.2,-.2,-.5,-.4,-.8,-.5c-.3,-.2,-.6,-.2,-.9,-.2c-.2,0,-.4,0,-.6,.1c-.2,0,-.3,.1,-.5,.2V35h-1.4Z" class="g1_20"/>
<path clip-path="url(#c0_20)" d="M-853,1233.1H0m0,0H853.1" class="ga_20"/>
<image clip-path="url(#c2_20)" preserveAspectRatio="none" x="33" y="644" width="428" height="621" xlink:href="img/2.png"/>
</svg>