<?xml version="1.0" encoding="UTF-8" standalone="no"?>
<!DOCTYPE svg PUBLIC "-//W3C//DTD SVG 1.1//EN"
"http://www.w3.org/Graphics/SVG/1.1/DTD/svg11.dtd">
<svg viewBox="0 0 909 1286" version="1.1" xmlns="http://www.w3.org/2000/svg" xmlns:xlink="http://www.w3.org/1999/xlink">
<defs>
<clipPath id="c0_11"><path d="M0,1286.2V0H909.4V1286.2Z"/></clipPath>
<clipPath id="c1_11"><path d="M611.3,68.5V35h69.5V68.5Z"/></clipPath>
<clipPath id="c2_11"><path d="M490.3,1286.2V678.1h326v608.1Z"/></clipPath>
<style type="text/css"><![CDATA[
.g0_11{
fill: #E9E9E1;
}
.g1_11{
fill: none;
stroke: #FFFFFF;
stroke-width: 1.527;
stroke-linecap: butt;
stroke-linejoin: miter;
}
.g2_11{
fill: none;
stroke: #000000;
stroke-width: 1.527;
stroke-linecap: round;
stroke-linejoin: round;
stroke-dasharray: 0,5;
}
.g3_11{
fill: none;
stroke: #000000;
stroke-width: 1.527;
stroke-linecap: round;
stroke-linejoin: round;
}
.g4_11{
fill: none;
stroke: #597642;
stroke-width: 3.611;
stroke-linecap: butt;
stroke-linejoin: miter;
}
.g5_11{
fill: #FFFFFF;
}
.g6_11{
fill: #597642;
}
.g7_11{
fill: none;
stroke: #FFEA9F;
stroke-width: 18.333;
stroke-linecap: butt;
stroke-linejoin: miter;
}
.g8_11{
fill: #C6C8B3;
}
.g9_11{
}
.ga_11{
fill: none;
stroke: #000000;
stroke-width: 0.763;
stroke-linecap: butt;
stroke-linejoin: miter;
}
]]></style>
</defs>
<path d="M57.1,693.4h78.6V715H57.1V693.4Zm78.6,0H390.2V715H135.7V693.4ZM57.1,715h78.6v22H57.1V715Zm78.6,0H390.2v22H135.7V715Z" class="g0_11"/>
<path d="M56.3,693.4h79.4M57.1,714.3V694.1m78.6,-.7H391M135.7,714.3V694.1m254.5,20.2V694.1M56.3,715h79.4M57.1,736.2V715.8M56.3,737h79.4m0,-22H391M135.7,736.2V715.8m254.5,20.4V715.8M135.7,737H391" class="g1_11"/>
<path d="M92,1150.2H447.3" class="g2_11"/>
<path d="M87.4,1150.2v0m362.2,0v0" class="g3_11"/>
<path d="M92,1175.4H447.3" class="g2_11"/>
<path d="M87.4,1175.4v0m362.2,0v0" class="g3_11"/>
<path d="M56.3,138.5H822.8" class="g4_11"/>
<path d="M747.5,149.8h75.3V123.5H747.5v26.3Z" class="g5_11"/>
<path d="M56.3,207.6h50.9v23.9H56.3V207.6Zm50.9,0H205v23.9H107.2V207.6Zm97.8,0H326.2v23.9H205V207.6Zm121.2,0H428.7v23.9H326.2V207.6Z" class="g6_11"/>
<path d="M56.3,231.5h50.9v26.4H56.3V231.5Zm50.9,0H205v26.4H107.2V231.5Zm97.8,0H326.2v26.4H205V231.5Zm121.2,0H428.7v26.4H326.2V231.5ZM56.3,257.9h50.9v26.4H56.3V257.9Zm50.9,0H205v26.4H107.2V257.9Zm97.8,0H326.2v26.4H205V257.9Zm121.2,0H428.7v26.4H326.2V257.9ZM56.3,284.3h50.9v21.6H56.3V284.3Zm50.9,0H205v21.6H107.2V284.3Zm97.8,0H326.2v21.6H205V284.3Zm121.2,0H428.7v21.6H326.2V284.3ZM56.3,305.9h50.9v25.3H56.3V305.9Zm50.9,0H205v25.3H107.2V305.9Zm97.8,0H326.2v25.3H205V305.9Zm121.2,0H428.7v25.3H326.2V305.9ZM56.3,331.2h50.9v25.2H56.3V331.2Zm50.9,0H205v25.2H107.2V331.2Zm97.8,0H326.2v25.2H205V331.2Zm121.2,0H428.7v25.2H326.2V331.2ZM56.3,356.4h50.9v25.2H56.3V356.4Zm50.9,0H205v25.2H107.2V356.4Zm97.8,0H326.2v25.2H205V356.4Zm121.2,0H428.7v25.2H326.2V356.4ZM56.3,381.6h50.9v21.6H56.3V381.6Zm50.9,0H205v21.6H107.2V381.6Zm97.8,0H326.2v21.6H205V381.6Zm121.2,0H428.7v21.6H326.2V381.6ZM56.3,403.2h50.9v21.7H56.3V403.2Zm50.9,0H205v21.7H107.2V403.2Zm97.8,0H326.2v21.7H205V403.2Zm121.2,0H428.7v21.7H326.2V403.2ZM56.3,424.9h50.9v25.2H56.3V424.9Zm50.9,0H205v25.2H107.2V424.9Zm97.8,0H326.2v25.2H205V424.9Zm121.2,0H428.7v25.2H326.2V424.9ZM56.3,450.1h50.9v25.2H56.3V450.1Zm50.9,0H205v25.2H107.2V450.1Zm97.8,0H326.2v25.2H205V450.1Zm121.2,0H428.7v25.2H326.2V450.1ZM56.3,475.3h50.9v25.2H56.3V475.3Zm50.9,0H205v25.2H107.2V475.3Zm97.8,0H326.2v25.2H205V475.3Zm121.2,0H428.7v25.2H326.2V475.3ZM56.3,500.5h50.9v25.2H56.3V500.5Zm50.9,0H205v25.2H107.2V500.5Zm97.8,0H326.2v25.2H205V500.5Zm121.2,0H428.7v25.2H326.2V500.5ZM56.3,525.7h50.9v25.2H56.3V525.7Zm50.9,0H205v25.2H107.2V525.7Zm97.8,0H326.2v25.2H205V525.7Zm121.2,0H428.7v25.2H326.2V525.7ZM56.3,550.9h50.9v25.2H56.3V550.9Zm50.9,0H205v25.2H107.2V550.9Zm97.8,0H326.2v25.2H205V550.9Zm121.2,0H428.7v25.2H326.2V550.9Z" class="g0_11"/>
<path d="M107.2,230.8V207.5M205,230.8V207.5m121.2,23.3V207.5m-269.9,24h50.9m0,0H205m-97.8,25.7V232.3m97.8,-.8H326.2M205,257.2V232.3m121.2,-.8H428.7M326.2,257.2V232.3M56.3,257.9h50.9m0,0H205m-97.8,25.6V258.7m97.8,-.8H326.2M205,283.5V258.7m121.2,-.8H428.7M326.2,283.5V258.7M56.3,284.3h50.9m0,0H205m-97.8,20.9V285.1m97.8,-.8H326.2M205,305.2V285.1m121.2,-.8H428.7M326.2,305.2V285.1M56.3,305.9h50.9m0,0H205m-97.8,24.5V306.7m97.8,-.8H326.2M205,330.4V306.7m121.2,-.8H428.7M326.2,330.4V306.7M56.3,331.2h50.9m0,0H205m-97.8,24.4V331.9m97.8,-.7H326.2M205,355.6V331.9m121.2,-.7H428.7M326.2,355.6V331.9M56.3,356.4h50.9m0,0H205m-97.8,24.4V357.1m97.8,-.7H326.2M205,380.8V357.1m121.2,-.7H428.7M326.2,380.8V357.1M56.3,381.6h50.9m0,0H205m-97.8,20.9V382.3m97.8,-.7H326.2M205,402.5V382.3m121.2,-.7H428.7M326.2,402.5V382.3M56.3,403.2h50.9m0,0H205m-97.8,20.9V404m97.8,-.8H326.2M205,424.1V404m121.2,-.8H428.7M326.2,424.1V404M56.3,424.9h50.9m0,0H205m-97.8,24.4V425.6m97.8,-.7H326.2M205,449.3V425.6m121.2,-.7H428.7M326.2,449.3V425.6M56.3,450.1h50.9m0,0H205m-97.8,24.4V450.9m97.8,-.8H326.2M205,474.5V450.9m121.2,-.8H428.7M326.2,474.5V450.9M56.3,475.3h50.9m0,0H205m-97.8,24.4V476.1m97.8,-.8H326.2M205,499.7V476.1m121.2,-.8H428.7M326.2,499.7V476.1M56.3,500.5h50.9m0,0H205M107.2,525V501.3m97.8,-.8H326.2M205,525V501.3m121.2,-.8H428.7M326.2,525V501.3M56.3,525.7h50.9m0,0H205m-97.8,24.5V526.5m97.8,-.8H326.2M205,550.2V526.5m121.2,-.8H428.7M326.2,550.2V526.5M56.3,550.9h50.9m0,0H205m-97.8,25.2V551.7m97.8,-.8H326.2M205,576.1V551.7m121.2,-.8H428.7M326.2,576.1V551.7" class="g1_11"/>
<path d="M117,255.1h-2.4" class="g2_11"/>
<path d="M112.3,255.1v0m4.7,0v0" class="g3_11"/>
<path d="M123,255.1h74.6" class="g2_11"/>
<path d="M118.5,255.1v0m81.4,0v0" class="g3_11"/>
<path d="M336,253.3h85.3" class="g2_11"/>
<path d="M331.3,253.3v0m92.3,0v0" class="g3_11"/>
<path d="M116.6,281.5h6.5" class="g2_11"/>
<path d="M112.3,281.5v0m13,0v0" class="g3_11"/>
<path d="M131.4,281.5h66.2" class="g2_11"/>
<path d="M126.8,281.5v0m73.1,0v0" class="g3_11"/>
<path d="M336,278.7h85.3" class="g2_11"/>
<path d="M331.3,278.7v0m92.3,0v0" class="g3_11"/>
<path d="M116.9,302.8h80.7" class="g2_11"/>
<path d="M112.3,302.8v0m87.6,0v0" class="g3_11"/>
<path d="M336,302.8h85.3" class="g2_11"/>
<path d="M331.3,302.8v0m92.3,0v0" class="g3_11"/>
<path d="M116.9,326.2h80.7" class="g2_11"/>
<path d="M112.3,326.2v0m87.6,0v0" class="g3_11"/>
<path d="M338.1,326.2h81.1" class="g2_11"/>
<path d="M333.5,326.2v0m88,0v0" class="g3_11"/>
<path d="M116.9,351.4h80.7" class="g2_11"/>
<path d="M112.3,351.4v0m87.6,0v0" class="g3_11"/>
<path d="M338.1,351.4h81.1" class="g2_11"/>
<path d="M333.5,351.4v0m88,0v0" class="g3_11"/>
<path d="M116.9,376.6h80.7" class="g2_11"/>
<path d="M112.3,376.6v0m87.6,0v0" class="g3_11"/>
<path d="M338.1,376.6h81.1" class="g2_11"/>
<path d="M333.5,376.6v0m88,0v0" class="g3_11"/>
<path d="M116.9,400h80.7" class="g2_11"/>
<path d="M112.3,400v0m87.6,0v0" class="g3_11"/>
<path d="M275.8,393.3h45.6" class="g7_11"/>
<path d="M336,400h85.3" class="g2_11"/>
<path d="M331.3,400v0m92.3,0v0" class="g3_11"/>
<path d="M116.9,421.7h80.7" class="g2_11"/>
<path d="M112.3,421.7v0m87.6,0v0" class="g3_11"/>
<path d="M336,421.7h85.3" class="g2_11"/>
<path d="M331.3,421.7v0m92.3,0v0" class="g3_11"/>
<path d="M116.9,445.1h80.7" class="g2_11"/>
<path d="M112.3,445.1v0m87.6,0v0" class="g3_11"/>
<path d="M338.1,445.1h81.1" class="g2_11"/>
<path d="M333.5,445.1v0m88,0v0" class="g3_11"/>
<path d="M116.9,470.3h80.7" class="g2_11"/>
<path d="M112.3,470.3v0m87.6,0v0" class="g3_11"/>
<path d="M338.1,470.3h81.1" class="g2_11"/>
<path d="M333.5,470.3v0m88,0v0" class="g3_11"/>
<path d="M116.9,495.5h80.7" class="g2_11"/>
<path d="M112.3,495.5v0m87.6,0v0" class="g3_11"/>
<path d="M338.1,495.5h81.1" class="g2_11"/>
<path d="M333.5,495.5v0m88,0v0" class="g3_11"/>
<path d="M116.9,520.7h80.7" class="g2_11"/>
<path d="M112.3,520.7v0m87.6,0v0" class="g3_11"/>
<path d="M338.1,520.7h81.1" class="g2_11"/>
<path d="M333.5,520.7v0m88,0v0" class="g3_11"/>
<path d="M116.9,546h80.7" class="g2_11"/>
<path d="M112.3,546v0m87.6,0v0" class="g3_11"/>
<path d="M338.1,546h81.1" class="g2_11"/>
<path d="M333.5,546v0m88,0v0" class="g3_11"/>
<path d="M116.9,571.2h80.7" class="g2_11"/>
<path d="M112.3,571.2v0m87.6,0v0" class="g3_11"/>
<path d="M338.1,571.2h81.1" class="g2_11"/>
<path d="M333.5,571.2v0m88,0v0" class="g3_11"/>
<path d="M448.7,207.6h50.9v23.9H448.7V207.6Zm50.9,0h97.8v23.9H499.6V207.6Zm97.8,0H718.7v23.9H597.4V207.6Zm121.3,0H821.2v23.9H718.7V207.6Z" class="g6_11"/>
<path d="M448.7,231.5h50.9v25.3H448.7V231.5Zm50.9,0h97.8v25.3H499.6V231.5Zm97.8,0H718.7v25.3H597.4V231.5Zm121.3,0H821.2v25.3H718.7V231.5Zm-270,25.3h50.9V282H448.7V256.8Zm50.9,0h97.8V282H499.6V256.8Zm97.8,0H718.7V282H597.4V256.8Zm121.3,0H821.2V282H718.7V256.8ZM448.7,282h50.9v25.2H448.7V282Zm50.9,0h97.8v25.2H499.6V282Zm97.8,0H718.7v25.2H597.4V282Zm121.3,0H821.2v25.2H718.7V282Zm-270,25.2h50.9v25.2H448.7V307.2Zm50.9,0h97.8v25.2H499.6V307.2Zm97.8,0H718.7v25.2H597.4V307.2Zm121.3,0H821.2v25.2H718.7V307.2Zm-270,25.2h50.9v36.4H448.7V332.4Zm50.9,0h97.8v36.4H499.6V332.4Zm97.8,0H718.7v36.4H597.4V332.4Zm121.3,0H821.2v36.4H718.7V332.4Zm-270,36.4h50.9v25.3H448.7V368.8Zm50.9,0h97.8v25.3H499.6V368.8Zm97.8,0H718.7v25.3H597.4V368.8Zm121.3,0H821.2v25.3H718.7V368.8Zm-270,25.3h50.9v25.2H448.7V394.1Zm50.9,0h97.8v25.2H499.6V394.1Zm97.8,0H718.7v25.2H597.4V394.1Zm121.3,0H821.2v25.2H718.7V394.1Zm-270,25.2h50.9v25.2H448.7V419.3Zm50.9,0h97.8v25.2H499.6V419.3Zm97.8,0H718.7v25.2H597.4V419.3Zm121.3,0H821.2v25.2H718.7V419.3Zm-270,25.2h50.9v21.6H448.7V444.5Zm50.9,0h97.8v21.6H499.6V444.5Zm97.8,0H718.7v21.6H597.4V444.5Zm121.3,0H821.2v21.6H718.7V444.5Zm-270,21.6h50.9v25.2H448.7V466.1Zm50.9,0h97.8v25.2H499.6V466.1Zm97.8,0H718.7v25.2H597.4V466.1Zm121.3,0H821.2v25.2H718.7V466.1Zm-270,25.2h50.9V513H448.7V491.3Zm50.9,0h97.8V513H499.6V491.3Zm97.8,0H718.7V513H597.4V491.3Zm121.3,0H821.2V513H718.7V491.3ZM448.7,513h50.9v21.6H448.7V513Zm50.9,0h97.8v21.6H499.6V513Zm97.8,0H718.7v21.6H597.4V513Zm121.3,0H821.2v21.6H718.7V513Zm-270,21.6h50.9v21.7H448.7V534.6Zm50.9,0h97.8v21.7H499.6V534.6Zm97.8,0H718.7v21.7H597.4V534.6Zm121.3,0H821.2v21.7H718.7V534.6Z" class="g0_11"/>
<path d="M499.6,230.8V207.5m97.8,23.3V207.5m121.3,23.3V207.5m-270,24h50.9m0,0h97.8M499.6,256V232.3m97.8,-.8H718.7M597.4,256V232.3m121.3,-.8H821.2M718.7,256V232.3m-270,24.5h50.9m0,0h97.8m-97.8,24.4V257.5m97.8,-.7H718.7M597.4,281.2V257.5m121.3,-.7H821.2M718.7,281.2V257.5M448.7,282h50.9m0,0h97.8m-97.8,24.4V282.7m97.8,-.7H718.7M597.4,306.4V282.7M718.7,282H821.2M718.7,306.4V282.7m-270,24.5h50.9m0,0h97.8m-97.8,24.4V307.9m97.8,-.7H718.7M597.4,331.6V307.9m121.3,-.7H821.2M718.7,331.6V307.9m-270,24.5h50.9m0,0h97.8m-97.8,35.7v-35m97.8,-.7H718.7M597.4,368.1v-35m121.3,-.7H821.2M718.7,368.1v-35m-270,35.7h50.9m0,0h97.8m-97.8,24.5V369.6m97.8,-.8H718.7M597.4,393.3V369.6m121.3,-.8H821.2M718.7,393.3V369.6m-270,24.5h50.9m0,0h97.8m-97.8,24.4V394.8m97.8,-.7H718.7M597.4,418.5V394.8m121.3,-.7H821.2M718.7,418.5V394.8m-270,24.5h50.9m0,0h97.8m-97.8,24.4V420m97.8,-.7H718.7M597.4,443.7V420m121.3,-.7H821.2M718.7,443.7V420m-270,24.5h50.9m0,0h97.8m-97.8,20.9V445.2m97.8,-.7H718.7M597.4,465.4V445.2m121.3,-.7H821.2M718.7,465.4V445.2m-270,20.9h50.9m0,0h97.8m-97.8,24.5V466.9m97.8,-.8H718.7M597.4,490.6V466.9m121.3,-.8H821.2M718.7,490.6V466.9m-270,24.4h50.9m0,0h97.8m-97.8,20.9V492.1m97.8,-.8H718.7M597.4,512.2V492.1m121.3,-.8H821.2M718.7,512.2V492.1M448.7,513h50.9m0,0h97.8m-97.8,20.9V513.8m97.8,-.8H718.7M597.4,533.9V513.8M718.7,513H821.2M718.7,533.9V513.8m-270,20.8h50.9m0,0h97.8m-97.8,21.7V535.4m97.8,-.8H718.7M597.4,556.3V535.4m121.3,-.8H821.2M718.7,556.3V535.4" class="g1_11"/>
<path d="M509.3,251.8H590" class="g2_11"/>
<path d="M504.7,251.8v0m87.6,0v0" class="g3_11"/>
<path d="M730.6,251.8h81" class="g2_11"/>
<path d="M725.9,251.8v0m88,0v0" class="g3_11"/>
<path d="M509.3,277H590" class="g2_11"/>
<path d="M504.7,277v0m87.6,0v0" class="g3_11"/>
<path d="M730.6,277h81" class="g2_11"/>
<path d="M725.9,277v0m88,0v0" class="g3_11"/>
<path d="M509.3,302.2H590" class="g2_11"/>
<path d="M504.7,302.2v0m87.6,0v0" class="g3_11"/>
<path d="M730.6,302.2h81" class="g2_11"/>
<path d="M725.9,302.2v0m88,0v0" class="g3_11"/>
<path d="M509.3,327.4H590" class="g2_11"/>
<path d="M504.7,327.4v0m87.6,0v0" class="g3_11"/>
<path d="M730.6,327.4h81" class="g2_11"/>
<path d="M725.9,327.4v0m88,0v0" class="g3_11"/>
<path d="M509.3,358.2H590" class="g2_11"/>
<path d="M504.7,358.2v0m87.6,0v0" class="g3_11"/>
<path d="M728.4,358.2h85.4" class="g2_11"/>
<path d="M723.8,358.2v0m92.3,0v0" class="g3_11"/>
<path d="M509.3,389.1H590" class="g2_11"/>
<path d="M504.7,389.1v0m87.6,0v0" class="g3_11"/>
<path d="M730.6,389.1h81" class="g2_11"/>
<path d="M725.9,389.1v0m88,0v0" class="g3_11"/>
<path d="M509.3,414.3H590" class="g2_11"/>
<path d="M504.7,414.3v0m87.6,0v0" class="g3_11"/>
<path d="M730.6,414.3h81" class="g2_11"/>
<path d="M725.9,414.3v0m88,0v0" class="g3_11"/>
<path d="M509.3,439.5H590" class="g2_11"/>
<path d="M504.7,439.5v0m87.6,0v0" class="g3_11"/>
<path d="M730.6,439.5h81" class="g2_11"/>
<path d="M725.9,439.5v0m88,0v0" class="g3_11"/>
<path d="M509.3,462.9H590" class="g2_11"/>
<path d="M504.7,462.9v0m87.6,0v0" class="g3_11"/>
<path d="M728.4,462.9h85.4" class="g2_11"/>
<path d="M723.8,462.9v0m92.3,0v0" class="g3_11"/>
<path d="M509.3,486.4H590" class="g2_11"/>
<path d="M504.7,486.4v0m87.6,0v0" class="g3_11"/>
<path d="M730.6,486.4h81" class="g2_11"/>
<path d="M725.9,486.4v0m88,0v0" class="g3_11"/>
<path d="M509.3,509.8H590" class="g2_11"/>
<path d="M504.7,509.8v0m87.6,0v0" class="g3_11"/>
<path d="M728.4,509.8h85.4" class="g2_11"/>
<path d="M723.8,509.8v0m92.3,0v0" class="g3_11"/>
<path d="M509.3,531.5H590" class="g2_11"/>
<path d="M504.7,531.5v0m87.6,0v0" class="g3_11"/>
<path d="M728.4,531.5h85.4" class="g2_11"/>
<path d="M723.8,531.5v0m92.3,0v0" class="g3_11"/>
<path d="M509.3,553.1H590" class="g2_11"/>
<path d="M504.7,553.1v0m87.6,0v0" class="g3_11"/>
<path d="M728.4,553.1h85.4" class="g2_11"/>
<path d="M723.8,553.1v0m92.3,0v0" class="g3_11"/>
<path d="M56.3,89.9H909.4V56.3H56.3V89.9Z" class="g6_11"/>
<path d="M412.4,761.2h298V694.9h-298v66.3Z" class="g8_11"/>
<path d="M412.3,692.7h76.9v-20H412.3v20Z" class="g5_11"/>
<image clip-path="url(#c0_11)" preserveAspectRatio="none" x="469" y="784" width="367" height="433" style="mix-blend-mode: multiply;" xlink:href="img/1.png"/>
<image clip-path="url(#c0_11)" preserveAspectRatio="none" x="597" y="-24" width="240" height="114" xlink:href="img/2.png"/>
<path d="M600.5,73.1H822.8V0H600.5V73.1Z" class="g8_11"/>
<path clip-path="url(#c1_11)" d="M678.5,65c-.1,.3,-.3,.6,-.4,.8c-.2,.2,-.5,.3,-.7,.4c-.3,.1,-.5,.2,-.8,.2c-.3,0,-.6,-.1,-.8,-.2c-.3,-.1,-.5,-.3,-.7,-.5c-.2,-.2,-.3,-.4,-.4,-.7c-.1,-.2,-.2,-.5,-.2,-.8c0,-.3,.1,-.6,.2,-.9c.1,-.2,.2,-.5,.4,-.7c.2,-.2,.4,-.4,.7,-.5c.2,-.1,.5,-.2,.8,-.2c.3,0,.6,.1,.8,.2c.3,.1,.5,.3,.7,.5c.2,.2,.3,.4,.4,.7c.1,.3,.2,.5,.2,.9c0,.3,-.1,.6,-.2,.8m2,-2.6c-.3,-.5,-.6,-1,-.9,-1.3c-.4,-.4,-.9,-.7,-1.4,-1c-.5,-.2,-1,-.3,-1.6,-.3c-.2,0,-.4,0,-.6,.1c-.2,0,-.4,.1,-.6,.1c-.1,.1,-.3,.2,-.5,.3c-.1,.1,-.3,.2,-.4,.4v-20c1.1,-.4,1.9,-1.5,1.9,-2.7c.1,-1.7,-1.2,-3,-2.9,-3c-1.6,0,-3,1.3,-3,2.9c0,1.3,.8,2.4,1.9,2.8V64.1c0,.7,.1,1.3,.3,1.8c.2,.5,.5,1,.9,1.4c.4,.4,.8,.7,1.3,.9c.6,.2,1.1,.3,1.7,.3c.6,0,1.1,-.1,1.6,-.3c.5,-.2,1,-.5,1.3,-.9c.4,-.4,.7,-.8,.9,-1.4c.3,-.5,.4,-1.1,.4,-1.7c0,-.7,-.1,-1.2,-.3,-1.8Z" class="g9_11"/>
<path d="M627.9,52.4c-.1,.3,-.2,.5,-.4,.7c-.3,.2,-.5,.4,-.8,.5c-.2,.1,-.5,.2,-.8,.2c-.3,0,-.6,-.1,-.9,-.2c-.3,-.1,-.5,-.3,-.7,-.5c-.2,-.2,-.4,-.4,-.5,-.7c-.1,-.3,-.2,-.7,-.2,-1c0,-.4,.1,-.7,.2,-1c.1,-.3,.3,-.6,.5,-.8c.2,-.2,.4,-.3,.7,-.4c.3,-.1,.6,-.2,.9,-.2c.3,0,.6,.1,.8,.2c.3,.1,.5,.2,.8,.4c.2,.2,.3,.5,.4,.8c.1,.3,.2,.6,.2,1c0,.3,-.1,.7,-.2,1M630,49.5c-.2,-.6,-.6,-1.1,-1,-1.5c-.4,-.4,-.8,-.7,-1.4,-.9c-.5,-.2,-1.1,-.3,-1.7,-.3c-.3,0,-.6,0,-.9,.1c-.2,0,-.5,.1,-.8,.3c-.2,.1,-.5,.2,-.7,.4c-.3,.2,-.5,.3,-.7,.5l-.9,-1h-.5V62.8h-.9v5.7h4V62.8h-.9V55.3c.2,0,.4,.1,.6,.2c.1,.1,.3,.2,.5,.3c.2,.1,.4,.1,.6,.2c.2,0,.4,0,.6,0c.6,0,1.2,-.1,1.7,-.3c.6,-.2,1,-.5,1.4,-.9c.4,-.4,.8,-.9,1,-1.5c.2,-.5,.3,-1.2,.3,-1.9c0,-.7,-.1,-1.3,-.3,-1.9Z" class="g9_11"/>
<path clip-path="url(#c1_11)" d="M611.3,47.5c0,-.5,.1,-.9,.3,-1.4c.2,-.4,.4,-.7,.8,-1c.3,-.4,.6,-.6,1,-.8c.5,-.2,.9,-.2,1.4,-.2H620v2.2h-5.2c-.2,0,-.3,.1,-.5,.1c-.1,.1,-.2,.2,-.3,.3c-.1,.1,-.2,.2,-.3,.3c0,.2,-.1,.3,-.1,.5c0,.1,.1,.3,.1,.4c.1,.2,.2,.3,.3,.4c.1,.1,.2,.2,.3,.2c.2,.1,.3,.1,.5,.1H617c.5,0,1,.1,1.4,.3c.4,.2,.8,.4,1.1,.7c.3,.3,.5,.7,.7,1.1c.2,.4,.3,.9,.3,1.3c0,.5,-.1,1,-.3,1.4c-.2,.4,-.4,.7,-.7,1.1c-.3,.3,-.7,.5,-1.1,.7c-.4,.2,-.9,.3,-1.4,.3h-5V53.2h5c.2,0,.4,-.1,.5,-.1c.1,-.1,.3,-.1,.4,-.3c.1,-.1,.1,-.2,.2,-.3c.1,-.2,.1,-.3,.1,-.5c0,-.1,0,-.3,-.1,-.4c-.1,-.1,-.1,-.3,-.2,-.4c-.1,-.1,-.3,-.2,-.4,-.2c-.1,-.1,-.3,-.1,-.5,-.1h-2.2c-.5,0,-.9,-.1,-1.4,-.3c-.4,-.1,-.7,-.4,-1,-.7c-.4,-.3,-.6,-.7,-.8,-1.1c-.2,-.4,-.3,-.9,-.3,-1.3Z" class="g9_11"/>
<path d="M637.6,51.1c0,-.3,0,-.6,-.1,-.8c-.2,-.3,-.3,-.6,-.5,-.8c-.2,-.2,-.4,-.4,-.7,-.5c-.3,-.1,-.5,-.2,-.8,-.2c-.3,0,-.6,.1,-.9,.2c-.2,.1,-.5,.2,-.7,.4c-.1,.2,-.3,.4,-.4,.7c-.1,.3,-.2,.7,-.2,1c0,.4,.1,.7,.2,1c.1,.3,.3,.5,.4,.7c.2,.2,.5,.4,.7,.5c.3,.1,.6,.1,.9,.1c.3,0,.5,0,.8,-.2c.3,-.1,.5,-.3,.7,-.5c.2,-.2,.3,-.4,.5,-.7c.1,-.3,.1,-.6,.1,-.9m2.2,4.4h-.5l-.8,-1.2c-.3,.2,-.5,.3,-.7,.5c-.2,.2,-.5,.3,-.7,.4c-.3,.2,-.5,.2,-.8,.3c-.3,.1,-.6,.1,-.8,.1c-.6,0,-1.2,-.1,-1.7,-.3c-.5,-.2,-1,-.5,-1.4,-.9c-.4,-.3,-.7,-.8,-.9,-1.4c-.3,-.5,-.4,-1.2,-.4,-1.9c0,-.6,.1,-1.2,.4,-1.8c.2,-.6,.5,-1,.9,-1.4c.4,-.4,.9,-.7,1.4,-1c.5,-.2,1.1,-.3,1.7,-.3c.2,0,.5,0,.8,.1c.3,.1,.5,.2,.8,.3c.2,.1,.5,.3,.7,.4c.2,.2,.5,.4,.7,.6l.8,-1h.5Z" class="g9_11"/>
<path d="M643.6,55.5l-2.1,-.1V46.9h.5l.7,.9c.4,-.4,.8,-.6,1.2,-.8c.5,-.1,.9,-.2,1.4,-.2c.5,0,1,.1,1.5,.3c.4,.2,.8,.5,1.2,.8c.3,.3,.6,.8,.8,1.2c.2,.5,.3,1,.3,1.5v4.9h-2.2V50.6c0,-.2,0,-.4,-.1,-.6c-.1,-.2,-.2,-.4,-.4,-.6c-.1,-.1,-.3,-.2,-.5,-.3c-.2,-.1,-.4,-.1,-.6,-.1c-.2,0,-.4,0,-.6,.1c-.2,.1,-.4,.2,-.6,.3c-.1,.2,-.2,.4,-.3,.6c-.1,.2,-.1,.4,-.1,.6Z" class="g9_11"/>
<path d="M652.8,55.5h-2.2V46.9h2.2v8.6Zm.4,-10.9c0,.2,0,.4,-.1,.6c-.1,.2,-.2,.3,-.3,.4c-.2,.2,-.3,.3,-.5,.4c-.2,0,-.4,.1,-.6,.1c-.2,0,-.4,-.1,-.5,-.1c-.2,-.1,-.4,-.2,-.5,-.4c-.1,-.1,-.2,-.2,-.3,-.4c-.1,-.2,-.1,-.4,-.1,-.6c0,-.2,0,-.4,.1,-.5c.1,-.2,.2,-.4,.3,-.5c.1,-.1,.3,-.2,.5,-.3c.1,-.1,.3,-.1,.5,-.1c.2,0,.4,0,.6,.1c.2,.1,.3,.2,.5,.3c.1,.1,.2,.3,.3,.5c.1,.1,.1,.3,.1,.5Z" class="g9_11"/>
<path d="M659.2,55.5h-5V53.3h5c.1,0,.2,-.1,.3,-.2c.1,-.1,.2,-.2,.2,-.3c0,-.2,-.1,-.3,-.2,-.3c-.1,-.1,-.2,-.1,-.3,-.1h-2.3c-.4,0,-.7,-.1,-1.1,-.2c-.3,-.2,-.6,-.4,-.8,-.6c-.3,-.3,-.5,-.6,-.6,-.9c-.1,-.3,-.2,-.7,-.2,-1c0,-.4,.1,-.8,.2,-1.1c.1,-.3,.3,-.6,.6,-.9c.2,-.2,.5,-.4,.8,-.5c.4,-.2,.7,-.2,1.1,-.2h4.4v2.1h-4.4c-.2,0,-.3,.1,-.4,.2c-.1,.1,-.1,.2,-.1,.4c0,.1,0,.2,.1,.4c.1,.1,.2,.1,.4,.1h2.3c.3,0,.7,.1,1,.2c.3,.1,.6,.3,.9,.5c.2,.2,.4,.5,.5,.8c.2,.3,.3,.7,.3,1.1c0,.3,-.1,.7,-.3,1c-.1,.3,-.3,.6,-.5,.9c-.3,.2,-.6,.4,-.9,.5c-.3,.2,-.7,.3,-1,.3Z" class="g9_11"/>
<path d="M665.2,55.5H663V43.6h2.2v3.7c.2,-.2,.5,-.3,.8,-.4c.3,-.1,.5,-.1,.8,-.1c.6,0,1,.1,1.5,.3c.5,.2,.9,.4,1.2,.8c.4,.3,.6,.7,.8,1.2c.2,.5,.3,1,.3,1.5v4.9h-2.2V50.6h.1c0,-.2,-.1,-.4,-.2,-.6c-.1,-.2,-.2,-.4,-.3,-.6c-.2,-.1,-.3,-.2,-.5,-.3c-.2,-.1,-.4,-.1,-.7,-.1c-.2,0,-.4,0,-.6,.1c-.2,.1,-.4,.2,-.5,.3c-.2,.2,-.3,.4,-.4,.6c-.1,.2,-.1,.4,-.1,.6Z" class="g9_11"/>
<path d="M655.2,68.2h-2.3V56.8h2.3v4.6h4.6V56.8H662V68.2h-2.2V63.7h-4.6Z" class="g9_11"/>
<path d="M670.1,67.3c-.2,.1,-.4,.3,-.6,.4c-.2,.1,-.4,.3,-.6,.4c-.2,.1,-.5,.2,-.7,.2c-.2,.1,-.5,.1,-.7,.1c-.5,0,-1,-.1,-1.5,-.3c-.4,-.2,-.8,-.4,-1.2,-.8c-.3,-.3,-.6,-.7,-.8,-1.2c-.2,-.5,-.3,-1.1,-.3,-1.7V59.7h2.2v4.7c0,.3,0,.6,.1,.8c.1,.2,.2,.4,.3,.6c.2,.1,.4,.2,.6,.3c.2,.1,.4,.1,.6,.1c.2,0,.4,0,.6,-.1c.2,-.1,.4,-.2,.6,-.4c.1,-.2,.2,-.4,.3,-.6c.1,-.2,.1,-.4,.1,-.7V59.7h2.2v8.6h-.5Z" class="g9_11"/>
<path d="M615.2,42.4h-1.5V36.5h-2.2V35h5.9v1.5h-2.2Z" class="g9_11"/>
<path d="M627,38.1c0,0,-.1,0,-.2,0c0,0,-.1,0,-.2,0c-.2,0,-.4,0,-.5,.1c-.2,.1,-.3,.2,-.5,.3c-.1,.1,-.2,.3,-.3,.5c0,.2,-.1,.4,-.1,.6q0,.1,0,.2q0,.1,.1,.2q0,.1,0,.2c0,0,0,.1,.1,.1Zm-.7,3q.1,0,.2,0c0,0,.1,0,.1,0c.2,0,.3,0,.4,0c.2,-.1,.3,-.1,.4,-.2c.1,-.1,.2,-.2,.3,-.3c.1,-.1,.2,-.2,.2,-.3l1.1,1c-.2,.2,-.3,.4,-.5,.6c-.2,.1,-.4,.2,-.6,.3c-.2,.1,-.4,.2,-.6,.3c-.2,0,-.4,.1,-.7,.1c-.4,0,-.7,-.1,-1.1,-.3c-.3,-.1,-.6,-.3,-.9,-.6c-.2,-.2,-.4,-.5,-.6,-.9c-.1,-.4,-.2,-.8,-.2,-1.2c0,-.4,.1,-.8,.2,-1.2c.2,-.4,.4,-.7,.6,-.9c.3,-.3,.6,-.5,.9,-.6c.4,-.2,.7,-.2,1.1,-.2c.3,0,.5,0,.7,0c.2,.1,.4,.2,.6,.3c.2,.1,.4,.2,.6,.4c.2,.1,.3,.3,.5,.5Z" class="g9_11"/>
<path d="M618.1,38v4.5h1.4V39.3c0,-.2,0,-.3,.1,-.4c0,-.2,.1,-.3,.2,-.4c.1,-.1,.2,-.1,.4,-.2c.1,-.1,.2,-.1,.4,-.1c.1,0,.3,0,.4,.1c.1,.1,.2,.1,.3,.2c.1,.1,.2,.2,.3,.4c0,.1,0,.2,0,.4v3.2h1.5V39.3c0,-.4,-.1,-.7,-.2,-1c-.2,-.3,-.3,-.6,-.6,-.8c-.2,-.2,-.5,-.4,-.8,-.5c-.3,-.2,-.6,-.2,-.9,-.2c-.2,0,-.4,0,-.6,.1c-.2,0,-.3,.1,-.5,.2V35h-1.4Z" class="g9_11"/>
<path d="M56.3,1233.1H909.4" class="ga_11"/>
<image clip-path="url(#c2_11)" preserveAspectRatio="none" x="489" y="678" width="329" height="610" xlink:href="img/3.png"/>
</svg>