<?xml version="1.0" encoding="UTF-8" standalone="no"?>
<!DOCTYPE svg PUBLIC "-//W3C//DTD SVG 1.1//EN"
"http://www.w3.org/Graphics/SVG/1.1/DTD/svg11.dtd">
<svg viewBox="0 0 909 1286" version="1.1" xmlns="http://www.w3.org/2000/svg" xmlns:xlink="http://www.w3.org/1999/xlink">
<defs>
<clipPath id="c0_6"><path d="M0,1286.2V0H909.4V1286.2Z"/></clipPath>
<clipPath id="c1_6"><path d="M87,537.4V352.5H561.3V537.4Z"/></clipPath>
<clipPath id="c2_6"><path d="M86.6,728.5V541.7H335.7V728.5Z"/></clipPath>
<clipPath id="c3_6"><path d="M86.9,930.2V732.9H393.7V930.2Z"/></clipPath>
<clipPath id="c4_6"><path d="M398,930.2V732.9H639.1V930.2Z"/></clipPath>
<clipPath id="c5_6"><path d="M342.8,1215.9V934.5H639.1v281.4Z"/></clipPath>
<clipPath id="c6_6"><path d="M643.4,1215.9V899.7H853v316.2Z"/></clipPath>
<clipPath id="c7_6"><path d="M565.6,537.4V352.5H853V537.4Z"/></clipPath>
<clipPath id="c8_6"><path d="M340,728.5V541.7H639.1V728.5Z"/></clipPath>
<clipPath id="c9_6"><path d="M86.6,1215.9V934.5H338.5v281.4Z"/></clipPath>
<clipPath id="ca_6"><path d="M268.8,68.5V35h69.4V68.5Z"/></clipPath>
<clipPath id="cb_6"><path d="M554.9,348.2V157.1H853V348.2Z"/></clipPath>
<clipPath id="cc_6"><path d="M10.7,365V32.9H556.6V365Z"/></clipPath>
<clipPath id="cd_6"><path d="M897.4,928.3L599.4,897L636.5,543.7l272.9,28.6V813.7l-12,114.6Z"/></clipPath>
<style type="text/css"><![CDATA[
.g0_6{
fill: #D3D6D9;
}
.g1_6{
fill: #385963;
}
.g2_6{
fill: none;
stroke: #385963;
stroke-width: 3.611;
stroke-linecap: butt;
stroke-linejoin: miter;
}
.g3_6{
fill: #9BA4AC;
}
.g4_6{
fill: #EBE9E9;
}
.g5_6{
fill: #B3B9BF;
}
.g6_6{
fill: #FFFFFF;
}
.g7_6{
}
.g8_6{
fill: none;
stroke: #000000;
stroke-width: 0.763;
stroke-linecap: butt;
stroke-linejoin: miter;
}
]]></style>
</defs>
<path d="M0,1286.2H909.4V0H0V1286.2Z" class="g0_6"/>
<path d="M0,56.3V89.9Z" class="g1_6"/>
<path clip-path="url(#c0_6)" d="M-853,138.5H853.1" class="g2_6"/>
<path d="M0,89.9H853.1V56.3H0V89.9Z" class="g1_6"/>
<image clip-path="url(#c1_6)" preserveAspectRatio="none" x="85" y="353" width="478" height="187" xlink:href="img/1.jpg"/>
<path d="M643.4,895.2H853V541.7H643.4V895.2Z" class="g3_6"/>
<image clip-path="url(#c2_6)" preserveAspectRatio="none" x="87" y="540" width="249" height="190" xlink:href="img/2.jpg"/>
<image clip-path="url(#c3_6)" preserveAspectRatio="none" x="87" y="731" width="307" height="202" xlink:href="img/3.jpg"/>
<image clip-path="url(#c4_6)" preserveAspectRatio="none" x="396" y="733" width="245" height="197" xlink:href="img/4.jpg"/>
<path d="M342.8,1215.9H639.1V934.5H342.8v281.4Z" class="g4_6"/>
<image clip-path="url(#c5_6)" preserveAspectRatio="none" x="341" y="933" width="300" height="285" xlink:href="img/5.jpg"/>
<path d="M643.4,1215.9H853V899.8H643.4v316.1Z" class="g5_6"/>
<image clip-path="url(#c6_6)" preserveAspectRatio="none" x="641" y="900" width="214" height="316" xlink:href="img/6.jpg"/>
<path d="M528.6,526.6h21.8V502.4H528.6v24.2Z" class="g6_6"/>
<image clip-path="url(#c7_6)" preserveAspectRatio="none" x="566" y="350" width="287" height="190" xlink:href="img/7.jpg"/>
<path d="M820.4,526.6h21.8V502.4H820.4v24.2Z" class="g6_6"/>
<path d="M303,717.7h21.8V693.6H303v24.1Z" class="g6_6"/>
<image clip-path="url(#c8_6)" preserveAspectRatio="none" x="340" y="540" width="299" height="190" xlink:href="img/8.jpg"/>
<path d="M606.4,919.4h21.9V895.2H606.4v24.2Z" class="g6_6"/>
<image clip-path="url(#c9_6)" preserveAspectRatio="none" x="87" y="933" width="252" height="285" xlink:href="img/9.jpg"/>
<path d="M295,1205.1h32.7v-24.2H295v24.2Z" class="g6_6"/>
<path d="M599.4,1202.5h28.9v-24.1H599.4v24.1Z" class="g6_6"/>
<path d="M812.4,1205.1h29.7v-24.2H812.4v24.2Z" class="g6_6"/>
<image clip-path="url(#c0_6)" preserveAspectRatio="none" x="254" y="-24" width="438" height="114" xlink:href="img/10.png"/>
<path d="M258,73.1H677.8V0H258V73.1Z" class="g5_6"/>
<path clip-path="url(#ca_6)" d="M335.9,65c-.1,.3,-.2,.6,-.4,.8c-.2,.2,-.4,.3,-.7,.4c-.2,.1,-.5,.2,-.8,.2c-.3,0,-.5,-.1,-.8,-.2c-.2,-.1,-.5,-.3,-.6,-.5c-.2,-.2,-.4,-.4,-.5,-.7c-.1,-.2,-.1,-.5,-.1,-.8c0,-.3,0,-.6,.1,-.9c.1,-.2,.3,-.5,.5,-.7c.2,-.2,.4,-.4,.6,-.5c.3,-.1,.6,-.2,.8,-.2c.3,0,.6,.1,.8,.2c.3,.1,.5,.3,.7,.5c.2,.2,.3,.4,.5,.7c.1,.3,.1,.5,.1,.9c0,.3,0,.6,-.2,.8m2,-2.6c-.2,-.5,-.5,-1,-.9,-1.3c-.4,-.4,-.8,-.7,-1.3,-1c-.5,-.2,-1.1,-.3,-1.7,-.3c-.1,0,-.3,0,-.5,.1c-.2,0,-.4,.1,-.6,.1c-.2,.1,-.4,.2,-.5,.3c-.2,.1,-.3,.2,-.5,.4l.1,-20c1.1,-.4,1.9,-1.5,1.9,-2.7c0,-1.7,-1.3,-3,-2.9,-3c-1.7,0,-3,1.3,-3,2.9c0,1.3,.8,2.4,1.9,2.8l-.1,21.9v1.5c0,.7,.1,1.3,.4,1.8c.2,.5,.5,1,.9,1.4c.3,.4,.8,.7,1.3,.9c.5,.2,1,.3,1.6,.3c.6,0,1.1,-.1,1.7,-.3c.5,-.2,.9,-.5,1.3,-.9c.4,-.4,.7,-.8,.9,-1.4c.2,-.5,.3,-1.1,.3,-1.7c0,-.7,-.1,-1.2,-.3,-1.8Z" class="g7_6"/>
<path d="M285.4,52.4c-.1,.3,-.3,.5,-.5,.7c-.2,.2,-.4,.4,-.7,.5c-.3,.1,-.6,.2,-.9,.2c-.3,0,-.6,-.1,-.8,-.2c-.3,-.1,-.6,-.3,-.8,-.5c-.2,-.2,-.3,-.4,-.4,-.7c-.2,-.3,-.2,-.7,-.2,-1c0,-.4,0,-.7,.2,-1c.1,-.3,.2,-.6,.4,-.8c.2,-.2,.5,-.3,.8,-.4c.2,-.1,.5,-.2,.8,-.2c.3,0,.6,.1,.9,.2c.3,.1,.5,.2,.7,.4c.2,.2,.4,.5,.5,.8c.1,.3,.1,.6,.1,1c0,.3,0,.7,-.1,1m2,-2.9c-.2,-.6,-.5,-1.1,-.9,-1.5c-.4,-.4,-.9,-.7,-1.4,-.9c-.6,-.2,-1.2,-.3,-1.8,-.3c-.3,0,-.5,0,-.8,.1c-.3,0,-.6,.1,-.8,.3c-.3,.1,-.5,.2,-.8,.4c-.2,.2,-.4,.3,-.6,.5l-.9,-1h-.6V62.8h-.9v5.7h4V62.8h-.8V55.3c.1,0,.3,.1,.5,.2c.2,.1,.4,.2,.6,.3c.1,.1,.3,.1,.5,.2c.2,0,.4,0,.6,0c.6,0,1.2,-.1,1.8,-.3c.5,-.2,1,-.5,1.4,-.9c.4,-.4,.7,-.9,.9,-1.5c.3,-.5,.4,-1.2,.4,-1.9c0,-.7,-.1,-1.3,-.4,-1.9Z" class="g7_6"/>
<path d="M268.8,47.5c0,-.5,.1,-.9,.3,-1.4c.1,-.4,.4,-.7,.7,-1c.3,-.4,.7,-.6,1.1,-.8c.4,-.2,.8,-.2,1.3,-.2h5.2v2.2h-5.2c-.2,0,-.3,.1,-.4,.1c-.2,.1,-.3,.2,-.4,.3c-.1,.1,-.2,.2,-.2,.3c-.1,.2,-.1,.3,-.1,.5c0,.1,0,.3,.1,.4c0,.2,.1,.3,.2,.4c.1,.1,.2,.2,.4,.2c.1,.1,.2,.1,.4,.1h2.3c.5,0,.9,.1,1.3,.3c.4,.2,.8,.4,1.1,.7c.3,.3,.6,.7,.7,1.1c.2,.4,.3,.9,.3,1.3c0,.5,-.1,1,-.3,1.4c-.1,.4,-.4,.7,-.7,1.1c-.3,.3,-.7,.5,-1.1,.7c-.4,.2,-.8,.3,-1.3,.3h-5.1V53.2h5.1c.1,0,.3,-.1,.4,-.1c.2,-.1,.3,-.1,.4,-.3c.1,-.1,.2,-.2,.2,-.3c.1,-.2,.1,-.3,.1,-.5c0,-.1,0,-.3,-.1,-.4c0,-.1,-.1,-.3,-.2,-.4c-.1,-.1,-.2,-.2,-.4,-.2c-.1,-.1,-.3,-.1,-.4,-.1h-2.3c-.5,0,-.9,-.1,-1.3,-.3c-.4,-.1,-.8,-.4,-1.1,-.7c-.3,-.3,-.6,-.7,-.7,-1.1c-.2,-.4,-.3,-.9,-.3,-1.3Z" class="g7_6"/>
<path d="M295.1,51.1c0,-.3,-.1,-.6,-.2,-.8c-.1,-.3,-.3,-.6,-.5,-.8c-.2,-.2,-.4,-.4,-.6,-.5c-.3,-.1,-.6,-.2,-.9,-.2c-.3,0,-.6,.1,-.8,.2c-.3,.1,-.5,.2,-.7,.4c-.2,.2,-.4,.4,-.5,.7c-.1,.3,-.1,.7,-.1,1c0,.4,0,.7,.1,1c.1,.3,.3,.5,.5,.7c.2,.2,.4,.4,.7,.5c.2,.1,.5,.1,.8,.1c.3,0,.6,0,.9,-.2c.2,-.1,.4,-.3,.6,-.5c.2,-.2,.4,-.4,.5,-.7c.1,-.3,.2,-.6,.2,-.9m2.2,4.4h-.6l-.8,-1.2c-.2,.2,-.4,.3,-.7,.5c-.2,.2,-.4,.3,-.7,.4c-.2,.2,-.5,.2,-.8,.3c-.2,.1,-.5,.1,-.8,.1c-.6,0,-1.2,-.1,-1.7,-.3c-.5,-.2,-1,-.5,-1.4,-.9c-.4,-.3,-.7,-.8,-.9,-1.4c-.2,-.5,-.3,-1.2,-.3,-1.9c0,-.6,.1,-1.2,.3,-1.8c.2,-.6,.5,-1,.9,-1.4c.4,-.4,.9,-.7,1.4,-1c.5,-.2,1.1,-.3,1.7,-.3c.3,0,.6,0,.8,.1c.3,.1,.6,.2,.8,.3c.3,.1,.5,.3,.7,.4c.3,.2,.5,.4,.7,.6l.8,-1h.6Z" class="g7_6"/>
<path d="M301.1,55.5l-2.2,-.1V46.9h.6l.7,.9c.3,-.4,.7,-.6,1.2,-.8c.4,-.1,.9,-.2,1.3,-.2c.6,0,1.1,.1,1.5,.3c.5,.2,.9,.5,1.2,.8c.4,.3,.6,.8,.8,1.2c.2,.5,.3,1,.3,1.5v4.9h-2.2l.1,-4.9c0,-.2,-.1,-.4,-.2,-.6c-.1,-.2,-.2,-.4,-.3,-.6c-.2,-.1,-.3,-.2,-.5,-.3c-.2,-.1,-.4,-.1,-.7,-.1c-.2,0,-.4,0,-.6,.1c-.2,.1,-.4,.2,-.5,.3c-.2,.2,-.3,.4,-.4,.6c-.1,.2,-.1,.4,-.1,.6Z" class="g7_6"/>
<path d="M310.3,55.5h-2.2V46.9h2.2v8.6Zm.3,-10.9c0,.2,0,.4,-.1,.6c-.1,.2,-.2,.3,-.3,.4c-.1,.2,-.3,.3,-.5,.4c-.1,0,-.3,.1,-.5,.1c-.2,0,-.4,-.1,-.6,-.1c-.2,-.1,-.3,-.2,-.5,-.4c-.1,-.1,-.2,-.2,-.3,-.4c0,-.2,-.1,-.4,-.1,-.6c0,-.2,.1,-.4,.1,-.5c.1,-.2,.2,-.4,.3,-.5c.2,-.1,.3,-.2,.5,-.3c.2,-.1,.4,-.1,.6,-.1c.2,0,.4,0,.5,.1c.2,.1,.4,.2,.5,.3c.1,.1,.2,.3,.3,.5c.1,.1,.1,.3,.1,.5Z" class="g7_6"/>
<path d="M316.6,55.5h-5V53.3h5c.1,0,.3,-.1,.4,-.2c.1,-.1,.1,-.2,.1,-.3c0,-.2,0,-.3,-.1,-.3c-.1,-.1,-.3,-.1,-.4,-.1h-2.3c-.3,0,-.7,-.1,-1,-.2c-.4,-.2,-.6,-.4,-.9,-.6c-.2,-.3,-.4,-.6,-.6,-.9c-.1,-.3,-.2,-.7,-.2,-1c0,-.4,.1,-.8,.2,-1.1c.2,-.3,.4,-.6,.6,-.9c.3,-.2,.5,-.4,.9,-.5c.3,-.2,.7,-.2,1,-.2h4.4v2.1h-4.4c-.1,0,-.2,.1,-.3,.2c-.2,.1,-.2,.2,-.2,.4c0,.1,0,.2,.2,.4c.1,.1,.2,.1,.3,.1h2.3c.4,0,.7,.1,1,.2c.4,.1,.7,.3,.9,.5c.2,.2,.4,.5,.6,.8c.1,.3,.2,.7,.2,1.1c0,.3,-.1,.7,-.2,1c-.2,.3,-.4,.6,-.6,.9c-.2,.2,-.5,.4,-.9,.5c-.3,.2,-.6,.3,-1,.3Z" class="g7_6"/>
<path d="M322.6,55.5h-2.2V43.6h2.2v3.7c.3,-.2,.5,-.3,.8,-.4c.3,-.1,.6,-.1,.9,-.1c.5,0,1,.1,1.4,.3c.5,.2,.9,.4,1.3,.8c.3,.3,.6,.7,.8,1.2c.2,.5,.3,1,.3,1.5v4.9h-2.2V50.6c0,-.2,-.1,-.4,-.1,-.6c-.1,-.2,-.2,-.4,-.4,-.6c-.1,-.1,-.3,-.2,-.5,-.3c-.2,-.1,-.4,-.1,-.6,-.1c-.3,0,-.5,0,-.7,.1c-.2,.1,-.4,.2,-.5,.3c-.1,.2,-.3,.4,-.4,.6c0,.2,-.1,.4,-.1,.6Z" class="g7_6"/>
<path d="M312.6,68.2h-2.2V56.8h2.2v4.6h4.6V56.8h2.3V68.2h-2.3V63.7h-4.6Z" class="g7_6"/>
<path d="M327.5,67.3c-.2,.1,-.4,.3,-.6,.4c-.1,.1,-.4,.3,-.6,.4c-.2,.1,-.4,.2,-.6,.2c-.3,.1,-.5,.1,-.8,.1c-.5,0,-1,-.1,-1.4,-.3c-.5,-.2,-.9,-.4,-1.2,-.8c-.4,-.3,-.7,-.7,-.9,-1.2c-.2,-.5,-.3,-1.1,-.3,-1.7V59.7h2.2v4.7c0,.3,0,.6,.1,.8c.1,.2,.2,.4,.4,.6c.1,.1,.3,.2,.5,.3c.2,.1,.4,.1,.6,.1c.3,0,.5,0,.7,-.1c.2,-.1,.4,-.2,.5,-.4c.2,-.2,.3,-.4,.4,-.6c0,-.2,.1,-.4,.1,-.7V59.7h2.2v8.6h-.6Z" class="g7_6"/>
<path d="M272.6,42.4h-1.5V36.5h-2.2V35h6v1.5h-2.3Z" class="g7_6"/>
<path d="M284.5,38.1c-.1,0,-.2,0,-.2,0c-.1,0,-.2,0,-.2,0c-.2,0,-.4,0,-.6,.1c-.2,.1,-.3,.2,-.4,.3c-.2,.1,-.3,.3,-.3,.5c-.1,.2,-.1,.4,-.1,.6q0,.1,0,.2q0,.1,0,.2q0,.1,0,.2c.1,0,.1,.1,.1,.1Zm-.8,3q.1,0,.2,0q.1,0,.2,0c.1,0,.2,0,.4,0c.1,-.1,.2,-.1,.3,-.2c.1,-.1,.2,-.2,.3,-.3c.1,-.1,.2,-.2,.3,-.3l1,1c-.1,.2,-.3,.4,-.5,.6c-.1,.1,-.3,.2,-.5,.3c-.2,.1,-.4,.2,-.7,.3c-.2,0,-.4,.1,-.6,.1c-.4,0,-.8,-.1,-1.1,-.3c-.4,-.1,-.7,-.3,-.9,-.6c-.3,-.2,-.5,-.5,-.7,-.9c-.1,-.4,-.2,-.8,-.2,-1.2c0,-.4,.1,-.8,.2,-1.2c.2,-.4,.4,-.7,.7,-.9c.2,-.3,.5,-.5,.9,-.6c.3,-.2,.7,-.2,1.1,-.2c.2,0,.4,0,.7,0c.2,.1,.4,.2,.6,.3c.2,.1,.4,.2,.5,.4c.2,.1,.4,.3,.5,.5Z" class="g7_6"/>
<path d="M275.5,38v4.5h1.4V39.3c0,-.2,.1,-.3,.1,-.4c.1,-.2,.1,-.3,.2,-.4c.1,-.1,.3,-.1,.4,-.2c.1,-.1,.3,-.1,.4,-.1c.2,0,.3,0,.4,.1c.2,.1,.3,.1,.4,.2c.1,.1,.1,.2,.2,.4c.1,.1,.1,.2,.1,.4v3.2h1.4V39.3c0,-.4,-.1,-.7,-.2,-1c-.1,-.3,-.3,-.6,-.5,-.8c-.2,-.2,-.5,-.4,-.8,-.5c-.3,-.2,-.6,-.2,-1,-.2c-.2,0,-.4,0,-.5,.1c-.2,0,-.4,.1,-.6,.2V35h-1.4Z" class="g7_6"/>
<path d="M606.4,717.7h21.9V693.6H606.4v24.1Z" class="g6_6"/>
<image clip-path="url(#cb_6)" preserveAspectRatio="none" x="555" y="155" width="298" height="195" xlink:href="img/11.jpg"/>
<path d="M87,348.2H550.5V157.1H87V348.2Z" class="g3_6"/>
<path d="M820.3,337.4h21.8V313.2H820.3v24.2Z" class="g6_6"/>
<path d="M517.9,337.4h21.8V313.2H517.9v24.2Z" class="g6_6"/>
<image clip-path="url(#cc_6)" preserveAspectRatio="none" x="9" y="31" width="548" height="336" xlink:href="img/12.png"/>
<path clip-path="url(#c0_6)" d="M-853,1233.1H0m0,0H853.1" class="g8_6"/>
<image clip-path="url(#cd_6)" preserveAspectRatio="none" x="557" y="509" width="395" height="454" xlink:href="img/13.png"/>
<path d="M820.3,576.7h21.8V552.5H820.3v24.2Z" class="g6_6"/>
<path d="M361,919.4h21.8V895.2H361v24.2Z" class="g6_6"/>
</svg>