<?xml version="1.0" encoding="UTF-8" standalone="no"?>
<!DOCTYPE svg PUBLIC "-//W3C//DTD SVG 1.1//EN"
"http://www.w3.org/Graphics/SVG/1.1/DTD/svg11.dtd">
<svg viewBox="0 0 909 1286" version="1.1" xmlns="http://www.w3.org/2000/svg" xmlns:xlink="http://www.w3.org/1999/xlink">
<defs>
<clipPath id="c0_9"><path d="M405.9,1240.8V1030.7H820.6v210.1Z"/></clipPath>
<style type="text/css"><![CDATA[
.g0_9{
fill: none;
stroke: #597642;
stroke-width: 3.611;
stroke-linecap: butt;
stroke-linejoin: miter;
}
.g1_9{
fill: #FFFFFF;
}
.g2_9{
fill: none;
stroke: #939598;
stroke-width: 0.902;
stroke-linecap: butt;
stroke-linejoin: miter;
stroke-miterlimit: 4;
stroke-dasharray: 3,2;
}
.g3_9{
fill: none;
stroke: #939598;
stroke-width: 0.902;
stroke-linecap: butt;
stroke-linejoin: miter;
stroke-miterlimit: 4;
}
.g4_9{
fill: #FFE581;
}
.g5_9{
fill: #FFF0BD;
}
.g6_9{
fill: none;
stroke: #FFFFFF;
stroke-width: 1.527;
stroke-linecap: butt;
stroke-linejoin: miter;
}
.g7_9{
fill: none;
stroke: #000000;
stroke-width: 1.527;
stroke-linecap: round;
stroke-linejoin: round;
stroke-dasharray: 0,5;
}
.g8_9{
fill: none;
stroke: #000000;
stroke-width: 1.527;
stroke-linecap: round;
stroke-linejoin: round;
}
.g9_9{
fill: none;
stroke: #597642;
stroke-width: 1.805;
stroke-linecap: butt;
stroke-linejoin: miter;
stroke-miterlimit: 4;
}
.ga_9{
fill: #597642;
}
.gb_9{
fill: #C6C8B3;
}
.gc_9{
fill: none;
stroke: #FFEA9F;
stroke-width: 18.333;
stroke-linecap: butt;
stroke-linejoin: miter;
}
.gd_9{
fill: none;
stroke: #000000;
stroke-width: 0.763;
stroke-linecap: butt;
stroke-linejoin: miter;
}
]]></style>
</defs>
<image clip-path="url(#c0_9)" preserveAspectRatio="none" x="406" y="1029" width="415" height="213" xlink:href="img/1.jpg"/>
<path d="M56.3,138.5H822.8" class="g0_9"/>
<path d="M725.7,149.8h97.1V123.5H725.7v26.3Z" class="g1_9"/>
<path d="M822.4,1026.5v-73m-3.2,-2.3H584.5m-2.3,3.2v73m3.2,2.3H789.8m5,2.3c3.2,2.9,6.4,5.8,9.6,8.7m1.7,-1.2v-7.3m3.2,-2.5h11.1" class="g2_9"/>
<path d="M822.4,952.6v-1.4H821m-237.4,0h-1.4v1.4m0,75.7v1.4h1.4m207.1,0h1.5l.2,.1c.3,.3,.7,.6,1,.9m11.7,10.6c.3,.3,.6,.6,1,1V1041m0,-9.6v-1.7h1.6m13.5,0h1.2v-1.4" class="g3_9"/>
<path d="M575.3,962h99.5V941.6H575.3V962Z" class="g1_9"/>
<path d="M78.8,216h45.8v53.2H78.8V216Zm45.8,0H249v53.2H124.6V216ZM249,216H359.5v53.2H249V216Zm110.5,0H470v53.2H359.5V216ZM470,216H580.5v53.2H470V216Zm110.5,0H690.9v53.2H580.5V216Zm110.4,0H801.4v53.2H690.9V216Z" class="g4_9"/>
<path d="M78.8,269.2h45.8V352H78.8V269.2Zm45.8,0H249v20.7H124.6V269.2Zm124.4,0H359.5v20.7H249V269.2Zm110.5,0H470v20.7H359.5V269.2Zm110.5,0H580.5v20.7H470V269.2Zm110.5,0H690.9v20.7H580.5V269.2Zm110.4,0H801.4v20.7H690.9V269.2ZM124.6,289.9H249v20.7H124.6V289.9Zm124.4,0H359.5v20.7H249V289.9Zm110.5,0H470v20.7H359.5V289.9Zm110.5,0H580.5v20.7H470V289.9Zm110.5,0H690.9v20.7H580.5V289.9ZM124.6,310.6H249v20.7H124.6V310.6Zm124.4,0H359.5v20.7H249V310.6Zm110.5,0H470v20.7H359.5V310.6Zm110.5,0H580.5v20.7H470V310.6Zm110.5,0H690.9v20.7H580.5V310.6Zm110.4,0H801.4v20.7H690.9V310.6ZM124.6,331.3H249V352H124.6V331.3Zm124.4,0H359.5V352H249V331.3Zm110.5,0H470V352H359.5V331.3Zm110.5,0H580.5V352H470V331.3Zm110.5,0H690.9V352H580.5V331.3Zm110.4,0H801.4V352H690.9V331.3ZM78.8,352h45.8v82.8H78.8V352Zm45.8,0H249v20.7H124.6V352ZM249,352H359.5v20.7H249V352Zm110.5,0H470v20.7H359.5V352ZM470,352H580.5v20.7H470V352Zm110.5,0H690.9v20.7H580.5V352Zm110.4,0H801.4v20.7H690.9V352ZM124.6,372.7H249v20.7H124.6V372.7Zm124.4,0H359.5v20.7H249V372.7Zm110.5,0H470v20.7H359.5V372.7Zm110.5,0H580.5v20.7H470V372.7Zm110.5,0H690.9v20.7H580.5V372.7Zm110.4,0H801.4v20.7H690.9V372.7ZM124.6,393.4H249v20.7H124.6V393.4Zm124.4,0H359.5v20.7H249V393.4Zm110.5,0H470v20.7H359.5V393.4Zm110.5,0H580.5v20.7H470V393.4Zm110.5,0H690.9v20.7H580.5V393.4Zm110.4,0H801.4v20.7H690.9V393.4ZM124.6,414.1H249v20.7H124.6V414.1Zm124.4,0H359.5v20.7H249V414.1Zm110.5,0H470v20.7H359.5V414.1Zm110.5,0H580.5v20.7H470V414.1Zm110.5,0H690.9v20.7H580.5V414.1Zm110.4,0H801.4v20.7H690.9V414.1ZM78.8,434.8h45.8v86.1H78.8V434.8Zm45.8,0H249v24H124.6v-24Zm124.4,0H359.5v24H249v-24Zm110.5,0H470v24H359.5v-24Zm110.5,0H580.5v24H470v-24Zm110.5,0H690.9v24H580.5v-24Zm110.4,0H801.4v24H690.9v-24Zm-566.3,24H249v20.7H124.6V458.8Zm124.4,0H359.5v20.7H249V458.8Zm110.5,0H470v20.7H359.5V458.8Zm110.5,0H580.5v20.7H470V458.8Zm110.5,0H690.9v20.7H580.5V458.8Zm110.4,0H801.4v20.7H690.9V458.8ZM124.6,479.5H249v20.7H124.6V479.5Zm124.4,0H359.5v20.7H249V479.5Zm110.5,0H470v20.7H359.5V479.5Zm110.5,0H580.5v20.7H470V479.5Zm110.5,0H690.9v20.7H580.5V479.5Zm110.4,0H801.4v20.7H690.9V479.5ZM124.6,500.2H249v20.7H124.6V500.2Zm124.4,0H359.5v20.7H249V500.2Zm110.5,0H470v20.7H359.5V500.2Zm110.5,0H580.5v20.7H470V500.2Zm110.5,0H690.9v20.7H580.5V500.2Zm110.4,0H801.4v20.7H690.9V500.2Z" class="g5_9"/>
<path d="M690.9,289.9H801.4v20.7H690.9V289.9Z" class="g5_9"/>
<path d="M124.6,268.5V216M249,268.5V216m110.5,52.5V216M470,268.5V216m110.5,52.5V216m110.4,52.5V216M78.8,269.2h45.8m0,0H249m0,0H359.5M249,289.2V270m110.5,-.8H470m-110.5,20V270M470,269.2H580.5M470,289.2V270m110.5,-.8H690.9m-110.4,20V270m110.4,-.8H802.2m-111.3,20V270m110.5,19.2V270m-676,19.9H249m0,0H359.5M249,309.8V290.7m110.5,-.8H470M359.5,309.8V290.7M470,289.9H580.5M470,309.8V290.7m110.5,-.8H690.9M580.5,309.8V290.7m110.4,-.8H802.2M690.9,309.8V290.7m110.5,19.1V290.7m-676,19.9H249m0,0H359.5M249,330.5V311.4m110.5,-.8H470M359.5,330.5V311.4M470,310.6H580.5M470,330.5V311.4m110.5,-.8H690.9M580.5,330.5V311.4m110.4,-.8H802.2M690.9,330.5V311.4m110.5,19.1V311.4M249,331.3H359.5M249,351.2V332.1m110.5,-.8H470M359.5,351.2V332.1M470,331.3H580.5M470,351.2V332.1m110.5,-.8H690.9M580.5,351.2V332.1m110.4,-.8H802.2M690.9,351.2V332.1m110.5,19.1V332.1M249,352H359.5M249,371.9V352.8M359.5,352H470M359.5,371.9V352.8M470,352H580.5M470,371.9V352.8M580.5,352H690.9M580.5,371.9V352.8M690.9,352H802.2M690.9,371.9V352.8m110.5,19.1V352.8M249,372.7H359.5M249,392.6V373.5m110.5,-.8H470M359.5,392.6V373.5M470,372.7H580.5M470,392.6V373.5m110.5,-.8H690.9M580.5,392.6V373.5m110.4,-.8H802.2M690.9,392.6V373.5m110.5,19.1V373.5M249,393.4H359.5M249,413.3V394.1m110.5,-.7H470M359.5,413.3V394.1M470,393.4H580.5M470,413.3V394.1m110.5,-.7H690.9M580.5,413.3V394.1m110.4,-.7H802.2M690.9,413.3V394.1m110.5,19.2V394.1M249,414.1H359.5M249,434V414.8m110.5,-.7H470M359.5,434V414.8M470,414.1H580.5M470,434V414.8m110.5,-.7H690.9M580.5,434V414.8m110.4,-.7H802.2M690.9,434V414.8M801.4,434V414.8M249,434.8H359.5M249,458.1V435.5m110.5,-.7H470M359.5,458.1V435.5M470,434.8H580.5M470,458.1V435.5m110.5,-.7H690.9M580.5,458.1V435.5m110.4,-.7H802.2M690.9,458.1V435.5m110.5,22.6V435.5M249,458.8H359.5M249,478.8V459.6m110.5,-.8H470m-110.5,20V459.6M470,458.8H580.5M470,478.8V459.6m110.5,-.8H690.9m-110.4,20V459.6m110.4,-.8H802.2m-111.3,20V459.6m110.5,19.2V459.6M249,479.5H359.5M249,499.4V480.3m110.5,-.8H470M359.5,499.4V480.3M470,479.5H580.5M470,499.4V480.3m110.5,-.8H690.9M580.5,499.4V480.3m110.4,-.8H802.2M690.9,499.4V480.3m110.5,19.1V480.3M249,500.2H359.5M249,520.1V501m110.5,-.8H470M359.5,520.1V501M470,500.2H580.5M470,520.1V501m110.5,-.8H690.9M580.5,520.1V501m110.4,-.8H802.2M690.9,520.1V501m110.5,19.1V501M248.3,520.9H359.5m0,0H470m0,0H580.5m0,0H690.9m0,0H802.2M124.6,289.9V270m0,40.6V289.9m0,41.4V310.6m.8,20.7H249M124.6,351.2V331.3M78.8,352h45.8m0,0H249M125.4,372.7H249M125.4,393.4H249M124.6,372.7V352.8m0,40.6V372.7m0,41.4V393.4m.8,20.7H249M124.6,434V414.1M78.8,434.8h45.8m0,0H249m-123.6,24H249M125.4,479.5H249M125.4,500.2H249M124.6,458.8V435.5m0,44V458.8m0,41.4V479.5m0,41.4V500.2" class="g6_9"/>
<path d="M78.8,568.9H198.6v36.4H78.8V568.9Zm119.8,0H349v36.4H198.6V568.9Zm150.4,0H499.5v36.4H349V568.9Zm150.5,0H649.9v36.4H499.5V568.9Zm150.4,0H800.3v36.4H649.9V568.9Z" class="g4_9"/>
<path d="M78.8,605.3H198.6v23.3H78.8V605.3Zm119.8,0H349v23.3H198.6V605.3Zm150.4,0H499.5v23.3H349V605.3Zm150.5,0H649.9v23.3H499.5V605.3Zm150.4,0H800.3v23.3H649.9V605.3ZM78.8,628.6H198.6v23.2H78.8V628.6Zm119.8,0H349v23.2H198.6V628.6Zm150.4,0H499.5v23.2H349V628.6Zm150.5,0H649.9v23.2H499.5V628.6Zm150.4,0H800.3v23.2H649.9V628.6ZM78.8,651.8H198.6V675H78.8V651.8Zm119.8,0H349V675H198.6V651.8Zm150.4,0H499.5V675H349V651.8Zm150.5,0H649.9V675H499.5V651.8Zm150.4,0H800.3V675H649.9V651.8ZM78.8,675H198.6v23.2H78.8V675Zm119.8,0H349v23.2H198.6V675ZM349,675H499.5v23.2H349V675Zm150.5,0H649.9v23.2H499.5V675Zm150.4,0H800.3v23.2H649.9V675ZM78.8,698.2H198.6v23.2H78.8V698.2Zm119.8,0H349v23.2H198.6V698.2Zm150.4,0H499.5v23.2H349V698.2Zm150.5,0H649.9v23.2H499.5V698.2Zm150.4,0H800.3v23.2H649.9V698.2ZM78.8,721.4H198.6v23.3H78.8V721.4Zm119.8,0H349v23.3H198.6V721.4Zm150.4,0H499.5v23.3H349V721.4Zm150.5,0H649.9v23.3H499.5V721.4Zm150.4,0H800.3v23.3H649.9V721.4ZM78.8,744.7H198.6v23.2H78.8V744.7Zm119.8,0H349v23.2H198.6V744.7Zm150.4,0H499.5v23.2H349V744.7Zm150.5,0H649.9v23.2H499.5V744.7Zm150.4,0H800.3v23.2H649.9V744.7ZM78.8,767.9H198.6v23.2H78.8V767.9Zm119.8,0H349v23.2H198.6V767.9Zm150.4,0H499.5v23.2H349V767.9Zm150.5,0H649.9v23.2H499.5V767.9Zm150.4,0H800.3v23.2H649.9V767.9ZM78.8,791.1H198.6v33.6H78.8V791.1Zm119.8,0H349v33.6H198.6V791.1Zm150.4,0H499.5v33.6H349V791.1Zm150.5,0H649.9v33.6H499.5V791.1Zm150.4,0H800.3v33.6H649.9V791.1ZM78.8,824.7H198.6v33.6H78.8V824.7Zm119.8,0H349v33.6H198.6V824.7Zm150.4,0H499.5v33.6H349V824.7Zm150.5,0H649.9v33.6H499.5V824.7Zm150.4,0H800.3v33.6H649.9V824.7Z" class="g5_9"/>
<path d="M78.8,605.3H198.6m0,-.7V568.9M349,604.6V568.9m150.5,35.7V568.9m150.4,35.7V568.9M198.6,605.3H349M198.6,627.8V606.1M349,605.3H499.5M349,627.8V606.1m150.5,-.8H649.9M499.5,627.8V606.1m150.4,-.8H801.1M649.9,627.8V606.1m150.4,21.7V606.1M198.6,628.6H349M198.6,651V629.3M349,628.6H499.5M349,651V629.3m150.5,-.7H649.9M499.5,651V629.3m150.4,-.7H801.1M649.9,651V629.3M800.3,651V629.3M198.6,651.8H349M198.6,674.2V652.5M349,651.8H499.5M349,674.2V652.5m150.5,-.7H649.9M499.5,674.2V652.5m150.4,-.7H801.1M649.9,674.2V652.5m150.4,21.7V652.5M198.6,675H349M198.6,697.5V675.8M349,675H499.5M349,697.5V675.8M499.5,675H649.9M499.5,697.5V675.8M649.9,675H801.1M649.9,697.5V675.8m150.4,21.7V675.8M198.6,698.2H349M198.6,720.7V699M349,698.2H499.5M349,720.7V699m150.5,-.8H649.9M499.5,720.7V699m150.4,-.8H801.1M649.9,720.7V699m150.4,21.7V699M198.6,721.4H349M198.6,743.9V722.2M349,721.4H499.5M349,743.9V722.2m150.5,-.8H649.9M499.5,743.9V722.2m150.4,-.8H801.1M649.9,743.9V722.2m150.4,21.7V722.2M198.6,744.7H349M198.6,767.1V745.4M349,744.7H499.5M349,767.1V745.4m150.5,-.7H649.9M499.5,767.1V745.4m150.4,-.7H801.1M649.9,767.1V745.4m150.4,21.7V745.4M198.6,767.9H349M198.6,790.3V768.7M349,767.9H499.5M349,790.3V768.7m150.5,-.8H649.9M499.5,790.3V768.7m150.4,-.8H801.1M649.9,790.3V768.7m150.4,21.6V768.7M198.6,791.1H349M198.6,824V791.9M349,791.1H499.5M349,824V791.9m150.5,-.8H649.9M499.5,824V791.9m150.4,-.8H801.1M649.9,824V791.9M800.3,824V791.9M198.6,824.7H349M198.6,857.6V825.5M349,824.7H499.5M349,857.6V825.5m150.5,-.8H649.9M499.5,857.6V825.5m150.4,-.8H801.1M649.9,857.6V825.5m150.4,32.1V825.5M197.9,858.3H349m0,0H499.5m0,0H649.9m0,0H801.1M78.8,628.6H198.6M78.8,651.8H198.6M78.8,675H198.6M78.8,698.2H198.6M78.8,721.4H198.6M78.8,744.7H198.6M78.8,767.9H198.6M78.8,791.1H198.6M78.8,824.7H198.6" class="g6_9"/>
<path d="M90.3,811h99.1" class="g7_9"/>
<path d="M85.7,811v0m106,0v0" class="g8_9"/>
<path d="M90.3,844.6h99.1" class="g7_9"/>
<path d="M85.7,844.6v0m106,0v0" class="g8_9"/>
<path d="M57.2,878.9H821.9V158H57.2V878.9Z" class="g9_9"/>
<path d="M49.8,168.4h84.7V148H49.8v20.4Z" class="g1_9"/>
<path d="M56.3,89.9H909.4V56.3H56.3V89.9Z" class="ga_9"/>
<path d="M86.6,1122.8H448.2v-159H86.6v159Z" class="gb_9"/>
<path d="M118.3,1014.7h79.3" class="gc_9"/>
<path d="M86.5,961.6h76.9v-20H86.5v20Z" class="g1_9"/>
<path d="M573.1,982.6H597v-21H573.1v21Z" class="g1_9"/>
<path d="M587.1,976.9v.5c0,.4,-.3,.8,-.7,.8l-.2,.5c0,.3,-.2,.4,-.5,.4h-1.3c-.2,0,-.5,-.1,-.5,-.4l-.1,-.5c-.4,0,-.7,-.4,-.7,-.8v-.5c0,-.3,.2,-.5,.5,-.5h3c.2,0,.5,.2,.5,.5m2.3,-6.9c0,1.2,-.5,2.2,-1.2,3c-.6,.6,-1,1.4,-1.1,2.2c0,.3,-.3,.6,-.7,.6h-2.7c-.3,0,-.6,-.3,-.7,-.6c-.1,-.8,-.5,-1.6,-1.1,-2.2c-.7,-.8,-1.2,-1.8,-1.2,-2.9c0,-2.5,1.9,-4.4,4.3,-4.4c2.4,0,4.4,1.9,4.4,4.3m-3.8,-2.6c0,-.3,-.3,-.5,-.5,-.5c-1.8,0,-3.2,1.4,-3.2,3.1c0,.3,.3,.5,.5,.5c.3,0,.5,-.2,.5,-.5c0,-1.2,1,-2.1,2.2,-2.1c.2,0,.5,-.2,.5,-.5m-.5,-3.1c.2,0,.5,-.3,.5,-.5v-1.7c0,-.3,-.3,-.5,-.5,-.5c-.3,0,-.5,.2,-.5,.5v1.7c0,.2,.2,.5,.5,.5m-5.8,5.7c0,-.3,-.2,-.5,-.5,-.5h-1.7c-.2,0,-.5,.2,-.5,.5c0,.3,.3,.5,.5,.5h1.7c.3,0,.5,-.2,.5,-.5m13.7,-.5h-1.7c-.3,0,-.5,.2,-.5,.5c0,.3,.2,.5,.5,.5H593c.3,0,.5,-.2,.5,-.5c0,-.3,-.2,-.5,-.5,-.5m-3.5,-3.4c.1,0,.2,-.1,.3,-.2l1.2,-1.2c.2,-.2,.2,-.5,0,-.7c-.2,-.2,-.5,-.2,-.7,0l-1.2,1.3c-.2,.1,-.2,.4,0,.6c.1,.1,.2,.2,.4,.2m-9.2,-.2c.1,.1,.2,.2,.4,.2c.1,0,.2,-.1,.3,-.2c.2,-.2,.2,-.5,0,-.7L579.8,964c-.2,-.2,-.5,-.2,-.7,0c-.2,.2,-.2,.5,0,.7Z" class="ga_9"/>
<path d="M56.3,1233.1H909.4" class="gd_9"/>
</svg>