<?xml version="1.0" encoding="UTF-8" standalone="no"?>
<!DOCTYPE svg PUBLIC "-//W3C//DTD SVG 1.1//EN"
"http://www.w3.org/Graphics/SVG/1.1/DTD/svg11.dtd">
<svg viewBox="0 0 909 1286" version="1.1" xmlns="http://www.w3.org/2000/svg" xmlns:xlink="http://www.w3.org/1999/xlink">
<defs>
<clipPath id="c0_3"><path d="M0,1286.2V0H909.4V1286.2Z"/></clipPath>
<clipPath id="c1_3"><path d="M56.3,409.2V266.4H231.7V409.2Z"/></clipPath>
<clipPath id="c2_3"><path d="M253.3,409.2V266.4H428.7V409.2Z"/></clipPath>
<clipPath id="c3_3"><path d="M450.4,409.2V266.4H625.8V409.2Z"/></clipPath>
<clipPath id="c4_3"><path d="M647.4,409.2V266.4H822.8V409.2Z"/></clipPath>
<style type="text/css"><![CDATA[
.g0_3{
fill: #BCBEC0;
}
.g1_3{
fill: #FFFFFF;
}
.g2_3{
fill: #F1F1F2;
}
.g3_3{
fill: none;
stroke: #FFEA9F;
stroke-width: 18.333;
stroke-linecap: butt;
stroke-linejoin: miter;
}
.g4_3{
fill: none;
stroke: #000000;
stroke-width: 3.611;
stroke-linecap: butt;
stroke-linejoin: miter;
}
.g5_3{
fill: none;
stroke: #9DDCF9;
stroke-width: 13.75;
stroke-linecap: butt;
stroke-linejoin: miter;
}
.g6_3{
fill: none;
stroke: #BCBEC0;
stroke-width: 18.333;
stroke-linecap: butt;
stroke-linejoin: miter;
}
.g7_3{
fill: none;
stroke: #000000;
stroke-width: 1.527;
stroke-linecap: round;
stroke-linejoin: round;
stroke-dasharray: 0,5;
}
.g8_3{
fill: none;
stroke: #000000;
stroke-width: 1.527;
stroke-linecap: round;
stroke-linejoin: round;
}
.g9_3{
fill: none;
stroke: #000000;
stroke-width: 0.423;
stroke-linecap: butt;
stroke-linejoin: miter;
stroke-miterlimit: 4;
}
.ga_3{
}
.gb_3{
fill: #C7C8CA;
}
.gc_3{
fill: none;
stroke: #000000;
stroke-width: 0.763;
stroke-linecap: butt;
stroke-linejoin: miter;
}
]]></style>
</defs>
<path d="M550,728.7H822.8V560.5H550V728.7Z" class="g0_3"/>
<path d="M549.9,558.3h76.9v-20H549.9v20Z" class="g1_3"/>
<image clip-path="url(#c0_3)" preserveAspectRatio="none" x="55" y="460" width="194" height="81" xlink:href="img/1.png"/>
<path d="M56.3,521.6H231.7v-62H56.3v62Z" class="g2_3"/>
<image clip-path="url(#c0_3)" preserveAspectRatio="none" x="252" y="460" width="194" height="81" xlink:href="img/2.png"/>
<path d="M253.3,521.6H428.7v-62H253.3v62Z" class="g2_3"/>
<path d="M262,508.3h63.3" class="g3_3"/>
<image clip-path="url(#c0_3)" preserveAspectRatio="none" x="449" y="460" width="194" height="81" xlink:href="img/3.png"/>
<path d="M450.4,521.6H625.8v-62H450.4v62Z" class="g2_3"/>
<image clip-path="url(#c0_3)" preserveAspectRatio="none" x="646" y="460" width="194" height="81" xlink:href="img/4.png"/>
<path d="M647.4,521.6H822.8v-62H647.4v62Z" class="g2_3"/>
<path d="M56.3,138.5H822.8" class="g4_3"/>
<path d="M86.6,219.8h48.5" class="g5_3"/>
<path d="M86.6,242.7H244.7m13.7,0h185m13.8,0H648.5m13.7,0h149" class="g6_3"/>
<path d="M55.9,777.1H822.8" class="g4_3"/>
<path d="M86.6,1211.3H233.8" class="g5_3"/>
<path d="M336.7,1217.4H819.8" class="g7_3"/>
<path d="M332.1,1217.4v0m490,0v0" class="g8_3"/>
<image clip-path="url(#c1_3)" preserveAspectRatio="none" x="55" y="266" width="178" height="143" xlink:href="img/5.jpg"/>
<image clip-path="url(#c2_3)" preserveAspectRatio="none" x="253" y="264" width="176" height="147" xlink:href="img/6.jpg"/>
<image clip-path="url(#c3_3)" preserveAspectRatio="none" x="449" y="266" width="179" height="143" xlink:href="img/7.jpg"/>
<image clip-path="url(#c4_3)" preserveAspectRatio="none" x="645" y="266" width="180" height="143" xlink:href="img/8.jpg"/>
<path d="M86.6,555.9h36.2M86.6,572.7h16m-16,16.8h16" class="g5_3"/>
<image clip-path="url(#c0_3)" preserveAspectRatio="none" x="50" y="845" width="497" height="287" xlink:href="img/9.png"/>
<path d="M51.6,1112.8H529.5V844.3H51.6v268.5Z" class="g2_3"/>
<path d="M91.4,855.1h76.5M91.4,868.8h47.5M91.4,882.6H256.5M91.4,896.3h27.2M91.4,910.1h37m-37,13.7H140M91.4,951.3h61.1M91.4,992.6h66.3m-66.3,41.2h54.8m-54.8,13.8h54.2m-54.2,13.7h45.9m-45.9,13.8h34.1m-34.1,13.7h57.3m184,-220h58.5m-58.5,13.8h87.6m-87.6,27.5h52.9m-52.9,13.7h54.7m-54.7,41.3h64.6m-64.6,27.5H382m-49.3,13.7H488.8m-156.1,41.3h37.7m-37.7,27.5h64.9m-64.9,13.7h50.6" class="g3_3"/>
<path d="M290.6,852.9v254.3" class="g9_3"/>
<path d="M56.3,89.9H909.4V56.3H56.3V89.9Z" class="ga_3"/>
<path d="M603.3,1085.9H822.8V863H603.3v222.9Z" class="g0_3"/>
<path d="M603.2,860.8h76.9v-20H603.2v20Z" class="g1_3"/>
<path d="M86.6,690.3h71.5m57.7,0h48.5" class="g5_3"/>
<path d="M86.6,1157.1H336.2v-25.2H86.6v25.2Z" class="gb_3"/>
<path d="M56.3,1233.1H909.4" class="gc_3"/>
</svg>