<?xml version="1.0" encoding="UTF-8" standalone="no"?>
<!DOCTYPE svg PUBLIC "-//W3C//DTD SVG 1.1//EN"
"http://www.w3.org/Graphics/SVG/1.1/DTD/svg11.dtd">
<svg viewBox="0 0 909 1286" version="1.1" xmlns="http://www.w3.org/2000/svg" xmlns:xlink="http://www.w3.org/1999/xlink">
<defs>
<clipPath id="c0_4"><path d="M0,1286.2V0H909.4V1286.2Z"/></clipPath>
<clipPath id="c1_4"><path d="M849.3,594.6L82.9,581.2L87.5,317L90.4,150.5l766.4,13.4l-7.5,430.7Z"/></clipPath>
<clipPath id="c2_4"><path d="M109.2,914.3V791H334.6V914.3Z"/></clipPath>
<clipPath id="c3_4"><path d="M356.3,914.3V791H581.7V914.3Z"/></clipPath>
<clipPath id="c4_4"><path d="M603.5,914.3V791H828.9V914.3Z"/></clipPath>
<clipPath id="c5_4"><path d="M466.3,68.5V35h69.4V68.5Z"/></clipPath>
<style type="text/css"><![CDATA[
.g0_4{
}
.g1_4{
fill: none;
stroke: #000000;
stroke-width: 3.611;
stroke-linecap: butt;
stroke-linejoin: miter;
}
.g2_4{
fill: none;
stroke: #9DDCF9;
stroke-width: 13.75;
stroke-linecap: butt;
stroke-linejoin: miter;
}
.g3_4{
fill: none;
stroke: #BCBEC0;
stroke-width: 18.333;
stroke-linecap: butt;
stroke-linejoin: miter;
}
.g4_4{
fill: none;
stroke: #000000;
stroke-width: 1.805;
stroke-linecap: butt;
stroke-linejoin: miter;
stroke-miterlimit: 4;
}
.g5_4{
fill: #FFFFFF;
}
.g6_4{
fill: none;
stroke: #FFFFFF;
stroke-width: 3.969;
stroke-linecap: round;
stroke-linejoin: miter;
stroke-miterlimit: 4;
}
.g7_4{
fill: #E6E7E8;
}
.g8_4{
fill: none;
stroke: #000000;
stroke-width: 1.527;
stroke-linecap: round;
stroke-linejoin: round;
stroke-dasharray: 0,5;
}
.g9_4{
fill: none;
stroke: #000000;
stroke-width: 1.527;
stroke-linecap: round;
stroke-linejoin: round;
}
.ga_4{
fill: none;
stroke: #939598;
stroke-width: 0.902;
stroke-linecap: butt;
stroke-linejoin: miter;
stroke-miterlimit: 4;
stroke-dasharray: 3,2;
}
.gb_4{
fill: none;
stroke: #939598;
stroke-width: 0.902;
stroke-linecap: butt;
stroke-linejoin: miter;
stroke-miterlimit: 4;
stroke-dasharray: 3,3;
}
.gc_4{
fill: none;
stroke: #939598;
stroke-width: 0.902;
stroke-linecap: butt;
stroke-linejoin: miter;
stroke-miterlimit: 4;
}
.gd_4{
fill: #B3B9BF;
}
.ge_4{
fill: none;
stroke: #000000;
stroke-width: 0.763;
stroke-linecap: butt;
stroke-linejoin: miter;
}
]]></style>
</defs>
<path d="M0,89.9H853.1V56.3H0V89.9Z" class="g0_4"/>
<path d="M86.6,138.5H853.1" class="g1_4"/>
<path d="M139.5,673.5h78" class="g2_4"/>
<path d="M139.5,740.7h50.1m13.8,0H364.8m13.7,0H556.9m13.8,0h63.6m13.8,0h66.6M139.5,766h87.8m13.8,0H512.6m13.8,0H658.9m13.8,0H801.1" class="g3_4"/>
<path d="M87.5,1097.3H852.2V611.8H87.5v485.5Z" class="g4_4"/>
<path d="M80.1,622h81.1V601.9H80.1V622Z" class="g5_4"/>
<image clip-path="url(#c0_4)" preserveAspectRatio="none" x="79" y="148" width="792" height="463" xlink:href="img/1.png"/>
<image clip-path="url(#c1_4)" preserveAspectRatio="none" x="83" y="150" width="774" height="445" xlink:href="img/2.png"/>
<image clip-path="url(#c0_4)" preserveAspectRatio="none" x="81" y="394" width="773" height="203" opacity="0.85000604" style="mix-blend-mode: multiply;" xlink:href="img/3.png"/>
<path d="M124.8,555.8c.2,-8.4,-6.6,-15.4,-15,-15.5c-8.5,-.2,-15.5,6.5,-15.6,15c-.2,8.4,6.6,15.4,15,15.6c8.5,.1,15.5,-6.6,15.6,-15.1m-4.5,0c-.1,5.9,-5,10.7,-11,10.6c-6,-.1,-10.7,-5,-10.6,-11c.1,-6,5,-10.8,11,-10.7c6,.1,10.7,5.1,10.6,11.1m-2.5,-.1c0,-.5,-.2,-.9,-.6,-1.1L106.4,548c-.3,-.2,-.8,-.2,-1.2,0c-.4,.2,-.7,.6,-.7,1.1l-.2,12.8c0,.4,.2,.8,.6,1.1c.2,.1,.4,.1,.6,.1c.3,.1,.5,0,.7,-.1l10.9,-6.2c.4,-.2,.7,-.6,.7,-1.1Z" class="g5_4"/>
<path d="M834.9,565.4l2.3,2.4c.2,.2,.5,.3,.7,.3c.2,0,.3,0,.4,-.1c.4,-.1,.7,-.5,.7,-.9l.1,-7.3c0,-.5,-.4,-1,-1,-1l-7.2,-.1c-.5,0,-.8,.2,-1,.6c-.2,.4,-.1,.8,.2,1.1l2.3,2.4l-5.8,5.6l-5.7,-5.8l2.4,-2.3c.3,-.3,.4,-.7,.2,-1.1c-.1,-.4,-.5,-.7,-.9,-.7l-7.2,-.1c-.6,0,-1.1,.4,-1.1,1l-.1,7.2c0,.5,.2,.8,.6,1c.1,.1,.3,.1,.4,.1c.3,0,.5,-.1,.7,-.3l2.4,-2.3l5.6,5.8l-5.8,5.7l-2.3,-2.4c-.3,-.3,-.7,-.4,-1.1,-.2c-.4,.1,-.6,.5,-.7,.9l-.1,7.2c0,.6,.5,1.1,1,1.1l7.3,.1c.4,0,.8,-.2,.9,-.6c.2,-.4,.1,-.8,-.2,-1.1l-2.3,-2.4l5.9,-5.6l5.6,5.8l-2.4,2.3c-.3,.3,-.4,.7,-.2,1.1c.1,.4,.5,.6,.9,.7l7.3,.1c.5,0,1,-.5,1,-1l.1,-7.3c0,-.4,-.2,-.8,-.6,-.9c-.4,-.2,-.8,-.1,-1.1,.2l-2.4,2.3L829.1,571Z" class="g5_4"/>
<path d="M142.5,559l654.4,11.5" class="g6_4"/>
<path d="M201.1,567.9c4.4,.1,8,-3.3,8,-7.7c.1,-4.3,-3.3,-7.9,-7.7,-8c-4.3,-.1,-7.9,3.4,-8,7.7c-.1,4.4,3.4,8,7.7,8Z" class="g5_4"/>
<image clip-path="url(#c2_4)" preserveAspectRatio="none" x="109" y="791" width="226" height="126" xlink:href="img/4.jpg"/>
<image clip-path="url(#c3_4)" preserveAspectRatio="none" x="356" y="789" width="226" height="127" xlink:href="img/5.jpg"/>
<image clip-path="url(#c4_4)" preserveAspectRatio="none" x="603" y="789" width="226" height="127" xlink:href="img/6.jpg"/>
<path d="M109.2,997.4H334.6V914.3H109.2v83.1Z" class="g7_4"/>
<path d="M185.6,937.7H320.7" class="g8_4"/>
<path d="M181,937.7v0m142,0v0" class="g9_4"/>
<path d="M165.3,962.9H320.7" class="g8_4"/>
<path d="M160.7,962.9v0m162.3,0v0" class="g9_4"/>
<path d="M179.5,988.1H320.7" class="g8_4"/>
<path d="M174.8,988.1v0m148.2,0v0" class="g9_4"/>
<path d="M356.3,997.4H581.7V914.3H356.3v83.1Z" class="g7_4"/>
<path d="M432.7,937.7H567.8" class="g8_4"/>
<path d="M428.1,937.7v0m142,0v0" class="g9_4"/>
<path d="M412.4,962.9H567.8" class="g8_4"/>
<path d="M407.8,962.9v0m162.3,0v0" class="g9_4"/>
<path d="M426.6,988.1H567.8" class="g8_4"/>
<path d="M422,988.1v0m148.1,0v0" class="g9_4"/>
<path d="M603.4,997.4H828.8V914.3H603.4v83.1Z" class="g7_4"/>
<path d="M679.8,937.7H815" class="g8_4"/>
<path d="M675.2,937.7v0m142,0v0" class="g9_4"/>
<path d="M659.5,962.9H814.9" class="g8_4"/>
<path d="M654.9,962.9v0m162.3,0v0" class="g9_4"/>
<path d="M673.7,988.1H814.9" class="g8_4"/>
<path d="M669.1,988.1v0m148.1,0v0" class="g9_4"/>
<path d="M852.7,1199.6v-80.5m-3.1,-2.3h-250m-2.3,3.2v80.5m3.2,2.2H818.2" class="ga_4"/>
<path d="M823.3,1205.3c3.4,3.1,6.8,6.3,10.2,9.5" class="gb_4"/>
<path d="M835.4,1213.4v-8m3.4,-2.7h11.8" class="ga_4"/>
<path d="M852.7,1118.2v-1.4h-1.3m-252.7,0h-1.4v1.4m0,83.2v1.3h1.4m220.4,0h1.5l.2,.1c.3,.4,.7,.7,1,1.1m12.5,11.6c.3,.3,.7,.7,1.1,1v-1.3m0,-10.7v-1.8h1.7m14.3,0h1.3v-1.3" class="gc_4"/>
<path d="M590.4,1127.6h99.5v-20.3H590.4v20.3Z" class="g5_4"/>
<path d="M130.8,823.5c6,0,10.8,-4.9,10.8,-10.8c0,-6,-4.8,-10.9,-10.8,-10.9c-6,0,-10.8,4.9,-10.8,10.9c0,5.9,4.8,10.8,10.8,10.8Z" class="g5_4"/>
<path d="M377.9,823.5c6,0,10.9,-4.9,10.9,-10.8c0,-6,-4.9,-10.9,-10.9,-10.9c-6,0,-10.8,4.9,-10.8,10.9c0,5.9,4.8,10.8,10.8,10.8Z" class="g5_4"/>
<path d="M625.1,823.5c6,0,10.9,-4.9,10.9,-10.8c0,-6,-4.9,-10.9,-10.9,-10.9c-5.9,0,-10.8,4.9,-10.8,10.9c0,5.9,4.9,10.8,10.8,10.8Z" class="g5_4"/>
<image clip-path="url(#c0_4)" preserveAspectRatio="none" x="452" y="-24" width="240" height="114" xlink:href="img/7.png"/>
<path d="M455.4,73.1H677.8V0H455.4V73.1Z" class="gd_4"/>
<path clip-path="url(#c5_4)" d="M533.4,65c-.1,.3,-.2,.6,-.4,.8c-.2,.2,-.4,.3,-.7,.4c-.2,.1,-.5,.2,-.8,.2c-.3,0,-.6,-.1,-.8,-.2c-.3,-.1,-.5,-.3,-.7,-.5c-.2,-.2,-.3,-.4,-.4,-.7c-.1,-.2,-.2,-.5,-.2,-.8c0,-.3,.1,-.6,.2,-.9c.1,-.2,.3,-.5,.4,-.7c.2,-.2,.5,-.4,.7,-.5c.3,-.1,.5,-.2,.8,-.2c.3,0,.6,.1,.8,.2c.3,.1,.5,.3,.7,.5c.2,.2,.3,.4,.4,.7c.1,.3,.2,.5,.2,.9c0,.3,-.1,.6,-.2,.8m2,-2.6c-.2,-.5,-.5,-1,-.9,-1.3c-.4,-.4,-.8,-.7,-1.3,-1c-.5,-.2,-1.1,-.3,-1.7,-.3c-.2,0,-.4,0,-.6,.1c-.2,0,-.4,.1,-.5,.1c-.2,.1,-.4,.2,-.6,.3c-.1,.1,-.3,.2,-.4,.4l.1,-20c1.1,-.4,1.9,-1.5,1.9,-2.7c0,-1.7,-1.3,-3,-3,-3c-1.6,0,-2.9,1.3,-2.9,2.9c-.1,1.3,.7,2.4,1.9,2.8l-.1,21.9v1.5c0,.7,.1,1.3,.3,1.8c.3,.5,.6,1,.9,1.4c.4,.4,.9,.7,1.4,.9c.5,.2,1,.3,1.6,.3c.6,0,1.1,-.1,1.6,-.3c.5,-.2,1,-.5,1.4,-.9c.3,-.4,.6,-.8,.9,-1.4c.2,-.5,.3,-1.1,.3,-1.7c0,-.7,-.1,-1.2,-.3,-1.8Z" class="g0_4"/>
<path d="M482.9,52.4c-.2,.3,-.3,.5,-.5,.7c-.2,.2,-.5,.4,-.7,.5c-.3,.1,-.6,.2,-.9,.2c-.3,0,-.6,-.1,-.9,-.2c-.2,-.1,-.5,-.3,-.7,-.5c-.2,-.2,-.3,-.4,-.5,-.7c-.1,-.3,-.1,-.7,-.1,-1c0,-.4,0,-.7,.1,-1c.2,-.3,.3,-.6,.5,-.8c.2,-.2,.5,-.3,.7,-.4c.3,-.1,.6,-.2,.9,-.2c.3,0,.6,.1,.9,.2c.2,.1,.5,.2,.7,.4c.2,.2,.3,.5,.5,.8c.1,.3,.1,.6,.1,1c0,.3,0,.7,-.1,1m2,-2.9c-.2,-.6,-.5,-1.1,-.9,-1.5c-.5,-.4,-.9,-.7,-1.5,-.9c-.5,-.2,-1.1,-.3,-1.7,-.3c-.3,0,-.6,0,-.8,.1c-.3,0,-.6,.1,-.9,.3c-.2,.1,-.5,.2,-.7,.4c-.2,.2,-.5,.3,-.7,.5l-.9,-1h-.5V62.8h-.9v5.7h4V62.8h-.9V59.2h.1V55.3c.1,0,.3,.1,.5,.2c.2,.1,.3,.2,.5,.3c.2,.1,.4,.1,.6,.2c.2,0,.4,0,.6,0c.6,0,1.2,-.1,1.7,-.3c.6,-.2,1,-.5,1.5,-.9c.4,-.4,.7,-.9,.9,-1.5c.3,-.5,.4,-1.2,.4,-1.9c0,-.7,-.1,-1.3,-.4,-1.9Z" class="g0_4"/>
<path clip-path="url(#c5_4)" d="M466.3,47.5c0,-.5,.1,-.9,.2,-1.4c.2,-.4,.5,-.7,.8,-1c.3,-.4,.6,-.6,1.1,-.8c.4,-.2,.8,-.2,1.3,-.2h5.2v2.2h-5.2c-.2,0,-.3,.1,-.5,.1c-.1,.1,-.2,.2,-.3,.3c-.1,.1,-.2,.2,-.3,.3c0,.2,-.1,.3,-.1,.5c0,.1,.1,.3,.1,.4c.1,.2,.2,.3,.3,.4c.1,.1,.2,.2,.3,.2c.2,.1,.3,.1,.5,.1H472c.4,0,.9,.1,1.3,.3c.4,.2,.8,.4,1.1,.7c.3,.3,.5,.7,.7,1.1c.2,.4,.3,.9,.3,1.3c0,.5,-.1,1,-.3,1.4c-.2,.4,-.4,.7,-.7,1.1c-.3,.3,-.7,.5,-1.1,.7c-.4,.2,-.9,.3,-1.3,.3h-5.1V53.2H472c.1,0,.3,-.1,.4,-.1c.2,-.1,.3,-.1,.4,-.3c.1,-.1,.2,-.2,.2,-.3c.1,-.2,.1,-.3,.1,-.5c0,-.1,0,-.3,-.1,-.4c0,-.1,-.1,-.3,-.2,-.4c-.1,-.1,-.2,-.2,-.4,-.2c-.1,-.1,-.3,-.1,-.4,-.1h-2.3c-.5,0,-.9,-.1,-1.3,-.3c-.5,-.1,-.8,-.4,-1.1,-.7c-.3,-.3,-.6,-.7,-.8,-1.1c-.1,-.4,-.2,-.9,-.2,-1.3Z" class="g0_4"/>
<path d="M492.6,51.1c0,-.3,-.1,-.6,-.2,-.8c-.1,-.3,-.3,-.6,-.5,-.8c-.2,-.2,-.4,-.4,-.7,-.5c-.2,-.1,-.5,-.2,-.8,-.2c-.3,0,-.6,.1,-.8,.2c-.3,.1,-.5,.2,-.7,.4c-.2,.2,-.4,.4,-.5,.7c-.1,.3,-.2,.7,-.2,1c0,.4,.1,.7,.2,1c.1,.3,.3,.5,.5,.7c.2,.2,.4,.4,.7,.5c.2,.1,.5,.1,.8,.1c.3,0,.6,0,.8,-.2c.3,-.1,.5,-.3,.7,-.5c.2,-.2,.4,-.4,.5,-.7c.1,-.3,.2,-.6,.2,-.9m2.1,4.4h-.5l-.8,-1.2c-.2,.2,-.5,.3,-.7,.5c-.2,.2,-.5,.3,-.7,.4c-.3,.2,-.5,.2,-.8,.3c-.3,.1,-.5,.1,-.8,.1c-.6,0,-1.2,-.1,-1.7,-.3c-.5,-.2,-1,-.5,-1.4,-.9c-.4,-.3,-.7,-.8,-.9,-1.4c-.2,-.5,-.4,-1.2,-.4,-1.9c0,-.6,.2,-1.2,.4,-1.8c.2,-.6,.5,-1,.9,-1.4c.4,-.4,.9,-.7,1.4,-1c.5,-.2,1.1,-.3,1.7,-.3c.3,0,.5,0,.8,.1c.3,.1,.5,.2,.8,.3c.3,.1,.5,.3,.7,.4c.3,.2,.5,.4,.7,.6l.8,-1h.5Z" class="g0_4"/>
<path d="M498.6,55.5l-2.2,-.1V46.9h.5l.7,.9c.4,-.4,.8,-.6,1.2,-.8c.5,-.1,.9,-.2,1.4,-.2c.5,0,1,.1,1.5,.3c.5,.2,.9,.5,1.2,.8c.3,.3,.6,.8,.8,1.2c.2,.5,.3,1,.3,1.5v4.9h-2.2V50.6c0,-.2,0,-.4,-.1,-.6c-.1,-.2,-.2,-.4,-.3,-.6c-.2,-.1,-.4,-.2,-.5,-.3c-.2,-.1,-.5,-.1,-.7,-.1c-.2,0,-.4,0,-.6,.1c-.2,.1,-.4,.2,-.5,.3c-.2,.2,-.3,.4,-.4,.6c-.1,.2,-.1,.4,-.1,.6Z" class="g0_4"/>
<path d="M507.7,55.5h-2.1V46.9h2.1v8.6Zm.4,-10.9c0,.2,0,.4,-.1,.6c-.1,.2,-.2,.3,-.3,.4c-.1,.2,-.3,.3,-.5,.4c-.2,0,-.3,.1,-.5,.1c-.3,0,-.4,-.1,-.6,-.1c-.2,-.1,-.3,-.2,-.5,-.4c-.1,-.1,-.2,-.2,-.3,-.4c-.1,-.2,-.1,-.4,-.1,-.6c0,-.2,0,-.4,.1,-.5c.1,-.2,.2,-.4,.3,-.5c.2,-.1,.3,-.2,.5,-.3c.2,-.1,.3,-.1,.6,-.1c.2,0,.3,0,.5,.1c.2,.1,.4,.2,.5,.3c.1,.1,.2,.3,.3,.5c.1,.1,.1,.3,.1,.5Z" class="g0_4"/>
<path d="M514.1,55.5h-5V53.3h5c.1,0,.2,-.1,.4,-.2c.1,-.1,.1,-.2,.1,-.3c0,-.2,0,-.3,-.1,-.3c-.2,-.1,-.3,-.1,-.4,-.1h-2.3c-.4,0,-.7,-.1,-1,-.2c-.4,-.2,-.7,-.4,-.9,-.6c-.2,-.3,-.4,-.6,-.6,-.9c-.1,-.3,-.2,-.7,-.2,-1c0,-.4,.1,-.8,.2,-1.1c.2,-.3,.4,-.6,.6,-.9c.2,-.2,.5,-.4,.9,-.5c.3,-.2,.6,-.2,1,-.2h4.4v2.1h-4.4c-.1,0,-.3,.1,-.4,.2c-.1,.1,-.1,.2,-.1,.4c0,.1,0,.2,.1,.4c.1,.1,.3,.1,.4,.1h2.3c.3,0,.7,.1,1,.2c.4,.1,.6,.3,.9,.5c.2,.2,.4,.5,.6,.8c.1,.3,.2,.7,.2,1.1c0,.3,-.1,.7,-.2,1c-.2,.3,-.4,.6,-.6,.9c-.3,.2,-.5,.4,-.9,.5c-.3,.2,-.7,.3,-1,.3Z" class="g0_4"/>
<path d="M520.1,55.5h-2.2V43.6h2.2v3.7c.3,-.2,.5,-.3,.8,-.4c.3,-.1,.6,-.1,.8,-.1c.6,0,1.1,.1,1.5,.3c.5,.2,.9,.4,1.2,.8c.4,.3,.6,.7,.8,1.2c.2,.5,.3,1,.3,1.5v4.9h-2.1V50.6c0,-.2,-.1,-.4,-.2,-.6c0,-.2,-.2,-.4,-.3,-.6c-.2,-.1,-.3,-.2,-.5,-.3c-.2,-.1,-.4,-.1,-.7,-.1c-.2,0,-.4,0,-.6,.1c-.2,.1,-.4,.2,-.5,.3c-.2,.2,-.3,.4,-.4,.6c-.1,.2,-.1,.4,-.1,.6Z" class="g0_4"/>
<path d="M510.1,68.2h-2.3V56.8h2.3v4.6h4.6V56.8H517V68.2h-2.3V63.7h-4.6Z" class="g0_4"/>
<path d="M525,67.3c-.2,.1,-.4,.3,-.6,.4c-.2,.1,-.4,.3,-.6,.4c-.2,.1,-.4,.2,-.7,.2c-.2,.1,-.4,.1,-.7,.1c-.5,0,-1,-.1,-1.4,-.3c-.5,-.2,-.9,-.4,-1.3,-.8c-.3,-.3,-.6,-.7,-.8,-1.2c-.2,-.5,-.3,-1.1,-.3,-1.7V59.7h2.2v4.7c0,.3,0,.6,.1,.8c.1,.2,.2,.4,.4,.6c.1,.1,.3,.2,.5,.3c.2,.1,.4,.1,.6,.1c.3,0,.5,0,.7,-.1c.2,-.1,.3,-.2,.5,-.4c.1,-.2,.2,-.4,.3,-.6c.1,-.2,.2,-.4,.2,-.7V59.7h2.1v8.6h-.5Z" class="g0_4"/>
<path d="M470.1,42.4h-1.5V36.5h-2.2V35h6v1.5h-2.3Z" class="g0_4"/>
<path d="M481.9,38.1c0,0,-.1,0,-.2,0c0,0,-.1,0,-.2,0c-.1,0,-.3,0,-.5,.1c-.2,.1,-.3,.2,-.4,.3c-.2,.1,-.3,.3,-.3,.5c-.1,.2,-.2,.4,-.2,.6q0,.1,.1,.2q0,.1,0,.2q0,.1,0,.2c0,0,.1,.1,.1,.1Zm-.7,3q.1,0,.2,0c0,0,.1,0,.1,0c.2,0,.3,0,.5,0c.1,-.1,.2,-.1,.3,-.2c.1,-.1,.2,-.2,.3,-.3c.1,-.1,.2,-.2,.2,-.3l1.1,1c-.2,.2,-.3,.4,-.5,.6c-.2,.1,-.3,.2,-.5,.3c-.2,.1,-.5,.2,-.7,.3c-.2,0,-.4,.1,-.7,.1c-.3,0,-.7,-.1,-1.1,-.3c-.3,-.1,-.6,-.3,-.9,-.6c-.2,-.2,-.4,-.5,-.6,-.9c-.1,-.4,-.2,-.8,-.2,-1.2c0,-.4,.1,-.8,.2,-1.2c.2,-.4,.4,-.7,.6,-.9c.3,-.3,.6,-.5,.9,-.6c.4,-.2,.8,-.2,1.1,-.2c.3,0,.5,0,.7,0c.3,.1,.5,.2,.7,.3c.2,.1,.4,.2,.5,.4c.2,.1,.4,.3,.5,.5Z" class="g0_4"/>
<path d="M473,38v4.5h1.4V39.3c0,-.2,0,-.3,.1,-.4c.1,-.2,.1,-.3,.2,-.4c.1,-.1,.2,-.1,.4,-.2c.1,-.1,.2,-.1,.4,-.1c.1,0,.3,0,.4,.1c.1,.1,.3,.1,.3,.2c.1,.1,.2,.2,.3,.4c0,.1,.1,.2,.1,.4v3.2H478V39.3c0,-.4,-.1,-.7,-.2,-1c-.1,-.3,-.3,-.6,-.5,-.8c-.3,-.2,-.5,-.4,-.8,-.5c-.3,-.2,-.7,-.2,-1,-.2c-.2,0,-.4,0,-.6,.1c-.1,0,-.3,.1,-.5,.2V35H473Z" class="g0_4"/>
<image clip-path="url(#c0_4)" preserveAspectRatio="none" x="683" y="145" width="171" height="173" xlink:href="img/8.png"/>
<path d="M763.4,300.9c42.2,0,76.5,-34.3,76.5,-76.5c0,-42.3,-34.3,-76.6,-76.5,-76.6c-42.3,0,-76.5,34.3,-76.5,76.6c0,42.2,34.2,76.5,76.5,76.5Z" class="g0_4"/>
<path clip-path="url(#c0_4)" d="M-853,1233.1H0m0,0H853.1" class="ge_4"/>
</svg>