<?xml version="1.0" encoding="UTF-8" standalone="no"?>
<!DOCTYPE svg PUBLIC "-//W3C//DTD SVG 1.1//EN"
"http://www.w3.org/Graphics/SVG/1.1/DTD/svg11.dtd">
<svg viewBox="0 0 909 1286" version="1.1" xmlns="http://www.w3.org/2000/svg" xmlns:xlink="http://www.w3.org/1999/xlink">
<defs>
<clipPath id="c0_16"><path d="M0,1286.2V0H909.4V1286.2Z"/></clipPath>
<style type="text/css"><![CDATA[
.g0_16{
fill: none;
stroke: #F58465;
stroke-width: 3.611;
stroke-linecap: butt;
stroke-linejoin: miter;
}
.g1_16{
fill: #E2C95F;
}
.g2_16{
fill: #FFFFFF;
}
.g3_16{
}
.g4_16{
fill: none;
stroke: #000000;
stroke-width: 3.611;
stroke-linecap: butt;
stroke-linejoin: miter;
}
.g5_16{
fill: none;
stroke: #000000;
stroke-width: 1.527;
stroke-linecap: round;
stroke-linejoin: round;
stroke-dasharray: 0,5;
}
.g6_16{
fill: none;
stroke: #000000;
stroke-width: 1.527;
stroke-linecap: round;
stroke-linejoin: round;
}
.g7_16{
fill: #F2E3B4;
}
.g8_16{
fill: none;
stroke: #BFA500;
stroke-width: 1.805;
stroke-linecap: butt;
stroke-linejoin: miter;
stroke-miterlimit: 4;
}
.g9_16{
fill: #F1EFED;
}
.ga_16{
fill: none;
stroke: #000000;
stroke-width: 0.763;
stroke-linecap: butt;
stroke-linejoin: miter;
}
]]></style>
</defs>
<path clip-path="url(#c0_16)" d="M-853,138.5H853.1" class="g0_16"/>
<path d="M0,1286.2H909.4V0H0V1286.2Z" class="g1_16"/>
<path d="M74.7,1215.9H865V166.2H74.7V1215.9Z" class="g2_16"/>
<path d="M0,89.9H853.1V56.3H0V89.9Z" class="g3_16"/>
<path clip-path="url(#c0_16)" d="M-853,138.5H853.1" class="g4_16"/>
<path d="M122.3,940.1H674.7" class="g5_16"/>
<path d="M117.7,940.1v0m559.3,0v0" class="g6_16"/>
<path d="M122.3,956.9H674.7" class="g5_16"/>
<path d="M117.7,956.9v0m559.3,0v0" class="g6_16"/>
<path d="M122.3,973.7H674.7" class="g5_16"/>
<path d="M117.7,973.7v0m559.3,0v0" class="g6_16"/>
<path d="M122.3,990.5H674.7" class="g5_16"/>
<path d="M117.7,990.5v0m559.3,0v0" class="g6_16"/>
<path d="M122.3,1007.3H674.7" class="g5_16"/>
<path d="M117.7,1007.3v0m559.3,0v0" class="g6_16"/>
<path d="M122.3,1024.1H674.7" class="g5_16"/>
<path d="M117.7,1024.1v0m559.3,0v0" class="g6_16"/>
<path d="M122.3,1091.4H674.7" class="g5_16"/>
<path d="M117.7,1091.4v0m559.3,0v0" class="g6_16"/>
<path d="M122.3,1108.2H674.7" class="g5_16"/>
<path d="M117.7,1108.2v0m559.3,0v0" class="g6_16"/>
<path d="M122.3,1125H674.7" class="g5_16"/>
<path d="M117.7,1125v0m559.3,0v0" class="g6_16"/>
<path d="M122.3,1141.8H674.7" class="g5_16"/>
<path d="M117.7,1141.8v0m559.3,0v0" class="g6_16"/>
<path d="M122.3,1158.6H674.7" class="g5_16"/>
<path d="M117.7,1158.6v0m559.3,0v0" class="g6_16"/>
<path d="M122.3,1175.4H674.7" class="g5_16"/>
<path d="M117.7,1175.4v0m559.3,0v0" class="g6_16"/>
<path d="M701.1,946H852V863H701.1v83Z" class="g7_16"/>
<path d="M701.1,1098.2h152V981.6h-152v116.6Z" class="g7_16"/>
<path d="M87.5,828.5H852.2V191.6H87.5V828.5Z" class="g8_16"/>
<path d="M78,200.9h84.6V180.6H78v20.3Z" class="g2_16"/>
<image clip-path="url(#c0_16)" preserveAspectRatio="none" x="98" y="206" width="739" height="608" xlink:href="img/1.png"/>
<path d="M101.3,208.9l-.5,589.7l721,-.4l.5,-589.7Z" class="g9_16"/>
<path clip-path="url(#c0_16)" d="M-853,1233.1H0m0,0H853.1" class="ga_16"/>
</svg>