<?xml version="1.0" encoding="UTF-8" standalone="no"?>
<!DOCTYPE svg PUBLIC "-//W3C//DTD SVG 1.1//EN"
"http://www.w3.org/Graphics/SVG/1.1/DTD/svg11.dtd">
<svg viewBox="0 0 909 1286" version="1.1" xmlns="http://www.w3.org/2000/svg" xmlns:xlink="http://www.w3.org/1999/xlink">
<defs>
<clipPath id="c0_23"><path d="M56.3,560.5V409.2H231.9V560.5Z"/></clipPath>
<clipPath id="c1_23"><path d="M56.3,778.9V627.7H231.9V778.9Z"/></clipPath>
<clipPath id="c2_23"><path d="M56.3,980.6V829.4H231.9V980.6Z"/></clipPath>
<clipPath id="c3_23"><path d="M56.3,1182.3V1031H231.9v151.3Z"/></clipPath>
<clipPath id="c4_23"><path d="M56.3,342V190.7H231.9V342Z"/></clipPath>
<clipPath id="c5_23"><path d="M647.4,778.9V627.7H822.8V778.9Z"/></clipPath>
<clipPath id="c6_23"><path d="M647.4,980.6V829.4H822.8V980.6Z"/></clipPath>
<clipPath id="c7_23"><path d="M647.4,1182.3V1031H822.8v151.3Z"/></clipPath>
<clipPath id="c8_23"><path d="M647.4,342V190.7H822.8V342Z"/></clipPath>
<clipPath id="c9_23"><path d="M253.5,560.5V409.2H428.7V560.5Z"/></clipPath>
<clipPath id="ca_23"><path d="M253.5,778.9V627.7H428.7V778.9Z"/></clipPath>
<clipPath id="cb_23"><path d="M253.5,980.6V829.4H428.7V980.6Z"/></clipPath>
<clipPath id="cc_23"><path d="M253.5,1182.3V1031H428.7v151.3Z"/></clipPath>
<clipPath id="cd_23"><path d="M253.5,342V190.7H428.7V342Z"/></clipPath>
<clipPath id="ce_23"><path d="M450.6,560.5V409.2H625.8V560.5Z"/></clipPath>
<clipPath id="cf_23"><path d="M450.6,778.9V627.7H625.8V778.9Z"/></clipPath>
<clipPath id="cg_23"><path d="M450.6,980.6V829.4H625.8V980.6Z"/></clipPath>
<clipPath id="ch_23"><path d="M450.6,1182.3V1031H625.8v151.3Z"/></clipPath>
<clipPath id="ci_23"><path d="M450.6,342V190.7H625.8V342Z"/></clipPath>
<clipPath id="cj_23"><path d="M0,1286.2V0H909.4V1286.2Z"/></clipPath>
<clipPath id="ck_23"><path d="M689.5,549.2V420.5h91.2V549.2Z"/></clipPath>
<style type="text/css"><![CDATA[
.g0_23{
fill: #E9E9E1;
}
.g1_23{
}
.g2_23{
fill: #D7D7C9;
}
.g3_23{
fill: none;
stroke: #000000;
stroke-width: 3.611;
stroke-linecap: butt;
stroke-linejoin: miter;
}
.g4_23{
fill: #FFFFFF;
}
.g5_23{
fill: none;
stroke: #000000;
stroke-width: 0.763;
stroke-linecap: butt;
stroke-linejoin: miter;
}
]]></style>
</defs>
<path d="M-21.6,1307.9H1840.6V-21.6H-21.6V1307.9Z" class="g0_23"/>
<path d="M56.3,89.9H909.4V56.3H56.3V89.9Z" class="g1_23"/>
<path d="M0,1286.2H909.4V0H0V1286.2Z" class="g2_23"/>
<path d="M56.3,89.9H822.8V56.3H56.3V89.9Z" class="g1_23"/>
<path d="M56.3,89.9H909.4V56.3H56.3V89.9Z" class="g1_23"/>
<image clip-path="url(#c0_23)" preserveAspectRatio="none" x="54" y="409" width="180" height="151" xlink:href="img/1.jpg"/>
<image clip-path="url(#c1_23)" preserveAspectRatio="none" x="54" y="628" width="180" height="151" xlink:href="img/2.jpg"/>
<image clip-path="url(#c2_23)" preserveAspectRatio="none" x="55" y="827" width="179" height="156" xlink:href="img/3.jpg"/>
<image clip-path="url(#c3_23)" preserveAspectRatio="none" x="54" y="1031" width="180" height="151" xlink:href="img/4.jpg"/>
<image clip-path="url(#c4_23)" preserveAspectRatio="none" x="55" y="191" width="179" height="151" xlink:href="img/5.jpg"/>
<path d="M647.4,560.5H822.8V409.2H647.4V560.5Z" class="g0_23"/>
<image clip-path="url(#c5_23)" preserveAspectRatio="none" x="646" y="628" width="179" height="151" xlink:href="img/6.jpg"/>
<image clip-path="url(#c6_23)" preserveAspectRatio="none" x="646" y="827" width="179" height="156" xlink:href="img/7.jpg"/>
<image clip-path="url(#c7_23)" preserveAspectRatio="none" x="645" y="1031" width="180" height="151" xlink:href="img/8.jpg"/>
<image clip-path="url(#c8_23)" preserveAspectRatio="none" x="646" y="191" width="179" height="151" xlink:href="img/9.jpg"/>
<image clip-path="url(#c9_23)" preserveAspectRatio="none" x="252" y="409" width="178" height="151" xlink:href="img/10.jpg"/>
<image clip-path="url(#ca_23)" preserveAspectRatio="none" x="251" y="628" width="180" height="151" xlink:href="img/11.jpg"/>
<image clip-path="url(#cb_23)" preserveAspectRatio="none" x="251" y="827" width="180" height="156" xlink:href="img/12.jpg"/>
<image clip-path="url(#cc_23)" preserveAspectRatio="none" x="252" y="1029" width="178" height="155" xlink:href="img/13.jpg"/>
<image clip-path="url(#cd_23)" preserveAspectRatio="none" x="252" y="191" width="179" height="151" xlink:href="img/14.jpg"/>
<image clip-path="url(#ce_23)" preserveAspectRatio="none" x="448" y="407" width="180" height="156" xlink:href="img/15.jpg"/>
<image clip-path="url(#cf_23)" preserveAspectRatio="none" x="449" y="628" width="178" height="151" xlink:href="img/16.jpg"/>
<image clip-path="url(#cg_23)" preserveAspectRatio="none" x="448" y="828" width="180" height="154" xlink:href="img/17.jpg"/>
<image clip-path="url(#ch_23)" preserveAspectRatio="none" x="449" y="1029" width="179" height="155" xlink:href="img/18.jpg"/>
<image clip-path="url(#ci_23)" preserveAspectRatio="none" x="448" y="191" width="180" height="151" xlink:href="img/19.jpg"/>
<g clip-path="url(#cj_23)">
<path d="M56.3,138.5H1762.6" class="g3_23"/>
<image preserveAspectRatio="none" x="686" y="418" width="108" height="147" xlink:href="img/20.png"/>
</g>
<path d="M689.5,549.2h91.2V420.5H689.5V549.2Z" class="g4_23"/>
<image clip-path="url(#ck_23)" preserveAspectRatio="none" x="687" y="418" width="96" height="133" xlink:href="img/21.png"/>
<path d="M56.3,1233.1H909.4" class="g5_23"/>
</svg>