<svg xmlns="http://www.w3.org/2000/svg" xmlns:xlink="http://www.w3.org/1999/xlink" id="body_3" preserveAspectRatio="xMinYMin meet" viewBox="0 0 793 1121"><defs><clipPath id="1"><path id="" clip-rule="evenodd" transform="matrix(1 0 0 1 0 0)" d="M0 841L0 -0.8900146L0 -0.8900146L595.276 -0.8900146L595.276 -0.8900146L595.276 841L595.276 841L0 841z" /></clipPath><clipPath id="2"><path id="" clip-rule="evenodd" transform="matrix(1 0 0 1 0 0)" d="M0 841L595.276 841L595.276 841L595.276 -0.8900146L595.276 -0.8900146L0 -0.8900146z" /></clipPath><mask id="m1"><clipPath id="3"><path id="" clip-rule="evenodd" transform="matrix(1 0 0 1 0 0)" d="M34.7203 297.83L166.12 297.83L166.12 297.83L166.12 355.43L166.12 355.43L34.7203 355.43z" /></clipPath><g><g><g clip-path="url(#3)"><g transform="matrix(0.5972728 0 0 0.5938145 34.72033 297.8305)"><g transform="matrix(1 0 0 1 0 0)"><image x="0" y="0" xlink:href="img_07.png" width="220" height="97" /></g></g></g></g></g></mask><clipPath id="4"><path id="" clip-rule="evenodd" transform="matrix(1 0 0 1 0 0)" d="M36.8803 299.99L163.96 299.99L163.96 299.99L163.96 352.55L163.96 352.55L36.8803 352.55z" /></clipPath><clipPath id="5"><path id="" clip-rule="evenodd" transform="matrix(1 0 0 1 0 0)" d="M0 841L595.276 841L595.276 841L595.276 -0.8900146L595.276 -0.8900146L0 -0.8900146z" /></clipPath><mask id="m2"><clipPath id="6"><path id="" clip-rule="evenodd" transform="matrix(1 0 0 1 0 0)" d="M163.697 297.83L295.097 297.83L295.097 297.83L295.097 355.43L295.097 355.43L163.697 355.43z" /></clipPath><g><g><g clip-path="url(#6)"><g transform="matrix(0.5972728 0 0 0.5938145 163.6967 297.8305)"><g transform="matrix(1 0 0 1 0 0)"><image x="0" y="0" xlink:href="img_07.png" width="220" height="97" /></g></g></g></g></g></mask><clipPath id="7"><path id="" clip-rule="evenodd" transform="matrix(1 0 0 1 0 0)" d="M165.857 299.99L292.937 299.99L292.937 299.99L292.937 352.55L292.937 352.55L165.857 352.55z" /></clipPath><clipPath id="8"><path id="" clip-rule="evenodd" transform="matrix(1 0 0 1 0 0)" d="M0 841L595.276 841L595.276 841L595.276 -0.8900146L595.276 -0.8900146L0 -0.8900146z" /></clipPath><mask id="m3"><clipPath id="9"><path id="" clip-rule="evenodd" transform="matrix(1 0 0 1 0 0)" d="M292.673 297.83L424.073 297.83L424.073 297.83L424.073 355.43L424.073 355.43L292.673 355.43z" /></clipPath><g><g><g clip-path="url(#9)"><g transform="matrix(0.5972728 0 0 0.5938145 292.6731 297.8305)"><g transform="matrix(1 0 0 1 0 0)"><image x="0" y="0" xlink:href="img_07.png" width="220" height="97" /></g></g></g></g></g></mask><clipPath id="10"><path id="" clip-rule="evenodd" transform="matrix(1 0 0 1 0 0)" d="M294.833 299.99L421.913 299.99L421.913 299.99L421.913 352.55L421.913 352.55L294.833 352.55z" /></clipPath><clipPath id="11"><path id="" clip-rule="evenodd" transform="matrix(1 0 0 1 0 0)" d="M0 841L595.276 841L595.276 841L595.276 -0.8900146L595.276 -0.8900146L0 -0.8900146z" /></clipPath><mask id="m4"><clipPath id="12"><path id="" clip-rule="evenodd" transform="matrix(1 0 0 1 0 0)" d="M421.649 297.83L554.129 297.83L554.129 297.83L554.129 355.43L554.129 355.43L421.649 355.43z" /></clipPath><g><g><g clip-path="url(#12)"><g transform="matrix(0.5994571 0 0 0.5938145 421.6492 297.8305)"><g transform="matrix(1 0 0 1 0 0)"><image x="0" y="0" xlink:href="img_08.png" width="221" height="97" /></g></g></g></g></g></mask><clipPath id="13"><path id="" clip-rule="evenodd" transform="matrix(1 0 0 1 0 0)" d="M423.809 299.99L550.889 299.99L550.889 299.99L550.889 352.55L550.889 352.55L423.809 352.55z" /></clipPath><clipPath id="14"><path id="" clip-rule="evenodd" transform="matrix(1 0 0 1 0 0)" d="M36.85 266.96L151.653 266.96L151.653 266.96L151.653 173.461L151.653 173.461L36.85 173.461z" /></clipPath><clipPath id="15"><path id="" clip-rule="evenodd" transform="matrix(1 0 0 1 0 0)" d="M165.827 173.461L280.63 173.461L280.63 173.461L280.63 266.96L280.63 266.96L165.827 266.96z" /></clipPath><clipPath id="16"><path id="" clip-rule="evenodd" transform="matrix(1 0 0 1 0 0)" d="M294.803 173.461L409.606 173.461L409.606 173.461L409.606 266.96L409.606 266.96L294.803 266.96z" /></clipPath><clipPath id="17"><path id="" clip-rule="evenodd" transform="matrix(1 0 0 1 0 0)" d="M423.779 173.461L538.582 173.461L538.582 173.461L538.582 266.96L538.582 266.96L423.779 266.96z" /></clipPath><clipPath id="18"><path id="" clip-rule="evenodd" transform="matrix(1 0 0 1 0 0)" d="M0 841L595.276 841L595.276 841L595.276 -0.8900146L595.276 -0.8900146L0 -0.8900146z" /></clipPath><mask id="m5"><clipPath id="19"><path id="" clip-rule="evenodd" transform="matrix(1 0 0 1 0 0)" d="M31.6724 549.6L361.432 549.6L361.432 549.6L361.432 742.56L361.432 742.56L31.6724 742.56z" /></clipPath><g><g><g clip-path="url(#19)"><g transform="matrix(0.5995637 0 0 0.5992548 31.67236 549.5999)"><g transform="matrix(1 0 0 1 0 0)"><image x="0" y="0" xlink:href="img_13.png" width="550" height="322" /></g></g></g></g></g></mask><clipPath id="20"><path id="" clip-rule="evenodd" transform="matrix(1 0 0 1 0 0)" d="M33.8324 551.76L358.552 551.76L358.552 551.76L358.552 739.68L358.552 739.68L33.8324 739.68z" /></clipPath><clipPath id="21"><path id="" clip-rule="evenodd" transform="matrix(1 0 0 1 0 0)" d="M0 841L595.276 841L595.276 841L595.276 -0.8900146L595.276 -0.8900146L0 -0.8900146z" /></clipPath></defs><g transform="matrix(1.333333 0 0 1.333333 0 0)"><g clip-path="url(#1)"><path id="1" transform="matrix(1 0 0 -1 0 841)" d="M360 364.928L538.582 364.928L538.582 475.04L360 475.04z" stroke="none" fill="#BBBDC0" fill-rule="nonzero" /><path id="137" transform="matrix(1 0 0 -1 0 841)" d="M359.95 476.457L410.268 476.457L410.268 489.577L359.95 489.577z" stroke="none" fill="#FFFFFF" fill-rule="nonzero" /><g clip-path="url(#2)"><g mask="url(#m1)"><g clip-path="url(#4)"><path id="149" transform="matrix(1 0 0 -1 0 841)" d="M36.88 541.01L163.96 541.01L163.96 488.45L36.88 488.45z" stroke="none" fill="#000000" fill-rule="nonzero" fill-opacity="0.1960784" /></g></g></g><path id="150" transform="matrix(1 0 0 -1 0 841)" d="M36.85 500.501L151.653 500.501L151.653 541.039L36.85 541.039z" stroke="none" fill="#F1F1F2" fill-rule="nonzero" /><g clip-path="url(#5)"><g mask="url(#m2)"><g clip-path="url(#7)"><path id="188" transform="matrix(1 0 0 -1 0 841)" d="M165.857 541.01L292.937 541.01L292.937 488.45L165.857 488.45z" stroke="none" fill="#000000" fill-rule="nonzero" fill-opacity="0.1960784" /></g></g></g><path id="189" transform="matrix(1 0 0 -1 0 841)" d="M165.827 500.501L280.63 500.501L280.63 541.039L165.827 541.039z" stroke="none" fill="#F0F1F1" fill-rule="nonzero" /><path id="190" transform="matrix(1 0 0 -1 0 841)" d="M171.4961 509.1702L212.8961 509.1702" stroke="#FEEA9E" stroke-width="12" fill="none" /><g clip-path="url(#8)"><g mask="url(#m3)"><g clip-path="url(#10)"><path id="227" transform="matrix(1 0 0 -1 0 841)" d="M294.833 541.01L421.913 541.01L421.913 488.45L294.833 488.45z" stroke="none" fill="#000000" fill-rule="nonzero" fill-opacity="0.1960784" /></g></g></g><path id="228" transform="matrix(1 0 0 -1 0 841)" d="M294.803 500.501L409.606 500.501L409.606 541.039L294.803 541.039z" stroke="none" fill="#F0F1F1" fill-rule="nonzero" /><g clip-path="url(#11)"><g mask="url(#m4)"><g clip-path="url(#13)"><path id="264" transform="matrix(1 0 0 -1 0 841)" d="M423.809 541.01L550.889 541.01L550.889 488.45L423.809 488.45z" stroke="none" fill="#000000" fill-rule="nonzero" fill-opacity="0.1960784" /></g></g></g><path id="265" transform="matrix(1 0 0 -1 0 841)" d="M423.779 500.501L538.582 500.501L538.582 541.039L423.779 541.039z" stroke="none" fill="#F0F1F1" fill-rule="nonzero" /><path id="308" transform="matrix(1 0 0 -1 0 841)" d="M36.8504 751.2201L538.5824 751.2201" stroke="#000000" stroke-width="2.364" fill="none" /><path id="309" transform="matrix(1 0 0 -1 0 841)" d="M56.6929 698.0394L88.4449 698.0394" stroke="#9DDCF9" stroke-width="9" fill="none" /><path id="310" transform="matrix(1 0 0 -1 0 841)" d="M56.6929 683.0394L160.1649 683.0394" stroke="#BBBDC0" stroke-width="12" fill="none" /><path id="311" transform="matrix(1 0 0 -1 0 841)" d="M169.1651 683.0394L290.2501 683.0394" stroke="#BBBDC0" stroke-width="12" fill="none" /><path id="312" transform="matrix(1 0 0 -1 0 841)" d="M299.25 683.0394L424.448 683.0394" stroke="#BBBDC0" stroke-width="12" fill="none" /><path id="313" transform="matrix(1 0 0 -1 0 841)" d="M433.4476 683.0394L530.9976 683.0394" stroke="#BBBDC0" stroke-width="12" fill="none" /><path id="617" transform="matrix(1 0 0 -1 0 841)" d="M36.614 333.2201L538.583 333.2201" stroke="#000000" stroke-width="2.364" fill="none" /><path id="780" transform="matrix(1 0 0 -1 0 841)" d="M56.6929 49.0394L153.0189 49.0394" stroke="#9CDCF8" stroke-width="9" fill="none" /><path id="781" transform="matrix(1 0 0 -1 0 841)" d="M220.3972 45.0394L536.5842 45.0394" stroke="#000000" stroke-width="1" stroke-linecap="round" stroke-dasharray="1,1.997" fill="none" /><path id="782" transform="matrix(1 0 0 -1 0 841)" d="M538.0822 45.0394L538.0822 45.0394M217.4002 45.0394L217.4002 45.0394" stroke="#000000" stroke-width="1" stroke-linecap="round" fill="none" /><g clip-path="url(#14)"><g transform="matrix(0.4790511 0 0 0.4770408 35.80772 173.4606)"><g transform="matrix(1 0 0 1 0 0)"><image x="0" y="0" xlink:href="img_09.png" width="244" height="196" /></g></g></g><g clip-path="url(#15)"><g transform="matrix(0.4415503 0 0 0.5351042 165.8267 172.0512)"><g transform="matrix(1 0 0 1 0 0)"><image x="0" y="0" xlink:href="img_10.png" width="260" height="180" /></g></g></g><g clip-path="url(#16)"><g transform="matrix(0.5747403 0 0 0.5736197 293.5811 173.4606)"><g transform="matrix(1 0 0 1 0 0)"><image x="0" y="0" xlink:href="img_11.png" width="204" height="163" /></g></g></g><g clip-path="url(#17)"><g transform="matrix(0.5964913 0 0 0.5955413 422.4265 173.4606)"><g transform="matrix(1 0 0 1 0 0)"><image x="0" y="0" xlink:href="img_12.png" width="197" height="157" /></g></g></g><path id="905" transform="matrix(1 0 0 -1 0 841)" d="M56.6929 478.0394L80.38091 478.0394" stroke="#9CDCF8" stroke-width="9" fill="none" /><path id="906" transform="matrix(1 0 0 -1 0 841)" d="M56.6929 467.0394L67.1239 467.0394" stroke="#9CDCF8" stroke-width="9" fill="none" /><path id="907" transform="matrix(1 0 0 -1 0 841)" d="M56.6929 456.0394L67.1239 456.0394" stroke="#9CDCF8" stroke-width="9" fill="none" /><g clip-path="url(#18)"><g mask="url(#m5)"><g clip-path="url(#20)"><path id="974" transform="matrix(1 0 0 -1 0 841)" d="M33.832 289.24L358.552 289.24L358.552 101.32L33.832 101.32z" stroke="none" fill="#000000" fill-rule="nonzero" fill-opacity="0.1960784" /></g></g></g><path id="975" transform="matrix(1 0 0 -1 0 841)" d="M33.802 113.532L346.593 113.532L346.593 289.27L33.802 289.27z" stroke="none" fill="#F0F1F1" fill-rule="nonzero" /><path id="976" transform="matrix(1 0 0 -1 0 841)" d="M59.7968 282.2009L109.8758 282.2009" stroke="#FEEA9E" stroke-width="12" fill="none" /><path id="977" transform="matrix(1 0 0 -1 0 841)" d="M59.7968 273.2009L90.9088 273.2009" stroke="#FEEA9E" stroke-width="12" fill="none" /><path id="978" transform="matrix(1 0 0 -1 0 841)" d="M59.7968 264.2009L167.9078 264.2009" stroke="#FEEA9E" stroke-width="12" fill="none" /><path id="979" transform="matrix(1 0 0 -1 0 841)" d="M59.7968 255.2009L77.6528 255.2009" stroke="#FEEA9E" stroke-width="12" fill="none" /><path id="980" transform="matrix(1 0 0 -1 0 841)" d="M59.7968 246.2009L84.0288 246.2009" stroke="#FEEA9E" stroke-width="12" fill="none" /><path id="981" transform="matrix(1 0 0 -1 0 841)" d="M59.7968 237.2009L91.6288 237.2009" stroke="#FEEA9E" stroke-width="12" fill="none" /><path id="982" transform="matrix(1 0 0 -1 0 841)" d="M59.7968 219.2009L99.8128 219.2009" stroke="#FEEA9E" stroke-width="12" fill="none" /><path id="983" transform="matrix(1 0 0 -1 0 841)" d="M59.7968 192.2009L103.2528 192.2009" stroke="#FEEA9E" stroke-width="12" fill="none" /><path id="984" transform="matrix(1 0 0 -1 0 841)" d="M59.7968 165.2009L95.7248 165.2009" stroke="#FEEA9E" stroke-width="12" fill="none" /><path id="985" transform="matrix(1 0 0 -1 0 841)" d="M59.7968 156.2009L95.2848 156.2009" stroke="#FEEA9E" stroke-width="12" fill="none" /><path id="986" transform="matrix(1 0 0 -1 0 841)" d="M59.7968 147.2009L89.8688 147.2009" stroke="#FEEA9E" stroke-width="12" fill="none" /><path id="987" transform="matrix(1 0 0 -1 0 841)" d="M59.7968 138.2009L82.1568 138.2009" stroke="#FEEA9E" stroke-width="12" fill="none" /><path id="988" transform="matrix(1 0 0 -1 0 841)" d="M59.7968 129.2009L97.33279 129.2009" stroke="#FEEA9E" stroke-width="12" fill="none" /><path id="1216" transform="matrix(1 0 0 -1 0 841)" d="M217.781 273.2009L256.052 273.2009" stroke="#FEEA9E" stroke-width="12" fill="none" /><path id="1217" transform="matrix(1 0 0 -1 0 841)" d="M217.781 264.2009L275.109 264.2009" stroke="#FEEA9E" stroke-width="12" fill="none" /><path id="1218" transform="matrix(1 0 0 -1 0 841)" d="M217.781 246.2009L252.413 246.2009" stroke="#FEEA9E" stroke-width="12" fill="none" /><path id="1219" transform="matrix(1 0 0 -1 0 841)" d="M217.781 237.2009L253.573 237.2009" stroke="#FEEA9E" stroke-width="12" fill="none" /><path id="1220" transform="matrix(1 0 0 -1 0 841)" d="M217.781 210.2009L260.077 210.2009" stroke="#FEEA9E" stroke-width="12" fill="none" /><path id="1221" transform="matrix(1 0 0 -1 0 841)" d="M217.781 192.2009L250.005 192.2009" stroke="#FEEA9E" stroke-width="12" fill="none" /><path id="1222" transform="matrix(1 0 0 -1 0 841)" d="M217.781 183.2009L319.94 183.2009" stroke="#FEEA9E" stroke-width="12" fill="none" /><path id="1223" transform="matrix(1 0 0 -1 0 841)" d="M217.781 156.2009L242.461 156.2009" stroke="#FEEA9E" stroke-width="12" fill="none" /><path id="1224" transform="matrix(1 0 0 -1 0 841)" d="M217.781 138.2009L260.237 138.2009" stroke="#FEEA9E" stroke-width="12" fill="none" /><path id="1225" transform="matrix(1 0 0 -1 0 841)" d="M217.781 129.2009L250.909 129.2009" stroke="#FEEA9E" stroke-width="12" fill="none" /><path id="1435" transform="matrix(1 0 0 -1 0 841)" d="M190.198 283.6007L190.198 117.2007" stroke="#000000" stroke-width="0.277" fill="none" /><path id="1436" transform="matrix(1 0 0 -1 0 841)" d="M36.85 783.04L595.275 783.04L595.275 805.04L36.85 805.04z" stroke="none" fill="#000000" fill-rule="nonzero" /><path id="1461" transform="matrix(1 0 0 -1 0 841)" d="M394.885 131.093L538.583 131.093L538.583 277.039L394.885 277.039z" stroke="none" fill="#BBBDC0" fill-rule="nonzero" /><path id="1682" transform="matrix(1 0 0 -1 0 841)" d="M394.835 278.457L445.153 278.457L445.153 291.577L394.835 291.577z" stroke="none" fill="#FFFFFF" fill-rule="nonzero" /><path id="1693" transform="matrix(1 0 0 -1 0 841)" d="M56.6929 390.0394L103.4649 390.0394" stroke="#9CDCF8" stroke-width="9" fill="none" /><path id="1694" transform="matrix(1 0 0 -1 0 841)" d="M141.2649 390.0394L173.0169 390.0394" stroke="#9CDCF8" stroke-width="9" fill="none" /><path id="1839" transform="matrix(1 0 0 -1 0 841)" d="M56.692 84.533L220.027 84.533L220.027 101.039L56.692 101.039z" stroke="none" fill="#C6C8CA" fill-rule="nonzero" /><g clip-path="url(#21)"><path id="1874" transform="matrix(1 0 0 -1 0 841)" d="M36.8504 34.7906L595.2754 34.7906" stroke="#000000" stroke-width="0.5" fill="none" /></g></g></g></svg>