<svg xmlns="http://www.w3.org/2000/svg" xmlns:xlink="http://www.w3.org/1999/xlink" id="body_7" preserveAspectRatio="xMinYMin meet" viewBox="0 0 793 1121"><defs><clipPath id="1"><path id="" clip-rule="evenodd" transform="matrix(1 0 0 1 0 0)" d="M0 841L0 -0.8900146L0 -0.8900146L595.276 -0.8900146L595.276 -0.8900146L595.276 841L595.276 841L0 841z" /></clipPath><clipPath id="2"><path id="" clip-rule="evenodd" transform="matrix(1 0 0 1 0 0)" d="M0 841L595.276 841L595.276 841L595.276 -0.8900146L595.276 -0.8900146L0 -0.8900146z" /></clipPath><clipPath id="3"><path id="" clip-rule="evenodd" transform="matrix(1 0 0 1 0 0)" d="M0 841L595.276 841L595.276 841L595.276 -0.8900146L595.276 -0.8900146L0 -0.8900146z" /></clipPath><clipPath id="4"><path id="" clip-rule="evenodd" transform="matrix(1 0 0 1 0 0)" d="M51.608 266.961L281.716 266.961L281.716 266.961L281.716 145.961L281.716 145.961L51.608 145.961z" /></clipPath><clipPath id="5"><path id="" clip-rule="evenodd" transform="matrix(1 0 0 1 0 0)" d="M51.608 431.961L281.716 431.961L281.716 431.961L281.716 310.961L281.716 310.961L51.608 310.961z" /></clipPath><clipPath id="6"><path id="" clip-rule="evenodd" transform="matrix(1 0 0 1 0 0)" d="M51.608 618.961L280.63 618.961L280.63 618.961L280.63 497.961L280.63 497.961L51.608 497.961z" /></clipPath><clipPath id="7"><path id="" clip-rule="evenodd" transform="matrix(1 0 0 1 0 0)" d="M293.717 266.961L522.739 266.961L522.739 266.961L522.739 145.961L522.739 145.961L293.717 145.961z" /></clipPath><clipPath id="8"><path id="" clip-rule="evenodd" transform="matrix(1 0 0 1 0 0)" d="M293.717 431.961L522.739 431.961L522.739 431.961L522.739 310.961L522.739 310.961L293.717 310.961z" /></clipPath><clipPath id="9"><path id="" clip-rule="evenodd" transform="matrix(1 0 0 1 0 0)" d="M294.803 618.961L523.825 618.961L523.825 618.961L523.825 497.961L523.825 497.961L294.803 497.961z" /></clipPath><clipPath id="10"><path id="" clip-rule="evenodd" transform="matrix(1 0 0 1 0 0)" d="M0 841L595.276 841L595.276 841L595.276 -0.8900146L595.276 -0.8900146L0 -0.8900146z" /></clipPath></defs><g transform="matrix(1.333333 0 0 1.333333 0 0)"><g clip-path="url(#1)"><path id="1" transform="matrix(1 0 0 -1 0 841)" d="M36.85 783.04L595.275 783.04L595.275 805.04L36.85 805.04z" stroke="none" fill="#597642" fill-rule="nonzero" /><path id="125" transform="matrix(1 0 0 -1 0 841)" d="M37.441 46.63L537.991 46.63L537.991 46.63L537.991 738.448L537.991 738.448L37.441 738.448z" stroke="#587541" stroke-width="1.182" fill="none" /><path id="126" transform="matrix(1 0 0 -1 0 841)" d="M32.598 731.663L88.022 731.663L88.022 744.998L32.598 744.998z" stroke="none" fill="#FFFFFF" fill-rule="nonzero" /><g clip-path="url(#2)"><path id="138" transform="matrix(1 0 0 -1 0 841)" d="M36.8504 751.2201L1153.7 751.2201" stroke="#587541" stroke-width="2.364" fill="none" /></g><g clip-path="url(#3)"></g><g clip-path="url(#4)"><g transform="matrix(0.5585169 0 0 0.558517 51.60754 144.6937)"><g transform="matrix(1 0 0 1 0 0)"><image x="0" y="0" xlink:href="img_42.png" width="412" height="221" /></g></g></g><g clip-path="url(#5)"><g transform="matrix(0.5781633 0 0 0.5788905 51.60754 309.889)"><g transform="matrix(1 0 0 1 0 0)"><image x="0" y="0" xlink:href="img_43.png" width="398" height="213" /></g></g></g><g clip-path="url(#6)"><g transform="matrix(0.5754331 0 0 0.5761569 51.60754 496.3858)"><g transform="matrix(1 0 0 1 0 0)"><image x="0" y="0" xlink:href="img_44.png" width="398" height="215" /></g></g></g><g clip-path="url(#7)"><g transform="matrix(0.5754331 0 0 0.5761569 293.7165 144.5238)"><g transform="matrix(1 0 0 1 0 0)"><image x="0" y="0" xlink:href="img_45.png" width="398" height="215" /></g></g></g><g clip-path="url(#8)"><g transform="matrix(0.5754331 0 0 0.5761569 293.7165 309.5238)"><g transform="matrix(1 0 0 1 0 0)"><image x="0" y="0" xlink:href="img_46.png" width="398" height="215" /></g></g></g><g clip-path="url(#9)"><g transform="matrix(0.5754331 0 0 0.5761569 294.8032 496.5243)"><g transform="matrix(1 0 0 1 0 0)"><image x="0" y="0" xlink:href="img_47.png" width="398" height="215" /></g></g></g><path id="177" transform="matrix(1 0 0 -1 0 841)" d="M121.7428 555.0394L167.9488 555.0394" stroke="#FEEA9E" stroke-width="12" fill="none" /><path id="937" transform="matrix(1 0 0 -1 0 841)" d="M128.143 175.586L201.978 175.586L201.978 159.882L128.143 159.882zM51.608 175.586L128.143 175.586L128.143 159.882L51.608 159.882z" stroke="none" fill="#FFE581" fill-rule="nonzero" /><path id="938" transform="matrix(1 0 0 -1 0 841)" d="M128.143 73.567L201.978 73.567L201.978 56.304L128.143 56.304zM51.608 73.567L128.143 73.567L128.143 56.304L51.608 56.304zM128.143 90.83L201.978 90.83L201.978 73.567L128.143 73.567zM51.608 90.83L128.143 90.83L128.143 73.567L51.608 73.567zM128.143 108.093L201.978 108.093L201.978 90.83L128.143 90.83zM51.608 108.093L128.143 108.093L128.143 90.83L51.608 90.83zM128.143 125.356L201.978 125.356L201.978 108.093L128.143 108.093zM51.608 125.356L128.143 125.356L128.143 108.093L51.608 108.093zM128.143 142.619L201.978 142.619L201.978 125.356L128.143 125.356zM51.608 142.619L128.143 142.619L128.143 125.356L51.608 125.356zM128.143 159.882L201.978 159.882L201.978 142.619L128.143 142.619zM51.608 159.882L128.143 159.882L128.143 142.619L51.608 142.619z" stroke="none" fill="#FFF0BD" fill-rule="nonzero" /><path id="939" transform="matrix(1 0 0 -1 0 841)" d="M128.143 74.0668L128.143 90.3298" stroke="#FFFFFF" stroke-width="1" fill="none" /><path id="940" transform="matrix(1 0 0 -1 0 841)" d="M51.6075 73.5668L128.1425 73.5668" stroke="#FFFFFF" stroke-width="1" fill="none" /><path id="941" transform="matrix(1 0 0 -1 0 841)" d="M128.143 73.5668L201.978 73.5668" stroke="#FFFFFF" stroke-width="1" fill="none" /><path id="942" transform="matrix(1 0 0 -1 0 841)" d="M128.143 56.3037L128.143 73.0667" stroke="#FFFFFF" stroke-width="1" fill="none" /><path id="943" transform="matrix(1 0 0 -1 0 841)" d="M128.143 160.3825L128.143 175.5865" stroke="#FFFFFF" stroke-width="1" fill="none" /><path id="944" transform="matrix(1 0 0 -1 0 841)" d="M51.6075 159.8825L128.1425 159.8825" stroke="#FFFFFF" stroke-width="1" fill="none" /><path id="945" transform="matrix(1 0 0 -1 0 841)" d="M128.143 159.8825L201.978 159.8825" stroke="#FFFFFF" stroke-width="1" fill="none" /><path id="946" transform="matrix(1 0 0 -1 0 841)" d="M128.143 143.1193L128.143 159.3823" stroke="#FFFFFF" stroke-width="1" fill="none" /><path id="947" transform="matrix(1 0 0 -1 0 841)" d="M51.6075 142.6193L128.1425 142.6193" stroke="#FFFFFF" stroke-width="1" fill="none" /><path id="948" transform="matrix(1 0 0 -1 0 841)" d="M128.143 142.6193L201.978 142.6193" stroke="#FFFFFF" stroke-width="1" fill="none" /><path id="949" transform="matrix(1 0 0 -1 0 841)" d="M128.143 125.8562L128.143 142.1192" stroke="#FFFFFF" stroke-width="1" fill="none" /><path id="950" transform="matrix(1 0 0 -1 0 841)" d="M51.6075 125.3562L128.1425 125.3562" stroke="#FFFFFF" stroke-width="1" fill="none" /><path id="951" transform="matrix(1 0 0 -1 0 841)" d="M128.143 125.3562L201.978 125.3562" stroke="#FFFFFF" stroke-width="1" fill="none" /><path id="952" transform="matrix(1 0 0 -1 0 841)" d="M128.143 108.5931L128.143 124.8561" stroke="#FFFFFF" stroke-width="1" fill="none" /><path id="953" transform="matrix(1 0 0 -1 0 841)" d="M51.6075 108.0931L128.1425 108.0931" stroke="#FFFFFF" stroke-width="1" fill="none" /><path id="954" transform="matrix(1 0 0 -1 0 841)" d="M128.143 108.0931L201.978 108.0931" stroke="#FFFFFF" stroke-width="1" fill="none" /><path id="955" transform="matrix(1 0 0 -1 0 841)" d="M128.143 91.33L128.143 107.593" stroke="#FFFFFF" stroke-width="1" fill="none" /><path id="956" transform="matrix(1 0 0 -1 0 841)" d="M51.6075 90.83L128.1425 90.83" stroke="#FFFFFF" stroke-width="1" fill="none" /><path id="957" transform="matrix(1 0 0 -1 0 841)" d="M128.143 90.83L201.978 90.83" stroke="#FFFFFF" stroke-width="1" fill="none" /><path id="971" transform="matrix(1 0 0 -1 0 841)" d="M57.9798 144.454L123.2898 144.454" stroke="#000000" stroke-width="1" stroke-linecap="round" stroke-dasharray="1,2.038" fill="none" /><path id="972" transform="matrix(1 0 0 -1 0 841)" d="M124.8082 144.454L124.8082 144.454M54.9422 144.454L54.9422 144.454" stroke="#000000" stroke-width="1" stroke-linecap="round" fill="none" /><path id="977" transform="matrix(1 0 0 -1 0 841)" d="M57.9798 127.1909L123.2898 127.1909" stroke="#000000" stroke-width="1" stroke-linecap="round" stroke-dasharray="1,2.038" fill="none" /><path id="978" transform="matrix(1 0 0 -1 0 841)" d="M124.8082 127.1909L124.8082 127.1909M54.9422 127.1909L54.9422 127.1909" stroke="#000000" stroke-width="1" stroke-linecap="round" fill="none" /><path id="984" transform="matrix(1 0 0 -1 0 841)" d="M57.9798 109.9277L123.2898 109.9277" stroke="#000000" stroke-width="1" stroke-linecap="round" stroke-dasharray="1,2.038" fill="none" /><path id="985" transform="matrix(1 0 0 -1 0 841)" d="M124.8082 109.9277L124.8082 109.9277M54.9422 109.9277L54.9422 109.9277" stroke="#000000" stroke-width="1" stroke-linecap="round" fill="none" /><path id="989" transform="matrix(1 0 0 -1 0 841)" d="M57.9798 92.6646L123.2898 92.6646" stroke="#000000" stroke-width="1" stroke-linecap="round" stroke-dasharray="1,2.038" fill="none" /><path id="990" transform="matrix(1 0 0 -1 0 841)" d="M124.8082 92.6646L124.8082 92.6646M54.9422 92.6646L54.9422 92.6646" stroke="#000000" stroke-width="1" stroke-linecap="round" fill="none" /><path id="997" transform="matrix(1 0 0 -1 0 841)" d="M57.9798 75.4015L123.2898 75.4015" stroke="#000000" stroke-width="1" stroke-linecap="round" stroke-dasharray="1,2.038" fill="none" /><path id="998" transform="matrix(1 0 0 -1 0 841)" d="M124.8082 75.4015L124.8082 75.4015M54.9422 75.4015L54.9422 75.4015" stroke="#000000" stroke-width="1" stroke-linecap="round" fill="none" /><path id="1015" transform="matrix(1 0 0 -1 0 841)" d="M57.9798 58.1383L123.2898 58.1383" stroke="#000000" stroke-width="1" stroke-linecap="round" stroke-dasharray="1,2.038" fill="none" /><path id="1016" transform="matrix(1 0 0 -1 0 841)" d="M124.8082 58.1383L124.8082 58.1383M54.9422 58.1383L54.9422 58.1383" stroke="#000000" stroke-width="1" stroke-linecap="round" fill="none" /><path id="1021" transform="matrix(1 0 0 -1 0 841)" d="M343.695 79.194L523.826 79.194L523.826 150.236L343.695 150.236z" stroke="none" fill="#C6C8B3" fill-rule="nonzero" /><path id="1182" transform="matrix(1 0 0 -1 0 841)" d="M343.645 151.654L393.963 151.654L393.963 164.774L343.645 164.774z" stroke="none" fill="#FFFFFF" fill-rule="nonzero" /><g clip-path="url(#10)"><path id="1193" transform="matrix(1 0 0 -1 0 841)" d="M36.8504 34.7906L595.2754 34.7906" stroke="#000000" stroke-width="0.5" fill="none" /></g><path id="1195" transform="matrix(1 0 0 -1 0 841)" d="M365.695 56.243L523.826 56.243L523.826 24.039L365.695 24.039z" stroke="none" fill="#D7D7C9" fill-rule="nonzero" /></g></g></svg>