<svg xmlns="http://www.w3.org/2000/svg" xmlns:xlink="http://www.w3.org/1999/xlink" id="body_5" preserveAspectRatio="xMinYMin meet" viewBox="0 0 793 1121"><defs><clipPath id="1"><path id="" clip-rule="evenodd" transform="matrix(1 0 0 1 0 0)" d="M0 841L0 -0.8900146L0 -0.8900146L595.276 -0.8900146L595.276 -0.8900146L595.276 841L595.276 841L0 841z" /></clipPath><clipPath id="2"><path id="" clip-rule="evenodd" transform="matrix(1 0 0 1 0 0)" d="M0 841L595.276 841L595.276 841L595.276 -0.8900146L595.276 -0.8900146L0 -0.8900146z" /></clipPath><clipPath id="3"><path id="" clip-rule="evenodd" transform="matrix(1 0 0 1 0 0)" d="M0 841L595.276 841L595.276 841L595.276 -0.8900146L595.276 -0.8900146L0 -0.8900146z" /></clipPath><clipPath id="4"><path id="" clip-rule="evenodd" transform="matrix(1 0 0 1 0 0)" d="M0 841L595.276 841L595.276 841L595.276 -0.8900146L595.276 -0.8900146L0 -0.8900146z" /></clipPath><mask id="m1"><clipPath id="5"><path id="" clip-rule="evenodd" transform="matrix(1 0 0 1 0 0)" d="M34.7203 611.442L291.76 611.442L291.76 611.442L291.76 810.1618L291.76 810.1618L34.7203 810.1618z" /></clipPath><g><g><g clip-path="url(#5)"><g transform="matrix(0.5991609 0 0 0.5985543 34.72027 611.4418)"><g transform="matrix(1 0 0 1 0 0)"><image x="0" y="0" xlink:href="img_23.png" width="429" height="332" /></g></g></g></g></g></mask><clipPath id="6"><path id="" clip-rule="evenodd" transform="matrix(1 0 0 1 0 0)" d="M36.8803 613.602L289.24 613.602L289.24 613.602L289.24 806.9218L289.24 806.9218L36.8803 806.9218z" /></clipPath><clipPath id="7"><path id="" clip-rule="evenodd" transform="matrix(1 0 0 1 0 0)" d="M42.747 789.289L271.73 789.289L271.73 789.289L271.73 640.136L271.73 640.136L42.747 640.136z" /></clipPath><mask id="m2"><clipPath id="8"><path id="" clip-rule="evenodd" transform="matrix(1 0 0 1 0 0)" d="M22.4325 637.586L303.593 637.586L303.593 637.586L303.593 802.8259L303.593 802.8259L22.4325 802.8259z" /></clipPath><g><g><g clip-path="url(#8)"><g transform="matrix(0.5994883 0 0 0.5986956 22.43254 637.5859)"><g transform="matrix(1 0 0 1 0 0)"><image x="0" y="0" xlink:href="img_24.png" width="469" height="276" /></g></g></g></g></g></mask><clipPath id="9"><path id="" clip-rule="evenodd" transform="matrix(1 0 0 1 0 0)" d="M24.5925 639.746L301.433 639.746L301.433 639.746L301.433 800.3059L301.433 800.3059L24.5925 800.3059z" /></clipPath><clipPath id="10"><path id="" clip-rule="evenodd" transform="matrix(1 0 0 1 0 0)" d="M42.747 789.289L271.73 789.289L271.73 789.289L271.73 640.136L271.73 640.136L42.747 640.136z" /></clipPath><clipPath id="11"><path id="" clip-rule="evenodd" transform="matrix(1 0 0 1 0 0)" d="M231.131 834.943L364.146 834.943L364.146 834.943L364.146 563.961L364.146 563.961L231.131 563.961z" /></clipPath></defs><g transform="matrix(1.333333 0 0 1.333333 0 0)"><g clip-path="url(#1)"><path id="1" transform="matrix(1 0 0 -1 0 841)" d="M323.622 0L595.275 0L595.275 841.89L323.622 841.89z" stroke="none" fill="#D3D6D9" fill-rule="nonzero" /><path id="2" transform="matrix(1 0 0 -1 0 841)" d="M36.85 506.923L309.448 506.923L309.448 574.04L36.85 574.04z" stroke="none" fill="#B3B9BF" fill-rule="nonzero" /><path id="3" transform="matrix(1 0 0 -1 0 841)" d="M66.937 562.7529L83.335 562.7529" stroke="#FFEA9F" stroke-width="12" fill="none" /><path id="4" transform="matrix(1 0 0 -1 0 841)" d="M66.937 551.7529L81.70599 551.7529" stroke="#FFEA9F" stroke-width="12" fill="none" /><path id="5" transform="matrix(1 0 0 -1 0 841)" d="M66.937 540.7529L82.408 540.7529" stroke="#FFEA9F" stroke-width="12" fill="none" /><path id="6" transform="matrix(1 0 0 -1 0 841)" d="M66.937 529.7529L93.81999 529.7529" stroke="#FFEA9F" stroke-width="12" fill="none" /><path id="7" transform="matrix(1 0 0 -1 0 841)" d="M66.937 518.7529L89.572 518.7529" stroke="#FFEA9F" stroke-width="12" fill="none" /><path id="34" transform="matrix(1 0 0 -1 0 841)" d="M131.5433 562.7529L147.1943 562.7529" stroke="#FFEA9F" stroke-width="12" fill="none" /><path id="35" transform="matrix(1 0 0 -1 0 841)" d="M131.5433 551.7529L150.9293 551.7529" stroke="#FFEA9F" stroke-width="12" fill="none" /><path id="36" transform="matrix(1 0 0 -1 0 841)" d="M131.5433 540.7529L152.3063 540.7529" stroke="#FFEA9F" stroke-width="12" fill="none" /><path id="37" transform="matrix(1 0 0 -1 0 841)" d="M131.5433 529.7529L157.3913 529.7529" stroke="#FFEA9F" stroke-width="12" fill="none" /><path id="38" transform="matrix(1 0 0 -1 0 841)" d="M131.5433 518.7529L148.9493 518.7529" stroke="#FFEA9F" stroke-width="12" fill="none" /><path id="67" transform="matrix(1 0 0 -1 0 841)" d="M196.1496 562.7529L216.3456 562.7529" stroke="#FFEA9F" stroke-width="12" fill="none" /><path id="68" transform="matrix(1 0 0 -1 0 841)" d="M196.1496 551.7529L216.3186 551.7529" stroke="#FFEA9F" stroke-width="12" fill="none" /><path id="69" transform="matrix(1 0 0 -1 0 841)" d="M196.1496 540.7529L216.9306 540.7529" stroke="#FFEA9F" stroke-width="12" fill="none" /><path id="70" transform="matrix(1 0 0 -1 0 841)" d="M196.1496 529.7529L226.6506 529.7529" stroke="#FFEA9F" stroke-width="12" fill="none" /><path id="71" transform="matrix(1 0 0 -1 0 841)" d="M196.1496 518.7529L224.5446 518.7529" stroke="#FFEA9F" stroke-width="12" fill="none" /><path id="108" transform="matrix(1 0 0 -1 0 841)" d="M260.7559 562.7529L296.8009 562.7529" stroke="#FFEA9F" stroke-width="12" fill="none" /><path id="109" transform="matrix(1 0 0 -1 0 841)" d="M260.7559 551.7529L300.5359 551.7529" stroke="#FFEA9F" stroke-width="12" fill="none" /><path id="110" transform="matrix(1 0 0 -1 0 841)" d="M260.7559 540.7529L301.8679 540.7529" stroke="#FFEA9F" stroke-width="12" fill="none" /><path id="111" transform="matrix(1 0 0 -1 0 841)" d="M260.7559 529.7529L302.3619 529.7529" stroke="#FFEA9F" stroke-width="12" fill="none" /><path id="112" transform="matrix(1 0 0 -1 0 841)" d="M260.7559 518.7529L286.7119 518.7529" stroke="#FFEA9F" stroke-width="12" fill="none" /><path id="167" transform="matrix(1 0 0 -1 0 841)" d="M36.8 575.457L87.118 575.457L87.118 588.577L36.8 588.577z" stroke="none" fill="#FFFFFF" fill-rule="nonzero" /><path id="178" transform="matrix(1 0 0 -1 0 841)" d="M36.85 783.04L595.275 783.04L595.275 805.04L36.85 805.04z" stroke="none" fill="#385963" fill-rule="nonzero" /><g clip-path="url(#2)"><path id="204" transform="matrix(1 0 0 -1 0 841)" d="M36.8504 751.2201L1153.7 751.2201" stroke="#375863" stroke-width="2.364" fill="none" /></g><path id="281" transform="matrix(1 0 0 -1 0 841)" d="M349.1751 426.0619L406.7361 426.0619" stroke="#FFEA9F" stroke-width="9.013" fill="none" /><path id="282" transform="matrix(1 0 0 -1 0 841)" d="M361.9489 402.5368L415.8679 402.5368" stroke="#FFEA9F" stroke-width="9.013" fill="none" /><path id="283" transform="matrix(1 0 0 -1 0 841)" d="M349.1751 286.8978L436.0091 286.8978" stroke="#FFEA9F" stroke-width="9.013" fill="none" /><path id="284" transform="matrix(1 0 0 -1 0 841)" d="M361.9489 263.3727L432.4159 263.3727" stroke="#FFEA9F" stroke-width="9.013" fill="none" /><path id="285" transform="matrix(1 0 0 -1 0 841)" d="M361.4803 239.8475L384.7813 239.8475" stroke="#FFEA9F" stroke-width="9.013" fill="none" /><path id="286" transform="matrix(1 0 0 -1 0 841)" d="M367.9453 216.3224L429.7603 216.3224" stroke="#FFEA9F" stroke-width="9.013" fill="none" /><path id="287" transform="matrix(1 0 0 -1 0 841)" d="M349.1751 201.3012L425.3261 201.3012" stroke="#FFEA9F" stroke-width="9.013" fill="none" /><path id="288" transform="matrix(1 0 0 -1 0 841)" d="M367.9453 162.7549L446.1153 162.7549" stroke="#FFEA9F" stroke-width="9.013" fill="none" /><path id="763" transform="matrix(1 0 0 -1 0 841)" d="M54.5247 683.0394L164.0627 683.0394" stroke="#000000" stroke-width="1" stroke-linecap="round" stroke-dasharray="1,2.001" fill="none" /><path id="764" transform="matrix(1 0 0 -1 0 841)" d="M165.5626 683.0394L165.5626 683.0394M51.5236 683.0394L51.5236 683.0394" stroke="#000000" stroke-width="1" stroke-linecap="round" fill="none" /><path id="765" transform="matrix(1 0 0 -1 0 841)" d="M54.5247 666.5394L164.0627 666.5394" stroke="#000000" stroke-width="1" stroke-linecap="round" stroke-dasharray="1,2.001" fill="none" /><path id="766" transform="matrix(1 0 0 -1 0 841)" d="M165.5626 666.5394L165.5626 666.5394M51.5236 666.5394L51.5236 666.5394" stroke="#000000" stroke-width="1" stroke-linecap="round" fill="none" /><path id="767" transform="matrix(1 0 0 -1 0 841)" d="M54.5247 650.0394L164.0627 650.0394" stroke="#000000" stroke-width="1" stroke-linecap="round" stroke-dasharray="1,2.001" fill="none" /><path id="768" transform="matrix(1 0 0 -1 0 841)" d="M165.5626 650.0394L165.5626 650.0394M51.5236 650.0394L51.5236 650.0394" stroke="#000000" stroke-width="1" stroke-linecap="round" fill="none" /><path id="769" transform="matrix(1 0 0 -1 0 841)" d="M54.5247 633.5394L164.0627 633.5394" stroke="#000000" stroke-width="1" stroke-linecap="round" stroke-dasharray="1,2.001" fill="none" /><path id="770" transform="matrix(1 0 0 -1 0 841)" d="M165.5626 633.5394L165.5626 633.5394M51.5236 633.5394L51.5236 633.5394" stroke="#000000" stroke-width="1" stroke-linecap="round" fill="none" /><path id="771" transform="matrix(1 0 0 -1 0 841)" d="M54.5247 617.0394L164.0627 617.0394" stroke="#000000" stroke-width="1" stroke-linecap="round" stroke-dasharray="1,2.001" fill="none" /><path id="772" transform="matrix(1 0 0 -1 0 841)" d="M165.5626 617.0394L165.5626 617.0394M51.5236 617.0394L51.5236 617.0394" stroke="#000000" stroke-width="1" stroke-linecap="round" fill="none" /><path id="773" transform="matrix(1 0 0 -1 0 841)" d="M54.5247 600.5394L164.0627 600.5394" stroke="#000000" stroke-width="1" stroke-linecap="round" stroke-dasharray="1,2.001" fill="none" /><path id="774" transform="matrix(1 0 0 -1 0 841)" d="M165.5626 600.5394L165.5626 600.5394M51.5236 600.5394L51.5236 600.5394" stroke="#000000" stroke-width="1" stroke-linecap="round" fill="none" /><path id="814" transform="matrix(1 0 0 -1 0 841)" d="M197.9105 683.0394L307.4485 683.0394" stroke="#000000" stroke-width="1" stroke-linecap="round" stroke-dasharray="1,2.001" fill="none" /><path id="815" transform="matrix(1 0 0 -1 0 841)" d="M308.9485 683.0394L308.9485 683.0394M194.9095 683.0394L194.9095 683.0394" stroke="#000000" stroke-width="1" stroke-linecap="round" fill="none" /><path id="816" transform="matrix(1 0 0 -1 0 841)" d="M197.9105 666.5394L307.4485 666.5394" stroke="#000000" stroke-width="1" stroke-linecap="round" stroke-dasharray="1,2.001" fill="none" /><path id="817" transform="matrix(1 0 0 -1 0 841)" d="M308.9485 666.5394L308.9485 666.5394M194.9095 666.5394L194.9095 666.5394" stroke="#000000" stroke-width="1" stroke-linecap="round" fill="none" /><path id="818" transform="matrix(1 0 0 -1 0 841)" d="M197.9105 650.0394L307.4485 650.0394" stroke="#000000" stroke-width="1" stroke-linecap="round" stroke-dasharray="1,2.001" fill="none" /><path id="819" transform="matrix(1 0 0 -1 0 841)" d="M308.9485 650.0394L308.9485 650.0394M194.9095 650.0394L194.9095 650.0394" stroke="#000000" stroke-width="1" stroke-linecap="round" fill="none" /><path id="820" transform="matrix(1 0 0 -1 0 841)" d="M197.9105 633.5394L307.4485 633.5394" stroke="#000000" stroke-width="1" stroke-linecap="round" stroke-dasharray="1,2.001" fill="none" /><path id="821" transform="matrix(1 0 0 -1 0 841)" d="M308.9485 633.5394L308.9485 633.5394M194.9095 633.5394L194.9095 633.5394" stroke="#000000" stroke-width="1" stroke-linecap="round" fill="none" /><path id="822" transform="matrix(1 0 0 -1 0 841)" d="M197.9105 617.0394L307.4485 617.0394" stroke="#000000" stroke-width="1" stroke-linecap="round" stroke-dasharray="1,2.001" fill="none" /><path id="823" transform="matrix(1 0 0 -1 0 841)" d="M308.9485 617.0394L308.9485 617.0394M194.9095 617.0394L194.9095 617.0394" stroke="#000000" stroke-width="1" stroke-linecap="round" fill="none" /><path id="824" transform="matrix(1 0 0 -1 0 841)" d="M197.9105 600.5394L307.4485 600.5394" stroke="#000000" stroke-width="1" stroke-linecap="round" stroke-dasharray="1,2.001" fill="none" /><path id="825" transform="matrix(1 0 0 -1 0 841)" d="M308.9485 600.5394L308.9485 600.5394M194.9095 600.5394L194.9095 600.5394" stroke="#000000" stroke-width="1" stroke-linecap="round" fill="none" /><path id="853" transform="matrix(1 0 0 -1 0 841)" d="M56.6928 423.0394L154.5488 423.0394" stroke="#9DDCF9" stroke-width="9" fill="none" /><path id="854" transform="matrix(1 0 0 -1 0 841)" d="M56.6928 412.0394L164.5568 412.0394" stroke="#9DDCF9" stroke-width="9" fill="none" /><path id="855" transform="matrix(1 0 0 -1 0 841)" d="M95.602 309.0394L307.446 309.0394" stroke="#000000" stroke-width="1" stroke-linecap="round" stroke-dasharray="1,2.005" fill="none" /><path id="856" transform="matrix(1 0 0 -1 0 841)" d="M308.9491 309.0394L308.9491 309.0394M92.5971 309.0394L92.5971 309.0394" stroke="#000000" stroke-width="1" stroke-linecap="round" fill="none" /><path id="857" transform="matrix(1 0 0 -1 0 841)" d="M101.339 292.5394L307.444 292.5394" stroke="#000000" stroke-width="1" stroke-linecap="round" stroke-dasharray="1,2.009" fill="none" /><path id="858" transform="matrix(1 0 0 -1 0 841)" d="M308.9492 292.5394L308.9492 292.5394M98.3302 292.5394L98.3302 292.5394" stroke="#000000" stroke-width="1" stroke-linecap="round" fill="none" /><path id="859" transform="matrix(1 0 0 -1 0 841)" d="M88.5068 276.0394L307.4388 276.0394" stroke="#000000" stroke-width="1" stroke-linecap="round" stroke-dasharray="1,2.02" fill="none" /><path id="860" transform="matrix(1 0 0 -1 0 841)" d="M308.949 276.0394L308.949 276.0394M85.487 276.0394L85.487 276.0394" stroke="#000000" stroke-width="1" stroke-linecap="round" fill="none" /><path id="1259" transform="matrix(1 0 0 -1 0 841)" d="M56.693 370.539L304.398 370.539L304.398 398.045L56.693 398.045z" stroke="none" fill="#C7C8CA" fill-rule="nonzero" /><g clip-path="url(#3)"><path id="1342" transform="matrix(1 0 0 -1 0 841)" d="M36.8504 34.7906L595.2754 34.7906" stroke="#000000" stroke-width="0.5" fill="none" /></g><g clip-path="url(#4)"><g mask="url(#m1)"><g clip-path="url(#6)"><path id="1345" transform="matrix(1 0 0 -1 0 841)" d="M36.88 227.398L289.24 227.398L289.24 34.07799L36.88 34.07799z" stroke="none" fill="#000000" fill-rule="nonzero" fill-opacity="0.1960784" /></g></g></g><path id="1346" transform="matrix(1 0 0 -1 0 841)" d="M36.85 46.039L277.171 46.039L277.171 227.428L36.85 227.428z" stroke="none" fill="#E6E7E8" fill-rule="nonzero" /><g clip-path="url(#7)"><g mask="url(#m2)"><g clip-path="url(#9)"><path id="1348" transform="matrix(1 0 0 -1 0 841)" d="M24.593 201.254L301.433 201.254L301.433 40.694L24.593 40.694z" stroke="none" fill="#000000" fill-rule="nonzero" fill-opacity="0.1490196" /></g></g></g><g clip-path="url(#10)"><g transform="matrix(0.5345993 0 0 0.5345993 41.23103 640.1356)"><g transform="matrix(1 0 0 1 0 0)"><image x="0" y="0" xlink:href="img_25.png" width="434" height="279" /></g></g></g><path id="1350" transform="matrix(1 0 0 -1 0 841)" d="M44.758 174.478L142.076 174.478L142.076 193.816L44.758 193.816z" stroke="none" fill="#FFFFFF" fill-rule="nonzero" /><path id="1351" transform="matrix(1 0 0 -1 0 841)" d="M83.0664 183.1474L136.4064 183.1474" stroke="#FEEA9E" stroke-width="12" fill="none" /><g clip-path="url(#11)"><g transform="matrix(0.4161347 0 0 0.4156178 229.7335 563.9607)"><g transform="matrix(1 0 0 1 0 0)"><image x="0" y="0" xlink:href="img_26.png" width="323" height="652" /></g></g></g><path id="1378" transform="matrix(1 0 0 -1 0 841)" d="M161.339 61.631L239.747 61.631L239.747 80.969L161.339 80.969z" stroke="none" fill="#FFFFFF" fill-rule="nonzero" /><path id="1379" transform="matrix(1 0 0 -1 0 841)" d="M193.468 70.3L234.078 70.3" stroke="#FEEA9E" stroke-width="12" fill="none" /></g></g></svg>