<svg xmlns="http://www.w3.org/2000/svg" xmlns:xlink="http://www.w3.org/1999/xlink" id="body_10" preserveAspectRatio="xMinYMin meet" viewBox="0 0 793 1121"><defs><clipPath id="1"><path id="" clip-rule="evenodd" transform="matrix(1 0 0 1 0 0)" d="M0 841L0 -0.8900146L0 -0.8900146L595.276 -0.8900146L595.276 -0.8900146L595.276 841L595.276 841L0 841z" /></clipPath><clipPath id="2"><path id="" clip-rule="evenodd" transform="matrix(1 0 0 1 0 0)" d="M172.267 325.416L262.952 325.416L262.952 325.416L262.952 255.96L262.952 255.96L172.267 255.96z" /></clipPath><clipPath id="3"><path id="" clip-rule="evenodd" transform="matrix(1 0 0 1 0 0)" d="M0 841L595.276 841L595.276 841L595.276 -0.8900146L595.276 -0.8900146L0 -0.8900146z" /></clipPath><clipPath id="4"><path id="" clip-rule="evenodd" transform="matrix(1 0 0 1 0 0)" d="M265.787 325.416L356.472 325.416L356.472 325.416L356.472 255.96L356.472 255.96L265.787 255.96z" /></clipPath><clipPath id="5"><path id="" clip-rule="evenodd" transform="matrix(1 0 0 1 0 0)" d="M0 841L595.276 841L595.276 841L595.276 -0.8900146L595.276 -0.8900146L0 -0.8900146z" /></clipPath><clipPath id="6"><path id="" clip-rule="evenodd" transform="matrix(1 0 0 1 0 0)" d="M359.307 325.416L449.992 325.416L449.992 325.416L449.992 255.96L449.992 255.96L359.307 255.96z" /></clipPath><clipPath id="7"><path id="" clip-rule="evenodd" transform="matrix(1 0 0 1 0 0)" d="M0 841L595.276 841L595.276 841L595.276 -0.8900146L595.276 -0.8900146L0 -0.8900146z" /></clipPath><clipPath id="8"><path id="" clip-rule="evenodd" transform="matrix(1 0 0 1 0 0)" d="M452.827 325.159L543.512 325.159L543.512 325.159L543.512 255.961L543.512 255.961L452.827 255.961z" /></clipPath><clipPath id="9"><path id="" clip-rule="evenodd" transform="matrix(1 0 0 1 0 0)" d="M0 841L595.276 841L595.276 841L595.276 -0.8900146L595.276 -0.8900146L0 -0.8900146z" /></clipPath><clipPath id="10"><path id="" clip-rule="evenodd" transform="matrix(1 0 0 1 0 0)" d="M265.943 397.707L356.629 397.707L356.629 397.707L356.629 328.251L356.629 328.251L265.943 328.251z" /></clipPath><clipPath id="11"><path id="" clip-rule="evenodd" transform="matrix(1 0 0 1 0 0)" d="M0 841L595.276 841L595.276 841L595.276 -0.8900146L595.276 -0.8900146L0 -0.8900146z" /></clipPath><clipPath id="12"><path id="" clip-rule="evenodd" transform="matrix(1 0 0 1 0 0)" d="M359.463 397.707L450.149 397.707L450.149 397.707L450.149 328.251L450.149 328.251L359.463 328.251z" /></clipPath><clipPath id="13"><path id="" clip-rule="evenodd" transform="matrix(1 0 0 1 0 0)" d="M0 841L595.276 841L595.276 841L595.276 -0.8900146L595.276 -0.8900146L0 -0.8900146z" /></clipPath><clipPath id="14"><path id="" clip-rule="evenodd" transform="matrix(1 0 0 1 0 0)" d="M172.423 397.707L263.109 397.707L263.109 397.707L263.109 328.251L263.109 328.251L172.423 328.251z" /></clipPath><clipPath id="15"><path id="" clip-rule="evenodd" transform="matrix(1 0 0 1 0 0)" d="M0 841L595.276 841L595.276 841L595.276 -0.8900146L595.276 -0.8900146L0 -0.8900146z" /></clipPath><clipPath id="16"><path id="" clip-rule="evenodd" transform="matrix(1 0 0 1 0 0)" d="M452.983 397.707L543.669 397.707L543.669 397.707L543.669 328.251L543.669 328.251L452.983 328.251z" /></clipPath><clipPath id="17"><path id="" clip-rule="evenodd" transform="matrix(1 0 0 1 0 0)" d="M0 841L595.276 841L595.276 841L595.276 -0.8900146L595.276 -0.8900146L0 -0.8900146z" /></clipPath><clipPath id="18"><path id="" clip-rule="evenodd" transform="matrix(1 0 0 1 0 0)" d="M0 841L595.276 841L595.276 841L595.276 -0.8900146L595.276 -0.8900146L0 -0.8900146z" /></clipPath><clipPath id="19"><path id="" clip-rule="evenodd" transform="matrix(1 0 0 1 0 0)" d="M0 841L595.276 841L595.276 841L595.276 -0.8900146L595.276 -0.8900146L0 -0.8900146z" /></clipPath><clipPath id="20"><path id="" clip-rule="evenodd" transform="matrix(1 0 0 1 0 0)" d="M0 841L595.276 841L595.276 841L595.276 -0.8900146L595.276 -0.8900146L0 -0.8900146z" /></clipPath><clipPath id="21"><path id="" clip-rule="evenodd" transform="matrix(1 0 0 1 0 0)" d="M0 841L595.276 841L595.276 841L595.276 -0.8900146L595.276 -0.8900146L0 -0.8900146z" /></clipPath><clipPath id="22"><path id="" clip-rule="evenodd" transform="matrix(1 0 0 1 0 0)" d="M0 841L595.276 841L595.276 841L595.276 -0.8900146L595.276 -0.8900146L0 -0.8900146z" /></clipPath><clipPath id="23"><path id="" clip-rule="evenodd" transform="matrix(1 0 0 1 0 0)" d="M0 841L595.276 841L595.276 841L595.276 -0.8900146L595.276 -0.8900146L0 -0.8900146z" /></clipPath><clipPath id="24"><path id="" clip-rule="evenodd" transform="matrix(1 0 0 1 0 0)" d="M0 841L595.276 841L595.276 841L595.276 -0.8900146L595.276 -0.8900146L0 -0.8900146z" /></clipPath><clipPath id="25"><path id="" clip-rule="evenodd" transform="matrix(1 0 0 1 0 0)" d="M0 841L595.276 841L595.276 841L595.276 -0.8900146L595.276 -0.8900146L0 -0.8900146z" /></clipPath><clipPath id="26"><path id="" clip-rule="evenodd" transform="matrix(1 0 0 1 0 0)" d="M0 841L595.276 841L595.276 841L595.276 -0.8900146L595.276 -0.8900146L0 -0.8900146z" /></clipPath></defs><g transform="matrix(1.333333 0 0 1.333333 0 0)"><g clip-path="url(#1)"><path id="1" transform="matrix(1 0 0 -1 0 841)" d="M89.2717 703.5391L128.7097 703.5391" stroke="#FEEA9E" stroke-width="12" fill="none" /><path id="2" transform="matrix(1 0 0 -1 0 841)" d="M134.5334 699.549L156.2084 699.549" stroke="#000000" stroke-width="0.99" stroke-linecap="round" stroke-dasharray="1,1.919192" fill="none" /><path id="3" transform="matrix(1 0 0 -1 0 841)" d="M157.6534 699.549L157.6534 699.549M131.6434 699.549L131.6434 699.549" stroke="#000000" stroke-width="0.99" stroke-linecap="round" fill="none" /><path id="4" transform="matrix(1 0 0 -1 0 841)" d="M89.2717 687.0391L105.0307 687.0391" stroke="#FEEA9E" stroke-width="12" fill="none" /><path id="5" transform="matrix(1 0 0 -1 0 841)" d="M110.8545 683.049L132.5295 683.049" stroke="#000000" stroke-width="0.99" stroke-linecap="round" stroke-dasharray="1,1.919192" fill="none" /><path id="6" transform="matrix(1 0 0 -1 0 841)" d="M133.9745 683.049L133.9745 683.049M107.9645 683.049L107.9645 683.049" stroke="#000000" stroke-width="0.99" stroke-linecap="round" fill="none" /><path id="7" transform="matrix(1 0 0 -1 0 841)" d="M89.2717 670.5391L116.6227 670.5391" stroke="#FEEA9E" stroke-width="12" fill="none" /><path id="8" transform="matrix(1 0 0 -1 0 841)" d="M122.4464 666.549L144.1214 666.549" stroke="#000000" stroke-width="0.99" stroke-linecap="round" stroke-dasharray="1,1.919192" fill="none" /><path id="9" transform="matrix(1 0 0 -1 0 841)" d="M145.5664 666.549L145.5664 666.549M119.5564 666.549L119.5564 666.549" stroke="#000000" stroke-width="0.99" stroke-linecap="round" fill="none" /><path id="10" transform="matrix(1 0 0 -1 0 841)" d="M89.2717 654.0391L121.0057 654.0391" stroke="#FEEA9E" stroke-width="12" fill="none" /><path id="11" transform="matrix(1 0 0 -1 0 841)" d="M126.8294 650.049L148.5044 650.049" stroke="#000000" stroke-width="0.99" stroke-linecap="round" stroke-dasharray="1,1.919192" fill="none" /><path id="12" transform="matrix(1 0 0 -1 0 841)" d="M149.9494 650.049L149.9494 650.049M123.9394 650.049L123.9394 650.049" stroke="#000000" stroke-width="0.99" stroke-linecap="round" fill="none" /><path id="13" transform="matrix(1 0 0 -1 0 841)" d="M89.2717 637.5391L124.1637 637.5391" stroke="#FEEA9E" stroke-width="12" fill="none" /><path id="14" transform="matrix(1 0 0 -1 0 841)" d="M129.9881 633.549L151.6631 633.549" stroke="#000000" stroke-width="0.99" stroke-linecap="round" stroke-dasharray="1,1.919192" fill="none" /><path id="15" transform="matrix(1 0 0 -1 0 841)" d="M153.1081 633.549L153.1081 633.549M127.0981 633.549L127.0981 633.549" stroke="#000000" stroke-width="0.99" stroke-linecap="round" fill="none" /><path id="16" transform="matrix(1 0 0 -1 0 841)" d="M131.0584 588.0391L159.7774 588.0391" stroke="#FEEA9E" stroke-width="12" fill="none" /><path id="17" transform="matrix(1 0 0 -1 0 841)" d="M107.3257 577.0391L130.5637 577.0391" stroke="#FEEA9E" stroke-width="12" fill="none" /><path id="18" transform="matrix(1 0 0 -1 0 841)" d="M89.2717 555.0391L133.1287 555.0391" stroke="#FEEA9E" stroke-width="12" fill="none" /><path id="19" transform="matrix(1 0 0 -1 0 841)" d="M124.6682 544.0391L167.1752 544.0391" stroke="#FEEA9E" stroke-width="12" fill="none" /><path id="20" transform="matrix(1 0 0 -1 0 841)" d="M126.2882 533.0391L171.0262 533.0391" stroke="#FEEA9E" stroke-width="12" fill="none" /><path id="21" transform="matrix(1 0 0 -1 0 841)" d="M123.2823 500.0391L150.3003 500.0391" stroke="#FEEA9E" stroke-width="12" fill="none" /><path id="337" transform="matrix(1 0 0 -1 0 841)" d="M57.284 431.63L557.834 431.63L557.834 431.63L557.834 738.448L557.834 738.448L57.284 738.448z" stroke="#587541" stroke-width="1.182" fill="none" /><path id="338" transform="matrix(1 0 0 -1 0 841)" d="M52.441 731.663L107.865 731.663L107.865 744.998L52.441 744.998z" stroke="none" fill="#FFFFFF" fill-rule="nonzero" /><path id="350" transform="matrix(1 0 0 -1 0 841)" d="M56.6929 751.2201L558.4249 751.2201" stroke="#587541" stroke-width="2.364" fill="none" /><path id="386" transform="matrix(1 0 0 -1 0 841)" d="M409.89 743.839L558.425 743.839L558.425 761.039L409.89 761.039z" stroke="none" fill="#FFFFFF" fill-rule="nonzero" /><path id="410" transform="matrix(1 0 0 -1 0 841)" d="M56.693 46.039L558.425 46.039L558.425 321.039L56.693 321.039z" stroke="none" fill="#F2F2ED" fill-rule="nonzero" /><path id="411" transform="matrix(1 0 0 -1 0 841)" d="M500.748 182.3208L115.37 182.3208" stroke="#587541" stroke-width="2" fill="none" /><path id="412" transform="matrix(1 0 0 -1 0 841)" d="M116.3696 222.1641L116.3696 181.3211" stroke="#587541" stroke-width="2" fill="none" /><path id="413" transform="matrix(1 0 0 -1 0 841)" d="M211.4644 222.1641L211.4644 181.3211" stroke="#587541" stroke-width="2" fill="none" /><path id="414" transform="matrix(1 0 0 -1 0 841)" d="M168.4956 183.3207L168.4956 118.4857" stroke="#587541" stroke-width="2" fill="none" /><path id="415" transform="matrix(1 0 0 -1 0 841)" d="M264.5903 167.1554L264.5903 118.4864" stroke="#587541" stroke-width="2" fill="none" /><path id="416" transform="matrix(1 0 0 -1 0 841)" d="M360.6848 167.1554L360.6848 118.4864" stroke="#587541" stroke-width="2" fill="none" /><path id="417" transform="matrix(1 0 0 -1 0 841)" d="M456.7793 183.3207L456.7793 118.4857" stroke="#587541" stroke-width="2" fill="none" /><path id="418" transform="matrix(1 0 0 -1 0 841)" d="M307.5586 222.1641L307.5586 181.3211" stroke="#587541" stroke-width="2" fill="none" /><path id="419" transform="matrix(1 0 0 -1 0 841)" d="M403.6533 222.1641L403.6533 181.3211" stroke="#587541" stroke-width="2" fill="none" /><path id="420" transform="matrix(1 0 0 -1 0 841)" d="M499.7478 222.1641L499.7478 181.3211" stroke="#587541" stroke-width="2" fill="none" /><path id="421" transform="matrix(1 0 0 -1 0 841)" d="M70.866 219.018L159.874 219.018L159.874 305.289L70.866 305.289z" stroke="none" fill="#D7D7C9" fill-rule="nonzero" /><path id="422" transform="matrix(1 0 0 -1 0 841)" d="M79.9843 275.6871L152.2303 275.6871" stroke="#000000" stroke-width="1" stroke-linecap="round" stroke-dasharray="1,1.949" fill="none" /><path id="423" transform="matrix(1 0 0 -1 0 841)" d="M153.7044 275.6871L153.7044 275.6871M77.0354 275.6871L77.0354 275.6871" stroke="#000000" stroke-width="1" stroke-linecap="round" fill="none" /><path id="424" transform="matrix(1 0 0 -1 0 841)" d="M79.9843 262.6871L152.2303 262.6871" stroke="#000000" stroke-width="1" stroke-linecap="round" stroke-dasharray="1,1.949" fill="none" /><path id="425" transform="matrix(1 0 0 -1 0 841)" d="M153.7044 262.6871L153.7044 262.6871M77.0354 262.6871L77.0354 262.6871" stroke="#000000" stroke-width="1" stroke-linecap="round" fill="none" /><path id="426" transform="matrix(1 0 0 -1 0 841)" d="M79.9843 249.6871L152.2303 249.6871" stroke="#000000" stroke-width="1" stroke-linecap="round" stroke-dasharray="1,1.949" fill="none" /><path id="427" transform="matrix(1 0 0 -1 0 841)" d="M153.7044 249.6871L153.7044 249.6871M77.0354 249.6871L77.0354 249.6871" stroke="#000000" stroke-width="1" stroke-linecap="round" fill="none" /><path id="428" transform="matrix(1 0 0 -1 0 841)" d="M79.9843 236.6871L152.2303 236.6871" stroke="#000000" stroke-width="1" stroke-linecap="round" stroke-dasharray="1,1.949" fill="none" /><path id="429" transform="matrix(1 0 0 -1 0 841)" d="M153.7044 236.6871L153.7044 236.6871M77.0354 236.6871L77.0354 236.6871" stroke="#000000" stroke-width="1" stroke-linecap="round" fill="none" /><path id="430" transform="matrix(1 0 0 -1 0 841)" d="M79.9843 223.6871L152.2303 223.6871" stroke="#000000" stroke-width="1" stroke-linecap="round" stroke-dasharray="1,1.949" fill="none" /><path id="431" transform="matrix(1 0 0 -1 0 841)" d="M153.7044 223.6871L153.7044 223.6871M77.0354 223.6871L77.0354 223.6871" stroke="#000000" stroke-width="1" stroke-linecap="round" fill="none" /><path id="460" transform="matrix(1 0 0 -1 0 841)" d="M84.852 300.452L145.889 300.452L145.889 313.321L84.852 313.321z" stroke="none" fill="#FFFFFF" fill-rule="nonzero" /><path id="472" transform="matrix(1 0 0 -1 0 841)" d="M166.961 219.018L255.969 219.018L255.969 305.289L166.961 305.289z" stroke="none" fill="#D6D7C9" fill-rule="nonzero" /><path id="473" transform="matrix(1 0 0 -1 0 841)" d="M176.0787 275.6871L248.3247 275.6871" stroke="#000000" stroke-width="1" stroke-linecap="round" stroke-dasharray="1,1.949" fill="none" /><path id="474" transform="matrix(1 0 0 -1 0 841)" d="M249.7989 275.6871L249.7989 275.6871M173.1299 275.6871L173.1299 275.6871" stroke="#000000" stroke-width="1" stroke-linecap="round" fill="none" /><path id="475" transform="matrix(1 0 0 -1 0 841)" d="M176.0787 262.6871L248.3247 262.6871" stroke="#000000" stroke-width="1" stroke-linecap="round" stroke-dasharray="1,1.949" fill="none" /><path id="476" transform="matrix(1 0 0 -1 0 841)" d="M249.7989 262.6871L249.7989 262.6871M173.1299 262.6871L173.1299 262.6871" stroke="#000000" stroke-width="1" stroke-linecap="round" fill="none" /><path id="477" transform="matrix(1 0 0 -1 0 841)" d="M176.0787 249.6871L248.3247 249.6871" stroke="#000000" stroke-width="1" stroke-linecap="round" stroke-dasharray="1,1.949" fill="none" /><path id="478" transform="matrix(1 0 0 -1 0 841)" d="M249.7989 249.6871L249.7989 249.6871M173.1299 249.6871L173.1299 249.6871" stroke="#000000" stroke-width="1" stroke-linecap="round" fill="none" /><path id="479" transform="matrix(1 0 0 -1 0 841)" d="M176.0787 236.6871L248.3247 236.6871" stroke="#000000" stroke-width="1" stroke-linecap="round" stroke-dasharray="1,1.949" fill="none" /><path id="480" transform="matrix(1 0 0 -1 0 841)" d="M249.7989 236.6871L249.7989 236.6871M173.1299 236.6871L173.1299 236.6871" stroke="#000000" stroke-width="1" stroke-linecap="round" fill="none" /><path id="481" transform="matrix(1 0 0 -1 0 841)" d="M176.0787 223.6871L248.3247 223.6871" stroke="#000000" stroke-width="1" stroke-linecap="round" stroke-dasharray="1,1.949" fill="none" /><path id="482" transform="matrix(1 0 0 -1 0 841)" d="M249.7989 223.6871L249.7989 223.6871M173.1299 223.6871L173.1299 223.6871" stroke="#000000" stroke-width="1" stroke-linecap="round" fill="none" /><path id="500" transform="matrix(1 0 0 -1 0 841)" d="M186.486 300.452L236.444 300.452L236.444 313.321L186.486 313.321z" stroke="none" fill="#FFFFFF" fill-rule="nonzero" /><path id="509" transform="matrix(1 0 0 -1 0 841)" d="M455.244 219.018L544.252 219.018L544.252 305.289L455.244 305.289z" stroke="none" fill="#D6D7C9" fill-rule="nonzero" /><path id="510" transform="matrix(1 0 0 -1 0 841)" d="M464.3622 275.6871L536.6082 275.6871" stroke="#000000" stroke-width="1" stroke-linecap="round" stroke-dasharray="1,1.949" fill="none" /><path id="511" transform="matrix(1 0 0 -1 0 841)" d="M538.0824 275.6871L538.0824 275.6871M461.4134 275.6871L461.4134 275.6871" stroke="#000000" stroke-width="1" stroke-linecap="round" fill="none" /><path id="512" transform="matrix(1 0 0 -1 0 841)" d="M464.3622 262.6871L536.6082 262.6871" stroke="#000000" stroke-width="1" stroke-linecap="round" stroke-dasharray="1,1.949" fill="none" /><path id="513" transform="matrix(1 0 0 -1 0 841)" d="M538.0824 262.6871L538.0824 262.6871M461.4134 262.6871L461.4134 262.6871" stroke="#000000" stroke-width="1" stroke-linecap="round" fill="none" /><path id="514" transform="matrix(1 0 0 -1 0 841)" d="M464.3622 249.6871L536.6082 249.6871" stroke="#000000" stroke-width="1" stroke-linecap="round" stroke-dasharray="1,1.949" fill="none" /><path id="515" transform="matrix(1 0 0 -1 0 841)" d="M538.0824 249.6871L538.0824 249.6871M461.4134 249.6871L461.4134 249.6871" stroke="#000000" stroke-width="1" stroke-linecap="round" fill="none" /><path id="516" transform="matrix(1 0 0 -1 0 841)" d="M464.3622 236.6871L536.6082 236.6871" stroke="#000000" stroke-width="1" stroke-linecap="round" stroke-dasharray="1,1.949" fill="none" /><path id="517" transform="matrix(1 0 0 -1 0 841)" d="M538.0824 236.6871L538.0824 236.6871M461.4134 236.6871L461.4134 236.6871" stroke="#000000" stroke-width="1" stroke-linecap="round" fill="none" /><path id="518" transform="matrix(1 0 0 -1 0 841)" d="M464.3622 223.6871L536.6082 223.6871" stroke="#000000" stroke-width="1" stroke-linecap="round" stroke-dasharray="1,1.949" fill="none" /><path id="519" transform="matrix(1 0 0 -1 0 841)" d="M538.0824 223.6871L538.0824 223.6871M461.4134 223.6871L461.4134 223.6871" stroke="#000000" stroke-width="1" stroke-linecap="round" fill="none" /><path id="539" transform="matrix(1 0 0 -1 0 841)" d="M464.458 300.452L538.257 300.452L538.257 313.321L464.458 313.321z" stroke="none" fill="#FFFFFF" fill-rule="nonzero" /><path id="553" transform="matrix(1 0 0 -1 0 841)" d="M263.055 219.018L352.063 219.018L352.063 305.289L263.055 305.289z" stroke="none" fill="#D6D7C9" fill-rule="nonzero" /><path id="554" transform="matrix(1 0 0 -1 0 841)" d="M272.1732 275.6871L344.4192 275.6871" stroke="#000000" stroke-width="1" stroke-linecap="round" stroke-dasharray="1,1.949" fill="none" /><path id="555" transform="matrix(1 0 0 -1 0 841)" d="M345.8934 275.6871L345.8934 275.6871M269.2244 275.6871L269.2244 275.6871" stroke="#000000" stroke-width="1" stroke-linecap="round" fill="none" /><path id="556" transform="matrix(1 0 0 -1 0 841)" d="M272.1732 262.6871L344.4192 262.6871" stroke="#000000" stroke-width="1" stroke-linecap="round" stroke-dasharray="1,1.949" fill="none" /><path id="557" transform="matrix(1 0 0 -1 0 841)" d="M345.8934 262.6871L345.8934 262.6871M269.2244 262.6871L269.2244 262.6871" stroke="#000000" stroke-width="1" stroke-linecap="round" fill="none" /><path id="558" transform="matrix(1 0 0 -1 0 841)" d="M272.1732 249.6871L344.4192 249.6871" stroke="#000000" stroke-width="1" stroke-linecap="round" stroke-dasharray="1,1.949" fill="none" /><path id="559" transform="matrix(1 0 0 -1 0 841)" d="M345.8934 249.6871L345.8934 249.6871M269.2244 249.6871L269.2244 249.6871" stroke="#000000" stroke-width="1" stroke-linecap="round" fill="none" /><path id="560" transform="matrix(1 0 0 -1 0 841)" d="M272.1732 236.6871L344.4192 236.6871" stroke="#000000" stroke-width="1" stroke-linecap="round" stroke-dasharray="1,1.949" fill="none" /><path id="561" transform="matrix(1 0 0 -1 0 841)" d="M345.8934 236.6871L345.8934 236.6871M269.2244 236.6871L269.2244 236.6871" stroke="#000000" stroke-width="1" stroke-linecap="round" fill="none" /><path id="562" transform="matrix(1 0 0 -1 0 841)" d="M272.1732 223.6871L344.4192 223.6871" stroke="#000000" stroke-width="1" stroke-linecap="round" stroke-dasharray="1,1.949" fill="none" /><path id="563" transform="matrix(1 0 0 -1 0 841)" d="M345.8934 223.6871L345.8934 223.6871M269.2244 223.6871L269.2244 223.6871" stroke="#000000" stroke-width="1" stroke-linecap="round" fill="none" /><path id="591" transform="matrix(1 0 0 -1 0 841)" d="M290.622 300.452L324.497 300.452L324.497 313.321L290.622 313.321z" stroke="none" fill="#FFFFFF" fill-rule="nonzero" /><path id="598" transform="matrix(1 0 0 -1 0 841)" d="M359.15 219.018L448.158 219.018L448.158 305.289L359.15 305.289z" stroke="none" fill="#D6D7C9" fill-rule="nonzero" /><path id="599" transform="matrix(1 0 0 -1 0 841)" d="M368.2677 275.6872L440.5137 275.6872" stroke="#000000" stroke-width="1" stroke-linecap="round" stroke-dasharray="1,1.949" fill="none" /><path id="600" transform="matrix(1 0 0 -1 0 841)" d="M441.9879 275.6872L441.9879 275.6872M365.3189 275.6872L365.3189 275.6872" stroke="#000000" stroke-width="1" stroke-linecap="round" fill="none" /><path id="601" transform="matrix(1 0 0 -1 0 841)" d="M368.2677 262.6872L440.5137 262.6872" stroke="#000000" stroke-width="1" stroke-linecap="round" stroke-dasharray="1,1.949" fill="none" /><path id="602" transform="matrix(1 0 0 -1 0 841)" d="M441.9879 262.6872L441.9879 262.6872M365.3189 262.6872L365.3189 262.6872" stroke="#000000" stroke-width="1" stroke-linecap="round" fill="none" /><path id="603" transform="matrix(1 0 0 -1 0 841)" d="M368.2677 249.6872L440.5137 249.6872" stroke="#000000" stroke-width="1" stroke-linecap="round" stroke-dasharray="1,1.949" fill="none" /><path id="604" transform="matrix(1 0 0 -1 0 841)" d="M441.9879 249.6872L441.9879 249.6872M365.3189 249.6872L365.3189 249.6872" stroke="#000000" stroke-width="1" stroke-linecap="round" fill="none" /><path id="605" transform="matrix(1 0 0 -1 0 841)" d="M368.2677 236.6872L440.5137 236.6872" stroke="#000000" stroke-width="1" stroke-linecap="round" stroke-dasharray="1,1.949" fill="none" /><path id="606" transform="matrix(1 0 0 -1 0 841)" d="M441.9879 236.6872L441.9879 236.6872M365.3189 236.6872L365.3189 236.6872" stroke="#000000" stroke-width="1" stroke-linecap="round" fill="none" /><path id="607" transform="matrix(1 0 0 -1 0 841)" d="M368.2677 223.6872L440.5137 223.6872" stroke="#000000" stroke-width="1" stroke-linecap="round" stroke-dasharray="1,1.949" fill="none" /><path id="608" transform="matrix(1 0 0 -1 0 841)" d="M441.9879 223.6872L441.9879 223.6872M365.3189 223.6872L365.3189 223.6872" stroke="#000000" stroke-width="1" stroke-linecap="round" fill="none" /><path id="648" transform="matrix(1 0 0 -1 0 841)" d="M371.16 287.361L435.992 287.361L435.992 313.322L371.16 313.322z" stroke="none" fill="#FFFFFF" fill-rule="nonzero" /><path id="670" transform="matrix(1 0 0 -1 0 841)" d="M123.992 54.017L213 54.017L213 140.288L123.992 140.288z" stroke="none" fill="#D6D7C9" fill-rule="nonzero" /><path id="671" transform="matrix(1 0 0 -1 0 841)" d="M133.1102 110.6863L205.3562 110.6863" stroke="#000000" stroke-width="1" stroke-linecap="round" stroke-dasharray="1,1.949" fill="none" /><path id="672" transform="matrix(1 0 0 -1 0 841)" d="M206.8304 110.6863L206.8304 110.6863M130.1614 110.6863L130.1614 110.6863" stroke="#000000" stroke-width="1" stroke-linecap="round" fill="none" /><path id="673" transform="matrix(1 0 0 -1 0 841)" d="M133.1102 97.6863L205.3562 97.6863" stroke="#000000" stroke-width="1" stroke-linecap="round" stroke-dasharray="1,1.949" fill="none" /><path id="674" transform="matrix(1 0 0 -1 0 841)" d="M206.8304 97.6863L206.8304 97.6863M130.1614 97.6863L130.1614 97.6863" stroke="#000000" stroke-width="1" stroke-linecap="round" fill="none" /><path id="675" transform="matrix(1 0 0 -1 0 841)" d="M133.1102 84.6863L205.3562 84.6863" stroke="#000000" stroke-width="1" stroke-linecap="round" stroke-dasharray="1,1.949" fill="none" /><path id="676" transform="matrix(1 0 0 -1 0 841)" d="M206.8304 84.6863L206.8304 84.6863M130.1614 84.6863L130.1614 84.6863" stroke="#000000" stroke-width="1" stroke-linecap="round" fill="none" /><path id="677" transform="matrix(1 0 0 -1 0 841)" d="M133.1102 71.6863L205.3562 71.6863" stroke="#000000" stroke-width="1" stroke-linecap="round" stroke-dasharray="1,1.949" fill="none" /><path id="678" transform="matrix(1 0 0 -1 0 841)" d="M206.8304 71.6863L206.8304 71.6863M130.1614 71.6863L130.1614 71.6863" stroke="#000000" stroke-width="1" stroke-linecap="round" fill="none" /><path id="679" transform="matrix(1 0 0 -1 0 841)" d="M133.1102 58.6863L205.3562 58.6863" stroke="#000000" stroke-width="1" stroke-linecap="round" stroke-dasharray="1,1.949" fill="none" /><path id="680" transform="matrix(1 0 0 -1 0 841)" d="M206.8304 58.6863L206.8304 58.6863M130.1614 58.6863L130.1614 58.6863" stroke="#000000" stroke-width="1" stroke-linecap="round" fill="none" /><path id="704" transform="matrix(1 0 0 -1 0 841)" d="M136.315 135.452L201.26 135.452L201.26 148.321L136.315 148.321z" stroke="none" fill="#FFFFFF" fill-rule="nonzero" /><path id="714" transform="matrix(1 0 0 -1 0 841)" d="M316.181 54.017L405.189 54.017L405.189 140.288L316.181 140.288z" stroke="none" fill="#D6D7C9" fill-rule="nonzero" /><path id="715" transform="matrix(1 0 0 -1 0 841)" d="M325.2992 110.6863L397.5452 110.6863" stroke="#000000" stroke-width="1" stroke-linecap="round" stroke-dasharray="1,1.949" fill="none" /><path id="716" transform="matrix(1 0 0 -1 0 841)" d="M399.0194 110.6863L399.0194 110.6863M322.3504 110.6863L322.3504 110.6863" stroke="#000000" stroke-width="1" stroke-linecap="round" fill="none" /><path id="717" transform="matrix(1 0 0 -1 0 841)" d="M325.2992 97.6863L397.5452 97.6863" stroke="#000000" stroke-width="1" stroke-linecap="round" stroke-dasharray="1,1.949" fill="none" /><path id="718" transform="matrix(1 0 0 -1 0 841)" d="M399.0194 97.6863L399.0194 97.6863M322.3504 97.6863L322.3504 97.6863" stroke="#000000" stroke-width="1" stroke-linecap="round" fill="none" /><path id="719" transform="matrix(1 0 0 -1 0 841)" d="M325.2992 84.6863L397.5452 84.6863" stroke="#000000" stroke-width="1" stroke-linecap="round" stroke-dasharray="1,1.949" fill="none" /><path id="720" transform="matrix(1 0 0 -1 0 841)" d="M399.0194 84.6863L399.0194 84.6863M322.3504 84.6863L322.3504 84.6863" stroke="#000000" stroke-width="1" stroke-linecap="round" fill="none" /><path id="721" transform="matrix(1 0 0 -1 0 841)" d="M325.2992 71.6863L397.5452 71.6863" stroke="#000000" stroke-width="1" stroke-linecap="round" stroke-dasharray="1,1.949" fill="none" /><path id="722" transform="matrix(1 0 0 -1 0 841)" d="M399.0194 71.6863L399.0194 71.6863M322.3504 71.6863L322.3504 71.6863" stroke="#000000" stroke-width="1" stroke-linecap="round" fill="none" /><path id="723" transform="matrix(1 0 0 -1 0 841)" d="M325.2992 58.6863L397.5452 58.6863" stroke="#000000" stroke-width="1" stroke-linecap="round" stroke-dasharray="1,1.949" fill="none" /><path id="724" transform="matrix(1 0 0 -1 0 841)" d="M399.0194 58.6863L399.0194 58.6863M322.3504 58.6863L322.3504 58.6863" stroke="#000000" stroke-width="1" stroke-linecap="round" fill="none" /><path id="761" transform="matrix(1 0 0 -1 0 841)" d="M321.276 125.452L400.093 125.452L400.093 148.321L321.276 148.321z" stroke="none" fill="#FFFFFF" fill-rule="nonzero" /><path id="793" transform="matrix(1 0 0 -1 0 841)" d="M412.276 54.017L501.284 54.017L501.284 140.288L412.276 140.288z" stroke="none" fill="#D6D7C9" fill-rule="nonzero" /><path id="794" transform="matrix(1 0 0 -1 0 841)" d="M421.4468 110.6863L476.9818 110.6863" stroke="#000000" stroke-width="1" stroke-linecap="round" stroke-dasharray="1,2.002" fill="none" /><path id="795" transform="matrix(1 0 0 -1 0 841)" d="M478.4829 110.6863L478.4829 110.6863M418.4449 110.6863L418.4449 110.6863" stroke="#000000" stroke-width="1" stroke-linecap="round" fill="none" /><path id="796" transform="matrix(1 0 0 -1 0 841)" d="M421.3937 97.6863L493.6397 97.6863" stroke="#000000" stroke-width="1" stroke-linecap="round" stroke-dasharray="1,1.949" fill="none" /><path id="797" transform="matrix(1 0 0 -1 0 841)" d="M495.1139 97.6863L495.1139 97.6863M418.4449 97.6863L418.4449 97.6863" stroke="#000000" stroke-width="1" stroke-linecap="round" fill="none" /><path id="798" transform="matrix(1 0 0 -1 0 841)" d="M421.3937 84.6863L493.6397 84.6863" stroke="#000000" stroke-width="1" stroke-linecap="round" stroke-dasharray="1,1.949" fill="none" /><path id="799" transform="matrix(1 0 0 -1 0 841)" d="M495.1139 84.6863L495.1139 84.6863M418.4449 84.6863L418.4449 84.6863" stroke="#000000" stroke-width="1" stroke-linecap="round" fill="none" /><path id="800" transform="matrix(1 0 0 -1 0 841)" d="M421.3937 71.6863L493.6397 71.6863" stroke="#000000" stroke-width="1" stroke-linecap="round" stroke-dasharray="1,1.949" fill="none" /><path id="801" transform="matrix(1 0 0 -1 0 841)" d="M495.1139 71.6863L495.1139 71.6863M418.4449 71.6863L418.4449 71.6863" stroke="#000000" stroke-width="1" stroke-linecap="round" fill="none" /><path id="802" transform="matrix(1 0 0 -1 0 841)" d="M421.3937 58.6863L493.6397 58.6863" stroke="#000000" stroke-width="1" stroke-linecap="round" stroke-dasharray="1,1.949" fill="none" /><path id="803" transform="matrix(1 0 0 -1 0 841)" d="M495.1139 58.6863L495.1139 58.6863M418.4449 58.6863L418.4449 58.6863" stroke="#000000" stroke-width="1" stroke-linecap="round" fill="none" /><path id="830" transform="matrix(1 0 0 -1 0 841)" d="M422.362 134.039L491.102 134.039L491.102 148.32L422.362 148.32z" stroke="none" fill="#FFFFFF" fill-rule="nonzero" /><path id="842" transform="matrix(1 0 0 -1 0 841)" d="M220.087 54.017L309.095 54.017L309.095 140.288L220.087 140.288z" stroke="none" fill="#D6D7C9" fill-rule="nonzero" /><path id="843" transform="matrix(1 0 0 -1 0 841)" d="M229.2047 110.6863L301.4507 110.6863" stroke="#000000" stroke-width="1" stroke-linecap="round" stroke-dasharray="1,1.949" fill="none" /><path id="844" transform="matrix(1 0 0 -1 0 841)" d="M302.9249 110.6863L302.9249 110.6863M226.2559 110.6863L226.2559 110.6863" stroke="#000000" stroke-width="1" stroke-linecap="round" fill="none" /><path id="845" transform="matrix(1 0 0 -1 0 841)" d="M229.2047 97.6863L301.4507 97.6863" stroke="#000000" stroke-width="1" stroke-linecap="round" stroke-dasharray="1,1.949" fill="none" /><path id="846" transform="matrix(1 0 0 -1 0 841)" d="M302.9249 97.6863L302.9249 97.6863M226.2559 97.6863L226.2559 97.6863" stroke="#000000" stroke-width="1" stroke-linecap="round" fill="none" /><path id="847" transform="matrix(1 0 0 -1 0 841)" d="M229.2047 84.6863L301.4507 84.6863" stroke="#000000" stroke-width="1" stroke-linecap="round" stroke-dasharray="1,1.949" fill="none" /><path id="848" transform="matrix(1 0 0 -1 0 841)" d="M302.9249 84.6863L302.9249 84.6863M226.2559 84.6863L226.2559 84.6863" stroke="#000000" stroke-width="1" stroke-linecap="round" fill="none" /><path id="849" transform="matrix(1 0 0 -1 0 841)" d="M229.2047 71.6863L301.4507 71.6863" stroke="#000000" stroke-width="1" stroke-linecap="round" stroke-dasharray="1,1.949" fill="none" /><path id="850" transform="matrix(1 0 0 -1 0 841)" d="M302.9249 71.6863L302.9249 71.6863M226.2559 71.6863L226.2559 71.6863" stroke="#000000" stroke-width="1" stroke-linecap="round" fill="none" /><path id="851" transform="matrix(1 0 0 -1 0 841)" d="M229.2047 58.6863L301.4507 58.6863" stroke="#000000" stroke-width="1" stroke-linecap="round" stroke-dasharray="1,1.949" fill="none" /><path id="852" transform="matrix(1 0 0 -1 0 841)" d="M302.9249 58.6863L302.9249 58.6863M226.2559 58.6863L226.2559 58.6863" stroke="#000000" stroke-width="1" stroke-linecap="round" fill="none" /><path id="875" transform="matrix(1 0 0 -1 0 841)" d="M242.863 135.452L289.134 135.452L289.134 148.321L242.863 148.321z" stroke="none" fill="#FFFFFF" fill-rule="nonzero" /><path id="882" transform="matrix(1 0 0 -1 0 841)" d="M227.937 164.715L387.181 164.715L387.181 199.926L227.937 199.926z" stroke="none" fill="#587541" fill-rule="nonzero" /><path id="910" transform="matrix(1 0 0 -1 0 841)" d="M172.267 585.039L262.952 585.039L262.952 515.583L172.267 515.583z" stroke="none" fill="#D6D7C9" fill-rule="nonzero" /><g clip-path="url(#2)"><g transform="matrix(0.5284514 0 0 0.5292942 171.0631 254.4478)"><g transform="matrix(1 0 0 1 0 0)"><image x="0" y="0" xlink:href="img_56.png" width="176" height="136" /></g></g></g><g clip-path="url(#3)"><path id="912" transform="matrix(1 0 0 -1 0 841)" d="M190.1389 524.5328C 195.0819 524.5328 199.0879 528.5398 199.0879 533.4818C 199.0879 538.4248 195.0819 542.4308 190.1389 542.4308C 185.1959 542.4308 181.1899 538.4248 181.1899 533.4818C 181.1899 528.5398 185.1959 524.5328 190.1389 524.5328" stroke="none" fill="#FFFFFF" fill-rule="nonzero" /></g><path id="913" transform="matrix(1 0 0 -1 0 841)" d="M265.787 585.039L356.472 585.039L356.472 515.583L265.787 515.583z" stroke="none" fill="#D6D7C9" fill-rule="nonzero" /><g clip-path="url(#4)"><g transform="matrix(0.5781065 0 0 0.5787979 264.3029 255.9606)"><g transform="matrix(1 0 0 1 0 0)"><image x="0" y="0" xlink:href="img_57.png" width="162" height="120" /></g></g></g><g clip-path="url(#5)"><path id="915" transform="matrix(1 0 0 -1 0 841)" d="M283.6588 524.5328C 288.6018 524.5328 292.6078 528.5398 292.6078 533.4818C 292.6078 538.4248 288.6018 542.4308 283.6588 542.4308C 278.7158 542.4308 274.7098 538.4248 274.7098 533.4818C 274.7098 528.5398 278.7158 524.5328 283.6588 524.5328" stroke="none" fill="#FFFFFF" fill-rule="nonzero" /></g><path id="916" transform="matrix(1 0 0 -1 0 841)" d="M359.307 585.039L449.992 585.039L449.992 515.583L359.307 515.583z" stroke="none" fill="#D6D7C9" fill-rule="nonzero" /><g clip-path="url(#6)"><g transform="matrix(0.5527318 0 0 0.5500997 357.7615 255.9606)"><g transform="matrix(1 0 0 1 0 0)"><image x="0" y="0" xlink:href="img_58.png" width="169" height="129" /></g></g></g><g clip-path="url(#7)"><path id="918" transform="matrix(1 0 0 -1 0 841)" d="M377.1787 524.5328C 382.1217 524.5328 386.1277 528.5398 386.1277 533.4818C 386.1277 538.4248 382.1217 542.4308 377.1787 542.4308C 372.2357 542.4308 368.2297 538.4248 368.2297 533.4818C 368.2297 528.5398 372.2357 524.5328 377.1787 524.5328" stroke="none" fill="#FFFFFF" fill-rule="nonzero" /></g><path id="919" transform="matrix(1 0 0 -1 0 841)" d="M452.827 585.039L543.512 585.039L543.512 515.583L452.827 515.583z" stroke="none" fill="#D6D7C9" fill-rule="nonzero" /><g clip-path="url(#8)"><g transform="matrix(0.578376 0 0 0.5808409 452.1595 254.8765)"><g transform="matrix(1 0 0 1 0 0)"><image x="0" y="0" xlink:href="img_59.png" width="160" height="121" /></g></g></g><g clip-path="url(#9)"><path id="921" transform="matrix(1 0 0 -1 0 841)" d="M470.6986 524.5328C 475.6416 524.5328 479.6476 528.5398 479.6476 533.4818C 479.6476 538.4248 475.6416 542.4308 470.6986 542.4308C 465.7556 542.4308 461.7496 538.4248 461.7496 533.4818C 461.7496 528.5398 465.7556 524.5328 470.6986 524.5328" stroke="none" fill="#FFFFFF" fill-rule="nonzero" /></g><path id="922" transform="matrix(1 0 0 -1 0 841)" d="M265.943 512.749L356.628 512.749L356.628 443.293L265.943 443.293z" stroke="none" fill="#D6D7C9" fill-rule="nonzero" /><g clip-path="url(#10)"><g transform="matrix(0.5448256 0 0 0.5437382 264.7686 326.8625)"><g transform="matrix(1 0 0 1 0 0)"><image x="0" y="0" xlink:href="img_60.png" width="171" height="133" /></g></g></g><g clip-path="url(#11)"><path id="924" transform="matrix(1 0 0 -1 0 841)" d="M283.8149 452.2424C 288.7579 452.2424 292.7639 456.2494 292.7639 461.1914C 292.7639 466.1344 288.7579 470.1404 283.8149 470.1404C 278.8719 470.1404 274.8659 466.1344 274.8659 461.1914C 274.8659 456.2494 278.8719 452.2424 283.8149 452.2424" stroke="none" fill="#FFFFFF" fill-rule="nonzero" /></g><path id="925" transform="matrix(1 0 0 -1 0 841)" d="M359.463 512.749L450.148 512.749L450.148 443.293L359.463 443.293z" stroke="none" fill="#D6D7C9" fill-rule="nonzero" /><g clip-path="url(#12)"><g transform="matrix(0.5198347 0 0 0.5217136 358.3999 326.7703)"><g transform="matrix(1 0 0 1 0 0)"><image x="0" y="0" xlink:href="img_61.png" width="179" height="138" /></g></g></g><g clip-path="url(#13)"><path id="927" transform="matrix(1 0 0 -1 0 841)" d="M377.3348 452.2424C 382.2778 452.2424 386.2838 456.2494 386.2838 461.1914C 386.2838 466.1344 382.2778 470.1404 377.3348 470.1404C 372.3918 470.1404 368.3858 466.1344 368.3858 461.1914C 368.3858 456.2494 372.3918 452.2424 377.3348 452.2424" stroke="none" fill="#FFFFFF" fill-rule="nonzero" /></g><path id="928" transform="matrix(1 0 0 -1 0 841)" d="M172.423 512.749L263.108 512.749L263.108 443.293L172.423 443.293z" stroke="none" fill="#D6D7C9" fill-rule="nonzero" /><g clip-path="url(#14)"><g transform="matrix(0.5796097 0 0 0.5795038 171.3627 326.8689)"><g transform="matrix(1 0 0 1 0 0)"><image x="0" y="0" xlink:href="img_62.png" width="161" height="124" /></g></g></g><g clip-path="url(#15)"><path id="930" transform="matrix(1 0 0 -1 0 841)" d="M190.295 452.2424C 195.238 452.2424 199.244 456.2494 199.244 461.1914C 199.244 466.1344 195.238 470.1404 190.295 470.1404C 185.352 470.1404 181.346 466.1344 181.346 461.1914C 181.346 456.2494 185.352 452.2424 190.295 452.2424" stroke="none" fill="#FFFFFF" fill-rule="nonzero" /></g><path id="931" transform="matrix(1 0 0 -1 0 841)" d="M452.983 512.749L543.668 512.749L543.668 443.293L452.983 443.293z" stroke="none" fill="#D6D7C9" fill-rule="nonzero" /><g clip-path="url(#16)"><g transform="matrix(0.5181078 0 0 0.5170736 451.6033 328.251)"><g transform="matrix(1 0 0 1 0 0)"><image x="0" y="0" xlink:href="img_63.png" width="180" height="137" /></g></g></g><g clip-path="url(#17)"><path id="933" transform="matrix(1 0 0 -1 0 841)" d="M469.8037 450.8994C 474.7467 450.8994 478.7527 454.9064 478.7527 459.8484C 478.7527 464.7914 474.7467 468.7974 469.8037 468.7974C 464.8607 468.7974 460.8547 464.7914 460.8547 459.8484C 460.8547 454.9064 464.8607 450.8994 469.8037 450.8994" stroke="none" fill="#FFFFFF" fill-rule="nonzero" /><path id="934" transform="matrix(1 0 0 -1 0 841)" d="M454.6421 494.334C 453.4071 499.933 461.5611 505.991 472.8531 507.867C 484.1461 509.742 494.3011 506.723 495.5361 501.125C 496.1951 498.135 494.1611 495.022 490.4211 492.478C 492.7311 491.414 495.6551 490.688 498.9351 490.416C 497.0391 489.934 495.0031 489.582 492.8631 489.404C 490.0211 489.168 487.3061 489.26 484.8341 489.611C 482.5681 488.74 480.0411 488.043 477.3251 487.592C 466.0321 485.717 455.8771 488.735 454.6421 494.334" stroke="none" fill="#D1D3D4" fill-rule="nonzero" /></g><path id="935" transform="matrix(1 0 0 -1 0 841)" d="M468.317 502.3503L467.6891 502.2926L467.6891 502.2926L467.7829 501.2723L467.7829 501.2723L466.7476 501.1772L466.7476 501.1772L466.6538 502.1974L466.6538 502.1974L466.0222 502.1394L466.0222 502.1394L466.2557 499.598L466.2557 499.598L466.8874 499.656L466.8874 499.656L466.7998 500.6091L466.7998 500.6091L467.8351 500.7042L467.8351 500.7042L467.9226 499.7512L467.9226 499.7512L468.5505 499.8088z" stroke="none" fill="#000000" fill-rule="evenodd" /><path id="936" transform="matrix(1 0 0 -1 0 841)" d="M470.0837 502.5654C 469.3163 502.4949 468.7921 501.8562 468.8598 501.1187C 468.928 500.3762 469.5594 499.8488 470.3268 499.9193C 471.0893 499.9893 471.619 500.6235 471.5508 501.366C 471.483 502.1035 470.8461 502.6354 470.0837 502.5654zM470.2729 500.5061C 469.8593 500.468 469.536 500.7738 469.4989 501.1774C 469.4623 501.5761 469.724 501.9406 470.1376 501.9786C 470.5462 502.0161 470.875 501.7059 470.9117 501.3072C 470.9487 500.9036 470.6815 500.5436 470.2729 500.5061z" stroke="none" fill="#000000" fill-rule="evenodd" /><path id="937" transform="matrix(1 0 0 -1 0 841)" d="M473.9298 500.8647L472.674 500.7493L472.674 500.7493L472.4917 502.7339L472.4917 502.7339L471.86 502.6758L471.86 502.6758L472.0936 500.1344L472.0936 500.1344L473.981 500.3078z" stroke="none" fill="#000000" fill-rule="evenodd" /><path id="938" transform="matrix(1 0 0 -1 0 841)" d="M476.015 500.9357L476.2271 500.5142L476.2271 500.5142L476.8998 500.576L476.8998 500.576L475.5886 503.0335L475.5886 503.0335L474.9832 502.9778L474.9832 502.9778L474.1379 500.3222L474.1379 500.3222L474.8106 500.384L474.8106 500.384L474.9387 500.8368zM475.7563 501.4546L475.0985 501.3942L475.0985 501.3942L475.3498 502.269z" stroke="none" fill="#000000" fill-rule="evenodd" /><path id="940" transform="matrix(1 0 0 -1 0 841)" d="M479.8645 501.2894L480.0766 500.8679L480.0766 500.8679L480.7494 500.9297L480.7494 500.9297L479.4381 503.3872L479.4381 503.3872L478.8326 503.3316L478.8326 503.3316L477.9874 500.6759L477.9874 500.6759L478.6602 500.7378L478.6602 500.7378L478.7882 501.1905zM479.6058 501.8083L478.948 501.7479L478.948 501.7479L479.1993 502.6228z" stroke="none" fill="#000000" fill-rule="evenodd" /><path id="943" transform="matrix(1 0 0 -1 0 841)" d="M458.1818 496.3271L458.1299 496.8914L458.1299 496.8914L455.88 496.6847L455.88 496.6847L455.9319 496.1204L455.9319 496.1204L456.7429 496.1949L456.7429 496.1949L456.9246 494.2178L456.9246 494.2178L457.5525 494.2755L457.5525 494.2755L457.3708 496.2526z" stroke="none" fill="#000000" fill-rule="evenodd" /><path id="944" transform="matrix(1 0 0 -1 0 841)" d="M459.5715 497.0767C 458.8041 497.0062 458.2798 496.3676 458.3476 495.63C 458.4158 494.8875 459.0472 494.3601 459.8146 494.4306C 460.5771 494.5007 461.1068 495.1348 461.0385 495.8773C 460.9708 496.6148 460.334 497.1468 459.5715 497.0767zM459.7607 495.0174C 459.3471 494.9794 459.0238 495.2851 458.9867 495.6888C 458.9501 496.0874 459.2118 496.4519 459.6254 496.4899C 460.0341 496.5275 460.3628 496.2172 460.3994 495.8186C 460.4365 495.4149 460.1693 495.0549 459.7607 495.0174z" stroke="none" fill="#000000" fill-rule="evenodd" /><path id="945" transform="matrix(1 0 0 -1 0 841)" d="M461.3478 497.1871L461.5814 494.6457L461.5814 494.6457L462.6017 494.7395C 463.399 494.8127 463.9254 495.3862 463.8559 496.1437C 463.7876 496.8862 463.1655 497.3542 462.3682 497.2809zM462.1608 495.2718L462.0317 496.6771L462.0317 496.6771L462.4203 496.7128C 462.834 496.7508 463.1773 496.4733 463.213 496.0846C 463.2501 495.681 462.9631 495.3456 462.5495 495.3076z" stroke="none" fill="#000000" fill-rule="evenodd" /><path id="946" transform="matrix(1 0 0 -1 0 841)" d="M465.4206 497.6141C 464.6531 497.5436 464.1289 496.905 464.1967 496.1674C 464.2649 495.425 464.8963 494.8975 465.6637 494.968C 466.4261 495.0381 466.9558 495.6722 466.8876 496.4147C 466.8198 497.1522 466.183 497.6842 465.4206 497.6141zM465.6098 495.5548C 465.1962 495.5168 464.8728 495.8225 464.8358 496.2262C 464.7991 496.6248 465.0609 496.9893 465.4745 497.0273C 465.8831 497.0649 466.2119 496.7546 466.2485 496.356C 466.2856 495.9523 466.0184 495.5923 465.6098 495.5548z" stroke="none" fill="#000000" fill-rule="evenodd" /><path id="947" transform="matrix(1 0 0 -1 0 841)" d="M468.1523 497.8689C 467.5543 497.8139 467.1727 497.4547 467.2194 496.9465C 467.2565 496.5428 467.5114 496.325 468.0243 496.2666L468.0243 496.2666L468.4515 496.2117C 468.6699 496.1865 468.7327 496.1043 468.7405 496.0196C 468.7533 495.8801 468.6365 495.7839 468.4023 495.7624C 468.1033 495.7349 467.8954 495.8515 467.8349 496.0721L467.8349 496.0721L467.2033 496.0141C 467.3208 495.3917 467.86 495.1699 468.4331 495.2225C 469.0659 495.2807 469.4579 495.637 469.4112 496.1453C 469.3713 496.5789 469.0514 496.7379 468.5784 496.8L468.5784 496.8L468.2158 496.8496C 468.0178 496.8716 467.9151 496.9225 467.9023 497.062C 467.8871 497.2264 468.0222 497.3293 468.2414 497.3494C 468.4956 497.3728 468.6298 497.252 468.6821 497.0658L468.6821 497.0658L469.3174 497.1242C 469.1899 497.8009 468.5609 497.9064 468.1523 497.8689z" stroke="none" fill="#000000" fill-rule="evenodd" /><path id="948" transform="matrix(1 0 0 -1 0 841)" d="M469.8163 494.9765L470.1526 495.0074L470.1526 495.0074L470.3426 495.4017C 470.4307 495.5907 470.4335 495.6425 470.4262 495.7222C 470.4097 495.9016 470.2447 496.0297 470.0603 496.0127C 469.8709 495.9953 469.7371 495.8386 469.7531 495.6642C 469.7641 495.5446 469.8329 495.4516 469.9725 495.4092z" stroke="none" fill="#000000" fill-rule="evenodd" /><path id="950" transform="matrix(1 0 0 -1 0 841)" d="M474.2643 498.3739L473.7934 498.3307L473.7934 498.3307L473.0173 496.8912L473.0173 496.8912L471.992 498.1652L471.992 498.1652L471.5211 498.1219L471.5211 498.1219L471.7545 495.5804L471.7545 495.5804L472.3862 495.6385L472.3862 495.6385L472.2646 496.9201L472.2646 496.9201L472.9135 496.094L472.9135 496.094L472.9138 496.0902L472.9138 496.0902L473.2651 496.1225L473.2651 496.1225L473.2648 496.1263L473.2648 496.1263L473.7491 497.0489L473.7491 497.0489L473.8662 495.7745L473.8662 495.7745L474.4978 495.8325z" stroke="none" fill="#000000" fill-rule="evenodd" /><path id="951" transform="matrix(1 0 0 -1 0 841)" d="M475.4323 497.9272L476.7217 498.0457L476.7217 498.0457L476.6712 498.5951L476.6712 498.5951L474.7502 498.4186L474.7502 498.4186L474.9837 495.8772L474.9837 495.8772L476.9047 496.0536L476.9047 496.0536L476.8542 496.6031L476.8542 496.6031L475.5648 496.4846L475.5648 496.4846L475.5243 496.9256L475.5243 496.9256L476.653 497.0293L476.653 497.0293L476.6035 497.5675L476.6035 497.5675L475.4749 497.4638z" stroke="none" fill="#000000" fill-rule="evenodd" /><path id="953" transform="matrix(1 0 0 -1 0 841)" d="M480.0976 496.9086L478.8418 496.7932L478.8418 496.7932L478.6595 498.7778L478.6595 498.7778L478.0279 498.7198L478.0279 498.7198L478.2614 496.1783L478.2614 496.1783L480.1487 496.3517z" stroke="none" fill="#000000" fill-rule="evenodd" /><path id="954" transform="matrix(1 0 0 -1 0 841)" d="M482.3214 497.1129L481.0656 496.9976L481.0656 496.9976L480.8832 498.9821L480.8832 498.9821L480.2516 498.9241L480.2516 498.9241L480.4851 496.3827L480.4851 496.3827L482.3725 496.5561z" stroke="none" fill="#000000" fill-rule="evenodd" /><path id="955" transform="matrix(1 0 0 -1 0 841)" d="M484.4066 497.1839L484.6187 496.7625L484.6187 496.7625L485.2914 496.8242L485.2914 496.8242L483.9802 499.2817L483.9802 499.2817L483.3747 499.2261L483.3747 499.2261L482.5295 496.5705L482.5295 496.5705L483.2022 496.6323L483.2022 496.6323L483.3302 497.085zM484.1478 497.7029L483.4901 497.6425L483.4901 497.6425L483.7413 498.5173z" stroke="none" fill="#000000" fill-rule="evenodd" /><path id="956" transform="matrix(1 0 0 -1 0 841)" d="M488.1076 499.6459L487.6367 499.6026L487.6367 499.6026L486.8607 498.1632L486.8607 498.1632L485.8353 499.4371L485.8353 499.4371L485.3644 499.3939L485.3644 499.3939L485.5979 496.8524L485.5979 496.8524L486.2295 496.9105L486.2295 496.9105L486.108 498.192L486.108 498.192L486.7568 497.3659L486.7568 497.3659L486.7571 497.3622L486.7571 497.3622L487.1084 497.3945L487.1084 497.3945L487.1081 497.3982L487.1081 497.3982L487.5924 498.3209L487.5924 498.3209L487.7095 497.0464L487.7095 497.0464L488.3411 497.1045z" stroke="none" fill="#000000" fill-rule="evenodd" /><path id="957" transform="matrix(1 0 0 -1 0 841)" d="M489.8743 499.861C 489.1069 499.7905 488.5827 499.1519 488.6505 498.4143C 488.7187 497.6718 489.3501 497.1444 490.1175 497.2149C 490.8799 497.285 491.4096 497.9191 491.3414 498.6616C 491.2736 499.3991 490.6368 499.9311 489.8743 499.861zM490.0636 497.8017C 489.65 497.7637 489.3266 498.0694 489.2896 498.4731C 489.2529 498.8717 489.5146 499.2362 489.9283 499.2742C 490.3369 499.3118 490.6656 499.0015 490.7023 498.6029C 490.7393 498.1992 490.4722 497.8392 490.0636 497.8017z" stroke="none" fill="#000000" fill-rule="evenodd" /><path id="959" transform="matrix(1 0 0 -1 0 841)" d="M467.0688 493.19L466.3736 493.1262L466.3736 493.1262L465.8069 491.3366L465.8069 491.3366L464.9235 492.9929L464.9235 492.9929L464.2284 492.929L464.2284 492.929L465.5658 490.474L465.5658 490.474L466.2049 490.5327z" stroke="none" fill="#000000" fill-rule="evenodd" /><path id="960" transform="matrix(1 0 0 -1 0 841)" d="M467.9732 493.2731L467.3416 493.2151L467.3416 493.2151L467.5751 490.6737L467.5751 490.6737L468.2068 490.7317z" stroke="none" fill="#000000" fill-rule="evenodd" /><path id="961" transform="matrix(1 0 0 -1 0 841)" d="M469.9251 491.4323C 469.5065 491.3939 469.1941 491.6767 469.1552 492.1003C 469.1167 492.5189 469.3719 492.8589 469.7905 492.8974C 470.1244 492.9281 470.3672 492.7469 470.4658 492.4393L470.4658 492.4393L471.1161 492.4991C 470.9709 493.1491 470.4276 493.5514 469.74 493.4883C 468.9726 493.4177 468.446 492.804 468.5161 492.0416C 468.5866 491.2742 469.2157 490.7716 469.9831 490.8422C 470.6708 490.9053 471.1316 491.4 471.1559 492.0655L471.1559 492.0655L470.5056 492.0058C 470.4651 491.6805 470.259 491.463 469.9251 491.4323z" stroke="none" fill="#000000" fill-rule="evenodd" /><path id="962" transform="matrix(1 0 0 -1 0 841)" d="M473.4219 493.2047L473.3701 493.769L473.3701 493.769L471.1201 493.5623L471.1201 493.5623L471.172 492.998L471.172 492.998L471.983 493.0725L471.983 493.0725L472.1647 491.0954L472.1647 491.0954L472.7926 491.1531L472.7926 491.1531L472.6109 493.1302z" stroke="none" fill="#000000" fill-rule="evenodd" /><path id="963" transform="matrix(1 0 0 -1 0 841)" d="M474.8116 493.9543C 474.0442 493.8838 473.52 493.2451 473.5877 492.5076C 473.6559 491.7651 474.2874 491.2377 475.0547 491.3082C 475.8172 491.3782 476.3469 492.0124 476.2787 492.7549C 476.2109 493.4924 475.5741 494.0243 474.8116 493.9543zM475.0009 491.895C 474.5872 491.857 474.2639 492.1627 474.2268 492.5663C 474.1902 492.965 474.4519 493.3295 474.8655 493.3675C 475.2742 493.405 475.6029 493.0948 475.6396 492.6961C 475.6766 492.2925 475.4095 491.9325 475.0009 491.895z" stroke="none" fill="#000000" fill-rule="evenodd" /><path id="964" transform="matrix(1 0 0 -1 0 841)" d="M477.7779 492.3536L478.3949 491.6678L478.3949 491.6678L479.1536 491.7375L479.1536 491.7375L478.4206 492.5371C 478.7058 492.714 478.8669 493.0115 478.834 493.3703C 478.7836 493.9185 478.3259 494.2244 477.698 494.1667L477.698 494.1667L476.588 494.0647L476.588 494.0647L476.8215 491.5233L476.8215 491.5233L477.4531 491.5813L477.4531 491.5813L477.3854 492.3176zM477.3333 492.8857L477.2708 493.5659L477.2708 493.5659L477.7379 493.6088C 477.9771 493.6308 478.1836 493.5166 478.2024 493.3123C 478.2216 493.103 478.0396 492.9506 477.8004 492.9286z" stroke="none" fill="#000000" fill-rule="evenodd" /><path id="965" transform="matrix(1 0 0 -1 0 841)" d="M479.8246 494.3621L479.1929 494.3041L479.1929 494.3041L479.4265 491.7626L479.4265 491.7626L480.0581 491.8207z" stroke="none" fill="#000000" fill-rule="evenodd" /><path id="966" transform="matrix(1 0 0 -1 0 841)" d="M482.2416 492.4623L482.4537 492.0408L482.4537 492.0408L483.1265 492.1026L483.1265 492.1026L481.8152 494.5601L481.8152 494.5601L481.2098 494.5045L481.2098 494.5045L480.3645 491.8488L480.3645 491.8488L481.0373 491.9106L481.0373 491.9106L481.1653 492.3634zM481.9829 492.9812L481.3251 492.9208L481.3251 492.9208L481.5764 493.7957z" stroke="none" fill="#000000" fill-rule="evenodd" /><path id="967" transform="matrix(1 0 0 -1 0 841)" d="M483.6335 492.0813C 483.8178 492.0983 483.9645 492.2524 483.9471 492.4418C 483.9306 492.6212 483.7578 492.7523 483.5734 492.7354C 483.389 492.7184 483.2504 492.5587 483.2669 492.3793C 483.2843 492.19 483.4491 492.0644 483.6335 492.0813z" stroke="none" fill="#000000" fill-rule="evenodd" /><path id="968" transform="matrix(1 0 0 -1 0 841)" d="M472.441 706.039L544.252 706.039L544.252 629.039L472.441 629.039z" stroke="none" fill="#D6D7C9" fill-rule="nonzero" /><g clip-path="url(#18)"><path id="969" transform="matrix(1 0 0 -1 0 841)" d="M514.9124 688.1867L514.9054 688.1867C 511.1214 688.1867 507.5644 686.7137 504.8884 684.0387C 502.2104 681.3627 500.7354 677.8027 500.7354 674.0167L500.7354 674.0167L500.7354 667.4587L500.7354 667.4587L503.1644 667.4587L503.1644 667.4587L503.1644 674.0167C 503.1644 677.1537 504.3864 680.1027 506.6054 682.3207C 508.8224 684.5377 511.7694 685.7577 514.9054 685.7577L514.9054 685.7577L514.9114 685.7577C 521.3814 685.7547 526.6454 680.4317 526.6454 673.8927C 526.6454 667.3007 524.0784 661.1027 519.4174 656.4417L519.4174 656.4417L513.6854 650.7097C 512.7894 649.8137 511.5994 649.3207 510.3334 649.3207C 507.7194 649.3207 505.5934 651.4477 505.5934 654.0607L505.5934 654.0607L505.5934 656.1227L505.5934 656.1227L503.1644 656.1227L503.1644 656.1227L503.1644 654.0607C 503.1644 650.1077 506.3804 646.8917 510.3334 646.8917C 512.2484 646.8917 514.0484 647.6377 515.4024 648.9917L515.4024 648.9917L521.1344 654.7237C 523.6644 657.2537 525.6424 660.2127 527.0114 663.5187C 528.3804 666.8247 529.0744 670.3147 529.0744 673.8927C 529.0744 681.7707 522.7214 688.1827 514.9124 688.1867" stroke="none" fill="#000000" fill-rule="nonzero" /><path id="970" transform="matrix(1 0 0 -1 0 841)" d="M514.905 682.114C 512.743 682.114 510.71 681.272 509.181 679.744C 507.651 678.214 506.808 676.181 506.808 674.017L506.808 674.017L506.81 674.017C 506.809 673.997 506.808 673.977 506.808 673.957L506.808 673.957L506.808 671.744C 506.808 670.066 507.462 668.488 508.648 667.301C 509.028 666.922 509.237 666.417 509.237 665.88C 509.237 665.343 509.028 664.837 508.648 664.458C 507.775 663.584 507.294 662.423 507.294 661.188L507.294 661.188L507.294 660.576C 507.294 658.478 509.001 656.77 511.099 656.77L511.099 656.77L511.18 656.77C 513.2791 656.77 514.986 658.478 514.986 660.576L514.986 660.576L512.557 660.576C 512.557 659.817 511.939 659.2 511.18 659.2L511.18 659.2L511.099 659.2C 510.34 659.2 509.723 659.817 509.723 660.576L509.723 660.576L509.723 661.188C 509.723 661.774 509.951 662.325 510.366 662.74C 511.204 663.579 511.666 664.694 511.666 665.88C 511.666 667.065 511.204 668.18 510.366 669.019C 509.638 669.747 509.237 670.715 509.237 671.744L509.237 671.744L509.237 673.957C 509.237 675.307 510.308 676.424 511.624 676.446C 511.638 676.446 511.652 676.446 511.666 676.446C 512.308 676.446 512.911 676.2 513.369 675.749C 513.837 675.289 514.095 674.674 514.095 674.017L514.095 674.017L516.524 674.017C 516.524 675.33 516.009 676.56 515.0731 677.481C 514.228 678.312 513.136 678.795 511.966 678.865C 512.8441 679.399 513.853 679.685 514.908 679.685C 518.032 679.683 520.5731 677.085 520.5731 673.893C 520.5731 671.304 520.056 668.805 519.038 666.466L519.038 666.466L521.265 665.496C 522.418 668.143 523.002 670.968 523.002 673.893C 523.002 678.424 519.372 682.112 514.905 682.114" stroke="none" fill="#000000" fill-rule="nonzero" /><path id="971" transform="matrix(1 0 0 -1 0 841)" d="M489.2376 660.1711C 490.1316 660.1711 490.8566 659.4461 490.8566 658.5521C 490.8566 657.6571 490.1316 656.9321 489.2376 656.9321C 488.3436 656.9321 487.6186 657.6571 487.6186 658.5521C 487.6186 659.4461 488.3436 660.1711 489.2376 660.1711" stroke="none" fill="#000000" fill-rule="nonzero" /><path id="972" transform="matrix(1 0 0 -1 0 841)" d="M493.8179 663.1321L492.0999 661.4141C 493.6789 659.8361 493.6789 657.2671 492.0999 655.6891L492.0999 655.6891L493.8179 653.9711C 496.3439 656.4971 496.3439 660.6061 493.8179 663.1321" stroke="none" fill="#000000" fill-rule="nonzero" /><path id="973" transform="matrix(1 0 0 -1 0 841)" d="M497.2532 666.5674L495.5352 664.8494C 499.0082 661.3774 499.0082 655.7264 495.5352 652.2534L495.5352 652.2534L497.2532 650.5364C 501.6732 654.9564 501.6732 662.1474 497.2532 666.5674" stroke="none" fill="#000000" fill-rule="nonzero" /></g><path id="974" transform="matrix(1 0 0 -1 0 841)" d="M323.15 706.039L394.961 706.039L394.961 629.039L323.15 629.039z" stroke="none" fill="#D6D7C9" fill-rule="nonzero" /><g clip-path="url(#19)"><path id="975" transform="matrix(1 0 0 -1 0 841)" d="M362.9311 668.6403C 363.0571 668.3943 363.3081 668.2513 363.5671 668.2513C 363.6751 668.2513 363.7861 668.2763 363.8901 668.3293C 363.9321 668.3503 368.1231 670.4793 370.1911 671.1323C 370.5651 671.2513 370.7731 671.6523 370.6541 672.0263C 370.5361 672.4013 370.1391 672.6093 369.7601 672.4913C 367.5831 671.8033 363.4201 669.6873 363.2431 669.5983C 362.8931 669.4203 362.7531 668.9913 362.9311 668.6403" stroke="none" fill="#000000" fill-rule="nonzero" /><path id="976" transform="matrix(1 0 0 -1 0 841)" d="M363.567 676.7972C 363.675 676.7972 363.786 676.8222 363.89 676.8752C 363.932 676.8962 368.123 679.0252 370.191 679.6782C 370.565 679.7972 370.773 680.1982 370.654 680.5722C 370.536 680.9472 370.139 681.1552 369.761 681.0372C 367.583 680.3482 363.42 678.2332 363.243 678.1442C 362.893 677.9662 362.753 677.5372 362.931 677.1862C 363.057 676.9392 363.308 676.7972 363.567 676.7972" stroke="none" fill="#000000" fill-rule="nonzero" /><path id="977" transform="matrix(1 0 0 -1 0 841)" d="M380.6579 678.2215C 380.2639 678.2215 379.9459 677.9025 379.9459 677.5095L379.9459 677.5095L379.9459 649.7355C 379.9459 648.5575 378.9869 647.5995 377.8089 647.5995L377.8089 647.5995L360.7179 647.5995L360.7179 647.5995L360.7179 649.2375C 361.7559 649.6015 364.4609 650.4475 367.1269 650.4475C 373.3309 650.4475 377.5429 649.0735 377.5849 649.0595C 377.7989 648.9885 378.0389 649.0245 378.2259 649.1585C 378.4119 649.2915 378.5219 649.5075 378.5219 649.7355L378.5219 649.7355L378.5219 681.0705C 378.5219 681.4035 378.2899 681.6935 377.9639 681.7655C 377.9639 681.7655 377.4059 681.8895 376.4509 682.0645C 376.0659 682.1365 375.6939 681.8795 375.6219 681.4935C 375.5509 681.1065 375.8069 680.7355 376.1929 680.6645C 376.5569 680.5975 376.8619 680.5385 377.0969 680.4915L377.0969 680.4915L377.0969 650.6825C 375.4829 651.1055 371.8999 651.8725 367.1269 651.8725C 364.0239 651.8725 360.9759 650.8525 360.0329 650.5075C 359.1949 650.8775 356.6609 651.8725 353.5959 651.8725C 348.6909 651.8725 344.6499 651.0635 342.9139 650.6525L342.9139 650.6525L342.9139 680.5185C 344.3359 680.8685 348.5369 681.7825 353.5959 681.7825C 356.1929 681.7825 358.4199 680.9735 359.2939 680.6085L359.2939 680.6085L359.2939 652.5845C 359.2939 652.3275 359.4319 652.0905 359.6549 651.9645C 359.8769 651.8375 360.1519 651.8415 360.3719 651.9735C 360.4429 652.0155 367.4989 656.2305 373.7609 658.3175C 374.0529 658.4155 374.2489 658.6865 374.2489 658.9935L374.2489 658.9935L374.2489 688.1915C 374.2489 688.4255 374.1339 688.6435 373.9419 688.7765C 373.7509 688.9105 373.5059 688.9405 373.2859 688.8585C 367.5879 686.7215 361.8219 683.1335 361.7649 683.0985C 361.4309 682.8895 361.3299 682.4505 361.5379 682.1165C 361.7459 681.7835 362.1859 681.6815 362.5199 681.8905C 362.5719 681.9235 367.5879 685.0445 372.8239 687.1505L372.8239 687.1505L372.8239 659.5035C 367.9629 657.8145 362.8879 655.0555 360.7179 653.8215L360.7179 653.8215L360.7179 681.0705C 360.7179 681.3395 360.5649 681.5865 360.3239 681.7075C 360.2009 681.7675 357.2829 683.2065 353.5959 683.2065C 347.1609 683.2065 342.2139 681.8145 342.0059 681.7545C 341.7009 681.6675 341.4899 681.3875 341.4899 681.0705L341.4899 681.0705L341.4899 649.7355C 341.4899 649.5125 341.5949 649.3015 341.7729 649.1675C 341.8979 649.0725 342.0489 649.0235 342.2019 649.0235C 342.2679 649.0235 342.3329 649.0325 342.3969 649.0515C 342.4459 649.0645 347.3709 650.4475 353.5959 650.4475C 356.1999 650.4475 358.4249 649.6375 359.2939 649.2735L359.2939 649.2735L359.2939 647.5995L359.2939 647.5995L342.2019 647.5995C 341.0239 647.5995 340.0659 648.5575 340.0659 649.7355L340.0659 649.7355L340.0659 677.5095C 340.0659 677.9025 339.7469 678.2215 339.3529 678.2215C 338.9599 678.2215 338.6409 677.9025 338.6409 677.5095L338.6409 677.5095L338.6409 649.7355C 338.6409 647.7725 340.2389 646.1745 342.2019 646.1745L342.2019 646.1745L377.8089 646.1745C 379.7729 646.1745 381.3699 647.7725 381.3699 649.7355L381.3699 649.7355L381.3699 677.5095C 381.3699 677.9025 381.0519 678.2215 380.6579 678.2215" stroke="none" fill="#000000" fill-rule="nonzero" /><path id="978" transform="matrix(1 0 0 -1 0 841)" d="M362.9311 672.9131C 363.0571 672.6671 363.3081 672.5241 363.5671 672.5241C 363.6751 672.5241 363.7861 672.5491 363.8901 672.6021C 363.9321 672.6231 368.1231 674.7531 370.1911 675.4061C 370.5651 675.5251 370.7731 675.9251 370.6541 676.2991C 370.5361 676.6741 370.1391 676.8831 369.7601 676.7641C 367.5831 676.0761 363.4201 673.9611 363.2431 673.8711C 362.8931 673.6931 362.7531 673.2641 362.9311 672.9131" stroke="none" fill="#000000" fill-rule="nonzero" /><path id="979" transform="matrix(1 0 0 -1 0 841)" d="M362.9311 664.3674C 363.0571 664.1214 363.3081 663.9784 363.5671 663.9784C 363.6751 663.9784 363.7861 664.0034 363.8901 664.0564C 363.9321 664.0774 368.1231 666.2064 370.1911 666.8604C 370.5651 666.9784 370.7731 667.3794 370.6541 667.7534C 370.5361 668.1284 370.1391 668.3364 369.7601 668.2184C 367.5831 667.5304 363.4201 665.4144 363.2431 665.3254C 362.8931 665.1474 362.7531 664.7184 362.9311 664.3674" stroke="none" fill="#000000" fill-rule="nonzero" /><path id="980" transform="matrix(1 0 0 -1 0 841)" d="M355.8951 675.6876C 351.4981 676.7196 346.5001 675.4046 346.2901 675.3486C 345.9111 675.2466 345.6851 674.8566 345.7871 674.4766C 345.8721 674.1576 346.1601 673.9486 346.4741 673.9486C 346.5351 673.9486 346.5971 673.9566 346.6591 673.9726C 346.7071 673.9866 351.5181 675.2516 355.5701 674.3006C 355.9511 674.2116 356.3371 674.4496 356.4261 674.8326C 356.5161 675.2146 356.2781 675.5976 355.8951 675.6876" stroke="none" fill="#000000" fill-rule="nonzero" /><path id="981" transform="matrix(1 0 0 -1 0 841)" d="M355.8951 671.4147C 351.4981 672.4457 346.5001 671.1317 346.2901 671.0757C 345.9111 670.9737 345.6851 670.5837 345.7871 670.2037C 345.8721 669.8846 346.1601 669.6757 346.4741 669.6757C 346.5351 669.6757 346.5971 669.6837 346.6591 669.6996C 346.7071 669.7137 351.5181 670.9787 355.5701 670.0287C 355.9511 669.9387 356.3371 670.1767 356.4261 670.5597C 356.5161 670.9417 356.2781 671.3246 355.8951 671.4147" stroke="none" fill="#000000" fill-rule="nonzero" /><path id="982" transform="matrix(1 0 0 -1 0 841)" d="M362.9311 660.0945C 363.0571 659.8485 363.3081 659.7055 363.5671 659.7055C 363.6751 659.7055 363.7861 659.7305 363.8901 659.7835C 363.9321 659.8045 368.1231 661.9345 370.1911 662.5875C 370.5651 662.7065 370.7731 663.1065 370.6541 663.4805C 370.5361 663.8555 370.1391 664.0645 369.7601 663.9455C 367.5831 663.2575 363.4201 661.1425 363.2431 661.0525C 362.8931 660.8745 362.7531 660.4455 362.9311 660.0945" stroke="none" fill="#000000" fill-rule="nonzero" /><path id="983" transform="matrix(1 0 0 -1 0 841)" d="M355.8951 667.1418C 351.4981 668.1728 346.5001 666.8598 346.2901 666.8028C 345.9111 666.7008 345.6851 666.3108 345.7871 665.9308C 345.8721 665.6118 346.1601 665.4018 346.4741 665.4018C 346.5351 665.4018 346.5971 665.4108 346.6591 665.4268C 346.7071 665.4408 351.5181 666.7058 355.5701 665.7558C 355.9511 665.6658 356.3371 665.9038 356.4261 666.2868C 356.5161 666.6688 356.2781 667.0518 355.8951 667.1418" stroke="none" fill="#000000" fill-rule="nonzero" /><path id="984" transform="matrix(1 0 0 -1 0 841)" d="M355.8951 658.5961C 351.4981 659.6281 346.5001 658.3131 346.2901 658.2571C 345.9111 658.1552 345.6851 657.7651 345.7871 657.3851C 345.8721 657.0661 346.1601 656.8561 346.4741 656.8561C 346.5351 656.8561 346.5971 656.8651 346.6591 656.8811C 346.7071 656.8951 351.5181 658.1602 355.5701 657.2091C 355.9511 657.1212 356.3371 657.3582 356.4261 657.7411C 356.5161 658.1231 356.2781 658.5061 355.8951 658.5961" stroke="none" fill="#000000" fill-rule="nonzero" /><path id="985" transform="matrix(1 0 0 -1 0 841)" d="M355.8951 662.869C 351.4981 663.901 346.5001 662.587 346.2901 662.53C 345.9111 662.428 345.6851 662.038 345.7871 661.658C 345.8721 661.339 346.1601 661.129 346.4741 661.129C 346.5351 661.129 346.5971 661.138 346.6591 661.154C 346.7071 661.168 351.5181 662.433 355.5701 661.482C 355.9511 661.393 356.3371 661.631 356.4261 662.014C 356.5161 662.396 356.2781 662.779 355.8951 662.869" stroke="none" fill="#000000" fill-rule="nonzero" /></g><path id="986" transform="matrix(1 0 0 -1 0 841)" d="M248.504 706.039L320.315 706.039L320.315 629.039L248.504 629.039z" stroke="none" fill="#D6D7C9" fill-rule="nonzero" /><path id="987" transform="matrix(1 0 0 -1 0 841)" d="M397.795 706.039L469.606 706.039L469.606 629.039L397.795 629.039z" stroke="none" fill="#D6D7C9" fill-rule="nonzero" /><path id="988" transform="matrix(1 0 0 -1 0 841)" d="M173.858 706.039L245.669 706.039L245.669 629.039L173.858 629.039z" stroke="none" fill="#D6D7C9" fill-rule="nonzero" /><g clip-path="url(#20)"><path id="989" transform="matrix(1 0 0 -1 0 841)" d="M262.6562 636.126C 266.5702 636.126 269.7432 639.299 269.7432 643.213C 269.7432 647.126 266.5702 650.299 262.6562 650.299C 258.7422 650.299 255.5692 647.126 255.5692 643.213C 255.5692 639.299 258.7422 636.126 262.6562 636.126" stroke="none" fill="#FFFFFF" fill-rule="nonzero" /></g><g clip-path="url(#21)"><path id="991" transform="matrix(1 0 0 -1 0 841)" d="M337.3019 636.126C 341.2159 636.126 344.3889 639.299 344.3889 643.213C 344.3889 647.126 341.2159 650.299 337.3019 650.299C 333.3879 650.299 330.2149 647.126 330.2149 643.213C 330.2149 639.299 333.3879 636.126 337.3019 636.126" stroke="none" fill="#FFFFFF" fill-rule="nonzero" /></g><g clip-path="url(#22)"><path id="993" transform="matrix(1 0 0 -1 0 841)" d="M411.9475 636.126C 415.8615 636.126 419.0345 639.299 419.0345 643.213C 419.0345 647.126 415.8615 650.299 411.9475 650.299C 408.0335 650.299 404.8605 647.126 404.8605 643.213C 404.8605 639.299 408.0335 636.126 411.9475 636.126" stroke="none" fill="#FFFFFF" fill-rule="nonzero" /></g><g clip-path="url(#23)"><path id="995" transform="matrix(1 0 0 -1 0 841)" d="M486.5932 636.126C 490.5072 636.126 493.6802 639.299 493.6802 643.213C 493.6802 647.126 490.5072 650.299 486.5932 650.299C 482.6792 650.299 479.5062 647.126 479.5062 643.213C 479.5062 639.299 482.6792 636.126 486.5932 636.126" stroke="none" fill="#FFFFFF" fill-rule="nonzero" /></g><g clip-path="url(#24)"><path id="997" transform="matrix(1 0 0 -1 0 841)" d="M430.8617 652.6979C 426.6097 652.6979 422.8307 650.1499 421.2337 646.2068C 421.0847 645.8389 421.2627 645.4189 421.6307 645.2699C 421.9997 645.1199 422.4197 645.2979 422.5687 645.6669C 423.9447 649.0629 427.1997 651.2579 430.8617 651.2579C 434.5237 651.2579 437.7797 649.0629 439.1547 645.6669C 439.2677 645.3869 439.5377 645.2169 439.8227 645.2169C 439.9127 645.2169 440.0037 645.2339 440.0927 645.2699C 440.4607 645.4189 440.6387 645.8389 440.4897 646.2068C 438.8927 650.1499 435.1137 652.6979 430.8617 652.6979" stroke="none" fill="#000000" fill-rule="nonzero" /><path id="998" transform="matrix(1 0 0 -1 0 841)" d="M448.2595 668.2408C 447.8855 668.1888 447.6145 667.8558 447.6395 667.4778C 447.6405 667.4728 447.6405 667.4668 447.6415 667.4618C 447.2755 665.1038 445.5645 663.2278 443.3695 662.5938C 444.2255 664.0448 444.5815 665.7668 444.3455 667.4678C 444.3455 667.4718 444.3455 667.4748 444.3465 667.4788C 444.3725 667.8558 444.1015 668.1888 443.7265 668.2408C 437.5135 669.0998 433.0045 673.3108 433.0045 678.2538C 433.0045 683.8608 438.8315 688.4218 445.9945 688.4218C 453.1575 688.4218 458.9845 683.8608 458.9845 678.2538C 458.9845 673.3098 454.4735 669.0988 448.2595 668.2408M456.1365 686.5168C 453.4205 688.6738 449.8185 689.8618 445.9945 689.8618C 442.1705 689.8618 438.5685 688.6738 435.8525 686.5168C 433.0875 684.3208 431.5645 681.3868 431.5645 678.2538C 431.5645 672.7408 436.3215 668.0398 442.9585 666.9028C 443.0945 665.1478 442.4645 663.4028 441.2235 662.1498C 441.0195 661.9438 440.9595 661.6348 441.0705 661.3658C 441.1825 661.0978 441.4455 660.9228 441.7355 660.9228C 445.2705 660.9228 448.3045 663.4558 449.0035 666.8988C 452.0765 667.4228 454.8785 668.7558 456.9395 670.6838C 459.1865 672.7838 460.4245 675.4728 460.4245 678.2538C 460.4245 681.3868 458.9015 684.3208 456.1365 686.5168" stroke="none" fill="#000000" fill-rule="nonzero" /><path id="999" transform="matrix(1 0 0 -1 0 841)" d="M441.1616 679.022C 440.7386 679.022 440.3936 678.677 440.3936 678.254C 440.3936 677.83 440.7386 677.486 441.1616 677.486C 441.5846 677.486 441.9296 677.83 441.9296 678.254C 441.9296 678.677 441.5846 679.022 441.1616 679.022" stroke="none" fill="#000000" fill-rule="nonzero" /><path id="1000" transform="matrix(1 0 0 -1 0 841)" d="M450.8273 679.022C 450.4043 679.022 450.0593 678.677 450.0593 678.254C 450.0593 677.83 450.4043 677.486 450.8273 677.486C 451.2513 677.486 451.5953 677.83 451.5953 678.254C 451.5953 678.677 451.2503 679.022 450.8273 679.022" stroke="none" fill="#000000" fill-rule="nonzero" /><path id="1001" transform="matrix(1 0 0 -1 0 841)" d="M445.9944 679.022C 445.5714 679.022 445.2264 678.677 445.2264 678.254C 445.2264 677.83 445.5714 677.486 445.9944 677.486C 446.4174 677.486 446.7624 677.83 446.7624 678.254C 446.7624 678.677 446.4174 679.022 445.9944 679.022" stroke="none" fill="#000000" fill-rule="nonzero" /><path id="1002" transform="matrix(1 0 0 -1 0 841)" d="M430.8617 666.9643C 433.7957 666.9643 436.1827 664.5773 436.1827 661.6433C 436.1827 658.7094 433.7957 656.3223 430.8617 656.3223C 427.9277 656.3223 425.5407 658.7094 425.5407 661.6433C 425.5407 664.5773 427.9277 666.9643 430.8617 666.9643M430.8617 654.8823C 434.5897 654.8823 437.6227 657.9153 437.6227 661.6433C 437.6227 665.3713 434.5897 668.4043 430.8617 668.4043C 427.1337 668.4043 424.1007 665.3713 424.1007 661.6433C 424.1007 657.9153 427.1337 654.8823 430.8617 654.8823" stroke="none" fill="#000000" fill-rule="nonzero" /><path id="1003" transform="matrix(1 0 0 -1 0 841)" d="M290.8909 661.0902L281.1399 661.0592L281.1399 661.0592L277.4559 647.7792C 277.3149 647.2692 276.8519 646.9352 276.3479 646.9352C 276.3429 646.9352 276.3379 646.9362 276.3339 646.9362C 276.3319 646.9362 276.3299 646.9362 276.3279 646.9362L276.3279 646.9362L272.7249 646.9362C 272.0889 646.9362 271.5729 647.4512 271.5729 648.0872C 271.5729 648.7232 272.0889 649.2382 272.7249 649.2382L272.7249 649.2382L275.4719 649.2382L275.4719 649.2382L279.1549 662.5152C 279.2929 663.0122 279.7449 663.3572 280.2609 663.3582L280.2609 663.3582L289.7359 663.3882L289.7359 663.3882L289.7359 674.3012C 287.6469 673.6912 285.3309 671.4592 282.8279 667.6392L282.8279 667.6392L285.8249 667.6392C 286.4609 667.6392 286.9759 667.1242 286.9759 666.4882C 286.9759 665.8522 286.4609 665.3372 285.8249 665.3372L285.8249 665.3372L276.0119 665.3372C 275.5249 665.3372 275.0909 665.6432 274.9279 666.1012L274.9279 666.1012L271.6719 675.2172C 271.4589 675.8162 271.7709 676.4752 272.3689 676.6882C 272.9679 676.9022 273.6269 676.5902 273.8399 675.9912L273.8399 675.9912L276.8229 667.6392L276.8229 667.6392L280.1629 667.6392C 280.1919 667.7502 280.2379 667.8582 280.3009 667.9602C 283.9989 673.8922 287.4619 676.7762 290.8869 676.7762L290.8869 676.7762L290.8869 676.7762C 291.5229 676.7762 292.0379 676.2602 292.0379 675.6252L292.0379 675.6252L292.0379 662.2412C 292.0379 662.2222 292.0359 662.2042 292.0349 662.1862C 292.0339 662.1662 292.0339 662.1452 292.0319 662.1252C 292.0299 662.1062 292.0269 662.0882 292.0239 662.0702C 292.0209 662.0502 292.0189 662.0302 292.0149 662.0112C 292.0109 661.9922 292.0059 661.9752 292.0009 661.9572C 291.9969 661.9382 291.9929 661.9192 291.9869 661.9002C 291.9809 661.8822 291.9739 661.8642 291.9669 661.8462C 291.9609 661.8292 291.9559 661.8112 291.9479 661.7952C 291.9409 661.7762 291.9319 661.7592 291.9229 661.7422C 291.9149 661.7262 291.9079 661.7092 291.8999 661.6942C 291.8909 661.6772 291.8799 661.6602 291.8699 661.6442C 291.8609 661.6292 291.8519 661.6132 291.8429 661.5992C 291.8309 661.5822 291.8189 661.5672 291.8069 661.5512C 291.7969 661.5382 291.7869 661.5232 291.7759 661.5102C 291.7639 661.4952 291.7499 661.4812 291.7359 661.4662C 291.7249 661.4532 291.7139 661.4402 291.7019 661.4282C 291.6889 661.4152 291.6739 661.4022 291.6589 661.3892C 291.6459 661.3772 291.6339 661.3652 291.6209 661.3542C 291.6059 661.3422 291.5899 661.3312 291.5749 661.3202C 291.5609 661.3092 291.5469 661.2982 291.5319 661.2872C 291.5169 661.2772 291.5009 661.2682 291.4849 661.2592C 291.4689 661.2492 291.4539 661.2392 291.4369 661.2302C 291.4209 661.2212 291.4039 661.2142 291.3879 661.2062C 291.3709 661.1972 291.3539 661.1882 291.3369 661.1812C 291.3189 661.1742 291.3019 661.1682 291.2839 661.1612C 291.2659 661.1552 291.2489 661.1482 291.2309 661.1422C 291.2129 661.1362 291.1949 661.1332 291.1759 661.1282C 291.1579 661.1232 291.1389 661.1172 291.1209 661.1132C 291.1019 661.1102 291.0829 661.1082 291.0639 661.1052C 291.0449 661.1022 291.0259 661.0982 291.0059 661.0962C 290.9869 661.0942 290.9669 661.0942 290.9479 661.0932C 290.9289 661.0922 290.9099 661.0902 290.8909 661.0902" stroke="none" fill="#000000" fill-rule="nonzero" /><path id="1004" transform="matrix(1 0 0 -1 0 841)" d="M297.2455 657.2776C 297.2455 657.2806 297.2455 657.2846 297.2455 657.2876L297.2455 657.2876L297.2455 678.4336C 297.2455 679.0696 296.7295 679.5846 296.0935 679.5846C 295.4585 679.5846 294.9425 679.0696 294.9425 678.4336L294.9425 678.4336L294.9425 658.4286L294.9425 658.4286L284.3645 658.4286C 283.7285 658.4286 283.2135 657.9136 283.2135 657.2776C 283.2135 656.6416 283.7285 656.1266 284.3645 656.1266L284.3645 656.1266L289.0785 656.1266L289.0785 656.1266L289.0785 649.2386L289.0785 649.2386L287.1475 649.2386C 286.5115 649.2386 285.9965 648.7236 285.9965 648.0876C 285.9965 647.4516 286.5115 646.9366 287.1475 646.9366L287.1475 646.9366L290.2235 646.9366C 290.2255 646.9366 290.2275 646.9366 290.2295 646.9366C 290.2315 646.9366 290.2335 646.9366 290.2355 646.9366L290.2355 646.9366L293.3115 646.9366C 293.9475 646.9366 294.4625 647.4516 294.4625 648.0876C 294.4625 648.7236 293.9475 649.2386 293.3115 649.2386L293.3115 649.2386L291.3805 649.2386L291.3805 649.2386L291.3805 656.1266L291.3805 656.1266L296.0885 656.1266C 296.0905 656.1266 296.0925 656.1266 296.0935 656.1266C 296.2925 656.1266 296.4795 656.1766 296.6425 656.2656C 297.0015 656.4596 297.2455 656.8406 297.2455 657.2776" stroke="none" fill="#000000" fill-rule="nonzero" /><path id="1005" transform="matrix(1 0 0 -1 0 841)" d="M286.976 683.3437C 286.976 681.9667 288.097 680.8467 289.474 680.8467C 290.851 680.8467 291.971 681.9667 291.971 683.3437C 291.971 684.7207 290.851 685.8417 289.474 685.8417C 288.097 685.8417 286.976 684.7207 286.976 683.3437M284.674 683.3437C 284.674 685.9907 286.827 688.1437 289.474 688.1437C 292.12 688.1437 294.273 685.9907 294.273 683.3437C 294.273 680.6967 292.12 678.5447 289.474 678.5447C 286.827 678.5447 284.674 680.6977 284.674 683.3437" stroke="none" fill="#000000" fill-rule="nonzero" /><path id="1006" transform="matrix(1 0 0 -1 0 841)" d="M197.4826 680.5922C 197.4826 680.4862 197.3956 680.3992 197.2896 680.3992L197.2896 680.3992L192.4446 680.3992L192.4446 680.3992L197.4826 685.4372zM221.6286 682.4082C 222.1996 682.4082 222.6626 682.8712 222.6626 683.4422L222.6626 683.4422L222.6626 686.7072C 222.6626 687.9542 221.6486 688.9692 220.4016 688.9692L220.4016 688.9692L198.5166 688.9692C 198.2426 688.9692 197.9796 688.8602 197.7846 688.6662L197.7846 688.6662L189.2156 680.0962C 189.0216 679.9022 188.9116 679.6392 188.9116 679.3652L188.9116 679.3652L188.9116 648.3722C 188.9126 647.1242 189.9266 646.1092 191.1746 646.1092L191.1746 646.1092L220.4016 646.1092C 221.6486 646.1092 222.6626 647.1242 222.6626 648.3722L222.6626 648.3722L222.6626 664.1672C 222.6626 664.7382 222.1996 665.2012 221.6286 665.2012C 221.0576 665.2012 220.5946 664.7382 220.5946 664.1672L220.5946 664.1672L220.5946 648.3722C 220.5946 648.2652 220.5076 648.1782 220.4016 648.1782L220.4016 648.1782L191.1746 648.1782C 191.0676 648.1782 190.9816 648.2652 190.9816 648.3722L190.9816 648.3722L190.9816 678.3302L190.9816 678.3302L197.2896 678.3302C 198.5366 678.3302 199.5516 679.3452 199.5516 680.5922L199.5516 680.5922L199.5516 686.9002L199.5516 686.9002L220.4016 686.9002C 220.5076 686.9002 220.5936 686.8132 220.5936 686.7072L220.5936 686.7072L220.5936 683.4422C 220.5936 682.8712 221.0576 682.4082 221.6286 682.4082" stroke="none" fill="#000000" fill-rule="nonzero" /><path id="1007" transform="matrix(1 0 0 -1 0 841)" d="M228.1289 677.0781L226.8249 675.7741L226.8249 675.7741L223.5839 679.0161L223.5839 679.0161L224.8869 680.3192C 225.4459 680.8771 226.3539 680.8771 226.9119 680.3192L226.9119 680.3192L228.1289 679.1021C 228.6869 678.5441 228.6869 677.6361 228.1289 677.0781M208.8169 657.7661L205.5759 661.0071L222.1209 677.5521L225.3619 674.3111zM203.7909 655.9811L204.6349 659.0221L206.8319 656.8251zM229.5919 680.5651L228.3749 681.7821C 227.0099 683.1471 224.7889 683.1471 223.4239 681.7821L223.4239 681.7821L213.7619 672.1201L213.7619 672.1201L197.0029 672.1201C 196.4319 672.1201 195.9679 671.6571 195.9679 671.0851C 195.9679 670.5141 196.4319 670.0511 197.0029 670.0511L197.0029 670.0511L211.6929 670.0511L211.6929 670.0511L205.4669 663.8251L205.4669 663.8251L197.0029 663.8251C 196.4319 663.8251 195.9679 663.3611 195.9679 662.7901C 195.9679 662.2191 196.4319 661.7561 197.0029 661.7561L197.0029 661.7561L203.3979 661.7561L203.3979 661.7561L203.3809 661.7391C 203.2549 661.6131 203.1639 661.4561 203.1159 661.2841L203.1159 661.2841L201.5179 655.5291L201.5179 655.5291L197.0029 655.5291C 196.4319 655.5291 195.9679 655.0661 195.9679 654.4951C 195.9679 653.9241 196.4319 653.4601 197.0029 653.4601L197.0029 653.4601L202.3049 653.4601C 202.3049 653.4601 202.5309 653.4861 202.5649 653.4951C 202.5699 653.4961 209.0939 655.3062 209.0939 655.3062C 209.2659 655.3541 209.4219 655.4451 209.5489 655.5721L209.5489 655.5721L229.5919 675.6151C 230.9569 676.9791 230.9569 679.2001 229.5919 680.5651" stroke="none" fill="#000000" fill-rule="nonzero" /><path id="1008" transform="matrix(1 0 0 -1 0 841)" d="M188.0105 636.126C 191.9245 636.126 195.0975 639.299 195.0975 643.213C 195.0975 647.126 191.9245 650.299 188.0105 650.299C 184.0965 650.299 180.9235 647.126 180.9235 643.213C 180.9235 639.299 184.0965 636.126 188.0105 636.126" stroke="none" fill="#FFFFFF" fill-rule="nonzero" /></g><g clip-path="url(#25)"></g><path id="1043" transform="matrix(1 0 0 -1 0 841)" d="M0 783.04L558.425 783.04L558.425 805.04L0 805.04z" stroke="none" fill="#587541" fill-rule="nonzero" /><path id="1110" transform="matrix(1 0 0 -1 0 841)" d="M56.6929 366.2201L558.4249 366.2201" stroke="#587541" stroke-width="2.364" fill="none" /><path id="1258" transform="matrix(1 0 0 -1 0 841)" d="M480.756 358.839L558.425 358.839L558.425 376.039L480.756 376.039z" stroke="none" fill="#FFFFFF" fill-rule="nonzero" /><g clip-path="url(#26)"><path id="1271" transform="matrix(1 0 0 -1 0 841)" d="M-558.4252 34.7906L-0.0001831055 34.7906" stroke="#000000" stroke-width="0.5" fill="none" /><path id="1274" transform="matrix(1 0 0 -1 0 841)" d="M0 34.7906L558.425 34.7906" stroke="#000000" stroke-width="0.5" fill="none" /></g></g></g></svg>