<svg xmlns="http://www.w3.org/2000/svg" xmlns:xlink="http://www.w3.org/1999/xlink" id="body_8" preserveAspectRatio="xMinYMin meet" viewBox="0 0 793 1121"><defs><clipPath id="1"><path id="" clip-rule="evenodd" transform="matrix(1 0 0 1 0 0)" d="M0 841L0 -0.8900146L0 -0.8900146L595.276 -0.8900146L595.276 -0.8900146L595.276 841L595.276 841L0 841z" /></clipPath><clipPath id="2"><path id="" clip-rule="evenodd" transform="matrix(1 0 0 1 0 0)" d="M0 841L595.276 841L595.276 841L595.276 -0.8900146L595.276 -0.8900146L0 -0.8900146z" /></clipPath><clipPath id="3"><path id="" clip-rule="evenodd" transform="matrix(1 0 0 1 0 0)" d="M0 841L595.276 841L595.276 841L595.276 -0.8900146L595.276 -0.8900146L0 -0.8900146z" /></clipPath><clipPath id="4"><path id="" clip-rule="evenodd" transform="matrix(1 0 0 1 0 0)" d="M0 841L595.276 841L595.276 841L595.276 -0.8900146L595.276 -0.8900146L0 -0.8900146z" /></clipPath><clipPath id="5"><path id="" clip-rule="evenodd" transform="matrix(1 0 0 1 0 0)" d="M0 841L595.276 841L595.276 841L595.276 -0.8900146L595.276 -0.8900146L0 -0.8900146z" /></clipPath><mask id="m1"><clipPath id="6"><path id="" clip-rule="evenodd" transform="matrix(1 0 0 1 0 0)" d="M319.011 85.89899L524.931 85.89899L524.931 85.89899L524.931 299.019L524.931 299.019L319.011 299.019z" /></clipPath><g><g><g clip-path="url(#6)"><g transform="matrix(0.5986047 0 0 0.5986518 319.011 85.89941)"><g transform="matrix(1 0 0 1 0 0)"><image x="0" y="0" xlink:href="img_49.png" width="344" height="356" /></g></g></g></g></g></mask><clipPath id="7"><path id="" clip-rule="evenodd" transform="matrix(1 0 0 1 0 0)" d="M343.131 114.339L484.611 114.339L484.611 114.339L484.611 261.939L484.611 261.939L343.131 261.939z" /></clipPath><clipPath id="8"><path id="" clip-rule="evenodd" transform="matrix(1 0 0 1 0 0)" d="M323.146 124.136L357.248 277.959L357.248 277.959L511.07 243.857L511.07 243.857L476.969 90.034z" /></clipPath><clipPath id="9"><path id="" clip-rule="evenodd" transform="matrix(1 0 0 1 0 0)" d="M0 841L595.276 841L595.276 841L595.276 -0.8900146L595.276 -0.8900146L0 -0.8900146z" /></clipPath><mask id="m2"><clipPath id="10"><path id="" clip-rule="evenodd" transform="matrix(1 0 0 1 0 0)" d="M405.467 140.338L591.227 140.338L591.227 140.338L591.227 331.858L591.227 331.858L405.467 331.858z" /></clipPath><g><g><g clip-path="url(#10)"><g transform="matrix(0.5992259 0 0 0.5985001 405.4668 140.338)"><g transform="matrix(1 0 0 1 0 0)"><image x="0" y="0" xlink:href="img_51.png" width="310" height="320" /></g></g></g></g></g></mask><clipPath id="11"><path id="" clip-rule="evenodd" transform="matrix(1 0 0 1 0 0)" d="M434.987 168.418L568.547 168.418L568.547 168.418L568.547 311.338L568.547 311.338L434.987 311.338z" /></clipPath><clipPath id="12"><path id="" clip-rule="evenodd" transform="matrix(1 0 0 1 0 0)" d="M421.094 144.473L410.21 300.111L410.21 300.111L567.384 311.102L567.384 311.102L576.856 175.656L576.856 175.656L578.268 155.464z" /></clipPath></defs><g transform="matrix(1.333333 0 0 1.333333 0 0)"><g clip-path="url(#1)"><g clip-path="url(#2)"></g><path id="34" transform="matrix(1 0 0 -1 0 841)" d="M0 783.04L558.425 783.04L558.425 805.04L0 805.04z" stroke="none" fill="#587541" fill-rule="nonzero" /><g clip-path="url(#3)"><path id="45" transform="matrix(1 0 0 -1 0 841)" d="M-558.4252 751.2201L558.4248 751.2201" stroke="#587541" stroke-width="2.364" fill="none" /></g><path id="69" transform="matrix(1 0 0 -1 0 841)" d="M494.827 743.839L558.425 743.839L558.425 761.039L494.827 761.039z" stroke="none" fill="#FFFFFF" fill-rule="nonzero" /><path id="79" transform="matrix(1 0 0 -1 0 841)" d="M447.436 326.539L558.425 326.539L558.425 391.912L447.436 391.912z" stroke="none" fill="#C5C7B3" fill-rule="nonzero" /><path id="528" transform="matrix(1 0 0 -1 0 841)" d="M105.6652 507.0394L420.0462 507.0394" stroke="#000000" stroke-width="1" stroke-linecap="round" stroke-dasharray="1,2.008" fill="none" /><path id="529" transform="matrix(1 0 0 -1 0 841)" d="M421.5508 507.0394L421.5508 507.0394M102.6568 507.0394L102.6568 507.0394" stroke="#000000" stroke-width="1" stroke-linecap="round" fill="none" /><path id="530" transform="matrix(1 0 0 -1 0 841)" d="M104.3354 490.5394L420.0544 490.5394" stroke="#000000" stroke-width="1" stroke-linecap="round" stroke-dasharray="1,1.993" fill="none" /><path id="531" transform="matrix(1 0 0 -1 0 841)" d="M421.5508 490.5394L421.5508 490.5394M101.3428 490.5394L101.3428 490.5394" stroke="#000000" stroke-width="1" stroke-linecap="round" fill="none" /><path id="532" transform="matrix(1 0 0 -1 0 841)" d="M119.4182 474.0394L420.0542 474.0394" stroke="#000000" stroke-width="1" stroke-linecap="round" stroke-dasharray="1,1.991" fill="none" /><path id="533" transform="matrix(1 0 0 -1 0 841)" d="M421.5508 474.0394L421.5508 474.0394M116.4268 474.0394L116.4268 474.0394" stroke="#000000" stroke-width="1" stroke-linecap="round" fill="none" /><path id="534" transform="matrix(1 0 0 -1 0 841)" d="M102.5701 457.5394L420.0461 457.5394" stroke="#000000" stroke-width="1" stroke-linecap="round" stroke-dasharray="1,2.009" fill="none" /><path id="535" transform="matrix(1 0 0 -1 0 841)" d="M421.5509 457.5394L421.5509 457.5394M99.5609 457.5394L99.5609 457.5394" stroke="#000000" stroke-width="1" stroke-linecap="round" fill="none" /><path id="536" transform="matrix(1 0 0 -1 0 841)" d="M110.2312 441.0394L420.0542 441.0394" stroke="#000000" stroke-width="1" stroke-linecap="round" stroke-dasharray="1,1.993" fill="none" /><path id="537" transform="matrix(1 0 0 -1 0 841)" d="M421.5507 441.0394L421.5507 441.0394M107.2377 441.0394L107.2377 441.0394" stroke="#000000" stroke-width="1" stroke-linecap="round" fill="none" /><path id="538" transform="matrix(1 0 0 -1 0 841)" d="M132.969 424.5394L420.047 424.5394" stroke="#000000" stroke-width="1" stroke-linecap="round" stroke-dasharray="1,2.006" fill="none" /><path id="539" transform="matrix(1 0 0 -1 0 841)" d="M421.5499 424.5394L421.5499 424.5394M129.9629 424.5394L129.9629 424.5394" stroke="#000000" stroke-width="1" stroke-linecap="round" fill="none" /><path id="540" transform="matrix(1 0 0 -1 0 841)" d="M133.138 408.0394L420.048 408.0394" stroke="#000000" stroke-width="1" stroke-linecap="round" stroke-dasharray="1,2.004" fill="none" /><path id="541" transform="matrix(1 0 0 -1 0 841)" d="M421.5508 408.0394L421.5508 408.0394M130.1338 408.0394L130.1338 408.0394" stroke="#000000" stroke-width="1" stroke-linecap="round" fill="none" /><path id="542" transform="matrix(1 0 0 -1 0 841)" d="M132.5058 391.5394L420.0448 391.5394" stroke="#000000" stroke-width="1" stroke-linecap="round" stroke-dasharray="1,2.011" fill="none" /><path id="543" transform="matrix(1 0 0 -1 0 841)" d="M421.5499 391.5394L421.5499 391.5394M129.4949 391.5394L129.4949 391.5394" stroke="#000000" stroke-width="1" stroke-linecap="round" fill="none" /><path id="544" transform="matrix(1 0 0 -1 0 841)" d="M132.6749 375.0394L420.0459 375.0394" stroke="#000000" stroke-width="1" stroke-linecap="round" stroke-dasharray="1,2.009" fill="none" /><path id="545" transform="matrix(1 0 0 -1 0 841)" d="M421.5507 375.0394L421.5507 375.0394M129.6657 375.0394L129.6657 375.0394" stroke="#000000" stroke-width="1" stroke-linecap="round" fill="none" /><path id="546" transform="matrix(1 0 0 -1 0 841)" d="M117.6533 358.5394L420.0463 358.5394" stroke="#000000" stroke-width="1" stroke-linecap="round" stroke-dasharray="1,2.009" fill="none" /><path id="547" transform="matrix(1 0 0 -1 0 841)" d="M421.5504 358.5394L421.5504 358.5394M114.6444 358.5394L114.6444 358.5394" stroke="#000000" stroke-width="1" stroke-linecap="round" fill="none" /><path id="548" transform="matrix(1 0 0 -1 0 841)" d="M117.8225 342.0394L420.0465 342.0394" stroke="#000000" stroke-width="1" stroke-linecap="round" stroke-dasharray="1,2.007" fill="none" /><path id="549" transform="matrix(1 0 0 -1 0 841)" d="M421.5503 342.0394L421.5503 342.0394M114.8153 342.0394L114.8153 342.0394" stroke="#000000" stroke-width="1" stroke-linecap="round" fill="none" /><path id="550" transform="matrix(1 0 0 -1 0 841)" d="M132.1668 325.5394L420.0428 325.5394" stroke="#000000" stroke-width="1" stroke-linecap="round" stroke-dasharray="1,2.014" fill="none" /><path id="551" transform="matrix(1 0 0 -1 0 841)" d="M421.5504 325.5394L421.5504 325.5394M129.1524 325.5394L129.1524 325.5394" stroke="#000000" stroke-width="1" stroke-linecap="round" fill="none" /><path id="751" transform="matrix(1 0 0 -1 0 841)" d="M72.539 535.533L194.938 535.533L194.938 563.039L72.539 563.039z" stroke="none" fill="#C6C8CA" fill-rule="nonzero" /><path id="794" transform="matrix(1 0 0 -1 0 841)" d="M295.7095 265.0394L464.3075 265.0394" stroke="#000000" stroke-width="1" stroke-linecap="round" stroke-dasharray="1,1.984" fill="none" /><path id="795" transform="matrix(1 0 0 -1 0 841)" d="M465.7995 265.0394L465.7995 265.0394M292.7255 265.0394L292.7255 265.0394" stroke="#000000" stroke-width="1" stroke-linecap="round" fill="none" /><path id="796" transform="matrix(1 0 0 -1 0 841)" d="M91.3695 248.5394L464.3015 248.5394" stroke="#000000" stroke-width="1" stroke-linecap="round" stroke-dasharray="1,1.995" fill="none" /><path id="797" transform="matrix(1 0 0 -1 0 841)" d="M465.799 248.5394L465.799 248.5394M88.374 248.5394L88.374 248.5394" stroke="#000000" stroke-width="1" stroke-linecap="round" fill="none" /><path id="798" transform="matrix(1 0 0 -1 0 841)" d="M394.1866 232.0394L464.3076 232.0394" stroke="#000000" stroke-width="1" stroke-linecap="round" stroke-dasharray="1,1.984" fill="none" /><path id="799" transform="matrix(1 0 0 -1 0 841)" d="M465.7988 232.0394L465.7988 232.0394M391.2028 232.0394L391.2028 232.0394" stroke="#000000" stroke-width="1" stroke-linecap="round" fill="none" /><path id="800" transform="matrix(1 0 0 -1 0 841)" d="M218.9844 215.5394L464.2944 215.5394" stroke="#000000" stroke-width="1" stroke-linecap="round" stroke-dasharray="1,2.01" fill="none" /><path id="801" transform="matrix(1 0 0 -1 0 841)" d="M465.7995 215.5394L465.7995 215.5394M215.9745 215.5394L215.9745 215.5394" stroke="#000000" stroke-width="1" stroke-linecap="round" fill="none" /><path id="802" transform="matrix(1 0 0 -1 0 841)" d="M91.3695 199.0394L464.3015 199.0394" stroke="#000000" stroke-width="1" stroke-linecap="round" stroke-dasharray="1,1.995" fill="none" /><path id="803" transform="matrix(1 0 0 -1 0 841)" d="M465.799 199.0394L465.799 199.0394M88.374 199.0394L88.374 199.0394" stroke="#000000" stroke-width="1" stroke-linecap="round" fill="none" /><path id="804" transform="matrix(1 0 0 -1 0 841)" d="M130.6777 166.0394L464.3027 166.0394" stroke="#000000" stroke-width="1" stroke-linecap="round" stroke-dasharray="1,1.992" fill="none" /><path id="805" transform="matrix(1 0 0 -1 0 841)" d="M465.7996 166.0394L465.7996 166.0394M127.6856 166.0394L127.6856 166.0394" stroke="#000000" stroke-width="1" stroke-linecap="round" fill="none" /><path id="806" transform="matrix(1 0 0 -1 0 841)" d="M91.3695 149.5394L464.3015 149.5394" stroke="#000000" stroke-width="1" stroke-linecap="round" stroke-dasharray="1,1.995" fill="none" /><path id="807" transform="matrix(1 0 0 -1 0 841)" d="M465.799 149.5394L465.799 149.5394M88.374 149.5394L88.374 149.5394" stroke="#000000" stroke-width="1" stroke-linecap="round" fill="none" /><path id="808" transform="matrix(1 0 0 -1 0 841)" d="M155.2593 116.5394L464.3063 116.5394" stroke="#000000" stroke-width="1" stroke-linecap="round" stroke-dasharray="1,1.986" fill="none" /><path id="809" transform="matrix(1 0 0 -1 0 841)" d="M465.7994 116.5394L465.7994 116.5394M152.2734 116.5394L152.2734 116.5394" stroke="#000000" stroke-width="1" stroke-linecap="round" fill="none" /><path id="810" transform="matrix(1 0 0 -1 0 841)" d="M91.3695 100.0394L464.3015 100.0394" stroke="#000000" stroke-width="1" stroke-linecap="round" stroke-dasharray="1,1.995" fill="none" /><path id="811" transform="matrix(1 0 0 -1 0 841)" d="M465.799 100.0394L465.799 100.0394M88.374 100.0394L88.374 100.0394" stroke="#000000" stroke-width="1" stroke-linecap="round" fill="none" /><g clip-path="url(#4)"><path id="1428" transform="matrix(1 0 0 -1 0 841)" d="M-558.4252 34.7906L-0.0001831055 34.7906" stroke="#000000" stroke-width="0.5" fill="none" /><path id="1430" transform="matrix(1 0 0 -1 0 841)" d="M0 34.7906L558.425 34.7906" stroke="#000000" stroke-width="0.5" fill="none" /></g><g clip-path="url(#5)"><g mask="url(#m1)"><g clip-path="url(#7)"><path id="1433" transform="matrix(1 0 0 -1 0 841)" d="M343.131 726.661L484.611 726.661L484.611 579.061L343.131 579.061z" stroke="none" fill="#000000" fill-rule="nonzero" fill-opacity="0.1960784" /></g></g></g><g clip-path="url(#8)"><g transform="matrix(0.5341089 -0.1184091 0.1184091 0.5341089 323.1456 124.1358)"><g transform="matrix(1 0 0 1 0 0)"><image x="0" y="0" xlink:href="img_50.png" width="288" height="288" /></g></g></g><g clip-path="url(#9)"><g mask="url(#m2)"><g clip-path="url(#11)"><path id="1436" transform="matrix(1 0 0 -1 0 841)" d="M434.987 672.582L568.547 672.582L568.547 529.662L434.987 529.662z" stroke="none" fill="#000000" fill-rule="nonzero" fill-opacity="0.1960784" /></g></g></g><g clip-path="url(#12)"><g transform="matrix(0.5419804 0.03789896 -0.0377893 0.5404122 421.0934 144.4725)"><g transform="matrix(1 0 0 1 0 0)"><image x="0" y="0" xlink:href="img_52.png" width="290" height="288" /></g></g></g></g></g></svg>