<svg xmlns="http://www.w3.org/2000/svg" xmlns:xlink="http://www.w3.org/1999/xlink" id="body_6" preserveAspectRatio="xMinYMin meet" viewBox="0 0 793 1121"><defs><clipPath id="1"><path id="" clip-rule="evenodd" transform="matrix(1 0 0 1 0 0)" d="M0 841L0 -0.8900146L0 -0.8900146L595.276 -0.8900146L595.276 -0.8900146L595.276 841L595.276 841L0 841z" /></clipPath><clipPath id="2"><path id="" clip-rule="evenodd" transform="matrix(1 0 0 1 0 0)" d="M0 841L595.276 841L595.276 841L595.276 -0.8900146L595.276 -0.8900146L0 -0.8900146z" /></clipPath><clipPath id="3"><path id="" clip-rule="evenodd" transform="matrix(1 0 0 1 0 0)" d="M56.972 350.858L367.366 350.858L367.366 350.858L367.366 229.858L367.366 229.858L56.972 229.858z" /></clipPath><clipPath id="4"><path id="" clip-rule="evenodd" transform="matrix(1 0 0 1 0 0)" d="M56.693 475.961L219.714 475.961L219.714 475.961L219.714 353.693L219.714 353.693L56.693 353.693z" /></clipPath><clipPath id="5"><path id="" clip-rule="evenodd" transform="matrix(1 0 0 1 0 0)" d="M56.886 607.96L257.673 607.96L257.673 607.96L257.673 478.795L257.673 478.795L56.886 478.795z" /></clipPath><clipPath id="6"><path id="" clip-rule="evenodd" transform="matrix(1 0 0 1 0 0)" d="M260.509 607.96L418.31 607.96L418.31 607.96L418.31 478.795L418.31 478.795L260.509 478.795z" /></clipPath><clipPath id="7"><path id="" clip-rule="evenodd" transform="matrix(1 0 0 1 0 0)" d="M224.41 794.96L418.31 794.96L418.31 794.96L418.31 610.795L418.31 610.795L224.41 610.795z" /></clipPath><clipPath id="8"><path id="" clip-rule="evenodd" transform="matrix(1 0 0 1 0 0)" d="M421.143 794.96L558.307 794.96L558.307 794.96L558.307 588.037L558.307 588.037L421.143 588.037z" /></clipPath><clipPath id="9"><path id="" clip-rule="evenodd" transform="matrix(1 0 0 1 0 0)" d="M370.2 350.858L558.307 350.858L558.307 350.858L558.307 229.858L558.307 229.858L370.2 229.858z" /></clipPath><clipPath id="10"><path id="" clip-rule="evenodd" transform="matrix(1 0 0 1 0 0)" d="M222.548 475.961L418.309 475.961L418.309 475.961L418.309 353.693L418.309 353.693L222.548 353.693z" /></clipPath><clipPath id="11"><path id="" clip-rule="evenodd" transform="matrix(1 0 0 1 0 0)" d="M56.693 794.96L221.575 794.96L221.575 794.96L221.575 610.795L221.575 610.795L56.693 610.795z" /></clipPath><clipPath id="12"><path id="" clip-rule="evenodd" transform="matrix(1 0 0 1 0 0)" d="M0 841L595.276 841L595.276 841L595.276 -0.8900146L595.276 -0.8900146L0 -0.8900146z" /></clipPath><mask id="m1"><clipPath id="13"><path id="" clip-rule="evenodd" transform="matrix(1 0 0 1 0 0)" d="M164.712 -19.198L455.952 -19.198L455.952 -19.198L455.952 60.00201L455.952 60.00201L164.712 60.00201z" /></clipPath><g><g><g clip-path="url(#13)"><g transform="matrix(0.5992593 0 0 0.5954888 164.7119 -19.19757)"><g transform="matrix(1 0 0 1 0 0)"><image x="0" y="0" xlink:href="img_37.png" width="486" height="133" /></g></g></g></g></g></mask><clipPath id="14"><path id="" clip-rule="evenodd" transform="matrix(1 0 0 1 0 0)" d="M166.872 -17.03802L453.792 -17.03802L453.792 -17.03802L453.792 57.12201L453.792 57.12201L166.872 57.12201z" /></clipPath><clipPath id="15"><path id="" clip-rule="evenodd" transform="matrix(1 0 0 1 0 0)" d="M175.933 43.94501L221.386 43.94501L221.386 43.94501L221.386 21.99603L221.386 21.99603L175.933 21.99603z" /></clipPath><clipPath id="16"><path id="" clip-rule="evenodd" transform="matrix(1 0 0 1 0 0)" d="M363.189 227.024L558.307 227.024L558.307 227.024L558.307 101.961L558.307 101.961L363.189 101.961z" /></clipPath><clipPath id="17"><path id="" clip-rule="evenodd" transform="matrix(1 0 0 1 0 0)" d="M7.016 237.998L364.321 237.998L364.321 237.998L364.321 20.62897L364.321 20.62897L7.016 20.62897z" /></clipPath><clipPath id="18"><path id="" clip-rule="evenodd" transform="matrix(1 0 0 1 0 0)" d="M0 841L595.276 841L595.276 841L595.276 -0.8900146L595.276 -0.8900146L0 -0.8900146z" /></clipPath><clipPath id="19"><path id="" clip-rule="evenodd" transform="matrix(1 0 0 1 0 0)" d="M392.334 586.224L587.393 606.725L587.393 606.725L595.275 531.733L595.275 531.733L595.275 373.736L595.275 373.736L416.642 354.96z" /></clipPath></defs><g transform="matrix(1.333333 0 0 1.333333 0 0)"><g clip-path="url(#1)"><path id="1" transform="matrix(1 0 0 -1 0 841)" d="M0 0L595.275 0L595.275 841.89L0 841.89z" stroke="none" fill="#D3D6D9" fill-rule="nonzero" /><g clip-path="url(#2)"><path id="28" transform="matrix(1 0 0 -1 0 841)" d="M-558.4252 751.2201L558.4248 751.2201" stroke="#375863" stroke-width="2.364" fill="none" /></g><path id="43" transform="matrix(1 0 0 -1 0 841)" d="M0 783.04L558.425 783.04L558.425 805.04L0 805.04z" stroke="none" fill="#375863" fill-rule="nonzero" /><g clip-path="url(#3)"><g transform="matrix(0.570452 0 0 0.5692523 55.57932 229.8584)"><g transform="matrix(1 0 0 1 0 0)"><image x="0" y="0" xlink:href="img_28.png" width="549" height="215" /></g></g></g><path id="55" transform="matrix(1 0 0 -1 0 841)" d="M421.143 255.923L558.307 255.923L558.307 487.308L421.143 487.308z" stroke="none" fill="#9BA4AC" fill-rule="nonzero" /><g clip-path="url(#4)"><g transform="matrix(0.597145 0 0 0.5980912 56.6929 352.6254)"><g transform="matrix(1 0 0 1 0 0)"><image x="0" y="0" xlink:href="img_29.png" width="273" height="208" /></g></g></g><g clip-path="url(#5)"><g transform="matrix(0.5412061 0 0 0.5417438 56.8862 477.3075)"><g transform="matrix(1 0 0 1 0 0)"><image x="0" y="0" xlink:href="img_30.png" width="371" height="244" /></g></g></g><g clip-path="url(#6)"><g transform="matrix(0.5492503 0 0 0.5473108 259.218 478.7953)"><g transform="matrix(1 0 0 1 0 0)"><image x="0" y="0" xlink:href="img_31.png" width="292" height="236" /></g></g></g><path id="59" transform="matrix(1 0 0 -1 0 841)" d="M224.409 46.04L418.308 46.04L418.308 230.205L224.409 230.205z" stroke="none" fill="#EBE9E9" fill-rule="nonzero" /><g clip-path="url(#7)"><g transform="matrix(0.5998938 0 0 0.5998938 222.9305 609.7789)"><g transform="matrix(1 0 0 1 0 0)"><image x="0" y="0" xlink:href="img_32.png" width="328" height="311" /></g></g></g><path id="61" transform="matrix(1 0 0 -1 0 841)" d="M421.143 46.039L558.307 46.039L558.307 252.962L421.143 252.962z" stroke="none" fill="#B2B9BE" fill-rule="nonzero" /><g clip-path="url(#8)"><g transform="matrix(0.5341325 0 0 0.5333064 419.7183 588.0378)"><g transform="matrix(1 0 0 1 0 0)"><image x="0" y="0" xlink:href="img_33.png" width="262" height="388" /></g></g></g><path id="63" transform="matrix(1 0 0 -1 0 841)" d="M345.998 497.228L360.279 497.228L360.279 513.025L345.998 513.025z" stroke="none" fill="#FFFFFF" fill-rule="nonzero" /><g clip-path="url(#9)"><g transform="matrix(0.5971657 0 0 0.5970795 370.1999 228.2618)"><g transform="matrix(1 0 0 1 0 0)"><image x="0" y="0" xlink:href="img_34.png" width="315" height="208" /></g></g></g><path id="66" transform="matrix(1 0 0 -1 0 841)" d="M536.994 497.228L551.275 497.228L551.275 513.025L536.994 513.025z" stroke="none" fill="#FFFFFF" fill-rule="nonzero" /><path id="68" transform="matrix(1 0 0 -1 0 841)" d="M198.346 372.126L212.627 372.126L212.627 387.923L198.346 387.923z" stroke="none" fill="#FFFFFF" fill-rule="nonzero" /><g clip-path="url(#10)"><g transform="matrix(0.5305169 0 0 0.5301065 222.5481 352.5392)"><g transform="matrix(1 0 0 1 0 0)"><image x="0" y="0" xlink:href="img_35.png" width="369" height="235" /></g></g></g><path id="71" transform="matrix(1 0 0 -1 0 841)" d="M396.942 240.126L411.223 240.126L411.223 255.923L396.942 255.923z" stroke="none" fill="#FFFFFF" fill-rule="nonzero" /><g clip-path="url(#11)"><g transform="matrix(0.5405964 0 0 0.5417806 56.6929 609.6918)"><g transform="matrix(1 0 0 1 0 0)"><image x="0" y="0" xlink:href="img_36.png" width="305" height="344" /></g></g></g><path id="74" transform="matrix(1 0 0 -1 0 841)" d="M193.121 53.126L214.488 53.126L214.488 68.923L193.121 68.923z" stroke="none" fill="#FFFFFF" fill-rule="nonzero" /><path id="77" transform="matrix(1 0 0 -1 0 841)" d="M392.334 54.767L411.222 54.767L411.222 70.564L392.334 70.564z" stroke="none" fill="#FFFFFF" fill-rule="nonzero" /><path id="80" transform="matrix(1 0 0 -1 0 841)" d="M531.735 53.126L551.22 53.126L551.22 68.923L531.735 68.923z" stroke="none" fill="#FFFFFF" fill-rule="nonzero" /><g clip-path="url(#12)"><g mask="url(#m1)"><g clip-path="url(#14)"><path id="84" transform="matrix(1 0 0 -1 0 841)" d="M166.872 858.038L453.792 858.038L453.792 783.8781L166.872 783.8781z" stroke="none" fill="#000000" fill-rule="nonzero" fill-opacity="0.1960784" /></g></g></g><path id="85" transform="matrix(1 0 0 -1 0 841)" d="M168.846 794.039L443.621 794.039L443.621 841.889L168.846 841.889z" stroke="none" fill="#B2B9BE" fill-rule="nonzero" /><g clip-path="url(#15)"><path id="117" transform="matrix(1 0 0 -1 0 841)" d="M221.172 801.0233C 221.029 801.3703 220.834 801.6713 220.587 801.9263C 220.341 802.1813 220.051 802.3803 219.718 802.5233C 219.385 802.6673 219.028 802.7393 218.646 802.7403C 218.523 802.7413 218.396 802.7283 218.265 802.7043C 218.134 802.6793 218.008 802.6433 217.886 802.5973C 217.763 802.5503 217.65 802.4903 217.544 802.4173C 217.438 802.3443 217.348 802.2603 217.274 802.1673L217.274 802.1673L217.292 815.2473C 218.018 815.5203 218.538 816.2163 218.546 817.0383C 218.556 818.1073 217.699 818.9833 216.629 818.9943C 215.56 819.0043 214.684 818.1463 214.673 817.0773C 214.665 816.2453 215.184 815.5333 215.917 815.2513L215.917 815.2513L215.886 800.9003L215.886 800.9003L215.895 800.9003L215.895 800.9003L215.892 799.9023C 215.89 799.4863 215.961 799.1063 216.104 798.7593C 216.247 798.4123 216.443 798.1133 216.691 797.8613C 216.94 797.6093 217.231 797.4123 217.564 797.2713C 217.896 797.1293 218.252 797.0573 218.63 797.0563C 219.011 797.0553 219.369 797.1233 219.702 797.2593C 220.036 797.3953 220.327 797.5883 220.575 797.8363C 220.823 798.0853 221.02 798.3833 221.165 798.7313C 221.31 799.0793 221.383 799.4633 221.385 799.8853C 221.386 800.2973 221.315 800.6763 221.172 801.0233M219.894 799.3123C 219.822 799.1353 219.723 798.9813 219.599 798.8513C 219.475 798.7213 219.33 798.6183 219.164 798.5443C 218.998 798.4683 218.821 798.4323 218.634 798.4323C 218.446 798.4333 218.27 798.4713 218.105 798.5473C 217.939 798.6223 217.794 798.7263 217.671 798.8573C 217.548 798.9883 217.451 799.1423 217.381 799.3203C 217.312 799.4973 217.277 799.6903 217.278 799.8973C 217.278 800.0853 217.314 800.2663 217.384 800.4423C 217.456 800.6173 217.553 800.7733 217.677 800.9083C 217.801 801.0433 217.946 801.1523 218.113 801.2333C 218.278 801.3153 218.455 801.3553 218.643 801.3543C 218.83 801.3543 219.006 801.3163 219.172 801.2423C 219.337 801.1683 219.482 801.0663 219.605 800.9353C 219.729 800.8043 219.826 800.6493 219.898 800.4693C 219.969 800.2903 220.004 800.0973 220.004 799.8893C 220.004 799.6813 219.966 799.4893 219.894 799.3123" stroke="none" fill="#000000" fill-rule="nonzero" /><path id="118" transform="matrix(1 0 0 -1 0 841)" d="M188.14 809.4961C 187.987 809.8691 187.777 810.1881 187.511 810.4521C 187.245 810.7161 186.934 810.9201 186.579 811.0641C 186.224 811.2091 185.845 811.2811 185.442 811.2811C 185.256 811.2811 185.073 811.2581 184.89 811.2121C 184.709 811.1651 184.533 811.1021 184.363 811.0221C 184.194 810.9421 184.03 810.8461 183.873 810.7351C 183.716 810.6251 183.572 810.5071 183.44 810.3821L183.44 810.3821L182.856 811.0731L182.856 811.0731L182.503 811.0731L182.503 811.0731L182.503 806.0951L182.503 806.0951L182.503 803.1561L182.503 803.1561L182.503 800.8071L182.503 800.8071L181.905 800.8071L181.905 800.8071L181.905 797.0561L181.905 797.0561L184.528 797.0561L184.528 797.0561L184.528 800.8071L184.528 800.8071L183.971 800.8071L183.971 800.8071L183.971 803.1561L183.971 803.1561L183.975 803.1561L183.975 803.1561L183.975 805.7251C 184.086 805.6611 184.201 805.5981 184.32 805.5371C 184.44 805.4771 184.561 805.4231 184.684 805.3741C 184.808 805.3261 184.932 805.2881 185.059 805.2601C 185.186 805.2301 185.313 805.2171 185.442 805.2171C 185.845 805.2171 186.224 805.2861 186.579 805.4251C 186.934 805.5641 187.245 805.7651 187.511 806.0271C 187.777 806.2901 187.987 806.6091 188.14 806.9861C 188.293 807.3621 188.37 807.7861 188.37 808.2571C 188.37 808.7101 188.293 809.1231 188.14 809.4961M186.788 807.6201C 186.711 807.4271 186.607 807.2631 186.475 807.1281C 186.343 806.9921 186.188 806.8871 186.009 806.8111C 185.831 806.7371 185.642 806.6991 185.442 806.6991C 185.242 806.6991 185.054 806.7371 184.877 806.8111C 184.7 806.8871 184.546 806.9921 184.414 807.1281C 184.282 807.2631 184.178 807.4271 184.101 807.6201C 184.024 807.8131 183.986 808.0251 183.986 808.2571C 183.986 808.5001 184.024 808.7181 184.101 808.9101C 184.178 809.1031 184.282 809.2661 184.414 809.4001C 184.546 809.5341 184.7 809.6361 184.877 809.7081C 185.054 809.7791 185.242 809.8151 185.442 809.8151C 185.642 809.8151 185.831 809.7791 186.009 809.7081C 186.188 809.6361 186.343 809.5341 186.475 809.4001C 186.607 809.2661 186.711 809.1031 186.788 808.9101C 186.865 808.7181 186.903 808.5001 186.903 808.2571C 186.903 808.0251 186.865 807.8131 186.788 807.6201" stroke="none" fill="#000000" fill-rule="nonzero" /><path id="119" transform="matrix(1 0 0 -1 0 841)" d="M175.933 810.8166C 175.933 811.1256 175.992 811.4156 176.11 811.6856C 176.228 811.9566 176.389 812.1936 176.592 812.3966C 176.795 812.5996 177.032 812.7606 177.302 812.8786C 177.573 812.9966 177.863 813.0556 178.172 813.0556L178.172 813.0556L181.598 813.0556L181.598 813.0556L181.598 811.5606L181.598 811.5606L178.172 811.5606C 178.068 811.5606 177.97 811.5416 177.88 811.5036C 177.79 811.4656 177.711 811.4126 177.643 811.3446C 177.576 811.2776 177.523 811.1986 177.485 811.1086C 177.447 811.0176 177.427 810.9206 177.427 810.8166C 177.427 810.7126 177.447 810.6146 177.485 810.5226C 177.523 810.4306 177.576 810.3506 177.643 810.2826C 177.711 810.2156 177.79 810.1626 177.88 810.1236C 177.97 810.0856 178.068 810.0666 178.172 810.0666L178.172 810.0666L179.666 810.0666C 179.975 810.0666 180.266 810.0086 180.538 809.8926C 180.811 809.7766 181.049 809.6166 181.252 809.4136C 181.455 809.2106 181.614 808.9726 181.731 808.7006C 181.847 808.4276 181.905 808.1366 181.905 807.8276C 181.905 807.5186 181.847 807.2296 181.731 806.9586C 181.614 806.6876 181.455 806.4506 181.252 806.2476C 181.049 806.0446 180.811 805.8836 180.538 805.7666C 180.266 805.6486 179.975 805.5896 179.666 805.5896L179.666 805.5896L176.35 805.5896L176.35 805.5896L176.35 807.0836L176.35 807.0836L179.666 807.0836C 179.77 807.0836 179.867 807.1026 179.958 807.1406C 180.048 807.1786 180.127 807.2316 180.194 807.2996C 180.262 807.3676 180.315 807.4466 180.353 807.5366C 180.392 807.6266 180.411 807.7236 180.411 807.8276C 180.411 807.9326 180.392 808.0296 180.353 808.1196C 180.315 808.2096 180.262 808.2886 180.194 808.3566C 180.127 808.4236 180.048 808.4776 179.958 808.5156C 179.867 808.5536 179.77 808.5726 179.666 808.5726L179.666 808.5726L178.172 808.5726C 177.863 808.5726 177.573 808.6316 177.302 808.7496C 177.032 808.8676 176.795 809.0286 176.592 809.2316C 176.389 809.4346 176.228 809.6716 176.11 809.9446C 175.992 810.2166 175.933 810.5076 175.933 810.8166" stroke="none" fill="#000000" fill-rule="nonzero" /><path id="120" transform="matrix(1 0 0 -1 0 841)" d="M194.5726 805.5899L194.2286 805.5899L194.2286 805.5899L193.6766 806.3549C 193.5416 806.2329 193.3976 806.1199 193.2476 806.0139C 193.0966 805.9079 192.9376 805.8159 192.7706 805.7379C 192.6046 805.6599 192.4336 805.5979 192.2576 805.5529C 192.0826 805.5079 191.9046 805.4849 191.7246 805.4849C 191.3316 805.4849 190.9636 805.5509 190.6176 805.6829C 190.2726 805.8149 189.9706 806.0069 189.7116 806.2589C 189.4536 806.5099 189.2496 806.8179 189.1006 807.1819C 188.9506 807.5469 188.8766 807.9619 188.8766 808.4269C 188.8766 808.8609 188.9506 809.2589 189.1006 809.6219C 189.2496 809.9839 189.4536 810.2959 189.7116 810.5559C 189.9706 810.8169 190.2726 811.0189 190.6176 811.1629C 190.9636 811.3069 191.3316 811.3789 191.7246 811.3789C 191.9046 811.3789 192.0836 811.3569 192.2606 811.3109C 192.4376 811.2659 192.6096 811.2039 192.7766 811.1239C 192.9426 811.0439 193.1016 810.9499 193.2526 810.8429C 193.4036 810.7349 193.5446 810.6189 193.6766 810.4939L193.6766 810.4939L194.2286 811.1549L194.2286 811.1549L194.5726 811.1549zM193.1406 808.4269C 193.1406 808.6208 193.1036 808.8099 193.0286 808.9919C 192.9536 809.1739 192.8526 809.3349 192.7236 809.4759C 192.5956 809.6169 192.4456 809.7289 192.2736 809.8149C 192.1016 809.8999 191.9186 809.9419 191.7246 809.9419C 191.5296 809.9419 191.3466 809.9089 191.1746 809.8429C 191.0036 809.7769 190.8536 809.6799 190.7276 809.5509C 190.6006 809.4229 190.5006 809.2639 190.4276 809.0749C 190.3546 808.8859 190.3186 808.6699 190.3186 808.4269C 190.3186 808.1839 190.3546 807.9679 190.4276 807.7789C 190.5006 807.5889 190.6006 807.4309 190.7276 807.3029C 190.8536 807.1739 191.0036 807.0769 191.1746 807.0109C 191.3466 806.9449 191.5296 806.9119 191.7246 806.9119C 191.9186 806.9119 192.1016 806.9539 192.2736 807.0389C 192.4456 807.1239 192.5956 807.2369 192.7236 807.3779C 192.8526 807.5179 192.9536 807.6799 193.0286 807.8619C 193.1036 808.0439 193.1406 808.2319 193.1406 808.4269" stroke="none" fill="#000000" fill-rule="nonzero" /><path id="121" transform="matrix(1 0 0 -1 0 841)" d="M197.0689 805.5923L195.6469 805.5963L195.6469 805.5963L195.6629 811.1723L195.6629 811.1723L196.0069 811.1713L196.0069 811.1713L196.4739 810.6283C 196.7029 810.8363 196.9629 810.9963 197.2539 811.1083C 197.5439 811.2203 197.8459 811.2753 198.1629 811.2743C 198.5029 811.2733 198.8239 811.2073 199.1249 811.0763C 199.4259 810.9453 199.6899 810.7663 199.9149 810.5383C 200.1399 810.3103 200.3169 810.0443 200.4469 809.7403C 200.5759 809.4363 200.6399 809.1123 200.6389 808.7683L200.6389 808.7683L200.6299 805.5823L200.6299 805.5823L199.2089 805.5863L199.2089 805.5863L199.2179 808.7733C 199.2179 808.9183 199.1899 809.0563 199.1359 809.1873C 199.0799 809.3173 199.0039 809.4313 198.9069 809.5283C 198.8109 809.6253 198.6979 809.7033 198.5699 809.7583C 198.4409 809.8143 198.3039 809.8423 198.1579 809.8433C 198.0089 809.8433 197.8689 809.8163 197.7369 809.7613C 197.6039 809.7063 197.4899 809.6293 197.3919 809.5323C 197.2949 809.4363 197.2179 809.3223 197.1619 809.1923C 197.1059 809.0623 197.0779 808.9243 197.0779 808.7783z" stroke="none" fill="#000000" fill-rule="nonzero" /><path id="122" transform="matrix(1 0 0 -1 0 841)" d="M203.324 812.68C 203.324 812.549 203.299 812.425 203.249 812.311C 203.198 812.196 203.13 812.097 203.043 812.011C 202.957 811.926 202.855 811.859 202.739 811.808C 202.622 811.758 202.498 811.733 202.367 811.733C 202.234 811.733 202.11 811.758 201.994 811.808C 201.878 811.859 201.777 811.926 201.692 812.011C 201.607 812.097 201.539 812.196 201.489 812.311C 201.439 812.425 201.414 812.549 201.414 812.68C 201.414 812.809 201.439 812.931 201.489 813.048C 201.539 813.164 201.607 813.264 201.692 813.349C 201.777 813.435 201.878 813.502 201.994 813.553C 202.11 813.603 202.234 813.628 202.367 813.628C 202.498 813.628 202.622 813.603 202.739 813.553C 202.855 813.502 202.957 813.435 203.043 813.349C 203.13 813.264 203.198 813.164 203.249 813.048C 203.299 812.931 203.324 812.809 203.324 812.68M203.079 805.59L201.647 805.59L201.647 811.166L203.079 811.166z" stroke="none" fill="#000000" fill-rule="nonzero" /><path id="123" transform="matrix(1 0 0 -1 0 841)" d="M207.2239 805.5895L203.9749 805.5895L203.9749 805.5895L203.9749 807.0055L203.9749 807.0055L207.2239 807.0055C 207.3209 807.0055 207.4039 807.0405 207.4739 807.1095C 207.5429 807.1785 207.5779 807.2625 207.5779 807.3595C 207.5779 807.4604 207.5429 807.5265 207.4739 807.5575C 207.4039 807.5885 207.3209 807.6045 207.2239 807.6045L207.2239 807.6045L205.7449 807.6045C 205.4989 807.6045 205.2679 807.6505 205.0529 807.7445C 204.8379 807.8385 204.6499 807.9665 204.4899 808.1275C 204.3309 808.2885 204.2049 808.4775 204.1129 808.6925C 204.0209 808.9075 203.9749 809.1385 203.9749 809.3855C 203.9749 809.6315 204.0209 809.8625 204.1129 810.0775C 204.2049 810.2925 204.3309 810.4795 204.4899 810.6395C 204.6499 810.7995 204.8379 810.9255 205.0529 811.0175C 205.2679 811.1085 205.4989 811.1545 205.7449 811.1545L205.7449 811.1545L208.6239 811.1545L208.6239 811.1545L208.6239 809.7385L208.6239 809.7385L205.7449 809.7385C 205.6479 809.7385 205.5649 809.7045 205.4959 809.6345C 205.4259 809.5655 205.3909 809.4815 205.3909 809.3855C 205.3909 809.2845 205.4259 809.1985 205.4959 809.1275C 205.5649 809.0555 205.6479 809.0205 205.7449 809.0205L205.7449 809.0205L207.2239 809.0205C 207.4669 809.0205 207.6959 808.9795 207.9109 808.8975C 208.1259 808.8165 208.3139 808.7025 208.4729 808.5565C 208.6329 808.4115 208.7599 808.2355 208.8539 808.0315C 208.9469 807.8265 208.9939 807.6025 208.9939 807.3595C 208.9939 807.1125 208.9469 806.8835 208.8539 806.6695C 208.7599 806.4565 208.6329 806.2685 208.4729 806.1075C 208.3139 805.9455 208.1259 805.8195 207.9109 805.7275C 207.6959 805.6355 207.4669 805.5895 207.2239 805.5895" stroke="none" fill="#000000" fill-rule="nonzero" /><path id="124" transform="matrix(1 0 0 -1 0 841)" d="M211.1706 805.5895L209.7486 805.5895L209.7486 805.5895L209.7486 813.3835L209.7486 813.3835L211.1706 813.3835L211.1706 813.3835L211.1706 810.9205C 211.3406 811.0495 211.5156 811.1405 211.6966 811.1935C 211.8766 811.2475 212.0606 811.2745 212.2486 811.2745C 212.5916 811.2745 212.9146 811.2095 213.2166 811.0795C 213.5186 810.9495 213.7816 810.7705 214.0056 810.5435C 214.2286 810.3155 214.4066 810.0505 214.5366 809.7465C 214.6666 809.4425 214.7316 809.1195 214.7316 808.7755L214.7316 808.7755L214.7316 805.5895L214.7316 805.5895L213.2996 805.5895L213.2996 805.5895L213.2996 808.7755L213.2996 808.7755L213.3106 808.7755C 213.3106 808.9214 213.2826 809.0594 213.2266 809.1895C 213.1716 809.3195 213.0956 809.4335 212.9976 809.5305C 212.9006 809.6275 212.7876 809.7045 212.6596 809.7595C 212.5306 809.8155 212.3946 809.8425 212.2486 809.8425C 212.0986 809.8425 211.9586 809.8155 211.8266 809.7595C 211.6946 809.7045 211.5796 809.6275 211.4826 809.5305C 211.3856 809.4335 211.3086 809.3195 211.2536 809.1895C 211.1986 809.0594 211.1706 808.9214 211.1706 808.7755z" stroke="none" fill="#000000" fill-rule="nonzero" /><path id="125" transform="matrix(1 0 0 -1 0 841)" d="M204.6341 797.2176L203.1401 797.2176L203.1401 804.6836L204.6341 804.6836L204.6341 801.6946L207.6171 801.6946L207.6171 804.6836L209.1121 804.6836L209.1121 797.2176L207.6171 797.2176L207.6171 800.2006L204.6341 800.2006z" stroke="none" fill="#000000" fill-rule="nonzero" /><path id="126" transform="matrix(1 0 0 -1 0 841)" d="M214.3706 797.8682C 214.2556 797.7642 214.1336 797.6662 214.0026 797.5742C 213.8736 797.4822 213.7366 797.4022 213.5946 797.3342C 213.4526 797.2672 213.3056 797.2132 213.1546 797.1732C 213.0036 797.1332 212.8496 797.1132 212.6936 797.1132C 212.3506 797.1132 212.0276 797.1743 211.7256 797.2952C 211.4236 797.4162 211.1586 797.5892 210.9316 797.8132C 210.7036 798.0372 210.5256 798.3092 210.3946 798.6312C 210.2646 798.9512 210.1996 799.3122 210.1996 799.7112L210.1996 799.7112L210.1996 802.7932L210.1996 802.7932L211.6156 802.7932L211.6156 802.7932L211.6156 799.7112C 211.6156 799.5242 211.6446 799.3562 211.7016 799.2092C 211.7586 799.0612 211.8366 798.9372 211.9336 798.8362C 212.0306 798.7362 212.1446 798.6592 212.2746 798.6072C 212.4046 798.5552 212.5446 798.5292 212.6936 798.5292C 212.8396 798.5292 212.9776 798.5632 213.1076 798.6312C 213.2376 798.6982 213.3516 798.7872 213.4486 798.8992C 213.5456 799.0103 213.6226 799.1353 213.6776 799.2762C 213.7336 799.4172 213.7606 799.5622 213.7606 799.7112L213.7606 799.7112L213.7606 802.7932L213.7606 802.7932L215.1826 802.7932L215.1826 802.7932L215.1826 797.2172L215.1826 797.2172L214.8386 797.2172z" stroke="none" fill="#000000" fill-rule="nonzero" /><path id="127" transform="matrix(1 0 0 -1 0 841)" d="M178.453 814.1056L177.477 814.1056L177.477 818.0176L176.008 818.0176L176.008 818.9966L179.92 818.9966L179.92 818.0176L178.453 818.0176z" stroke="none" fill="#000000" fill-rule="nonzero" /><path id="128" transform="matrix(1 0 0 -1 0 841)" d="M185.7183 814.9993C 185.7543 814.9873 185.7903 814.9803 185.8273 814.9773C 185.8633 814.9733 185.8993 814.9723 185.9363 814.9723C 186.0273 814.9723 186.1153 814.9843 186.1983 815.0093C 186.2823 815.0343 186.3613 815.0703 186.4353 815.1163C 186.5093 815.1633 186.5753 815.2203 186.6333 815.2873C 186.6923 815.3543 186.7393 815.4293 186.7753 815.5103L186.7753 815.5103L187.4573 814.8253C 187.3713 814.7023 187.2713 814.5923 187.1583 814.4943C 187.0463 814.3963 186.9243 814.3133 186.7943 814.2453C 186.6633 814.1773 186.5253 814.1263 186.3813 814.0903C 186.2373 814.0553 186.0883 814.0373 185.9363 814.0373C 185.6793 814.0373 185.4373 814.0853 185.2113 814.1803C 184.9853 814.2763 184.7873 814.4093 184.6183 814.5793C 184.4483 814.7503 184.3153 814.9533 184.2173 815.1883C 184.1193 815.4233 184.0703 815.6823 184.0703 815.9643C 184.0703 816.2523 184.1193 816.5173 184.2173 816.7553C 184.3153 816.9943 184.4483 817.1983 184.6183 817.3663C 184.7873 817.5343 184.9853 817.6653 185.2113 817.7583C 185.4373 817.8513 185.6793 817.8983 185.9363 817.8983C 186.0883 817.8983 186.2373 817.8803 186.3833 817.8433C 186.5283 817.8073 186.6663 817.7553 186.7973 817.6863C 186.9283 817.6183 187.0503 817.5353 187.1643 817.4363C 187.2783 817.3373 187.3773 817.2263 187.4643 817.1033zM186.1953 816.9193C 186.1523 816.9353 186.1093 816.9453 186.0673 816.9503C 186.0253 816.9543 185.9813 816.9573 185.9363 816.9573C 185.8083 816.9573 185.6883 816.9333 185.5763 816.8873C 185.4633 816.8403 185.3653 816.7733 185.2833 816.6873C 185.2003 816.6013 185.1343 816.4973 185.0873 816.3753C 185.0393 816.2533 185.0153 816.1173 185.0153 815.9643C 185.0153 815.9303 185.0173 815.8913 185.0203 815.8483C 185.0233 815.8053 185.0293 815.7613 185.0373 815.7173C 185.0453 815.6723 185.0543 815.6303 185.0663 815.5893C 185.0783 815.5473 185.0923 815.5123 185.1113 815.4803z" stroke="none" fill="#000000" fill-rule="nonzero" /><path id="129" transform="matrix(1 0 0 -1 0 841)" d="M180.3301 816.9879L180.3301 814.0799L180.3301 814.0799L181.2651 814.0799L181.2651 814.0799L181.2651 816.1739C 181.2651 816.2699 181.2831 816.3609 181.3191 816.4459C 181.3561 816.5309 181.4061 816.6059 181.4701 816.6699C 181.5331 816.7339 181.6091 816.7849 181.6961 816.8209C 181.7821 816.8569 181.8751 816.8759 181.9731 816.8759C 182.0691 816.8759 182.1591 816.8569 182.2431 816.8209C 182.3281 816.7849 182.4021 816.7339 182.4661 816.6699C 182.5301 816.6059 182.5791 816.5309 182.6161 816.4459C 182.6531 816.3609 182.6711 816.2699 182.6711 816.1739L182.6711 816.1739L182.6641 816.1739L182.6641 816.1739L182.6641 814.0799L182.6641 814.0799L183.6051 814.0799L183.6051 814.0799L183.6051 816.1739C 183.6051 816.3999 183.5631 816.6129 183.4771 816.8129C 183.3911 817.0119 183.2751 817.1859 183.1281 817.3359C 182.9811 817.4849 182.8081 817.6029 182.6091 817.6889C 182.4111 817.7739 182.1991 817.8169 181.9731 817.8169C 181.8501 817.8169 181.7291 817.7989 181.6101 817.7639C 181.4931 817.7289 181.3791 817.6689 181.2681 817.5869L181.2681 817.5869L181.2681 818.9959L181.2681 818.9959L180.3301 818.9959" stroke="none" fill="#000000" fill-rule="nonzero" /></g><path id="150" transform="matrix(1 0 0 -1 0 841)" d="M396.942 372.126L411.223 372.126L411.223 387.923L396.942 387.923z" stroke="none" fill="#FFFFFF" fill-rule="nonzero" /><g clip-path="url(#16)"><g transform="matrix(0.4952236 0 0 0.4942478 363.189 100.7365)"><g transform="matrix(1 0 0 1 0 0)"><image x="0" y="0" xlink:href="img_38.png" width="394" height="258" /></g></g></g><path id="153" transform="matrix(1 0 0 -1 0 841)" d="M56.972 613.976L360.355 613.976L360.355 739.039L56.972 739.039z" stroke="none" fill="#9AA4AB" fill-rule="nonzero" /><path id="154" transform="matrix(1 0 0 -1 0 841)" d="M536.94 621.063L551.221 621.063L551.221 636.86L536.94 636.86z" stroke="none" fill="#FFFFFF" fill-rule="nonzero" /><path id="156" transform="matrix(1 0 0 -1 0 841)" d="M338.987 621.063L353.268 621.063L353.268 636.86L338.987 636.86z" stroke="none" fill="#FFFFFF" fill-rule="nonzero" /><g clip-path="url(#17)"><g transform="matrix(0.5150403 0 0 0.5149534 5.854036 19.35266)"><g transform="matrix(1 0 0 1 0 0)"><image x="0" y="0" xlink:href="img_39.png" width="696" height="427" /></g></g></g><g clip-path="url(#18)"><path id="159" transform="matrix(1 0 0 -1 0 841)" d="M-558.4252 34.7906L-0.0001831055 34.7906" stroke="#000000" stroke-width="0.5" fill="none" /><path id="161" transform="matrix(1 0 0 -1 0 841)" d="M0 34.7906L558.425 34.7906" stroke="#000000" stroke-width="0.5" fill="none" /></g><g clip-path="url(#19)"><g transform="matrix(-0.4750077 -0.04992532 -0.04990178 0.4747837 622.9024 356.6219)"><g transform="matrix(1 0 0 1 0 0)"><image x="0" y="0" xlink:href="img_40.png" width="483" height="574" /></g></g></g><path id="164" transform="matrix(1 0 0 -1 0 841)" d="M536.94 464.424L551.221 464.424L551.221 480.221L536.94 480.221z" stroke="none" fill="#FFFFFF" fill-rule="nonzero" /><path id="166" transform="matrix(1 0 0 -1 0 841)" d="M236.306 240.126L250.587 240.126L250.587 255.923L236.306 255.923z" stroke="none" fill="#FFFFFF" fill-rule="nonzero" /></g></g></svg>