<svg xmlns="http://www.w3.org/2000/svg" xmlns:xlink="http://www.w3.org/1999/xlink" id="body_1" preserveAspectRatio="xMinYMin meet" viewBox="0 0 793 1121"><defs><clipPath id="1"><path id="" clip-rule="evenodd" transform="matrix(1 0 0 1 0 0)" d="M0 841L0 -0.8900146L0 -0.8900146L595.276 -0.8900146L595.276 -0.8900146L595.276 841L595.276 841L0 841z" /></clipPath><clipPath id="2"><path id="" clip-rule="evenodd" transform="matrix(1 0 0 1 0 0)" d="M31.459 502.068L464.025 502.068L464.025 502.068L464.025 228.46L464.025 228.46L31.459 228.46z" /></clipPath></defs><g transform="matrix(1.333333 0 0 1.333333 0 0)"><g clip-path="url(#1)"><path id="1" transform="matrix(1 0 0 -1 0 841)" d="M0 0L595.275 0L595.275 841.89L0 841.89z" stroke="none" fill="#000000" fill-rule="nonzero" /><path id="108" transform="matrix(1 0 0 -1 0 841)" d="M36.8 783.039L538.582 783.039L538.582 805.039L36.8 805.039z" stroke="none" fill="#FFFFFF" fill-rule="nonzero" /><path id="721" transform="matrix(1 0 0 -1 0 841)" d="M36.8003 333.2201L538.4983 333.2201" stroke="#FFFFFF" stroke-width="2.364" fill="none" /><g clip-path="url(#2)"><g transform="matrix(0.5966436 0 0 0.5960955 31.45844 228.4602)"><g transform="matrix(1 0 0 1 0 0)"><image x="0" y="0" xlink:href="img_01.png" width="725" height="459" /></g></g></g></g></g></svg>