<svg xmlns="http://www.w3.org/2000/svg" xmlns:xlink="http://www.w3.org/1999/xlink" id="body_9" preserveAspectRatio="xMinYMin meet" viewBox="0 0 793 1121"><defs><clipPath id="1"><path id="" clip-rule="evenodd" transform="matrix(1 0 0 1 0 0)" d="M0 841L0 -0.8900146L0 -0.8900146L595.276 -0.8900146L595.276 -0.8900146L595.276 841L595.276 841L0 841z" /></clipPath><clipPath id="2"><path id="" clip-rule="evenodd" transform="matrix(1 0 0 1 0 0)" d="M265.694 811.283L537.111 811.283L537.111 811.283L537.111 673.756L537.111 673.756L265.694 673.756z" /></clipPath><clipPath id="3"><path id="" clip-rule="evenodd" transform="matrix(1 0 0 1 0 0)" d="M0 841L595.276 841L595.276 841L595.276 -0.8900146L595.276 -0.8900146L0 -0.8900146z" /></clipPath><clipPath id="4"><path id="" clip-rule="evenodd" transform="matrix(1 0 0 1 0 0)" d="M0 841L595.276 841L595.276 841L595.276 -0.8900146L595.276 -0.8900146L0 -0.8900146z" /></clipPath></defs><g transform="matrix(1.333333 0 0 1.333333 0 0)"><g clip-path="url(#1)"><g clip-path="url(#2)"><g transform="matrix(0.5952134 0 0 0.5951047 265.6943 672.4899)"><g transform="matrix(1 0 0 1 0 0)"><image x="0" y="0" xlink:href="img_54.png" width="456" height="235" /></g></g></g><path id="2" transform="matrix(1 0 0 -1 0 841)" d="M36.8503 751.22L538.5823 751.22" stroke="#597642" stroke-width="2.364" fill="none" /><path id="19" transform="matrix(1 0 0 -1 0 841)" d="M474.985 743.839L538.583 743.839L538.583 761.039L474.985 761.039z" stroke="none" fill="#FFFFFF" fill-rule="nonzero" /><g clip-path="url(#3)"><path id="60" transform="matrix(1 0 0 -1 0 841)" d="M538.2872 170.0256L538.2872 217.7776" stroke="#939598" stroke-width="0.591" stroke-dasharray="3.05753,2.057529" fill="none" /><path id="61" transform="matrix(1 0 0 -1 0 841)" d="M536.2102 219.2889L382.5662 219.2889" stroke="#939598" stroke-width="0.591" stroke-dasharray="3.010152,2.010152" fill="none" /><path id="62" transform="matrix(1 0 0 -1 0 841)" d="M381.083 217.1698L381.083 169.4178" stroke="#939598" stroke-width="0.591" stroke-dasharray="3.05753,2.057529" fill="none" /><path id="63" transform="matrix(1 0 0 -1 0 841)" d="M383.1749 167.9065L516.9549 167.9065" stroke="#939598" stroke-width="0.591" stroke-dasharray="3.027073,2.027073" fill="none" /><path id="64" transform="matrix(1 0 0 -1 0 841)" d="M520.2186 166.4021C 522.3106 164.5031 524.4016 162.6031 526.4937 160.7041" stroke="#939598" stroke-width="0.591" stroke-dasharray="3.062606,2.062606" fill="none" /><path id="65" transform="matrix(1 0 0 -1 0 841)" d="M527.6146 161.5192L527.6146 166.2902" stroke="#939598" stroke-width="0.591" stroke-dasharray="2.734349,1.734348" fill="none" /><path id="66" transform="matrix(1 0 0 -1 0 841)" d="M529.7081 167.9065L536.9901 167.9065" stroke="#939598" stroke-width="0.591" stroke-dasharray="2.695431,1.695431" fill="none" /><path id="67" transform="matrix(1 0 0 -1 0 841)" d="M537.4911 167.9065L538.2872 167.9065L538.2872 167.9065L538.2872 168.8095M527.6142 166.8025L527.6142 167.6115L527.6142 167.6115L527.6142 167.9065L527.6142 167.9065L527.9102 167.9065L527.9102 167.9065L528.7062 167.9065M526.9452 160.2945C 527.1682 160.0915 527.3912 159.8885 527.6142 159.6855L527.6142 159.6855L527.6142 160.4945M517.5532 167.9065L518.4482 167.9065L518.4482 167.9065L518.5622 167.9065L518.5622 167.9065L518.6462 167.8295C 518.8702 167.6275 519.0931 167.4245 519.3162 167.2215M381.0832 168.8095L381.0832 167.9065L381.0832 167.9065L381.9772 167.9065M381.9722 219.2885L381.0832 219.2885L381.0832 219.2885L381.0832 218.3855M538.2872 218.3855L538.2872 219.2885L538.2872 219.2885L537.3982 219.2885" stroke="#939598" stroke-width="0.591" fill="none" /><path id="68" transform="matrix(1 0 0 -1 0 841)" d="M376.535 212.208L441.679 212.208L441.679 225.543L376.535 225.543z" stroke="none" fill="#FFFFFF" fill-rule="nonzero" /></g><path id="182" transform="matrix(1 0 0 -1 0 841)" d="M452.253 700.539L524.568 700.539L524.568 665.67L452.253 665.67zM379.938 700.539L452.253 700.539L452.253 665.67L379.938 665.67zM307.623 700.539L379.938 700.539L379.938 665.67L307.623 665.67zM235.307 700.539L307.622 700.539L307.622 665.67L235.307 665.67zM162.992 700.539L235.307 700.539L235.307 665.67L162.992 665.67zM81.58 700.539L162.992 700.539L162.992 665.67L81.58 665.67zM51.607 700.539L81.57899 700.539L81.57899 665.67L51.607 665.67z" stroke="none" fill="#FFE581" fill-rule="nonzero" /><path id="183" transform="matrix(1 0 0 -1 0 841)" d="M452.253 514.481L524.568 514.481L524.568 500.937L452.253 500.937zM379.938 514.481L452.253 514.481L452.253 500.937L379.938 500.937zM307.623 514.481L379.938 514.481L379.938 500.937L307.623 500.937zM235.307 514.481L307.622 514.481L307.622 500.937L235.307 500.937zM162.992 514.481L235.307 514.481L235.307 500.937L162.992 500.937zM81.58 514.481L162.992 514.481L162.992 500.937L81.58 500.937zM452.253 528.026L524.568 528.026L524.568 514.482L452.253 514.482zM379.938 528.026L452.253 528.026L452.253 514.482L379.938 514.482zM307.623 528.026L379.938 528.026L379.938 514.482L307.623 514.482zM235.307 528.026L307.622 528.026L307.622 514.482L235.307 514.482zM162.992 528.026L235.307 528.026L235.307 514.482L162.992 514.482zM81.58 528.026L162.992 528.026L162.992 514.482L81.58 514.482zM452.253 541.57L524.568 541.57L524.568 528.026L452.253 528.026zM379.938 541.57L452.253 541.57L452.253 528.026L379.938 528.026zM307.623 541.57L379.938 541.57L379.938 528.026L307.623 528.026zM235.307 541.57L307.622 541.57L307.622 528.026L235.307 528.026zM162.992 541.57L235.307 541.57L235.307 528.026L162.992 528.026zM81.58 541.57L162.992 541.57L162.992 528.026L81.58 528.026zM452.253 557.316L524.568 557.316L524.568 541.57L452.253 541.57zM379.938 557.316L452.253 557.316L452.253 541.57L379.938 541.57zM307.623 557.316L379.938 557.316L379.938 541.57L307.623 541.57zM235.307 557.316L307.622 557.316L307.622 541.57L235.307 541.57zM162.992 557.316L235.307 557.316L235.307 541.57L162.992 541.57zM81.58 557.316L162.992 557.316L162.992 541.57L81.58 541.57zM51.607 557.316L81.57899 557.316L81.57899 500.937L51.607 500.937zM452.253 570.86L524.568 570.86L524.568 557.316L452.253 557.316zM379.938 570.86L452.253 570.86L452.253 557.316L379.938 557.316zM307.623 570.86L379.938 570.86L379.938 557.316L307.623 557.316zM235.307 570.86L307.622 570.86L307.622 557.316L235.307 557.316zM162.992 570.86L235.307 570.86L235.307 557.316L162.992 557.316zM81.58 570.86L162.992 570.86L162.992 557.316L81.58 557.316zM452.253 584.404L524.568 584.404L524.568 570.86L452.253 570.86zM379.938 584.404L452.253 584.404L452.253 570.86L379.938 570.86zM307.623 584.404L379.938 584.404L379.938 570.86L307.623 570.86zM235.307 584.404L307.622 584.404L307.622 570.86L235.307 570.86zM162.992 584.404L235.307 584.404L235.307 570.86L162.992 570.86zM81.58 584.404L162.992 584.404L162.992 570.86L81.58 570.86zM452.253 597.948L524.568 597.948L524.568 584.404L452.253 584.404zM379.938 597.948L452.253 597.948L452.253 584.404L379.938 584.404zM307.623 597.948L379.938 597.948L379.938 584.404L307.623 584.404zM235.307 597.948L307.622 597.948L307.622 584.404L235.307 584.404zM162.992 597.948L235.307 597.948L235.307 584.404L162.992 584.404zM81.58 597.948L162.992 597.948L162.992 584.404L81.58 584.404zM452.253 611.493L524.568 611.493L524.568 597.949L452.253 597.949zM379.938 611.493L452.253 611.493L452.253 597.949L379.938 597.949zM307.623 611.493L379.938 611.493L379.938 597.949L307.623 597.949zM235.307 611.493L307.622 611.493L307.622 597.949L235.307 597.949zM162.992 611.493L235.307 611.493L235.307 597.949L162.992 597.949zM81.58 611.493L162.992 611.493L162.992 597.949L81.58 597.949zM51.607 611.493L81.57899 611.493L81.57899 557.316L51.607 557.316zM452.253 625.037L524.568 625.037L524.568 611.493L452.253 611.493zM379.938 625.037L452.253 625.037L452.253 611.493L379.938 611.493zM307.623 625.037L379.938 625.037L379.938 611.493L307.623 611.493zM235.307 625.037L307.622 625.037L307.622 611.493L235.307 611.493zM162.992 625.037L235.307 625.037L235.307 611.493L162.992 611.493zM81.58 625.037L162.992 625.037L162.992 611.493L81.58 611.493zM452.253 638.581L524.568 638.581L524.568 625.037L452.253 625.037zM379.938 638.581L452.253 638.581L452.253 625.037L379.938 625.037zM307.623 638.581L379.938 638.581L379.938 625.037L307.623 625.037zM235.307 638.581L307.622 638.581L307.622 625.037L235.307 625.037zM162.992 638.581L235.307 638.581L235.307 625.037L162.992 625.037zM81.58 638.581L162.992 638.581L162.992 625.037L81.58 625.037zM379.938 652.126L452.253 652.126L452.253 638.582L379.938 638.582zM307.623 652.126L379.938 652.126L379.938 638.582L307.623 638.582zM235.307 652.126L307.622 652.126L307.622 638.582L235.307 638.582zM162.992 652.126L235.307 652.126L235.307 638.582L162.992 638.582zM81.58 652.126L162.992 652.126L162.992 638.582L81.58 638.582zM452.253 665.67L524.568 665.67L524.568 652.126L452.253 652.126zM379.938 665.67L452.253 665.67L452.253 652.126L379.938 652.126zM307.623 665.67L379.938 665.67L379.938 652.126L307.623 652.126zM235.307 665.67L307.622 665.67L307.622 652.126L235.307 652.126zM162.992 665.67L235.307 665.67L235.307 652.126L162.992 652.126zM81.58 665.67L162.992 665.67L162.992 652.126L81.58 652.126zM51.607 665.67L81.57899 665.67L81.57899 611.493L51.607 611.493z" stroke="none" fill="#FFF0BD" fill-rule="nonzero" /><path id="184" transform="matrix(1 0 0 -1 0 841)" d="M452.253 652.126L524.568 652.126L524.568 638.582L452.253 638.582z" stroke="none" fill="#FFF0BD" fill-rule="nonzero" /><path id="185" transform="matrix(1 0 0 -1 0 841)" d="M81.5797 666.1699L81.5797 700.5389" stroke="#FFFFFF" stroke-width="1" fill="none" /><path id="186" transform="matrix(1 0 0 -1 0 841)" d="M162.9921 666.1699L162.9921 700.5389" stroke="#FFFFFF" stroke-width="1" fill="none" /><path id="187" transform="matrix(1 0 0 -1 0 841)" d="M235.3074 666.1699L235.3074 700.5389" stroke="#FFFFFF" stroke-width="1" fill="none" /><path id="188" transform="matrix(1 0 0 -1 0 841)" d="M307.6227 666.1699L307.6227 700.5389" stroke="#FFFFFF" stroke-width="1" fill="none" /><path id="189" transform="matrix(1 0 0 -1 0 841)" d="M379.9379 666.1699L379.9379 700.5389" stroke="#FFFFFF" stroke-width="1" fill="none" /><path id="190" transform="matrix(1 0 0 -1 0 841)" d="M452.2532 666.1699L452.2532 700.5389" stroke="#FFFFFF" stroke-width="1" fill="none" /><path id="191" transform="matrix(1 0 0 -1 0 841)" d="M51.6072 665.6699L81.5792 665.6699" stroke="#FFFFFF" stroke-width="1" fill="none" /><path id="192" transform="matrix(1 0 0 -1 0 841)" d="M81.5797 665.6699L162.9917 665.6699" stroke="#FFFFFF" stroke-width="1" fill="none" /><path id="193" transform="matrix(1 0 0 -1 0 841)" d="M162.9921 665.6699L235.3071 665.6699" stroke="#FFFFFF" stroke-width="1" fill="none" /><path id="194" transform="matrix(1 0 0 -1 0 841)" d="M162.9921 652.6257L162.9921 665.1697" stroke="#FFFFFF" stroke-width="1" fill="none" /><path id="195" transform="matrix(1 0 0 -1 0 841)" d="M235.3074 665.6699L307.6224 665.6699" stroke="#FFFFFF" stroke-width="1" fill="none" /><path id="196" transform="matrix(1 0 0 -1 0 841)" d="M235.3074 652.6257L235.3074 665.1697" stroke="#FFFFFF" stroke-width="1" fill="none" /><path id="197" transform="matrix(1 0 0 -1 0 841)" d="M307.6227 665.6699L379.9377 665.6699" stroke="#FFFFFF" stroke-width="1" fill="none" /><path id="198" transform="matrix(1 0 0 -1 0 841)" d="M307.6227 652.6257L307.6227 665.1697" stroke="#FFFFFF" stroke-width="1" fill="none" /><path id="199" transform="matrix(1 0 0 -1 0 841)" d="M379.9379 665.6699L452.2529 665.6699" stroke="#FFFFFF" stroke-width="1" fill="none" /><path id="200" transform="matrix(1 0 0 -1 0 841)" d="M379.9379 652.6257L379.9379 665.1697" stroke="#FFFFFF" stroke-width="1" fill="none" /><path id="201" transform="matrix(1 0 0 -1 0 841)" d="M452.2532 665.6699L525.0682 665.6699" stroke="#FFFFFF" stroke-width="1" fill="none" /><path id="202" transform="matrix(1 0 0 -1 0 841)" d="M452.2532 652.6257L452.2532 665.1697" stroke="#FFFFFF" stroke-width="1" fill="none" /><path id="203" transform="matrix(1 0 0 -1 0 841)" d="M524.5685 652.6257L524.5685 665.1697" stroke="#FFFFFF" stroke-width="1" fill="none" /><path id="204" transform="matrix(1 0 0 -1 0 841)" d="M82.0797 652.1257L162.9917 652.1257" stroke="#FFFFFF" stroke-width="1" fill="none" /><path id="205" transform="matrix(1 0 0 -1 0 841)" d="M162.9921 652.1257L235.3071 652.1257" stroke="#FFFFFF" stroke-width="1" fill="none" /><path id="206" transform="matrix(1 0 0 -1 0 841)" d="M162.9921 639.0814L162.9921 651.6254" stroke="#FFFFFF" stroke-width="1" fill="none" /><path id="207" transform="matrix(1 0 0 -1 0 841)" d="M235.3074 652.1257L307.6224 652.1257" stroke="#FFFFFF" stroke-width="1" fill="none" /><path id="208" transform="matrix(1 0 0 -1 0 841)" d="M235.3074 639.0814L235.3074 651.6254" stroke="#FFFFFF" stroke-width="1" fill="none" /><path id="209" transform="matrix(1 0 0 -1 0 841)" d="M307.6227 652.1257L379.9377 652.1257" stroke="#FFFFFF" stroke-width="1" fill="none" /><path id="210" transform="matrix(1 0 0 -1 0 841)" d="M307.6227 639.0814L307.6227 651.6254" stroke="#FFFFFF" stroke-width="1" fill="none" /><path id="211" transform="matrix(1 0 0 -1 0 841)" d="M379.9379 652.1257L452.2529 652.1257" stroke="#FFFFFF" stroke-width="1" fill="none" /><path id="212" transform="matrix(1 0 0 -1 0 841)" d="M379.9379 639.0814L379.9379 651.6254" stroke="#FFFFFF" stroke-width="1" fill="none" /><path id="213" transform="matrix(1 0 0 -1 0 841)" d="M452.2532 652.1257L525.0682 652.1257" stroke="#FFFFFF" stroke-width="1" fill="none" /><path id="214" transform="matrix(1 0 0 -1 0 841)" d="M452.2532 639.0814L452.2532 651.6254" stroke="#FFFFFF" stroke-width="1" fill="none" /><path id="215" transform="matrix(1 0 0 -1 0 841)" d="M524.5685 639.0814L524.5685 651.6254" stroke="#FFFFFF" stroke-width="1" fill="none" /><path id="216" transform="matrix(1 0 0 -1 0 841)" d="M82.0797 638.5814L162.9917 638.5814" stroke="#FFFFFF" stroke-width="1" fill="none" /><path id="217" transform="matrix(1 0 0 -1 0 841)" d="M162.9921 638.5814L235.3071 638.5814" stroke="#FFFFFF" stroke-width="1" fill="none" /><path id="218" transform="matrix(1 0 0 -1 0 841)" d="M162.9921 625.537L162.9921 638.081" stroke="#FFFFFF" stroke-width="1" fill="none" /><path id="219" transform="matrix(1 0 0 -1 0 841)" d="M235.3074 638.5814L307.6224 638.5814" stroke="#FFFFFF" stroke-width="1" fill="none" /><path id="220" transform="matrix(1 0 0 -1 0 841)" d="M235.3074 625.537L235.3074 638.081" stroke="#FFFFFF" stroke-width="1" fill="none" /><path id="221" transform="matrix(1 0 0 -1 0 841)" d="M307.6227 638.5814L379.9377 638.5814" stroke="#FFFFFF" stroke-width="1" fill="none" /><path id="222" transform="matrix(1 0 0 -1 0 841)" d="M307.6227 625.537L307.6227 638.081" stroke="#FFFFFF" stroke-width="1" fill="none" /><path id="223" transform="matrix(1 0 0 -1 0 841)" d="M379.9379 638.5814L452.2529 638.5814" stroke="#FFFFFF" stroke-width="1" fill="none" /><path id="224" transform="matrix(1 0 0 -1 0 841)" d="M379.9379 625.537L379.9379 638.081" stroke="#FFFFFF" stroke-width="1" fill="none" /><path id="225" transform="matrix(1 0 0 -1 0 841)" d="M452.2532 638.5814L525.0682 638.5814" stroke="#FFFFFF" stroke-width="1" fill="none" /><path id="226" transform="matrix(1 0 0 -1 0 841)" d="M452.2532 625.537L452.2532 638.081" stroke="#FFFFFF" stroke-width="1" fill="none" /><path id="227" transform="matrix(1 0 0 -1 0 841)" d="M524.5685 625.537L524.5685 638.081" stroke="#FFFFFF" stroke-width="1" fill="none" /><path id="228" transform="matrix(1 0 0 -1 0 841)" d="M162.9921 625.037L235.3071 625.037" stroke="#FFFFFF" stroke-width="1" fill="none" /><path id="229" transform="matrix(1 0 0 -1 0 841)" d="M162.9921 611.9928L162.9921 624.5368" stroke="#FFFFFF" stroke-width="1" fill="none" /><path id="230" transform="matrix(1 0 0 -1 0 841)" d="M235.3074 625.037L307.6224 625.037" stroke="#FFFFFF" stroke-width="1" fill="none" /><path id="231" transform="matrix(1 0 0 -1 0 841)" d="M235.3074 611.9928L235.3074 624.5368" stroke="#FFFFFF" stroke-width="1" fill="none" /><path id="232" transform="matrix(1 0 0 -1 0 841)" d="M307.6227 625.037L379.9377 625.037" stroke="#FFFFFF" stroke-width="1" fill="none" /><path id="233" transform="matrix(1 0 0 -1 0 841)" d="M307.6227 611.9928L307.6227 624.5368" stroke="#FFFFFF" stroke-width="1" fill="none" /><path id="234" transform="matrix(1 0 0 -1 0 841)" d="M379.9379 625.037L452.2529 625.037" stroke="#FFFFFF" stroke-width="1" fill="none" /><path id="235" transform="matrix(1 0 0 -1 0 841)" d="M379.9379 611.9928L379.9379 624.5368" stroke="#FFFFFF" stroke-width="1" fill="none" /><path id="236" transform="matrix(1 0 0 -1 0 841)" d="M452.2532 625.037L525.0682 625.037" stroke="#FFFFFF" stroke-width="1" fill="none" /><path id="237" transform="matrix(1 0 0 -1 0 841)" d="M452.2532 611.9928L452.2532 624.5368" stroke="#FFFFFF" stroke-width="1" fill="none" /><path id="238" transform="matrix(1 0 0 -1 0 841)" d="M524.5685 611.9928L524.5685 624.5368" stroke="#FFFFFF" stroke-width="1" fill="none" /><path id="239" transform="matrix(1 0 0 -1 0 841)" d="M162.9921 611.4928L235.3071 611.4928" stroke="#FFFFFF" stroke-width="1" fill="none" /><path id="240" transform="matrix(1 0 0 -1 0 841)" d="M162.9921 598.4485L162.9921 610.9925" stroke="#FFFFFF" stroke-width="1" fill="none" /><path id="241" transform="matrix(1 0 0 -1 0 841)" d="M235.3074 611.4928L307.6224 611.4928" stroke="#FFFFFF" stroke-width="1" fill="none" /><path id="242" transform="matrix(1 0 0 -1 0 841)" d="M235.3074 598.4485L235.3074 610.9925" stroke="#FFFFFF" stroke-width="1" fill="none" /><path id="243" transform="matrix(1 0 0 -1 0 841)" d="M307.6227 611.4928L379.9377 611.4928" stroke="#FFFFFF" stroke-width="1" fill="none" /><path id="244" transform="matrix(1 0 0 -1 0 841)" d="M307.6227 598.4485L307.6227 610.9925" stroke="#FFFFFF" stroke-width="1" fill="none" /><path id="245" transform="matrix(1 0 0 -1 0 841)" d="M379.9379 611.4928L452.2529 611.4928" stroke="#FFFFFF" stroke-width="1" fill="none" /><path id="246" transform="matrix(1 0 0 -1 0 841)" d="M379.9379 598.4485L379.9379 610.9925" stroke="#FFFFFF" stroke-width="1" fill="none" /><path id="247" transform="matrix(1 0 0 -1 0 841)" d="M452.2532 611.4928L525.0682 611.4928" stroke="#FFFFFF" stroke-width="1" fill="none" /><path id="248" transform="matrix(1 0 0 -1 0 841)" d="M452.2532 598.4485L452.2532 610.9925" stroke="#FFFFFF" stroke-width="1" fill="none" /><path id="249" transform="matrix(1 0 0 -1 0 841)" d="M524.5685 598.4485L524.5685 610.9925" stroke="#FFFFFF" stroke-width="1" fill="none" /><path id="250" transform="matrix(1 0 0 -1 0 841)" d="M162.9921 597.9485L235.3071 597.9485" stroke="#FFFFFF" stroke-width="1" fill="none" /><path id="251" transform="matrix(1 0 0 -1 0 841)" d="M162.9921 584.9042L162.9921 597.4482" stroke="#FFFFFF" stroke-width="1" fill="none" /><path id="252" transform="matrix(1 0 0 -1 0 841)" d="M235.3074 597.9485L307.6224 597.9485" stroke="#FFFFFF" stroke-width="1" fill="none" /><path id="253" transform="matrix(1 0 0 -1 0 841)" d="M235.3074 584.9042L235.3074 597.4482" stroke="#FFFFFF" stroke-width="1" fill="none" /><path id="254" transform="matrix(1 0 0 -1 0 841)" d="M307.6227 597.9485L379.9377 597.9485" stroke="#FFFFFF" stroke-width="1" fill="none" /><path id="255" transform="matrix(1 0 0 -1 0 841)" d="M307.6227 584.9042L307.6227 597.4482" stroke="#FFFFFF" stroke-width="1" fill="none" /><path id="256" transform="matrix(1 0 0 -1 0 841)" d="M379.9379 597.9485L452.2529 597.9485" stroke="#FFFFFF" stroke-width="1" fill="none" /><path id="257" transform="matrix(1 0 0 -1 0 841)" d="M379.9379 584.9042L379.9379 597.4482" stroke="#FFFFFF" stroke-width="1" fill="none" /><path id="258" transform="matrix(1 0 0 -1 0 841)" d="M452.2532 597.9485L525.0682 597.9485" stroke="#FFFFFF" stroke-width="1" fill="none" /><path id="259" transform="matrix(1 0 0 -1 0 841)" d="M452.2532 584.9042L452.2532 597.4482" stroke="#FFFFFF" stroke-width="1" fill="none" /><path id="260" transform="matrix(1 0 0 -1 0 841)" d="M524.5685 584.9042L524.5685 597.4482" stroke="#FFFFFF" stroke-width="1" fill="none" /><path id="261" transform="matrix(1 0 0 -1 0 841)" d="M162.9921 584.4042L235.3071 584.4042" stroke="#FFFFFF" stroke-width="1" fill="none" /><path id="262" transform="matrix(1 0 0 -1 0 841)" d="M162.9921 571.3599L162.9921 583.9039" stroke="#FFFFFF" stroke-width="1" fill="none" /><path id="263" transform="matrix(1 0 0 -1 0 841)" d="M235.3074 584.4042L307.6224 584.4042" stroke="#FFFFFF" stroke-width="1" fill="none" /><path id="264" transform="matrix(1 0 0 -1 0 841)" d="M235.3074 571.3599L235.3074 583.9039" stroke="#FFFFFF" stroke-width="1" fill="none" /><path id="265" transform="matrix(1 0 0 -1 0 841)" d="M307.6227 584.4042L379.9377 584.4042" stroke="#FFFFFF" stroke-width="1" fill="none" /><path id="266" transform="matrix(1 0 0 -1 0 841)" d="M307.6227 571.3599L307.6227 583.9039" stroke="#FFFFFF" stroke-width="1" fill="none" /><path id="267" transform="matrix(1 0 0 -1 0 841)" d="M379.9379 584.4042L452.2529 584.4042" stroke="#FFFFFF" stroke-width="1" fill="none" /><path id="268" transform="matrix(1 0 0 -1 0 841)" d="M379.9379 571.3599L379.9379 583.9039" stroke="#FFFFFF" stroke-width="1" fill="none" /><path id="269" transform="matrix(1 0 0 -1 0 841)" d="M452.2532 584.4042L525.0682 584.4042" stroke="#FFFFFF" stroke-width="1" fill="none" /><path id="270" transform="matrix(1 0 0 -1 0 841)" d="M452.2532 571.3599L452.2532 583.9039" stroke="#FFFFFF" stroke-width="1" fill="none" /><path id="271" transform="matrix(1 0 0 -1 0 841)" d="M524.5685 571.3599L524.5685 583.9039" stroke="#FFFFFF" stroke-width="1" fill="none" /><path id="272" transform="matrix(1 0 0 -1 0 841)" d="M162.9921 570.8599L235.3071 570.8599" stroke="#FFFFFF" stroke-width="1" fill="none" /><path id="273" transform="matrix(1 0 0 -1 0 841)" d="M162.9921 557.8156L162.9921 570.3596" stroke="#FFFFFF" stroke-width="1" fill="none" /><path id="274" transform="matrix(1 0 0 -1 0 841)" d="M235.3074 570.8599L307.6224 570.8599" stroke="#FFFFFF" stroke-width="1" fill="none" /><path id="275" transform="matrix(1 0 0 -1 0 841)" d="M235.3074 557.8156L235.3074 570.3596" stroke="#FFFFFF" stroke-width="1" fill="none" /><path id="276" transform="matrix(1 0 0 -1 0 841)" d="M307.6227 570.8599L379.9377 570.8599" stroke="#FFFFFF" stroke-width="1" fill="none" /><path id="277" transform="matrix(1 0 0 -1 0 841)" d="M307.6227 557.8156L307.6227 570.3596" stroke="#FFFFFF" stroke-width="1" fill="none" /><path id="278" transform="matrix(1 0 0 -1 0 841)" d="M379.9379 570.8599L452.2529 570.8599" stroke="#FFFFFF" stroke-width="1" fill="none" /><path id="279" transform="matrix(1 0 0 -1 0 841)" d="M379.9379 557.8156L379.9379 570.3596" stroke="#FFFFFF" stroke-width="1" fill="none" /><path id="280" transform="matrix(1 0 0 -1 0 841)" d="M452.2532 570.8599L525.0682 570.8599" stroke="#FFFFFF" stroke-width="1" fill="none" /><path id="281" transform="matrix(1 0 0 -1 0 841)" d="M452.2532 557.8156L452.2532 570.3596" stroke="#FFFFFF" stroke-width="1" fill="none" /><path id="282" transform="matrix(1 0 0 -1 0 841)" d="M524.5685 557.8156L524.5685 570.3596" stroke="#FFFFFF" stroke-width="1" fill="none" /><path id="283" transform="matrix(1 0 0 -1 0 841)" d="M162.9921 557.3156L235.3071 557.3156" stroke="#FFFFFF" stroke-width="1" fill="none" /><path id="284" transform="matrix(1 0 0 -1 0 841)" d="M162.9921 542.0699L162.9921 556.8159" stroke="#FFFFFF" stroke-width="1" fill="none" /><path id="285" transform="matrix(1 0 0 -1 0 841)" d="M235.3074 557.3156L307.6224 557.3156" stroke="#FFFFFF" stroke-width="1" fill="none" /><path id="286" transform="matrix(1 0 0 -1 0 841)" d="M235.3074 542.0699L235.3074 556.8159" stroke="#FFFFFF" stroke-width="1" fill="none" /><path id="287" transform="matrix(1 0 0 -1 0 841)" d="M307.6227 557.3156L379.9377 557.3156" stroke="#FFFFFF" stroke-width="1" fill="none" /><path id="288" transform="matrix(1 0 0 -1 0 841)" d="M307.6227 542.0699L307.6227 556.8159" stroke="#FFFFFF" stroke-width="1" fill="none" /><path id="289" transform="matrix(1 0 0 -1 0 841)" d="M379.9379 557.3156L452.2529 557.3156" stroke="#FFFFFF" stroke-width="1" fill="none" /><path id="290" transform="matrix(1 0 0 -1 0 841)" d="M379.9379 542.0699L379.9379 556.8159" stroke="#FFFFFF" stroke-width="1" fill="none" /><path id="291" transform="matrix(1 0 0 -1 0 841)" d="M452.2532 557.3156L525.0682 557.3156" stroke="#FFFFFF" stroke-width="1" fill="none" /><path id="292" transform="matrix(1 0 0 -1 0 841)" d="M452.2532 542.0699L452.2532 556.8159" stroke="#FFFFFF" stroke-width="1" fill="none" /><path id="293" transform="matrix(1 0 0 -1 0 841)" d="M524.5685 542.0699L524.5685 556.8159" stroke="#FFFFFF" stroke-width="1" fill="none" /><path id="294" transform="matrix(1 0 0 -1 0 841)" d="M162.9921 541.5699L235.3071 541.5699" stroke="#FFFFFF" stroke-width="1" fill="none" /><path id="295" transform="matrix(1 0 0 -1 0 841)" d="M162.9921 528.5256L162.9921 541.0696" stroke="#FFFFFF" stroke-width="1" fill="none" /><path id="296" transform="matrix(1 0 0 -1 0 841)" d="M235.3074 541.5699L307.6224 541.5699" stroke="#FFFFFF" stroke-width="1" fill="none" /><path id="297" transform="matrix(1 0 0 -1 0 841)" d="M235.3074 528.5256L235.3074 541.0696" stroke="#FFFFFF" stroke-width="1" fill="none" /><path id="298" transform="matrix(1 0 0 -1 0 841)" d="M307.6227 541.5699L379.9377 541.5699" stroke="#FFFFFF" stroke-width="1" fill="none" /><path id="299" transform="matrix(1 0 0 -1 0 841)" d="M307.6227 528.5256L307.6227 541.0696" stroke="#FFFFFF" stroke-width="1" fill="none" /><path id="300" transform="matrix(1 0 0 -1 0 841)" d="M379.9379 541.5699L452.2529 541.5699" stroke="#FFFFFF" stroke-width="1" fill="none" /><path id="301" transform="matrix(1 0 0 -1 0 841)" d="M379.9379 528.5256L379.9379 541.0696" stroke="#FFFFFF" stroke-width="1" fill="none" /><path id="302" transform="matrix(1 0 0 -1 0 841)" d="M452.2532 541.5699L525.0682 541.5699" stroke="#FFFFFF" stroke-width="1" fill="none" /><path id="303" transform="matrix(1 0 0 -1 0 841)" d="M452.2532 528.5256L452.2532 541.0696" stroke="#FFFFFF" stroke-width="1" fill="none" /><path id="304" transform="matrix(1 0 0 -1 0 841)" d="M524.5685 528.5256L524.5685 541.0696" stroke="#FFFFFF" stroke-width="1" fill="none" /><path id="305" transform="matrix(1 0 0 -1 0 841)" d="M162.9921 528.0256L235.3071 528.0256" stroke="#FFFFFF" stroke-width="1" fill="none" /><path id="306" transform="matrix(1 0 0 -1 0 841)" d="M162.9921 514.9813L162.9921 527.5253" stroke="#FFFFFF" stroke-width="1" fill="none" /><path id="307" transform="matrix(1 0 0 -1 0 841)" d="M235.3074 528.0256L307.6224 528.0256" stroke="#FFFFFF" stroke-width="1" fill="none" /><path id="308" transform="matrix(1 0 0 -1 0 841)" d="M235.3074 514.9813L235.3074 527.5253" stroke="#FFFFFF" stroke-width="1" fill="none" /><path id="309" transform="matrix(1 0 0 -1 0 841)" d="M307.6227 528.0256L379.9377 528.0256" stroke="#FFFFFF" stroke-width="1" fill="none" /><path id="310" transform="matrix(1 0 0 -1 0 841)" d="M307.6227 514.9813L307.6227 527.5253" stroke="#FFFFFF" stroke-width="1" fill="none" /><path id="311" transform="matrix(1 0 0 -1 0 841)" d="M379.9379 528.0256L452.2529 528.0256" stroke="#FFFFFF" stroke-width="1" fill="none" /><path id="312" transform="matrix(1 0 0 -1 0 841)" d="M379.9379 514.9813L379.9379 527.5253" stroke="#FFFFFF" stroke-width="1" fill="none" /><path id="313" transform="matrix(1 0 0 -1 0 841)" d="M452.2532 528.0256L525.0682 528.0256" stroke="#FFFFFF" stroke-width="1" fill="none" /><path id="314" transform="matrix(1 0 0 -1 0 841)" d="M452.2532 514.9813L452.2532 527.5253" stroke="#FFFFFF" stroke-width="1" fill="none" /><path id="315" transform="matrix(1 0 0 -1 0 841)" d="M524.5685 514.9813L524.5685 527.5253" stroke="#FFFFFF" stroke-width="1" fill="none" /><path id="316" transform="matrix(1 0 0 -1 0 841)" d="M162.9921 514.4813L235.3071 514.4813" stroke="#FFFFFF" stroke-width="1" fill="none" /><path id="317" transform="matrix(1 0 0 -1 0 841)" d="M162.9921 501.437L162.9921 513.981" stroke="#FFFFFF" stroke-width="1" fill="none" /><path id="318" transform="matrix(1 0 0 -1 0 841)" d="M235.3074 514.4813L307.6224 514.4813" stroke="#FFFFFF" stroke-width="1" fill="none" /><path id="319" transform="matrix(1 0 0 -1 0 841)" d="M235.3074 501.437L235.3074 513.981" stroke="#FFFFFF" stroke-width="1" fill="none" /><path id="320" transform="matrix(1 0 0 -1 0 841)" d="M307.6227 514.4813L379.9377 514.4813" stroke="#FFFFFF" stroke-width="1" fill="none" /><path id="321" transform="matrix(1 0 0 -1 0 841)" d="M307.6227 501.437L307.6227 513.981" stroke="#FFFFFF" stroke-width="1" fill="none" /><path id="322" transform="matrix(1 0 0 -1 0 841)" d="M379.9379 514.4813L452.2529 514.4813" stroke="#FFFFFF" stroke-width="1" fill="none" /><path id="323" transform="matrix(1 0 0 -1 0 841)" d="M379.9379 501.437L379.9379 513.981" stroke="#FFFFFF" stroke-width="1" fill="none" /><path id="324" transform="matrix(1 0 0 -1 0 841)" d="M452.2532 514.4813L525.0682 514.4813" stroke="#FFFFFF" stroke-width="1" fill="none" /><path id="325" transform="matrix(1 0 0 -1 0 841)" d="M452.2532 501.437L452.2532 513.981" stroke="#FFFFFF" stroke-width="1" fill="none" /><path id="326" transform="matrix(1 0 0 -1 0 841)" d="M524.5685 501.437L524.5685 513.981" stroke="#FFFFFF" stroke-width="1" fill="none" /><path id="327" transform="matrix(1 0 0 -1 0 841)" d="M162.4921 500.937L235.3071 500.937" stroke="#FFFFFF" stroke-width="1" fill="none" /><path id="328" transform="matrix(1 0 0 -1 0 841)" d="M235.3074 500.937L307.6224 500.937" stroke="#FFFFFF" stroke-width="1" fill="none" /><path id="329" transform="matrix(1 0 0 -1 0 841)" d="M307.6227 500.937L379.9377 500.937" stroke="#FFFFFF" stroke-width="1" fill="none" /><path id="330" transform="matrix(1 0 0 -1 0 841)" d="M379.9379 500.937L452.2529 500.937" stroke="#FFFFFF" stroke-width="1" fill="none" /><path id="331" transform="matrix(1 0 0 -1 0 841)" d="M452.2532 500.937L525.0682 500.937" stroke="#FFFFFF" stroke-width="1" fill="none" /><path id="332" transform="matrix(1 0 0 -1 0 841)" d="M81.5797 652.1257L81.5797 665.1697" stroke="#FFFFFF" stroke-width="1" fill="none" /><path id="333" transform="matrix(1 0 0 -1 0 841)" d="M81.5797 638.5814L81.5797 652.1254" stroke="#FFFFFF" stroke-width="1" fill="none" /><path id="334" transform="matrix(1 0 0 -1 0 841)" d="M81.5797 625.037L81.5797 638.581" stroke="#FFFFFF" stroke-width="1" fill="none" /><path id="335" transform="matrix(1 0 0 -1 0 841)" d="M82.0797 625.037L162.9917 625.037" stroke="#FFFFFF" stroke-width="1" fill="none" /><path id="336" transform="matrix(1 0 0 -1 0 841)" d="M81.5797 611.9928L81.5797 625.0368" stroke="#FFFFFF" stroke-width="1" fill="none" /><path id="337" transform="matrix(1 0 0 -1 0 841)" d="M51.6072 611.4928L81.5792 611.4928" stroke="#FFFFFF" stroke-width="1" fill="none" /><path id="338" transform="matrix(1 0 0 -1 0 841)" d="M81.5797 611.4928L162.9917 611.4928" stroke="#FFFFFF" stroke-width="1" fill="none" /><path id="339" transform="matrix(1 0 0 -1 0 841)" d="M82.0797 597.9485L162.9917 597.9485" stroke="#FFFFFF" stroke-width="1" fill="none" /><path id="340" transform="matrix(1 0 0 -1 0 841)" d="M82.0797 584.4042L162.9917 584.4042" stroke="#FFFFFF" stroke-width="1" fill="none" /><path id="341" transform="matrix(1 0 0 -1 0 841)" d="M81.5797 597.9485L81.5797 610.9925" stroke="#FFFFFF" stroke-width="1" fill="none" /><path id="342" transform="matrix(1 0 0 -1 0 841)" d="M81.5797 584.4042L81.5797 597.9482" stroke="#FFFFFF" stroke-width="1" fill="none" /><path id="343" transform="matrix(1 0 0 -1 0 841)" d="M81.5797 570.8599L81.5797 584.4039" stroke="#FFFFFF" stroke-width="1" fill="none" /><path id="344" transform="matrix(1 0 0 -1 0 841)" d="M82.0797 570.8599L162.9917 570.8599" stroke="#FFFFFF" stroke-width="1" fill="none" /><path id="345" transform="matrix(1 0 0 -1 0 841)" d="M81.5797 557.8156L81.5797 570.8596" stroke="#FFFFFF" stroke-width="1" fill="none" /><path id="346" transform="matrix(1 0 0 -1 0 841)" d="M51.6072 557.3156L81.5792 557.3156" stroke="#FFFFFF" stroke-width="1" fill="none" /><path id="347" transform="matrix(1 0 0 -1 0 841)" d="M81.5797 557.3156L162.9917 557.3156" stroke="#FFFFFF" stroke-width="1" fill="none" /><path id="348" transform="matrix(1 0 0 -1 0 841)" d="M82.0797 541.5699L162.9917 541.5699" stroke="#FFFFFF" stroke-width="1" fill="none" /><path id="349" transform="matrix(1 0 0 -1 0 841)" d="M82.0797 528.0256L162.9917 528.0256" stroke="#FFFFFF" stroke-width="1" fill="none" /><path id="350" transform="matrix(1 0 0 -1 0 841)" d="M82.0797 514.4813L162.9917 514.4813" stroke="#FFFFFF" stroke-width="1" fill="none" /><path id="351" transform="matrix(1 0 0 -1 0 841)" d="M81.5797 541.5699L81.5797 556.8159" stroke="#FFFFFF" stroke-width="1" fill="none" /><path id="352" transform="matrix(1 0 0 -1 0 841)" d="M81.5797 528.0256L81.5797 541.5696" stroke="#FFFFFF" stroke-width="1" fill="none" /><path id="353" transform="matrix(1 0 0 -1 0 841)" d="M81.5797 514.4813L81.5797 528.0253" stroke="#FFFFFF" stroke-width="1" fill="none" /><path id="354" transform="matrix(1 0 0 -1 0 841)" d="M81.5797 500.937L81.5797 514.481" stroke="#FFFFFF" stroke-width="1" fill="none" /><path id="764" transform="matrix(1 0 0 -1 0 841)" d="M425.37 469.539L523.825 469.539L523.825 445.67L425.37 445.67zM326.915 469.539L425.37 469.539L425.37 445.67L326.915 445.67zM228.46 469.539L326.915 469.539L326.915 445.67L228.46 445.67zM130.005 469.539L228.46 469.539L228.46 445.67L130.005 445.67zM51.607 469.539L130.005 469.539L130.005 445.67L51.607 445.67z" stroke="none" fill="#FEE480" fill-rule="nonzero" /><path id="765" transform="matrix(1 0 0 -1 0 841)" d="M425.37 302.071L523.825 302.071L523.825 280.071L425.37 280.071zM326.915 302.071L425.37 302.071L425.37 280.071L326.915 280.071zM228.46 302.071L326.915 302.071L326.915 280.071L228.46 280.071zM130.005 302.071L228.46 302.071L228.46 280.071L130.005 280.071zM51.607 302.071L130.005 302.071L130.005 280.071L51.607 280.071zM425.37 324.071L523.825 324.071L523.825 302.071L425.37 302.071zM326.915 324.071L425.37 324.071L425.37 302.071L326.915 302.071zM228.46 324.071L326.915 324.071L326.915 302.071L228.46 302.071zM130.005 324.071L228.46 324.071L228.46 302.071L130.005 302.071zM51.607 324.071L130.005 324.071L130.005 302.071L51.607 302.071zM425.37 339.271L523.825 339.271L523.825 324.071L425.37 324.071zM326.915 339.271L425.37 339.271L425.37 324.071L326.915 324.071zM228.46 339.271L326.915 339.271L326.915 324.071L228.46 324.071zM130.005 339.271L228.46 339.271L228.46 324.071L130.005 324.071zM51.607 339.271L130.005 339.271L130.005 324.071L51.607 324.071zM425.37 354.471L523.825 354.471L523.825 339.271L425.37 339.271zM326.915 354.471L425.37 354.471L425.37 339.271L326.915 339.271zM228.46 354.471L326.915 354.471L326.915 339.271L228.46 339.271zM130.005 354.471L228.46 354.471L228.46 339.271L130.005 339.271zM51.607 354.471L130.005 354.471L130.005 339.271L51.607 339.271zM425.37 369.671L523.825 369.671L523.825 354.471L425.37 354.471zM326.915 369.671L425.37 369.671L425.37 354.471L326.915 354.471zM228.46 369.671L326.915 369.671L326.915 354.471L228.46 354.471zM130.005 369.671L228.46 369.671L228.46 354.471L130.005 354.471zM51.607 369.671L130.005 369.671L130.005 354.471L51.607 354.471zM425.37 384.871L523.825 384.871L523.825 369.671L425.37 369.671zM326.915 384.871L425.37 384.871L425.37 369.671L326.915 369.671zM228.46 384.871L326.915 384.871L326.915 369.671L228.46 369.671zM130.005 384.871L228.46 384.871L228.46 369.671L130.005 369.671zM51.607 384.871L130.005 384.871L130.005 369.671L51.607 369.671zM425.37 400.07L523.825 400.07L523.825 384.87L425.37 384.87zM326.915 400.07L425.37 400.07L425.37 384.87L326.915 384.87zM228.46 400.07L326.915 400.07L326.915 384.87L228.46 384.87zM130.005 400.07L228.46 400.07L228.46 384.87L130.005 384.87zM51.607 400.07L130.005 400.07L130.005 384.87L51.607 384.87zM425.37 415.27L523.825 415.27L523.825 400.07L425.37 400.07zM326.915 415.27L425.37 415.27L425.37 400.07L326.915 400.07zM228.46 415.27L326.915 415.27L326.915 400.07L228.46 400.07zM130.005 415.27L228.46 415.27L228.46 400.07L130.005 400.07zM51.607 415.27L130.005 415.27L130.005 400.07L51.607 400.07zM425.37 430.47L523.825 430.47L523.825 415.27L425.37 415.27zM326.915 430.47L425.37 430.47L425.37 415.27L326.915 415.27zM228.46 430.47L326.915 430.47L326.915 415.27L228.46 415.27zM130.005 430.47L228.46 430.47L228.46 415.27L130.005 415.27zM51.607 430.47L130.005 430.47L130.005 415.27L51.607 415.27zM425.37 445.67L523.825 445.67L523.825 430.47L425.37 430.47zM326.915 445.67L425.37 445.67L425.37 430.47L326.915 430.47zM228.46 445.67L326.915 445.67L326.915 430.47L228.46 430.47zM130.005 445.67L228.46 445.67L228.46 430.47L130.005 430.47zM51.607 445.67L130.005 445.67L130.005 430.47L51.607 430.47z" stroke="none" fill="#FEEFBD" fill-rule="nonzero" /><path id="766" transform="matrix(1 0 0 -1 0 841)" d="M51.6072 445.6701L130.0052 445.6701" stroke="#FFFFFF" stroke-width="1" fill="none" /><path id="767" transform="matrix(1 0 0 -1 0 841)" d="M130.0049 446.1701L130.0049 469.5391" stroke="#FFFFFF" stroke-width="1" fill="none" /><path id="768" transform="matrix(1 0 0 -1 0 841)" d="M228.46 446.1701L228.46 469.5391" stroke="#FFFFFF" stroke-width="1" fill="none" /><path id="769" transform="matrix(1 0 0 -1 0 841)" d="M326.9151 446.1701L326.9151 469.5391" stroke="#FFFFFF" stroke-width="1" fill="none" /><path id="770" transform="matrix(1 0 0 -1 0 841)" d="M425.3702 446.1701L425.3702 469.5391" stroke="#FFFFFF" stroke-width="1" fill="none" /><path id="771" transform="matrix(1 0 0 -1 0 841)" d="M130.0049 445.6701L228.4599 445.6701" stroke="#FFFFFF" stroke-width="1" fill="none" /><path id="772" transform="matrix(1 0 0 -1 0 841)" d="M130.0049 430.9702L130.0049 445.1702" stroke="#FFFFFF" stroke-width="1" fill="none" /><path id="773" transform="matrix(1 0 0 -1 0 841)" d="M228.46 445.6701L326.915 445.6701" stroke="#FFFFFF" stroke-width="1" fill="none" /><path id="774" transform="matrix(1 0 0 -1 0 841)" d="M228.46 430.9702L228.46 445.1702" stroke="#FFFFFF" stroke-width="1" fill="none" /><path id="775" transform="matrix(1 0 0 -1 0 841)" d="M326.9151 445.6701L425.3701 445.6701" stroke="#FFFFFF" stroke-width="1" fill="none" /><path id="776" transform="matrix(1 0 0 -1 0 841)" d="M326.9151 430.9702L326.9151 445.1702" stroke="#FFFFFF" stroke-width="1" fill="none" /><path id="777" transform="matrix(1 0 0 -1 0 841)" d="M425.3702 445.6701L524.3252 445.6701" stroke="#FFFFFF" stroke-width="1" fill="none" /><path id="778" transform="matrix(1 0 0 -1 0 841)" d="M425.3702 430.9702L425.3702 445.1702" stroke="#FFFFFF" stroke-width="1" fill="none" /><path id="779" transform="matrix(1 0 0 -1 0 841)" d="M523.8254 430.9702L523.8254 445.1702" stroke="#FFFFFF" stroke-width="1" fill="none" /><path id="780" transform="matrix(1 0 0 -1 0 841)" d="M130.0049 430.4702L228.4599 430.4702" stroke="#FFFFFF" stroke-width="1" fill="none" /><path id="781" transform="matrix(1 0 0 -1 0 841)" d="M130.0049 415.7703L130.0049 429.9703" stroke="#FFFFFF" stroke-width="1" fill="none" /><path id="782" transform="matrix(1 0 0 -1 0 841)" d="M228.46 430.4702L326.915 430.4702" stroke="#FFFFFF" stroke-width="1" fill="none" /><path id="783" transform="matrix(1 0 0 -1 0 841)" d="M228.46 415.7703L228.46 429.9703" stroke="#FFFFFF" stroke-width="1" fill="none" /><path id="784" transform="matrix(1 0 0 -1 0 841)" d="M326.9151 430.4702L425.3701 430.4702" stroke="#FFFFFF" stroke-width="1" fill="none" /><path id="785" transform="matrix(1 0 0 -1 0 841)" d="M326.9151 415.7703L326.9151 429.9703" stroke="#FFFFFF" stroke-width="1" fill="none" /><path id="786" transform="matrix(1 0 0 -1 0 841)" d="M425.3702 430.4702L524.3252 430.4702" stroke="#FFFFFF" stroke-width="1" fill="none" /><path id="787" transform="matrix(1 0 0 -1 0 841)" d="M425.3702 415.7703L425.3702 429.9703" stroke="#FFFFFF" stroke-width="1" fill="none" /><path id="788" transform="matrix(1 0 0 -1 0 841)" d="M523.8254 415.7703L523.8254 429.9703" stroke="#FFFFFF" stroke-width="1" fill="none" /><path id="789" transform="matrix(1 0 0 -1 0 841)" d="M130.0049 415.2703L228.4599 415.2703" stroke="#FFFFFF" stroke-width="1" fill="none" /><path id="790" transform="matrix(1 0 0 -1 0 841)" d="M130.0049 400.5704L130.0049 414.7704" stroke="#FFFFFF" stroke-width="1" fill="none" /><path id="791" transform="matrix(1 0 0 -1 0 841)" d="M228.46 415.2703L326.915 415.2703" stroke="#FFFFFF" stroke-width="1" fill="none" /><path id="792" transform="matrix(1 0 0 -1 0 841)" d="M228.46 400.5704L228.46 414.7704" stroke="#FFFFFF" stroke-width="1" fill="none" /><path id="793" transform="matrix(1 0 0 -1 0 841)" d="M326.9151 415.2703L425.3701 415.2703" stroke="#FFFFFF" stroke-width="1" fill="none" /><path id="794" transform="matrix(1 0 0 -1 0 841)" d="M326.9151 400.5704L326.9151 414.7704" stroke="#FFFFFF" stroke-width="1" fill="none" /><path id="795" transform="matrix(1 0 0 -1 0 841)" d="M425.3702 415.2703L524.3252 415.2703" stroke="#FFFFFF" stroke-width="1" fill="none" /><path id="796" transform="matrix(1 0 0 -1 0 841)" d="M425.3702 400.5704L425.3702 414.7704" stroke="#FFFFFF" stroke-width="1" fill="none" /><path id="797" transform="matrix(1 0 0 -1 0 841)" d="M523.8254 400.5704L523.8254 414.7704" stroke="#FFFFFF" stroke-width="1" fill="none" /><path id="798" transform="matrix(1 0 0 -1 0 841)" d="M130.0049 400.0704L228.4599 400.0704" stroke="#FFFFFF" stroke-width="1" fill="none" /><path id="799" transform="matrix(1 0 0 -1 0 841)" d="M130.0049 385.3705L130.0049 399.5705" stroke="#FFFFFF" stroke-width="1" fill="none" /><path id="800" transform="matrix(1 0 0 -1 0 841)" d="M228.46 400.0704L326.915 400.0704" stroke="#FFFFFF" stroke-width="1" fill="none" /><path id="801" transform="matrix(1 0 0 -1 0 841)" d="M228.46 385.3705L228.46 399.5705" stroke="#FFFFFF" stroke-width="1" fill="none" /><path id="802" transform="matrix(1 0 0 -1 0 841)" d="M326.9151 400.0704L425.3701 400.0704" stroke="#FFFFFF" stroke-width="1" fill="none" /><path id="803" transform="matrix(1 0 0 -1 0 841)" d="M326.9151 385.3705L326.9151 399.5705" stroke="#FFFFFF" stroke-width="1" fill="none" /><path id="804" transform="matrix(1 0 0 -1 0 841)" d="M425.3702 400.0704L524.3252 400.0704" stroke="#FFFFFF" stroke-width="1" fill="none" /><path id="805" transform="matrix(1 0 0 -1 0 841)" d="M425.3702 385.3705L425.3702 399.5705" stroke="#FFFFFF" stroke-width="1" fill="none" /><path id="806" transform="matrix(1 0 0 -1 0 841)" d="M523.8254 385.3705L523.8254 399.5705" stroke="#FFFFFF" stroke-width="1" fill="none" /><path id="807" transform="matrix(1 0 0 -1 0 841)" d="M130.0049 384.8705L228.4599 384.8705" stroke="#FFFFFF" stroke-width="1" fill="none" /><path id="808" transform="matrix(1 0 0 -1 0 841)" d="M130.0049 370.1707L130.0049 384.3707" stroke="#FFFFFF" stroke-width="1" fill="none" /><path id="809" transform="matrix(1 0 0 -1 0 841)" d="M228.46 384.8705L326.915 384.8705" stroke="#FFFFFF" stroke-width="1" fill="none" /><path id="810" transform="matrix(1 0 0 -1 0 841)" d="M228.46 370.1707L228.46 384.3707" stroke="#FFFFFF" stroke-width="1" fill="none" /><path id="811" transform="matrix(1 0 0 -1 0 841)" d="M326.9151 384.8705L425.3701 384.8705" stroke="#FFFFFF" stroke-width="1" fill="none" /><path id="812" transform="matrix(1 0 0 -1 0 841)" d="M326.9151 370.1707L326.9151 384.3707" stroke="#FFFFFF" stroke-width="1" fill="none" /><path id="813" transform="matrix(1 0 0 -1 0 841)" d="M425.3702 384.8705L524.3252 384.8705" stroke="#FFFFFF" stroke-width="1" fill="none" /><path id="814" transform="matrix(1 0 0 -1 0 841)" d="M425.3702 370.1707L425.3702 384.3707" stroke="#FFFFFF" stroke-width="1" fill="none" /><path id="815" transform="matrix(1 0 0 -1 0 841)" d="M523.8254 370.1707L523.8254 384.3707" stroke="#FFFFFF" stroke-width="1" fill="none" /><path id="816" transform="matrix(1 0 0 -1 0 841)" d="M130.0049 369.6707L228.4599 369.6707" stroke="#FFFFFF" stroke-width="1" fill="none" /><path id="817" transform="matrix(1 0 0 -1 0 841)" d="M130.0049 354.9708L130.0049 369.1708" stroke="#FFFFFF" stroke-width="1" fill="none" /><path id="818" transform="matrix(1 0 0 -1 0 841)" d="M228.46 369.6707L326.915 369.6707" stroke="#FFFFFF" stroke-width="1" fill="none" /><path id="819" transform="matrix(1 0 0 -1 0 841)" d="M228.46 354.9708L228.46 369.1708" stroke="#FFFFFF" stroke-width="1" fill="none" /><path id="820" transform="matrix(1 0 0 -1 0 841)" d="M326.9151 369.6707L425.3701 369.6707" stroke="#FFFFFF" stroke-width="1" fill="none" /><path id="821" transform="matrix(1 0 0 -1 0 841)" d="M326.9151 354.9708L326.9151 369.1708" stroke="#FFFFFF" stroke-width="1" fill="none" /><path id="822" transform="matrix(1 0 0 -1 0 841)" d="M425.3702 369.6707L524.3252 369.6707" stroke="#FFFFFF" stroke-width="1" fill="none" /><path id="823" transform="matrix(1 0 0 -1 0 841)" d="M425.3702 354.9708L425.3702 369.1708" stroke="#FFFFFF" stroke-width="1" fill="none" /><path id="824" transform="matrix(1 0 0 -1 0 841)" d="M523.8254 354.9708L523.8254 369.1708" stroke="#FFFFFF" stroke-width="1" fill="none" /><path id="825" transform="matrix(1 0 0 -1 0 841)" d="M130.0049 354.4708L228.4599 354.4708" stroke="#FFFFFF" stroke-width="1" fill="none" /><path id="826" transform="matrix(1 0 0 -1 0 841)" d="M130.0049 339.7709L130.0049 353.9709" stroke="#FFFFFF" stroke-width="1" fill="none" /><path id="827" transform="matrix(1 0 0 -1 0 841)" d="M228.46 354.4708L326.915 354.4708" stroke="#FFFFFF" stroke-width="1" fill="none" /><path id="828" transform="matrix(1 0 0 -1 0 841)" d="M228.46 339.7709L228.46 353.9709" stroke="#FFFFFF" stroke-width="1" fill="none" /><path id="829" transform="matrix(1 0 0 -1 0 841)" d="M326.9151 354.4708L425.3701 354.4708" stroke="#FFFFFF" stroke-width="1" fill="none" /><path id="830" transform="matrix(1 0 0 -1 0 841)" d="M326.9151 339.7709L326.9151 353.9709" stroke="#FFFFFF" stroke-width="1" fill="none" /><path id="831" transform="matrix(1 0 0 -1 0 841)" d="M425.3702 354.4708L524.3252 354.4708" stroke="#FFFFFF" stroke-width="1" fill="none" /><path id="832" transform="matrix(1 0 0 -1 0 841)" d="M425.3702 339.7709L425.3702 353.9709" stroke="#FFFFFF" stroke-width="1" fill="none" /><path id="833" transform="matrix(1 0 0 -1 0 841)" d="M523.8254 339.7709L523.8254 353.9709" stroke="#FFFFFF" stroke-width="1" fill="none" /><path id="834" transform="matrix(1 0 0 -1 0 841)" d="M130.0049 339.2709L228.4599 339.2709" stroke="#FFFFFF" stroke-width="1" fill="none" /><path id="835" transform="matrix(1 0 0 -1 0 841)" d="M130.0049 324.571L130.0049 338.771" stroke="#FFFFFF" stroke-width="1" fill="none" /><path id="836" transform="matrix(1 0 0 -1 0 841)" d="M228.46 339.2709L326.915 339.2709" stroke="#FFFFFF" stroke-width="1" fill="none" /><path id="837" transform="matrix(1 0 0 -1 0 841)" d="M228.46 324.571L228.46 338.771" stroke="#FFFFFF" stroke-width="1" fill="none" /><path id="838" transform="matrix(1 0 0 -1 0 841)" d="M326.9151 339.2709L425.3701 339.2709" stroke="#FFFFFF" stroke-width="1" fill="none" /><path id="839" transform="matrix(1 0 0 -1 0 841)" d="M326.9151 324.571L326.9151 338.771" stroke="#FFFFFF" stroke-width="1" fill="none" /><path id="840" transform="matrix(1 0 0 -1 0 841)" d="M425.3702 339.2709L524.3252 339.2709" stroke="#FFFFFF" stroke-width="1" fill="none" /><path id="841" transform="matrix(1 0 0 -1 0 841)" d="M425.3702 324.571L425.3702 338.771" stroke="#FFFFFF" stroke-width="1" fill="none" /><path id="842" transform="matrix(1 0 0 -1 0 841)" d="M523.8254 324.571L523.8254 338.771" stroke="#FFFFFF" stroke-width="1" fill="none" /><path id="843" transform="matrix(1 0 0 -1 0 841)" d="M130.0049 324.071L228.4599 324.071" stroke="#FFFFFF" stroke-width="1" fill="none" /><path id="844" transform="matrix(1 0 0 -1 0 841)" d="M130.0049 302.571L130.0049 323.571" stroke="#FFFFFF" stroke-width="1" fill="none" /><path id="845" transform="matrix(1 0 0 -1 0 841)" d="M228.46 324.071L326.915 324.071" stroke="#FFFFFF" stroke-width="1" fill="none" /><path id="846" transform="matrix(1 0 0 -1 0 841)" d="M228.46 302.571L228.46 323.571" stroke="#FFFFFF" stroke-width="1" fill="none" /><path id="847" transform="matrix(1 0 0 -1 0 841)" d="M326.9151 324.071L425.3701 324.071" stroke="#FFFFFF" stroke-width="1" fill="none" /><path id="848" transform="matrix(1 0 0 -1 0 841)" d="M326.9151 302.571L326.9151 323.571" stroke="#FFFFFF" stroke-width="1" fill="none" /><path id="849" transform="matrix(1 0 0 -1 0 841)" d="M425.3702 324.071L524.3252 324.071" stroke="#FFFFFF" stroke-width="1" fill="none" /><path id="850" transform="matrix(1 0 0 -1 0 841)" d="M425.3702 302.571L425.3702 323.571" stroke="#FFFFFF" stroke-width="1" fill="none" /><path id="851" transform="matrix(1 0 0 -1 0 841)" d="M523.8254 302.571L523.8254 323.571" stroke="#FFFFFF" stroke-width="1" fill="none" /><path id="852" transform="matrix(1 0 0 -1 0 841)" d="M130.0049 302.071L228.4599 302.071" stroke="#FFFFFF" stroke-width="1" fill="none" /><path id="853" transform="matrix(1 0 0 -1 0 841)" d="M130.0049 280.571L130.0049 301.571" stroke="#FFFFFF" stroke-width="1" fill="none" /><path id="854" transform="matrix(1 0 0 -1 0 841)" d="M228.46 302.071L326.915 302.071" stroke="#FFFFFF" stroke-width="1" fill="none" /><path id="855" transform="matrix(1 0 0 -1 0 841)" d="M228.46 280.571L228.46 301.571" stroke="#FFFFFF" stroke-width="1" fill="none" /><path id="856" transform="matrix(1 0 0 -1 0 841)" d="M326.9151 302.071L425.3701 302.071" stroke="#FFFFFF" stroke-width="1" fill="none" /><path id="857" transform="matrix(1 0 0 -1 0 841)" d="M326.9151 280.571L326.9151 301.571" stroke="#FFFFFF" stroke-width="1" fill="none" /><path id="858" transform="matrix(1 0 0 -1 0 841)" d="M425.3702 302.071L524.3252 302.071" stroke="#FFFFFF" stroke-width="1" fill="none" /><path id="859" transform="matrix(1 0 0 -1 0 841)" d="M425.3702 280.571L425.3702 301.571" stroke="#FFFFFF" stroke-width="1" fill="none" /><path id="860" transform="matrix(1 0 0 -1 0 841)" d="M523.8254 280.571L523.8254 301.571" stroke="#FFFFFF" stroke-width="1" fill="none" /><path id="861" transform="matrix(1 0 0 -1 0 841)" d="M129.5049 280.071L228.4599 280.071" stroke="#FFFFFF" stroke-width="1" fill="none" /><path id="862" transform="matrix(1 0 0 -1 0 841)" d="M228.46 280.071L326.915 280.071" stroke="#FFFFFF" stroke-width="1" fill="none" /><path id="863" transform="matrix(1 0 0 -1 0 841)" d="M326.9151 280.071L425.3701 280.071" stroke="#FFFFFF" stroke-width="1" fill="none" /><path id="864" transform="matrix(1 0 0 -1 0 841)" d="M425.3702 280.071L524.3252 280.071" stroke="#FFFFFF" stroke-width="1" fill="none" /><path id="865" transform="matrix(1 0 0 -1 0 841)" d="M51.6072 430.4702L130.0052 430.4702" stroke="#FFFFFF" stroke-width="1" fill="none" /><path id="866" transform="matrix(1 0 0 -1 0 841)" d="M51.6072 415.2703L130.0052 415.2703" stroke="#FFFFFF" stroke-width="1" fill="none" /><path id="867" transform="matrix(1 0 0 -1 0 841)" d="M51.6072 400.0704L130.0052 400.0704" stroke="#FFFFFF" stroke-width="1" fill="none" /><path id="868" transform="matrix(1 0 0 -1 0 841)" d="M51.6072 384.8705L130.0052 384.8705" stroke="#FFFFFF" stroke-width="1" fill="none" /><path id="869" transform="matrix(1 0 0 -1 0 841)" d="M51.6072 369.6707L130.0052 369.6707" stroke="#FFFFFF" stroke-width="1" fill="none" /><path id="870" transform="matrix(1 0 0 -1 0 841)" d="M51.6072 354.4708L130.0052 354.4708" stroke="#FFFFFF" stroke-width="1" fill="none" /><path id="871" transform="matrix(1 0 0 -1 0 841)" d="M51.6072 339.2709L130.0052 339.2709" stroke="#FFFFFF" stroke-width="1" fill="none" /><path id="872" transform="matrix(1 0 0 -1 0 841)" d="M51.6072 324.071L130.0052 324.071" stroke="#FFFFFF" stroke-width="1" fill="none" /><path id="873" transform="matrix(1 0 0 -1 0 841)" d="M51.6072 302.071L130.0052 302.071" stroke="#FFFFFF" stroke-width="1" fill="none" /><path id="1053" transform="matrix(1 0 0 -1 0 841)" d="M59.1245 311.0741L123.9965 311.0741" stroke="#000000" stroke-width="1" stroke-linecap="round" stroke-dasharray="1,2.017" fill="none" /><path id="1054" transform="matrix(1 0 0 -1 0 841)" d="M125.5052 311.0741L125.5052 311.0741M56.1072 311.0741L56.1072 311.0741" stroke="#000000" stroke-width="1" stroke-linecap="round" fill="none" /><path id="1060" transform="matrix(1 0 0 -1 0 841)" d="M59.1245 289.0741L123.9965 289.0741" stroke="#000000" stroke-width="1" stroke-linecap="round" stroke-dasharray="1,2.017" fill="none" /><path id="1061" transform="matrix(1 0 0 -1 0 841)" d="M125.5052 289.0741L125.5052 289.0741M56.1072 289.0741L56.1072 289.0741" stroke="#000000" stroke-width="1" stroke-linecap="round" fill="none" /><path id="1067" transform="matrix(1 0 0 -1 0 841)" d="M37.441 266.63L537.991 266.63L537.991 266.63L537.991 738.448L537.991 738.448L37.441 738.448z" stroke="#587541" stroke-width="1.182" fill="none" /><path id="1068" transform="matrix(1 0 0 -1 0 841)" d="M32.598 731.663L88.022 731.663L88.022 744.998L32.598 744.998z" stroke="none" fill="#FFFFFF" fill-rule="nonzero" /><path id="1215" transform="matrix(1 0 0 -1 0 841)" d="M36.85 783.04L595.275 783.04L595.275 805.04L36.85 805.04z" stroke="none" fill="#587541" fill-rule="nonzero" /><path id="1248" transform="matrix(1 0 0 -1 0 841)" d="M56.694 106.997L293.379 106.997L293.379 211.039L56.694 211.039z" stroke="none" fill="#C6C8B3" fill-rule="nonzero" /><path id="1249" transform="matrix(1 0 0 -1 0 841)" d="M77.4061 177.7529L129.3271 177.7529" stroke="#FFEA9F" stroke-width="12" fill="none" /><path id="1528" transform="matrix(1 0 0 -1 0 841)" d="M56.644 212.457L106.962 212.457L106.962 225.577L56.644 225.577z" stroke="none" fill="#FFFFFF" fill-rule="nonzero" /><path id="1539" transform="matrix(1 0 0 -1 0 841)" d="M375.145 198.75L390.756 198.75L390.756 212.498L375.145 212.498z" stroke="none" fill="#FFFFFF" fill-rule="nonzero" /><g clip-path="url(#4)"><path id="1540" transform="matrix(1 0 0 -1 0 841)" d="M379.842 209.6401C 379.903 209.5781 379.986 209.5471 380.066 209.5471C 380.147 209.5471 380.23 209.5781 380.291 209.6401C 380.417 209.7651 380.417 209.9661 380.291 210.0921L380.291 210.0921L379.499 210.8841C 379.373 211.0101 379.172 211.0101 379.047 210.8841C 378.921 210.7591 378.921 210.5581 379.047 210.4321zM385.834 209.5451C 385.915 209.5451 385.998 209.5761 386.059 209.6371L386.059 209.6371L386.852 210.4301C 386.977 210.5551 386.977 210.7561 386.852 210.8821C 386.726 211.0071 386.525 211.0071 386.4 210.8821L386.4 210.8821L385.607 210.0891C 385.482 209.9641 385.482 209.7631 385.607 209.6371C 385.671 209.5761 385.751 209.5451 385.834 209.5451M388.148 207.3001L387.029 207.3001C 386.854 207.3001 386.71 207.1581 386.71 206.9811C 386.71 206.8051 386.852 206.6611 387.029 206.6611L387.029 206.6611L388.148 206.6611C 388.323 206.6611 388.467 206.8031 388.467 206.9811C 388.467 207.1561 388.325 207.3001 388.148 207.3001M379.191 206.9811C 379.191 207.1561 379.049 207.3001 378.872 207.3001L378.872 207.3001L377.753 207.3001C 377.578 207.3001 377.433 207.1581 377.433 206.9811C 377.433 206.8051 377.575 206.6611 377.753 206.6611L377.753 206.6611L378.872 206.6611C 379.049 206.6611 379.191 206.8031 379.191 206.9811M382.95 210.7401C 383.125 210.7401 383.27 210.8821 383.27 211.0591L383.27 211.0591L383.27 212.1781C 383.27 212.3531 383.128 212.4981 382.95 212.4981C 382.773 212.4981 382.631 212.3561 382.631 212.1781L382.631 212.1781L382.631 211.0591C 382.631 210.8821 382.775 210.7401 382.95 210.7401M383.27 208.6931C 383.27 208.8691 383.128 209.0131 382.95 209.0131C 381.824 209.0131 380.906 208.0971 380.906 206.9691C 380.906 206.7941 381.048 206.6491 381.226 206.6491C 381.401 206.6491 381.545 206.7911 381.545 206.9691C 381.545 207.7451 382.177 208.3741 382.95 208.3741C 383.128 208.3741 383.27 208.5161 383.27 208.6931M385.782 206.9781C 385.782 206.2141 385.479 205.5211 384.987 205.0121C 384.614 204.6241 384.372 204.1301 384.292 203.6021C 384.256 203.3751 384.06 203.2071 383.828 203.2071L383.828 203.2071L382.07 203.2071C 381.841 203.2071 381.642 203.3731 381.609 203.6001C 381.526 204.1271 381.282 204.6291 380.909 205.0151C 380.426 205.5161 380.126 206.1971 380.118 206.9471C 380.102 208.5231 381.356 209.7981 382.931 209.8101C 384.505 209.8221 385.782 208.5491 385.782 206.9781M384.261 202.4501L384.261 202.1141C 384.261 201.8471 384.065 201.6241 383.809 201.5861L383.809 201.5861L383.726 201.2811C 383.681 201.1161 383.532 201.0001 383.36 201.0001L383.36 201.0001L382.539 201.0001C 382.366 201.0001 382.217 201.1161 382.172 201.2811L382.172 201.2811L382.092 201.5861C 381.834 201.6271 381.637 201.8471 381.637 202.1161L381.637 202.1161L381.637 202.4521C 381.637 202.6321 381.782 202.7761 381.961 202.7761L381.961 202.7761L383.937 202.7761C 384.117 202.7741 384.261 202.6301 384.261 202.4501" stroke="none" fill="#587541" fill-rule="nonzero" /><path id="1541" transform="matrix(1 0 0 -1 0 841)" d="M36.8504 34.7906L595.2754 34.7906" stroke="#000000" stroke-width="0.5" fill="none" /></g></g></g></svg>