<svg xmlns="http://www.w3.org/2000/svg" xmlns:xlink="http://www.w3.org/1999/xlink" id="body_2" preserveAspectRatio="xMinYMin meet" viewBox="0 0 793 1121"><defs><clipPath id="1"><path id="" clip-rule="evenodd" transform="matrix(1 0 0 1 0 0)" d="M0 841L0 -0.8900146L0 -0.8900146L595.276 -0.8900146L595.276 -0.8900146L595.276 841L595.276 841L0 841z" /></clipPath><clipPath id="2"><path id="" clip-rule="evenodd" transform="matrix(1 0 0 1 0 0)" d="M0 841L595.276 841L595.276 841L595.276 -0.8900146L595.276 -0.8900146L0 -0.8900146z" /></clipPath><mask id="m1"><clipPath id="3"><path id="" clip-rule="evenodd" transform="matrix(1 0 0 1 0 0)" d="M63.8356 127.682L550.556 127.682L550.556 127.682L550.556 466.442L550.556 466.442L63.8356 466.442z" /></clipPath><g><g><g clip-path="url(#3)"><g transform="matrix(0.5994089 0 0 0.5995753 63.83565 127.682)"><g transform="matrix(1 0 0 1 0 0)"><image x="0" y="0" xlink:href="img_03.png" width="812" height="565" /></g></g></g></g></g></mask><clipPath id="4"><path id="" clip-rule="evenodd" transform="matrix(1 0 0 1 0 0)" d="M69.2357 132.722L548.036 132.722L548.036 132.722L548.036 463.922L548.036 463.922L69.2357 463.922z" /></clipPath><clipPath id="5"><path id="" clip-rule="evenodd" transform="matrix(1 0 0 1 0 0)" d="M0 841L595.276 841L595.276 841L595.276 -0.8900146L595.276 -0.8900146L0 -0.8900146z" /></clipPath><mask id="m2"><clipPath id="6"><path id="" clip-rule="evenodd" transform="matrix(1 0 0 1 0 0)" d="M362.63 466.648L564.95 466.648L564.95 466.648L564.95 617.128L564.95 617.128L362.63 617.128z" /></clipPath><g><g><g clip-path="url(#6)"><g transform="matrix(0.5985799 0 0 0.599522 362.6297 466.6484)"><g transform="matrix(1 0 0 1 0 0)"><image x="0" y="0" xlink:href="img_04.png" width="338" height="251" /></g></g></g></g></g></mask><clipPath id="7"><path id="" clip-rule="evenodd" transform="matrix(1 0 0 1 0 0)" d="M364.79 468.808L562.43 468.808L562.43 468.808L562.43 614.608L562.43 614.608L364.79 614.608z" /></clipPath><clipPath id="8"><path id="" clip-rule="evenodd" transform="matrix(1 0 0 1 0 0)" d="M368.924 596.563L544.929 599.635L544.929 599.635L547.081 476.34L547.081 476.34L371.077 473.267z" /></clipPath><clipPath id="9"><path id="" clip-rule="evenodd" transform="matrix(1 0 0 1 0 0)" d="M71.45 149.125L382.11 149.125L382.11 149.125L382.11 134.961L382.11 134.961L71.45 134.961z" /></clipPath><clipPath id="10"><path id="" clip-rule="evenodd" transform="matrix(1 0 0 1 0 0)" d="M395.54 136.633L397.052 136.633L397.052 136.633L397.052 138.144L397.052 138.144L395.54 138.144z" /></clipPath><clipPath id="11"><path id="" clip-rule="evenodd" transform="matrix(1 0 0 1 0 0)" d="M395.54 138.144L397.052 138.144L397.052 138.144L397.052 136.633L397.052 136.633L395.54 136.633z" /></clipPath><clipPath id="12"><path id="" clip-rule="evenodd" transform="matrix(1 0 0 1 0 0)" d="M395.54 136.633L397.052 136.633L397.052 136.633L397.052 138.144L397.052 138.144L395.54 138.144z" /></clipPath><clipPath id="13"><path id="" clip-rule="evenodd" transform="matrix(1 0 0 1 0 0)" d="M395.54 138.144L397.052 138.144L397.052 138.144L397.052 136.633L397.052 136.633L395.54 136.633z" /></clipPath><clipPath id="14"><path id="" clip-rule="evenodd" transform="matrix(1 0 0 1 0 0)" d="M394.023 138.151L395.533 138.151L395.533 138.151L395.533 139.662L395.533 139.662L394.023 139.662z" /></clipPath><clipPath id="15"><path id="" clip-rule="evenodd" transform="matrix(1 0 0 1 0 0)" d="M394.023 139.662L395.533 139.662L395.533 139.662L395.533 138.151L395.533 138.151L394.023 138.151z" /></clipPath><clipPath id="16"><path id="" clip-rule="evenodd" transform="matrix(1 0 0 1 0 0)" d="M394.023 138.151L395.533 138.151L395.533 138.151L395.533 139.662L395.533 139.662L394.023 139.662z" /></clipPath><clipPath id="17"><path id="" clip-rule="evenodd" transform="matrix(1 0 0 1 0 0)" d="M394.023 139.662L395.533 139.662L395.533 139.662L395.533 138.151L395.533 138.151L394.023 138.151z" /></clipPath><clipPath id="18"><path id="" clip-rule="evenodd" transform="matrix(1 0 0 1 0 0)" d="M71.4539 140.782L399.181 140.782L399.181 140.782L399.181 149.143L399.181 149.143L71.4539 149.143z" /></clipPath><clipPath id="19"><path id="" clip-rule="evenodd" transform="matrix(1 0 0 1 0 0)" d="M71.454 149.143L399.182 149.143L399.182 149.143L399.182 140.782L399.182 140.782L71.454 140.782z" /></clipPath><clipPath id="20"><path id="" clip-rule="evenodd" transform="matrix(1 0 0 1 0 0)" d="M97.0083 143.639L100.806 143.639L100.806 143.639L100.806 146.852L100.806 146.852L97.0083 146.852z" /></clipPath><clipPath id="21"><path id="" clip-rule="evenodd" transform="matrix(1 0 0 1 0 0)" d="M97.008 146.852L100.805 146.852L100.805 146.852L100.805 143.639L100.805 143.639L97.008 143.639z" /></clipPath><clipPath id="22"><path id="" clip-rule="evenodd" transform="matrix(1 0 0 1 0 0)" d="M97.0083 143.639L100.806 143.639L100.806 143.639L100.806 146.852L100.806 146.852L97.0083 146.852z" /></clipPath><clipPath id="23"><path id="" clip-rule="evenodd" transform="matrix(1 0 0 1 0 0)" d="M97.008 146.852L100.805 146.852L100.805 146.852L100.805 143.639L100.805 143.639L97.008 143.639z" /></clipPath><clipPath id="24"><path id="" clip-rule="evenodd" transform="matrix(1 0 0 1 0 0)" d="M90.3048 143.639L93.5179 143.639L93.5179 143.639L93.5179 146.852L93.5179 146.852L90.3048 146.852z" /></clipPath><clipPath id="25"><path id="" clip-rule="evenodd" transform="matrix(1 0 0 1 0 0)" d="M90.305 146.852L93.518 146.852L93.518 146.852L93.518 143.639L93.518 143.639L90.305 143.639z" /></clipPath><clipPath id="26"><path id="" clip-rule="evenodd" transform="matrix(1 0 0 1 0 0)" d="M90.3048 143.639L93.5179 143.639L93.5179 143.639L93.5179 146.852L93.5179 146.852L90.3048 146.852z" /></clipPath><clipPath id="27"><path id="" clip-rule="evenodd" transform="matrix(1 0 0 1 0 0)" d="M90.305 146.852L93.518 146.852L93.518 146.852L93.518 143.639L93.518 143.639L90.305 143.639z" /></clipPath><clipPath id="28"><path id="" clip-rule="evenodd" transform="matrix(1 0 0 1 0 0)" d="M82.9565 143.42L86.6076 143.42L86.6076 143.42L86.6076 147.071L86.6076 147.071L82.9565 147.071z" /></clipPath><clipPath id="29"><path id="" clip-rule="evenodd" transform="matrix(1 0 0 1 0 0)" d="M82.956 147.071L86.607 147.071L86.607 147.071L86.607 143.42L86.607 143.42L82.956 143.42z" /></clipPath><clipPath id="30"><path id="" clip-rule="evenodd" transform="matrix(1 0 0 1 0 0)" d="M82.9565 143.42L86.6076 143.42L86.6076 143.42L86.6076 147.071L86.6076 147.071L82.9565 147.071z" /></clipPath><clipPath id="31"><path id="" clip-rule="evenodd" transform="matrix(1 0 0 1 0 0)" d="M82.956 147.071L86.607 147.071L86.607 147.071L86.607 143.42L86.607 143.42L82.956 143.42z" /></clipPath><clipPath id="32"><path id="" clip-rule="evenodd" transform="matrix(1 0 0 1 0 0)" d="M75.0444 143.42L78.6956 143.42L78.6956 143.42L78.6956 147.071L78.6956 147.071L75.0444 147.071z" /></clipPath><clipPath id="33"><path id="" clip-rule="evenodd" transform="matrix(1 0 0 1 0 0)" d="M75.044 147.071L78.695 147.071L78.695 147.071L78.695 143.42L78.695 143.42L75.044 143.42z" /></clipPath><clipPath id="34"><path id="" clip-rule="evenodd" transform="matrix(1 0 0 1 0 0)" d="M75.0444 143.42L78.6956 143.42L78.6956 143.42L78.6956 147.071L78.6956 147.071L75.0444 147.071z" /></clipPath><clipPath id="35"><path id="" clip-rule="evenodd" transform="matrix(1 0 0 1 0 0)" d="M75.044 147.071L78.695 147.071L78.695 147.071L78.695 143.42L78.695 143.42L75.044 143.42z" /></clipPath><clipPath id="36"><path id="" clip-rule="evenodd" transform="matrix(1 0 0 1 0 0)" d="M106.417 143.606L109.63 143.606L109.63 143.606L109.63 146.819L109.63 146.819L106.417 146.819z" /></clipPath><clipPath id="37"><path id="" clip-rule="evenodd" transform="matrix(1 0 0 1 0 0)" d="M106.417 146.819L109.63 146.819L109.63 146.819L109.63 143.606L109.63 143.606L106.417 143.606z" /></clipPath><clipPath id="38"><path id="" clip-rule="evenodd" transform="matrix(1 0 0 1 0 0)" d="M390.744 143.127L394.395 143.127L394.395 143.127L394.395 143.86L394.395 143.86L390.744 143.86z" /></clipPath><clipPath id="39"><path id="" clip-rule="evenodd" transform="matrix(1 0 0 1 0 0)" d="M390.744 143.86L394.395 143.86L394.395 143.86L394.395 143.127L394.395 143.127L390.744 143.127z" /></clipPath><clipPath id="40"><path id="" clip-rule="evenodd" transform="matrix(1 0 0 1 0 0)" d="M390.744 143.127L394.395 143.127L394.395 143.127L394.395 143.86L394.395 143.86L390.744 143.86z" /></clipPath><clipPath id="41"><path id="" clip-rule="evenodd" transform="matrix(1 0 0 1 0 0)" d="M390.744 143.86L394.395 143.86L394.395 143.86L394.395 143.127L394.395 143.127L390.744 143.127z" /></clipPath><clipPath id="42"><path id="" clip-rule="evenodd" transform="matrix(1 0 0 1 0 0)" d="M390.744 144.586L394.395 144.586L394.395 144.586L394.395 145.319L394.395 145.319L390.744 145.319z" /></clipPath><clipPath id="43"><path id="" clip-rule="evenodd" transform="matrix(1 0 0 1 0 0)" d="M390.744 145.319L394.395 145.319L394.395 145.319L394.395 144.586L394.395 144.586L390.744 144.586z" /></clipPath><clipPath id="44"><path id="" clip-rule="evenodd" transform="matrix(1 0 0 1 0 0)" d="M390.744 144.586L394.395 144.586L394.395 144.586L394.395 145.319L394.395 145.319L390.744 145.319z" /></clipPath><clipPath id="45"><path id="" clip-rule="evenodd" transform="matrix(1 0 0 1 0 0)" d="M390.744 145.319L394.395 145.319L394.395 145.319L394.395 144.586L394.395 144.586L390.744 144.586z" /></clipPath><clipPath id="46"><path id="" clip-rule="evenodd" transform="matrix(1 0 0 1 0 0)" d="M390.744 146.045L394.395 146.045L394.395 146.045L394.395 146.778L394.395 146.778L390.744 146.778z" /></clipPath><clipPath id="47"><path id="" clip-rule="evenodd" transform="matrix(1 0 0 1 0 0)" d="M390.744 146.778L394.395 146.778L394.395 146.778L394.395 146.045L394.395 146.045L390.744 146.045z" /></clipPath><clipPath id="48"><path id="" clip-rule="evenodd" transform="matrix(1 0 0 1 0 0)" d="M390.744 146.045L394.395 146.045L394.395 146.045L394.395 146.778L394.395 146.778L390.744 146.778z" /></clipPath><clipPath id="49"><path id="" clip-rule="evenodd" transform="matrix(1 0 0 1 0 0)" d="M390.744 146.778L394.395 146.778L394.395 146.778L394.395 146.045L394.395 146.045L390.744 146.045z" /></clipPath><clipPath id="50"><path id="" clip-rule="evenodd" transform="matrix(1 0 0 1 0 0)" d="M271.503 149.125L538.0229 149.125L538.0229 149.125L538.0229 134.961L538.0229 134.961L271.503 134.961z" /></clipPath><clipPath id="51"><path id="" clip-rule="evenodd" transform="matrix(1 0 0 1 0 0)" d="M534.382 136.633L535.893 136.633L535.893 136.633L535.893 138.144L535.893 138.144L534.382 138.144z" /></clipPath><clipPath id="52"><path id="" clip-rule="evenodd" transform="matrix(1 0 0 1 0 0)" d="M534.382 138.144L535.894 138.144L535.894 138.144L535.894 136.633L535.894 136.633L534.382 136.633z" /></clipPath><clipPath id="53"><path id="" clip-rule="evenodd" transform="matrix(1 0 0 1 0 0)" d="M534.382 136.633L535.893 136.633L535.893 136.633L535.893 138.144L535.893 138.144L534.382 138.144z" /></clipPath><clipPath id="54"><path id="" clip-rule="evenodd" transform="matrix(1 0 0 1 0 0)" d="M534.382 138.144L535.894 138.144L535.894 138.144L535.894 136.633L535.894 136.633L534.382 136.633z" /></clipPath><clipPath id="55"><path id="" clip-rule="evenodd" transform="matrix(1 0 0 1 0 0)" d="M532.864 138.151L534.374 138.151L534.374 138.151L534.374 139.662L534.374 139.662L532.864 139.662z" /></clipPath><clipPath id="56"><path id="" clip-rule="evenodd" transform="matrix(1 0 0 1 0 0)" d="M532.864 139.662L534.374 139.662L534.374 139.662L534.374 138.151L534.374 138.151L532.864 138.151z" /></clipPath><clipPath id="57"><path id="" clip-rule="evenodd" transform="matrix(1 0 0 1 0 0)" d="M532.864 138.151L534.374 138.151L534.374 138.151L534.374 139.662L534.374 139.662L532.864 139.662z" /></clipPath><clipPath id="58"><path id="" clip-rule="evenodd" transform="matrix(1 0 0 1 0 0)" d="M532.864 139.662L534.374 139.662L534.374 139.662L534.374 138.151L534.374 138.151L532.864 138.151z" /></clipPath><clipPath id="59"><path id="" clip-rule="evenodd" transform="matrix(1 0 0 1 0 0)" d="M210.295 140.782L538.023 140.782L538.023 140.782L538.023 149.143L538.023 149.143L210.295 149.143z" /></clipPath><clipPath id="60"><path id="" clip-rule="evenodd" transform="matrix(1 0 0 1 0 0)" d="M210.296 149.143L538.023 149.143L538.023 149.143L538.023 140.782L538.023 140.782L210.296 140.782z" /></clipPath><clipPath id="61"><path id="" clip-rule="evenodd" transform="matrix(1 0 0 1 0 0)" d="M235.85 143.639L239.647 143.639L239.647 143.639L239.647 146.852L239.647 146.852L235.85 146.852z" /></clipPath><clipPath id="62"><path id="" clip-rule="evenodd" transform="matrix(1 0 0 1 0 0)" d="M235.85 146.852L239.647 146.852L239.647 146.852L239.647 143.639L239.647 143.639L235.85 143.639z" /></clipPath><clipPath id="63"><path id="" clip-rule="evenodd" transform="matrix(1 0 0 1 0 0)" d="M235.85 143.639L239.647 143.639L239.647 143.639L239.647 146.852L239.647 146.852L235.85 146.852z" /></clipPath><clipPath id="64"><path id="" clip-rule="evenodd" transform="matrix(1 0 0 1 0 0)" d="M235.85 146.852L239.647 146.852L239.647 146.852L239.647 143.639L239.647 143.639L235.85 143.639z" /></clipPath><clipPath id="65"><path id="" clip-rule="evenodd" transform="matrix(1 0 0 1 0 0)" d="M229.146 143.639L232.359 143.639L232.359 143.639L232.359 146.852L232.359 146.852L229.146 146.852z" /></clipPath><clipPath id="66"><path id="" clip-rule="evenodd" transform="matrix(1 0 0 1 0 0)" d="M229.146 146.852L232.359 146.852L232.359 146.852L232.359 143.639L232.359 143.639L229.146 143.639z" /></clipPath><clipPath id="67"><path id="" clip-rule="evenodd" transform="matrix(1 0 0 1 0 0)" d="M229.146 143.639L232.359 143.639L232.359 143.639L232.359 146.852L232.359 146.852L229.146 146.852z" /></clipPath><clipPath id="68"><path id="" clip-rule="evenodd" transform="matrix(1 0 0 1 0 0)" d="M229.146 146.852L232.359 146.852L232.359 146.852L232.359 143.639L232.359 143.639L229.146 143.639z" /></clipPath><clipPath id="69"><path id="" clip-rule="evenodd" transform="matrix(1 0 0 1 0 0)" d="M221.798 143.42L225.449 143.42L225.449 143.42L225.449 147.071L225.449 147.071L221.798 147.071z" /></clipPath><clipPath id="70"><path id="" clip-rule="evenodd" transform="matrix(1 0 0 1 0 0)" d="M221.798 147.071L225.449 147.071L225.449 147.071L225.449 143.42L225.449 143.42L221.798 143.42z" /></clipPath><clipPath id="71"><path id="" clip-rule="evenodd" transform="matrix(1 0 0 1 0 0)" d="M221.798 143.42L225.449 143.42L225.449 143.42L225.449 147.071L225.449 147.071L221.798 147.071z" /></clipPath><clipPath id="72"><path id="" clip-rule="evenodd" transform="matrix(1 0 0 1 0 0)" d="M221.798 147.071L225.449 147.071L225.449 147.071L225.449 143.42L225.449 143.42L221.798 143.42z" /></clipPath><clipPath id="73"><path id="" clip-rule="evenodd" transform="matrix(1 0 0 1 0 0)" d="M213.886 143.42L217.537 143.42L217.537 143.42L217.537 147.071L217.537 147.071L213.886 147.071z" /></clipPath><clipPath id="74"><path id="" clip-rule="evenodd" transform="matrix(1 0 0 1 0 0)" d="M213.886 147.071L217.537 147.071L217.537 147.071L217.537 143.42L217.537 143.42L213.886 143.42z" /></clipPath><clipPath id="75"><path id="" clip-rule="evenodd" transform="matrix(1 0 0 1 0 0)" d="M213.886 143.42L217.537 143.42L217.537 143.42L217.537 147.071L217.537 147.071L213.886 147.071z" /></clipPath><clipPath id="76"><path id="" clip-rule="evenodd" transform="matrix(1 0 0 1 0 0)" d="M213.886 147.071L217.537 147.071L217.537 147.071L217.537 143.42L217.537 143.42L213.886 143.42z" /></clipPath><clipPath id="77"><path id="" clip-rule="evenodd" transform="matrix(1 0 0 1 0 0)" d="M245.258 143.606L248.471 143.606L248.471 143.606L248.471 146.819L248.471 146.819L245.258 146.819z" /></clipPath><clipPath id="78"><path id="" clip-rule="evenodd" transform="matrix(1 0 0 1 0 0)" d="M245.258 146.819L248.471 146.819L248.471 146.819L248.471 143.606L248.471 143.606L245.258 143.606z" /></clipPath><clipPath id="79"><path id="" clip-rule="evenodd" transform="matrix(1 0 0 1 0 0)" d="M529.586 143.127L533.237 143.127L533.237 143.127L533.237 143.86L533.237 143.86L529.586 143.86z" /></clipPath><clipPath id="80"><path id="" clip-rule="evenodd" transform="matrix(1 0 0 1 0 0)" d="M529.586 143.86L533.237 143.86L533.237 143.86L533.237 143.127L533.237 143.127L529.586 143.127z" /></clipPath><clipPath id="81"><path id="" clip-rule="evenodd" transform="matrix(1 0 0 1 0 0)" d="M529.586 143.127L533.237 143.127L533.237 143.127L533.237 143.86L533.237 143.86L529.586 143.86z" /></clipPath><clipPath id="82"><path id="" clip-rule="evenodd" transform="matrix(1 0 0 1 0 0)" d="M529.586 143.86L533.237 143.86L533.237 143.86L533.237 143.127L533.237 143.127L529.586 143.127z" /></clipPath><clipPath id="83"><path id="" clip-rule="evenodd" transform="matrix(1 0 0 1 0 0)" d="M529.586 144.586L533.237 144.586L533.237 144.586L533.237 145.319L533.237 145.319L529.586 145.319z" /></clipPath><clipPath id="84"><path id="" clip-rule="evenodd" transform="matrix(1 0 0 1 0 0)" d="M529.586 145.319L533.237 145.319L533.237 145.319L533.237 144.586L533.237 144.586L529.586 144.586z" /></clipPath><clipPath id="85"><path id="" clip-rule="evenodd" transform="matrix(1 0 0 1 0 0)" d="M529.586 144.586L533.237 144.586L533.237 144.586L533.237 145.319L533.237 145.319L529.586 145.319z" /></clipPath><clipPath id="86"><path id="" clip-rule="evenodd" transform="matrix(1 0 0 1 0 0)" d="M529.586 145.319L533.237 145.319L533.237 145.319L533.237 144.586L533.237 144.586L529.586 144.586z" /></clipPath><clipPath id="87"><path id="" clip-rule="evenodd" transform="matrix(1 0 0 1 0 0)" d="M529.586 146.045L533.237 146.045L533.237 146.045L533.237 146.778L533.237 146.778L529.586 146.778z" /></clipPath><clipPath id="88"><path id="" clip-rule="evenodd" transform="matrix(1 0 0 1 0 0)" d="M529.586 146.778L533.237 146.778L533.237 146.778L533.237 146.045L533.237 146.045L529.586 146.045z" /></clipPath><clipPath id="89"><path id="" clip-rule="evenodd" transform="matrix(1 0 0 1 0 0)" d="M529.586 146.045L533.237 146.045L533.237 146.045L533.237 146.778L533.237 146.778L529.586 146.778z" /></clipPath><clipPath id="90"><path id="" clip-rule="evenodd" transform="matrix(1 0 0 1 0 0)" d="M529.586 146.778L533.237 146.778L533.237 146.778L533.237 146.045L533.237 146.045L529.586 146.045z" /></clipPath><clipPath id="91"><path id="" clip-rule="evenodd" transform="matrix(1 0 0 1 0 0)" d="M0 841L595.276 841L595.276 841L595.276 -0.8900146L595.276 -0.8900146L0 -0.8900146z" /></clipPath></defs><g transform="matrix(1.333333 0 0 1.333333 0 0)"><g clip-path="url(#1)"><path id="1" transform="matrix(1 0 0 -1 0 841)" d="M347.284 159.898L443.208 159.898L443.208 217.106L347.284 217.106z" stroke="none" fill="#BCBEC0" fill-rule="nonzero" /><path id="54" transform="matrix(1 0 0 -1 0 841)" d="M347.234 218.524L397.552 218.524L397.552 231.644L347.234 231.644z" stroke="none" fill="#FFFFFF" fill-rule="nonzero" /><path id="65" transform="matrix(1 0 0 -1 0 841)" d="M148.284 143.229L333.111 143.229L333.111 217.106L148.284 217.106z" stroke="none" fill="#BBBDC0" fill-rule="nonzero" /><path id="167" transform="matrix(1 0 0 -1 0 841)" d="M168.968 166.9004L255.799 166.9004" stroke="#000000" stroke-width="0.496" fill="none" /><path id="188" transform="matrix(1 0 0 -1 0 841)" d="M148.234 218.524L198.552 218.524L198.552 231.644L148.234 231.644z" stroke="none" fill="#FFFFFF" fill-rule="nonzero" /><path id="199" transform="matrix(1 0 0 -1 0 841)" d="M56.693 148.898L134.111 148.898L134.111 217.106L56.693 217.106z" stroke="none" fill="#BBBDC0" fill-rule="nonzero" /><path id="254" transform="matrix(1 0 0 -1 0 841)" d="M56.643 218.524L106.961 218.524L106.961 231.644L56.643 231.644z" stroke="none" fill="#FFFFFF" fill-rule="nonzero" /><path id="310" transform="matrix(1 0 0 -1 0 841)" d="M57.284 376.63L557.834 376.63L557.834 376.63L557.834 738.448L557.834 738.448L57.284 738.448z" stroke="#000000" stroke-width="1.182" fill="none" /><path id="311" transform="matrix(1 0 0 -1 0 841)" d="M52.441 731.664L107.865 731.664L107.865 744.999L52.441 744.999z" stroke="none" fill="#FFFFFF" fill-rule="nonzero" /><path id="323" transform="matrix(1 0 0 -1 0 841)" d="M56.6929 751.2201L558.4249 751.2201" stroke="#000000" stroke-width="2.364" fill="none" /><path id="395" transform="matrix(1 0 0 -1 0 841)" d="M76.535 294.166L334.488 294.166L334.488 332.039L76.535 332.039z" stroke="none" fill="#E7F2F6" fill-rule="nonzero" /><path id="396" transform="matrix(1 0 0 -1 0 841)" d="M158.886 316.7529L325.401 316.7529" stroke="#000000" stroke-width="1" stroke-linecap="round" stroke-dasharray="1,2" fill="none" /><path id="397" transform="matrix(1 0 0 -1 0 841)" d="M326.9017 316.7529L326.9017 316.7529M155.8857 316.7529L155.8857 316.7529" stroke="#000000" stroke-width="1" stroke-linecap="round" fill="none" /><path id="398" transform="matrix(1 0 0 -1 0 841)" d="M196.6164 300.2529L325.3864 300.2529" stroke="#000000" stroke-width="1" stroke-linecap="round" stroke-dasharray="1,2.03" fill="none" /><path id="399" transform="matrix(1 0 0 -1 0 841)" d="M326.9015 300.2529L326.9015 300.2529M193.5865 300.2529L193.5865 300.2529" stroke="#000000" stroke-width="1" stroke-linecap="round" fill="none" /><path id="448" transform="matrix(1 0 0 -1 0 841)" d="M76.535 249.533L235.125 249.533L235.125 277.039L76.535 277.039z" stroke="none" fill="#C7C8CA" fill-rule="nonzero" /><path id="560" transform="matrix(1 0 0 -1 0 841)" d="M56.693 52.166L300.473 52.166L300.473 101.039L56.693 101.039z" stroke="none" fill="#E6E7E8" fill-rule="nonzero" /><path id="561" transform="matrix(1 0 0 -1 0 841)" d="M152.5555 74.7529L291.3925 74.7529" stroke="#000000" stroke-width="1" stroke-linecap="round" stroke-dasharray="1,1.986" fill="none" /><path id="562" transform="matrix(1 0 0 -1 0 841)" d="M292.8857 74.7529L292.8857 74.7529M149.5697 74.7529L149.5697 74.7529" stroke="#000000" stroke-width="1" stroke-linecap="round" fill="none" /><path id="563" transform="matrix(1 0 0 -1 0 841)" d="M153.6854 58.2529L291.3724 58.2529" stroke="#000000" stroke-width="1" stroke-linecap="round" stroke-dasharray="1,2.026" fill="none" /><path id="564" transform="matrix(1 0 0 -1 0 841)" d="M292.8863 58.2529L292.8863 58.2529M150.6593 58.2529L150.6593 58.2529" stroke="#000000" stroke-width="1" stroke-linecap="round" fill="none" /><path id="622" transform="matrix(1 0 0 -1 0 841)" d="M314.646 52.167L558.426 52.167L558.426 101.039L314.646 101.039z" stroke="none" fill="#E6E7E8" fill-rule="nonzero" /><path id="623" transform="matrix(1 0 0 -1 0 841)" d="M410.5082 74.7529L549.3462 74.7529" stroke="#000000" stroke-width="1" stroke-linecap="round" stroke-dasharray="1,1.986" fill="none" /><path id="624" transform="matrix(1 0 0 -1 0 841)" d="M550.8384 74.7529L550.8384 74.7529M407.5224 74.7529L407.5224 74.7529" stroke="#000000" stroke-width="1" stroke-linecap="round" fill="none" /><path id="625" transform="matrix(1 0 0 -1 0 841)" d="M411.6381 58.2536L549.3251 58.2536" stroke="#000000" stroke-width="1" stroke-linecap="round" stroke-dasharray="1,2.026" fill="none" /><path id="626" transform="matrix(1 0 0 -1 0 841)" d="M550.839 58.2536L550.839 58.2536M408.612 58.2536L408.612 58.2536" stroke="#000000" stroke-width="1" stroke-linecap="round" fill="none" /><g clip-path="url(#2)"><g mask="url(#m1)"><g clip-path="url(#4)"><path id="685" transform="matrix(1 0 0 -1 0 841)" d="M69.236 708.278L548.036 708.278L548.036 377.078L69.236 377.078z" stroke="none" fill="#000000" fill-rule="nonzero" fill-opacity="0.1960784" /></g></g></g><path id="686" transform="matrix(1 0 0 -1 0 841)" d="M71.45 387.041L538.023 387.041L538.023 706.04L71.45 706.04z" stroke="none" fill="#E7F1F6" fill-rule="nonzero" /><g clip-path="url(#5)"><g mask="url(#m2)"><g clip-path="url(#7)"><path id="688" transform="matrix(1 0 0 -1 0 841)" d="M364.79 372.192L562.43 372.192L562.43 226.392L364.79 226.392z" stroke="none" fill="#000000" fill-rule="nonzero" fill-opacity="0.1490196" /></g></g></g><g clip-path="url(#8)"><g transform="matrix(0.5601422 0.009777318 -0.009765636 0.5594729 367.8648 468.8808)"><g transform="matrix(1 0 0 1 0 0)"><image x="0" y="0" xlink:href="img_05.png" width="326" height="236" /></g></g></g><path id="690" transform="matrix(1 0 0 -1 0 841)" d="M369.0773 367.7676L366.9253 244.4726L366.9253 244.4726L366.8903 242.4726L366.8903 242.4726L368.8903 242.4376L368.8903 242.4376L544.8943 239.3656L544.8943 239.3656L546.8943 239.3306L546.8943 239.3306L546.9293 241.3306L546.9293 241.3306L549.0813 364.6256L549.0813 364.6256L549.1163 366.6256L549.1163 366.6256L547.1163 366.6606L547.1163 366.6606L371.1123 369.7326L371.1123 369.7326L369.1123 369.7676L369.1123 369.7676L369.0773 367.7676z" stroke="#FFFFFF" stroke-width="4" fill="none" /><path id="691" transform="matrix(1 0 0 -1 0 841)" d="M78.537 606.879L155.639 606.879L155.639 684.788L78.537 684.788z" stroke="none" fill="#D1D3D4" fill-rule="nonzero" /><path id="693" transform="matrix(1 0 0 -1 0 841)" d="M172.1051 521.517L215.8971 521.517" stroke="#FFEA9F" stroke-width="12" fill="none" /><path id="694" transform="matrix(1 0 0 -1 0 841)" d="M217.9529 521.517L272.3529 521.517" stroke="#FFEA9F" stroke-width="12" fill="none" /><path id="695" transform="matrix(1 0 0 -1 0 841)" d="M228.6163 507.517L262.2403 507.517" stroke="#FFEA9F" stroke-width="12" fill="none" /><path id="696" transform="matrix(1 0 0 -1 0 841)" d="M228.8163 493.517L253.2483 493.517" stroke="#FFEA9F" stroke-width="12" fill="none" /><path id="802" transform="matrix(1 0 0 -1 0 841)" d="M363.4387 521.517L391.7107 521.517" stroke="#FFEA9F" stroke-width="12" fill="none" /><path id="835" transform="matrix(1 0 0 -1 0 841)" d="M165.248 415.4959L203.232 415.4959" stroke="#FFEA9F" stroke-width="12" fill="none" /><path id="836" transform="matrix(1 0 0 -1 0 841)" d="M261.7511 415.4959L300.3191 415.4959" stroke="#FFEA9F" stroke-width="12" fill="none" /><path id="837" transform="matrix(1 0 0 -1 0 841)" d="M165.248 401.4959L199.968 401.4959" stroke="#FFEA9F" stroke-width="12" fill="none" /><path id="838" transform="matrix(1 0 0 -1 0 841)" d="M231.5353 401.4959L275.1193 401.4959" stroke="#FFEA9F" stroke-width="12" fill="none" /><path id="839" transform="matrix(1 0 0 -1 0 841)" d="M319.2383 401.4959L371.6543 401.4959" stroke="#FFEA9F" stroke-width="12" fill="none" /><path id="840" transform="matrix(1 0 0 -1 0 841)" d="M414.4692 401.4959L453.4292 401.4959" stroke="#FFEA9F" stroke-width="12" fill="none" /><path id="967" transform="matrix(1 0 0 -1 0 841)" d="M163.032 553.7474L215.079 553.7474" stroke="#FFEA9F" stroke-width="12" fill="none" /><path id="983" transform="matrix(1 0 0 -1 0 841)" d="M162.992 533.009L531.486 533.009L531.486 547.913L162.992 547.913z" stroke="none" fill="#FFFFFF" fill-rule="nonzero" /><path id="984" transform="matrix(1 0 0 -1 0 841)" d="M170.7357 536.2609L525.2387 536.2609" stroke="#000000" stroke-width="1" stroke-linecap="round" stroke-dasharray="1,1.992" fill="none" /><path id="985" transform="matrix(1 0 0 -1 0 841)" d="M526.7341 536.2609L526.7341 536.2609M167.7441 536.2609L167.7441 536.2609" stroke="#000000" stroke-width="1" stroke-linecap="round" fill="none" /><path id="987" transform="matrix(1 0 0 -1 0 841)" d="M163.032 649.0671L204.063 649.0671" stroke="#FEEA9E" stroke-width="12" fill="none" /><path id="1006" transform="matrix(1 0 0 -1 0 841)" d="M162.992 628.329L531.486 628.329L531.486 643.233L162.992 643.233z" stroke="none" fill="#FFFFFF" fill-rule="nonzero" /><path id="1007" transform="matrix(1 0 0 -1 0 841)" d="M170.7357 631.5806L525.2387 631.5806" stroke="#000000" stroke-width="1" stroke-linecap="round" stroke-dasharray="1,1.992" fill="none" /><path id="1008" transform="matrix(1 0 0 -1 0 841)" d="M526.7341 631.5806L526.7341 631.5806M167.7441 631.5806L167.7441 631.5806" stroke="#000000" stroke-width="1" stroke-linecap="round" fill="none" /><path id="1010" transform="matrix(1 0 0 -1 0 841)" d="M163.032 680.8403L198.671 680.8403" stroke="#FEEA9E" stroke-width="12" fill="none" /><path id="1028" transform="matrix(1 0 0 -1 0 841)" d="M162.992 660.102L531.486 660.102L531.486 675.006L162.992 675.006z" stroke="none" fill="#FFFFFF" fill-rule="nonzero" /><path id="1029" transform="matrix(1 0 0 -1 0 841)" d="M170.7357 663.3538L525.2387 663.3538" stroke="#000000" stroke-width="1" stroke-linecap="round" stroke-dasharray="1,1.992" fill="none" /><path id="1030" transform="matrix(1 0 0 -1 0 841)" d="M526.7341 663.3538L526.7341 663.3538M167.7441 663.3538L167.7441 663.3538" stroke="#000000" stroke-width="1" stroke-linecap="round" fill="none" /><path id="1032" transform="matrix(1 0 0 -1 0 841)" d="M163.032 479.0424L219.935 479.0424" stroke="#FEEA9E" stroke-width="12" fill="none" /><path id="1065" transform="matrix(1 0 0 -1 0 841)" d="M162.992 458.304L531.486 458.304L531.486 473.208L162.992 473.208z" stroke="none" fill="#FFFFFF" fill-rule="nonzero" /><path id="1066" transform="matrix(1 0 0 -1 0 841)" d="M170.7357 461.5559L525.2387 461.5559" stroke="#000000" stroke-width="1" stroke-linecap="round" stroke-dasharray="1,1.992" fill="none" /><path id="1067" transform="matrix(1 0 0 -1 0 841)" d="M526.7341 461.5559L526.7341 461.5559M167.7441 461.5559L167.7441 461.5559" stroke="#000000" stroke-width="1" stroke-linecap="round" fill="none" /><path id="1069" transform="matrix(1 0 0 -1 0 841)" d="M163.032 447.2692L192.712 447.2692" stroke="#FEEA9E" stroke-width="12" fill="none" /><path id="1101" transform="matrix(1 0 0 -1 0 841)" d="M162.992 426.531L531.486 426.531L531.486 441.435L162.992 441.435z" stroke="none" fill="#FFFFFF" fill-rule="nonzero" /><path id="1102" transform="matrix(1 0 0 -1 0 841)" d="M170.7357 429.7827L525.2387 429.7827" stroke="#000000" stroke-width="1" stroke-linecap="round" stroke-dasharray="1,1.992" fill="none" /><path id="1103" transform="matrix(1 0 0 -1 0 841)" d="M526.7341 429.7827L526.7341 429.7827M167.7441 429.7827L167.7441 429.7827" stroke="#000000" stroke-width="1" stroke-linecap="round" fill="none" /><g clip-path="url(#9)"><path id="1105" transform="matrix(1 0 0 -1 0 841)" d="M399.1623 700.2178L399.1623 703.3978C 399.1623 704.8508 397.9483 706.0398 396.4653 706.0398L396.4653 706.0398L74.16928 706.0398C 72.6853 706.0398 71.47229 704.8508 71.47229 703.3978L71.47229 703.3978L71.47229 700.2178L71.47229 700.2178L71.45428 700.2178L71.45428 700.2178L71.45428 691.8568L71.45428 691.8568L399.1813 691.8568L399.1813 691.8568L399.1813 700.2178z" stroke="none" fill="#FFFFFF" fill-rule="nonzero" /><path id="1106" transform="matrix(1 0 0 -1 0 841)" d="M396.4652 706.0394L74.16922 706.0394C 72.68521 706.0394 71.4722 704.8514 71.4722 703.3984L71.4722 703.3984L71.4722 700.1994L71.4722 700.1994L399.1622 700.1994L399.1622 700.1994L399.1622 703.3984C 399.1622 704.8514 397.9482 706.0394 396.4652 706.0394" stroke="none" fill="#F1F0F1" fill-rule="nonzero" /><path id="1107" transform="matrix(1 0 0 -1 0 841)" d="M396.4652 706.0394L74.16922 706.0394C 72.68521 706.0394 71.4722 704.8514 71.4722 703.3984L71.4722 703.3984L71.4722 700.1994L71.4722 700.1994L399.1622 700.1994L399.1622 700.1994L399.1622 703.3984C 399.1622 704.8514 397.9482 706.0394 396.4652 706.0394z" stroke="#DADBDC" stroke-width="0.037" fill="none" /><path id="1108" transform="matrix(1 0 0 -1 0 841)" d="M77.5087 703.0725C 77.5087 702.3465 76.9207 701.7585 76.19469 701.7585C 75.4687 701.7585 74.8797 702.3465 74.8797 703.0725C 74.8797 703.7985 75.4687 704.3875 76.19469 704.3875C 76.9207 704.3875 77.5087 703.7985 77.5087 703.0725" stroke="none" fill="#ED422F" fill-rule="nonzero" /><path id="1109" transform="matrix(1 0 0 -1 0 841)" d="M77.5087 703.0725C 77.5087 702.3465 76.9207 701.7585 76.19469 701.7585C 75.4687 701.7585 74.8797 702.3465 74.8797 703.0725C 74.8797 703.7985 75.4687 704.3875 76.19469 704.3875C 76.9207 704.3875 77.5087 703.7985 77.5087 703.0725z" stroke="#DC3B2D" stroke-width="0.146" fill="none" /><path id="1110" transform="matrix(1 0 0 -1 0 841)" d="M82.9246 703.0725C 82.9246 702.3465 82.3356 701.7585 81.6106 701.7585C 80.8836 701.7585 80.2956 702.3465 80.2956 703.0725C 80.2956 703.7985 80.8836 704.3875 81.6106 704.3875C 82.3356 704.3875 82.9246 703.7985 82.9246 703.0725" stroke="none" fill="#FAA31B" fill-rule="nonzero" /><path id="1111" transform="matrix(1 0 0 -1 0 841)" d="M82.9246 703.0725C 82.9246 702.3465 82.3356 701.7585 81.6106 701.7585C 80.8836 701.7585 80.2956 702.3465 80.2956 703.0725C 80.2956 703.7985 80.8836 704.3875 81.6106 704.3875C 82.3356 704.3875 82.9246 703.7985 82.9246 703.0725z" stroke="#E89324" stroke-width="0.146" fill="none" /><path id="1112" transform="matrix(1 0 0 -1 0 841)" d="M88.3405 703.0725C 88.3405 702.3465 87.7525 701.7585 87.0255 701.7585C 86.2995 701.7585 85.7115 702.3465 85.7115 703.0725C 85.7115 703.7985 86.2995 704.3875 87.0255 704.3875C 87.7525 704.3875 88.3405 703.7985 88.3405 703.0725" stroke="none" fill="#7FC342" fill-rule="nonzero" /><path id="1113" transform="matrix(1 0 0 -1 0 841)" d="M88.3405 703.0725C 88.3405 702.3465 87.7525 701.7585 87.0255 701.7585C 86.2995 701.7585 85.7115 702.3465 85.7115 703.0725C 85.7115 703.7985 86.2995 704.3875 87.0255 704.3875C 87.7525 704.3875 88.3405 703.7985 88.3405 703.0725z" stroke="#6EBE45" stroke-width="0.146" fill="none" /><g><g clip-path="url(#10)"><g clip-path="url(#11)"></g></g></g><g><g clip-path="url(#12)"><g clip-path="url(#13)"></g></g></g><g><g clip-path="url(#14)"><g clip-path="url(#15)"></g></g></g><g><g clip-path="url(#16)"><g clip-path="url(#17)"></g></g></g><g><g clip-path="url(#18)"><g clip-path="url(#19)"><path id="1118" transform="matrix(1 0 0 -1 0 841)" d="M71.472 691.875L399.162 691.875L399.162 700.2L71.472 700.2z" stroke="none" fill="#EBEAEB" fill-rule="nonzero" /><path id="1119" transform="matrix(1 0 0 -1 0 841)" d="M71.4721 691.8751L399.1621 691.8751L399.1621 691.8751L399.1621 700.2001L399.1621 700.2001L71.4721 700.2001z" stroke="#D9DADC" stroke-width="0.037" fill="none" /></g></g></g><path id="1120" transform="matrix(1 0 0 -1 0 841)" d="M386.0205 694.8465C 386.0205 694.0555 385.3825 693.4085 384.6035 693.4085L384.6035 693.4085L105.8985 693.4085C 105.1195 693.4085 104.4815 694.0555 104.4815 694.8465L104.4815 694.8465L104.4815 697.2285C 104.4815 698.0195 105.1195 698.6665 105.8985 698.6665L105.8985 698.6665L384.6035 698.6665C 385.3825 698.6665 386.0205 698.0195 386.0205 697.2285z" stroke="none" fill="#FFFFFF" fill-rule="nonzero" /><g><g clip-path="url(#20)"><g clip-path="url(#21)"><path id="1121" transform="matrix(1 0 0 -1 0 841)" d="M100.8055 695.4573L100.0935 696.1713L100.0935 697.2422L99.6185 697.2422L99.6185 696.6473L98.90649 697.3613L97.0085 695.4573L97.0085 695.3383L97.4825 695.3383L97.4825 694.1483L98.66949 694.1483L98.66949 694.8623L99.14449 694.8623L99.14449 694.1483L100.3305 694.1483L100.3305 695.3383L100.8055 695.3383z" stroke="none" fill="#243638" fill-rule="nonzero" /></g></g></g><g><g clip-path="url(#22)"><g clip-path="url(#23)"><path id="1122" transform="matrix(1 0 0 -1 0 841)" d="M100.8055 695.4573L100.0935 696.1713L100.0935 697.2422L99.6185 697.2422L99.6185 696.6473L98.90649 697.3613L97.0085 695.4573L97.0085 695.3383L97.4825 695.3383L97.4825 694.1483L98.66949 694.1483L98.66949 694.8623L99.14449 694.8623L99.14449 694.1483L100.3305 694.1483L100.3305 695.3383L100.8055 695.3383z" stroke="none" fill="#243638" fill-rule="nonzero" /></g></g></g><g><g clip-path="url(#24)"><g clip-path="url(#25)"><path id="1123" transform="matrix(1 0 0 -1 0 841)" d="M93.5179 696.1564L92.3129 696.1564L92.3129 696.1564L92.7629 696.6064C 92.5359 696.8344 92.23289 696.9594 91.9119 696.9594C 91.5899 696.9594 91.2869 696.8344 91.0589 696.6064C 90.8319 696.3794 90.7059 696.0764 90.7059 695.7554C 90.7059 695.4333 90.8319 695.1304 91.0589 694.9023C 91.2869 694.6754 91.5899 694.5504 91.9119 694.5504C 92.23289 694.5504 92.5359 694.6754 92.7629 694.9023C 92.7819 694.9214 92.8009 694.9413 92.8179 694.9614L92.8179 694.9614L93.1209 694.6974C 92.8259 694.3604 92.3939 694.1484 91.9119 694.1484C 91.0239 694.1484 90.3049 694.8674 90.3049 695.7554C 90.3049 696.6424 91.0239 697.3614 91.9119 697.3614C 92.3549 697.3614 92.7569 697.1814 93.0469 696.8904L93.0469 696.8904L93.5179 697.3614z" stroke="none" fill="#243638" fill-rule="nonzero" /></g></g></g><g><g clip-path="url(#26)"><g clip-path="url(#27)"><path id="1124" transform="matrix(1 0 0 -1 0 841)" d="M93.5179 696.1564L92.3129 696.1564L92.3129 696.1564L92.7629 696.6064C 92.5359 696.8344 92.23289 696.9594 91.9119 696.9594C 91.5899 696.9594 91.2869 696.8344 91.0589 696.6064C 90.8319 696.3794 90.7059 696.0764 90.7059 695.7554C 90.7059 695.4333 90.8319 695.1304 91.0589 694.9023C 91.2869 694.6754 91.5899 694.5504 91.9119 694.5504C 92.23289 694.5504 92.5359 694.6754 92.7629 694.9023C 92.7819 694.9214 92.8009 694.9413 92.8179 694.9614L92.8179 694.9614L93.1209 694.6974C 92.8259 694.3604 92.3939 694.1484 91.9119 694.1484C 91.0239 694.1484 90.3049 694.8674 90.3049 695.7554C 90.3049 696.6424 91.0239 697.3614 91.9119 697.3614C 92.3549 697.3614 92.7569 697.1814 93.0469 696.8904L93.0469 696.8904L93.5179 697.3614z" stroke="none" fill="#243638" fill-rule="nonzero" /></g></g></g><g><g clip-path="url(#28)"><g clip-path="url(#29)"><path id="1125" transform="matrix(1 0 0 -1 0 841)" d="M86.6077 695.7549L84.7827 697.5809L84.7827 696.4399L82.9567 696.4399L82.9567 695.0699L84.7827 695.0699L84.7827 693.9289z" stroke="none" fill="#243638" fill-rule="nonzero" /></g></g></g><g><g clip-path="url(#30)"><g clip-path="url(#31)"><path id="1126" transform="matrix(1 0 0 -1 0 841)" d="M86.6077 695.7549L84.7827 697.5809L84.7827 696.4399L82.9567 696.4399L82.9567 695.0699L84.7827 695.0699L84.7827 693.9289z" stroke="none" fill="#243638" fill-rule="nonzero" /></g></g></g><g><g clip-path="url(#32)"><g clip-path="url(#33)"><path id="1127" transform="matrix(1 0 0 -1 0 841)" d="M75.0444 695.7549L76.8704 693.9289L76.8704 695.0699L78.6954 695.0699L78.6954 696.4399L76.8704 696.4399L76.8704 697.5809z" stroke="none" fill="#243638" fill-rule="nonzero" /></g></g></g><g><g clip-path="url(#34)"><g clip-path="url(#35)"><path id="1128" transform="matrix(1 0 0 -1 0 841)" d="M75.0444 695.7549L76.8704 693.9289L76.8704 695.0699L78.6954 695.0699L78.6954 696.4399L76.8704 696.4399L76.8704 697.5809z" stroke="none" fill="#243638" fill-rule="nonzero" /></g></g></g><path id="1129" transform="matrix(1 0 0 -1 0 841)" d="M108.7587 695.178L108.7617 695.182C 108.7787 695.202 108.7957 695.222 108.8117 695.242L108.8117 695.242L108.8157 695.247L108.8157 695.247L108.8217 695.255C 108.9967 695.488 109.0897 695.765 109.0897 696.058C 109.0897 696.414 108.9507 696.75 108.6977 697.003C 108.4457 697.255 108.1097 697.394 107.7527 697.394C 107.3957 697.394 107.0607 697.255 106.8087 697.003C 106.5557 696.75 106.4167 696.414 106.4167 696.058C 106.4167 695.701 106.5557 695.365 106.8087 695.113C 107.0607 694.86 107.3957 694.721 107.7527 694.721C 108.0477 694.721 108.3377 694.82 108.5697 695C 108.5897 695.016 108.6097 695.032 108.6287 695.049L108.6287 695.049L108.6327 695.052L108.6327 695.052L108.6367 695.055C 108.6597 695.076 108.6797 695.094 108.6977 695.113C 108.7167 695.131 108.7357 695.151 108.7547 695.173zM108.4897 695.321C 108.2937 695.124 108.0317 695.015 107.7527 695.015C 107.4747 695.015 107.2127 695.124 107.0167 695.321C 106.8197 695.518 106.7107 695.779 106.7107 696.057C 106.7107 696.336 106.8197 696.598 107.0157 696.795C 107.2127 696.991 107.4747 697.1 107.7527 697.1C 108.0317 697.1 108.2937 696.991 108.4907 696.795C 108.6867 696.598 108.7957 696.336 108.7957 696.058C 108.7957 695.779 108.6867 695.518 108.4897 695.321M109.6267 694.502L109.5877 694.541L109.5877 694.541L109.5877 694.541L109.5877 694.541L109.1557 694.973C 109.1537 694.976 109.1507 694.976 109.1487 694.976C 109.1477 694.976 109.1447 694.976 109.1417 694.973L109.1417 694.973L109.1277 694.959L109.1277 694.959L108.9237 694.755L108.9237 694.755L108.8377 694.668C 108.8357 694.666 108.8347 694.664 108.8347 694.661C 108.8347 694.659 108.8357 694.657 108.8377 694.655L108.8377 694.655L109.3087 694.183C 109.3107 694.182 109.3127 694.181 109.3157 694.181C 109.3167 694.181 109.3197 694.181 109.3217 694.183L109.3217 694.183L109.4747 694.336L109.4747 694.336L109.6267 694.489C 109.6287 694.49 109.6297 694.493 109.6297 694.495C 109.6297 694.498 109.6287 694.5 109.6267 694.502M108.9717 694.998L108.8717 695.098C 108.8677 695.093 108.8637 695.088 108.8587 695.083L108.8587 695.083L108.8577 695.081L108.8577 695.081L108.8547 695.078C 108.8337 695.054 108.8147 695.034 108.7957 695.015C 108.7767 694.997 108.7577 694.978 108.7327 694.956L108.7327 694.956L108.7327 694.955L108.7327 694.955L108.7297 694.953C 108.7247 694.949 108.7187 694.944 108.7127 694.939L108.7127 694.939L108.8127 694.839L108.8127 694.839L108.8927 694.919z" stroke="none" fill="#FFFFFF" fill-rule="nonzero" /><g><g clip-path="url(#36)"><g clip-path="url(#37)"><path id="1130" transform="matrix(1 0 0 -1 0 841)" d="M108.7587 695.178L108.7617 695.182C 108.7787 695.202 108.7957 695.222 108.8117 695.242L108.8117 695.242L108.8157 695.247L108.8157 695.247L108.8217 695.255C 108.9967 695.488 109.0897 695.765 109.0897 696.058C 109.0897 696.414 108.9507 696.75 108.6977 697.003C 108.4457 697.255 108.1097 697.394 107.7527 697.394C 107.3957 697.394 107.0607 697.255 106.8087 697.003C 106.5557 696.75 106.4167 696.414 106.4167 696.058C 106.4167 695.701 106.5557 695.365 106.8087 695.113C 107.0607 694.86 107.3957 694.721 107.7527 694.721C 108.0477 694.721 108.3377 694.82 108.5697 695C 108.5897 695.016 108.6097 695.032 108.6287 695.049L108.6287 695.049L108.6327 695.052L108.6327 695.052L108.6367 695.055C 108.6597 695.076 108.6797 695.094 108.6977 695.113C 108.7167 695.131 108.7357 695.151 108.7547 695.173zM108.4897 695.321C 108.2937 695.124 108.0317 695.015 107.7527 695.015C 107.4747 695.015 107.2127 695.124 107.0167 695.321C 106.8197 695.518 106.7107 695.779 106.7107 696.057C 106.7107 696.336 106.8197 696.598 107.0157 696.795C 107.2127 696.991 107.4747 697.1 107.7527 697.1C 108.0317 697.1 108.2937 696.991 108.4907 696.795C 108.6867 696.598 108.7957 696.336 108.7957 696.058C 108.7957 695.779 108.6867 695.518 108.4897 695.321M109.6267 694.502L109.5877 694.541L109.5877 694.541L109.5877 694.541L109.5877 694.541L109.1557 694.973C 109.1537 694.976 109.1507 694.976 109.1487 694.976C 109.1477 694.976 109.1447 694.976 109.1417 694.973L109.1417 694.973L109.1277 694.959L109.1277 694.959L108.9237 694.755L108.9237 694.755L108.8377 694.668C 108.8357 694.666 108.8347 694.664 108.8347 694.661C 108.8347 694.659 108.8357 694.657 108.8377 694.655L108.8377 694.655L109.3087 694.183C 109.3107 694.182 109.3127 694.181 109.3157 694.181C 109.3167 694.181 109.3197 694.181 109.3217 694.183L109.3217 694.183L109.4747 694.336L109.4747 694.336L109.6267 694.489C 109.6287 694.49 109.6297 694.493 109.6297 694.495C 109.6297 694.498 109.6287 694.5 109.6267 694.502M108.9717 694.998L108.8717 695.098C 108.8677 695.093 108.8637 695.088 108.8587 695.083L108.8587 695.083L108.8577 695.081L108.8577 695.081L108.8547 695.078C 108.8337 695.054 108.8147 695.034 108.7957 695.015C 108.7767 694.997 108.7577 694.978 108.7327 694.956L108.7327 694.956L108.7327 694.955L108.7327 694.955L108.7297 694.953C 108.7247 694.949 108.7187 694.944 108.7127 694.939L108.7127 694.939L108.8127 694.839L108.8127 694.839L108.8927 694.919z" stroke="none" fill="#243638" fill-rule="nonzero" /></g></g></g><g><g clip-path="url(#38)"><g clip-path="url(#39)"></g></g></g><g><g clip-path="url(#40)"><g clip-path="url(#41)"></g></g></g><g><g clip-path="url(#42)"><g clip-path="url(#43)"></g></g></g><g><g clip-path="url(#44)"><g clip-path="url(#45)"></g></g></g><g><g clip-path="url(#46)"><g clip-path="url(#47)"></g></g></g><g><g clip-path="url(#48)"><g clip-path="url(#49)"></g></g></g></g><g clip-path="url(#50)"><path id="1137" transform="matrix(1 0 0 -1 0 841)" d="M538.0039 700.2178L538.0039 703.3978C 538.0039 704.8508 536.7899 706.0398 535.3069 706.0398L535.3069 706.0398L213.0109 706.0398C 211.5269 706.0398 210.3139 704.8508 210.3139 703.3978L210.3139 703.3978L210.3139 700.2178L210.3139 700.2178L210.2959 700.2178L210.2959 700.2178L210.2959 691.8568L210.2959 691.8568L538.0229 691.8568L538.0229 691.8568L538.0229 700.2178z" stroke="none" fill="#FFFFFF" fill-rule="nonzero" /><path id="1138" transform="matrix(1 0 0 -1 0 841)" d="M535.3068 706.0394L213.0108 706.0394C 211.5268 706.0394 210.3138 704.8514 210.3138 703.3984L210.3138 703.3984L210.3138 700.1994L210.3138 700.1994L538.0038 700.1994L538.0038 700.1994L538.0038 703.3984C 538.0038 704.8514 536.7898 706.0394 535.3068 706.0394" stroke="none" fill="#F0F0F1" fill-rule="nonzero" /><path id="1139" transform="matrix(1 0 0 -1 0 841)" d="M535.3068 706.0394L213.0108 706.0394C 211.5268 706.0394 210.3138 704.8514 210.3138 703.3984L210.3138 703.3984L210.3138 700.1994L210.3138 700.1994L538.0038 700.1994L538.0038 700.1994L538.0038 703.3984C 538.0038 704.8514 536.7898 706.0394 535.3068 706.0394z" stroke="#D9DADC" stroke-width="0.037" fill="none" /><g><g clip-path="url(#51)"><g clip-path="url(#52)"><path id="1146" transform="matrix(1 0 0 -1 0 841)" d="M535.8929 704.3673L535.8929 702.9643L535.3529 703.5043L534.7049 702.8563L534.3819 703.1803L535.0289 703.8273L534.4899 704.3673z" stroke="none" fill="#243638" fill-rule="nonzero" /></g></g></g><g><g clip-path="url(#53)"><g clip-path="url(#54)"><path id="1147" transform="matrix(1 0 0 -1 0 841)" d="M535.8929 704.3673L535.8929 702.9643L535.3529 703.5043L534.7049 702.8563L534.3819 703.1803L535.0289 703.8273L534.4899 704.3673z" stroke="none" fill="#243638" fill-rule="nonzero" /></g></g></g><g><g clip-path="url(#55)"><g clip-path="url(#56)"><path id="1148" transform="matrix(1 0 0 -1 0 841)" d="M534.3748 702.5257L533.7268 701.8777L534.2668 701.3387L532.8638 701.3387L532.8638 702.7417L533.4038 702.2017L534.0508 702.8497z" stroke="none" fill="#243638" fill-rule="nonzero" /></g></g></g><g><g clip-path="url(#57)"><g clip-path="url(#58)"><path id="1149" transform="matrix(1 0 0 -1 0 841)" d="M534.3748 702.5257L533.7268 701.8777L534.2668 701.3387L532.8638 701.3387L532.8638 702.7417L533.4038 702.2017L534.0508 702.8497z" stroke="none" fill="#243638" fill-rule="nonzero" /></g></g></g><g><g clip-path="url(#59)"><g clip-path="url(#60)"><path id="1150" transform="matrix(1 0 0 -1 0 841)" d="M210.314 691.875L538.004 691.875L538.004 700.2L210.314 700.2z" stroke="none" fill="#EBEAEB" fill-rule="nonzero" /><path id="1151" transform="matrix(1 0 0 -1 0 841)" d="M210.3137 691.8751L538.0037 691.8751L538.0037 691.8751L538.0037 700.2001L538.0037 700.2001L210.3137 700.2001z" stroke="#D9DADC" stroke-width="0.037" fill="none" /></g></g></g><path id="1152" transform="matrix(1 0 0 -1 0 841)" d="M524.8621 694.8465C 524.8621 694.0555 524.2241 693.4085 523.4451 693.4085L523.4451 693.4085L244.7401 693.4085C 243.9611 693.4085 243.3231 694.0555 243.3231 694.8465L243.3231 694.8465L243.3231 697.2285C 243.3231 698.0195 243.9611 698.6665 244.7401 698.6665L244.7401 698.6665L523.4451 698.6665C 524.2241 698.6665 524.8621 698.0195 524.8621 697.2285z" stroke="none" fill="#FFFFFF" fill-rule="nonzero" /><g><g clip-path="url(#61)"><g clip-path="url(#62)"></g></g></g><g><g clip-path="url(#63)"><g clip-path="url(#64)"></g></g></g><g><g clip-path="url(#65)"><g clip-path="url(#66)"></g></g></g><g><g clip-path="url(#67)"><g clip-path="url(#68)"></g></g></g><g><g clip-path="url(#69)"><g clip-path="url(#70)"></g></g></g><g><g clip-path="url(#71)"><g clip-path="url(#72)"></g></g></g><g><g clip-path="url(#73)"><g clip-path="url(#74)"></g></g></g><g><g clip-path="url(#75)"><g clip-path="url(#76)"></g></g></g><g><g clip-path="url(#77)"><g clip-path="url(#78)"></g></g></g><g><g clip-path="url(#79)"><g clip-path="url(#80)"><path id="1163" transform="matrix(1 0 0 -1 0 841)" d="M533.236 697.14L529.585 697.14L529.585 697.873L533.236 697.873z" stroke="none" fill="#243638" fill-rule="nonzero" /></g></g></g><g><g clip-path="url(#81)"><g clip-path="url(#82)"><path id="1164" transform="matrix(1 0 0 -1 0 841)" d="M533.236 697.14L529.585 697.14L529.585 697.873L533.236 697.873z" stroke="none" fill="#243638" fill-rule="nonzero" /></g></g></g><g><g clip-path="url(#83)"><g clip-path="url(#84)"><path id="1165" transform="matrix(1 0 0 -1 0 841)" d="M533.236 695.681L529.585 695.681L529.585 696.414L533.236 696.414z" stroke="none" fill="#243638" fill-rule="nonzero" /></g></g></g><g><g clip-path="url(#85)"><g clip-path="url(#86)"><path id="1166" transform="matrix(1 0 0 -1 0 841)" d="M533.236 695.681L529.585 695.681L529.585 696.414L533.236 696.414z" stroke="none" fill="#243638" fill-rule="nonzero" /></g></g></g><g><g clip-path="url(#87)"><g clip-path="url(#88)"><path id="1167" transform="matrix(1 0 0 -1 0 841)" d="M533.236 694.222L529.585 694.222L529.585 694.955L533.236 694.955z" stroke="none" fill="#243638" fill-rule="nonzero" /></g></g></g><g><g clip-path="url(#89)"><g clip-path="url(#90)"><path id="1168" transform="matrix(1 0 0 -1 0 841)" d="M533.236 694.222L529.585 694.222L529.585 694.955L533.236 694.955z" stroke="none" fill="#243638" fill-rule="nonzero" /></g></g></g></g><path id="1169" transform="matrix(1 0 0 -1 0 841)" d="M162.992 596.555L531.486 596.555L531.486 611.459L162.992 611.459z" stroke="none" fill="#FFFFFF" fill-rule="nonzero" /><path id="1170" transform="matrix(1 0 0 -1 0 841)" d="M170.7357 599.8073L525.2387 599.8073" stroke="#000000" stroke-width="1" stroke-linecap="round" stroke-dasharray="1,1.992" fill="none" /><path id="1171" transform="matrix(1 0 0 -1 0 841)" d="M526.7341 599.8073L526.7341 599.8073M167.7441 599.8073L167.7441 599.8073" stroke="#000000" stroke-width="1" stroke-linecap="round" fill="none" /><path id="1173" transform="matrix(1 0 0 -1 0 841)" d="M163.032 617.2939L259.639 617.2939" stroke="#FEEA9E" stroke-width="12" fill="none" /><path id="1199" transform="matrix(1 0 0 -1 0 841)" d="M162.992 564.782L531.486 564.782L531.486 579.686L162.992 579.686z" stroke="none" fill="#FFFFFF" fill-rule="nonzero" /><path id="1200" transform="matrix(1 0 0 -1 0 841)" d="M170.7357 568.0341L525.2387 568.0341" stroke="#000000" stroke-width="1" stroke-linecap="round" stroke-dasharray="1,1.992" fill="none" /><path id="1201" transform="matrix(1 0 0 -1 0 841)" d="M526.7341 568.0341L526.7341 568.0341M167.7441 568.0341L167.7441 568.0341" stroke="#000000" stroke-width="1" stroke-linecap="round" fill="none" /><path id="1234" transform="matrix(1 0 0 -1 0 841)" d="M56.643 783.039L558.425 783.039L558.425 805.039L56.643 805.039z" stroke="none" fill="#000000" fill-rule="nonzero" /><g clip-path="url(#91)"><path id="1257" transform="matrix(1 0 0 -1 0 841)" d="M0 34.7906L558.425 34.7906" stroke="#000000" stroke-width="0.5" fill="none" /></g></g></g></svg>