<svg xmlns="http://www.w3.org/2000/svg" xmlns:xlink="http://www.w3.org/1999/xlink" id="body_4" preserveAspectRatio="xMinYMin meet" viewBox="0 0 793 1121"><defs><clipPath id="1"><path id="" clip-rule="evenodd" transform="matrix(1 0 0 1 0 0)" d="M0 841L0 -0.8900146L0 -0.8900146L595.276 -0.8900146L595.276 -0.8900146L595.276 841L595.276 841L0 841z" /></clipPath><clipPath id="2"><path id="" clip-rule="evenodd" transform="matrix(1 0 0 1 0 0)" d="M0 841L595.276 841L595.276 841L595.276 -0.8900146L595.276 -0.8900146L0 -0.8900146z" /></clipPath><clipPath id="3"><path id="" clip-rule="evenodd" transform="matrix(1 0 0 1 0 0)" d="M0 841L595.276 841L595.276 841L595.276 -0.8900146L595.276 -0.8900146L0 -0.8900146z" /></clipPath><mask id="m1"><clipPath id="4"><path id="" clip-rule="evenodd" transform="matrix(1 0 0 1 0 0)" d="M50.1358 93.46899L573.216 93.46899L573.216 93.46899L573.216 400.909L573.216 400.909L50.1358 400.909z" /></clipPath><g><g><g clip-path="url(#4)"><g transform="matrix(0.5998625 0 0 0.5992983 50.1358 93.46924)"><g transform="matrix(1 0 0 1 0 0)"><image x="0" y="0" xlink:href="img_15.png" width="872" height="513" /></g></g></g></g></g></mask><clipPath id="5"><path id="" clip-rule="evenodd" transform="matrix(1 0 0 1 0 0)" d="M52.2958 95.62903L570.696 95.62903L570.696 95.62903L570.696 398.389L570.696 398.389L52.2958 398.389z" /></clipPath><clipPath id="6"><path id="" clip-rule="evenodd" transform="matrix(1 0 0 1 0 0)" d="M57.289 206.602L54.27 379.557L54.27 379.557L555.926 388.313L555.926 388.313L560.847 106.361L560.847 106.361L59.192 97.604z" /></clipPath><clipPath id="7"><path id="" clip-rule="evenodd" transform="matrix(1 0 0 1 0 0)" d="M0 841L595.276 841L595.276 841L595.276 -0.8900146L595.276 -0.8900146L0 -0.8900146z" /></clipPath><clipPath id="8"><path id="" clip-rule="evenodd" transform="matrix(1 0 0 1 0 0)" d="M53.2531 256.625L559.072 256.625L559.072 256.625L559.072 389.33L559.072 389.33L53.2531 389.33z" /></clipPath><mask id="m2"><clipPath id="9"><path id="" clip-rule="evenodd" transform="matrix(1 0 0 1 0 0)" d="M-32768 -31926L32767 -31926L32767 -31926L32767 33609L32767 33609L-32768 33609z" /></clipPath><linearGradient gradientUnits="userSpaceOnUse" transform="matrix(1 0 0 1 0 0)" id="2218" x1="304.7042" y1="458.0171" x2="306.8157" y2="578.9864"><stop stop-color="#FFFFFF" offset="0%" /><stop stop-color="#FCFCFC" offset="1%" /><stop stop-color="#FAFAFA" offset="2%" /><stop stop-color="#F7F7F7" offset="3%" /><stop stop-color="#F5F5F5" offset="4%" /><stop stop-color="#F2F2F2" offset="5%" /><stop stop-color="#F0F0F0" offset="6%" /><stop stop-color="#EDEDED" offset="7%" /><stop stop-color="#EBEBEB" offset="8%" /><stop stop-color="#E8E8E8" offset="9%" /><stop stop-color="#E6E6E6" offset="10%" /><stop stop-color="#E3E3E3" offset="11%" /><stop stop-color="#E0E0E0" offset="12%" /><stop stop-color="#DEDEDE" offset="13%" /><stop stop-color="#DBDBDB" offset="14%" /><stop stop-color="#D9D9D9" offset="15%" /><stop stop-color="#D6D6D6" offset="16%" /><stop stop-color="#D4D4D4" offset="17%" /><stop stop-color="#D1D1D1" offset="18%" /><stop stop-color="#CFCFCF" offset="19%" /><stop stop-color="#CCCCCC" offset="20%" /><stop stop-color="#C9C9C9" offset="21%" /><stop stop-color="#C7C7C7" offset="22%" /><stop stop-color="#C4C4C4" offset="23%" /><stop stop-color="#C2C2C2" offset="24%" /><stop stop-color="#BFBFBF" offset="25%" /><stop stop-color="#BDBDBD" offset="26%" /><stop stop-color="#BABABA" offset="27%" /><stop stop-color="#B8B8B8" offset="28%" /><stop stop-color="#B5B5B5" offset="29%" /><stop stop-color="#B3B3B3" offset="30%" /><stop stop-color="#B0B0B0" offset="31%" /><stop stop-color="#ADADAD" offset="32%" /><stop stop-color="#ABABAB" offset="33%" /><stop stop-color="#A8A8A8" offset="34%" /><stop stop-color="#A6A6A6" offset="35%" /><stop stop-color="#A3A3A3" offset="36%" /><stop stop-color="#A1A1A1" offset="37%" /><stop stop-color="#9E9E9E" offset="38%" /><stop stop-color="#9C9C9C" offset="39%" /><stop stop-color="#999999" offset="40%" /><stop stop-color="#969696" offset="41%" /><stop stop-color="#949494" offset="42%" /><stop stop-color="#919191" offset="43%" /><stop stop-color="#8F8F8F" offset="44%" /><stop stop-color="#8C8C8C" offset="45%" /><stop stop-color="#8A8A8A" offset="46%" /><stop stop-color="#878787" offset="47%" /><stop stop-color="#858585" offset="48%" /><stop stop-color="#828282" offset="49%" /><stop stop-color="#808080" offset="50%" /><stop stop-color="#7D7D7D" offset="51%" /><stop stop-color="#7A7A7A" offset="52%" /><stop stop-color="#787878" offset="53%" /><stop stop-color="#757575" offset="54%" /><stop stop-color="#737373" offset="55%" /><stop stop-color="#707070" offset="56%" /><stop stop-color="#6E6E6E" offset="57%" /><stop stop-color="#6B6B6B" offset="58%" /><stop stop-color="#696969" offset="59%" /><stop stop-color="#666666" offset="60%" /><stop stop-color="#636363" offset="61%" /><stop stop-color="#616161" offset="62%" /><stop stop-color="#5E5E5E" offset="63%" /><stop stop-color="#5C5C5C" offset="64%" /><stop stop-color="#595959" offset="65%" /><stop stop-color="#575757" offset="66%" /><stop stop-color="#545454" offset="67%" /><stop stop-color="#525252" offset="68%" /><stop stop-color="#4F4F4F" offset="69%" /><stop stop-color="#4D4D4D" offset="70%" /><stop stop-color="#4A4A4A" offset="71%" /><stop stop-color="#474747" offset="72%" /><stop stop-color="#454545" offset="73%" /><stop stop-color="#424242" offset="74%" /><stop stop-color="#404040" offset="75%" /><stop stop-color="#3D3D3D" offset="76%" /><stop stop-color="#3B3B3B" offset="77%" /><stop stop-color="#383838" offset="78%" /><stop stop-color="#363636" offset="79%" /><stop stop-color="#333333" offset="80%" /><stop stop-color="#303030" offset="81%" /><stop stop-color="#2E2E2E" offset="82%" /><stop stop-color="#2B2B2B" offset="83%" /><stop stop-color="#292929" offset="84%" /><stop stop-color="#262626" offset="85%" /><stop stop-color="#242424" offset="86%" /><stop stop-color="#212121" offset="87%" /><stop stop-color="#1F1F1F" offset="88%" /><stop stop-color="#1C1C1C" offset="89%" /><stop stop-color="#1A1A1A" offset="90%" /><stop stop-color="#171717" offset="91%" /><stop stop-color="#141414" offset="92%" /><stop stop-color="#121212" offset="93%" /><stop stop-color="#0F0F0F" offset="94%" /><stop stop-color="#0D0D0D" offset="95%" /><stop stop-color="#0A0A0A" offset="96%" /><stop stop-color="#080808" offset="97%" /><stop stop-color="#050505" offset="98%" /><stop stop-color="#030303" offset="99%" /><stop stop-color="#000000" offset="100%" /></linearGradient><g><g><g clip-path="url(#9)"><g><path id="374" transform="matrix(1 0 0 -1 0 841)" d="M0 463L595 453L595 453L595 574L595 574L0 584" stroke="none" fill="url(#2218)" /><path id="375" transform="matrix(1 0 0 -1 0 841)" d="M0 464.3357L595 453.95L595 453.95L595 0L595 0L0 0" stroke="none" fill="#FFFFFF" fill-rule="evenodd" /><path id="376" transform="matrix(1 0 0 -1 0 841)" d="M0 583.3419L595 572.9562L595 572.9562L595 841L595 841L0 841" stroke="none" fill="#000000" fill-rule="evenodd" /></g></g></g></g></mask><clipPath id="10"><path id="" clip-rule="evenodd" transform="matrix(1 0 0 1 0 0)" d="M53.2531 256.625L559.072 256.625L559.072 256.625L559.072 389.33L559.072 389.33L53.2531 389.33z" /></clipPath><clipPath id="11"><path id="" clip-rule="evenodd" transform="matrix(1 0 0 1 0 0)" d="M0 841L595.276 841L595.276 841L595.276 -0.8900146L595.276 -0.8900146L0 -0.8900146z" /></clipPath><clipPath id="12"><path id="" clip-rule="evenodd" transform="matrix(1 0 0 1 0 0)" d="M71.45 597.588L219.022 597.588L219.022 597.588L219.022 516.86L219.022 516.86L71.45 516.86z" /></clipPath><clipPath id="13"><path id="" clip-rule="evenodd" transform="matrix(1 0 0 1 0 0)" d="M233.195 597.588L380.767 597.588L380.767 597.588L380.767 516.86L380.767 516.86L233.195 516.86z" /></clipPath><clipPath id="14"><path id="" clip-rule="evenodd" transform="matrix(1 0 0 1 0 0)" d="M395.003 516.86L542.575 516.86L542.575 516.86L542.575 597.588L542.575 597.588L395.003 597.588z" /></clipPath><clipPath id="15"><path id="" clip-rule="evenodd" transform="matrix(1 0 0 1 0 0)" d="M0 841L595.276 841L595.276 841L595.276 -0.8900146L595.276 -0.8900146L0 -0.8900146z" /></clipPath><clipPath id="16"><path id="" clip-rule="evenodd" transform="matrix(1 0 0 1 0 0)" d="M0 841L595.276 841L595.276 841L595.276 -0.8900146L595.276 -0.8900146L0 -0.8900146z" /></clipPath><clipPath id="17"><path id="" clip-rule="evenodd" transform="matrix(1 0 0 1 0 0)" d="M0 841L595.276 841L595.276 841L595.276 -0.8900146L595.276 -0.8900146L0 -0.8900146z" /></clipPath><clipPath id="18"><path id="" clip-rule="evenodd" transform="matrix(1 0 0 1 0 0)" d="M0 841L595.276 841L595.276 841L595.276 -0.8900146L595.276 -0.8900146L0 -0.8900146z" /></clipPath><clipPath id="19"><path id="" clip-rule="evenodd" transform="matrix(1 0 0 1 0 0)" d="M0 841L595.276 841L595.276 841L595.276 -0.8900146L595.276 -0.8900146L0 -0.8900146z" /></clipPath><mask id="m3"><clipPath id="20"><path id="" clip-rule="evenodd" transform="matrix(1 0 0 1 0 0)" d="M293.972 -19.198L456.692 -19.198L456.692 -19.198L456.692 60.00201L456.692 60.00201L293.972 60.00201z" /></clipPath><g><g><g clip-path="url(#20)"><g transform="matrix(0.5982354 0 0 0.5954888 293.9717 -19.19757)"><g transform="matrix(1 0 0 1 0 0)"><image x="0" y="0" xlink:href="img_20.png" width="272" height="133" /></g></g></g></g></g></mask><clipPath id="21"><path id="" clip-rule="evenodd" transform="matrix(1 0 0 1 0 0)" d="M296.132 -17.03802L453.812 -17.03802L453.812 -17.03802L453.812 57.12201L453.812 57.12201L296.132 57.12201z" /></clipPath><clipPath id="22"><path id="" clip-rule="evenodd" transform="matrix(1 0 0 1 0 0)" d="M305.193 43.94501L350.646 43.94501L350.646 43.94501L350.646 21.99603L350.646 21.99603L305.193 21.99603z" /></clipPath><clipPath id="23"><path id="" clip-rule="evenodd" transform="matrix(1 0 0 1 0 0)" d="M0 841L595.276 841L595.276 841L595.276 -0.8900146L595.276 -0.8900146L0 -0.8900146z" /></clipPath><mask id="m4"><clipPath id="24"><path id="" clip-rule="evenodd" transform="matrix(1 0 0 1 0 0)" d="M445.44 91.74701L562.08 91.74701L562.08 91.74701L562.08 208.387L562.08 208.387L445.44 208.387z" /></clipPath><g><g><g clip-path="url(#24)"><g transform="matrix(0.5981539 0 0 0.5981539 445.4403 91.74744)"><g transform="matrix(1 0 0 1 0 0)"><image x="0" y="0" xlink:href="img_21.png" width="195" height="195" /></g></g></g></g></g></mask><clipPath id="25"><path id="" clip-rule="evenodd" transform="matrix(1 0 0 1 0 0)" d="M447.6 93.90698L559.92 93.90698L559.92 93.90698L559.92 206.227L559.92 206.227L447.6 206.227z" /></clipPath><clipPath id="26"><path id="" clip-rule="evenodd" transform="matrix(1 0 0 1 0 0)" d="M0 841L595.276 841L595.276 841L595.276 -0.8900146L595.276 -0.8900146L0 -0.8900146z" /></clipPath></defs><g transform="matrix(1.333333 0 0 1.333333 0 0)"><g clip-path="url(#1)"><path id="1" transform="matrix(1 0 0 -1 0 841)" d="M0 783.04L558.425 783.04L558.425 805.04L0 805.04z" stroke="none" fill="#000000" fill-rule="nonzero" /><g clip-path="url(#2)"></g><path id="26" transform="matrix(1 0 0 -1 0 841)" d="M56.6929 751.2202L558.4249 751.2202" stroke="#000000" stroke-width="2.364" fill="none" /><path id="51" transform="matrix(1 0 0 -1 0 841)" d="M91.2925 401.0391L142.3845 401.0391" stroke="#9CDCF8" stroke-width="9" fill="none" /><path id="52" transform="matrix(1 0 0 -1 0 841)" d="M91.2925 357.0391L124.1065 357.0391" stroke="#BBBDC0" stroke-width="12" fill="none" /><path id="53" transform="matrix(1 0 0 -1 0 841)" d="M133.1065 357.0391L238.7575 357.0391" stroke="#BBBDC0" stroke-width="12" fill="none" /><path id="54" transform="matrix(1 0 0 -1 0 841)" d="M247.7571 357.0391L364.5311 357.0391" stroke="#BBBDC0" stroke-width="12" fill="none" /><path id="55" transform="matrix(1 0 0 -1 0 841)" d="M373.5312 357.0391L415.2012 357.0391" stroke="#BBBDC0" stroke-width="12" fill="none" /><path id="56" transform="matrix(1 0 0 -1 0 841)" d="M424.201 357.0391L467.788 357.0391" stroke="#BBBDC0" stroke-width="12" fill="none" /><path id="57" transform="matrix(1 0 0 -1 0 841)" d="M91.2925 340.5391L148.8025 340.5391" stroke="#BBBDC0" stroke-width="12" fill="none" /><path id="58" transform="matrix(1 0 0 -1 0 841)" d="M157.8024 340.5391L335.5414 340.5391" stroke="#BBBDC0" stroke-width="12" fill="none" /><path id="59" transform="matrix(1 0 0 -1 0 841)" d="M344.5418 340.5391L431.2918 340.5391" stroke="#BBBDC0" stroke-width="12" fill="none" /><path id="60" transform="matrix(1 0 0 -1 0 841)" d="M440.2921 340.5391L524.3511 340.5391" stroke="#BBBDC0" stroke-width="12" fill="none" /><path id="354" transform="matrix(1 0 0 -1 0 841)" d="M57.284 123.63L557.834 123.63L557.834 123.63L557.834 441.448L557.834 441.448L57.284 441.448z" stroke="#000000" stroke-width="1.182" fill="none" /><path id="355" transform="matrix(1 0 0 -1 0 841)" d="M52.441 434.77L105.508 434.77L105.508 447.89L52.441 447.89z" stroke="none" fill="#FFFFFF" fill-rule="nonzero" /><g clip-path="url(#3)"><g mask="url(#m1)"><g clip-path="url(#5)"><path id="372" transform="matrix(1 0 0 -1 0 841)" d="M52.296 745.371L570.696 745.371L570.696 442.611L52.296 442.611z" stroke="none" fill="#000000" fill-rule="nonzero" fill-opacity="0.1960784" /></g></g></g><g clip-path="url(#6)"><g transform="matrix(0.4795945 0.008371353 -0.008375357 0.4798239 59.19385 97.48938)"><g transform="matrix(1 0 0 1 0 0)"><image x="0" y="0" xlink:href="img_16.png" width="1046" height="588" /></g></g></g><g clip-path="url(#7)"><g><g clip-path="url(#8)"><g mask="url(#m2)"><g clip-path="url(#10)"><path id="377" transform="matrix(1 0 0 -1 0 841)" d="M555.9262 452.6871L558.0542 574.6011L56.39819 583.3571L54.2702 461.4431z" stroke="none" fill="#000000" fill-rule="nonzero" /></g></g></g></g><path id="378" transform="matrix(1 0 0 -1 0 841)" d="M77.0999 478.1542C 77.1049 478.4542 76.9529 478.7312 76.6949 478.8792L76.6949 478.8792L69.66991 483.1772C 69.4249 483.3382 69.09891 483.3442 68.83591 483.2052C 68.5719 483.0532 68.4109 482.7812 68.40491 482.4812L68.40491 482.4812L68.2599 474.1332C 68.25391 473.8332 68.4059 473.5562 68.6639 473.3952C 68.7939 473.3272 68.9369 473.2862 69.0799 473.2832C 69.22391 473.2812 69.3679 473.3172 69.4999 473.3932L69.4999 473.3932L76.66991 477.4442C 76.93291 477.5832 77.0939 477.8542 77.0999 478.1542M78.76991 478.1252C 78.7009 474.2112 75.46291 471.0842 71.5489 471.1522C 67.6349 471.2212 64.5069 474.4592 64.57491 478.3732C 64.64391 482.2862 67.8819 485.4132 71.79591 485.3452C 75.7099 485.2772 78.83791 482.0382 78.76991 478.1252M81.6899 478.0742C 81.7869 483.6052 77.37891 488.1712 71.8469 488.2672C 66.3159 488.3642 61.7509 483.9552 61.6549 478.4242C 61.5579 472.8932 65.9659 468.3272 71.4979 468.2302C 77.0289 468.1342 81.5929 472.5432 81.6899 478.0742" stroke="none" fill="#FFFFFF" fill-rule="nonzero" /><path id="379" transform="matrix(1 0 0 -1 0 841)" d="M546.4985 471.8089L547.9935 470.2609C 548.1175 470.1319 548.2855 470.0549 548.4655 470.0519C 548.5495 470.0499 548.6454 470.0699 548.7305 470.0999C 548.9755 470.2009 549.1485 470.4419 549.1535 470.7159L549.1535 470.7159L549.2355 475.4499C 549.2425 475.8199 548.9415 476.1319 548.5715 476.1379L548.5715 476.1379L543.8385 476.2209C 543.5635 476.2249 543.3174 476.0609 543.2075 475.8089C 543.0975 475.5679 543.1454 475.2709 543.3425 475.0769L543.3425 475.0769L544.8375 473.5289L544.8375 473.5289L541.0215 469.8439L541.0215 469.8439L537.3365 473.6599L537.3365 473.6599L538.8835 475.1549C 539.0885 475.3419 539.1465 475.6369 539.0445 475.8819C 538.9435 476.1369 538.7035 476.3099 538.4285 476.3149L538.4285 476.3149L533.6955 476.3979C 533.3255 476.4039 533.0135 476.1029 533.0074 475.7329L533.0074 475.7329L532.9245 470.9999C 532.9195 470.7249 533.0845 470.4789 533.3365 470.3689C 533.4095 470.3359 533.5045 470.3129 533.5895 470.3119C 533.7685 470.3079 533.9395 470.3789 534.0685 470.5039L534.0685 470.5039L535.6165 471.9989L535.6165 471.9989L539.3015 468.1819L539.3015 468.1819L535.4855 464.4969L535.4855 464.4969L533.9905 466.0449C 533.8035 466.2489 533.5085 466.3069 533.2635 466.2059C 533.0085 466.1039 532.8354 465.8639 532.8304 465.5899L532.8304 465.5899L532.7475 460.8559C 532.7415 460.4859 533.0425 460.1739 533.4125 460.1679L533.4125 460.1679L538.1454 460.0849C 538.4205 460.0799 538.6665 460.2449 538.7765 460.4969C 538.8865 460.7379 538.8385 461.0349 538.6405 461.2289L538.6405 461.2289L537.1465 462.7769L537.1465 462.7769L540.9625 466.4619L540.9625 466.4619L544.6475 462.6459L544.6475 462.6459L543.0995 461.1509C 542.8954 460.9639 542.8375 460.6689 542.9385 460.4239C 543.0405 460.1689 543.2805 459.9959 543.5545 459.9909L543.5545 459.9909L548.2885 459.9079C 548.6584 459.9019 548.9695 460.2029 548.9765 460.5729L548.9765 460.5729L549.0585 465.3059C 549.0635 465.5809 548.8985 465.8269 548.6575 465.9369C 548.4055 466.0469 548.1095 465.9989 547.9155 465.8019L547.9155 465.8019L546.3675 464.3069L546.3675 464.3069L542.6825 468.1229z" stroke="none" fill="#FFFFFF" fill-rule="nonzero" /></g><path id="380" transform="matrix(1 0 0 -1 0 841)" d="M93.281 475.9676L521.591 468.4916" stroke="#FFFFFF" stroke-width="2.598" stroke-linecap="round" fill="none" /><g clip-path="url(#11)"><path id="381" transform="matrix(1 0 0 -1 0 841)" d="M131.6504 470.1424C 134.4964 470.0924 136.8444 472.3604 136.8944 475.2064C 136.9434 478.0524 134.6764 480.4004 131.8304 480.4504C 128.9844 480.4994 126.6364 478.2324 126.5864 475.3864C 126.5364 472.5394 128.8044 470.1924 131.6504 470.1424" stroke="none" fill="#FFFFFF" fill-rule="nonzero" /></g><g clip-path="url(#12)"><g transform="matrix(0.4699752 0 0 0.4694768 71.45005 516.8591)"><g transform="matrix(1 0 0 1 0 0)"><image x="0" y="0" xlink:href="img_17.png" width="314" height="175" /></g></g></g><g clip-path="url(#13)"><g transform="matrix(0.4156963 0 0 0.4162827 233.1955 515.6741)"><g transform="matrix(1 0 0 1 0 0)"><image x="0" y="0" xlink:href="img_18.png" width="355" height="200" /></g></g></g><g clip-path="url(#14)"><g transform="matrix(0.5719853 0 0 0.5733914 395.0031 515.8324)"><g transform="matrix(1 0 0 1 0 0)"><image x="0" y="0" xlink:href="img_19.png" width="258" height="145" /></g></g></g><path id="385" transform="matrix(1 0 0 -1 0 841)" d="M71.45 189.039L219.022 189.039L219.022 243.412L71.45 243.412z" stroke="none" fill="#E6E7E8" fill-rule="nonzero" /><path id="386" transform="matrix(1 0 0 -1 0 841)" d="M121.4728 228.126L209.9358 228.126" stroke="#000000" stroke-width="1" stroke-linecap="round" stroke-dasharray="1,1.999" fill="none" /><path id="387" transform="matrix(1 0 0 -1 0 841)" d="M211.436 228.126L211.436 228.126M118.474 228.126L118.474 228.126" stroke="#000000" stroke-width="1" stroke-linecap="round" fill="none" /><path id="388" transform="matrix(1 0 0 -1 0 841)" d="M108.1996 211.626L209.9176 211.626" stroke="#000000" stroke-width="1" stroke-linecap="round" stroke-dasharray="1,2.036" fill="none" /><path id="389" transform="matrix(1 0 0 -1 0 841)" d="M211.4353 211.626L211.4353 211.626M105.1633 211.626L105.1633 211.626" stroke="#000000" stroke-width="1" stroke-linecap="round" fill="none" /><path id="390" transform="matrix(1 0 0 -1 0 841)" d="M117.4732 195.126L209.9202 195.126" stroke="#000000" stroke-width="1" stroke-linecap="round" stroke-dasharray="1,2.031" fill="none" /><path id="391" transform="matrix(1 0 0 -1 0 841)" d="M211.4352 195.126L211.4352 195.126M114.4422 195.126L114.4422 195.126" stroke="#000000" stroke-width="1" stroke-linecap="round" fill="none" /><path id="421" transform="matrix(1 0 0 -1 0 841)" d="M233.195 189.039L380.767 189.039L380.767 243.412L233.195 243.412z" stroke="none" fill="#E6E7E8" fill-rule="nonzero" /><path id="422" transform="matrix(1 0 0 -1 0 841)" d="M283.2182 228.126L371.6822 228.126" stroke="#000000" stroke-width="1" stroke-linecap="round" stroke-dasharray="1,1.999" fill="none" /><path id="423" transform="matrix(1 0 0 -1 0 841)" d="M373.1815 228.126L373.1815 228.126M280.2195 228.126L280.2195 228.126" stroke="#000000" stroke-width="1" stroke-linecap="round" fill="none" /><path id="424" transform="matrix(1 0 0 -1 0 841)" d="M269.945 211.626L371.663 211.626" stroke="#000000" stroke-width="1" stroke-linecap="round" stroke-dasharray="1,2.036" fill="none" /><path id="425" transform="matrix(1 0 0 -1 0 841)" d="M373.1807 211.626L373.1807 211.626M266.9087 211.626L266.9087 211.626" stroke="#000000" stroke-width="1" stroke-linecap="round" fill="none" /><path id="426" transform="matrix(1 0 0 -1 0 841)" d="M279.2187 195.126L371.6657 195.126" stroke="#000000" stroke-width="1" stroke-linecap="round" stroke-dasharray="1,2.031" fill="none" /><path id="427" transform="matrix(1 0 0 -1 0 841)" d="M373.1806 195.126L373.1806 195.126M276.1876 195.126L276.1876 195.126" stroke="#000000" stroke-width="1" stroke-linecap="round" fill="none" /><path id="457" transform="matrix(1 0 0 -1 0 841)" d="M394.941 189.039L542.513 189.039L542.513 243.412L394.941 243.412z" stroke="none" fill="#E6E7E8" fill-rule="nonzero" /><path id="458" transform="matrix(1 0 0 -1 0 841)" d="M444.9636 228.126L533.4276 228.126" stroke="#000000" stroke-width="1" stroke-linecap="round" stroke-dasharray="1,1.999" fill="none" /><path id="459" transform="matrix(1 0 0 -1 0 841)" d="M534.9268 228.126L534.9268 228.126M441.9648 228.126L441.9648 228.126" stroke="#000000" stroke-width="1" stroke-linecap="round" fill="none" /><path id="460" transform="matrix(1 0 0 -1 0 841)" d="M431.6904 211.626L533.4084 211.626" stroke="#000000" stroke-width="1" stroke-linecap="round" stroke-dasharray="1,2.036" fill="none" /><path id="461" transform="matrix(1 0 0 -1 0 841)" d="M534.9261 211.626L534.9261 211.626M428.6541 211.626L428.6541 211.626" stroke="#000000" stroke-width="1" stroke-linecap="round" fill="none" /><path id="462" transform="matrix(1 0 0 -1 0 841)" d="M440.9641 195.126L533.4111 195.126" stroke="#000000" stroke-width="1" stroke-linecap="round" stroke-dasharray="1,2.031" fill="none" /><path id="463" transform="matrix(1 0 0 -1 0 841)" d="M534.926 195.126L534.926 195.126M437.933 195.126L437.933 195.126" stroke="#000000" stroke-width="1" stroke-linecap="round" fill="none" /><g clip-path="url(#15)"><path id="698" transform="matrix(1 0 0 -1 0 841)" d="M558.1297 56.7212L558.1297 109.3942" stroke="#939598" stroke-width="0.591" stroke-dasharray="3.003384,2.003384" fill="none" /><path id="699" transform="matrix(1 0 0 -1 0 841)" d="M556.078 110.8738L392.435 110.8738" stroke="#939598" stroke-width="0.591" stroke-dasharray="2.981387,1.981387" fill="none" /><path id="700" transform="matrix(1 0 0 -1 0 841)" d="M390.9684 108.8021L390.9684 56.1291" stroke="#939598" stroke-width="0.591" stroke-dasharray="3.003384,2.003384" fill="none" /><path id="701" transform="matrix(1 0 0 -1 0 841)" d="M393.0562 54.6495L535.5292 54.6495" stroke="#939598" stroke-width="0.591" stroke-dasharray="3.021996,2.021997" fill="none" /><path id="702" transform="matrix(1 0 0 -1 0 841)" d="M538.9064 52.9966C 541.1334 50.9166 543.3614 48.8366 545.5884 46.7566" stroke="#939598" stroke-width="0.591" stroke-dasharray="3.267343,2.267344" fill="none" /><path id="703" transform="matrix(1 0 0 -1 0 841)" d="M546.7837 47.6713L546.7837 52.9023" stroke="#939598" stroke-width="0.591" stroke-dasharray="2.957699,1.957699" fill="none" /><path id="704" transform="matrix(1 0 0 -1 0 841)" d="M549.0035 54.6495L556.7485 54.6495" stroke="#939598" stroke-width="0.591" stroke-dasharray="2.837564,1.837563" fill="none" /><path id="705" transform="matrix(1 0 0 -1 0 841)" d="M557.2917 54.6493L558.1297 54.6493L558.1297 54.6493L558.1297 55.5373M546.7837 53.4803L546.7837 54.3543L546.7837 54.3543L546.7837 54.6493L546.7837 54.6493L547.0797 54.6493L547.0797 54.6493L547.9177 54.6493M546.0777 46.2993C 546.3137 46.0803 546.5487 45.8603 546.7837 45.6413L546.7837 45.6413L546.7837 46.5143M536.1267 54.6493L537.0197 54.6493L537.0197 54.6493L537.1367 54.6493L537.1367 54.6493L537.2217 54.5703C 537.4567 54.3503 537.6917 54.1303 537.9267 53.9113M390.9687 55.5373L390.9687 54.6493L390.9687 54.6493L391.8617 54.6493M391.8497 110.8743L390.9687 110.8743L390.9687 110.8743L390.9687 109.9863M558.1297 109.9863L558.1297 110.8743L558.1297 110.8743L557.2487 110.8743" stroke="#939598" stroke-width="0.591" fill="none" /><path id="706" transform="matrix(1 0 0 -1 0 841)" d="M386.421 103.793L451.565 103.793L451.565 117.128L386.421 117.128z" stroke="none" fill="#FFFFFF" fill-rule="nonzero" /></g><g clip-path="url(#16)"><path id="721" transform="matrix(1 0 0 -1 0 841)" d="M85.6233 302.881C 89.5373 302.881 92.7103 306.054 92.7103 309.968C 92.7103 313.881 89.5373 317.054 85.6233 317.054C 81.7093 317.054 78.5363 313.881 78.5363 309.968C 78.5363 306.054 81.7093 302.881 85.6233 302.881" stroke="none" fill="#FFFFFF" fill-rule="nonzero" /></g><g clip-path="url(#17)"><path id="723" transform="matrix(1 0 0 -1 0 841)" d="M247.3687 302.881C 251.2827 302.881 254.4557 306.054 254.4557 309.968C 254.4557 313.881 251.2827 317.054 247.3687 317.054C 243.4547 317.054 240.2817 313.881 240.2817 309.968C 240.2817 306.054 243.4547 302.881 247.3687 302.881" stroke="none" fill="#FFFFFF" fill-rule="nonzero" /></g><g clip-path="url(#18)"><path id="725" transform="matrix(1 0 0 -1 0 841)" d="M409.1763 302.881C 413.0903 302.881 416.2633 306.054 416.2633 309.968C 416.2633 313.881 413.0903 317.054 409.1763 317.054C 405.2623 317.054 402.0893 313.881 402.0893 309.968C 402.0893 306.054 405.2623 302.881 409.1763 302.881" stroke="none" fill="#FFFFFF" fill-rule="nonzero" /></g><g clip-path="url(#19)"><g mask="url(#m3)"><g clip-path="url(#21)"><path id="831" transform="matrix(1 0 0 -1 0 841)" d="M296.132 858.038L453.812 858.038L453.812 783.8781L296.132 783.8781z" stroke="none" fill="#000000" fill-rule="nonzero" fill-opacity="0.1960784" /></g></g></g><path id="832" transform="matrix(1 0 0 -1 0 841)" d="M298.106 794.039L443.622 794.039L443.622 841.889L298.106 841.889z" stroke="none" fill="#B3B9BF" fill-rule="nonzero" /><g clip-path="url(#22)"><path id="853" transform="matrix(1 0 0 -1 0 841)" d="M350.4319 801.0233C 350.2889 801.3703 350.0939 801.6713 349.8469 801.9263C 349.6009 802.1813 349.3109 802.3803 348.9779 802.5233C 348.6449 802.6673 348.2879 802.7393 347.9069 802.7403C 347.7829 802.7413 347.6559 802.7283 347.5249 802.7043C 347.3939 802.6793 347.2679 802.6433 347.1459 802.5973C 347.0229 802.5503 346.9099 802.4903 346.8039 802.4173C 346.6979 802.3443 346.6079 802.2603 346.5339 802.1673L346.5339 802.1673L346.5519 815.2473C 347.2779 815.5203 347.7979 816.2163 347.8059 817.0383C 347.8159 818.1073 346.9589 818.9833 345.8889 818.9943C 344.8199 819.0043 343.9439 818.1463 343.9329 817.0773C 343.9249 816.2453 344.4439 815.5333 345.1769 815.2513L345.1769 815.2513L345.1459 800.9003L345.1459 800.9003L345.1549 800.9003L345.1549 800.9003L345.1519 799.9023C 345.1499 799.4863 345.2209 799.1063 345.3639 798.7593C 345.5069 798.4123 345.7029 798.1133 345.9509 797.8613C 346.1999 797.6093 346.4909 797.4123 346.8239 797.2713C 347.1559 797.1293 347.5119 797.0573 347.8899 797.0563C 348.2709 797.0553 348.6289 797.1233 348.9619 797.2593C 349.2959 797.3953 349.5869 797.5883 349.8349 797.8363C 350.0829 798.0853 350.2799 798.3833 350.4249 798.7313C 350.5699 799.0793 350.6429 799.4633 350.6449 799.8853C 350.6459 800.2973 350.5749 800.6763 350.4319 801.0233M349.1539 799.3123C 349.0819 799.1353 348.9829 798.9813 348.8589 798.8513C 348.7349 798.7213 348.5899 798.6183 348.4239 798.5443C 348.2579 798.4683 348.0809 798.4323 347.8939 798.4323C 347.7059 798.4333 347.5299 798.4713 347.3649 798.5473C 347.1989 798.6223 347.0539 798.7263 346.9309 798.8573C 346.8079 798.9883 346.7109 799.1423 346.6409 799.3203C 346.5719 799.4973 346.5369 799.6903 346.5379 799.8973C 346.5379 800.0853 346.5739 800.2663 346.6439 800.4423C 346.7159 800.6173 346.8129 800.7733 346.9369 800.9083C 347.0609 801.0433 347.2059 801.1523 347.3729 801.2333C 347.5379 801.3153 347.7149 801.3553 347.9029 801.3543C 348.0899 801.3543 348.2659 801.3163 348.4319 801.2423C 348.5969 801.1683 348.7419 801.0663 348.8649 800.9353C 348.9889 800.8043 349.0859 800.6493 349.1579 800.4693C 349.2289 800.2903 349.2639 800.0973 349.2639 799.8893C 349.2639 799.6813 349.2259 799.4893 349.1539 799.3123" stroke="none" fill="#000000" fill-rule="nonzero" /><path id="854" transform="matrix(1 0 0 -1 0 841)" d="M317.3999 809.4961C 317.2469 809.8691 317.0369 810.1881 316.7709 810.4521C 316.5049 810.7161 316.1939 810.9201 315.8389 811.0641C 315.4839 811.2091 315.1049 811.2811 314.7019 811.2811C 314.5159 811.2811 314.3329 811.2581 314.1499 811.2121C 313.9689 811.1651 313.7929 811.1021 313.6229 811.0221C 313.4539 810.9421 313.2899 810.8461 313.1329 810.7351C 312.9759 810.6251 312.8319 810.5071 312.6999 810.3821L312.6999 810.3821L312.1159 811.0731L312.1159 811.0731L311.7629 811.0731L311.7629 811.0731L311.7629 806.0951L311.7629 806.0951L311.7629 803.1561L311.7629 803.1561L311.7629 800.8071L311.7629 800.8071L311.1649 800.8071L311.1649 800.8071L311.1649 797.0561L311.1649 797.0561L313.7879 797.0561L313.7879 797.0561L313.7879 800.8071L313.7879 800.8071L313.2309 800.8071L313.2309 800.8071L313.2309 803.1561L313.2309 803.1561L313.2349 803.1561L313.2349 803.1561L313.2349 805.7251C 313.3459 805.6611 313.4609 805.5981 313.5799 805.5371C 313.6999 805.4771 313.8209 805.4231 313.9439 805.3741C 314.0679 805.3261 314.1919 805.2881 314.3189 805.2601C 314.4459 805.2301 314.5729 805.2171 314.7019 805.2171C 315.1049 805.2171 315.4839 805.2861 315.8389 805.4251C 316.1939 805.5641 316.5049 805.7651 316.7709 806.0271C 317.0369 806.2901 317.2469 806.6091 317.3999 806.9861C 317.5529 807.3621 317.6299 807.7861 317.6299 808.2571C 317.6299 808.7101 317.5529 809.1231 317.3999 809.4961M316.0479 807.6201C 315.9709 807.4271 315.8669 807.2631 315.7349 807.1281C 315.6029 806.9921 315.4479 806.8871 315.2689 806.8111C 315.0909 806.7371 314.9019 806.6991 314.7019 806.6991C 314.5019 806.6991 314.3139 806.7371 314.1369 806.8111C 313.9599 806.8871 313.8059 806.9921 313.6739 807.1281C 313.5419 807.2631 313.4379 807.4271 313.3609 807.6201C 313.2839 807.8131 313.2459 808.0251 313.2459 808.2571C 313.2459 808.5001 313.2839 808.7181 313.3609 808.9101C 313.4379 809.1031 313.5419 809.2661 313.6739 809.4001C 313.8059 809.5341 313.9599 809.6361 314.1369 809.7081C 314.3139 809.7791 314.5019 809.8151 314.7019 809.8151C 314.9019 809.8151 315.0909 809.7791 315.2689 809.7081C 315.4479 809.6361 315.6029 809.5341 315.7349 809.4001C 315.8669 809.2661 315.9709 809.1031 316.0479 808.9101C 316.1249 808.7181 316.1629 808.5001 316.1629 808.2571C 316.1629 808.0251 316.1249 807.8131 316.0479 807.6201" stroke="none" fill="#000000" fill-rule="nonzero" /><path id="855" transform="matrix(1 0 0 -1 0 841)" d="M305.1929 810.8166C 305.1929 811.1256 305.2519 811.4156 305.3699 811.6856C 305.4879 811.9566 305.6489 812.1936 305.8519 812.3966C 306.0549 812.5996 306.2919 812.7606 306.5619 812.8786C 306.8329 812.9966 307.1229 813.0556 307.4319 813.0556L307.4319 813.0556L310.8579 813.0556L310.8579 813.0556L310.8579 811.5606L310.8579 811.5606L307.4319 811.5606C 307.3279 811.5606 307.2299 811.5416 307.1399 811.5036C 307.0499 811.4656 306.9709 811.4126 306.9029 811.3446C 306.8359 811.2776 306.7829 811.1986 306.7449 811.1086C 306.7069 811.0176 306.6869 810.9206 306.6869 810.8166C 306.6869 810.7126 306.7069 810.6146 306.7449 810.5226C 306.7829 810.4306 306.8359 810.3506 306.9029 810.2826C 306.9709 810.2156 307.0499 810.1626 307.1399 810.1236C 307.2299 810.0856 307.3279 810.0666 307.4319 810.0666L307.4319 810.0666L308.9259 810.0666C 309.2349 810.0666 309.5259 810.0086 309.7979 809.8926C 310.0709 809.7766 310.3089 809.6166 310.5119 809.4136C 310.7149 809.2106 310.8739 808.9726 310.9909 808.7006C 311.1069 808.4276 311.1649 808.1366 311.1649 807.8276C 311.1649 807.5186 311.1069 807.2296 310.9909 806.9586C 310.8739 806.6876 310.7149 806.4506 310.5119 806.2476C 310.3089 806.0446 310.0709 805.8836 309.7979 805.7666C 309.5259 805.6486 309.2349 805.5896 308.9259 805.5896L308.9259 805.5896L305.6099 805.5896L305.6099 805.5896L305.6099 807.0836L305.6099 807.0836L308.9259 807.0836C 309.0299 807.0836 309.1279 807.1026 309.2179 807.1406C 309.3079 807.1786 309.3869 807.2316 309.4539 807.2996C 309.5219 807.3676 309.5749 807.4466 309.6129 807.5366C 309.6519 807.6266 309.6709 807.7236 309.6709 807.8276C 309.6709 807.9326 309.6519 808.0296 309.6129 808.1196C 309.5749 808.2096 309.5219 808.2886 309.4539 808.3566C 309.3869 808.4236 309.3079 808.4776 309.2179 808.5156C 309.1279 808.5536 309.0299 808.5726 308.9259 808.5726L308.9259 808.5726L307.4319 808.5726C 307.1229 808.5726 306.8329 808.6316 306.5619 808.7496C 306.2919 808.8676 306.0549 809.0286 305.8519 809.2316C 305.6489 809.4346 305.4879 809.6716 305.3699 809.9446C 305.2519 810.2166 305.1929 810.5076 305.1929 810.8166" stroke="none" fill="#000000" fill-rule="nonzero" /><path id="856" transform="matrix(1 0 0 -1 0 841)" d="M323.8325 805.5899L323.4885 805.5899L323.4885 805.5899L322.9365 806.3549C 322.8015 806.2329 322.6575 806.1199 322.5075 806.0139C 322.3565 805.9079 322.1975 805.8159 322.0305 805.7379C 321.8645 805.6599 321.6935 805.5979 321.5175 805.5529C 321.3425 805.5079 321.1645 805.4849 320.9845 805.4849C 320.5915 805.4849 320.2235 805.5509 319.8775 805.6829C 319.5325 805.8149 319.2305 806.0069 318.9715 806.2589C 318.7135 806.5099 318.5095 806.8179 318.3605 807.1819C 318.2105 807.5469 318.1365 807.9619 318.1365 808.4269C 318.1365 808.8609 318.2105 809.2589 318.3605 809.6219C 318.5095 809.9839 318.7135 810.2959 318.9715 810.5559C 319.2305 810.8169 319.5325 811.0189 319.8775 811.1629C 320.2235 811.3069 320.5915 811.3789 320.9845 811.3789C 321.1645 811.3789 321.3435 811.3569 321.5205 811.3109C 321.6975 811.2659 321.8695 811.2039 322.0365 811.1239C 322.2025 811.0439 322.3615 810.9499 322.5125 810.8429C 322.6635 810.7349 322.8045 810.6189 322.9365 810.4939L322.9365 810.4939L323.4885 811.1549L323.4885 811.1549L323.8325 811.1549zM322.4005 808.4269C 322.4005 808.6208 322.3635 808.8099 322.2885 808.9919C 322.2135 809.1739 322.1125 809.3349 321.9835 809.4759C 321.8555 809.6169 321.7055 809.7289 321.5335 809.8149C 321.3615 809.8999 321.1785 809.9419 320.9845 809.9419C 320.7895 809.9419 320.6065 809.9089 320.4345 809.8429C 320.2635 809.7769 320.1135 809.6799 319.9875 809.5509C 319.8605 809.4229 319.7605 809.2639 319.6875 809.0749C 319.6145 808.8859 319.5785 808.6699 319.5785 808.4269C 319.5785 808.1839 319.6145 807.9679 319.6875 807.7789C 319.7605 807.5889 319.8605 807.4309 319.9875 807.3029C 320.1135 807.1739 320.2635 807.0769 320.4345 807.0109C 320.6065 806.9449 320.7895 806.9119 320.9845 806.9119C 321.1785 806.9119 321.3615 806.9539 321.5335 807.0389C 321.7055 807.1239 321.8555 807.2369 321.9835 807.3779C 322.1125 807.5179 322.2135 807.6799 322.2885 807.8619C 322.3635 808.0439 322.4005 808.2319 322.4005 808.4269" stroke="none" fill="#000000" fill-rule="nonzero" /><path id="857" transform="matrix(1 0 0 -1 0 841)" d="M326.3287 805.5923L324.9067 805.5963L324.9067 805.5963L324.9227 811.1723L324.9227 811.1723L325.2667 811.1713L325.2667 811.1713L325.7337 810.6283C 325.9627 810.8363 326.2227 810.9963 326.5137 811.1083C 326.8037 811.2203 327.1057 811.2753 327.4227 811.2743C 327.7627 811.2733 328.0837 811.2073 328.3847 811.0763C 328.6857 810.9453 328.9497 810.7663 329.1747 810.5383C 329.3997 810.3103 329.5767 810.0443 329.7067 809.7403C 329.8357 809.4363 329.8997 809.1123 329.8987 808.7683L329.8987 808.7683L329.8897 805.5823L329.8897 805.5823L328.4687 805.5863L328.4687 805.5863L328.4777 808.7733C 328.4777 808.9183 328.4497 809.0563 328.3957 809.1873C 328.3397 809.3173 328.2637 809.4313 328.1667 809.5283C 328.0707 809.6253 327.9577 809.7033 327.8297 809.7583C 327.7007 809.8143 327.5637 809.8423 327.4177 809.8433C 327.2687 809.8433 327.1287 809.8163 326.9967 809.7613C 326.8637 809.7063 326.7497 809.6293 326.6517 809.5323C 326.5547 809.4363 326.4777 809.3223 326.4217 809.1923C 326.3657 809.0623 326.3377 808.9243 326.3377 808.7783z" stroke="none" fill="#000000" fill-rule="nonzero" /><path id="858" transform="matrix(1 0 0 -1 0 841)" d="M332.584 812.68C 332.584 812.549 332.559 812.425 332.509 812.311C 332.458 812.196 332.39 812.097 332.303 812.011C 332.216 811.926 332.115 811.859 331.999 811.808C 331.882 811.758 331.758 811.733 331.626 811.733C 331.494 811.733 331.37 811.758 331.254 811.808C 331.138 811.859 331.037 811.926 330.952 812.011C 330.867 812.097 330.799 812.196 330.749 812.311C 330.698 812.425 330.674 812.549 330.674 812.68C 330.674 812.809 330.698 812.931 330.749 813.048C 330.799 813.164 330.867 813.264 330.952 813.349C 331.037 813.435 331.138 813.502 331.254 813.553C 331.37 813.603 331.494 813.628 331.626 813.628C 331.758 813.628 331.882 813.603 331.999 813.553C 332.115 813.502 332.216 813.435 332.303 813.349C 332.39 813.264 332.458 813.164 332.509 813.048C 332.559 812.931 332.584 812.809 332.584 812.68M332.339 805.59L330.908 805.59L330.908 811.166L332.339 811.166z" stroke="none" fill="#000000" fill-rule="nonzero" /><path id="859" transform="matrix(1 0 0 -1 0 841)" d="M336.4838 805.5895L333.2348 805.5895L333.2348 805.5895L333.2348 807.0055L333.2348 807.0055L336.4838 807.0055C 336.5808 807.0055 336.6638 807.0405 336.7338 807.1095C 336.8028 807.1785 336.8378 807.2625 336.8378 807.3595C 336.8378 807.4604 336.8028 807.5265 336.7338 807.5575C 336.6638 807.5885 336.5808 807.6045 336.4838 807.6045L336.4838 807.6045L335.0048 807.6045C 334.7588 807.6045 334.5278 807.6505 334.3128 807.7445C 334.0978 807.8385 333.9098 807.9665 333.7498 808.1275C 333.5908 808.2885 333.4648 808.4775 333.3728 808.6925C 333.2808 808.9075 333.2348 809.1385 333.2348 809.3855C 333.2348 809.6315 333.2808 809.8625 333.3728 810.0775C 333.4648 810.2925 333.5908 810.4795 333.7498 810.6395C 333.9098 810.7995 334.0978 810.9255 334.3128 811.0175C 334.5278 811.1085 334.7588 811.1545 335.0048 811.1545L335.0048 811.1545L337.8838 811.1545L337.8838 811.1545L337.8838 809.7385L337.8838 809.7385L335.0048 809.7385C 334.9078 809.7385 334.8248 809.7045 334.7558 809.6345C 334.6858 809.5655 334.6508 809.4815 334.6508 809.3855C 334.6508 809.2845 334.6858 809.1985 334.7558 809.1275C 334.8248 809.0555 334.9078 809.0205 335.0048 809.0205L335.0048 809.0205L336.4838 809.0205C 336.7268 809.0205 336.9558 808.9795 337.1708 808.8975C 337.3858 808.8165 337.5738 808.7025 337.7338 808.5565C 337.8928 808.4115 338.0198 808.2355 338.1138 808.0315C 338.2068 807.8265 338.2538 807.6025 338.2538 807.3595C 338.2538 807.1125 338.2068 806.8835 338.1138 806.6695C 338.0198 806.4565 337.8928 806.2685 337.7338 806.1075C 337.5738 805.9455 337.3858 805.8195 337.1708 805.7275C 336.9558 805.6355 336.7268 805.5895 336.4838 805.5895" stroke="none" fill="#000000" fill-rule="nonzero" /><path id="860" transform="matrix(1 0 0 -1 0 841)" d="M340.4305 805.5895L339.0085 805.5895L339.0085 805.5895L339.0085 813.3835L339.0085 813.3835L340.4305 813.3835L340.4305 813.3835L340.4305 810.9205C 340.6005 811.0495 340.7755 811.1405 340.9565 811.1935C 341.1365 811.2475 341.3205 811.2745 341.5085 811.2745C 341.8515 811.2745 342.1745 811.2095 342.4765 811.0795C 342.7785 810.9495 343.0415 810.7705 343.2655 810.5435C 343.4885 810.3155 343.6665 810.0505 343.7965 809.7465C 343.9265 809.4425 343.9915 809.1195 343.9915 808.7755L343.9915 808.7755L343.9915 805.5895L343.9915 805.5895L342.5595 805.5895L342.5595 805.5895L342.5595 808.7755L342.5595 808.7755L342.5705 808.7755C 342.5705 808.9214 342.5425 809.0594 342.4865 809.1895C 342.4315 809.3195 342.3555 809.4335 342.2575 809.5305C 342.1605 809.6275 342.0475 809.7045 341.9195 809.7595C 341.7905 809.8155 341.6545 809.8425 341.5085 809.8425C 341.3585 809.8425 341.2185 809.8155 341.0865 809.7595C 340.9545 809.7045 340.8395 809.6275 340.7425 809.5305C 340.6455 809.4335 340.5685 809.3195 340.5135 809.1895C 340.4585 809.0594 340.4305 808.9214 340.4305 808.7755z" stroke="none" fill="#000000" fill-rule="nonzero" /><path id="861" transform="matrix(1 0 0 -1 0 841)" d="M333.894 797.2176L332.4 797.2176L332.4 804.6836L333.894 804.6836L333.894 801.6946L336.877 801.6946L336.877 804.6836L338.372 804.6836L338.372 797.2176L336.877 797.2176L336.877 800.2006L333.894 800.2006z" stroke="none" fill="#000000" fill-rule="nonzero" /><path id="862" transform="matrix(1 0 0 -1 0 841)" d="M343.6305 797.8682C 343.5155 797.7642 343.3935 797.6662 343.2625 797.5742C 343.1335 797.4822 342.9965 797.4022 342.8545 797.3342C 342.7125 797.2672 342.5655 797.2132 342.4145 797.1732C 342.2635 797.1332 342.1095 797.1132 341.9535 797.1132C 341.6105 797.1132 341.2875 797.1743 340.9855 797.2952C 340.6835 797.4162 340.4185 797.5892 340.1915 797.8132C 339.9635 798.0372 339.7855 798.3092 339.6545 798.6312C 339.5245 798.9512 339.4595 799.3122 339.4595 799.7112L339.4595 799.7112L339.4595 802.7932L339.4595 802.7932L340.8755 802.7932L340.8755 802.7932L340.8755 799.7112C 340.8755 799.5242 340.9045 799.3562 340.9615 799.2092C 341.0185 799.0612 341.0965 798.9372 341.1935 798.8362C 341.2905 798.7362 341.4045 798.6592 341.5345 798.6072C 341.6645 798.5552 341.8045 798.5292 341.9535 798.5292C 342.0995 798.5292 342.2375 798.5632 342.3675 798.6312C 342.4975 798.6982 342.6115 798.7872 342.7085 798.8992C 342.8055 799.0103 342.8825 799.1353 342.9375 799.2762C 342.9935 799.4172 343.0205 799.5622 343.0205 799.7112L343.0205 799.7112L343.0205 802.7932L343.0205 802.7932L344.4425 802.7932L344.4425 802.7932L344.4425 797.2172L344.4425 797.2172L344.0985 797.2172z" stroke="none" fill="#000000" fill-rule="nonzero" /><path id="863" transform="matrix(1 0 0 -1 0 841)" d="M307.7129 814.1056L306.7369 814.1056L306.7369 818.0176L305.2679 818.0176L305.2679 818.9966L309.1799 818.9966L309.1799 818.0176L307.7129 818.0176z" stroke="none" fill="#000000" fill-rule="nonzero" /><path id="864" transform="matrix(1 0 0 -1 0 841)" d="M314.9782 814.9993C 315.0142 814.9873 315.0502 814.9803 315.0872 814.9773C 315.1232 814.9733 315.1592 814.9723 315.1962 814.9723C 315.2872 814.9723 315.3752 814.9843 315.4582 815.0093C 315.5422 815.0343 315.6212 815.0703 315.6952 815.1163C 315.7692 815.1633 315.8352 815.2203 315.8932 815.2873C 315.9522 815.3543 315.9992 815.4293 316.0352 815.5103L316.0352 815.5103L316.7172 814.8253C 316.6312 814.7023 316.5312 814.5923 316.4182 814.4943C 316.3062 814.3963 316.1842 814.3133 316.0542 814.2453C 315.9232 814.1773 315.7852 814.1263 315.6412 814.0903C 315.4972 814.0553 315.3482 814.0373 315.1962 814.0373C 314.9392 814.0373 314.6972 814.0853 314.4712 814.1803C 314.2452 814.2763 314.0472 814.4093 313.8782 814.5793C 313.7082 814.7503 313.5752 814.9533 313.4772 815.1883C 313.3792 815.4233 313.3302 815.6823 313.3302 815.9643C 313.3302 816.2523 313.3792 816.5173 313.4772 816.7553C 313.5752 816.9943 313.7082 817.1983 313.8782 817.3663C 314.0472 817.5343 314.2452 817.6653 314.4712 817.7583C 314.6972 817.8513 314.9392 817.8983 315.1962 817.8983C 315.3482 817.8983 315.4972 817.8803 315.6432 817.8433C 315.7882 817.8073 315.9262 817.7553 316.0572 817.6863C 316.1882 817.6183 316.3102 817.5353 316.4242 817.4363C 316.5382 817.3373 316.6372 817.2263 316.7242 817.1033zM315.4552 816.9193C 315.4122 816.9353 315.3692 816.9453 315.3272 816.9503C 315.2852 816.9543 315.2412 816.9573 315.1962 816.9573C 315.0682 816.9573 314.9482 816.9333 314.8362 816.8873C 314.7232 816.8403 314.6252 816.7733 314.5432 816.6873C 314.4602 816.6013 314.3942 816.4973 314.3472 816.3753C 314.2992 816.2533 314.2752 816.1173 314.2752 815.9643C 314.2752 815.9303 314.2772 815.8913 314.2802 815.8483C 314.2832 815.8053 314.2892 815.7613 314.2972 815.7173C 314.3052 815.6723 314.3142 815.6303 314.3262 815.5893C 314.3382 815.5473 314.3522 815.5123 314.3712 815.4803z" stroke="none" fill="#000000" fill-rule="nonzero" /><path id="865" transform="matrix(1 0 0 -1 0 841)" d="M309.5899 816.9879L309.5899 814.0799L309.5899 814.0799L310.5249 814.0799L310.5249 814.0799L310.5249 816.1739C 310.5249 816.2699 310.5429 816.3609 310.5789 816.4459C 310.6159 816.5309 310.6659 816.6059 310.7299 816.6699C 310.7939 816.7339 310.8689 816.7849 310.9559 816.8209C 311.0419 816.8569 311.1349 816.8759 311.2329 816.8759C 311.3289 816.8759 311.4189 816.8569 311.5029 816.8209C 311.5879 816.7849 311.6619 816.7339 311.7259 816.6699C 311.7899 816.6059 311.8399 816.5309 311.8759 816.4459C 311.9129 816.3609 311.9309 816.2699 311.9309 816.1739L311.9309 816.1739L311.9239 816.1739L311.9239 816.1739L311.9239 814.0799L311.9239 814.0799L312.8649 814.0799L312.8649 814.0799L312.8649 816.1739C 312.8649 816.3999 312.8229 816.6129 312.7369 816.8129C 312.6509 817.0119 312.5349 817.1859 312.3879 817.3359C 312.2409 817.4849 312.0679 817.6029 311.8689 817.6889C 311.6709 817.7739 311.4589 817.8169 311.2329 817.8169C 311.1099 817.8169 310.9889 817.7989 310.8699 817.7639C 310.7529 817.7289 310.6389 817.6689 310.5279 817.5869L310.5279 817.5869L310.5279 818.9959L310.5279 818.9959L309.5899 818.9959" stroke="none" fill="#000000" fill-rule="nonzero" /></g><g clip-path="url(#23)"><g mask="url(#m4)"><g clip-path="url(#25)"><path id="867" transform="matrix(1 0 0 -1 0 841)" d="M447.6 747.093L559.92 747.093L559.92 634.773L447.6 634.773z" stroke="none" fill="#000000" fill-rule="nonzero" fill-opacity="0.1960784" /></g></g><path id="868" transform="matrix(1 0 0 -1 0 841)" d="M499.6536 644.9605C 527.3116 644.9605 549.7326 667.3815 549.7326 695.0395C 549.7326 722.6965 527.3116 745.1175 499.6536 745.1175C 471.9956 745.1175 449.5746 722.6965 449.5746 695.0395C 449.5746 667.3815 471.9956 644.9605 499.6536 644.9605" stroke="none" fill="#000000" fill-rule="nonzero" /></g><g clip-path="url(#26)"><path id="905" transform="matrix(1 0 0 -1 0 841)" d="M-558.4252 34.7906L-0.0001831055 34.7906" stroke="#000000" stroke-width="0.5" fill="none" /><path id="907" transform="matrix(1 0 0 -1 0 841)" d="M0 34.7906L558.425 34.7906" stroke="#000000" stroke-width="0.5" fill="none" /></g></g></g></svg>