<?xml version="1.0" encoding="UTF-8" standalone="no"?>
<!DOCTYPE svg PUBLIC "-//W3C//DTD SVG 1.1//EN"
"http://www.w3.org/Graphics/SVG/1.1/DTD/svg11.dtd">
<svg viewBox="0 0 909 1286" version="1.1" xmlns="http://www.w3.org/2000/svg" xmlns:xlink="http://www.w3.org/1999/xlink">
<defs>
<clipPath id="c0_19"><path d="M0,1286.2V0H909.4V1286.2Z"/></clipPath>
<style type="text/css"><![CDATA[
.g0_19{
fill: #E9E9E1;
}
.g1_19{
}
.g2_19{
fill: #FFDF5D;
}
.g3_19{
fill: none;
stroke: #E9E9E1;
stroke-width: 1.527;
stroke-linecap: butt;
stroke-linejoin: miter;
}
.g4_19{
fill: none;
stroke: #939598;
stroke-width: 0.902;
stroke-linecap: butt;
stroke-linejoin: miter;
stroke-dasharray: 3,2;
}
.g5_19{
fill: none;
stroke: #939598;
stroke-width: 0.902;
stroke-linecap: butt;
stroke-linejoin: miter;
}
.g6_19{
fill: none;
stroke: #808285;
stroke-width: 0.757;
stroke-linecap: butt;
stroke-linejoin: miter;
}
.g7_19{
fill: none;
stroke: #000000;
stroke-width: 3.611;
stroke-linecap: butt;
stroke-linejoin: miter;
}
.g8_19{
fill: none;
stroke: #FFE581;
stroke-width: 18.906;
stroke-linecap: butt;
stroke-linejoin: miter;
}
.g9_19{
fill: none;
stroke: #000000;
stroke-width: 0.763;
stroke-linecap: butt;
stroke-linejoin: miter;
}
]]></style>
</defs>
<path d="M-21.6,1307.9H1840.6V-21.6H-21.6V1307.9Z" class="g0_19"/>
<path d="M56.3,89.9H909.4V56.3H56.3V89.9Z" class="g1_19"/>
<path d="M56.3,414.7h153v24H56.3v-24Zm153,0h153v24h-153v-24Zm-153,24h153v24H56.3v-24Zm153,0h153v24h-153v-24Zm-153,24h153v24H56.3v-24Zm153,0h153v24h-153v-24Zm-153,24h153v24H56.3v-24Zm153,0h153v24h-153v-24Z" class="g2_19"/>
<path d="M209.3,437.9V414.7m-153,24h153m0,0h153m-153,23.2V439.5m-153,23.2h153m0,0h153m-153,23.2V463.5m-153,23.2h153m0,0h153m-153,24V487.5" class="g3_19"/>
<path d="M56.3,718.2H190.6v23.9H56.3V718.2Zm134.3,0h90.9v23.9H190.6V718.2Zm90.9,0h61.9v23.9H281.5V718.2Zm61.9,0h84.5v23.9H343.4V718.2ZM56.3,742.1H190.6v24H56.3v-24Zm134.3,0h90.9v24H190.6v-24Zm90.9,0h61.9v24H281.5v-24Zm61.9,0h84.5v24H343.4v-24Zm-287.1,24H190.6v24H56.3v-24Zm134.3,0h90.9v24H190.6v-24Zm90.9,0h61.9v24H281.5v-24Zm61.9,0h84.5v24H343.4v-24Zm-287.1,24H190.6v24H56.3v-24Zm134.3,0h90.9v24H190.6v-24Zm90.9,0h61.9v24H281.5v-24Zm61.9,0h84.5v24H343.4v-24Zm-287.1,24H190.6v24H56.3v-24Zm134.3,0h90.9v24H190.6v-24Zm90.9,0h61.9v24H281.5v-24Zm61.9,0h84.5v24H343.4v-24Zm-287.1,24H190.6v24H56.3v-24Zm134.3,0h90.9v24H190.6v-24Zm90.9,0h61.9v24H281.5v-24Zm61.9,0h84.5v24H343.4v-24Zm-287.1,24H190.6v24H56.3v-24Zm134.3,0h90.9v24H190.6v-24Zm90.9,0h61.9v24H281.5v-24Zm61.9,0h84.5v24H343.4v-24Z" class="g2_19"/>
<path d="M190.6,741.4V718.2m90.9,23.2V718.2m61.9,23.2V718.2M56.3,742.1H190.6m0,0h90.9m-90.9,23.3V742.9m90.9,-.8h61.9m-61.9,23.3V742.9m61.9,-.8h84.5m-84.5,23.3V742.9M56.3,766.1H190.6m0,0h90.9m-90.9,23.3V766.9m90.9,-.8h61.9m-61.9,23.3V766.9m61.9,-.8h84.5m-84.5,23.3V766.9M56.3,790.1H190.6m0,0h90.9m-90.9,23.3V790.9m90.9,-.8h61.9m-61.9,23.3V790.9m61.9,-.8h84.5m-84.5,23.3V790.9M56.3,814.1H190.6m0,0h90.9m-90.9,23.3V814.9m90.9,-.8h61.9m-61.9,23.3V814.9m61.9,-.8h84.5m-84.5,23.3V814.9M56.3,838.1H190.6m0,0h90.9m-90.9,23.2V838.9m90.9,-.8h61.9m-61.9,23.2V838.9m61.9,-.8h84.5m-84.5,23.2V838.9M56.3,862.1H190.6m0,0h90.9m-90.9,24V862.9m90.9,-.8h61.9m-61.9,24V862.9m61.9,-.8h84.5m-84.5,24V862.9" class="g3_19"/>
<path d="M56.8,1086.7V899.5m3.1,-2.3H425.4" class="g4_19"/>
<path d="M57.2,1089.8h-.5v-1.3m0,-189.9v-1.4h1.4m368.2,0h1.4v.5" class="g5_19"/>
<path d="M427.7,1086.7V899.5" class="g4_19"/>
<path d="M427.7,1089.8v-1.3m0,-189.9v-1.4" class="g5_19"/>
<path d="M59.9,1089.8H425.4" class="g4_19"/>
<path d="M56.8,1089.8h1.3m368.2,0h1.4v-.4" class="g5_19"/>
<path d="M65.4,1051.7h130" class="g6_19"/>
<path d="M44.6,906.7H69.3V886.4H44.6v20.3Z" class="g0_19"/>
<path clip-path="url(#c0_19)" d="M56.1,138.5H1762.9" class="g7_19"/>
<path d="M450.4,806.8H822.7M450.4,823.7H822.7M450.4,1042.1H822.7m-372.3,16.8H822.7" class="g8_19"/>
<path d="M450.4,297.4H584.6v24H450.4v-24Zm134.2,0h49.9v24H584.6v-24Zm49.9,0H744.7v24H634.5v-24Zm-184.1,24H584.6v24H450.4v-24Zm134.2,0h49.9v24H584.6v-24Zm49.9,0H744.7v24H634.5v-24Zm-184.1,24H584.6v24H450.4v-24Zm134.2,0h49.9v24H584.6v-24Zm49.9,0H744.7v24H634.5v-24Zm-184.1,24H584.6v24H450.4v-24Zm134.2,0h49.9v24H584.6v-24Zm49.9,0H744.7v24H634.5v-24Zm-184.1,24H584.6v23.9H450.4V393.4Zm134.2,0h49.9v23.9H584.6V393.4Zm49.9,0H744.7v23.9H634.5V393.4ZM450.4,417.3H584.6v24H450.4v-24Zm134.2,0h49.9v24H584.6v-24Zm49.9,0H744.7v24H634.5v-24Z" class="g2_19"/>
<path d="M584.6,320.6V297.4m49.9,23.2V297.4m-184.1,24H584.6m0,0h49.9m-49.9,23.2V322.1m49.9,-.7H744.7M634.5,344.6V322.1M450.4,345.4H584.6m0,0h49.9m-49.9,23.2V346.1m49.9,-.7H744.7M634.5,368.6V346.1M450.4,369.4H584.6m0,0h49.9m-49.9,23.2V370.1m49.9,-.7H744.7M634.5,392.6V370.1M450.4,393.4H584.6m0,0h49.9m-49.9,23.2V394.1m49.9,-.7H744.7M634.5,416.6V394.1M450.4,417.3H584.6m0,0h49.9m-49.9,24V418.1m49.9,-.8H744.7m-110.2,24V418.1" class="g3_19"/>
<path d="M450.8,531V454.7m3.2,-2.2H623.3" class="g4_19"/>
<path d="M451.3,534.2h-.5v-1.4m0,-79v-1.3h1.4m171.9,0h1.4v.4" class="g5_19"/>
<path d="M625.5,531V454.7" class="g4_19"/>
<path d="M625.5,534.2v-1.4m0,-79v-1.3" class="g5_19"/>
<path d="M454,534.2H623.3" class="g4_19"/>
<path d="M450.8,534.2h1.4m171.9,0h1.4v-.5" class="g5_19"/>
<path d="M457,523.8H568" class="g6_19"/>
<path d="M450.4,594.2H584.6v24H450.4v-24Zm134.2,0h78.9v24H584.6v-24Zm-134.2,24H584.6v24H450.4v-24Zm134.2,0h78.9v24H584.6v-24Zm-134.2,24H584.6v24H450.4v-24Zm134.2,0h78.9v24H584.6v-24Zm-134.2,24H584.6v24H450.4v-24Zm134.2,0h78.9v24H584.6v-24Zm-134.2,24H584.6v24H450.4v-24Zm134.2,0h78.9v24H584.6v-24ZM450.4,714.1H584.6v24H450.4v-24Zm134.2,0h78.9v24H584.6v-24Z" class="g2_19"/>
<path d="M584.6,617.4V594.2m-134.2,24H584.6m0,0h78.9m-78.9,23.2V618.9M450.4,642.2H584.6m0,0h78.9m-78.9,23.2V642.9M450.4,666.2H584.6m0,0h78.9m-78.9,23.2V666.9M450.4,690.2H584.6m0,0h78.9m-78.9,23.2V690.9M450.4,714.1H584.6m0,0h78.9m-78.9,24V714.9" class="g3_19"/>
<path d="M450.8,1010.3v-61m3.2,-2.2H776.1" class="g4_19"/>
<path d="M451.3,1013.4h-.5v-1.3m0,-63.6v-1.4h1.4m324.8,0h1.4v.5" class="g5_19"/>
<path d="M778.4,1010.3v-61" class="g4_19"/>
<path d="M778.4,1013.4v-1.3m0,-63.6v-1.4" class="g5_19"/>
<path d="M454,1013.4H776.1" class="g4_19"/>
<path d="M450.8,1013.4h1.4m324.8,0h1.4v-.4" class="g5_19"/>
<path d="M459.5,1000.5H504" class="g6_19"/>
<path d="M450.8,1181.9v-64.4m3.2,-2.3H605.3" class="g4_19"/>
<path d="M451.3,1185.2h-.5v-1.4m0,-67.2v-1.4h1.4m154,0h1.4v.4" class="g5_19"/>
<path d="M607.6,1181.9v-64.4" class="g4_19"/>
<path d="M607.6,1185.2v-1.4m0,-67.2v-1.4" class="g5_19"/>
<path d="M454,1185.2H605.3" class="g4_19"/>
<path d="M450.8,1185.2h1.4m154,0h1.4v-.5" class="g5_19"/>
<path d="M459.5,1172.3h41.1" class="g6_19"/>
<path d="M438.7,463.1h24.7V442.8H438.7v20.3Z" class="g0_19"/>
<path d="M438.7,956.6h24.7V936.3H438.7v20.3Z" class="g0_19"/>
<path d="M438.7,1128.4h24.7V1108H438.7v20.4Z" class="g0_19"/>
<path d="M56.3,1233.1H909.4" class="g9_19"/>
</svg>