<?xml version="1.0" encoding="UTF-8" standalone="no"?>
<!DOCTYPE svg PUBLIC "-//W3C//DTD SVG 1.1//EN"
"http://www.w3.org/Graphics/SVG/1.1/DTD/svg11.dtd">
<svg viewBox="0 0 909 1286" version="1.1" xmlns="http://www.w3.org/2000/svg" xmlns:xlink="http://www.w3.org/1999/xlink">
<defs>
<clipPath id="c0_12"><path d="M0,1286.2V0H909.4V1286.2Z"/></clipPath>
<style type="text/css"><![CDATA[
.g0_12{
fill: none;
stroke: #597642;
stroke-width: 1.805;
stroke-linecap: butt;
stroke-linejoin: miter;
stroke-miterlimit: 4;
}
.g1_12{
fill: #FFFFFF;
}
.g2_12{
fill: none;
stroke: #597642;
stroke-width: 3.611;
stroke-linecap: butt;
stroke-linejoin: miter;
}
.g3_12{
fill: none;
stroke: #000000;
stroke-width: 1.527;
stroke-linecap: round;
stroke-linejoin: round;
stroke-dasharray: 0,5;
}
.g4_12{
fill: none;
stroke: #000000;
stroke-width: 1.527;
stroke-linecap: round;
stroke-linejoin: round;
}
.g5_12{
fill: #597642;
}
.g6_12{
fill: #C6C8B3;
}
.g7_12{
fill: #D7D7C9;
}
.g8_12{
fill: none;
stroke: #FFEA9F;
stroke-width: 18.333;
stroke-linecap: butt;
stroke-linejoin: miter;
}
.g9_12{
fill: none;
stroke: #000000;
stroke-width: 0.763;
stroke-linecap: butt;
stroke-linejoin: miter;
}
]]></style>
</defs>
<path d="M87.5,593.2H852.2V158H87.5V593.2Z" class="g0_12"/>
<path d="M80.1,168.4h84.7V148H80.1v20.4Z" class="g1_12"/>
<image clip-path="url(#c0_12)" preserveAspectRatio="none" x="613" y="159" width="226" height="435" style="mix-blend-mode: multiply;" xlink:href="img/1.png"/>
<path d="M86.6,138.5H853.1" class="g2_12"/>
<path d="M734.5,149.8H853.1V123.5H734.5v26.3Z" class="g1_12"/>
<path d="M132.3,691.1H456" class="g3_12"/>
<path d="M127.7,691.1v0m330.6,0v0" class="g4_12"/>
<path d="M132.3,767.5H456" class="g3_12"/>
<path d="M127.7,767.5v0m330.6,0v0" class="g4_12"/>
<path d="M132.3,843.9H456" class="g3_12"/>
<path d="M127.7,843.9v0m330.6,0v0" class="g4_12"/>
<path d="M526.4,691.1H850.1" class="g3_12"/>
<path d="M521.8,691.1v0m330.6,0v0" class="g4_12"/>
<path d="M526.4,767.5H850.1" class="g3_12"/>
<path d="M521.8,767.5v0m330.6,0v0" class="g4_12"/>
<path d="M526.4,843.9H850.1" class="g3_12"/>
<path d="M521.8,843.9v0m330.6,0v0" class="g4_12"/>
<path d="M86.6,928.4H853.1" class="g2_12"/>
<path d="M736.2,939.7H853.1V913.4H736.2v26.3Z" class="g1_12"/>
<path d="M0,56.3V89.9Z" class="g5_12"/>
<path d="M0,89.9H853.1V56.3H0V89.9Z" class="g5_12"/>
<path d="M109.2,496.6H276.7V442.8H109.2v53.8Z" class="g6_12"/>
<path d="M109.1,440.7H186V420.6H109.1v20.1Z" class="g1_12"/>
<path d="M298.4,568.2H616V442.8H298.4V568.2Z" class="g6_12"/>
<path d="M86.6,1177H262V1064.6H86.6V1177Z" class="g7_12"/>
<path d="M95.3,1096.5h30.3m-30.3,16.8h66.6m-20.4,16.8h79.6m-79.6,16.8h94.1m-94.1,16.8h99.2" class="g8_12"/>
<path d="M283.7,1177H459.1V1064.6H283.7V1177Z" class="g7_12"/>
<path d="M292.3,1096.5h79.2m-79.2,16.8h97.5m-97.5,16.8h39.8" class="g8_12"/>
<path d="M480.7,1177H656.1V1064.6H480.7V1177Z" class="g7_12"/>
<path d="M494.1,1096.5h51.4m8.5,0h48.8m-113.4,16.8h55.3" class="g8_12"/>
<path d="M677.8,1177H853.1V1064.6H677.8V1177Z" class="g7_12"/>
<path d="M686.4,1096.5h60.1m-60.1,16.8h54m-54,16.8H740" class="g8_12"/>
<path clip-path="url(#c0_12)" d="M-853,1233.1H0m0,0H853.1" class="g9_12"/>
</svg>