<?xml version="1.0" encoding="UTF-8" standalone="no"?>
<!DOCTYPE svg PUBLIC "-//W3C//DTD SVG 1.1//EN"
"http://www.w3.org/Graphics/SVG/1.1/DTD/svg11.dtd">
<svg viewBox="0 0 909 1286" version="1.1" xmlns="http://www.w3.org/2000/svg" xmlns:xlink="http://www.w3.org/1999/xlink">
<defs>
<clipPath id="c0_10"><path d="M263.2,498.5V392.4H401.7V498.5Z"/></clipPath>
<clipPath id="c1_10"><path d="M406.1,498.5V392.4H544.6V498.5Z"/></clipPath>
<clipPath id="c2_10"><path d="M548.9,498.5V392.4H687.5V498.5Z"/></clipPath>
<clipPath id="c3_10"><path d="M691.8,498.1V392.4H830.4V498.1Z"/></clipPath>
<clipPath id="c4_10"><path d="M406.3,609V502.9H544.8V609Z"/></clipPath>
<clipPath id="c5_10"><path d="M549.2,609V502.9H687.7V609Z"/></clipPath>
<clipPath id="c6_10"><path d="M263.4,609V502.9H402V609Z"/></clipPath>
<clipPath id="c7_10"><path d="M692.1,609V502.9H830.6V609Z"/></clipPath>
<clipPath id="c8_10"><path d="M0,1286.2V0H909.4V1286.2Z"/></clipPath>
<style type="text/css"><![CDATA[
.g0_10{
fill: none;
stroke: #FFEA9F;
stroke-width: 18.333;
stroke-linecap: butt;
stroke-linejoin: miter;
}
.g1_10{
fill: none;
stroke: #000000;
stroke-width: 1.512;
stroke-linecap: round;
stroke-linejoin: round;
stroke-dasharray: 0,5;
}
.g2_10{
fill: none;
stroke: #597642;
stroke-width: 1.805;
stroke-linecap: butt;
stroke-linejoin: miter;
stroke-miterlimit: 4;
}
.g3_10{
fill: #FFFFFF;
}
.g4_10{
fill: none;
stroke: #597642;
stroke-width: 3.611;
stroke-linecap: butt;
stroke-linejoin: miter;
}
.g5_10{
fill: #F2F2ED;
}
.g6_10{
fill: none;
stroke: #597642;
stroke-width: 3.055;
stroke-linecap: butt;
stroke-linejoin: miter;
stroke-miterlimit: 4;
}
.g7_10{
fill: #D7D7C9;
}
.g8_10{
fill: none;
stroke: #000000;
stroke-width: 1.527;
stroke-linecap: round;
stroke-linejoin: round;
stroke-dasharray: 0,5;
}
.g9_10{
fill: none;
stroke: #000000;
stroke-width: 1.527;
stroke-linecap: round;
stroke-linejoin: round;
}
.ga_10{
fill: #597642;
}
.gb_10{
fill: #D1D3D4;
}
.gc_10{
}
.gd_10{
fill: none;
stroke: #000000;
stroke-width: 0.763;
stroke-linecap: butt;
stroke-linejoin: miter;
}
]]></style>
</defs>
<path d="M136.4,211.4h60.2" class="g0_10"/>
<path d="M205.5,217.5h33.2" class="g1_10"/>
<path d="M136.4,236.6h24.1" class="g0_10"/>
<path d="M169.4,242.7h33.1" class="g1_10"/>
<path d="M136.4,261.8h41.8" class="g0_10"/>
<path d="M187.1,267.9h33.1" class="g1_10"/>
<path d="M136.4,287h48.5" class="g0_10"/>
<path d="M193.8,293.1h33.1" class="g1_10"/>
<path d="M136.4,312.2h53.3" class="g0_10"/>
<path d="M198.6,318.3h33.1" class="g1_10"/>
<path d="M200.2,387.8h43.9M164,404.6h35.5m-63.1,33.6h67M190.5,455h64.9m-62.5,16.9h68.4m-73,50.4h41.3" class="g0_10"/>
<path d="M87.5,626.8H852.2V158H87.5V626.8Z" class="g2_10"/>
<path d="M80.1,168.4h84.7V148H80.1v20.4Z" class="g3_10"/>
<path d="M86.6,138.5H853.1" class="g4_10"/>
<path d="M626.2,149.8H853.1V123.5H626.2v26.3Z" class="g3_10"/>
<path d="M86.6,1215.9H853.1V795.7H86.6v420.2Z" class="g5_10"/>
<path d="M765,1007.7H176.3m1.5,-60.9v62.4M323.1,946.8v62.4m-65.7,-3.1v99.1m146.8,-74.4v74.4M551,1030.8v74.4m146.9,-99.1v99.1M469.9,946.8v62.4M616.7,946.8v62.4M763.5,946.8v62.4" class="g6_10"/>
<path d="M108.3,951.6h136V819.8h-136V951.6Z" class="g7_10"/>
<path d="M122.2,865H232.6" class="g8_10"/>
<path d="M117.7,865v0m117.1,0v0" class="g9_10"/>
<path d="M122.2,884.9H232.6" class="g8_10"/>
<path d="M117.7,884.9v0m117.1,0v0" class="g9_10"/>
<path d="M122.2,904.8H232.6" class="g8_10"/>
<path d="M117.7,904.8v0m117.1,0v0" class="g9_10"/>
<path d="M122.2,924.6H232.6" class="g8_10"/>
<path d="M117.7,924.6v0m117.1,0v0" class="g9_10"/>
<path d="M122.2,944.5H232.6" class="g8_10"/>
<path d="M117.7,944.5v0m117.1,0v0" class="g9_10"/>
<path d="M129.6,827.2h93.3V807.5H129.6v19.7Z" class="g3_10"/>
<path d="M255.1,951.6h136V819.8h-136V951.6Z" class="g7_10"/>
<path d="M269,865H379.4" class="g8_10"/>
<path d="M264.5,865v0m117.1,0v0" class="g9_10"/>
<path d="M269,884.9H379.4" class="g8_10"/>
<path d="M264.5,884.9v0m117.1,0v0" class="g9_10"/>
<path d="M269,904.8H379.4" class="g8_10"/>
<path d="M264.5,904.8v0m117.1,0v0" class="g9_10"/>
<path d="M269,924.6H379.4" class="g8_10"/>
<path d="M264.5,924.6v0m117.1,0v0" class="g9_10"/>
<path d="M269,944.5H379.4" class="g8_10"/>
<path d="M264.5,944.5v0m117.1,0v0" class="g9_10"/>
<path d="M284.9,827.2h76.3V807.5H284.9v19.7Z" class="g3_10"/>
<path d="M695.5,951.6h136V819.8h-136V951.6Z" class="g7_10"/>
<path d="M709.4,865H819.8" class="g8_10"/>
<path d="M704.9,865v0m117.2,0v0" class="g9_10"/>
<path d="M709.4,884.9H819.8" class="g8_10"/>
<path d="M704.9,884.9v0m117.2,0v0" class="g9_10"/>
<path d="M709.4,904.8H819.8" class="g8_10"/>
<path d="M704.9,904.8v0m117.2,0v0" class="g9_10"/>
<path d="M709.4,924.6H819.8" class="g8_10"/>
<path d="M704.9,924.6v0m117.2,0v0" class="g9_10"/>
<path d="M709.4,944.5H819.8" class="g8_10"/>
<path d="M704.9,944.5v0m117.2,0v0" class="g9_10"/>
<path d="M709.6,827.2H822.3V807.5H709.6v19.7Z" class="g3_10"/>
<path d="M401.9,951.6h136V819.8h-136V951.6Z" class="g7_10"/>
<path d="M415.8,865H526.2" class="g8_10"/>
<path d="M411.3,865v0m117.1,0v0" class="g9_10"/>
<path d="M415.8,884.9H526.2" class="g8_10"/>
<path d="M411.3,884.9v0m117.1,0v0" class="g9_10"/>
<path d="M415.8,904.8H526.2" class="g8_10"/>
<path d="M411.3,904.8v0m117.1,0v0" class="g9_10"/>
<path d="M415.8,924.6H526.2" class="g8_10"/>
<path d="M411.3,924.6v0m117.1,0v0" class="g9_10"/>
<path d="M415.8,944.5H526.2" class="g8_10"/>
<path d="M411.3,944.5v0m117.1,0v0" class="g9_10"/>
<path d="M444,827.2h51.8V807.5H444v19.7Z" class="g3_10"/>
<path d="M548.7,951.6h136V819.8h-136V951.6Z" class="g7_10"/>
<path d="M562.6,865H673" class="g8_10"/>
<path d="M558.1,865v0m117.2,0v0" class="g9_10"/>
<path d="M562.6,884.9H673" class="g8_10"/>
<path d="M558.1,884.9v0m117.2,0v0" class="g9_10"/>
<path d="M562.6,904.8H673" class="g8_10"/>
<path d="M558.1,904.8v0m117.2,0v0" class="g9_10"/>
<path d="M562.6,924.6H673" class="g8_10"/>
<path d="M558.1,924.6v0m117.2,0v0" class="g9_10"/>
<path d="M562.6,944.5H673" class="g8_10"/>
<path d="M558.1,944.5v0m117.2,0v0" class="g9_10"/>
<path d="M567.1,847.2h99V807.5h-99v39.7Z" class="g3_10"/>
<path d="M189.4,1203.7h136V1071.9h-136v131.8Z" class="g7_10"/>
<path d="M203.4,1117.1H313.7" class="g8_10"/>
<path d="M198.9,1117.1v0m117.1,0v0" class="g9_10"/>
<path d="M203.4,1137H313.7" class="g8_10"/>
<path d="M198.9,1137v0m117.1,0v0" class="g9_10"/>
<path d="M203.4,1156.8H313.7" class="g8_10"/>
<path d="M198.9,1156.8v0m117.1,0v0" class="g9_10"/>
<path d="M203.4,1176.7H313.7" class="g8_10"/>
<path d="M198.9,1176.7v0m117.1,0v0" class="g9_10"/>
<path d="M203.4,1196.6H313.7" class="g8_10"/>
<path d="M198.9,1196.6v0m117.1,0v0" class="g9_10"/>
<path d="M208.3,1079.3h99.2v-19.7H208.3v19.7Z" class="g3_10"/>
<path d="M483.1,1203.7H619V1071.9H483.1v131.8Z" class="g7_10"/>
<path d="M497,1117.1H607.4" class="g8_10"/>
<path d="M492.5,1117.1v0m117.1,0v0" class="g9_10"/>
<path d="M497,1137H607.4" class="g8_10"/>
<path d="M492.5,1137v0m117.1,0v0" class="g9_10"/>
<path d="M497,1156.8H607.4" class="g8_10"/>
<path d="M492.5,1156.8v0m117.1,0v0" class="g9_10"/>
<path d="M497,1176.7H607.4" class="g8_10"/>
<path d="M492.5,1176.7v0m117.1,0v0" class="g9_10"/>
<path d="M497,1196.6H607.4" class="g8_10"/>
<path d="M492.5,1196.6v0m117.1,0v0" class="g9_10"/>
<path d="M490.8,1094.6H611.3v-35H490.8v35Z" class="g3_10"/>
<path d="M629.9,1203.7h136V1071.9h-136v131.8Z" class="g7_10"/>
<path d="M643.9,1117.1h84.8" class="g8_10"/>
<path d="M639.3,1117.1v0m91.7,0v0" class="g9_10"/>
<path d="M643.8,1137H754.2" class="g8_10"/>
<path d="M639.3,1137v0m117.1,0v0" class="g9_10"/>
<path d="M643.8,1156.8H754.2" class="g8_10"/>
<path d="M639.3,1156.8v0m117.1,0v0" class="g9_10"/>
<path d="M643.8,1176.7H754.2" class="g8_10"/>
<path d="M639.3,1176.7v0m117.1,0v0" class="g9_10"/>
<path d="M643.8,1196.6H754.2" class="g8_10"/>
<path d="M639.3,1196.6v0m117.1,0v0" class="g9_10"/>
<path d="M645.3,1081.4h105v-21.8h-105v21.8Z" class="g3_10"/>
<path d="M336.2,1203.7h136V1071.9h-136v131.8Z" class="g7_10"/>
<path d="M350.2,1117.1H460.5" class="g8_10"/>
<path d="M345.7,1117.1v0m117.1,0v0" class="g9_10"/>
<path d="M350.2,1137H460.5" class="g8_10"/>
<path d="M345.7,1137v0m117.1,0v0" class="g9_10"/>
<path d="M350.2,1156.8H460.5" class="g8_10"/>
<path d="M345.7,1156.8v0m117.1,0v0" class="g9_10"/>
<path d="M350.2,1176.7H460.5" class="g8_10"/>
<path d="M345.7,1176.7v0m117.1,0v0" class="g9_10"/>
<path d="M350.2,1196.6H460.5" class="g8_10"/>
<path d="M345.7,1196.6v0m117.1,0v0" class="g9_10"/>
<path d="M371,1079.3h70.7v-19.7H371v19.7Z" class="g3_10"/>
<path d="M348.2,1034.6H591.5V980.8H348.2v53.8Z" class="ga_10"/>
<path d="M263.2,392.4H401.7V498.5H263.2V392.4Z" class="g7_10"/>
<image clip-path="url(#c0_10)" preserveAspectRatio="none" x="261" y="390" width="142" height="110" xlink:href="img/1.jpg"/>
<path d="M290.5,484.9c7.5,0,13.7,-6.2,13.7,-13.7c0,-7.6,-6.2,-13.7,-13.7,-13.7c-7.6,0,-13.7,6.1,-13.7,13.7c0,7.5,6.1,13.7,13.7,13.7Z" class="g3_10"/>
<path d="M406.1,392.4H544.6V498.5H406.1V392.4Z" class="g7_10"/>
<image clip-path="url(#c1_10)" preserveAspectRatio="none" x="404" y="392" width="143" height="107" xlink:href="img/2.jpg"/>
<path d="M433.4,484.9c7.5,0,13.6,-6.2,13.6,-13.7c0,-7.6,-6.1,-13.7,-13.6,-13.7c-7.6,0,-13.7,6.1,-13.7,13.7c0,7.5,6.1,13.7,13.7,13.7Z" class="g3_10"/>
<path d="M548.9,392.4H687.5V498.5H548.9V392.4Z" class="g7_10"/>
<image clip-path="url(#c2_10)" preserveAspectRatio="none" x="547" y="392" width="142" height="109" xlink:href="img/3.jpg"/>
<path d="M576.2,484.9c7.6,0,13.7,-6.2,13.7,-13.7c0,-7.6,-6.1,-13.7,-13.7,-13.7c-7.5,0,-13.6,6.1,-13.6,13.7c0,7.5,6.1,13.7,13.6,13.7Z" class="g3_10"/>
<path d="M691.8,392.4H830.4V498.5H691.8V392.4Z" class="g7_10"/>
<image clip-path="url(#c3_10)" preserveAspectRatio="none" x="691" y="391" width="141" height="107" xlink:href="img/4.jpg"/>
<path d="M719.1,484.9c7.6,0,13.7,-6.2,13.7,-13.7c0,-7.6,-6.1,-13.7,-13.7,-13.7c-7.5,0,-13.6,6.1,-13.6,13.7c0,7.5,6.1,13.7,13.6,13.7Z" class="g3_10"/>
<path d="M406.3,502.9H544.8V609H406.3V502.9Z" class="g7_10"/>
<image clip-path="url(#c4_10)" preserveAspectRatio="none" x="405" y="501" width="142" height="110" xlink:href="img/5.jpg"/>
<path d="M433.6,595.3c7.6,0,13.7,-6.1,13.7,-13.7c0,-7.5,-6.1,-13.6,-13.7,-13.6c-7.5,0,-13.7,6.1,-13.7,13.6c0,7.6,6.2,13.7,13.7,13.7Z" class="g3_10"/>
<path d="M549.2,502.9H687.7V609H549.2V502.9Z" class="g7_10"/>
<image clip-path="url(#c5_10)" preserveAspectRatio="none" x="548" y="501" width="142" height="110" xlink:href="img/6.jpg"/>
<path d="M576.5,595.3c7.5,0,13.7,-6.1,13.7,-13.7C590.2,574.1,584,568,576.5,568c-7.6,0,-13.7,6.1,-13.7,13.6c0,7.6,6.1,13.7,13.7,13.7Z" class="g3_10"/>
<path d="M263.4,502.9H402V609H263.4V502.9Z" class="g7_10"/>
<image clip-path="url(#c6_10)" preserveAspectRatio="none" x="262" y="501" width="142" height="110" xlink:href="img/7.jpg"/>
<path d="M290.7,595.3c7.6,0,13.7,-6.1,13.7,-13.7c0,-7.5,-6.1,-13.6,-13.7,-13.6c-7.5,0,-13.6,6.1,-13.6,13.6c0,7.6,6.1,13.7,13.6,13.7Z" class="g3_10"/>
<path d="M692.1,502.9H830.6V609H692.1V502.9Z" class="g7_10"/>
<image clip-path="url(#c7_10)" preserveAspectRatio="none" x="690" y="503" width="142" height="108" xlink:href="img/8.jpg"/>
<path d="M717.8,597.3c7.5,0,13.6,-6.1,13.6,-13.6c0,-7.6,-6.1,-13.7,-13.6,-13.7c-7.6,0,-13.7,6.1,-13.7,13.7c0,7.5,6.1,13.6,13.7,13.6Z" class="g3_10"/>
<path d="M694.6,531c-1.9,-8.6,10.6,-17.8,27.8,-20.7c17.3,-2.9,32.8,1.8,34.7,10.3c1,4.6,-2.1,9.3,-7.8,13.2c3.5,1.6,8,2.8,13,3.2c-2.9,.7,-6,1.2,-9.3,1.5c-4.4,.4,-8.5,.2,-12.3,-.3c-3.4,1.3,-7.3,2.4,-11.5,3.1C712,544.2,696.5,539.5,694.6,531Z" class="gb_10"/>
<path d="M721.8,207.6H831.5V325.2H721.8V207.6Z" class="g7_10"/>
<path d="M786.7,234.8v0c-5.8,0,-11.3,2.3,-15.3,6.4c-4.1,4.1,-6.4,9.5,-6.4,15.3v10h3.7v-10c0,-4.8,1.9,-9.3,5.3,-12.7c3.4,-3.4,7.9,-5.3,12.7,-5.3c9.9,0,17.9,8.2,17.9,18.2c0,10,-3.9,19.5,-11,26.6l-8.8,8.8c-1.4,1.3,-3.2,2.1,-5.1,2.1c-4,0,-7.3,-3.2,-7.3,-7.2v-3.2h-3.7V287c0,6,4.9,10.9,11,10.9c2.9,0,5.7,-1.1,7.7,-3.2l8.8,-8.8c3.8,-3.8,6.9,-8.3,9,-13.4c2,-5,3.1,-10.4,3.1,-15.8c0,-12.1,-9.7,-21.9,-21.6,-21.9Z" class="gc_10"/>
<path d="M786.7,244.1c-3.3,0,-6.4,1.3,-8.8,3.6c-2.3,2.4,-3.6,5.5,-3.6,8.8v3.4c0,2.6,1,5,2.8,6.8c.6,.6,.9,1.4,.9,2.2c0,.8,-.3,1.6,-.9,2.2c-1.3,1.3,-2.1,3.1,-2.1,5v.9c0,3.2,2.6,5.8,5.8,5.8h.2c3.2,0,5.8,-2.6,5.8,-5.8h-3.7c0,1.2,-1,2.1,-2.1,2.1h-.2c-1.1,0,-2.1,-.9,-2.1,-2.1v-.9c0,-.9,.4,-1.8,1,-2.4c1.3,-1.3,2,-3,2,-4.8c0,-1.8,-.7,-3.5,-2,-4.8C778.6,263,778,261.5,778,259.9v-3.3c0,-2.1,1.6,-3.8,3.6,-3.8q.1,0,.1,0c1,0,1.9,.3,2.6,1c.7,.7,1.1,1.7,1.1,2.7h3.7c0,-2,-.8,-3.9,-2.2,-5.3c-1.3,-1.3,-2.9,-2,-4.7,-2.1c1.3,-.8,2.9,-1.3,4.5,-1.3c4.7,0,8.6,4,8.6,8.9c0,3.9,-.8,7.7,-2.3,11.3l3.4,1.5c1.7,-4.1,2.6,-8.4,2.6,-12.8c0,-7,-5.5,-12.6,-12.3,-12.6Z" class="gc_10"/>
<path d="M747.4,277.6c1.4,0,2.5,1.1,2.5,2.5c0,1.4,-1.1,2.5,-2.5,2.5c-1.3,0,-2.4,-1.1,-2.4,-2.5c0,-1.4,1.1,-2.5,2.4,-2.5Z" class="gc_10"/>
<path d="M754.4,273.1l-2.6,2.6c2.4,2.4,2.4,6.4,0,8.8l2.6,2.6c3.9,-3.9,3.9,-10.1,0,-14Z" class="gc_10"/>
<path d="M759.7,267.9l-2.6,2.6c5.3,5.3,5.3,13.9,0,19.2l2.6,2.6c6.7,-6.7,6.7,-17.7,0,-24.4Z" class="gc_10"/>
<path d="M493.7,207.6H603.4V325.2H493.7V207.6Z" class="g7_10"/>
<path d="M554.5,264.7c.2,.4,.6,.6,.9,.6c.2,0,.4,-.1,.5,-.1c.1,-.1,6.5,-3.3,9.7,-4.3c.5,-.2,.9,-.8,.7,-1.4c-.2,-.6,-.8,-.9,-1.4,-.7c-3.3,1.1,-9.7,4.3,-9.9,4.4c-.6,.3,-.8,1,-.5,1.5Z" class="gc_10"/>
<path d="M555.4,252.2c.2,0,.4,0,.5,-.1c.1,0,6.5,-3.3,9.7,-4.3c.5,-.2,.9,-.8,.7,-1.3c-.2,-.6,-.8,-.9,-1.4,-.8c-3.3,1.1,-9.7,4.3,-9.9,4.5c-.6,.2,-.8,.9,-.5,1.4c.2,.4,.6,.6,.9,.6Z" class="gc_10"/>
<path d="M581.6,250c-.6,0,-1.1,.5,-1.1,1.1v42.5c0,1.8,-1.5,3.2,-3.3,3.2H551.1v-2.5c1.6,-.5,5.7,-1.8,9.8,-1.8c9.5,0,15.9,2.1,16,2.1c.3,.1,.7,.1,.9,-.1c.3,-.3,.5,-.6,.5,-.9V245.7c0,-.5,-.4,-1,-.9,-1.1c0,0,-.8,-.2,-2.3,-.4c-.6,-.1,-1.1,.3,-1.2,.9c-.1,.5,.2,1.1,.8,1.2c.6,.1,1.1,.2,1.4,.3v45.5c-2.4,-.6,-7.9,-1.8,-15.2,-1.8c-4.8,0,-9.4,1.6,-10.8,2.1c-1.3,-.6,-5.2,-2.1,-9.9,-2.1c-7.5,0,-13.7,1.2,-16.3,1.9V246.5c2.2,-.5,8.6,-1.9,16.3,-1.9c4,0,7.4,1.2,8.7,1.8v42.8c0,.4,.2,.8,.6,1c.3,.2,.7,.2,1.1,0c.1,-.1,10.9,-6.6,20.4,-9.7c.5,-.2,.8,-.6,.8,-1.1V234.8c0,-.3,-.2,-.7,-.5,-.9c-.3,-.2,-.7,-.2,-1,-.1c-8.7,3.3,-17.5,8.7,-17.6,8.8c-.5,.3,-.7,1,-.4,1.5c.4,.5,1,.7,1.5,.3c.1,0,7.8,-4.8,15.8,-8v42.2c-7.4,2.6,-15.2,6.8,-18.5,8.7V245.7c0,-.4,-.2,-.8,-.6,-1c-.2,-.1,-4.7,-2.3,-10.3,-2.3c-9.8,0,-17.4,2.2,-17.7,2.3c-.5,.1,-.8,.5,-.8,1v47.9c0,.3,.2,.6,.5,.8c.1,.2,.4,.3,.6,.3c.1,0,.2,-.1,.3,-.1c.1,0,7.6,-2.1,17.1,-2.1c4,0,7.4,1.2,8.7,1.8v2.5H522.8c-1.8,0,-3.3,-1.4,-3.3,-3.2V251.1c0,-.6,-.4,-1.1,-1,-1.1c-.6,0,-1.1,.5,-1.1,1.1v42.5c0,3,2.4,5.4,5.4,5.4h54.4c3,0,5.4,-2.4,5.4,-5.4V251.1c0,-.6,-.4,-1.1,-1,-1.1Z" class="gc_10"/>
<path d="M554.5,258.2c.2,.3,.6,.6,.9,.6c.2,0,.4,-.1,.5,-.2c.1,0,6.5,-3.3,9.7,-4.2c.5,-.2,.9,-.8,.7,-1.4c-.2,-.6,-.8,-.9,-1.4,-.7c-3.3,1,-9.7,4.3,-9.9,4.4c-.6,.3,-.8,.9,-.5,1.5Z" class="gc_10"/>
<path d="M554.5,271.2c.2,.4,.6,.6,.9,.6c.2,0,.4,0,.5,-.1c.1,0,6.5,-3.3,9.7,-4.3c.5,-.2,.9,-.8,.7,-1.4c-.2,-.5,-.8,-.8,-1.4,-.7c-3.3,1.1,-9.7,4.3,-9.9,4.5c-.6,.2,-.8,.9,-.5,1.4Z" class="gc_10"/>
<path d="M543.7,253.9c-6.7,-1.6,-14.3,.5,-14.6,.5c-.6,.2,-1,.8,-.8,1.4c.1,.5,.6,.8,1,.8c.1,0,.2,0,.3,-.1c.1,0,7.4,-1.9,13.6,-.5c.6,.2,1.2,-.2,1.3,-.8c.2,-.6,-.2,-1.1,-.8,-1.3Z" class="gc_10"/>
<path d="M543.7,260.4c-6.7,-1.5,-14.3,.5,-14.6,.6c-.6,.1,-1,.7,-.8,1.3c.1,.5,.6,.8,1,.8c.1,0,.2,0,.3,0c.1,-.1,7.4,-2,13.6,-.5c.6,.1,1.2,-.3,1.3,-.8c.2,-.6,-.2,-1.2,-.8,-1.4Z" class="gc_10"/>
<path d="M554.5,277.7c.2,.4,.6,.6,.9,.6c.2,0,.4,0,.5,-.1c.1,0,6.5,-3.3,9.7,-4.3c.5,-.1,.9,-.8,.7,-1.3c-.2,-.6,-.8,-.9,-1.4,-.7c-3.3,1,-9.7,4.2,-9.9,4.4c-.6,.3,-.8,.9,-.5,1.4Z" class="gc_10"/>
<path d="M543.7,267c-6.7,-1.6,-14.3,.4,-14.6,.5c-.6,.2,-1,.7,-.8,1.3c.1,.5,.6,.8,1,.8c.1,0,.2,0,.3,0c.1,0,7.4,-2,13.6,-.5c.6,.1,1.2,-.2,1.3,-.8c.2,-.6,-.2,-1.2,-.8,-1.3Z" class="gc_10"/>
<path d="M543.7,280c-6.7,-1.5,-14.3,.5,-14.6,.6c-.6,.1,-1,.7,-.8,1.3c.1,.5,.6,.8,1,.8c.1,0,.2,0,.3,0c.1,-.1,7.4,-2,13.6,-.5c.6,.1,1.2,-.3,1.3,-.9c.2,-.5,-.2,-1.1,-.8,-1.3Z" class="gc_10"/>
<path d="M543.7,273.5c-6.7,-1.6,-14.3,.4,-14.6,.5c-.6,.2,-1,.8,-.8,1.4c.1,.4,.6,.8,1,.8c.1,0,.2,-.1,.3,-.1c.1,0,7.4,-1.9,13.6,-.5c.6,.2,1.2,-.2,1.3,-.8c.2,-.6,-.2,-1.2,-.8,-1.3Z" class="gc_10"/>
<path d="M379.7,207.6H489.4V325.2H379.7V207.6Z" class="g7_10"/>
<path d="M607.7,207.6H717.5V325.2H607.7V207.6Z" class="g7_10"/>
<path d="M265.6,207.6H375.3V325.2H265.6V207.6Z" class="g7_10"/>
<path d="M401.3,314.4c6,0,10.8,-4.9,10.8,-10.9c0,-5.9,-4.8,-10.8,-10.8,-10.8c-6,0,-10.8,4.9,-10.8,10.8c0,6,4.8,10.9,10.8,10.9Z" class="g3_10"/>
<path d="M515.3,314.4c6,0,10.8,-4.9,10.8,-10.9c0,-5.9,-4.8,-10.8,-10.8,-10.8c-6,0,-10.8,4.9,-10.8,10.8c0,6,4.8,10.9,10.8,10.9Z" class="g3_10"/>
<path d="M629.4,314.4c5.9,0,10.8,-4.9,10.8,-10.9c0,-5.9,-4.9,-10.8,-10.8,-10.8c-6,0,-10.9,4.9,-10.9,10.8c0,6,4.9,10.9,10.9,10.9Z" class="g3_10"/>
<path d="M743.4,314.4c6,0,10.8,-4.9,10.8,-10.9c0,-5.9,-4.8,-10.8,-10.8,-10.8c-6,0,-10.8,4.9,-10.8,10.8c0,6,4.8,10.9,10.8,10.9Z" class="g3_10"/>
<path d="M658.3,289c-6.5,0,-12.3,3.9,-14.7,10c-.3,.5,0,1.2,.6,1.4c.5,.2,1.2,-.1,1.4,-.6c2.1,-5.2,7.1,-8.6,12.7,-8.6c5.6,0,10.5,3.4,12.6,8.6c.2,.4,.6,.7,1.1,.7c.1,0,.2,-.1,.4,-.1c.5,-.2,.8,-.9,.6,-1.4c-2.5,-6.1,-8.2,-10,-14.7,-10Z" class="gc_10"/>
<path d="M696.9,237.4c-4.2,-3.3,-9.7,-5.1,-15.5,-5.1c-5.9,0,-11.4,1.8,-15.5,5.1c-4.2,3.3,-6.6,7.8,-6.6,12.6c0,8.4,7.3,15.6,17.4,17.3c.2,2.7,-.7,5.4,-2.6,7.3c-.3,.3,-.4,.8,-.2,1.2c.1,.4,.5,.7,1,.7c5.4,0,10,-3.9,11.1,-9.2c4.7,-.8,9,-2.8,12.1,-5.7c3.4,-3.2,5.3,-7.4,5.3,-11.6c0,-4.8,-2.3,-9.3,-6.5,-12.6m-12.1,27.9c-.5,.1,-.9,.6,-.9,1.2c-.6,3.6,-3.2,6.5,-6.5,7.4c1.3,-2.2,1.8,-4.8,1.5,-7.4c0,-.6,-.4,-1.1,-1,-1.2C668.4,264,661.5,257.6,661.5,250c0,-8.6,8.9,-15.5,19.9,-15.5c10.9,0,19.8,6.9,19.8,15.5c0,7.6,-6.9,14,-16.4,15.3Z" class="gc_10"/>
<path d="M674,248.8c-.6,0,-1.2,.6,-1.2,1.2c0,.6,.6,1.2,1.2,1.2c.6,0,1.2,-.6,1.2,-1.2c0,-.6,-.6,-1.2,-1.2,-1.2Z" class="gc_10"/>
<path d="M688.8,248.8c-.7,0,-1.2,.6,-1.2,1.2c0,.6,.5,1.2,1.2,1.2c.6,0,1.1,-.6,1.1,-1.2c0,-.6,-.5,-1.2,-1.1,-1.2Z" class="gc_10"/>
<path d="M681.4,248.8c-.7,0,-1.2,.6,-1.2,1.2c0,.6,.5,1.2,1.2,1.2c.6,0,1.2,-.6,1.2,-1.2c0,-.6,-.6,-1.2,-1.2,-1.2Z" class="gc_10"/>
<path d="M658.3,285.7c5.7,0,10.3,-4.6,10.3,-10.3C668.6,269.7,664,265,658.3,265c-5.7,0,-10.4,4.7,-10.4,10.4c0,5.7,4.7,10.3,10.4,10.3m0,-18.5c4.4,0,8.1,3.7,8.1,8.2c0,4.5,-3.7,8.1,-8.1,8.1c-4.5,0,-8.2,-3.6,-8.2,-8.1c0,-4.5,3.7,-8.2,8.2,-8.2Z" class="gc_10"/>
<path d="M444.4,276.2l-14.9,.1l-5.6,20.3c-.2,.7,-.9,1.2,-1.7,1.2h-5.5c-1,0,-1.8,-.7,-1.8,-1.7c0,-1,.8,-1.8,1.8,-1.8h4.2L426.5,274c.2,-.7,.9,-1.2,1.7,-1.2l14.5,-.1V256c-3.2,1,-6.8,4.4,-10.6,10.2h4.6c.9,0,1.7,.8,1.7,1.8c0,.9,-.8,1.7,-1.7,1.7h-15c-.8,0,-1.4,-.4,-1.7,-1.1l-4.9,-14c-.4,-.9,.1,-1.9,1,-2.2c.9,-.3,1.9,.1,2.3,1.1l4.5,12.7H428c.1,-.2,.1,-.3,.2,-.5c5.7,-9,11,-13.4,16.2,-13.4c1,0,1.8,.7,1.8,1.7v20.5q0,.1,0,.1q0,.1,-.1,.1q0,.1,0,.1c0,0,0,.1,0,.1c0,0,0,.1,0,.1v.1c0,0,-.1,0,-.1,0q0,.1,0,.1q0,.1,0,.1c-.1,0,-.1,.1,-.1,.1c0,.1,-.1,.1,-.1,.1c0,0,0,.1,0,.1c0,0,-.1,0,-.1,0q0,.1,0,.1q-.1,0,-.1,.1h-.1c0,0,0,.1,0,.1q-.1,0,-.1,0c0,0,-.1,.1,-.1,.1q-.1,0,-.1,0c0,.1,-.1,.1,-.1,.1c0,0,-.1,0,-.1,0h-.1q0,.1,0,.1q-.1,0,-.1,0q-.1,0,-.1,0c0,0,-.1,0,-.1,0c0,0,-.1,0,-.1,0c0,0,-.1,0,-.1,0Z" class="gc_10"/>
<path d="M454.1,282V249.7c0,-.9,-.8,-1.7,-1.7,-1.7c-1,0,-1.8,.8,-1.8,1.7v30.6H434.4c-.9,0,-1.7,.8,-1.7,1.7c0,1,.8,1.8,1.7,1.8h7.2v10.5h-2.9c-1,0,-1.8,.8,-1.8,1.8c0,1,.8,1.7,1.8,1.7h9.4c1,0,1.8,-.7,1.8,-1.7c0,-1,-.8,-1.8,-1.8,-1.8h-2.9V283.8h7.2c.3,0,.6,-.1,.8,-.2c.6,-.3,.9,-.9,.9,-1.6Z" class="gc_10"/>
<path d="M434.9,242.2c0,-4,3.3,-7.3,7.4,-7.3c4,0,7.3,3.3,7.3,7.3c0,4.1,-3.3,7.4,-7.3,7.4c-4.1,0,-7.4,-3.3,-7.4,-7.4m3.5,0c0,2.1,1.7,3.8,3.9,3.8c2.1,0,3.8,-1.7,3.8,-3.8c0,-2.1,-1.7,-3.8,-3.8,-3.8c-2.2,0,-3.9,1.7,-3.9,3.8Z" class="gc_10"/>
<path d="M338.6,243.7c.9,0,1.6,-.8,1.6,-1.6v-5c0,-1.9,-1.6,-3.5,-3.5,-3.5H303.3c-.4,0,-.8,.2,-1.1,.5l-13.1,13.1c-.3,.3,-.5,.7,-.5,1.1v47.4c0,1.9,1.6,3.4,3.5,3.4h44.6c1.9,0,3.5,-1.5,3.5,-3.4V271.5c0,-.9,-.7,-1.6,-1.6,-1.6c-.9,0,-1.6,.7,-1.6,1.6v24.2c0,.1,-.1,.2,-.3,.2H292.1c-.2,0,-.3,-.1,-.3,-.2V249.9h9.6c1.9,0,3.5,-1.6,3.5,-3.5v-9.6h31.8c.2,0,.3,.1,.3,.3v5c0,.8,.7,1.6,1.6,1.6m-36.9,2.7c0,.2,-.1,.3,-.3,.3H294l7.7,-7.7Z" class="gc_10"/>
<path d="M350.8,246.5l-1.9,-1.9c-2.1,-2.1,-5.5,-2.1,-7.6,0l-14.7,14.8H301c-.9,0,-1.6,.7,-1.6,1.6c0,.8,.7,1.5,1.6,1.5h22.4l-9.5,9.5H301c-.9,0,-1.6,.8,-1.6,1.6c0,.9,.7,1.6,1.6,1.6h9.7c-.2,.2,-.3,.5,-.4,.7l-2.4,8.8H301c-.9,0,-1.6,.7,-1.6,1.6c0,.9,.7,1.6,1.6,1.6h8.1c0,0,.3,-.1,.4,-.1c0,0,9.9,-2.7,9.9,-2.7c.3,-.1,.6,-.3,.7,-.4L350.8,254c2.1,-2.1,2.1,-5.4,0,-7.5M311.3,284l1.3,-4.6l3.4,3.3Zm7.7,-2.7l-4.9,-5l25.3,-25.2l4.9,4.9Zm29.5,-29.5l-2,2l-4.9,-5l2,-2c.8,-.8,2.2,-.8,3.1,0l1.8,1.9c.9,.9,.9,2.2,0,3.1Z" class="gc_10"/>
<path d="M287.2,314.4c6,0,10.9,-4.9,10.9,-10.9c0,-5.9,-4.9,-10.8,-10.9,-10.8c-5.9,0,-10.8,4.9,-10.8,10.8c0,6,4.9,10.9,10.8,10.9Z" class="g3_10"/>
<path d="M0,56.3V89.9Z" class="ga_10"/>
<path d="M0,89.9H853.1V56.3H0V89.9Z" class="ga_10"/>
<path d="M86.6,726.7H853.1" class="g4_10"/>
<path d="M734.5,738H853.1V711.7H734.5V738Z" class="g3_10"/>
<path clip-path="url(#c8_10)" d="M-853,1233.1H0m0,0H853.1" class="gd_10"/>
</svg>