<?xml version="1.0" encoding="UTF-8" standalone="no"?>
<!DOCTYPE svg PUBLIC "-//W3C//DTD SVG 1.1//EN"
"http://www.w3.org/Graphics/SVG/1.1/DTD/svg11.dtd">
<svg viewBox="0 0 909 1286" version="1.1" xmlns="http://www.w3.org/2000/svg" xmlns:xlink="http://www.w3.org/1999/xlink">
<defs>
<clipPath id="c0_5"><path d="M0,1286.2V0H909.4V1286.2Z"/></clipPath>
<clipPath id="c1_5"><path d="M65.3,1207.2V979.3H415.1v227.9Z"/></clipPath>
<clipPath id="c2_5"><path d="M353.1,1277V863H556.3v414Z"/></clipPath>
<style type="text/css"><![CDATA[
.g0_5{
fill: #D3D6D9;
}
.g1_5{
fill: #B3B9BF;
}
.g2_5{
fill: none;
stroke: #FFEA9F;
stroke-width: 18.333;
stroke-linecap: butt;
stroke-linejoin: miter;
}
.g3_5{
fill: #FFFFFF;
}
.g4_5{
fill: #385963;
}
.g5_5{
fill: none;
stroke: #385963;
stroke-width: 3.611;
stroke-linecap: butt;
stroke-linejoin: miter;
}
.g6_5{
fill: none;
stroke: #FFEA9F;
stroke-width: 13.769;
stroke-linecap: butt;
stroke-linejoin: miter;
}
.g7_5{
fill: none;
stroke: #000000;
stroke-width: 1.527;
stroke-linecap: round;
stroke-linejoin: round;
stroke-dasharray: 0,5;
}
.g8_5{
fill: none;
stroke: #000000;
stroke-width: 1.527;
stroke-linecap: round;
stroke-linejoin: round;
}
.g9_5{
fill: none;
stroke: #9DDCF9;
stroke-width: 13.75;
stroke-linecap: butt;
stroke-linejoin: miter;
}
.ga_5{
fill: #C7C8CA;
}
.gb_5{
fill: none;
stroke: #000000;
stroke-width: 0.763;
stroke-linecap: butt;
stroke-linejoin: miter;
}
.gc_5{
fill: #E6E7E8;
}
]]></style>
</defs>
<path d="M494.4,1286.2h415V0h-415V1286.2Z" class="g0_5"/>
<path d="M56.3,511.8H472.8V409.2H56.3V511.8Z" class="g1_5"/>
<path d="M102.3,426.5h25m-25,16.8h22.5m-22.5,16.8h23.6m-23.6,16.8h41m-41,16.8h34.5M201,426.5h23.9M201,443.3h29.6M201,460.1h31.7M201,476.9h39.5M201,493.7h26.6m72.1,-67.2h30.8m-30.8,16.8h30.8m-30.8,16.8h31.7m-31.7,16.8h46.6m-46.6,16.8h43.4m55.3,-67.2h55m-55,16.8h60.8m-60.8,16.8h62.8m-62.8,16.8h63.5m-63.5,16.8H438" class="g2_5"/>
<path d="M56.2,407.1h76.9V387H56.2v20.1Z" class="g3_5"/>
<path d="M56.3,89.9H909.4V56.3H56.3V89.9Z" class="g4_5"/>
<path clip-path="url(#c0_5)" d="M56.3,138.5H1762.6" class="g5_5"/>
<path d="M533.5,635.3h87.9M553,671.2h82.4M533.5,847.9H666.1M553,883.8H660.6m-108.3,36h35.6m-25.8,35.9h94.5m-123.1,23H649.8m-87.7,58.9H681.6" class="g6_5"/>
<path d="M83.3,242.7H250.7" class="g7_5"/>
<path d="M78.7,242.7v0m174.2,0v0" class="g8_5"/>
<path d="M83.3,267.9H250.7" class="g7_5"/>
<path d="M78.7,267.9v0m174.2,0v0" class="g8_5"/>
<path d="M83.3,293.1H250.7" class="g7_5"/>
<path d="M78.7,293.1v0m174.2,0v0" class="g8_5"/>
<path d="M83.3,318.3H250.7" class="g7_5"/>
<path d="M78.7,318.3v0m174.2,0v0" class="g8_5"/>
<path d="M83.3,343.5H250.7" class="g7_5"/>
<path d="M78.7,343.5v0m174.2,0v0" class="g8_5"/>
<path d="M83.3,368.7H250.7" class="g7_5"/>
<path d="M78.7,368.7v0m174.2,0v0" class="g8_5"/>
<path d="M302.4,242.7H469.7" class="g7_5"/>
<path d="M297.8,242.7v0m174.2,0v0" class="g8_5"/>
<path d="M302.4,267.9H469.7" class="g7_5"/>
<path d="M297.8,267.9v0m174.2,0v0" class="g8_5"/>
<path d="M302.4,293.1H469.7" class="g7_5"/>
<path d="M297.8,293.1v0m174.2,0v0" class="g8_5"/>
<path d="M302.4,318.3H469.7" class="g7_5"/>
<path d="M297.8,318.3v0m174.2,0v0" class="g8_5"/>
<path d="M302.4,343.5H469.7" class="g7_5"/>
<path d="M297.8,343.5v0m174.2,0v0" class="g8_5"/>
<path d="M302.4,368.7H469.7" class="g7_5"/>
<path d="M297.8,368.7v0m174.2,0v0" class="g8_5"/>
<path d="M86.6,639.9H236.1M86.6,656.7H251.4" class="g9_5"/>
<path d="M146.1,814.1H469.7" class="g7_5"/>
<path d="M141.5,814.1v0m330.5,0v0" class="g8_5"/>
<path d="M154.8,839.3H469.7" class="g7_5"/>
<path d="M150.2,839.3v0m321.8,0v0" class="g8_5"/>
<path d="M135.2,864.5H469.7" class="g7_5"/>
<path d="M130.6,864.5v0m341.4,0v0" class="g8_5"/>
<path d="M86.6,720.1H465.1v-42H86.6v42Z" class="ga_5"/>
<path d="M56.3,1233.1H909.4" class="gb_5"/>
<image clip-path="url(#c0_5)" preserveAspectRatio="none" x="55" y="939" width="387" height="295" xlink:href="img/1.png"/>
<path d="M56.3,1215.9H423.5V938.8H56.3v277.1Z" class="gc_5"/>
<g clip-path="url(#c1_5)">
<image preserveAspectRatio="none" x="37" y="979" width="423" height="246" xlink:href="img/2.png"/>
<image preserveAspectRatio="none" x="63" y="979" width="354" height="228" xlink:href="img/3.jpg"/>
</g>
<path d="M68.4,1019.7H217.1V990.1H68.4v29.6Z" class="g3_5"/>
<path d="M126.9,1006.4h81.5" class="g2_5"/>
<image clip-path="url(#c2_5)" preserveAspectRatio="none" x="351" y="863" width="205" height="414" xlink:href="img/4.png"/>
<path d="M246.5,1192.1H366.3v-29.6H246.5v29.6Z" class="g3_5"/>
<path d="M295.6,1178.8h62" class="g2_5"/>
</svg>