<?xml version="1.0" encoding="UTF-8" standalone="no"?>
<!DOCTYPE svg PUBLIC "-//W3C//DTD SVG 1.1//EN"
"http://www.w3.org/Graphics/SVG/1.1/DTD/svg11.dtd">
<svg viewBox="0 0 909 1286" version="1.1" xmlns="http://www.w3.org/2000/svg" xmlns:xlink="http://www.w3.org/1999/xlink">
<defs>
<clipPath id="c0_22"><path d="M86.6,325.2V207.6H261.7V325.2Z"/></clipPath>
<clipPath id="c1_22"><path d="M86.6,795.7V678.1H261.7V795.7Z"/></clipPath>
<clipPath id="c2_22"><path d="M86.6,476.4V358.8H261.7V476.4Z"/></clipPath>
<clipPath id="c3_22"><path d="M86.6,980.6V863H261.7V980.6Z"/></clipPath>
<clipPath id="c4_22"><path d="M86.6,627.7V510.1H261.7V627.7Z"/></clipPath>
<clipPath id="c5_22"><path d="M86.6,1165.5V1047.8H261.7v117.7Z"/></clipPath>
<clipPath id="c6_22"><path d="M283.7,325.2V207.6H459.1V325.2Z"/></clipPath>
<clipPath id="c7_22"><path d="M283.7,795.7V678.1H459.1V795.7Z"/></clipPath>
<clipPath id="c8_22"><path d="M283.7,476.4V358.8H459.1V476.4Z"/></clipPath>
<clipPath id="c9_22"><path d="M288,975.7V871.6H456.5V975.7Z"/></clipPath>
<clipPath id="ca_22"><path d="M283.7,624.7V510H459.1V624.7Z"/></clipPath>
<clipPath id="cb_22"><path d="M283.7,1165.5V1047.8H459.1v117.7Z"/></clipPath>
<clipPath id="cc_22"><path d="M0,1286.2V0H909.4V1286.2Z"/></clipPath>
<style type="text/css"><![CDATA[
.g0_22{
fill: #E9E9E1;
}
.g1_22{
}
.g2_22{
fill: #D7D7C9;
}
.g3_22{
fill: #939598;
}
.g4_22{
fill: #FFFFFF;
}
.g5_22{
fill: none;
stroke: #000000;
stroke-width: 3.611;
stroke-linecap: butt;
stroke-linejoin: miter;
}
.g6_22{
fill: none;
stroke: #000000;
stroke-width: 0.763;
stroke-linecap: butt;
stroke-linejoin: miter;
}
]]></style>
</defs>
<path d="M0,1286.2H909.4V0H0V1286.2Z" class="g0_22"/>
<path d="M0,56.3V89.9Z" class="g1_22"/>
<path d="M0,1286.2H909.4V0H0V1286.2Z" class="g2_22"/>
<path d="M0,89.9H853.1V56.3H0V89.9Z" class="g1_22"/>
<path d="M86.6,325.2H261.7V207.6H86.6V325.2Z" class="g3_22"/>
<image clip-path="url(#c0_22)" preserveAspectRatio="none" x="85" y="206" width="179" height="119" xlink:href="img/1.jpg"/>
<path d="M86.6,795.7H261.7V678.1H86.6V795.7Z" class="g3_22"/>
<image clip-path="url(#c1_22)" preserveAspectRatio="none" x="85" y="676" width="179" height="121" xlink:href="img/2.jpg"/>
<path d="M86.6,476.4H261.7V358.8H86.6V476.4Z" class="g3_22"/>
<image clip-path="url(#c2_22)" preserveAspectRatio="none" x="87" y="357" width="175" height="122" xlink:href="img/3.jpg"/>
<path d="M86.6,980.6H261.7V863H86.6V980.6Z" class="g3_22"/>
<image clip-path="url(#c3_22)" preserveAspectRatio="none" x="85" y="863" width="179" height="119" xlink:href="img/4.jpg"/>
<path d="M86.6,627.7H261.7V510.1H86.6V627.7Z" class="g3_22"/>
<image clip-path="url(#c4_22)" preserveAspectRatio="none" x="87" y="508" width="175" height="121" xlink:href="img/5.jpg"/>
<path d="M86.6,1165.5H261.7V1047.8H86.6v117.7Z" class="g3_22"/>
<image clip-path="url(#c5_22)" preserveAspectRatio="none" x="85" y="1046" width="178" height="121" xlink:href="img/6.jpg"/>
<path d="M283.7,325.2H459.1V207.6H283.7V325.2Z" class="g3_22"/>
<image clip-path="url(#c6_22)" preserveAspectRatio="none" x="282" y="206" width="179" height="122" xlink:href="img/7.jpg"/>
<path d="M283.7,795.7H459.1V678.1H283.7V795.7Z" class="g3_22"/>
<image clip-path="url(#c7_22)" preserveAspectRatio="none" x="282" y="676" width="179" height="120" xlink:href="img/8.jpg"/>
<path d="M283.7,476.4H459.1V358.8H283.7V476.4Z" class="g3_22"/>
<image clip-path="url(#c8_22)" preserveAspectRatio="none" x="282" y="359" width="179" height="119" xlink:href="img/9.jpg"/>
<path d="M283.7,980.6H459.1V863H283.7V980.6Z" class="g4_22"/>
<image clip-path="url(#c9_22)" preserveAspectRatio="none" x="288" y="872" width="169" height="104" xlink:href="img/10.jpg"/>
<path d="M283.7,627.7H459.1V510.1H283.7V627.7Z" class="g3_22"/>
<image clip-path="url(#ca_22)" preserveAspectRatio="none" x="284" y="508" width="175" height="117" xlink:href="img/11.jpg"/>
<path d="M283.7,1165.5H459.1V1047.8H283.7v117.7Z" class="g3_22"/>
<image clip-path="url(#cb_22)" preserveAspectRatio="none" x="282" y="1045" width="179" height="120" xlink:href="img/12.jpg"/>
<path d="M86.6,138.5H853.1" class="g5_22"/>
<path clip-path="url(#cc_22)" d="M-853,1233.1H0m0,0H853.1" class="g6_22"/>
</svg>