<?xml version="1.0" encoding="UTF-8" standalone="no"?>
<!DOCTYPE svg PUBLIC "-//W3C//DTD SVG 1.1//EN"
"http://www.w3.org/Graphics/SVG/1.1/DTD/svg11.dtd">
<svg viewBox="0 0 909 1286" version="1.1" xmlns="http://www.w3.org/2000/svg" xmlns:xlink="http://www.w3.org/1999/xlink">
<defs>
<clipPath id="c0_14"><path d="M0,1286.2V0H909.4V1286.2Z"/></clipPath>
<clipPath id="c1_14"><path d="M86.6,879.1v-270H853.1v270Z"/></clipPath>
<style type="text/css"><![CDATA[
.g0_14{
fill: #D5B700;
}
.g1_14{
}
.g2_14{
fill: #FFFFFF;
}
.g3_14{
fill: none;
stroke: #000000;
stroke-width: 3.611;
stroke-linecap: butt;
stroke-linejoin: miter;
}
.g4_14{
fill: #E2C95F;
}
.g5_14{
fill: none;
stroke: #D5B700;
stroke-width: 18.333;
stroke-linecap: butt;
stroke-linejoin: miter;
}
.g6_14{
fill: none;
stroke: #000000;
stroke-width: 0.763;
stroke-linecap: butt;
stroke-linejoin: miter;
}
]]></style>
</defs>
<path d="M0,1286.2H909.4V0H0V1286.2Z" class="g0_14"/>
<path d="M0,89.9H853.1V56.3H0V89.9Z" class="g1_14"/>
<path d="M74.7,1215.9H865V908.7H74.7v307.2Z" class="g2_14"/>
<path d="M86.6,138.5H853.1" class="g3_14"/>
<path d="M809.5,229.8l-.6,2.3l-3.2,1.1l-1,-1.2l-.5,.2l.9,3.4l1.4,.1l1.7,.7v.7l.8,-.2l1.2,-1.6V234l.7,-1.4l.7,.2l-.9,-1.9l-.1,-1.2Z" class="g2_14"/>
<path d="M828,236l-.1,6.4l.9,-.1l1.2,-1.4l1,.1l.7,.6l.2,1.7l2.1,1.1l.5,-.2v-.6l-1.7,-1.4l-.8,-1.9l.7,-.3l-.5,-1l-1,-.1l-.2,-1.1l-2.6,-1.7Z" class="g2_14"/>
<path d="M642.3,204.1l1.3,4l-.6,.3l.1,.8l1.1,.9v1.5l1.3,1.3l-.5,-3.8l-.8,-2.6l.2,-1.7h.6l.3,.6l-.3,1.5l3.4,6.6v2.4l2.7,3.2l3,1.3l1.2,-.7l1.8,1.5l1,-1.1l-.4,-1.2l1.5,-.4l.4,.2l.5,-.4h.7l1.3,-2.3l-.7,-.6l-2.5,.6l-.6,1.7l-1.5,.3l-1.7,-.8l-.8,-2.4l.6,-3.2l-1.2,-.7l-.6,-3l-.5,-.2l-.8,.9l-1,-.6l-.4,-2l-4,-.4L644.3,204Z" class="g2_14"/>
<path d="M741,182.9h-1.4l-.9,.5v.5l.6,.5l1.8,.3Z" class="g2_14"/>
<path d="M729.7,204.7l-1.1,-.4l-4.4,.9l-1,.7l.6,3l-1.7,.1l-1.1,1.7l-2.5,.6v1.2l8.3,6.3l1.4,.1l4.7,-3.6l-.5,-.6l-.9,-.1l-.5,-.9V210l-.3,-.4v-.9l-.9,-.9l-.1,-1.1l.4,-.2l-.2,-1.1Z" class="g2_14"/>
<path d="M723,205.9h-3l-.6,1.3l-1.3,.7l-1.1,3l-2.2,1.3l-3.1,5h3l.1,-1.5h.8v-2h2.7v-2.6l2.5,-.6l1.1,-1.7l1.6,-.1Z" class="g2_14"/>
<path d="M711.8,217.4l.5,.8l-.1,3.2l.8,-.6l.6,-.1l.8,.3l1,1.3l.9,-.6l4.2,-.1l-1,-7.2h1.1l-2.1,-1.6v1.1h-2.7v2H715l-.1,1.5Z" class="g2_14"/>
<path d="M713.1,221l-1,.7l-.2,.4l-.1,.5l.4,.2h1.2l.8,-.2l.1,.4l-.1,.5l.8,.4l.2,.2h1v-.4l-.9,-1.2l-1,-1.4l-.7,-.2Z" class="g2_14"/>
<path d="M713.6,223l-1.3,.1l-.1,.3l1.8,-.1l.1,-.2v-.3Z" class="g2_14"/>
<path d="M712.6,224.3l.1,-.4l2.2,.2l-.9,-.5h-1.8Z" class="g2_14"/>
<path d="M712.7,224.7l.4,.7l1,-.9v-.3l-1.2,-.1Z" class="g2_14"/>
<path d="M713.2,225.6l.8,1.2l1,-.9l1.1,-.1l.8,1.2l.8,.5l.3,-.6l.2,-.1v-1.2l-.5,-1.4l-1.5,.2l-1.9,-.2v.5Z" class="g2_14"/>
<path d="M714.1,226.9l1.5,1.4l1,-1.2L716,226l-.9,.1Z" class="g2_14"/>
<path d="M715.7,228.5l2.9,1.9l-.1,-1.5l-.9,-1l-.8,-.7Z" class="g2_14"/>
<path d="M718.8,230.4l1.1,-.7l1.4,-.3l1.4,.3l-.7,-1.1l-.2,-.6l.2,-2l-1.3,.1l-.5,-.6H719l-.6,.1V227l-.3,.1l-.3,.7l.9,1Z" class="g2_14"/>
<path d="M715.5,222.4l.8,-.5l4.5,-.1l-1.1,-7.1h1.2l5.7,4.3l.8,.1l-.3,2.4l-3.6,.3l-2.8,2.1l-.5,1.4l-1.9,.1l-.5,-1.4l-1.4,.1v-.5Z" class="g2_14"/>
<path d="M723.6,222l1,-.1l1.5,2.2l-1.4,1.1l-1.1,-.3l-1.4,.1l-.2,.8h-1.2l-.3,-.4l.4,-1.3Z" class="g2_14"/>
<path d="M726.3,224h.6l.6,-.9l1,-.2l1.1,.7h2.3l1.7,-.7l.7,-.5l.1,-.8l1.2,-1.2l.3,-2.8l-.8,-1.7l-2.1,-.5l-4.7,3.8l-.7,-.1l-.3,2.6l-2.4,.2Z" class="g2_14"/>
<path d="M722,227.9l.3,.7l.7,1.2h.5l1.1,-.7l-.1,-3.7l-.9,-.2h-1.2Z" class="g2_14"/>
<path d="M724.8,225.4V229l.7,-.4v-2.7l-.5,-.7Z" class="g2_14"/>
<path d="M725.7,228.6h.6V227l.7,-1v-1.8h-.7l-1,.9l.4,.8Z" class="g2_14"/>
<path d="M726.5,228.5l1,.1l1.2,1.3l.6,.2l.5,-.2l.7,-.1l.2,-1l1,-.6l1,-.1l2,-3.5l-.1,-.8l-.9,-.7l-1.7,.8l-2.4,-.1l-1.1,-.7l-.8,.2l-.5,.7v2.1l-.7,1Z" class="g2_14"/>
<path d="M729.9,204.6l1.5,-.5l.4,.3v.3l-.2,.3l.1,.5l.2,.2v.9l-.3,.4l.1,.3l.9,.3l-.8,1.2h-.3v1h-.3l-.3,-.2v-1l-.9,-.9l-.1,-.8l.4,-.4Z" class="g2_14"/>
<path d="M731.3,210l.4,-.1l.1,-.9h.2l.8,-1.4l2.1,.6l.5,.9l2,.9l1.1,-.4l-.1,-.5l-.5,-.4l.1,-.3l.7,-.6h1.5l.5,.7l1.2,.2l.2,9.6l-.9,-.1l-5.3,-2.7l-.6,.3l-2.2,-.5l-.6,-.8l-.8,-.1l-.5,-.8Z" class="g2_14"/>
<path d="M742.1,208.7h.7l1.4,.4h.6l.8,-.6h.4l.7,.3h1l.5,1.6l.2,.5l.1,.7l-.3,.2l-.4,-.2l-.5,-1.7h-.5v.6l.3,.9l2.4,3.1l.1,1.2l-.7,.9l-6.7,-.1Z" class="g2_14"/>
<path d="M734.6,222.5v-.8l1.2,-1.2l.4,-2.9l-.9,-1.6l.6,-.3l5.6,2.9l-.1,2.8l-.9,.9v1.4l.6,1.3H740l-1.9,1.8l-.1,.6h-1.3l-.1,.2l-.8,-.1l-.5,-1l-.4,-.2l.1,-.3l.5,-.4v-1.8l-.7,-.1l-.9,-.7Z" class="g2_14"/>
<path d="M749.2,226.2l-.8,-1.3l-.1,-.9h-.2v.3l-1,1.5l-.8,-.4l-.8,.6l-1.6,-.1l-.8,-.5l-1,.5l-.1,.4l-.3,.1l3.2,3.3l1.8,.1l.2,.4l2.5,.1v-.6l.2,-.4l.9,-.1l-1.1,-1.5h-.7l-.2,-1.1l.6,-.2Z" class="g2_14"/>
<path d="M749.9,215.9l-.9,.9h-6.7l.1,1.7h-.7v3l-1,.9v1.2l.7,1.4l.7,.5v.1l1.1,-.5l.7,.6l1.5,.1l.9,-.7l.7,.3l.9,-1.2v-.4l.7,-.1l.1,1.1l.6,1.1l1.6,-3.4v-2l1.1,-1.3Z" class="g2_14"/>
<path d="M730.7,229.8l.8,.8v1.2l4.5,-.1l.4,-.5l-1.3,-1.4l-.2,-.5l.8,-1.6l-.5,-1l-.5,-.3v-.5l.5,-.3l.1,-1.7h-.5v.8l-1.9,3.6l-1.2,.1l-.8,.5Z" class="g2_14"/>
<path d="M751.2,222.1l-.1,-1.5l1,-1.2l.3,.2l.5,1.7l2.4,1.8l-.4,.6l-1.8,-1.6Z" class="g2_14"/>
<path d="M755,223.9l-.2,.9h1.1v-1.3l-.4,-.3Z" class="g2_14"/>
<path d="M749.3,226.6l1.9,-4.3l1.8,.1l1.7,1.4l-.1,1.2h1.3l.1,.7l2.1,1.3h1.3l-2.5,2.7l-3.3,1h-.9l-1.4,-1.3l-.6,-.2l-1.2,-1.7h-.7l-.1,-.8Z" class="g2_14"/>
<path d="M756.1,224.8l1.1,.7h.3l2.6,-.9l.3,1l-.2,.8l-.6,.4l-1.4,-.1l-2,-1.2Z" class="g2_14"/>
<path d="M762.9,223.3l-.6,.1l.5,.6l.8,-.4l.3,-.1l-.4,-.3Z" class="g2_14"/>
<path d="M760.3,224.6l1.1,-.5l.4,.3v1l-1,2.9l-5.7,6.1l-.7,-.4v-2.6l.8,-1l1.8,-.5l2.7,-2.8l.7,-.7l.2,-.9Z" class="g2_14"/>
<path d="M735.3,229.7l1.2,1.3l.5,-.6l.8,.1l.1,-.6l.8,-.5l1.5,1.1l.9,-.9l3.5,.1l-3.2,-3.3l.4,-.3l.1,-.6l-.8,-.3h-1l-1.8,1.7v.7h-1.4l-.1,.3l-.8,-.1l-.9,1.5Z" class="g2_14"/>
<path d="M728.8,233.1l.1,.3l.2,.1l.3,-.3l-.3,-.2Z" class="g2_14"/>
<path d="M729.4,232.2l.2,.4h.2l.2,-.2l-.1,-.3Z" class="g2_14"/>
<path d="M730.4,230.6l-.1,.5l.4,.2l.3,-.2l-.1,-.6Z" class="g2_14"/>
<path d="M732.9,232v.6h-1.5l-.9,1.7l2.1,2.3l.5,-.4v-.5l-.3,-.1v-.4l.8,-.5l.7,.6h.8v-2.7l-1.3,-.1v-.6Z" class="g2_14"/>
<path d="M731.5,232.3l1.2,.1l-.1,-.4h-1.1Z" class="g2_14"/>
<path d="M734.1,231.9v.4h1.2l.1,3.3l-1.2,-.1l-.6,-.5l-.5,.3l-.1,.2l.3,.1l.1,.6l-.7,.6l.1,.4l.8,-.6h.4l.1,.3l.5,.2l1.6,-1.3l-.1,-1l.4,-.8l1,-.7l.3,-2.6H737l-.8,1.2Z" class="g2_14"/>
<path d="M732.9,237.3l.5,.6l.6,-.6l-.2,-.5h-.1Z" class="g2_14"/>
<path d="M733.7,238l2.7,-.1l.5,.8v.6l.2,.1h1.3l.4,-.7h.5l.3,.2h.7l.2,2.6h1.3v.2l3.5,1.6l.1,.3h.7v-1.1l-1.3,-.6v-.8l.6,-1.4h1.3L745.6,236v-1.5l1.8,-2.8v-.4l-.3,-.1v-.7l-.3,-.1l-.3,-.4l-5.3,-.2l-1,.9l-1.6,-1l-.5,.3l-.4,3.4l-1,.8l-.3,.7v1l-1.8,1.5l-.5,-.2l.1,.2Z" class="g2_14"/>
<path d="M745.8,234.5v.8l1.2,-.1v-.7l-.7,-.6Z" class="g2_14"/>
<path d="M745.8,235.5v.5l.2,.7h.4l.3,-.3l.2,-.9Z" class="g2_14"/>
<path d="M746.4,233.6l.8,.8l.5,-.3l1.3,-.3l.2,.1l.1,-.5l.8,-1.6l-.7,-1.3h-2v.5l.2,.3v.5Z" class="g2_14"/>
<path d="M749.6,230.4l.7,1.3l-.8,1.8l-.1,.5l4.1,2.5l1.3,-2l-.6,-.5l-.1,-2.6l.8,-.9l-1.2,.4h-1l-1.6,-1.3l-.4,-.2l-.9,.1l-.2,.3Z" class="g2_14"/>
<path d="M749.6,242l4.5,-.5l-1,-2l-.1,-1.9l.3,-.9L749,234l-1.3,.2l-.5,.4v.8l-.3,1.1l-.3,.3l-.5,.1l.9,3l1.4,.7h1Z" class="g2_14"/>
<path d="M740.2,245.5l.8,1.1l1.3,.1l.5,.3h1.3l1.1,-1.6l3.3,-1.5l.2,-1.2l-.3,-1.9l-1.7,-.9l-1.1,.1l-.6,1.2v.6l1.3,.6l.1,1.4l-1.1,.1l-.3,-.5L741.9,242l-.1,1.1h-1.5Z" class="g2_14"/>
<path d="M733.5,238.2l.9,3.3l-.1,1.1l-1.2,1.4l-.2,2.2l4.9,.1l1.7,.5l1.3,-.1l-.8,-1v-2.8l1.6,-.1v-1l-1.3,-.1l-.2,-2.6h-.6l-.2,-.2h-.4l-.4,.8H737l-.4,-.4l.1,-.5l-.4,-.6Z" class="g2_14"/>
<path d="M748.7,244.1l.8,.9v1l.1,.5l1.1,-1.2l-.1,-1.4l-.6,-.5l-.5,-2.6h-.9l.4,1.9Z" class="g2_14"/>
<path d="M747.1,252.9l.7,.6l1.7,-1l.2,-1.5v-2.5l2.7,-2.1h.4l1.6,-1.5l-.2,-3.2l-4.3,.5l.2,1l.7,.5l.2,1.8l-1.5,1.4l-.3,-.8V245l-.8,-.8l-2,.9l1.9,1v2.7l-1.2,1.9Z" class="g2_14"/>
<path d="M742.8,247.5l2.4,2.6l1.8,.4l1.1,-1.8v-2.5l-2,-1l-.7,.3l-1.1,1.7l-1.5,-.1Z" class="g2_14"/>
<path d="M735.5,255.2h.9l.5,.5h1.2l.3,-3.4v-2.2l.8,-.2l.3,-2.4h2l.7,-.6l-1.2,-.1l-1.6,.3l-1.7,-.7h-4.9l.1,1.4l1.7,2.4l-.3,1.2v.7Z" class="g2_14"/>
<path d="M738.6,252.4l.6,.1l-.1,1.6l.6,.1L741,253l1.6,.2l.4,-1.1l2,-1.8l-2.4,-2.8v-.4l-.3,-.1l-.7,.7h-1.9l-.3,2.4l-.7,.2Z" class="g2_14"/>
<path d="M746.4,253.2l-.3,.8l.5,.4h.6l.5,-.7l-.7,-.6Z" class="g2_14"/>
<path d="M743.6,256l.7,-.6h.4l.5,.6l-.1,.6l-.7,.3v.2l-.9,-.1l-.2,-.6Z" class="g2_14"/>
<path d="M745.3,250.4l-2,1.9l-.5,1.2l-1.7,-.2l-1.3,1.2l-.9,-.1l.1,-1.7l-.4,-.1l-.2,3.4h-1.6l-.5,-.6h-.7l.7,1.8l1.1,1.1l-.8,1l.5,1.2l1.3,.4l.9,-.8h2.8l.2,-.2l1.3,-.2l4.2,-4.2v-1.3l-.5,.5h-.7l-.8,-.6l.4,-1.1l.7,-.1v-2.1Zm-1,4.8h.4l.6,.7v.8l-.7,.3l-.1,.3h-1.1l-.4,-.8l.4,-.7Z" class="g2_14"/>
<path d="M690,158.6l-.3,.6l.6,.6l-.3,.7l.9,1.2l1.2,-.4l1.4,-.1l1.7,1.8l1.2,3l-1,1.9l1.3,-.2l.7,.5l.1,.9h-1.6l.9,.9l1,.2l-2.3,3.1l-.3,1.9l.5,1.6l-.3,.9l.6,2l1.2,1.3l.4,-.1l.7,-.2l.1,1.1l.5,.8l.9,-.1l.7,-2.6l2.1,-2.6l3.2,-1.3l2,-2.5l.9,.4h1.9l1.6,-1.5l1.9,-.8l.2,-1.2l-1.2,-1L712,169l-.5,-1.5l1.3,-.8l2.1,1.2l.7,-.8l-1.1,-.6l2.4,-3.3l-.4,-1.4l-1.2,-.1l.5,-1.2l1.4,-.7l2.9,-2.5l-.9,-.9l-3.2,.3l-1.7,1.7l1,-2.2l-1.2,-.3l-.6,1.1l-.9,-.8l-2.5,.3l.7,-1.1l4.1,-.2l-1,-1.4l-4.5,-.8l-1.9,.3l.1,.9l-1.9,-.6l.1,-.7l-1.4,.3l-.3,.7l1.4,.5l-1.4,1.1L703,154.3l-1.5,-.5l-.2,1.2h-1.5l-.5,-1.2l-2.4,-.4l-1.2,.7l-.1,.8l-1.6,-.2l-1,.4v1.5l-1.8,.3l-.8,-.5l-.6,.9l.8,.9l1.8,-.2l.1,.6l-1.3,.6Z" class="g2_14"/>
<path d="M695,169.9l-.1,.5l.5,.7h.5l.2,-.8l-.4,-.7Z" class="g2_14"/>
<path d="M712.9,168.2l.3,.4l1.2,.6l.1,-1l-1.2,-.3Z" class="g2_14"/>
<path d="M804.2,256.7l-.1,6.6l-1,.7l-.1,.7l1.4,.9l3.4,-.6h1.8l.6,-1l3.9,-.7l2.7,.8l-.1,1.1l.3,1.2l2.1,-.4l.1,.5l-1.3,1.1l.4,.3l1,-.3l-.3,3l2,1.5l1.1,-.4l.5,.6l3.3,-.5l3,-4.9l1.1,-.3l2.2,-4l.6,-3.6l-1.4,-1.7l.5,-.4l-1.1,-3.4l-1.2,-.9l.2,-4.6l-1.1,-.8l-.3,-2.6h-.5l-1.9,6.1l-1,.1l-2.3,-2.3L824,245l-2.4,-.4l-2.6,.7l-.8,2.1l-1.2,.3l-.1,-1.5l-4.8,3v1.1l-.7,1h-1.8l-4,1.7Z" class="g2_14"/>
<path d="M821,274.4l-.5,1.9l.1,1.3l1.4,-.1l1.6,-2.4Z" class="g2_14"/>
<path d="M843.6,270.7l.3,3.1l-.4,1.4l-1.3,1l.1,1.2v1.3l.3,.5l3.8,-3.3v-.7h-.9l-1.3,-4.4Z" class="g2_14"/>
<path d="M840.9,277.4l.7,1.4l-2,1.9l-.2,1.1L838,282l-2.3,2.1l-2.1,-1l-.2,-.8l3.9,-1.6Z" class="g2_14"/>
<path d="M842,254.8l-.1,.4l1.2,1.7l.6,.3l.1,-.7Z" class="g2_14"/>
<path d="M794.2,228.1l-.1,.6l1.8,2.9h.5l3.7,6.2l1.4,.1l.8,-2.1l-1.2,-.8l-.2,-1.2Z" class="g2_14"/>
<path d="M805,232l.8,.9l3,-1l.6,-2.3l1.3,-.1l1.2,-.9l-1.5,-1.1l-.4,-.7l-.8,1.5l.3,.8l-.5,.7l-.9,-.2l-2.2,1.6l.1,.9Z" class="g2_14"/>
<path d="M808.3,229.4l.6,.2l.4,-.5l-.3,-.6Z" class="g2_14"/>
<path d="M811.6,236.2l.6,.8l-.4,1v.2h.9l.3,-2.6h.2l.5,2.5l.5,.1l.5,-1l-.5,-1.6l-.3,-.7l1.2,-.9l-.3,-.4l-1.2,.8h-.3l-.5,-.9l.1,-.3l1,-.5l1.4,.5l.4,-.1l1.1,-1l-.4,-.4l-1,.8h-.7l-.9,-.5h-.7l-.8,1.3l-.5,2.1Z" class="g2_14"/>
<path d="M818,231.4l-.5,1.2l.8,1h.2l.3,-.7l.2,-.2l-.3,-.4l-.5,-.1Z" class="g2_14"/>
<path d="M818.4,235.5l-.3,.4l.3,.4l.7,-.3l.4,-.2l.6,.5l.3,-.2l-.5,-.7l-.4,-.1Z" class="g2_14"/>
<path d="M802.1,238.6l-.7,.5l.2,.4l2.3,.5l1.1,.3l.5,.5l1.3,.1l.6,.5l.6,-.1l.5,-.5l-1,-.4l-.8,-.7l-2.1,-.6Z" class="g2_14"/>
<path d="M809,241.2l.3,.3l.9,-.3l-.6,-.3Z" class="g2_14"/>
<path d="M810.5,240.6l.1,.5l.6,.2l.3,-.3l-.3,-.4Z" class="g2_14"/>
<path d="M811.2,242l.7,.6h.5l-.5,-.7Z" class="g2_14"/>
<path d="M812.1,241.1l-.1,.3l1.1,.2l.9,-.6l-.5,-.1l-.8,.2l-.3,-.2Z" class="g2_14"/>
<path d="M814.6,242.4l.1,.2l.6,-.1l.6,-.6l1.3,-.2l-.2,-.4h-1.1Z" class="g2_14"/>
<path d="M835.2,236.2l-.2,.3l1.2,1.1l.2,.7h.3l.1,-.7l-.4,-.4Z" class="g2_14"/>
<path d="M835.8,237.8h-.2l-.2,.7l-.5,.3l-1.4,.3l.1,.5l1.5,-.1l.9,-.6v-1Z" class="g2_14"/>
<path d="M837.5,238.9l.3,.9l.6,.6l.2,-.2l-.1,-.6l-.6,-.7Z" class="g2_14"/>
<path d="M839.1,240.9l.4,.3l.3,-.2l-.3,-.6l-.4,-.1Z" class="g2_14"/>
<path d="M839.2,242.1l.3,.6l.4,.1v-.4l-.4,-.7Z" class="g2_14"/>
<path d="M840.5,242.1l.5,.6l.3,-.5l-.4,-.6l-.6,-.2Z" class="g2_14"/>
<path d="M841.7,243.2l.4,.5l.3,-.7l-.8,-.6Z" class="g2_14"/>
<path d="M841.9,244.4l.4,.6h.3l-.2,-.8H842Z" class="g2_14"/>
<path d="M840.6,245.5l.4,.6l.3,-.2l-.3,-.6Z" class="g2_14"/>
<path d="M845.3,249.2l.2,.4l.1,.2l.3,-.4l-.2,-.7Z" class="g2_14"/>
<path d="M845.8,250.1l.1,.3l.3,.1l.2,-.1l-.2,-.4Z" class="g2_14"/>
<path d="M846.2,253.4l.2,.3l.4,-.1l-.5,-.4Z" class="g2_14"/>
<path d="M852.6,253.1l-.1,.5l.4,.3v-1.3Z" class="g2_14"/>
<path d="M811.5,222.9l-.2,.4l-.1,.5l-1.2,1.6v.3l.5,-.1l1.7,-1.8Z" class="g2_14"/>
<path d="M813.5,223.6l.5,.4l.2,1l.4,.1l.3,-.6l-.4,-.3l-.1,-1.6l-.9,-.3Z" class="g2_14"/>
<path d="M814.9,223.9l.2,.5l.5,-.6l-.1,-1h-.6Z" class="g2_14"/>
<path d="M815.2,221.8l.5,.6l.2,.6h.4l-.1,-1l-.4,-.4Z" class="g2_14"/>
<path d="M816.1,224.1l.1,.8l-.9,.7h-.7l-.8,.9l.1,.3l.7,-.2l.5,-.3l.4,1.1l.8,.5l.3,-.1l.2,-.3l-.6,-.6l.4,-.3l.4,.3l.3,-.4l-.3,-.6l-.1,-1.2Z" class="g2_14"/>
<path d="M812.1,216.5l-.7,.5l-.1,1.5l1.1,2l.3,.3l.5,-.3l.7,.1l.2,.7h.5l.3,-.4l-.3,-.4l-.5,-.4l-.8,-.1l-.5,-.8l.5,-.8l.1,-.8l-.4,-.9Z" class="g2_14"/>
<path d="M812.6,221.7l.4,.2l.2,-.3l-.4,-.6h-.4Z" class="g2_14"/>
<path d="M803.3,215.9l-.5,.6l.4,.7l.5,.1l.6,-.6l.2,-.7l-.6,-.2Z" class="g2_14"/>
<path d="M810.1,210.8v1.3l.8,1l.2,-.2l-.1,-2.8Z" class="g2_14"/>
<path d="M815.1,201.8l-.4,.4l.2,.6l.4,.1l.2,1.3l.3,.3l.5,-.5l.3,-.8l-.7,-1Z" class="g2_14"/>
<path d="M816.7,201.6v.8l.1,.2l1,-.8l-.1,-.8h-.3Z" class="g2_14"/>
<path d="M816.4,199.4l-1.2,1.4l.2,.4h.6l1.2,-.9l.8,-.1l.7,.9l.6,-.2l.2,-.9h1.1l1,-1.3l-.5,-2l-.3,-1.1l.6,-.5l-1.3,-1.9l-.3,.1l-.6,.7v.6l.3,.4l.1,1.6l-.8,1l-.5,-.3l-.3,.8l-.1,.7l.3,.4l-.2,.4l-.6,-.5H817l-.3,.2Z" class="g2_14"/>
<path d="M818.6,188.1l-.4,.3l.2,.8l.3,.3v1.2l-.5,.1l-.3,.8l1,1.4l.7,-.2l.1,-.4l-.7,-.6l.4,-.6l.5,.1l.4,.4v-.8l1,-.9l.6,-.1l-.5,-.8l-.2,-.4l-.4,.3l-.3,.4l-.7,-.2l-.7,-.4Z" class="g2_14"/>
<path d="M821.6,188.3l.1,.4l.3,-.1l.8,-1l-.5,-.3Z" class="g2_14"/>
<path d="M823.2,185.9l-.2,.6v.5l.4,-.3l.4,-.8v-.3Z" class="g2_14"/>
<path d="M824.4,180.3v.6h.3l.5,-.9l-.5,-.1Z" class="g2_14"/>
<path d="M824.1,181.4v1.1l.3,.2l.3,-.4v-.9Z" class="g2_14"/>
<path d="M813.9,177.5v1.6l2,3.1l.8,2.7l1.2,2.4l.5,.1l.4,-.3l.2,-.6l-1.8,-2l.1,-1l.4,-.2l.1,-.6l-3.6,-5Z" class="g2_14"/>
<path d="M827.4,172.5l.3,.5l.7,.4l.1,-.2l-.6,-.7Z" class="g2_14"/>
<path d="M829,173.2l.8,.2v-.3l-.9,-.3Z" class="g2_14"/>
<path d="M833.5,175h.5l.1,-.4l-1,-.2Z" class="g2_14"/>
<path d="M625.5,161.2l.6,-.2v-.5l-1.5,-1Z" class="g2_14"/>
<path d="M619.5,175l.6,-.1v-.3l-.5,-.3Z" class="g2_14"/>
<path d="M617.6,175.2l.1,.6l.5,-.4l.8,-.4l-.3,-.4Z" class="g2_14"/>
<path d="M613.1,175.5l.1,.7l.8,-.9l-.7,-.1Z" class="g2_14"/>
<path d="M611.4,175.5l.5,.4l.5,-.6l-.7,-.3Z" class="g2_14"/>
<path d="M609.2,174.3v.6l.3,.3l.3,-.6l-.3,-.5Z" class="g2_14"/>
<path d="M607,172.2h.3l.2,-.4l-.5,-.3Z" class="g2_14"/>
<path d="M765.4,249.7v.6l.9,-.7l-.5,-.4Z" class="g2_14"/>
<path d="M763.7,250.1v.5l.4,.1l.6,-.3l-.4,-.3Z" class="g2_14"/>
<path d="M760.4,242.4l-.6,1.3l-.9,1.7l-1.7,.1l-.7,.9l.1,2.5l-1,1.2l.1,2l.9,1l1,-.1l1.1,-.7l-.3,-1.2l2.4,-4.1l-.5,-.6l.5,-1l.5,.2l.2,-.4l-.5,-2l-.3,-.9Z" class="g2_14"/>
<path d="M756.6,242l.1,.4l.5,.1l.2,-.6Z" class="g2_14"/>
<path d="M757.4,242.8l.1,.4h.4l.1,-.5Z" class="g2_14"/>
<path d="M762.8,239l.5,.3l.3,-.3l-.6,-.4Z" class="g2_14"/>
<path d="M764.7,236.6l.4,.5h.5l-.4,-.8Z" class="g2_14"/>
<path d="M765.1,238l.2,.4h.5v-.7l-.4,-.1Z" class="g2_14"/>
<path d="M777.1,229.6l.4,.1l.1,-.6l-.6,-.2Z" class="g2_14"/>
<path d="M777.5,231.2l.4,.1l.2,-.5l-.5,-.5Z" class="g2_14"/>
<path d="M777.4,232.2l.3,.3l.4,-.3l-.4,-.2Z" class="g2_14"/>
<path d="M703,202.3l.7,.4v-.5l-.3,-.2Z" class="g2_14"/>
<path d="M704.9,202l.3,.3l.6,-.1l-.5,-.5Z" class="g2_14"/>
<path d="M705.4,203.3l.2,.4l.4,-.3l-.4,-.7Z" class="g2_14"/>
<path d="M707.1,204.2l.2,.2l.6,-.3l-.6,-.2Z" class="g2_14"/>
<path d="M712.3,207.4l.3,.3l.4,-.2l-.4,-.5Z" class="g2_14"/>
<path d="M714.1,211.8l.2,.2l.2,-.5Z" class="g2_14"/>
<path d="M712.4,211.7l.3,.4h.4l-.1,-.6Z" class="g2_14"/>
<path d="M711.3,211.5l.5,.4l.2,-.6l-.4,-.2Z" class="g2_14"/>
<path d="M706.8,221.3l.3,.3l.4,-.2l-.2,-.4Z" class="g2_14"/>
<path d="M708.1,221.9l.3,.4l.5,-.2l-.4,-.5Z" class="g2_14"/>
<path d="M707.3,222.7l.5,.6l.3,-.2l-.3,-.7Z" class="g2_14"/>
<path d="M678.1,219.3l.1,.4l.5,-.3l-.1,-.1l-.1,-.1Z" class="g2_14"/>
<path d="M678.9,220.1l.2,.3l.4,-.3l-.4,-.5Z" class="g2_14"/>
<path d="M679.6,221.2l.2,.4l.4,-.1l-.3,-.6Z" class="g2_14"/>
<path d="M679.7,222.3l.3,.4l.4,-.2l-.5,-.5Z" class="g2_14"/>
<path d="M679.6,223.2l.2,.4l.4,-.2l-.3,-.5Z" class="g2_14"/>
<path d="M679.2,224.1l.1,.2h.4l.1,-.3l-.3,-.2Z" class="g2_14"/>
<path d="M679.6,225h-.3v.4l.6,.5l.2,-.4l.2,-.4l-.1,-.3l-.3,-.1Z" class="g2_14"/>
<path d="M675.8,218.7l.3,.3l.9,.2v-.6l-.7,-.2Z" class="g2_14"/>
<path d="M671.8,217.1l-.5,.5l.5,.2l.1,.6l-1.1,.1l.1,.6h.3l.2,-.3l1.3,.1l.2,.4l.3,-.3l.9,-.3l.8,.2l.1,-.5l-1.4,-.9l-.9,-.3Z" class="g2_14"/>
<path d="M675,218.4l-1.4,-.9l-.7,-.2l-.2,1.6l.2,.4l.3,-.3l.9,-.3l.8,.2Z" class="g2_14"/>
<path d="M671.8,217.1l.9,.1l-.1,1.1l-.1,.6l-1.1,-.1l-.2,.3h-.3l-.1,-.6l1.1,-.1l-.1,-.6l-.5,-.2Z" class="g2_14"/>
<path d="M685.2,277.9l.5,.5l.9,-.9h-.7Z" class="g2_14"/>
<path d="M687,277.9l-.6,.6v.2l1.1,-.4l.5,-.6l-.7,-.5Z" class="g2_14"/>
<path d="M712.1,176.1l-.5,-.3l-.7,.4l-.6,.6l.1,.3l.7,.1v.5l-.3,.3l.1,.2h.7v.9l1.1,.2l.7,.4h.7l1.3,-.6l.9,-1.3l.1,-.9l-.6,-.5l-.5,-.4l-.2,.2l-.4,.4l-.4,-.1l-.3,-.4l-.5,.1l-.8,.6l-.4,.4l-.2,-.2v-.5l.2,-.1Z" class="g2_14"/>
<path d="M733.4,159.6l-.4,-.4l-1,.5h-1.7l-.3,1l1,.9l.4,-.1l.6,-1.1l.5,.4l-.3,.8l-.2,1l.4,.7l.9,-1.5l1.2,-1.5l-.4,-.4Z" class="g2_14"/>
<path d="M733.9,157.8l-.8,.7l.5,.7h.8l.4,.5l1,.5l1.1,-.7l.8,-.7l-.2,-.5l-.8,-.5l-.6,.5l-.4,-.4h-.3l-.4,.8l-.6,-.5l-.1,-.4Z" class="g2_14"/>
<path d="M735.7,161l-.7,.5l-.5,.4l.3,.5l.5,.1l.8,-.4l.3,-.4l-.3,-.6Z" class="g2_14"/>
<path d="M748.8,155.7l.5,.2l-.3,.5v.8l-.7,.4h-.7l-.4,-.5v-.5l.4,-.4h.6Z" class="g2_14"/>
<path d="M750.5,155.2v.5l.5,.4h.6l.6,-.5v-.4h-.5l-.4,.1l-.4,-.3Z" class="g2_14"/>
<path d="M753.1,155.3l.3,.6l.6,.1l.5,-.2l-.2,-.6l-.6,-.2Z" class="g2_14"/>
<path d="M754.7,154.7l.2,.4l.2,.7l.5,-.5l.2,-.5l-.2,-.4l-.5,-.1Z" class="g2_14"/>
<path d="M758.4,159.1l-.2,.7l-1,.9l-2.2,.5l-1.8,2.9l-.3,.9l1.8,.4l.3,-1l.5,-1.7l1.4,-.7l1.2,-.9l.8,-.4h.4v-1.2Z" class="g2_14"/>
<path d="M752.6,165.7l1.2,.1l.4,1.4l1,1.1l-.3,.7h-.6l-.6,-.6l-1.3,-.1l-.6,-.7v-.5l.8,-.2Z" class="g2_14"/>
<path d="M771.5,150.3l-.6,-.3h-.7l-.1,.4l-.7,.4l-.6,.2l-.1,.5l1.3,.1Z" class="g2_14"/>
<path d="M772.8,150.5l-.3,.7l-.6,-.1l-1,.7l-.2,.9h.6l.3,-.6l.9,.7l.8,-.4l.6,-.5l-.2,-.7l-.4,-.6Z" class="g2_14"/>
<path d="M774.1,151l.4,1.2l.4,1.2l.6,-.9l1,-.3v-.6l-.7,-.5Z" class="g2_14"/>
<path d="M798.7,149l.7,.5l.5,-.2l.1,-.8l-1,-.7l-.7,.5l-1.6,.1v.7l-1.7,.1v1.2l2,1.5l.5,-.4l-.1,-1.1l1.3,-.3l-.3,-.5l-.5,-.5Z" class="g2_14"/>
<path d="M800.5,148.3l.5,.8l1.8,-.2l.5,-.6l-.1,-.6l-.5,-.2l-.5,.4l-1.3,.3Z" class="g2_14"/>
<path d="M799,152l-.2,.8l1.2,-.1l.9,-.5l-.5,-.5l-.9,-.2Z" class="g2_14"/>
<path d="M823.8,146.6l-.7,-.2l-.9,.3l-.4,.6l.5,.8l1.5,-.7l.3,-.3Z" class="g2_14"/>
<path d="M783.3,225.6l.1,.7v.5l-.4,.1l.2,1.1l.6,.3l.9,-.5l-.3,-1.2l.1,-.4l-.8,-.8Z" class="g2_14"/>
<path d="M664,214.9v.3l1.4,.1l.6,-.4l.1,.3l1.4,.3l1.2,1.1l-.3,.4l.1,.4l1,.2l1,-.4l.4,-.5l-.6,-.3l-3.4,-2l-1.2,-.1Z" class="g2_14"/>
<path d="M668.5,213.4l.4,.4l.3,-.4l-.3,-.5l-.4,-.1Z" class="g2_14"/>
<path d="M669.1,214.1l.4,.6l.2,-.3l-.2,-.5Z" class="g2_14"/>
<path d="M670.5,214.6l.4,.5l.3,-.3l-.2,-.5h-.5Z" class="g2_14"/>
<path d="M669.8,212.6l.2,.8l.7,.3v-.4l-.3,-.2l-.3,-.6Z" class="g2_14"/>
<path d="M669.1,211.4l.4,.1l.1,.5l.4,.1l.2,-.6l-.3,-.2l-.5,-.2Z" class="g2_14"/>
<path d="M667.8,218.4v.3l.5,.3h.6l.3,-.4l-.5,-.4Z" class="g2_14"/>
<path d="M822.6,233.7l-1.1,.1l-.7,.5l.3,.6l1.2,.2v.3l-.8,.6l.4,1.2h.4l.3,-1.2h.5l.3,1.2l2.8,2.3l.1,1.9l.9,1h.5l.1,-6.4l-1.7,-1.2l-1.5,1.1l-.6,.3l-.9,-.6v-1.8Z" class="g2_14"/>
<path d="M630.8,157.3l-2.1,.5l.4,2.5l2.4,.6l.1,.5l-3.5,1.1l-2,3.3l.7,3.5l1.1,.8l.9,-.9l.3,.5L628,171l-4.2,2l-2.7,.6l-.1,1l6.2,-1.8l2.6,-.7l2.4,-2.9l2.6,-1.8l-1.3,2.3l1.4,.2l2.5,-1.1l.5,1.8l1.7,.4l1.8,1.7l.1,1.3l-.2,.3l.3,1.2h.4l.1,-2h.5l.1,5.1l1.3,-1.1l-.9,-5.3h-1.3l-1.5,-1.9l7.2,-12.2l-7.1,-5.7l-8,1.6l-.4,2.4l1.8,1.1l-.7,1.7Z" class="g2_14"/>
<path d="M659.5,155l.1,1l-2.1,2.1l.5,1.8l1.5,-.4l.9,-1.3l2.2,-.8l1.8,-.1L663,155.8l-.7,.5l-.5,-.2l-.3,-.6l-.6,-.7Z" class="g2_14"/>
<path d="M662.2,151.9l-.4,.8l2.2,.8l.8,-1.2l.4,.8h.6l1.1,-1.2l-1.4,-.4l-.5,-.4l-.7,.7Z" class="g2_14"/>
<path d="M666.2,153.5l-1.8,.8v.5l2.3,.9l-.5,.6l.3,.7l1.4,-.6h1.3l.5,.9l1,-1l-.2,-.9l-.8,.3l-.1,-1.2l.4,-.7h-.4l-.7,.4l-.3,.3l.2,.8l-.4,.3h-.7l-.2,-1.1Z" class="g2_14"/>
<path d="M668.3,152.3l1.1,.5l.8,-.5V152l-1.7,-.3Z" class="g2_14"/>
<path d="M668.6,151v.4l1.8,-.1v-.4l-1,-.2Z" class="g2_14"/>
<path d="M673.2,151.7l-.1,.4l-.3,.4v.6l1.1,-.2l1.2,1h.4v-1l-1.2,-1.3Z" class="g2_14"/>
<path d="M676.2,152.9l.4,.5l-.4,.7l.3,.7l1.3,-.7v-.5l-.8,-.9Z" class="g2_14"/>
<path d="M677.8,151.5l.1,1h1.6l.4,.3l-.1,.4l-1.4,.2l1,1.3l1.3,.2l1.9,-.8l-2.7,-4l-.8,.6l.1,.7l-1,-.4Z" class="g2_14"/>
<path d="M664.4,158.1l-2.2,.6l-1.2,1.1l.1,1.2l2.3,.7l-.5,1.1l-1.7,-1l-.5,.9l1.1,.7v1.2l1.7,.5l2,-.1l.3,-.7l1.5,1.7l1,-.3l.2,-1.2l.8,.5l.1,-1.1l-.9,-.6v-3.7l-.8,-.6l-.8,1.2Z" class="g2_14"/>
<path d="M671.5,160.6l-.8,-.3l-.4,.5l.8,1.3l.1,1.2l1.7,-1v-1.5l.6,-.7l-.6,-.5h-1Z" class="g2_14"/>
<path d="M675.1,160.1l-1.2,1l.3,1.2h.8l.3,-.6l.5,.5l.5,-.1l1.4,-1.1Z" class="g2_14"/>
<path d="M674.7,158.8l1.3,.4l.3,-.5l-1.3,-.5Z" class="g2_14"/>
<path d="M674.3,156l-1.3,.2l-.7,.7h1.3l-.4,1.1l.3,.4h.4l1,-1.6Z" class="g2_14"/>
<path d="M676.5,155.6l-.7,.2l.1,.9l1.1,.8l.1,.6l-.4,.3l.2,1.2l4.5,1.4l1.2,.4l1.2,-1l-1.5,-1.2l-1.3,.4l-1.8,-.2l-.7,-.7l-.2,-1.9l-1.1,-.6Z" class="g2_14"/>
<path d="M680.1,161.6l-1.3,-.1l-1.5,.6l-.8,1.1l.2,3l2.5,.1l2.4,1.2l1.7,1.9l1.2,-.1l-.3,1.8L683,173l-1.2,.6l-1,-.2l-.4,-.4l-.7,1l.3,.9l1,.1l1.2,-.6l1,2.6l2.6,1.7l1.8,-2.2L686.1,174l.8,-1l1.2,2.1l2.2,-1.9l-.4,-.9l-1.5,.5l-1,-2.9l1,-1.6l-2,-2.1l-1.1,.8l-1,-2.3l-2.2,.3l-.6,-2.7l-1.8,1.2l-.1,1.5h-1l.1,-1.3Z" class="g2_14"/>
<path d="M682.2,163.1l.4,.7l1.9,.2l-1.2,-1.3h-.6Z" class="g2_14"/>
<path d="M680.8,156.1v.5l-1.2,.3l.3,.6l1.5,.6l1.6,.2l1.1,.8l1.2,-.7l-.8,-.8h1l.6,-.7l1.6,-.2v-.4l-.9,-.5l.1,-.7l2.4,.4l3.6,-1.4l-1.3,-.4l.3,-.4h2.8l.5,-.5l-5.6,-2l-1.3,-.4l-1.5,1l-1.6,-1.3l-.9,-.1l-.1,1.1l-1.1,-1l-1.3,.4l.2,.7l1.9,.4l-.1,.9l1.1,.7l2.5,-.7v.9l-2,1l-1.3,-1l-1.1,.1l1.1,1.6l-.6,.3l-.8,-.7l-.7,.4l.6,1.1h1l-.2,1l-.8,-.1L681.5,156Z" class="g2_14"/>
<path d="M675.7,172.1l-1.1,1.4l-.1,1.5l1,-.6h1.2l.8,.8l.7,-.6Z" class="g2_14"/>
<path d="M689.1,190l-2.8,2.7l.3,.6l3.4,1.2l.4,-.8l-.2,-1.4l-1.1,.2l-.6,-.7l1,-1.1Z" class="g2_14"/>
<path d="M647.7,158.3l.5,.7l.3,1.1l1.3,.3l.9,-1l.8,.4l2.2,.2l1.5,-.6l.3,2.1h.9v-.9l.9,.1l2.3,2.6l1.5,1l-.8,1.2l.3,.3l2.9,.6l.1,1.3l.7,.1l.2,-1.9l1.3,-.3l.9,1.3l1.9,.9l1,.2l.6,-.7l.1,-1.3l1.2,-.7l.3,1l-1,1.9l.1,.9l.6,-.9l1.2,-1.1v-1.3l-.6,-1.1l.2,-.8l1.5,-.8l.8,.5l.1,4.6l1.1,-1l.6,.4l-.9,1.5l1.2,.3l1.7,-2.6l1.4,1.5l-.6,2.7l-1.4,.7l-1.4,-.6l-2.4,.5l.2,.9l-.6,1l-2,.5l-2.3,1.7l-2,2.7l-.2,.8l1.3,.6l.5,1.3l1.9,1.9l3,1.3l-.7,3v.8l.7,.5l1.1,-1.3l.1,-2.7h1.6l.8,-1.5l.1,-2.3l2.1,-4l2.6,.9l1.3,1.9l-.5,1.9l1,.5l2.5,-1.7l.7,4.7l2.4,2.8v1.4l-2.6,.7l-1.2,1.3l-2.6,-.6l-1.3,-.1l-2.2,1.8l1.3,-.4l1.7,-.3l.3,.4l-.4,1.4v1.3l.8,.6l.8,-.2l.4,-.6h.5l-.8,1.6h-1.7l-.7,1.1H681l-.2,-.8l1.3,-1.3l-1.6,.5l-.1,-2.2l-.4,-.3l-1.4,.6l-.1,1.1h-3.1l-2.6,1.8l-3.6,1.2l-.4,-.5l1.8,-2.7l-1,-1l-.7,-1.2l-1.3,-1l-1.4,-.1l-2.5,-1.8l-18.4,-3l-.3,-1.2l-1.7,-1.6v-1.3l.3,-1.2l-.1,-.6l-.7,-.7l-.1,-1l1.7,-1.2l-1.1,-5.6l-1.4,-.1l-1.3,-1.7Z" class="g2_14"/>
<path d="M645.3,186.7l-.3,1.1l-.9,-.6h-.4l-.3,1.1l-3.2,7.1l.9,6.2l1,.5l.2,1.7h2.1l2.1,1.6l4.1,.4l.4,2l.7,.5l.9,-.9l.7,.3l.6,3l1.1,.7l.9,-1.7l2.8,-2l1.8,.9l1.6,.1v-1l3.3,.1l.6,.7l.2,1.6l-.4,.9l.4,1.6h1l1,-1.5l-.4,-.7l-.4,-1.6l.6,-1.7l2.6,-2.3l2,-.6l-.2,-1.9l2.7,-3l2.8,-.5l-.4,-1.5l2.7,-1.6v-2.1l-.3,-.1l-.9,.3l-.2,1.3h-3.2l-2.5,1.7l-4,1.3l-.6,-.7l1.8,-2.8l-.9,-.8l-.6,-1.2l-1.3,-1l-1.3,-.1l-2.6,-1.8Z" class="g4_14"/>
<path d="M641,179.8l.1,.6l.3,.2l-.1,.2l-.3,.1l.1,.9l.3,.3l.3,-.2l-.3,-.9l.2,-.7l.5,-.6l-.4,-.6l-.3,-.1Z" class="g2_14"/>
<path d="M642.9,184l-.4,.2l.7,.8l.2,1l.7,.8l.6,-.1v-1l-.7,-.5Z" class="g2_14"/>
<path d="M657.2,221.3l1.6,1.1l1.5,-1.9l-.2,-.4h-.6V219l-.4,-.3l-1.2,.4l.5,1Z" class="g2_14"/>
<path d="M660.5,220.6l2.4,-.1l.7,.8l-.4,-.1l-.9,.1l-1.1,1l-.4,1.1l-.4,-.2v-1.1l-.7,-.5Z" class="g2_14"/>
<path d="M659,222.5l1.2,.6v-.9l-.6,-.4Z" class="g2_14"/>
<path d="M663.2,221.5l.5,.1l.1,1.1l-.7,1.9l-1.8,-.2l-.4,-.9l.6,-1.1l1,-.9Z" class="g2_14"/>
<path d="M663.1,224.8l.3,.7l.3,.4l-.4,1.2l-.7,-.6l-1.2,-1.1v-.7Z" class="g2_14"/>
<path d="M663.9,226l-.4,1.2l1.3,.3l.8,.2l.1,-1l.8,-.4l.8,.4l.3,.5l.3,-.1l.3,-.8l-.9,-.4l-.7,-.4l-.7,.5l-.9,.4l-.8,-.3Z" class="g2_14"/>
<path d="M672.5,223.4H672l-3.6,2.9l-.3,1l-.5,.1l.2,2.2l-1.2,3.1l1.3,1.1l1.7,.1l1.2,1.7l1.7,.1V237h.6l.7,-2.4l-.6,-.8l.1,-1.5l1.4,-.1l-.2,-3.5l-3,-1l-.7,-1.9Z" class="g2_14"/>
<path d="M671.7,225l.1,.7l.8,.3l.2,-1.3l.9,-.9l.9,1.1l2,.5l1.8,-.3l1.2,1.4l.9,.6l-1,1.5l.3,1.1l-.6,.7l-.5,.5l-1.3,-.7l-.3,.3v.9l.9,.5l-.6,.7l-.7,.7l-.9,-.1l-.9,-.9l-.2,-3.7l-3,-1.1l-.6,-1.6Z" class="g2_14"/>
<path d="M680.6,227.2l1.9,1.7l-.7,.8l-.1,.5l1,1v1l-1.7,.7l-1.1,-1.4l.3,-1.7l-.5,-1.2Z" class="g2_14"/>
<path d="M682.7,229l.6,.5l.8,-.5h.7l-.1,.3l-.3,.6v1.7l-1.5,.6l.1,-1.1l-1,-.9v-.4Z" class="g2_14"/>
<path d="M685.1,229.2l1.5,.9l-.8,1.6l-.3,.3l-.8,-.4v-1.7Z" class="g2_14"/>
<path d="M666.4,232.8l-1.2,.8l-.1,1.1l-.3,.4l.8,.7l-.3,.4l.1,.9l1.3,.3l2.1,-2.4v-.9l-1,-.1Z" class="g2_14"/>
<path d="M665.1,236.4l-.5,.5v.8l4.4,8l4.6,2.9l.7,-1.2l.1,-2.6l-.3,-1.6l-1.3,-2.1l-.7,.3l-.3,.3L670.3,240l.3,-2l1.8,-1.1l-.2,-1l-1.7,-.1l-.9,-1.5l-.5,-.2v.9l-2.2,2.7l-1.7,-.4Z" class="g2_14"/>
<path d="M673.8,242.4l2.1,-.9h.8l.4,2l3.3,1.1l.5,1.6l1.4,.2l.5,1.4l-.4,1.3l-2.2,.2l-.8,2h-1.7l-.5,-.1l-1,1l-.5,-.1L674,248.2l.5,-.7l.2,-2.7l-.5,-1.7Z" class="g2_14"/>
<path d="M682.4,249.3l.6,.6l-.1,1.4l1.6,-.1l1.3,1.6l-.1,1.4l-.8,1.2l-1.7,.1v-.7l.4,-1.1l-1.6,-1h-1.3l-1,-1.1l.7,-2.1Z" class="g2_14"/>
<path d="M684.6,257.7l-.5,.6l.2,3.1l1.7,.5l2.1,-2.2Z" class="g2_14"/>
<path d="M685.9,254.2l.5,.4l-1.9,2.9l-.6,.7l.2,3.3l1.5,1.8l-1.3,2.1l-.9,.4h-1.1l.3,1.7l-1.7,.6l.4,1.4l-1,3.2l1.3,1.1l-.7,1.6l-1.1,1.8l.6,1.3l-1.5,.2l-1.2,-1.5l-.2,-4.6l-1.9,-7.9l.6,-2.7L675,258.4l.8,-4.5l.7,-.9l-.2,-.7l1,-.8l2.1,.1l1.2,1.3h1.3l1.4,.8l-.4,1l.1,1l2,-.1Z" class="g2_14"/>
<path d="M680.6,279.1l-1.1,2.4l1.9,.2l.1,-1.6Z" class="g2_14"/>
<path d="M681.7,281.8l1.2,-.1l.9,-.7l-1.6,-.3l-.5,-.4Z" class="g2_14"/>
<path d="M680.3,278.7l-.9,.9l-.1,1.1l-1.6,-.9L676,277.3l-.5,-.9l.7,-.9l-.1,-1.1l-.8,-.4l-.6,-.4l.1,-.7l.9,-.2l.1,-3.7l-1.3,-.8l-.8,-19.3l.2,-.4l1.7,3.8h.5l.2,.6l-.7,.9l-.8,4.6l1.1,3.6l-.5,2.7l1.9,8l.2,4.6l1.3,1.6Z" class="g2_14"/>
<path d="M674.4,269.5l.2,.8l.3,.1l.2,-1.1l-.4,-.3Z" class="g2_14"/>
<path d="M688.2,259.5l1.6,-3.1l.1,-2.6l3,-2h1.7l1.4,-2.2l.2,-4.3l-.5,-1.2l3.2,-2.9l.1,-3.3l-4.4,-2.1l-5.2,-1.6l-2.5,-.3l.6,-1.4l-.1,-2.1l-.6,-.2l-.8,1.6l-.4,.5l-1.1,-.5l-3.6,1.3l-1.2,-1.5l.2,-1.6l-1.2,1.2l-1.2,-.7l-.2,.2v.5l1.1,.6l-1.6,1.7h-1l-1.1,-1h-1.2l-.1,1.3l.7,.8l-.8,2.5l-1,.1l-1.4,1l-.4,1.8l1.3,1.4l.2,-.3l.9,-.2l.8,1.3l2.2,-1l.9,.1l.6,2.1l3.1,1l.6,1.6l1.3,.2l.7,1.6l-.5,1.4l.6,.8l-.1,1.1l1.5,-.2l1.4,1.8l-.1,1.2l.8,.7l-1.9,3Z" class="g2_14"/>
<path d="M660.2,218.5l-.4,.4l-.1,1h.3l.7,-1.4Z" class="g2_14"/>
<path d="M819,164.6l.4,1.5l.9,.3l.9,-1.4l-.5,-1l.2,-.9h1.4l-.3,.7l.1,2.3l-2,4.9l.2,1.1v1.7l3.6,5.4l.7,.2l.1,-4.4l.7,-.6l-.8,-1.7l.7,-.8L823.8,170l-.7,.1l-.3,-3.2l2,-.5l.2,-.9l1,-.3l.6,.6l.7,-2.9l1.2,-2.1l1,-.6l.9,.1v-1L829,159l-1.9,-1.5l.9,-1.1l-.8,-1.8l.7,-.6l.8,1l1.9,.8l2.2,.2l.2,-1l-1.1,-1.1l1.3,-1.7l-2.8,-1l-.8,1.5l-.9,-1.2l-5.1,-1.8l-4.9,.9l-.7,.4v.4l1,.5l-.1,1.2l-1.9,-.8l-4.2,1.7l-.7,-1.5h-2.9l-1.3,1.4l-4.6,-1.1l-4.2,.9l-.6,1.3l.7,.2l-.1,1l-4.1,.4l.3,1.3l-3.8,-.6l.9,-1.7l-3.8,-.2l.3,1.7l-1.3,.6l-1,-.9l-4.2,.7l-1.7,1.5v.9l-1.1,.1l-.1,-1.1l3.3,-2.9v-1.9l-2.1,-.6l-2.8,.9l-1.2,-1.2h-.5l-.7,1.3l.5,.6l-3.7,2l-3.2,2.5l-1.9,2.7v1.1l2.1,.8l-1.1,.8l-2.2,-.8l-.9,.8l-1.4,-1.6l-.2,.6l1.5,4.8l.3,.1l1.1,-.5l.5,.4v.8l-1,-.4l-.6,.5l.4,.8l-.3,2.3l-2,.2l-.1,-.8l1.1,-.7l.3,-1.9l-1.3,-1.8l-.5,-2.9l-2.1,-.3l-.1,1l.3,.5l-.8,.8l.3,1.9l1.3,.6l.2,1.4l-1.2,-.8l-3.2,-.6l-.4,1.1l-2.5,.9l-.4,-.7l-3.4,1.9v1.2l-1.3,.2l.4,-.9v-.9l-1.4,-.5l-.8,.4l.7,1.3l.5,1v.7l-.9,-.2l-.2,-.2l-1,1l.5,1l-2.2,-.1l.7,.9l-.2,.4h-1.2l-.8,-.6l-.2,-1.6l-1.4,-.6v-.6l2.9,.6l1.6,.1l.6,-1l-.6,-1l-4.1,-1.7l-1.5,.4l-.5,.4l.2,1l.6,.1l-.2,1.5l1.9,4.5l-1.3,2.1l-.1,.5l.7,.5l-.7,.4h-.4l.1,1.9l.6,.8v.8l.7,.1l1.1,.4l1.2,1.7v.4l-.3,.7l.8,-.1l.9,.3l1.2,1.6l2.9,.3l-.2,1.9l-1,.9l.2,.3l-.9,1.1l-.3,1l.6,.8l1.9,.7l.8,-.5l5,1.9l.2,-.5l-1.1,-1v-1.2L755,197l.1,-1.1l1.1,-1.2l-1.9,-1.4l.1,-2l2,-1.3l2.4,.1l.4,.7l2.4,.2l1.7,-1l-.9,-1l.2,-1.8l4.6,-2.3l3.5,1.6l1.2,-1l3.4,3.2l2.6,-.2l.9,.9l2.5,.3l1.7,-2.3l2,1l1.2,.2l1.1,-1l-1,-.7l.8,-1.3l2.4,.8l.6,1l1,.1l.7,-.5h1.7l.2,.4l2,.2l1.4,-1.5l2.8,.4l.9,-.4l.2,-1.6l-.8,-1.9l.8,-.7h2.7l2.5,3l3.3,1.9h1l.1,-.8l1.2,-.7l.1,4.2l-1,.1v1.1l.6,.7l-.2,.9l.5,.2l.2,-.7l.4,.2l.3,.2l1.2,-.2l1.1,-3.4l.2,-4.3l-1.5,-3.4l-1.9,-2.3l-.9,.1v.7l-2.3,-.8l.9,-1.9l.7,-4.8l3,-1l1.4,-.9h1.6l-.4,.6l.4,.6l1.4,-1.4h.8l-.2,-.8l-1.2,-.3l.8,-3.1Z" class="g2_14"/>
<path d="M780.7,189.8l-.9,2.2h-1.3l-1.3,2.8l1.1,1.4l-2.3,3.2l-1.1,-.2l-.8,1l.2,.6h.9l.5,1.1l.9,.2l2.8,3.6v1.8l1.3,.9l1.5,-.3l1.9,1.1l2.3,.7l1.1,-.1l1.3,-.2l2.6,-1.7l.8,.2l.3,.7l.8,.3l.9,1.4l-.6,1.4l.4,1l1.1,.4l.2,1.2l1.3,.1l.2,-.6l1.9,-.9h1.2l1.3,1.5l.9,-.4l.6,.1l.3,.7l.4,.1l.7,-.9l2.6,-1l2.4,-2.8l.7,-2.7v-1.8l-1,-.2l.6,-.7l-.1,-1l-2.5,-2.5v-1.3l.7,-.9l.7,-.3l.1,-.7h-1.9l-.3,1l-.8,-.2l-1.1,-1.2l.7,-1.7l.9,-.9h.8l-.1,1.5l.5,.4l1.1,-1.1l.4,-.1l-.2,-.8l1.1,-1.3l.8,.1l.4,-1.4l.6,-.3v-.9l-.5,-.6l-.1,-1.4l1,-.1v-3.6l-.7,.4l-.3,.9h-1.2l-3.3,-1.9l-2.5,-2.9l-2.5,-.1l-.6,.6l.8,1.8l-.3,1.8l-1,.4l-.6,-.1v1.7l.6,.2l1,-.5l1.4,.7v.6l-1,.1l-.8,1.7l-.7,.1l-2.5,3.3l-2.7,1.2l-1.8,.1l-1.3,-.8l-1.7,.9l-1.9,-.6l-.5,-1.2l-3.2,-.2l-1.7,-2.8h-.7l-.6,-1.3Z" class="g2_14"/>
<path d="M781.5,189.8l1.6,-2l1.8,.8l1.2,.4l1.5,-1.4l-1,-.8l.7,-.9l2,.7l.7,1.1l1.2,.1l.7,-.5l1.4,-.1l.2,.5l2.3,.1l1.4,-1.4l2,.2l-.1,2l.9,.2l1,-.5l1.1,.5v.3h-.8l-.8,1.8l-.7,.1l-2.6,3.3l-2.6,1.2l-1.6,.1l-1.4,-.9l-1.7,1l-1.7,-.6l-.5,-1.2l-3.3,-.2l-1.6,-2.8l-.8,-.1Z" class="g2_14"/>
<path d="M808.7,196.1l.4,.2l.2,1.6l.9,.1l.9,-1.1l-.3,-.2l.1,-1.2l.8,-1l-.4,-.7l.2,-.3l.2,-.8l-.5,-.2l-.4,.2l-.5,1.5l-.8,-.1l-.9,1.2Z" class="g2_14"/>
<path d="M811.3,197.1l1.6,1.3l.2,1.3v.6l-.8,.9l-.7,.1l-.7,-1.7l-.3,-.8l.3,-.2l-.1,-.4l-.4,-.1Z" class="g2_14"/>
<path d="M756.3,194.6l1.1,-.5h1.2l.1,1.8H758l-.6,.9l.7,1.1l1.1,.6l.1,.7l.3,-.1l.4,-.5l.6,.2l.2,.5h.8v-.7l-.5,-1.3l-.2,-1.1l1.3,-.6l1.8,.3l1.1,1.1l2.5,-.2l1.4,2h1.6l.5,-.7l.6,-.1v-.8l.9,-.1l.5,.5l.4,-1l3.9,.5l.7,-.9l-1.2,-1.3l1.5,-3.2h1.2l.8,-1.9l-1.6,-.2l-.9,-.9l-2.6,.3l-3.4,-3.2l-1.2,1l-3.5,-1.6l-4.4,2.1l-.1,1.6l1,1.2l-2,1.1l-2.6,-.1l-.6,-.8l-2,-.1l-1.9,1.3l-.1,1.7Z" class="g2_14"/>
<path d="M760.8,199.5l-.2,.7h-1v.9l1.1,.8l-.3,1v.5l.4,.1l.7,-.9l1.4,-.3l3.1,1.2v.8l1.7,.2l2,-2l-.3,-.7l-1.3,-.2l-3.6,-2.4l-.1,-.8H763l-.6,1.1h-.6Z" class="g2_14"/>
<path d="M769.9,202.5h.8v-1.3l-.8,-.5l1.3,-1.6h.5l.6,.6l1.3,-.5l-1.9,-.6v-.4l-.5,.1l-.4,.7h-1.9l-1.4,-2l-2.4,.3l-1.2,-1.2l-1.6,-.3l-1.2,.5l.7,2.3v.7h.5l.6,-1.1h1.6l.2,.9l3.5,2.3l1.3,.3Z" class="g2_14"/>
<path d="M770.2,200.6l1.1,-1.3h.4l.1,.3l-.5,.3v.3l.4,.3l1.5,.1l.5,-.2h.3l.1,.5l.9,.1l.5,1l-.1,.3h-.2l-.2,-.4h-.4l-.7,.1v.6h-.7v-.8l-.5,-.5l-.8,.6v.4l-.7,.2h-.4l.1,-1.4Z" class="g2_14"/>
<path d="M771.9,197.3v1.1l2.3,.8l-2,.8l-.2,-.2l-.4,.2v.2l.2,.1h1.4l.7,-.2l.9,-1.1l1.1,.2l1.4,-1.9l-3.7,-.5l-.5,1.2l-.6,-.7Z" class="g2_14"/>
<path d="M766.1,204.6l.4,3.2l1,.2l.1,.6l-.7,.6l1.3,1.1l2.7,-.9l.2,-1.2l1.7,-1l.6,-2.4l.5,-.6l-.5,-.8l1.6,-1l-.2,-.3h-.7l-.1,.7h-1v-.9l-.3,-.4l-.6,.5v.4l-.8,.4l-1.5,-.1l-2,2Z" class="g2_14"/>
<path d="M768.4,210.5l.7,1l-.1,.5l-.9,.4l-.1,.8h1.1l.3,-.3h2l1.7,1.6l.3,-.8h1.3v-.9l-1.3,-1.3l.3,-.7l1.3,-.1l1.9,-3.9l-1,-.8l-.4,-1.4l2.5,-.2l-1.5,-2.1l-.8,-.2l-.3,.4h-.2l-1.5,.9l.5,.8l-.6,.6l-.7,2.5l-1.6,1.1l-.2,1.1Z" class="g2_14"/>
<path d="M780.8,226.9l1.2,-.6l.7,-2.6v-3.1l4,-4.4v-1l.9,-.3l-.1,-1.2l-.9,-1.8l.5,-.9l1.2,1l1.4,.1v.6l-.4,.5l.1,.2l.7,.1l.2,.8h.2l.6,-1l.3,-2.7l.9,-.7l.1,-.9l-.4,-.8h-.6l-2.4,1.6l.1,1h-1.6l-.6,-.7h-.4l.2,1l-3.7,-.3l-2.2,-1l-.1,-1.2l-1.5,-.9l-.1,-1.9l-1,-1.2l-2.3,.2l.2,1l1.2,1l-2,4.1l-1.4,.1l-.2,.5l1.3,1.2v1.2h-1.4l-.1,.6h1.1v.4l-.8,.5l.5,.9l1,.4l.6,-.5l.3,-.8l.4,-.2l.4,.5l-.1,1l-.3,.5v.8Z" class="g2_14"/>
<path d="M780.9,208.6l.1,1.1l2.1,.9l3.3,.3l-.1,-.8l-2.2,-.6l-1.9,-1.2Z" class="g2_14"/>
<path d="M787.2,210l.4,.6h1.3l-.1,-.8Z" class="g2_14"/>
<path d="M787.2,211.3l-.3,.6l.8,1.7l.1,1.3l.1,.4H789l.5,-.6l.5,.3l.1,.8l.3,-.2v-1l-.3,-.1l-.1,-.8l-.8,-.1l-.1,-.4l.4,-.6v-.3h-1.3Z" class="g2_14"/>
<path d="M796,224.4l-.7,-1.1l.5,-.7l-.5,-.9l-.5,-.1l-.1,-1.6l-.7,-1.3l-.2,.3l-.4,.8l-.6,.1l-.3,-.4l-.1,-1l-.5,-.8L790.2,216l.4,-.3l.1,-1.2l.6,-1.1l.3,-2.7l.9,-.6l.1,-1l.5,.2l.9,1.2l-.6,1.4l.4,1.2l1.1,.4l.2,1.2l1.5,.2l-.4,.7l-1.9,.8l-.2,1.2l1.4,1.7v.9l-.3,.4v.3l1.1,1.5v1.5Z" class="g2_14"/>
<path d="M796.1,215.8l.9,1.1v1.3l.3,.2l1.3,-.7l.3,.1l1.6,1.9l-.1,1.2l-.5,-.1l-.5,-.3l-.3,.1l-.6,1l.1,.5l.5,.3l-.1,.6l-.3,.2l-1.2,-.8v-.7l-.5,-.1l-.2,.3l-.1,3.3l.8,1.4l1.3,1.3v.4h-.7l-.7,-1h-.7l-.9,-.7l-.2,-.7l.3,-.6l.2,-.6l.4,-.7v-1.7l-1,-1.5l-.1,-.1l.3,-.4v-1.1l-1.4,-1.7l.2,-1Z" class="g2_14"/>
<path d="M796.8,227.5l.6,1.2l.1,1.5l.7,1.1l1.7,1l.6,.1l-.1,-1.1l-.6,-1.3l-.8,-1.8l-.1,.3H798l-.7,-1Z" class="g2_14"/>
<path d="M798.9,223.4l1,1.1l2,-1.5l.2,-2.3l-1.1,.7l-.5,-.3l-.7,-.1l-.4,-.2h-.2l-.5,.8l.1,.4l.5,.3l-.1,.8Z" class="g2_14"/>
<path d="M797.6,213.9l-.7,.3l-.5,1.5l.9,1.1l-.2,1.3h.2l1.4,-.7l2,2.2l-.1,1.4l.4,.2l1.1,-.9l-.1,-.6l-3,-2.9v-.4l.4,-.3l-.3,-.7l-1.2,-.2Z" class="g2_14"/>
<path d="M800,224.7l.3,.4l.1,.6l.8,.1l1,-1.3l.9,-.3l.5,-1.3l-.2,-2.2l-1,-1.3l-1,-.8l-1.3,-2.2l1,-1.6l-1.4,-1.5h-1l-1,.5l.3,1.2l1.3,.2l.3,1l-.4,.3v.2l3,2.9l.1,.8l-.2,2.7Z" class="g2_14"/>
<path d="M750.8,198.6l.9,1.1l1,.5h.7l1.1,-.3l.3,-.4l-3.3,-1.3Z" class="g2_14"/>
<path d="M754.5,200.1l1.3,1.6l-.4,.5l-.9,-.2l-1.1,-1l.1,-.6Z" class="g2_14"/>
<path d="M755,199.5l-.3,.5l1.2,1.6l.5,-.1l.7,.7l.3,-1.3l.7,.1v-.3l-1.3,-1.1l-.2,.6Z" class="g2_14"/>
<path d="M754.5,202.2l-.3,.3v.6l.4,.5l1.4,1.5l-.2,.7h-.2l-.2,.6l.8,1h.8l1.4,2.1h.8l.7,.5v.9l2.5,1.5h1l.6,-.5h.7l.4,.9l2.7,.4l.1,-1l.9,-.3l.1,-.4l-.7,-1l-1.7,-1.2l.9,-.8l-.1,-.3l-1,-.2l-.5,-3.6v-.8l-2.9,-1.1l-1.2,.3l-.8,.9l-.6,-.1l-.2,.2l-1.4,-.1L757,202.4l-.7,-.7l-.3,.1l-.5,.6Z" class="g2_14"/>
<path d="M751.7,199.9l-.6,.6H749l-1.3,-.8h-1.3l-1.4,1l-1.3,.1l-.2,.7H742l-.6,.6v.3l.4,.3v.3l-.2,.4l.2,.4l.5,-.3l.5,.5l-.2,.4l-.1,.3l.2,.3l1.4,.2l.9,-.4v-.5h.5l1.1,.7l1.2,-.2l.5,-.5l.3,.1v.6h.5l.4,-.8l3.4,-.3l1.5,-.2l-.4,-.6v-.7l.3,-.3l-1.1,-.9l.1,-.8h-.6Z" class="g2_14"/>
<path d="M755.1,220.7l.4,1.1v1.1l.9,.8l6.3,-2.6l.1,-.7l-1,-1.8l-2.6,.8l-1.4,1.5l-1.7,-1Z" class="g2_14"/>
<path d="M762,218.5l1.9,-1.1l.3,-1.6l-.4,-.2l.2,-1.8l.3,-.2l.4,.6l2.4,1.2v.7l-2.9,4.2h-1.3Z" class="g2_14"/>
<path d="M760.8,214.4l.3,.9l2.5,.2l.2,-1.8l.5,-.3l.1,-.7l-.8,.3l-.9,1.3Z" class="g2_14"/>
<path d="M760.5,212.9l-.2,1l.4,.3h.4l.1,-1.3l-.3,-.3Z" class="g2_14"/>
<path d="M757.1,209.9v.8l1,.4v-1.3l-.6,-.3Z" class="g2_14"/>
<path d="M758.2,211.4l1.9,2.5l.5,.5l.3,1.1l2.8,.2l.3,.2l-.3,1.4l-1.8,1.1l-2.7,.8l-1.5,1.4l-1.7,-1l-1,.9l-1.4,-2.3l-1,-.5l-.4,-.5V216l-3.6,-4.4l-.1,-.7h1l1.3,-1.1v-.6l-.3,-.3l.7,-.6l1.5,.1l2.6,2.2l1.6,-.1l.1,.4Z" class="g2_14"/>
<path d="M748.5,205.1v.7l.7,.3v1.8h.7l.7,-.6h.3l1.7,-1.3l.3,-2l-3.3,.4l-.4,.7Z" class="g2_14"/>
<path d="M753.1,204l-.4,2l-1.7,1.4l.2,.7l1.6,.1l2.6,2.1h1.5v-.5l.5,-.6l.8,.4h.1l-1.5,-2h-.7l-.9,-1.2l.2,-.8l.3,-.1l.1,-.4l-1.3,-1.3Z" class="g2_14"/>
<path d="M749.1,208.1l-.6,2.3v.3h1l1.1,-1v-.4l-.4,-.4l.8,-.7l-.1,-.7l-.3,.1l-.6,.5Z" class="g2_14"/>
<path d="M748.4,206.5l-.2,.7l.8,.1v-1.1l-.6,-.2Z" class="g2_14"/>
<path d="M747.8,208.7l.5,1.6l.6,-2.3v-.5l-.7,-.1Z" class="g2_14"/>
<path d="M746.9,205.7h-.7v.5l.3,.2l.5,.1l1,-1l-.3,-.2Z" class="g2_14"/>
<path d="M740.4,172.1l.6,-.3l-.1,-.5l-.3,-.2v-.5h.3v-.3l-1.2,-.3l-1.9,.2l-.2,.8l-.4,-.1l-.3,-.5H736l-.1,.9l-.4,.2l-.2,-.5l-1.9,1.6l.3,.4l-.7,.3l-1.6,3.3l-.6,.3l.1,.3l.6,.3l-.2,.6h-.9l-.3,-.3l-.6,.7l-.4,.3l-.1,.6l-.4,.2l-.8,.2l-.4,1.4l.2,2.2l.4,1l.4,.4l.8,-.1l1.3,-1.2l.4,-.8l.2,1.2l.8,-1.4v-4.1l.7,-.4l.2,-2.2l2,-2.9l.9,-.3l.5,-.6l1.4,.4l.7,.4l.2,-1.2l1.2,-.7Z" class="g2_14"/>
<path d="M722.5,184.3l-.5,.7l.2,.3h1.1v.5l-.3,.4l.2,1l.6,1.2l.5,1.1l.7,.3l.4,.6l-.1,.5l-.5,.3v.2l.3,.2l-.3,.4l-.6,.3l-1.3,-.2l-2,1l-.7,-.4l1.9,-1.1l-.2,-.1l-1,-.1l.6,-.9l.1,-.8l.8,-.1l-.1,-1.5h-1l-.3,-.4l.1,-1.1l-.6,.1l.6,-1.9l1,-.8Z" class="g2_14"/>
<path d="M719.6,187.6l-.1,.8l.6,.4l.6,-.1l.3,-.5l-.5,-.7Z" class="g2_14"/>
<path d="M720.7,188.9l-.2,1.5l-2.1,.8h-.7l-.4,-.3v-.3l1,-.7l-.3,-.6l.1,-.8h.9l.4,-.9l-.1,.8l.7,.6Z" class="g2_14"/>
<path d="M735.8,172.8l.6,.4h.9l.5,1.1l.2,1.7l-1.3,.9v.9l-.9,1.3h-.5l-.8,1.2l.1,1.2l1.2,.9l-.1,.5l-.4,.7l-.8,.6l.1,2.1l-1.1,.4l-.4,.8h-.5l-.3,-1.4l-1.2,-1.9l1,-1.6l.1,-4.1l.6,-.3l.2,-2.3l1.9,-2.8Z" class="g2_14"/>
<path d="M738.2,176l.5,.2l.4,.6l-.4,.5l-1.6,1.8l-.3,1l.4,1.4l1.3,.9l1.7,-.8l1.3,-.2l1.3,-2.1l-.9,-2.2l-.9,-2.2l.1,-1.4l-.6,-.1l-.1,-1l-.8,-1.2l-.8,.6l-.4,1.3l-.9,-.5l-1.2,-.3l-.3,.3l.5,.4h.9l.7,1.2Z" class="g2_14"/>
<path d="M741.1,184.9l-1.8,-.3l.1,1l1.6,1l.7,-.2v-.7Z" class="g2_14"/>
<path d="M737.6,184.2l.1,.2l.4,.1l.2,-.3l-.1,-.2l-.4,-.1Z" class="g2_14"/>
<path d="M737.1,185.8v.4l.2,.1h.4l.8,-.6l.1,-.2l-.4,-.5h-.4Z" class="g2_14"/>
<path d="M739.2,185.8h-.5l-.8,.7h-.6v.9l-.4,.7l1.4,.1l.4,-.1l.4,.5l.9,-.1l.9,-1.1v-.6Z" class="g2_14"/>
<path d="M739.2,188.8l.4,.6l-.2,.5l.1,.5l.1,.4l.8,-.4h1l.7,.3h1.8l.5,-1.2l.3,-.5v-.3l-1.1,-1.6l-1,-.4l-.8,-.1l-.7,.2v.7l-.9,1.3Z" class="g2_14"/>
<path d="M739.4,191l.2,.4l.1,.4l-.2,.4l-.4,.8l-.4,.2l-.4,-.2H738l-.7,.3l-.7,-.3l-1.2,-.8l-1.2,-.7l-.5,-.7l-.1,-1.7l.9,-.8l1.3,-.4l.4,-.1l-.2,.4l.2,.1l2,.1l.4,-.1l.8,1.2l-.2,.4l.1,.6Z" class="g2_14"/>
<path d="M723,198.8h-3.3l-.6,-.3l-.4,.1l-.4,.8l.2,.8l1.3,.1l.1,.6l-.5,3.1v.5l.9,.5l1,.1l2.1,-.5l1,-1.3V202l1.8,-1.6l.1,-.7l-1.6,-.1Z" class="g2_14"/>
<path d="M718.5,200.5l-.2,2.2l-.4,.4v.3l.4,.5l-.3,.7l.4,.1l.8,-.1v-.7l.5,-3l-.1,-.4Z" class="g2_14"/>
<path d="M725.9,202.2l.1,.3h.6l.3,-.3l-.6,-.2Z" class="g2_14"/>
<path d="M729.9,201.4l.1,1.3l.6,.1l.4,-.4v-1.3l-.4,-.1Z" class="g2_14"/>
<path d="M730.2,199.9l-.1,.4l.4,.3h.2l.1,-.7l-.1,-.5Z" class="g2_14"/>
<path d="M726.2,192l-.6,.2l-1.2,1.2h-.3l-.5,-.3l-.3,.1l-.2,.7h-1.7l.1,.4l1.1,.8l1.4,1l-.1,1.3l-.7,1.3l1.6,.7h1.5l.5,-.5h1l.3,.3l1,-.1l.5,-.7l-.7,-.7v-.5l.1,-.5l-.3,-.5l-.6,.2v-.5l1.2,-1.3v-.8l-.8,-.5h-.4Z" class="g2_14"/>
<path d="M728.7,189.3l-1.2,.6l.2,.2l.1,.6l-.3,-.1l-.3,-.4l-.6,1.1l1,.2l.4,.4h.2l.1,-.9l.6,-.3Z" class="g2_14"/>
<path d="M726.5,191.5l-.2,.4l1.8,1.1l.5,.2v-.6l-.4,-.5h-.3l-.4,-.4Z" class="g2_14"/>
<path d="M728.9,189.2l1,-.1v-.7l.7,-.1l.5,.4l.4,.1l.7,-.3l.6,.1l.6,.5l.1,1.8l.5,.7l-.7,.1l-1.2,.8l.1,.2l1.1,1l-.1,.5l-1,.5l-.9,.1l-.3,.5h-.4l-.3,-.6l-.8,-.2v-.8l-.7,-.5l.1,-.6l-.5,-.6l.1,-.9l.7,-.3Z" class="g2_14"/>
<path d="M730.4,185l-1.1,1.1v.8l.5,1.3l.7,-.1V187l.5,-.6V186l-.4,-1Z" class="g2_14"/>
<path d="M731.1,187.3v.5h.7l.1,-.5l-.3,-.2h-.2Z" class="g2_14"/>
<path d="M735.5,185l.3,.7l.5,-.5l-.3,-.6Z" class="g2_14"/>
<path d="M729.4,194.8l-1.1,1.2v.1l.5,-.1l.4,.6l.7,-.3l.5,.4l.2,-.1l.6,-1l-.2,-.1h-.6l-.3,-.6Z" class="g2_14"/>
<path d="M733.4,193.6h1.2l.6,.5l1.1,-1l-1.1,-.8l-1.1,-.5l-.7,.1l-1,.7Z" class="g2_14"/>
<path d="M737.4,193.5l-.9,-.2l-1.1,.9l.1,.2l.1,.2h1.9L739,194v-.7l-.3,.1l-.4,-.2h-.2Z" class="g2_14"/>
<path d="M731.4,195l-.2,.3l.2,.3l.6,-.1h.5l.6,.4l1.1,-.2l.9,-.5l.2,-.4v-.4l-.8,-.6h-1l-.1,.6l-1.1,.6Z" class="g2_14"/>
<path d="M735.6,194.8l-.3,.5v.7l.5,.3h1.5l2,-1.7v-.4l-.2,-.1l-1.5,.7Z" class="g2_14"/>
<path d="M734.4,195.9l-1.2,.2l.2,.7l.9,.1l.8,-.7v-.7Z" class="g2_14"/>
<path d="M735.3,196.3l-.9,.7h-.9l-.2,.7l.5,.1l.2,-.3l.3,.3l.3,.9l1.8,.9l.2,-.2l-1.9,-2l.2,-.3l1.8,-.1l.2,-.5h-1.2Z" class="g2_14"/>
<path d="M735.1,197.3l-.1,.1l1.7,1.8l.7,-.9l-.1,-.4l-.5,-.7Z" class="g2_14"/>
<path d="M729.2,196.8l-.1,.4v.4l.6,.7h1l2.2,2.5l1.3,.4l.8,.7l.2,1.8l.4,-.3l.4,-.9l-.1,-.7l.6,-.1l.1,-.3l-1.8,-.9l-1.6,-1.6l-.7,-1l-.2,-1l.9,-.2l-.2,-.6l-.6,-.4l-.4,-.1l-.7,.2l-.5,.8l-.4,.3l-.6,-.4Z" class="g2_14"/>
<path d="M732.8,203.5l.1,.4l1.1,.5l.2,.2l.3,.1v-1.2l-.4,-.2Z" class="g2_14"/>
<path d="M734.1,205.5v.5l.4,.2l.2,-.2l-.2,-.5Z" class="g2_14"/>
<path d="M740.5,190.6l-.8,.4l.2,.8l-.7,1.5v.6l.3,.2l2.1,.1l.6,-.5l.7,.2l.9,1.2l-.7,1.2l.8,.3l1,-1.2l.6,.1l.5,.4l-.4,.6l.6,1h.7l.4,-.7l.7,-.1v-.6l-1.4,-.2l.1,-.6H748l1.4,-1.1l.7,-.5l.1,-1.8l-2.8,-.2l-1.2,-1.6l-.8,-.3h-.9l-.5,1.1h-2l-.6,-.3Z" class="g2_14"/>
<path d="M741.8,194.4l.8,1.2v.7h.2l.7,-1.1l-.8,-1.1l-.5,-.2Z" class="g2_14"/>
<path d="M739.6,194.3l-.1,.4L738,196l1.3,1.8l.8,.6h1.4l.5,-.4l.7,-.1l.4,.3l.9,-1l-.2,-.5l-.8,-.2h-.6v-.8l-.8,-1.3Z" class="g2_14"/>
<path d="M736.8,199.5l.1,.3l.5,.1l.3,-.5v-.2l-.3,-.5Z" class="g2_14"/>
<path d="M737.9,196.1l-.6,.4h-.2l-.2,.6l.6,.7l.1,.6l-.1,.1l.4,.6v.3l.3,.3l1,-.3l-.1,-1.4Z" class="g2_14"/>
<path d="M739.4,198.2v1.3l.5,.9h1.6l.8,-.5l.7,-.3l-.2,-.8l.2,-.5l-.4,-.2l-.5,.1l-.4,.4H740Z" class="g2_14"/>
<path d="M737.5,200.1v1.2l.3,.6h.3l.4,-.8l-.3,-.3l-.1,-.9l-.3,-.3Z" class="g2_14"/>
<path d="M738.4,199.9v.8l.2,.2l1.1,-.5l-.4,-.8Z" class="g2_14"/>
<path d="M738.2,202.1l-.1,.4l1.3,.6l.5,.2l-.3,.3l-.6,.1l-.1,.3l.2,.5l.7,.4h.4V204l.5,-.6l-1.3,-1.6l.1,-.5h.3l.5,.4l.3,-.2l.1,-.5h1.4l.1,-.8l-.6,.4h-1.7l-1.1,.5Z" class="g2_14"/>
<path d="M742.4,200.1v.9l.8,-.3l.3,-.2l-.1,-.4l-.3,-.3Z" class="g2_14"/>
<path d="M740.6,205.7l.3,.2l.2,.3l1.2,-.1l.2,-.3l-.1,-.2l-.4,.2h-.6l-.2,-.3h-.4Z" class="g2_14"/>
<path d="M651.7,172.9c-5.2,0,-9.5,4.2,-9.5,9.5c0,1.4,.3,2.7,.8,3.9c2.4,5.2,7,10.7,8.3,12.2c.1,.2,.3,.2,.4,.2c.2,0,.3,0,.4,-.2c1.4,-1.5,5.9,-7,8.3,-12.2c.5,-1.2,.8,-2.5,.8,-3.9c0,-5.3,-4.2,-9.5,-9.5,-9.5m0,14.4c-2.7,0,-4.9,-2.2,-4.9,-4.9c0,-2.7,2.2,-4.9,4.9,-4.9c2.7,0,5,2.2,5,4.9c0,2.7,-2.3,4.9,-5,4.9Z" class="g1_14"/>
<path d="M642.2,168.6H792.3V147.7H642.2v20.9Z" class="g1_14"/>
<path d="M116.9,1192.2h39.4m13.7,0h58.3m13.8,0h51.3m13.7,0h42.4m13.8,0h44.6m13.8,0h57.1m13.8,0h23.3" class="g5_14"/>
<image clip-path="url(#c0_14)" preserveAspectRatio="none" x="83" y="606" width="785" height="289" xlink:href="img/1.png"/>
<image clip-path="url(#c1_14)" preserveAspectRatio="none" x="84" y="609" width="771" height="270" xlink:href="img/2.jpg"/>
<image preserveAspectRatio="none" x="579" y="291" width="274" height="286" xlink:href="img/3.jpg"/>
<path clip-path="url(#c0_14)" d="M-853,1233.1H0m0,0H853.1" class="g6_14"/>
</svg>